<svg width="256" height="256" viewBox="0 0 256 256" fill="none" xmlns="http://www.w3.org/2000/svg">
<path d="M256 128C256 198.692 198.692 256 128 256C57.3076 256 0 198.692 0 128C0 57.3075 57.3076 0 128 0C198.692 0 256 57.3075 256 128Z" fill="#FFF"/>
<path opacity="0.2" d="M172.8 128C172.8 136.861 170.173 145.522 165.25 152.89C160.327 160.257 153.33 165.999 145.144 169.39C136.958 172.781 127.95 173.668 119.26 171.939C110.57 170.211 102.587 165.944 96.3216 159.678C90.0562 153.413 85.7894 145.43 84.0608 136.74C82.3322 128.05 83.2194 119.042 86.6102 110.856C90.001 102.67 95.7431 95.6728 103.11 90.7502C110.478 85.8275 119.139 83.2 128 83.2C139.882 83.2 151.277 87.92 159.678 96.3216C168.08 104.723 172.8 116.118 172.8 128Z" fill="black"/>
<path d="M121.6 57.6V51.2C121.6 49.5026 122.274 47.8748 123.475 46.6745C124.675 45.4743 126.303 44.8 128 44.8C129.697 44.8 131.325 45.4743 132.526 46.6745C133.726 47.8748 134.4 49.5026 134.4 51.2V57.6C134.4 59.2974 133.726 60.9253 132.526 62.1255C131.325 63.3257 129.697 64 128 64C126.303 64 124.675 63.3257 123.475 62.1255C122.274 60.9253 121.6 59.2974 121.6 57.6ZM179.2 128C179.2 138.126 176.197 148.025 170.571 156.445C164.945 164.865 156.949 171.427 147.593 175.303C138.238 179.178 127.943 180.192 118.011 178.216C108.08 176.241 98.9566 171.364 91.7962 164.204C84.6357 157.043 79.7594 147.92 77.7838 137.989C75.8083 128.057 76.8222 117.762 80.6974 108.407C84.5726 99.051 91.135 91.0547 99.5548 85.4288C107.975 79.8028 117.874 76.8 128 76.8C141.575 76.8148 154.589 82.2139 164.188 91.8125C173.786 101.411 179.185 114.425 179.2 128ZM166.4 128C166.4 120.405 164.148 112.981 159.928 106.666C155.709 100.351 149.712 95.4294 142.695 92.523C135.678 89.6166 127.957 88.8562 120.509 90.3379C113.06 91.8195 106.217 95.4768 100.847 100.847C95.4768 106.217 91.8195 113.06 90.3379 120.509C88.8562 127.957 89.6166 135.678 92.5231 142.695C95.4295 149.712 100.351 155.709 106.666 159.928C112.981 164.148 120.405 166.4 128 166.4C138.181 166.389 147.942 162.34 155.141 155.141C162.34 147.942 166.389 138.181 166.4 128ZM72.272 81.328C73.4729 82.5289 75.1017 83.2036 76.8 83.2036C78.4984 83.2036 80.1271 82.5289 81.328 81.328C82.5289 80.1271 83.2036 78.4983 83.2036 76.8C83.2036 75.1017 82.5289 73.4729 81.328 72.272L74.928 65.872C73.7271 64.6711 72.0984 63.9964 70.4 63.9964C68.7017 63.9964 67.0729 64.6711 65.872 65.872C64.6711 67.0729 63.9965 68.7017 63.9965 70.4C63.9965 72.0983 64.6711 73.7271 65.872 74.928L72.272 81.328ZM72.272 174.672L65.872 181.072C64.6711 182.273 63.9965 183.902 63.9965 185.6C63.9965 187.298 64.6711 188.927 65.872 190.128C67.0729 191.329 68.7017 192.004 70.4 192.004C72.0984 192.004 73.7271 191.329 74.928 190.128L81.328 183.728C81.9226 183.133 82.3943 182.427 82.7161 181.651C83.038 180.874 83.2036 180.041 83.2036 179.2C83.2036 178.359 83.038 177.526 82.7161 176.749C82.3943 175.973 81.9226 175.267 81.328 174.672C80.7334 174.077 80.0275 173.606 79.2506 173.284C78.4736 172.962 77.6409 172.796 76.8 172.796C75.9591 172.796 75.1264 172.962 74.3495 173.284C73.5726 173.606 72.8666 174.077 72.272 174.672ZM179.2 83.2C180.041 83.2007 180.873 83.0357 181.65 82.7145C182.427 82.3933 183.133 81.9221 183.728 81.328L190.128 74.928C191.329 73.7271 192.004 72.0983 192.004 70.4C192.004 68.7017 191.329 67.0729 190.128 65.872C188.927 64.6711 187.298 63.9964 185.6 63.9964C183.902 63.9964 182.273 64.6711 181.072 65.872L174.672 72.272C173.776 73.1671 173.166 74.3079 172.918 75.55C172.671 76.7922 172.798 78.0798 173.282 79.2499C173.767 80.4199 174.588 81.4198 175.642 82.123C176.695 82.8262 177.933 83.201 179.2 83.2ZM183.728 174.672C182.527 173.471 180.898 172.796 179.2 172.796C177.502 172.796 175.873 173.471 174.672 174.672C173.471 175.873 172.796 177.502 172.796 179.2C172.796 180.898 173.471 182.527 174.672 183.728L181.072 190.128C181.667 190.723 182.373 191.194 183.149 191.516C183.926 191.838 184.759 192.004 185.6 192.004C186.441 192.004 187.274 191.838 188.051 191.516C188.827 191.194 189.533 190.723 190.128 190.128C190.723 189.533 191.194 188.827 191.516 188.051C191.838 187.274 192.004 186.441 192.004 185.6C192.004 184.759 191.838 183.926 191.516 183.149C191.194 182.373 190.723 181.667 190.128 181.072L183.728 174.672ZM57.6 121.6H51.2C49.5026 121.6 47.8748 122.274 46.6745 123.475C45.4743 124.675 44.8 126.303 44.8 128C44.8 129.697 45.4743 131.325 46.6745 132.525C47.8748 133.726 49.5026 134.4 51.2 134.4H57.6C59.2974 134.4 60.9253 133.726 62.1255 132.525C63.3257 131.325 64 129.697 64 128C64 126.303 63.3257 124.675 62.1255 123.475C60.9253 122.274 59.2974 121.6 57.6 121.6ZM128 192C126.303 192 124.675 192.674 123.475 193.875C122.274 195.075 121.6 196.703 121.6 198.4V204.8C121.6 206.497 122.274 208.125 123.475 209.326C124.675 210.526 126.303 211.2 128 211.2C129.697 211.2 131.325 210.526 132.526 209.326C133.726 208.125 134.4 206.497 134.4 204.8V198.4C134.4 196.703 133.726 195.075 132.526 193.875C131.325 192.674 129.697 192 128 192ZM204.8 121.6H198.4C196.703 121.6 195.075 122.274 193.875 123.475C192.674 124.675 192 126.303 192 128C192 129.697 192.674 131.325 193.875 132.525C195.075 133.726 196.703 134.4 198.4 134.4H204.8C206.497 134.4 208.125 133.726 209.326 132.525C210.526 131.325 211.2 129.697 211.2 128C211.2 126.303 210.526 124.675 209.326 123.475C208.125 122.274 206.497 121.6 204.8 121.6Z" fill="black"/>
</svg>
