<svg xmlns="http://www.w3.org/2000/svg" xmlns:xlink="http://www.w3.org/1999/xlink" viewBox="0 0 36 36" fill="#cbd5e1"><path d="M 18 36 C 8.059 36 0 36 0 36 L 0 0 C 0 0 8.059 0 18 0 L 18 0 C 27.941 0 36 0 36 0 L 36 36 C 36 36 27.941 36 18 36 Z" fill="rgba(255,255,255,0.5)"></path><path d="M 25.857 8 L 10.143 8 C 8.938 8 8 8.982 8 10.143 L 8 25.857 C 8 27.063 8.938 28 10.143 28 L 16.259 28 L 16.259 21.214 L 13.446 21.214 L 13.446 18 L 16.259 18 L 16.259 15.589 C 16.259 12.821 17.911 11.259 20.411 11.259 C 21.661 11.259 22.911 11.482 22.911 11.482 L 22.911 14.205 L 21.527 14.205 C 20.143 14.205 19.696 15.054 19.696 15.946 L 19.696 18 L 22.777 18 L 22.286 21.214 L 19.696 21.214 L 19.696 28 L 25.857 28 C 27.018 28 28 27.063 28 25.857 L 28 10.143 C 28 8.982 27.018 8 25.857 8 Z" fill="var(--token-32074f64-7f4e-4d7a-b85b-ed773919a9cb, rgb(25, 28, 36)) /* {&quot;name&quot;:&quot;Text&quot;} */"></path></svg>