<svg xmlns="http://www.w3.org/2000/svg" xmlns:xlink="http://www.w3.org/1999/xlink" viewBox="0 0 36 36" fill="#cbd5e1"><path d="M 18 36 C 8.059 36 0 36 0 36 L 0 0 C 0 0 8.059 0 18 0 L 18 0 C 27.941 0 36 0 36 0 L 36 36 C 36 36 27.941 36 18 36 Z" fill="rgba(255,255,255,0.5)"></path><path d="M 18.022 12.844 C 15.165 12.844 12.888 15.165 12.888 17.978 C 12.888 20.835 15.165 23.112 18.022 23.112 C 20.835 23.112 23.156 20.835 23.156 17.978 C 23.156 15.165 20.835 12.844 18.022 12.844 Z M 18.022 21.326 C 16.192 21.326 14.674 19.853 14.674 17.978 C 14.674 16.147 16.147 14.674 18.022 14.674 C 19.853 14.674 21.326 16.147 21.326 17.978 C 21.326 19.853 19.853 21.326 18.022 21.326 Z M 24.54 12.665 C 24.54 11.996 24.005 11.46 23.335 11.46 C 22.665 11.46 22.13 11.996 22.13 12.665 C 22.13 13.335 22.665 13.871 23.335 13.871 C 24.005 13.871 24.54 13.335 24.54 12.665 Z M 27.933 13.87 C 27.844 12.263 27.487 10.835 26.326 9.674 C 25.165 8.513 23.737 8.156 22.13 8.067 C 20.478 7.978 15.522 7.978 13.87 8.067 C 12.263 8.156 10.88 8.513 9.674 9.674 C 8.513 10.835 8.156 12.263 8.067 13.87 C 7.978 15.522 7.978 20.478 8.067 22.13 C 8.156 23.737 8.513 25.12 9.674 26.326 C 10.88 27.487 12.263 27.844 13.87 27.933 C 15.522 28.022 20.478 28.022 22.13 27.933 C 23.737 27.844 25.165 27.487 26.326 26.326 C 27.487 25.12 27.844 23.737 27.933 22.13 C 28.022 20.478 28.022 15.522 27.933 13.87 Z M 25.79 23.871 C 25.478 24.763 24.763 25.433 23.915 25.79 C 22.576 26.326 19.451 26.192 18.022 26.192 C 16.549 26.192 13.424 26.326 12.13 25.79 C 11.237 25.433 10.567 24.763 10.21 23.871 C 9.674 22.576 9.808 19.451 9.808 17.978 C 9.808 16.549 9.674 13.424 10.21 12.085 C 10.567 11.237 11.237 10.567 12.13 10.21 C 13.424 9.674 16.549 9.808 18.022 9.808 C 19.451 9.808 22.576 9.674 23.915 10.21 C 24.763 10.522 25.433 11.237 25.79 12.085 C 26.326 13.424 26.192 16.549 26.192 17.978 C 26.192 19.451 26.326 22.576 25.79 23.871 Z" fill="var(--token-32074f64-7f4e-4d7a-b85b-ed773919a9cb, rgb(25, 28, 36)) /* {&quot;name&quot;:&quot;Text&quot;} */"></path></svg>