<svg xmlns="http://www.w3.org/2000/svg" xmlns:xlink="http://www.w3.org/1999/xlink" viewBox="0 0 36 36" fill="#cbd5e1"><path d="M 18 36 C 8.059 36 0 36 0 36 L 0 0 C 0 0 8.059 0 18 0 L 18 0 C 27.941 0 36 0 36 0 L 36 36 C 36 36 27.941 36 18 36 Z" fill="rgba(255,255,255,0.5)"></path><path d="M 12.474 28 L 12.474 14.622 L 8.313 14.622 L 8.313 28 Z M 10.371 12.832 C 11.714 12.832 12.787 11.714 12.787 10.371 C 12.787 9.074 11.714 8 10.371 8 C 9.074 8 8 9.074 8 10.371 C 8 11.714 9.074 12.832 10.371 12.832 Z M 28.045 28 L 28.045 20.662 C 28.045 17.083 27.239 14.309 23.034 14.309 C 21.02 14.309 19.678 15.427 19.096 16.456 L 19.051 16.456 L 19.051 14.622 L 15.069 14.622 L 15.069 28 L 19.23 28 L 19.23 21.378 C 19.23 19.633 19.544 17.978 21.691 17.978 C 23.839 17.978 23.884 19.946 23.884 21.512 L 23.884 28 Z" fill="var(--token-32074f64-7f4e-4d7a-b85b-ed773919a9cb, rgb(25, 28, 36)) /* {&quot;name&quot;:&quot;Text&quot;} */"></path></svg>