<svg xmlns="http://www.w3.org/2000/svg" xlink="http://www.w3.org/1999/xlink" viewBox="0 0 36 22" fill="#cbd5e1"><g transform="translate(0 0.999)" id="ss3592752243_1"><path d="M 0 20.001 L 0 0.001 L 35 0.001 L 35 20.001 Z" fill="transparent"></path><g id="ss3592752243_3"><path d="M 0 20.001 L 0 0.001 L 35 0.001 L 35 20.001 Z" fill="transparent"></path><path d="M 24.129 14.218 C 24.06 14.043 17.986 2.509 17.895 2.334 C 17.576 1.588 17.005 0.953 16.251 0.514 C 14.356 -0.538 11.936 0.076 10.84 1.895 C 10.086 3.145 10.132 4.614 10.862 5.776 C 10.931 5.93 16.731 16.981 16.845 17.156 C 16.913 17.331 17.005 17.485 17.096 17.66 C 17.416 18.406 17.986 19.042 18.74 19.48 C 20.635 20.533 23.056 19.941 24.152 18.121 C 24.928 16.871 24.86 15.38 24.129 14.218 Z" fill="var(--token-8937085d-927b-4f1c-8b5a-824d7cb97868, rgba(25, 28, 36, 0.8)) /* {&quot;name&quot;:&quot;Text 80%&quot;} */"></path><path d="M 17.446 6.411 C 18.115 5.73 18.529 4.808 18.529 3.798 C 18.529 1.712 16.755 0 14.542 0 C 13.183 0 11.984 0.637 11.27 1.625 C 11.132 1.756 1.198 13.436 1.083 13.589 C 0.415 14.27 0 15.192 0 16.202 C 0 18.31 1.798 20 3.987 20 C 5.347 20 6.545 19.363 7.26 18.375 C 7.398 18.222 17.354 6.564 17.446 6.411 Z" fill="var(--token-32074f64-7f4e-4d7a-b85b-ed773919a9cb, rgb(25, 28, 36)) /* {&quot;name&quot;:&quot;Text&quot;} */"></path><path d="M 33.918 6.411 C 34.586 5.73 35 4.808 35 3.798 C 35 1.69 33.205 0 31.018 0 C 29.66 0 28.463 0.637 27.749 1.625 C 27.611 1.756 17.668 13.436 17.552 13.589 C 16.885 14.27 16.471 15.192 16.471 16.202 C 16.471 18.31 18.266 20 20.453 20 C 21.811 20 23.008 19.363 23.721 18.375 C 23.882 18.222 33.803 6.564 33.918 6.411 Z" fill="var(--token-32074f64-7f4e-4d7a-b85b-ed773919a9cb, rgb(25, 28, 36)) /* {&quot;name&quot;:&quot;Text&quot;} */"></path></g></g></svg>