<svg width="256" height="256" viewBox="0 0 256 256" fill="none" xmlns="http://www.w3.org/2000/svg">
<path d="M256 128C256 198.692 198.692 256 128 256C57.3076 256 0 198.692 0 128C0 57.3075 57.3076 0 128 0C198.692 0 256 57.3075 256 128Z" fill="#111"/>
<path opacity="0.2" d="M194.152 152.144C190.09 163.253 183.294 173.159 174.392 180.948C165.49 188.737 154.769 194.157 143.22 196.709C131.67 199.26 119.663 198.86 108.309 195.546C96.9541 192.232 86.6176 186.11 78.2537 177.746C69.8899 169.382 63.7682 159.046 60.454 147.691C57.1398 136.337 56.7399 124.33 59.2913 112.78C61.8427 101.231 67.2631 90.5098 75.052 81.608C82.8409 72.7061 92.7471 65.9103 103.856 61.848C101.657 72.9838 101.952 84.4683 104.72 95.4765C107.487 106.485 112.659 116.743 119.862 125.515C127.065 134.288 136.122 141.355 146.382 146.211C156.641 151.067 167.849 153.59 179.2 153.6C184.219 153.6 189.227 153.113 194.152 152.144Z" fill="#DDDDDD"/>
<path d="M217.6 102.4C217.6 104.097 216.926 105.725 215.725 106.925C214.525 108.126 212.897 108.8 211.2 108.8H198.4V121.6C198.4 123.297 197.726 124.925 196.525 126.125C195.325 127.326 193.697 128 192 128C190.303 128 188.675 127.326 187.475 126.125C186.274 124.925 185.6 123.297 185.6 121.6V108.8H172.8C171.103 108.8 169.475 108.126 168.275 106.925C167.074 105.725 166.4 104.097 166.4 102.4C166.4 100.703 167.074 99.0747 168.275 97.8745C169.475 96.6743 171.103 96 172.8 96H185.6V83.2C185.6 81.5026 186.274 79.8747 187.475 78.6745C188.675 77.4743 190.303 76.8 192 76.8C193.697 76.8 195.325 77.4743 196.525 78.6745C197.726 79.8747 198.4 81.5026 198.4 83.2V96H211.2C212.897 96 214.525 96.6743 215.725 97.8745C216.926 99.0747 217.6 100.703 217.6 102.4ZM140.8 70.4H147.2V76.8C147.2 78.4974 147.874 80.1252 149.075 81.3255C150.275 82.5257 151.903 83.2 153.6 83.2C155.297 83.2 156.925 82.5257 158.125 81.3255C159.326 80.1252 160 78.4974 160 76.8V70.4H166.4C168.097 70.4 169.725 69.7257 170.925 68.5255C172.126 67.3252 172.8 65.6974 172.8 64C172.8 62.3026 172.126 60.6747 170.925 59.4745C169.725 58.2743 168.097 57.6 166.4 57.6H160V51.2C160 49.5026 159.326 47.8747 158.125 46.6745C156.925 45.4743 155.297 44.8 153.6 44.8C151.903 44.8 150.275 45.4743 149.075 46.6745C147.874 47.8747 147.2 49.5026 147.2 51.2V57.6H140.8C139.103 57.6 137.475 58.2743 136.275 59.4745C135.074 60.6747 134.4 62.3026 134.4 64C134.4 65.6974 135.074 67.3252 136.275 68.5255C137.475 69.7257 139.103 70.4 140.8 70.4ZM199.016 148C199.761 148.867 200.26 149.918 200.461 151.044C200.662 152.169 200.558 153.328 200.16 154.4C195.719 166.511 188.299 177.309 178.585 185.796C168.87 194.283 157.175 200.187 144.577 202.962C131.979 205.737 118.885 205.295 106.504 201.675C94.1225 198.055 82.8523 191.375 73.7334 182.251C64.6145 173.127 57.9407 161.853 54.328 149.469C50.7153 137.086 50.28 123.992 53.0623 111.396C55.8446 98.7994 61.7549 87.107 70.2478 77.3975C78.7406 67.688 89.5423 60.274 101.656 55.84C102.722 55.4495 103.873 55.3497 104.991 55.5509C106.108 55.752 107.152 56.2468 108.015 56.9846C108.878 57.7223 109.53 58.6764 109.902 59.749C110.275 60.8216 110.356 61.974 110.136 63.088C107.893 74.4397 108.481 86.1691 111.847 97.2399C115.213 108.311 121.254 118.382 129.436 126.564C137.618 134.746 147.689 140.787 158.76 144.153C169.831 147.519 181.56 148.107 192.912 145.864C194.027 145.646 195.181 145.729 196.254 146.104C197.326 146.48 198.28 147.134 199.016 148ZM183.504 159.904C182.072 159.976 180.632 160.016 179.2 160.016C157.138 159.993 135.987 151.217 120.389 135.616C104.79 120.014 96.0191 98.8616 96 76.8C96 75.368 96 73.928 96.112 72.496C87.5967 77.3961 80.3238 84.1908 74.8568 92.3538C69.3898 100.517 65.8755 109.829 64.5862 119.568C63.2968 129.308 64.2671 139.214 67.4217 148.518C70.5764 157.822 75.8308 166.275 82.7778 173.222C89.7248 180.169 98.1779 185.424 107.482 188.578C116.786 191.733 126.692 192.703 136.432 191.414C146.171 190.125 155.483 186.61 163.646 181.143C171.809 175.676 178.604 168.403 183.504 159.888V159.904Z" fill="#DDDDDD"/>
</svg>
