<svg width="12" height="14" viewBox="0 0 12 14" fill="none" xmlns="http://www.w3.org/2000/svg">
<path fill-rule="evenodd" clip-rule="evenodd" d="M7.0972 13.7721C6.40069 14.076 5.59931 14.076 4.9028 13.7721C1.91499 12.4687 0 8.82383 0 5.70031C0 2.55211 2.68629 0 6 0C9.31371 0 12 2.55211 12 5.70031C12 8.82383 10.085 12.4687 7.0972 13.7721ZM5.22495 2.75226C5.72261 2.58258 6.27737 2.58258 6.77503 2.75226L8.53147 3.35114C8.93724 3.48949 9.1875 3.8272 9.1875 4.20001C9.1875 4.5728 8.93724 4.91051 8.53147 5.04887L8.4375 5.08091V6.79012C8.4375 7.26127 8.14203 7.7201 7.62698 7.89749C7.23312 8.03315 6.58428 8.225 6 8.225C5.41572 8.225 4.76688 8.03315 4.37302 7.89749C3.85797 7.7201 3.5625 7.26127 3.5625 6.79012V5.0809L3.46853 5.04886C3.06276 4.91051 2.8125 4.57279 2.8125 4.19999C2.8125 3.82719 3.06276 3.48949 3.46853 3.35113L5.22495 2.75226Z" fill="white"/>
<path fill-rule="evenodd" clip-rule="evenodd" d="M5.61098 3.73851C5.85934 3.65383 6.14063 3.65383 6.389 3.73851L7.7425 4.2L6.38902 4.66149C6.14066 4.74617 5.85937 4.74617 5.611 4.66149L4.2575 4.2L5.61098 3.73851Z" fill="white"/>
<path d="M4.6875 6.79012V5.46448L5.22497 5.64774C5.72263 5.81742 6.27739 5.81742 6.77505 5.64774L7.3125 5.46449V6.79012C7.3125 6.86352 7.26984 6.90129 7.23751 6.91243C6.86164 7.04188 6.37193 7.175 6 7.175C5.62807 7.175 5.13836 7.04188 4.76249 6.91243C4.73016 6.90129 4.6875 6.86352 4.6875 6.79012Z" fill="white"/>
</svg>
