<svg width="16" height="22" viewBox="0 0 16 22" fill="none" xmlns="http://www.w3.org/2000/svg">
<path d="M2.74506 1.76001C2.28571 2.57683 2.28571 3.67345 2.28571 5.86668V9.41827C2.77746 9.38658 3.33025 9.38663 3.92546 9.3867H12.0741C12.6695 9.38663 13.2224 9.38658 13.7143 9.41829V5.86668C13.7143 3.67345 13.7143 2.57683 13.2549 1.76001C12.954 1.2249 12.5212 0.780537 12 0.471592C11.2044 0 10.1363 0 8 0C5.86374 0 4.7956 0 4 0.471592C3.47879 0.780537 3.04598 1.2249 2.74506 1.76001Z" fill="white"/>
<path d="M1.42857 15.2432C0.854817 15.2194 0.507496 15.1398 0.269714 14.8734C-0.0694181 14.4934 -0.0252328 13.9648 0.0631376 12.9076C0.126939 12.1444 0.271205 11.6307 0.597417 11.2474C1.18228 10.56 2.12361 10.56 4.00627 10.56H11.9937C13.8764 10.56 14.8177 10.56 15.4026 11.2474C15.7288 11.6307 15.8731 12.1444 15.9369 12.9076C16.0252 13.9648 16.0694 14.4934 15.7303 14.8734C15.4925 15.1398 15.1452 15.2194 14.5714 15.2432V21.12C14.5714 21.606 14.1877 22 13.7143 22C13.2409 22 12.8571 21.606 12.8571 21.12V15.2534H3.14286V21.12C3.14286 21.606 2.7591 22 2.28571 22C1.81233 22 1.42857 21.606 1.42857 21.12V15.2432Z" fill="white"/>
</svg>
