<svg width="181" height="39" viewBox="0 0 181 39" fill="none" xmlns="http://www.w3.org/2000/svg">
<g clip-path="url(#clip0_284_61828)">
<path d="M27.0553 1.73856C26.8687 3.03046 26.3893 4.30591 26.37 5.59452C26.3217 8.52017 24.0309 9.92054 22.5509 11.8765C20.0156 14.7791 17.9693 18.0434 15.9841 21.3372C12.194 27.6224 7.22949 32.5829 0.66592 35.7978C0.508266 35.8406 0.347394 35.8899 0.18974 35.9392H0.186523C0.048173 35.8603 -0.0354803 35.7288 0.0127812 35.4625C3.68709 32.3462 6.22243 28.2897 8.88325 24.3253C12.7635 18.5463 15.4339 12.0605 19.0986 6.16321C20.6333 3.69119 22.6313 1.63009 25.334 0.42695C25.9131 0.167257 26.5663 -0.263374 27.139 0.213278C27.6473 0.63076 27.1261 1.23561 27.0553 1.73856Z" fill="#DDBE7C"/>
<path d="M27.5381 23.2248C21.8818 26.614 16.2545 30.0491 10.6176 33.4712C7.82484 34.6381 5.02889 35.8051 2.23294 36.9688C2.12998 36.9852 2.02702 37.0148 1.93694 37.0937L1.95302 37.1135H0.807617C1.11006 36.4922 1.64737 36.3377 2.10103 36.0944C4.19236 34.98 6.08743 33.5731 7.94389 32.107C14.5686 26.8769 17.934 19.0664 22.8857 12.5149C23.7833 12.0744 24.2177 10.4637 25.1379 10.8023C25.8457 11.0652 25.4017 12.5741 25.5786 13.5175C26.0838 16.2032 26.6629 18.8692 28.0818 21.2196C28.6963 22.2353 28.4486 22.6758 27.5381 23.2248Z" fill="#D0A53F"/>
<path d="M31.4633 33.8616C30.3115 33.306 29.1628 32.7538 28.011 32.1982C25.8907 31.4487 23.7318 31.544 21.5632 31.9056C14.2983 33.7235 7.99854 38.5689 0.0900879 38.9995C0.900881 37.9476 2.12672 38.1021 2.94717 37.4874C5.85251 36.5571 8.61629 35.2915 11.3028 33.8418C15.7011 31.9188 19.7744 29.3909 23.883 26.9222C25.2794 26.0806 26.6725 25.2358 28.0528 24.368C28.9827 23.7828 29.5039 23.9834 30.0348 25.0057C31.119 27.0964 31.9684 29.2594 32.5122 31.5539C32.805 32.0437 32.6087 32.5795 32.6698 33.0923C32.8114 34.2396 32.332 34.3678 31.4633 33.8616Z" fill="#A57C1C"/>
<path d="M64.204 15.1413C62.7915 14.1255 62.1159 12.5542 61.1924 11.1538C60.5554 10.1874 60.5844 9.65483 61.5592 8.96122C62.5953 8.22487 62.991 7.06119 62.6499 5.76272C62.3153 4.48726 61.5078 3.72133 60.1983 3.48136C58.0941 3.09347 56.0059 3.36631 53.802 3.46164C55.3818 4.08293 55.2724 5.3288 55.2498 6.58125C55.2145 8.49443 55.2048 10.4043 55.2531 12.3175C55.282 13.5437 55.3625 14.7336 53.9371 15.3286H58.641C56.5722 14.6876 57.235 13.0243 57.1771 11.7028C57.1546 11.2557 56.9712 10.6443 57.6372 10.4734C58.2292 10.3221 58.6893 10.6246 58.9789 11.1407C59.5387 12.1301 60.0696 13.1426 60.6165 14.1419C61.3211 15.4338 62.5438 15.7888 63.8468 15.9828C64.1235 16.0255 64.4324 15.9828 64.4871 15.6606C64.5128 15.5061 64.352 15.2497 64.204 15.1413ZM59.1848 9.405C57.8592 10.0394 57.161 9.58251 57.1449 8.09338C57.1353 7.38991 57.0838 6.68315 57.0967 5.97968C57.1127 5.20717 56.8232 4.20456 58.0168 4.07307C59.1462 3.95144 59.9795 4.50699 60.401 5.58192C60.5522 5.96982 60.5264 6.43332 60.5361 6.49249C60.5779 7.9849 60.2369 8.90534 59.1848 9.405Z" fill="#A47C1B"/>
<path d="M51.4789 15.3544C49.9441 14.6246 49.6835 13.1618 49.2267 11.86C48.329 9.29598 47.4828 6.70891 46.5787 4.14485C46.4307 3.73394 46.5208 3.01075 45.8709 3.02061C45.34 3.03047 45.163 3.58602 44.9925 4.06596C44.2461 6.16651 43.5447 8.29008 42.6985 10.3479C41.9713 12.1197 41.8491 14.2992 39.2944 15.3084C41.0318 15.6042 42.2738 15.5188 43.7956 15.4431C42.573 14.3452 42.4089 12.8101 43.194 11.814C43.4868 11.4393 46.4468 11.2683 46.8811 11.6003C47.6952 12.2216 47.7209 14.2827 46.8811 15.3544H51.4789ZM44.7641 10.5221C43.934 10.5024 43.4771 10.3413 43.8986 9.40117C44.3522 8.39198 44.3812 7.19213 45.2756 6.12378C45.6006 7.11653 45.8709 7.92848 46.1347 8.74701C46.7364 10.6043 46.7364 10.5681 44.7641 10.5221Z" fill="#A57D1E"/>
<path d="M92.8615 15.3191C91.7966 14.7274 91.1241 13.9615 90.7734 12.8865C89.8082 9.94115 88.8526 6.99577 87.8681 4.05696C87.7394 3.67892 87.7683 3.07078 87.2407 3.02476C86.639 2.97216 86.4975 3.56387 86.3334 4.00765C85.5419 6.15423 84.8244 8.3271 83.9814 10.4474C83.2929 12.1896 83.1545 14.2935 81.1726 15.3881H85.1526C83.8495 14.3198 83.6886 13.0016 84.4898 11.8806C84.7826 11.4664 87.6493 11.2297 88.1544 11.5749C88.9138 12.0976 89.0038 14.2047 88.3443 15.3191H92.8615ZM87.6557 10.3225C87.083 10.8057 86.2111 10.4868 85.4711 10.4803C85.04 10.477 84.9499 10.145 85.0754 9.78665C85.4775 8.62296 85.899 7.46256 86.3141 6.30215C86.4331 6.32517 86.5522 6.34818 86.6744 6.37119C86.9254 7.13712 87.2053 7.8899 87.4177 8.66569C87.5657 9.21795 88.1416 9.90499 87.6557 10.3225Z" fill="#A57D1E"/>
<path d="M74.4225 15.3511C75.761 14.6674 75.6838 13.4971 75.658 12.294C75.613 10.2789 75.6098 8.25724 75.658 6.24215C75.687 5.10147 75.658 4.06598 74.3743 3.44141H79.0524C77.5338 4.11201 77.7429 5.44006 77.759 6.71551C77.7847 8.62212 77.7494 10.532 77.7719 12.4419C77.7847 13.5497 77.4147 14.8778 79.5093 14.9665C79.3677 15.0947 79.2229 15.2229 79.0814 15.3511H74.4225Z" fill="#A87F22"/>
<path d="M71.5042 15.4205H66.7939C68.3447 14.6579 68.1452 13.2904 68.1259 11.9689C68.097 10.1708 68.0905 8.37267 68.1292 6.57783C68.1581 5.3221 68.2482 4.08281 66.7778 3.40234H71.53C69.8022 4.1354 70.169 5.63768 70.1626 6.98545C70.1529 8.7277 70.1754 10.4699 70.1561 12.2155C70.1433 13.4613 70.0081 14.7434 71.501 15.4271L71.5042 15.4205Z" fill="#A57C1C"/>
<path d="M179.884 15.4239H94.0618C94.0618 15.3319 94.0618 15.2366 94.0618 15.1445H179.9C179.893 15.2366 179.887 15.3319 179.884 15.4239Z" fill="#AF9040"/>
<path d="M172.58 23.4936C172.628 24.7921 172.364 25.7914 173.133 26.8006C172.255 26.8532 171.357 27.4975 171.837 25.7487C172.117 24.7329 172.419 23.4049 171.602 22.3332C171.422 22.0966 171.467 21.9256 171.682 21.8303C172.065 21.6593 172.451 21.7744 172.705 22.0735C173.426 22.9282 174.108 23.8158 174.974 24.9006C175.173 23.727 175.193 22.8296 174.601 21.8632C175.592 21.7678 176.373 21.3569 175.817 22.9874C175.437 24.0985 175.746 25.4496 175.746 27.0307C174.346 26.0478 173.815 24.6442 172.583 23.4903L172.58 23.4936Z" fill="#080806"/>
<path d="M124.01 26.8669C124.563 25.1378 124.759 23.5501 123.91 21.7881C125.918 21.8243 126.12 23.9347 127.452 24.7762C127.632 24.007 127.655 23.2838 127.407 22.5672C127.314 22.2976 126.896 22.0149 127.43 21.8341C127.713 21.7388 128.099 21.7388 128.366 21.8604C128.865 22.0905 128.35 22.3568 128.327 22.6132C128.208 23.9873 128.141 25.3646 128.025 27.2088C126.976 25.8446 126.181 24.8124 125.293 23.6553C124.869 24.3818 124.894 25.1904 125.116 25.7065C125.828 27.337 124.853 26.8801 124.01 26.8636V26.8669Z" fill="#080806"/>
<path d="M95.3326 26.8963C94.5347 25.8509 93.7335 24.8089 92.6396 23.3756C92.6396 24.513 92.6171 25.2296 92.6461 25.9463C92.6654 26.4361 92.4916 26.7155 92.009 26.5938C91.5135 26.4722 91.8353 26.1501 91.8642 25.8509C91.9897 24.5459 92.334 23.2047 91.417 21.8043C93.5051 21.778 93.6402 24.0199 95.1042 24.7431C95.1943 23.7504 95.3101 22.8332 94.5862 21.9128C95.6415 21.7188 96.3139 21.4197 95.8506 23.0009C95.5096 24.1711 95.7831 25.5255 95.7831 26.8009L95.3294 26.893L95.3326 26.8963Z" fill="#080806"/>
<path d="M129.363 34.819C129.219 34.2372 129.836 33.3397 128.62 33.2148C127.124 33.0603 126.867 33.5304 127.584 35.414H125.834C126.374 34.6119 126.271 33.7704 126.249 32.9453C126.226 32.1662 126.506 31.3312 125.76 30.6836C126.41 30.3352 126.918 30.447 127.465 30.5489C127.504 31.2359 126.651 32.0347 127.552 32.5377C128.022 32.7973 128.82 32.8762 129.209 32.416C129.675 31.8671 129.328 31.1997 128.868 30.5916C130.052 30.2826 130.773 30.23 130.364 31.8736C130.135 32.7973 130.319 33.823 130.316 34.8059C129.251 33.7309 130.087 32.4851 129.849 31.3016C129.782 32.0742 129.875 32.8565 129.804 33.6257C129.765 34.0399 130.132 34.6645 129.363 34.8124V34.819Z" fill="#080806"/>
<path d="M166.789 31.8995C166.808 33.4182 166.589 34.4307 167.275 35.3248C166.708 35.5648 166.255 35.5845 165.798 35.3314C166.415 33.7436 166.435 32.1657 165.788 30.4465C167.722 30.4465 167.838 32.6161 169.308 33.3656C169.308 32.6621 169.514 31.9389 169.269 31.4425C168.481 29.8318 169.688 30.5977 170.35 30.3939C169.614 32.0868 170.119 33.7502 169.749 35.7554C168.722 34.4175 167.902 33.3524 166.785 31.8995H166.789Z" fill="#080806"/>
<path d="M41.9038 30.3574C40.6844 30.3574 39.835 31.3074 39.8254 32.6848C39.8125 34.6177 40.4657 35.525 41.8781 35.5316C43.1329 35.5414 44.214 34.3712 44.2558 32.9675C44.2912 31.6362 43.1458 30.3607 41.9038 30.3574ZM41.9167 34.8577C40.8196 34.8182 40.6362 33.8945 40.604 32.9807C40.575 32.0701 40.6877 31.0872 41.7751 31.0412C42.9817 30.9919 43.1039 32.0438 43.1715 33.007C43.1039 33.8781 43.1329 34.9004 41.9167 34.8577Z" fill="#080806"/>
<path d="M149.006 34.7796C149.817 35.0064 150.582 34.9439 151.297 34.2306C151.081 35.7 150.83 35.769 147.696 35.3745C148.24 34.0859 148.24 32.6691 147.925 31.4298C147.622 30.2563 148.124 30.3713 148.777 30.4404C149.62 30.5291 150.82 29.7895 151.197 31.3542C150.592 31.6501 150.418 30.9795 149.997 31.0025C149.678 31.0189 149.263 30.9203 149.138 31.2556C149.015 31.5811 149.015 32.0215 149.125 32.3536C149.247 32.725 149.643 32.6396 149.961 32.5541C150.235 32.4818 150.553 32.1004 150.756 32.5902C150.853 32.8204 150.872 33.1688 150.769 33.3825C150.541 33.8526 150.264 33.4285 149.99 33.3627C148.514 32.9946 149.225 34.2273 149.006 34.7828C148.485 35.0228 148.501 34.5889 148.504 34.3128C148.514 33.4548 148.504 32.5968 148.491 31.7388C148.507 32.5574 148.485 33.3792 148.488 34.1977C148.488 34.51 148.375 35.013 149.006 34.7796Z" fill="#080806"/>
<path d="M50.8548 25.3017C51.1669 24.447 51.4661 23.589 51.7911 22.7409C51.9037 22.4483 51.9841 22.0276 52.3316 22.0078C52.8045 21.9815 52.8399 22.4845 52.9751 22.8165C53.4995 24.0952 53.7376 25.4989 54.542 26.7579C53.892 26.6626 52.8818 27.7638 52.8592 25.7882C52.8464 24.802 51.82 25.0748 51.2087 25.6994C50.9963 25.6534 50.9577 25.443 50.8516 25.3017H50.8548Z" fill="#080806"/>
<path d="M67.2284 23.6719C67.6756 23.0999 67.2091 22.2222 66.4594 21.9954C65.5811 21.7324 64.6126 21.3576 63.7793 22.1992C63.8597 22.2551 63.937 22.3142 64.0174 22.3701C64.6963 23.1591 64.204 24.1091 64.3649 24.967C64.4582 25.4667 64.13 26.1965 65.0277 26.2688C65.0791 25.9039 65.0277 25.2958 65.1982 25.2202C65.7098 24.9966 65.8513 25.6015 66.1087 25.9072C66.572 26.4562 66.9935 27.0742 68.0585 26.6994C67.1737 25.7593 66.1602 25.0459 67.2284 23.6719ZM65.5135 24.4838C64.6963 24.5068 65.1628 23.7672 65.0084 23.399C65.092 22.998 64.8282 22.3898 65.5006 22.3865C66.0959 22.3865 66.2889 22.8698 66.2792 23.4122C66.2728 23.948 66.0765 24.4707 65.5135 24.4838Z" fill="#080806"/>
<path d="M87.9357 35.4531C87.0091 35.3807 85.9023 36.1171 86.1693 34.365C86.2497 33.8423 85.6803 33.7535 85.2202 33.7864C84.7375 33.8193 84.5381 34.1414 84.641 34.5589C85.04 36.1795 83.9589 35.2953 83.3508 35.4794C83.7144 34.72 84.0072 34.1053 84.3 33.4939C84.4769 33.2572 84.6571 33.0172 84.8341 32.7772C85.1269 33.0402 85.5033 33.553 85.7575 32.8791C85.957 32.3565 85.3167 32.1494 84.9756 31.8568C85.0818 31.3933 85.1269 30.8969 85.7221 30.5518C86.6584 32.0475 86.771 33.8982 87.9357 35.4531Z" fill="#080806"/>
<path d="M137.426 26.2454C137.774 26.3801 138.292 26.5708 137.581 26.8535C137.127 27.0343 136.548 26.8864 135.821 26.8864C136.85 25.5616 136.442 24.204 136.416 22.9252C136.4 22.0969 135.779 22.2678 135.283 22.6688C135.135 22.7872 134.981 23.0469 134.788 22.7707C134.621 22.5308 134.659 22.2382 134.833 22.0147C135.235 21.4986 138.736 21.7747 139.067 22.35C139.135 22.465 139.077 22.6557 139.077 22.9877C137.777 21.8898 137.281 22.2415 137.426 23.8095C137.5 24.6182 137.433 25.4367 137.429 26.2519C136.899 26.4952 136.931 26.0514 136.921 25.772C136.889 24.8516 136.908 23.9279 136.902 23.0041C136.902 23.9443 136.876 24.8844 136.911 25.8213C136.921 26.0942 136.908 26.5511 137.429 26.2454H137.426Z" fill="#080806"/>
<path d="M77.8843 30.558C79.049 30.3377 79.8759 30.1142 79.7633 31.6362C79.7214 32.2082 80.1622 32.8196 80.4454 33.5724C81.2787 32.7604 81.0277 31.5113 82.231 30.6369C81.5489 32.4909 81.0084 33.957 80.3907 35.6335C79.2195 33.9734 79.2903 32.0076 77.8875 30.558H77.8843Z" fill="#080806"/>
<path d="M158.34 26.2455C158.661 26.354 159.247 26.4855 158.571 26.8339C158.16 27.0476 157.555 26.8734 156.882 26.8734C157.561 25.8149 157.358 24.7926 157.368 23.8031C157.381 22.1299 157.313 22.1003 155.846 22.8695C156.007 21.6368 156.12 21.6269 159.08 21.7584C159.945 21.7979 160.232 22.1003 159.987 22.9648C159.443 22.9418 159.218 22.051 158.61 22.4553C158.108 22.7906 158.394 23.3495 158.369 23.8031C158.32 24.6151 158.349 25.4303 158.343 26.2455C157.809 26.4954 157.841 26.045 157.831 25.7689C157.796 24.8452 157.818 23.9214 157.812 23.001C157.812 23.9412 157.786 24.8813 157.822 25.8182C157.831 26.0943 157.822 26.5447 158.34 26.239V26.2455Z" fill="#080806"/>
<path d="M40.543 24.9697C40.7392 23.9277 41.1125 22.9547 41.653 21.8633C42.9078 23.3162 42.6954 25.3313 43.8505 26.7481C43.3614 26.426 41.9072 27.9217 42.4187 25.8014C42.2096 24.5523 41.0578 25.5088 40.543 24.9697Z" fill="#080806"/>
<path d="M160.84 34.7992C160.853 33.7604 160.769 32.7085 160.93 31.6927C161.001 31.2489 159.926 30.7558 160.972 30.4238C162.156 30.0491 163.507 30.4403 163.938 31.2785C163.459 31.6138 163.195 31.0221 162.802 30.9991C162.236 30.9629 161.872 31.0648 161.882 31.7716C161.892 32.383 162.056 32.7578 162.715 32.5737C163.198 32.4389 163.713 32.1661 163.648 33.0405C163.584 33.8952 163.089 33.3363 162.735 33.3002C161.428 33.1687 162.024 34.1713 161.918 34.7531C161.847 34.7926 161.776 34.8353 161.705 34.8748C160.904 33.8031 161.728 32.623 161.358 31.7387C161.145 32.6033 161.721 33.8064 161.081 34.855C161.001 34.8353 160.923 34.8156 160.843 34.7959L160.84 34.7992Z" fill="#080806"/>
<path d="M71.073 22.9709C71.1888 22.6027 70.9829 22.0274 71.6521 22.011C72.1798 21.9979 72.1508 22.4909 72.3085 22.7999C72.9391 24.0359 73.0935 25.4889 74.0105 26.6066C72.3406 27.6717 72.3857 26.2285 72.0865 25.295C71.7583 25.0221 71.3658 25.1602 71.0022 25.1273C70.4778 25.0813 70.156 24.9169 70.4713 24.3088C71.5524 24.2726 71.0505 23.4968 71.0762 22.9676L71.073 22.9709Z" fill="#080806"/>
<path d="M46.6205 26.2191C46.6462 25.4598 46.6913 24.7037 46.6977 23.9443C46.7074 22.0838 46.643 22.0443 45.0247 22.8595C44.7769 22.0838 45.0375 21.801 45.8387 21.7517C48.6668 21.5709 49.0432 21.663 49.3103 22.8924C48.7826 22.9089 48.477 22.087 47.9268 22.4552C47.4345 22.7839 47.708 23.3526 47.6983 23.8096C47.6758 24.6215 47.7434 25.4335 47.7723 26.2454C47.6179 26.367 47.4603 26.3736 47.2994 26.2651C47.013 25.1015 47.19 23.9279 47.1868 22.4749C47.0677 24.0397 47.2736 25.3414 47.042 26.6235C46.6816 26.7286 46.5658 26.5676 46.6205 26.2224V26.2191Z" fill="#080806"/>
<path d="M174.72 34.7923C174.942 34.9698 175.637 35.1013 174.929 35.4366C174.494 35.6404 173.893 35.4761 173.162 35.4761C174.189 34.2072 173.735 32.8594 173.758 31.5872C173.77 30.7391 173.169 30.8542 172.647 31.2421C172.432 31.4031 172.2 31.6365 172.065 31.2125C172.007 31.035 172.055 30.749 172.168 30.6043C172.483 30.2 176.016 30.4268 176.37 30.8673C176.454 30.9725 176.418 31.173 176.454 31.4459C175.881 31.5149 175.46 30.6142 174.948 31.1204C174.526 31.5412 174.806 32.1559 174.771 32.6819C174.726 33.3854 174.736 34.0954 174.723 34.8022C173.825 34.8318 174.288 34.1283 174.247 33.7765C174.173 33.1421 174.192 32.4847 174.211 32.2414C174.211 32.6687 174.192 33.5004 174.221 34.3288C174.23 34.6016 174.185 35.0454 174.716 34.7956L174.72 34.7923Z" fill="#080806"/>
<path d="M114.557 22.3628C114.116 22.7935 114.419 23.3687 114.287 23.8585C114.322 24.1347 114.763 24.2727 114.544 24.6376C114.032 25.3805 114.409 26.0544 114.769 26.7349C114.2 26.9814 113.685 26.8729 113.064 26.8236C113.463 25.3444 113.505 23.875 113.212 22.4023C113.63 21.6856 114.094 21.6758 114.56 22.3661L114.557 22.3628Z" fill="#080806"/>
<path d="M90.3745 31.2583C90.1814 31.186 89.9948 31.0874 89.7953 31.0479C89.4575 30.9855 89.4285 31.8796 88.9427 31.3536C88.8623 31.2649 88.8912 31.0348 88.9202 30.8803C89.007 30.3905 89.361 30.3412 89.7696 30.3543C90.516 30.374 91.2657 30.3938 92.0121 30.3642C92.9227 30.3313 93.1382 30.7751 92.913 31.61C92.3628 31.6626 92.1762 30.6962 91.5649 31.0808C91.0501 31.4062 91.2882 31.9782 91.3011 32.4351C91.3333 33.418 90.9729 34.493 92.0025 35.397C91.1917 35.4594 90.5353 35.8079 89.9658 35.18C89.953 35.1668 90.2168 34.8907 90.3519 34.7395C91.0115 33.5857 90.9568 32.4253 90.3777 31.2616L90.3745 31.2583Z" fill="#080806"/>
<path d="M77.3471 23.2476C78.1772 23.3923 78.2255 24.4311 79.0813 24.7762C79.0813 23.9873 79.0813 23.2641 79.0813 22.5409C79.0813 22.3042 79.1392 22.0938 79.3902 22.0642C79.7248 22.0215 79.8374 22.2253 79.8374 22.5507C79.831 23.938 79.8342 25.3285 79.8342 27.1102C78.5086 26.0385 77.8973 24.9899 77.2313 23.9906C77.0575 23.7079 77.0061 23.4449 77.3503 23.2509L77.3471 23.2476Z" fill="#080806"/>
<path d="M118.456 35.3212C117.008 35.8997 116.593 35.2949 116.741 33.9701C116.722 33.8321 116.645 33.7597 116.548 33.7071C116.346 33.5954 116.053 33.5888 116.001 33.3028C116.017 33.2469 116.024 33.1976 116.017 33.1549C116.063 33.1615 116.108 33.1647 116.153 33.1713C116.912 31.9583 115.21 32.5533 115.236 31.8794C115.667 31.554 115.516 30.627 116.137 30.6631C116.822 30.7026 116.777 31.554 117.005 32.0569C117.488 33.1253 117.729 34.3021 118.456 35.3212Z" fill="#080806"/>
<path d="M56.3083 26.2651C56.7652 25.2329 56.7266 24.0594 56.4692 23.1028C56.0606 21.5709 56.7459 21.7123 57.8045 21.8996C57.354 23.3394 57.3926 24.7957 57.6243 26.2552C57.2028 26.939 56.7363 26.9423 56.3083 26.2651Z" fill="#080806"/>
<path d="M153.452 31.2159C153.34 31.0055 152.896 30.7754 153.192 30.5946C153.677 30.2955 154.237 30.3612 154.54 30.9792C154.935 31.7977 155.305 32.6261 155.679 33.4282C156.412 33.3197 156.348 32.5834 156.985 32.0278C156.609 33.3493 156.277 34.3092 155.611 35.2395C154.842 34.4538 154.759 33.4479 154.389 32.5867C153.973 32.2053 153.661 31.7484 153.455 31.2159H153.452Z" fill="#080806"/>
<path d="M89.4318 26.3738C89.6409 27.0576 89.1101 26.7749 88.8237 26.8078C88.3765 26.8603 88.1995 26.8176 88.3958 26.1832C88.7465 25.0458 88.5599 23.8262 88.4827 22.6395C88.4666 22.4127 88.0354 22.1694 88.399 21.9853C88.6564 21.8539 89.0328 21.8867 89.3321 21.9492C89.9208 22.0741 89.4382 22.416 89.435 22.6691C89.4286 23.9051 89.4318 25.1411 89.4318 26.3771V26.3738Z" fill="#080806"/>
<path d="M120.696 26.722C121.191 25.3348 120.963 23.9903 120.93 22.6557C120.924 22.4256 120.496 22.179 120.85 21.9949C121.104 21.8634 121.477 21.8865 121.777 21.9522C122.353 22.0804 121.886 22.419 121.88 22.6754C121.857 23.7043 121.645 24.7891 121.889 25.749C122.214 27.031 121.654 26.9127 120.699 26.722H120.696Z" fill="#080806"/>
<path d="M158.61 35.4007C157.857 35.3678 156.966 35.8576 157.391 34.329C157.59 33.6157 157.677 32.7117 157.22 31.9523C156.892 31.4099 157.198 31.0023 157.545 30.6769C157.699 30.5322 158.063 30.4961 158.279 30.5717C158.723 30.7262 158.288 30.976 158.285 31.1897C158.269 32.5605 158.066 33.9477 158.61 35.4007Z" fill="#080806"/>
<path d="M132.623 35.4397C133.051 33.9506 133.018 32.5371 132.78 31.1203C132.742 30.8968 132.375 30.6239 132.806 30.5023C133.15 30.407 133.559 30.4234 133.91 30.5089C134.338 30.6141 133.997 30.9033 133.984 31.1302C133.929 32.1558 133.668 33.2504 133.932 34.1906C134.383 35.8013 133.546 35.5055 132.623 35.4332V35.4397Z" fill="#080806"/>
<path d="M46.3182 31.2158C46.1541 31.035 45.7101 30.9134 45.9063 30.6504C46.2248 30.2263 46.7236 30.4104 47.0067 30.7227C47.795 31.5905 48.5189 32.5176 49.2685 33.4248C49.468 33.8851 50.0279 33.4511 50.2563 33.839C50.2885 34.3453 50.5169 34.8745 50.0536 35.4498C49.0144 34.4472 48.1167 33.369 47.3027 32.2118C46.73 32.1329 46.5466 31.6497 46.3149 31.2191L46.3182 31.2158Z" fill="#080806"/>
<path d="M59.1912 31.2153C59.0496 31.0214 58.5992 30.9359 58.7922 30.6401C59.0432 30.262 59.5097 30.3935 59.7671 30.6401C60.6487 31.4849 61.511 32.356 62.1384 33.4277C63.4639 34.0128 63.5669 34.3481 62.6757 35.1929C61.8424 34.2002 61.0058 33.2041 60.1725 32.2114C59.603 32.1292 59.4132 31.6558 59.1912 31.2153Z" fill="#080806"/>
<path d="M136.468 31.1892C136.377 31.0577 136.191 30.821 136.21 30.8046C136.992 30.0386 137.957 30.5021 138.842 30.443C139.45 30.4002 139.672 30.8177 139.492 31.4784C139.161 31.3207 138.848 31.1267 138.511 31.0215C138.15 30.9098 137.69 30.8835 137.539 31.2976C137.423 31.6165 137.455 32.0603 137.578 32.3857C137.709 32.7408 138.099 32.6717 138.411 32.5698C138.678 32.4811 138.977 32.0997 139.193 32.5665C139.292 32.7835 139.296 33.1319 139.193 33.3456C138.961 33.819 138.694 33.3719 138.427 33.3193C137.027 33.0498 137.555 34.0918 137.516 34.746C137.407 34.8709 137.272 34.9005 137.117 34.8545C136.329 33.8124 136.976 32.5863 136.699 31.4817C136.622 31.3864 136.545 31.2845 136.468 31.1859V31.1892Z" fill="#080806"/>
<path d="M69.4644 34.8221C69.3518 35.1344 69.2263 35.6866 68.837 35.2034C68.113 34.3027 67.5243 33.2902 66.8808 32.3238C66.7456 31.7748 66.1311 32.2416 65.922 31.8504C65.7418 31.4263 65.5616 31.0056 65.3203 30.4336C67.3409 30.5388 67.4921 32.7149 68.808 33.448C69.7958 33.5236 69.0686 34.4506 69.4676 34.8188L69.4644 34.8221Z" fill="#080806"/>
<path d="M143.813 35.1248C143.134 35.516 143.218 34.8815 143.073 34.5528C142.507 33.274 142.204 31.8737 141.342 30.7297C142.638 30.3385 142.613 30.3451 142.899 31.5877C143.044 32.2156 143.308 32.8171 143.52 33.4286C143.742 33.9709 144.244 34.464 143.813 35.1248Z" fill="#080806"/>
<path d="M102.356 34.8346C102.112 34.9924 101.867 34.9924 101.619 34.8477C101.616 34.828 101.61 34.8083 101.607 34.7886C101.603 34.7787 101.603 34.7721 101.603 34.7623C102.295 33.6117 102.343 32.4579 101.587 31.3074C101.542 31.2843 101.5 31.2613 101.455 31.2416C101.455 31.2318 101.452 31.2219 101.452 31.212C101.558 30.949 101.7 30.742 102.031 30.8439C103.579 32.2114 103.659 33.1975 102.356 34.8346Z" fill="#080806"/>
<path d="M132.497 25.861C132.472 25.0622 131.786 24.9208 131.297 24.5527C130.499 23.9544 129.759 23.2838 130.892 22.2943C131.23 22.2088 131.342 22.3568 131.281 22.6855C131.152 23.6684 132.028 23.7276 132.546 24.1187C133.347 24.7236 133.974 25.3679 132.912 26.3015C132.529 26.3935 132.423 26.2127 132.497 25.8577V25.861Z" fill="#080806"/>
<path d="M108.453 35.1305C107.807 34.2495 107.163 33.3653 106.516 32.4843C105.915 32.0865 105.294 31.7085 105.094 30.9294C105.451 30.0517 105.892 30.5086 106.214 30.9097C106.88 31.7381 107.485 32.6158 108.115 33.4737C109.094 34.0556 109.174 34.4435 108.45 35.1305H108.453Z" fill="#080806"/>
<path d="M145.37 22.4092C145.113 22.4256 144.839 22.373 144.64 22.6261C144.514 22.7872 144.379 22.9877 143.913 22.6787C144.527 20.943 146.039 22.0739 147.014 21.7912C147.889 21.5348 148.279 22.0706 147.986 23.0206C147.452 22.9713 147.22 22.087 146.622 22.4848C146.136 22.8069 146.422 23.3822 146.403 23.8391C146.364 24.6511 146.4 25.4663 146.403 26.2783C145.521 26.1829 145.853 25.4597 145.75 24.9601C145.576 24.1152 146.129 23.1587 145.37 22.4092Z" fill="#080806"/>
<path d="M179.726 25.0453C178.78 24.401 177.129 24.161 178.23 22.3399C179.124 22.2642 178.481 23.0861 178.796 23.349C179.292 23.6548 179.816 23.9177 180.276 24.2695C181.026 24.8415 181.344 25.5088 180.485 26.278C179.517 26.324 180.434 25.1636 179.726 25.0453Z" fill="#080806"/>
<path d="M120.84 34.6972C119.959 33.4842 120.052 32.3665 120.567 31.4625C121.107 30.5125 122.179 30.2561 123.263 30.4501C123.903 30.5651 124.402 30.8314 124.08 31.6598C121.854 30.3317 121.41 30.7163 120.84 34.6972Z" fill="#080806"/>
<path d="M179.9 33.8228C179.14 33.0601 177.31 33.0141 178.185 31.1568C178.831 30.9925 178.625 31.6236 178.825 31.8734C179.343 32.235 179.883 32.5605 180.369 32.9615C181.032 33.5105 181.28 34.1482 180.527 34.8451C179.655 34.9273 180.225 34.0891 179.896 33.8195L179.9 33.8228Z" fill="#080806"/>
<path d="M167.088 26.3375C167.033 26.6104 166.917 26.7912 166.605 26.6662C164.614 25.6045 164.411 24.0759 166.029 22.3599C166.431 22.258 166.502 22.498 166.554 22.7544C166.473 22.8169 166.393 22.8859 166.312 22.9681C165.749 24.2468 165.843 25.3974 166.953 26.3474C166.998 26.3441 167.043 26.3408 167.088 26.3375Z" fill="#080806"/>
<path d="M108.273 26.0253C108.115 26.3442 107.916 26.5348 107.594 26.3409C107.559 26.3212 107.523 26.2949 107.488 26.2686C106.22 24.7071 106.291 23.6355 107.755 22.3239C108.035 22.222 108.164 22.3567 108.254 22.5605C108.202 22.5868 108.151 22.6164 108.099 22.6526C107.485 23.7505 107.465 24.8419 108.131 25.9267C108.18 25.9629 108.225 25.999 108.273 26.0253Z" fill="#080806"/>
<path d="M75.6645 34.8512C75.362 34.9564 75.214 34.7756 75.0982 34.5357C75.1014 34.5126 75.1046 34.4929 75.1046 34.4699C75.1368 34.4436 75.1658 34.414 75.1979 34.3844C75.7771 33.2832 75.5744 32.2576 74.9052 31.278C74.8601 31.255 74.8151 31.2353 74.77 31.2188V31.1564C74.8794 30.9065 75.0274 30.7257 75.3331 30.8375C76.9064 32.2346 76.9868 33.2208 75.6645 34.8512Z" fill="#080806"/>
<path d="M100.194 34.8321C100.136 35.0951 100.04 35.3022 99.7115 35.1707C98.5886 34.8321 98.2958 33.8821 98.3602 32.9025C98.4181 32.0215 98.6015 31.0353 99.7437 30.8184C99.8788 30.9498 99.9432 31.1076 99.9657 31.2819C99.882 31.3345 99.7984 31.3969 99.7147 31.4692C99.0519 32.6724 99.2836 33.7835 100.059 34.8354C100.104 34.8354 100.149 34.8354 100.194 34.8354V34.8321Z" fill="#080806"/>
<path d="M64.0174 22.3726C64.9247 21.8171 64.648 22.5764 64.7092 23.0038C64.8636 24.0886 64.3456 25.2424 65.0277 26.2713C65.4138 27.3166 64.5547 26.7381 64.3006 26.7874C63.8308 26.8827 63.9113 26.6099 63.9917 26.2121C64.2394 24.9432 64.1879 23.6514 64.0206 22.3693L64.0174 22.3726Z" fill="#080806"/>
<path d="M83.0516 24.7068C83.0355 25.4201 82.8264 26.1762 83.6275 26.689C82.5497 26.998 81.9737 26.998 82.3148 25.6042C82.5368 24.6936 82.347 23.6746 82.3405 22.7048C82.1925 22.3827 82.1829 22.054 82.5593 21.9323C82.9229 21.814 83.1481 22.0474 83.1706 22.4188C83.1964 22.8922 83.1706 23.3689 83.1835 23.8422C83.2575 24.1479 83.2253 24.4372 83.0548 24.7068H83.0516Z" fill="#080806"/>
<path d="M73.1161 34.4105C73.1612 34.4467 73.2062 34.4795 73.2513 34.5124V34.5321C73.0679 34.8674 72.8587 35.1304 72.4662 34.782C71.2243 33.1088 71.4238 31.7446 73.0453 30.834C73.1837 30.9655 73.2609 31.1233 73.2995 31.2975C73.2094 31.3534 73.1226 31.429 73.0357 31.5144C72.4984 32.4973 72.5724 33.4605 73.1161 34.4105Z" fill="#080806"/>
<path d="M83.0515 24.7071C83.0387 24.4704 83.0258 24.2305 83.0129 23.9938C83.1159 23.813 83.2382 23.7966 83.3829 23.9511C83.4634 23.9576 83.5438 23.9609 83.6243 23.9675C84.0039 23.767 84.123 24.145 84.3417 24.3028C84.6924 24.7071 85.0367 25.118 85.3906 25.5158C85.7349 25.9004 86.092 26.2719 86.4717 26.6795C85.5483 27.1759 85.1686 26.5315 84.6506 26.0779C84.123 25.6177 84.0393 24.5986 83.0483 24.7104L83.0515 24.7071Z" fill="#080806"/>
<path d="M77.3471 23.2473C77.3085 23.4938 77.2667 23.7404 77.2281 23.9869C77.0125 23.9014 76.6618 23.6023 76.6554 24.0757C76.6457 24.9665 76.3561 25.9231 77.3825 26.8567C76.3819 26.7844 75.2526 27.7015 75.8671 25.7883C76.1953 24.766 75.8864 23.53 75.8671 22.3893C76.7133 22.077 76.591 23.3788 77.3021 23.29L77.3471 23.2473Z" fill="#080806"/>
<path d="M168.918 26.291C168.507 26.3962 168.426 26.1497 168.365 25.8834C168.445 25.8111 168.519 25.7256 168.587 25.6237C169.073 24.5751 168.86 23.6119 168.246 22.6948C168.201 22.6685 168.159 22.6455 168.114 22.6258C168.111 22.6159 168.111 22.6027 168.111 22.5929C168.291 22.2477 168.513 22.0472 168.883 22.3661C170.225 23.9242 170.234 24.7132 168.918 26.291Z" fill="#080806"/>
<path d="M105.094 30.9297C105.484 31.528 106.272 31.7449 106.516 32.4846C105.464 32.1 105.982 32.9875 105.95 33.2899C105.879 33.9737 105.822 34.6936 106.314 35.3675C105.796 35.2524 104.683 36.2813 105.201 34.4273C105.5 33.359 105.529 32.0835 105.094 30.9297Z" fill="#080806"/>
<path d="M153.452 31.2158C153.8 31.6465 154.508 31.8207 154.385 32.5866C153.436 33.4479 153.89 34.3584 154.334 35.3183C153.861 35.7194 153.353 35.4958 152.632 35.4958C153.523 34.0889 153.131 32.5998 153.452 31.2158Z" fill="#080806"/>
<path d="M108.453 35.1312C109.174 34.4047 108.492 33.9708 108.119 33.4744C108.801 32.932 108.617 32.0477 108.399 31.5612C107.781 30.1707 108.492 30.3482 109.476 30.5323C108.804 31.8768 109.151 33.2969 109.048 34.6874C109.023 35.0194 109.209 35.7722 108.45 35.1345L108.453 35.1312Z" fill="#080806"/>
<path d="M95.1943 34.7459C95.027 33.3718 95.6673 31.9024 94.5122 30.4561C95.2297 30.6303 95.8056 30.1635 96.1885 30.8735C95.8796 32.0832 96.1113 33.3127 96.0437 34.5323C96.0244 34.861 96.0212 35.1963 95.6061 35.2423C95.2715 35.2785 95.1525 35.0681 95.1943 34.7459Z" fill="#080806"/>
<path d="M62.6756 35.1898C63.747 34.2069 62.4439 33.9735 62.1383 33.4245C63.3352 32.4844 62.5662 31.5442 62.1125 30.5416C63.1035 30.3115 63.821 30.1143 63.3609 31.6921C63.0842 32.6487 63.2966 33.75 63.2773 34.7854C63.2708 35.2062 63.2386 35.627 62.6724 35.1898H62.6756Z" fill="#080806"/>
<path d="M69.4644 34.8223C69.0622 34.4542 69.384 33.7277 68.8048 33.4515C68.7855 32.61 69.0848 31.7816 68.5475 30.9335C68.2064 30.3977 68.5378 30.2498 70.0532 30.5883C69.1588 31.9065 69.8055 33.4285 69.4644 34.8223Z" fill="#080806"/>
<path d="M46.3182 31.2156L47.3059 32.2083C46.4565 33.2537 46.8973 34.2596 47.3317 35.3378C46.9166 35.6369 46.4211 35.5547 45.8452 35.3378C46.582 34.013 46.138 32.5798 46.315 31.209L46.3182 31.2156Z" fill="#080806"/>
<path d="M59.1911 31.2158C59.5193 31.5478 59.8443 31.8798 60.1724 32.2119C59.4614 33.2704 59.6962 34.2828 60.3333 35.2953C59.8668 35.6799 59.3584 35.5418 58.7085 35.4169C59.4067 34.0593 59.0174 32.6162 59.1943 31.2191L59.1911 31.2158Z" fill="#080806"/>
<path d="M98.0996 23.3099C98.6401 22.0279 99.6858 21.6761 100.921 21.8142C101.61 21.8898 102.086 22.2744 101.87 23.3428C100.757 22.0443 99.7341 22.0903 98.8139 23.3724C98.5758 23.3559 98.3216 23.5236 98.0996 23.3099Z" fill="#080806"/>
<path d="M150.82 26.3507C149.665 25.164 150.75 23.54 150.071 22.1956C149.926 21.9063 150.907 21.8307 151.403 22.1331C151.416 22.1397 151.396 22.2219 151.377 22.258C151.351 22.304 151.306 22.3369 151.271 22.3764C150.866 23.4546 151.004 24.5459 151.197 25.6373V25.6472C151.461 26.0975 151.39 26.3638 150.82 26.3507Z" fill="#080806"/>
<path d="M65.9219 31.8506C66.2919 31.8999 66.7616 31.7388 66.8807 32.324C65.8157 33.2707 66.4849 34.2766 66.8002 35.2989C66.398 35.6704 65.9444 35.5093 65.3105 35.3975C66.1085 34.2864 65.4553 33.0011 65.9219 31.8539V31.8506Z" fill="#080806"/>
<path d="M116.741 33.9703C115.921 33.8881 114.814 33.1189 115.02 35.0321C115.12 35.9492 114.209 35.3411 113.636 35.5284C113.839 34.6113 114.573 34.0886 114.608 33.2767C115.065 33.0301 115.541 33.0992 116.017 33.155C116.062 33.1616 116.107 33.1649 116.153 33.1715C116.284 33.349 116.416 33.5298 116.548 33.7073C116.613 33.7961 116.677 33.8815 116.741 33.9703Z" fill="#080806"/>
<path d="M55.6744 31.2062C55.4942 31.0451 55.0856 30.9005 55.298 30.6375C55.6422 30.2134 56.186 30.4501 56.6268 30.5159C57.0644 30.5816 56.7587 30.8676 56.7169 31.101C56.4595 32.5178 56.482 33.9346 56.8166 35.4106C56.2729 35.4172 55.7162 35.7755 55.2562 35.2002C55.2401 35.1805 55.5103 34.9241 55.6487 34.7794C56.2343 33.5927 56.1892 32.4028 55.6712 31.2095L55.6744 31.2062Z" fill="#080806"/>
<path d="M143.813 35.1239C143.716 34.5585 143.62 33.993 143.52 33.4276C144.978 33.4769 144.849 31.8958 144.759 31.4684C144.44 29.9464 145.293 30.5217 146.155 30.4658C144.949 31.9615 144.704 33.6972 143.813 35.1239Z" fill="#080806"/>
<path d="M50.2564 33.8392C49.8896 33.7998 49.4392 33.9575 49.2686 33.425C50.3304 32.4717 49.7995 31.5578 49.1914 30.6144C49.6805 30.2199 50.1856 30.5191 50.9513 30.4435C50.0505 31.5907 50.6811 32.7873 50.2532 33.8392H50.2564Z" fill="#080806"/>
<path d="M90.3746 31.2589C90.5451 31.0583 90.8958 30.7724 90.928 31.1635C91.0245 32.3995 91.0181 33.652 90.9215 34.888C90.8958 35.2036 90.5129 34.9603 90.3521 34.7368C90.3617 33.5764 90.3681 32.416 90.3778 31.2589H90.3746Z" fill="#080806"/>
<path d="M162.828 26.2652C163.114 26.5446 163.195 26.8963 162.693 26.7813C162.435 26.7221 161.47 27.4683 161.805 26.2684C162.091 24.9798 162.201 23.6945 161.753 22.4158C161.869 21.903 162.149 21.8865 162.805 22.3533C162.538 23.6616 162.49 24.9667 162.828 26.2684V26.2652Z" fill="#080806"/>
<path d="M141.905 26.272C141.789 26.8177 141.731 26.8505 141.194 26.8308C140.743 26.8144 140.38 26.7914 140.882 26.2555C141.191 24.9735 141.294 23.6948 140.834 22.4193C140.908 21.9229 141.297 21.8934 141.882 22.3437C141.631 23.6553 141.586 24.9636 141.905 26.272Z" fill="#080806"/>
<path d="M55.6744 31.2061C55.758 31.1469 55.8996 31.022 55.9157 31.0351C56.4498 31.5512 56.424 34.5459 55.8803 34.9634C55.861 34.9766 55.7323 34.8418 55.6519 34.776C55.6583 33.5861 55.6679 32.3961 55.6744 31.2061Z" fill="#080806"/>
<path d="M145.37 22.4088C146.3 21.8237 145.988 22.6389 146.052 23.0367C146.223 24.1116 145.666 25.2687 146.406 26.2779C146.953 26.7151 146.641 26.9255 146.204 26.7874C145.946 26.7052 144.994 27.4153 145.383 26.2582C145.766 25.0682 145.637 23.8683 145.46 22.6652C145.412 22.5863 145.383 22.5008 145.373 22.4088H145.37Z" fill="#080806"/>
<path d="M98.0997 23.3097C98.341 23.3031 98.6081 22.9809 98.814 23.3721C98.8076 24.0098 98.8011 24.6476 98.7947 25.2853C98.9942 25.7126 98.9942 26.0249 98.4054 26.0151C97.5624 25.1998 97.6654 24.2761 98.0997 23.3097Z" fill="#080806"/>
<path d="M137.516 34.7497C138.327 34.9995 139.07 34.8352 139.798 34.1777C139.933 35.0127 139.804 35.5156 139.035 35.5485C138.192 35.5847 137.34 35.6044 136.5 35.5288C135.763 35.4598 135.882 35.1245 136.394 34.7957C136.455 34.7957 136.519 34.7925 136.58 34.7892C136.818 34.776 137.053 34.97 137.294 34.8089C137.365 34.7826 137.439 34.7629 137.513 34.753L137.516 34.7497Z" fill="#080806"/>
<path d="M110.384 25.9796C110.245 26.0782 110.113 26.0749 109.991 25.973C109.978 25.9664 109.969 25.9566 109.956 25.9434V25.9368C109.978 25.9368 110.004 25.95 110.026 25.9566C110.425 24.9737 110.442 23.9908 110.036 23.0079C109.952 22.929 109.872 22.8534 109.785 22.7844C109.833 22.5575 109.917 22.3636 110.271 22.4063C111.297 23.6128 111.336 24.8784 110.384 25.9796Z" fill="#080806"/>
<path d="M161.911 34.7563C162.696 35.0456 163.417 34.8648 164.089 34.2764C164.282 34.97 164.231 35.4696 163.607 35.5157C162.661 35.5847 161.689 35.6406 160.766 35.4762C160.064 35.3513 160.495 34.9996 160.84 34.799C160.904 34.8188 160.965 34.8451 161.026 34.8746C161.264 34.9272 161.502 34.9272 161.734 34.8516C161.792 34.8188 161.85 34.7859 161.911 34.7563Z" fill="#080806"/>
<path d="M40.543 24.9703C41.2057 25.1609 42.3093 24.3161 42.4187 25.8019C42.1356 25.2628 41.7044 25.0031 41.1253 25.23C40.5301 25.4601 40.7907 25.9236 40.781 26.4068C40.7617 27.4456 39.967 26.6763 39.3911 26.7191C39.774 26.1372 40.1601 25.5521 40.543 24.9703Z" fill="#080806"/>
<path d="M179.9 33.8223C180.334 34.0195 180.015 34.7 180.53 34.8479C179.781 35.7519 178.941 35.8669 178.05 35.0944C177.766 34.8479 177.515 34.4403 177.882 34.1083C178.255 33.773 178.368 34.2792 178.59 34.4567C179.436 35.147 179.958 35.0879 179.903 33.8223H179.9Z" fill="#080806"/>
<path d="M179.726 25.0459C180.434 25.1675 179.948 26.0485 180.485 26.2786C179.716 27.1892 178.854 27.2056 177.969 26.5022C177.725 26.3082 177.564 25.9302 177.786 25.6277C178.104 25.1938 178.336 25.5817 178.503 25.8217C178.796 26.2425 179.218 26.397 179.613 26.1899C180.112 25.9302 179.887 25.4535 179.726 25.0459Z" fill="#080806"/>
<path d="M129.364 34.8189C130.071 33.6979 129.373 32.4061 129.827 31.124C130.303 32.383 129.566 33.7144 130.319 34.8123C130.503 34.9898 130.773 35.2758 130.4 35.381C129.949 35.5092 129.405 35.69 128.987 35.2265C128.977 35.2167 129.232 34.9602 129.364 34.8189Z" fill="#080806"/>
<path d="M153.436 25.2924C153.121 24.3293 153.764 23.2248 153.021 22.3273C152.809 22.0709 152.979 21.8869 153.166 21.8474C153.468 21.7882 153.8 21.7981 154.109 21.8474C154.379 21.8934 154.408 22.1268 154.257 22.3273C153.571 23.2379 154.241 24.3523 153.819 25.299C153.69 25.4108 153.562 25.4141 153.439 25.2859L153.436 25.2924Z" fill="#080806"/>
<path d="M56.3085 26.2655C56.7493 26.7618 57.1901 26.798 57.6244 26.2556C58.3805 26.397 59.024 26.1438 59.5066 25.2793C59.8284 26.2983 59.5388 26.8046 58.9725 26.8736C58.0813 26.9854 57.1611 26.9492 56.2667 26.8506C55.9321 26.8144 56.0479 26.4496 56.3085 26.2622V26.2655Z" fill="#080806"/>
<path d="M153.436 25.292C153.562 25.2953 153.69 25.2986 153.816 25.3051C153.102 27.2578 152.239 27.5602 150.824 26.3505C151.129 26.2157 151.123 25.9067 151.203 25.647C152.13 26.7154 152.844 26.4064 153.436 25.292Z" fill="#080806"/>
<path d="M121.162 35.1871C122.16 34.5756 123.144 35.1936 123.672 34.2962C123.797 34.0825 124.087 34.2272 124.154 34.4474C124.261 34.7893 124.151 35.1246 123.829 35.2824C123.041 35.6703 122.25 35.6736 121.162 35.1871Z" fill="#080806"/>
<path d="M95.1943 34.7464C95.8152 34.8023 95.7863 34.7957 95.8603 34.2665C96.0147 33.1389 95.4806 31.9424 96.1885 30.874C96.2174 32.2119 95.9278 33.5663 96.3365 34.8845C96.4266 35.1803 96.5134 35.4334 96.1338 35.463C95.6833 35.4992 95.1396 35.7424 94.805 35.2987C94.599 35.0291 94.9562 34.8615 95.1943 34.7497V34.7464Z" fill="#080806"/>
<path d="M114.557 22.3631C114.097 21.9095 113.643 21.8602 113.209 22.3993C113.012 22.2941 112.807 22.0212 113.009 21.9391C113.949 21.5545 114.943 21.6596 115.911 21.8174C116.236 21.87 116.417 22.2711 116.323 22.5899C116.169 23.1126 115.866 22.751 115.596 22.6524C115.258 22.5308 114.901 22.4585 114.554 22.3631H114.557Z" fill="#080806"/>
<path d="M100.995 25.9038C101.034 25.4469 100.783 25.1149 100.181 24.6612C101.021 24.6021 101.51 24.5692 102.263 24.5166C101.774 25.2825 102.311 26.1964 101.397 26.65C100.78 26.6698 100.85 26.3114 100.998 25.9038H100.995Z" fill="#080806"/>
<path d="M21.5632 31.9065C23.7447 31.3148 25.9036 31.1472 28.011 32.1991C25.8746 31.7882 23.7189 31.8309 21.5632 31.9065Z" fill="#A77F21"/>
<path d="M84.342 24.2991L83.6245 23.9638C83.9527 23.336 84.6927 23.0566 84.8021 22.1657C84.8697 21.6134 85.6515 21.8666 86.2885 21.9422C85.7319 22.9053 84.3356 23.0368 84.3388 24.2991H84.342Z" fill="#080806"/>
<path d="M75.6644 34.8516C74.5769 35.8805 73.5088 35.8805 72.4663 34.7825C72.7527 34.7891 73.0487 34.8121 73.1162 34.4111C73.1613 34.4472 73.2063 34.4801 73.2514 34.513C73.8755 34.9436 74.4933 35.0126 75.1046 34.4702C75.1368 34.4439 75.1657 34.4144 75.1979 34.3848C75.3556 34.5393 75.51 34.6971 75.6644 34.8516Z" fill="#080806"/>
<path d="M178.796 23.3497C178.436 23.113 178.706 22.5082 178.23 22.3405C179.703 21.3445 180.138 21.4332 180.723 22.9125C180.128 23.2675 178.96 21.3839 178.796 23.3497Z" fill="#080806"/>
<path d="M178.828 31.8733C178.545 31.6991 178.635 31.1764 178.188 31.1567C179.52 29.9207 180.051 29.9799 180.617 31.4493C180.048 31.7123 179.066 30.2757 178.828 31.8766V31.8733Z" fill="#080806"/>
<path d="M100.995 25.9032C101.127 26.153 101.262 26.3995 101.394 26.6494C100.246 27.1852 99.2193 27.1227 98.4053 26.0149C98.7592 25.8966 98.6981 25.5481 98.7946 25.2852C99.4316 25.8473 99.9368 26.8992 100.995 25.9032Z" fill="#080806"/>
<path d="M168.883 22.3665C168.632 22.3994 168.352 22.3731 168.246 22.6952C168.201 22.6689 168.159 22.6459 168.114 22.6262C167.551 22.3501 167.033 22.3928 166.554 22.7544C166.473 22.8169 166.393 22.8859 166.312 22.9681C166.28 22.7347 166.29 22.4816 166.029 22.3599C166.982 21.4329 167.931 21.4395 168.883 22.3665Z" fill="#080806"/>
<path d="M132.497 25.861C132.635 26.0089 132.774 26.1568 132.912 26.3047C131.374 27.3895 130.586 27.1496 130.319 25.3975C131.078 25.5059 131.583 27.0345 132.5 25.861H132.497Z" fill="#080806"/>
<path d="M110.384 25.9794C109.602 27.2285 108.974 27.3238 107.594 26.341C107.559 26.3212 107.523 26.2949 107.488 26.2686C107.752 26.2489 108.019 26.239 108.132 25.9268C108.18 25.9629 108.225 25.9991 108.273 26.0254C108.839 26.3903 109.415 26.2555 109.991 25.9728C109.978 25.9662 109.969 25.9563 109.956 25.9432V25.9366C109.978 25.9366 110.004 25.9498 110.027 25.9563C110.146 25.9629 110.265 25.9728 110.384 25.9794Z" fill="#080806"/>
<path d="M71.0731 22.9717C71.456 23.3924 72.1864 23.7869 71.8743 24.3951C71.5493 25.0328 70.9412 24.4937 70.4683 24.3129C70.5487 23.8099 70.5937 23.2905 71.0731 22.9717Z" fill="#080806"/>
<path d="M83.383 23.9478C83.2607 23.9609 83.1384 23.9774 83.013 23.9905C83.013 23.504 83.1481 22.9616 82.9808 22.5441C82.6783 21.7946 82.511 22.4356 82.3373 22.7019C82.1056 22.508 81.6906 22.2779 81.919 21.9853C82.2826 21.5185 82.8843 21.7815 83.3701 21.8143C83.679 21.8341 83.7079 22.1332 83.5213 22.4061C83.1899 22.8893 83.3443 23.4251 83.3797 23.9445L83.383 23.9478Z" fill="#080806"/>
<path d="M110.271 22.4062C110.194 22.6067 110.114 22.8072 110.036 23.0078C109.953 22.9289 109.872 22.8533 109.785 22.7842C109.328 22.4128 108.833 22.2451 108.254 22.5607C108.202 22.587 108.151 22.6166 108.099 22.6528C107.987 22.5443 107.871 22.4325 107.755 22.324C108.621 21.5515 109.464 21.4036 110.271 22.4062Z" fill="#080806"/>
<path d="M131.281 22.6891C131.152 22.5576 131.02 22.4294 130.892 22.2979C132.259 21.3545 132.652 21.4597 133.125 22.9422C132.471 23.077 131.973 21.9363 131.284 22.6858L131.281 22.6891Z" fill="#080806"/>
<path d="M114.541 24.6381C114.454 24.3784 114.37 24.1187 114.283 23.859C114.627 24.0135 114.975 24.0792 115.345 23.951C115.609 23.859 115.937 23.5664 116.072 24.0891C116.124 24.2863 116.146 24.5362 116.072 24.7137C115.876 25.1772 115.58 24.8485 115.306 24.7696C115.059 24.6972 114.798 24.6775 114.541 24.6348V24.6381Z" fill="#080806"/>
<path d="M102.031 30.844C101.883 30.9985 101.735 31.153 101.587 31.3075C101.542 31.2844 101.501 31.2614 101.455 31.2417C100.937 30.9952 100.439 30.9853 99.9658 31.2812C99.8821 31.3338 99.7985 31.3962 99.7148 31.4685C99.7245 31.2516 99.7341 31.0346 99.7438 30.8177C100.516 29.9926 101.279 30.1799 102.031 30.844Z" fill="#080806"/>
<path d="M75.3329 30.8378C75.1913 30.9824 75.0498 31.1304 74.905 31.2783C74.8599 31.2553 74.8149 31.2356 74.7698 31.2191C74.2486 30.9989 73.7531 30.9824 73.2995 31.298C73.2094 31.3539 73.1225 31.4295 73.0356 31.515L73.0453 30.8345C73.8078 29.9864 74.5704 30.1573 75.3329 30.8345V30.8378Z" fill="#080806"/>
<path d="M50.8548 25.3018C50.9739 25.4332 51.0929 25.568 51.212 25.6995C51.8265 27.1229 51.0125 27.0177 49.9475 26.8139C50.2789 26.2583 50.5653 25.7817 50.8516 25.3018H50.8548Z" fill="#080806"/>
<path d="M77.3021 23.2902C76.4495 23.609 76.3562 22.6689 75.8671 22.3895C75.3909 22.1922 75.4038 21.8997 75.88 21.8405C76.8935 21.7123 76.9321 22.6952 77.3053 23.2902H77.3021Z" fill="#080806"/>
<path d="M31.4634 33.8623C32.1809 34.0136 32.6538 33.9051 32.5219 32.9682C32.4576 32.5047 32.5123 32.0281 32.5123 31.5547C33.0271 32.0281 32.863 32.6691 32.8758 33.2443C32.8855 33.6914 33.1847 34.339 32.6281 34.556C32.1326 34.7499 31.8269 34.1516 31.4634 33.8591V33.8623Z" fill="#A77F21"/>
<path d="M70.4681 24.3125C70.4392 25.6077 71.842 24.4604 72.0833 25.2987C71.3722 25.3085 70.4649 24.9864 70.4971 26.2684C69.8922 26.4854 70.0209 25.9035 69.8472 25.6504C69.9147 25.1376 70.037 24.6544 70.4649 24.3158L70.4681 24.3125Z" fill="#080806"/>
<path d="M168.919 26.2913C168.236 26.9882 167.487 27.2644 166.605 26.6661C166.721 26.5609 166.837 26.4557 166.953 26.3472C166.998 26.3439 167.043 26.3406 167.088 26.3374C167.561 26.2946 168.014 26.2124 168.365 25.8837C168.446 25.8114 168.52 25.7259 168.587 25.624C168.606 25.8936 168.565 26.1927 168.919 26.2913Z" fill="#080806"/>
<path d="M69.8505 25.6475C70.0661 25.8546 70.2817 26.0584 70.4972 26.2655C70.36 26.6665 69.9417 26.8276 69.2424 26.7487C69.4548 26.3641 69.651 26.0058 69.8473 25.6475H69.8505Z" fill="#080806"/>
<path d="M102.356 34.8347C101.555 35.6237 100.696 35.8998 99.7114 35.17C99.8273 35.0583 99.9431 34.9465 100.059 34.8347C100.104 34.8347 100.149 34.8347 100.194 34.8347C100.657 34.8183 101.121 34.8084 101.587 34.792H101.606C101.854 34.8084 102.105 34.8216 102.356 34.838V34.8347Z" fill="#080806"/>
<path d="M140.833 22.4229C141.5 23.6917 141.416 24.9738 140.882 26.2591C140.866 24.9803 140.85 23.7016 140.833 22.4229Z" fill="#080806"/>
<path d="M162.828 26.2647C162.258 24.963 162.313 23.6579 162.805 22.3496C162.812 23.6546 162.822 24.9597 162.828 26.2647Z" fill="#080806"/>
<path d="M161.753 22.4121C162.4 23.6876 162.3 24.9729 161.805 26.2648C161.789 24.9795 161.77 23.6941 161.753 22.4121Z" fill="#080806"/>
<path d="M141.905 26.272C141.374 24.967 141.413 23.6554 141.883 22.3438L141.905 26.272Z" fill="#080806"/>
<path d="M136.468 31.1899C136.554 31.1833 136.638 31.1899 136.722 31.2129C136.928 32.4555 137.195 33.7047 136.561 34.9111C136.506 34.8716 136.451 34.8322 136.397 34.7927C136.419 33.5929 136.445 32.3898 136.468 31.1899Z" fill="#080806"/>
<path d="M46.6205 26.2191C46.7492 26.344 46.8779 26.4689 47.0066 26.5939C47.1578 26.4361 47.3766 26.3999 47.5471 26.2717C47.6211 26.2487 47.6951 26.2388 47.7724 26.2421C47.9622 26.2947 48.2518 26.2914 48.2228 26.5676C48.1649 27.1527 47.6823 26.9489 47.3766 26.9292C46.9487 26.8996 46.3792 27.2283 46.1283 26.6563C45.9899 26.344 46.376 26.2816 46.6205 26.2158V26.2191Z" fill="#080806"/>
<path d="M145.457 22.666C145.837 23.8724 145.972 25.0723 145.38 26.259L145.457 22.666Z" fill="#080806"/>
<path d="M0.66592 35.7982C0.508266 35.8409 0.347394 35.8902 0.18974 35.9395H0.186523C0.048173 35.8607 -0.0354803 35.7292 0.0127812 35.4629C0.144696 35.7456 0.402091 35.7785 0.66592 35.7982Z" fill="#EBE1C3"/>
<path d="M151.197 25.6369C150.785 24.539 150.663 23.4509 151.271 22.376C151.245 23.4641 151.222 24.5489 151.197 25.6369Z" fill="#080806"/>
<path d="M30.8392 28.5598C30.4499 29.7695 30.9775 30.2988 31.3475 30.8839C31.6017 31.285 31.6274 31.7189 31.37 32.1166C31.0451 32.6229 30.5721 32.4158 30.2311 32.2021C28.4872 31.114 26.3702 31.4888 24.5652 30.6407C24.1308 30.4369 23.5839 30.4369 23.1849 30.7787C22.6283 31.2521 21.9977 31.2061 21.3574 31.1995C20.878 31.1962 20.2795 31.2718 20.1348 30.6801C19.9675 29.9964 20.6849 30.0588 21.0421 29.7926C23.098 28.2541 25.2827 26.9688 27.5928 25.8544C29.3688 24.9997 29.327 24.8617 30.0026 26.7058C30.2729 27.4455 30.9582 28.0536 30.8456 28.5565L30.8392 28.5598Z" fill="#A77F21"/>
<path d="M149.006 34.779C148.6 35.1833 148.356 35.1242 148.353 34.5193C148.343 33.3951 148.353 32.2708 148.353 31.002C149.221 32.2643 148.192 33.6712 149.009 34.7823L149.006 34.779Z" fill="#080806"/>
<path d="M137.426 26.2454C136.953 26.6596 136.783 26.4525 136.783 25.9134C136.783 24.7267 136.783 23.54 136.783 22.041C137.458 23.6025 136.548 25.0489 137.429 26.2487L137.426 26.2421V26.2454Z" fill="#080806"/>
<path d="M158.34 26.2458C157.908 26.614 157.69 26.5121 157.69 25.9368C157.69 24.7633 157.69 23.593 157.69 21.9658C158.34 23.639 157.455 25.0821 158.343 26.2491V26.2458H158.34Z" fill="#080806"/>
<path d="M161.734 34.8515C161.509 35.2624 161.274 35.3018 161.026 34.8745C161.47 33.6615 161.049 32.3861 161.303 31.0186C161.93 32.3269 161.248 33.6648 161.737 34.8548L161.734 34.8515Z" fill="#080806"/>
<path d="M47.5474 26.2713C47.5248 26.6559 47.2321 26.5638 47.0068 26.5934C47.0068 25.1898 47.0068 23.7894 47.0068 22.3857C47.5795 23.6513 47.0036 25.0221 47.5474 26.2713Z" fill="#080806"/>
<path d="M174.72 34.7926C174.205 35.2496 174.108 34.9176 174.108 34.4475C174.102 33.3758 174.108 32.3042 174.108 30.8184C174.716 32.3732 173.954 33.7046 174.726 34.8025V34.7959L174.72 34.7926Z" fill="#080806"/>
<path d="M136.557 34.9111C136.969 33.6948 136.699 32.4489 136.718 31.2129C137.433 31.5712 136.972 32.2319 137.072 32.7415C137.207 33.4154 136.892 34.1517 137.294 34.8026C137.114 35.3187 136.857 35.2727 136.554 34.9078L136.557 34.9111Z" fill="#080806"/>
<path d="M109.956 25.9365V25.9431C109.956 25.9431 109.978 25.9661 109.991 25.9727C110.004 25.9694 110.014 25.9628 110.027 25.9562C110.004 25.9497 109.978 25.9398 109.956 25.9365Z" fill="#080806"/>
</g>
<defs>
<clipPath id="clip0_284_61828">
<rect width="181" height="39" fill="white"/>
</clipPath>
</defs>
</svg>
