<svg width="48" height="64" viewBox="0 0 48 64" fill="none" xmlns="http://www.w3.org/2000/svg">
<g clip-path="url(#clip0_931_2156)">
<path d="M37.123 0.898003C36.5623 3.5259 35.9766 6.14816 35.4146 8.77605C35.3419 9.11582 35.3475 9.47391 35.3181 9.82214L35.3167 9.82355C34.7281 10.2705 34.0277 10.527 33.4895 11.0783C29.6631 14.9976 27.3969 18.3558 25.8786 21.1697C24.612 23.5157 20.2613 31.0793 12.9342 36.204C9.30633 38.7417 5.24086 40.4772 5.10525 40.2431C5.01997 40.0951 6.42639 39.2083 8.125 37.752C10.7002 35.5428 12.2338 33.4915 13.7842 31.4177C16.4307 27.8762 20.7324 20.7764 25.276 11.1023C27.0445 7.57771 28.9766 5.11335 30.4194 3.64996C32.0691 1.97651 33.8795 0.521582 36.2799 0.0619819C37.1369 -0.102967 37.3089 0.022507 37.123 0.898003Z" fill="#DDBE7F"/>
<path d="M23.7424 62.7651C23.5103 62.4775 23.3957 62.8398 23.2643 62.9427C22.61 63.4531 22.1626 63.3558 21.9082 62.5607C21.6789 61.8501 21.5097 61.1184 21.3448 60.3895C21.0232 58.96 20.5409 57.6742 18.8367 57.35C19.4574 57.0398 20.1229 56.9764 20.5996 56.5492C21.6887 55.5722 22.192 54.3569 21.7851 52.895C21.3951 51.4964 20.313 50.9085 18.9905 50.714C16.9787 50.4179 14.9502 50.6392 12.93 50.5843C12.7706 50.58 12.4868 50.4602 12.4575 50.7013C12.4211 50.9945 12.7469 50.9508 12.923 50.9762C13.6011 51.0735 13.9492 51.4386 13.9492 52.1365C13.9492 55.4679 13.952 58.7993 13.9478 62.1307C13.9478 62.7397 13.6822 63.1485 13.0461 63.2599C12.8182 63.3008 12.5567 63.3079 12.375 63.6166H17.1688C17.0934 63.3121 16.8697 63.2923 16.7159 63.2782C15.8617 63.2035 15.6562 62.6156 15.6436 61.9079C15.6212 60.5714 15.631 59.2335 15.6324 57.897C15.6324 57.7208 15.5919 57.5502 15.8701 57.4797C17.7616 57.0088 18.9332 57.6911 19.4057 59.5817C19.6545 60.5799 19.8265 61.602 20.1369 62.579C20.6318 64.1382 22.4101 64.4808 23.5215 63.2712C23.6501 63.1302 23.9199 62.9822 23.7424 62.7651ZM15.8533 57.0511C15.5569 57.0483 15.6352 56.8016 15.6338 56.6324C15.6282 55.9049 15.631 55.1774 15.631 54.2963C15.6925 53.5858 15.5443 52.7187 15.7219 51.8531C15.8505 51.2271 16.2112 50.9452 16.8124 50.8747C18.6326 50.6576 19.916 51.6529 20.074 53.4955C20.1746 54.6727 20.0516 55.8499 18.9751 56.5816C18.037 57.2203 16.9186 57.0596 15.8533 57.0511Z" fill="#1D3459"/>
<path d="M10.5534 62.0305C9.13017 58.3439 7.67063 54.6713 6.21388 50.9987C6.13559 50.7985 6.14398 50.4602 5.85179 50.4644C5.5638 50.4686 5.57638 50.8013 5.49809 51.0029C4.16716 54.4485 2.83903 57.8941 1.52349 61.3468C1.2285 62.1208 0.947498 62.8863 0.159008 63.305C0.0597483 63.3572 -0.043706 63.446 0.0192054 63.5827C0.0401758 63.6293 0.119864 63.6772 0.174387 63.6772C1.26765 63.6828 2.36091 63.6814 3.45836 63.6814C3.43879 63.3487 3.25984 63.3713 3.14241 63.3374C1.99882 63.0118 1.73878 62.5522 2.02957 61.3721C2.2253 60.5714 2.61115 59.8467 2.91033 59.0868C3.01099 58.8316 3.16338 58.7428 3.43739 58.7457C4.67045 58.7583 5.90352 58.7527 7.13658 58.7499C7.32811 58.7499 7.52104 58.7499 7.60073 58.9698C7.99218 60.0709 8.52203 61.124 8.76808 62.2744C8.88552 62.8228 8.65764 63.1753 8.07466 63.2712C7.87334 63.3036 7.63009 63.3191 7.4819 63.6377H11.8144C11.8633 63.5813 11.9123 63.5235 11.9598 63.4657C11.1909 63.243 10.8176 62.7157 10.5534 62.0305ZM3.20532 58.3142C3.88616 56.5252 4.55022 54.7784 5.28978 52.8357C5.97622 54.7587 6.59694 56.5012 7.24423 58.3142H3.20532Z" fill="#1D3459"/>
<path d="M46.0463 60.9054C44.7811 57.5825 43.5075 54.2638 42.2325 50.9465C42.1612 50.7632 42.1752 50.4714 41.9137 50.4573C41.6369 50.4432 41.6509 50.7392 41.5796 50.9211C40.2179 54.4583 38.8493 57.9927 37.5058 61.537C37.2415 62.2321 36.9535 62.8778 36.2755 63.257C36.1553 63.3247 36.0057 63.3937 36.0574 63.5672C36.1133 63.7518 36.2881 63.6799 36.4125 63.6813C37.366 63.6856 38.3194 63.6813 39.2743 63.6799C39.3875 63.6799 39.5161 63.6856 39.5077 63.5051C39.4854 63.4741 39.4658 63.4177 39.4322 63.405C39.3008 63.3585 39.1666 63.3148 39.031 63.2866C37.914 63.0568 37.6609 62.6818 37.9853 61.5723C38.2271 60.7433 38.5585 59.9411 38.8283 59.1192C38.9276 58.8175 39.0995 58.7428 39.3959 58.7456C40.6052 58.7597 41.8159 58.7625 43.0252 58.7456C43.3314 58.7414 43.4851 58.8457 43.5858 59.1305C43.9605 60.1878 44.3365 61.2466 44.7434 62.2927C44.9531 62.8312 44.7392 63.0864 44.2596 63.2344C44.0192 63.3077 43.713 63.2655 43.5425 63.6433H47.868C47.9113 63.5869 47.956 63.5305 48.0008 63.4741C46.709 63.0723 46.4434 61.9473 46.0463 60.9068V60.9054ZM39.1177 58.3099C39.8475 56.5153 40.5577 54.7657 41.3434 52.8328C42.0312 54.7741 42.6505 56.5209 43.2852 58.3099H39.1177Z" fill="white"/>
<path d="M30.7031 63.6814C30.7884 63.336 30.9827 63.305 31.1197 63.2923C31.9851 63.2077 32.1221 62.6255 32.1207 61.9022C32.1137 58.8077 32.1207 55.7117 32.1193 52.6172C32.1193 51.3639 32.1123 51.3653 30.9618 50.9268C30.8611 50.8888 30.7269 50.8676 30.7535 50.6406H35.3725C35.1936 50.9903 34.893 50.9747 34.6512 51.034C34.1479 51.158 33.9298 51.447 33.9312 51.9828C33.9452 55.4298 33.9521 58.8768 33.927 62.3224C33.9214 62.9962 34.3114 63.1429 34.8119 63.2669C34.9979 63.3135 35.325 63.2768 35.2957 63.539C35.2649 63.8125 34.9517 63.673 34.7714 63.6744C33.4349 63.6871 32.097 63.6814 30.7031 63.6814Z" fill="#1D3459"/>
<path d="M29.1584 63.618H24.4554C24.4638 63.3121 24.7126 63.2994 24.8524 63.2881C25.7402 63.2148 25.9555 62.6044 25.9597 61.8713C25.9736 58.702 25.9736 55.5327 25.9625 52.3635C25.9597 51.6487 25.7248 51.0763 24.8916 50.9833C24.7252 50.9649 24.5141 50.9523 24.4414 50.7182C24.5742 50.4659 24.8105 50.5857 24.9936 50.5829C26.2505 50.5716 27.5073 50.5744 28.7641 50.5829C28.9025 50.5829 29.1276 50.4771 29.1598 50.7239C29.1835 50.9114 28.9808 50.9029 28.8592 50.9438C28.0549 51.2145 27.6513 51.785 27.6485 52.6553C27.6471 55.6131 27.6471 58.5709 27.6485 61.5287C27.6485 62.4535 28.0735 63.0612 28.9235 63.3516C29.0228 63.3854 29.1654 63.3826 29.1584 63.618Z" fill="#1D3459"/>
<path d="M38.1995 25.1766C23.7606 35.0805 16.8362 37.7563 16.8362 37.7563C12.4939 39.434 5.16401 42.0958 4.93473 41.5516C4.69567 40.9834 13.0056 38.849 19.8335 31.2388C24.489 26.0492 26.9355 21.3376 26.9355 21.3376C29.1374 17.9978 31.4316 14.727 34.2473 11.8693C34.4038 11.7114 34.5506 11.4083 34.7855 11.4901C34.9616 11.5521 34.9407 11.9976 34.9379 12.1188C34.9211 12.7617 34.9672 17.6073 36.3639 20.5058C37.3774 22.6093 39.104 23.6948 38.5993 24.7339C38.4805 24.9792 38.2876 25.1159 38.1995 25.1751V25.1766Z" fill="#CFA542"/>
<path d="M43.5555 38.01C43.5416 38.2059 43.5807 38.4822 43.3556 38.564C43.1711 38.6303 43.0341 38.4075 42.8957 38.2962C40.0535 35.9953 36.7471 35.1396 33.1822 35.2693C29.3809 35.4074 25.8215 36.5296 22.4355 38.244C20.0826 39.4353 17.6319 40.3897 15.1532 41.268C12.5836 42.1774 9.98324 42.981 7.24449 43.1924C6.96629 43.215 6.68808 43.2333 6.40847 43.2347C6.25189 43.2361 6.09531 43.2009 5.88281 43.1769C5.97368 42.9189 6.19597 42.9246 6.33298 42.8795C6.71324 42.754 16.547 38.7938 17.1537 38.5415C24.5186 35.4807 38.7799 26.5115 39.114 26.2944C39.1587 26.2662 39.3209 26.1548 39.4943 26.1985C39.6075 26.2267 39.7026 26.3198 39.7948 26.4763C41.4096 29.2367 42.802 32.0873 43.3682 35.2791C43.529 36.1814 43.6255 37.0922 43.5555 38.01Z" fill="#A77F25"/>
</g>
<defs>
<clipPath id="clip0_931_2156">
<rect width="48" height="64" fill="white"/>
</clipPath>
</defs>
</svg>
