<svg width="72" height="45" viewBox="0 0 72 45" fill="none" xmlns="http://www.w3.org/2000/svg">
<path d="M5.04841 2.49996C5.04841 1.11927 3.91829 0 2.52421 0C1.13013 0 0 1.11927 0 2.49996V42.4993C0 43.88 1.13013 44.9993 2.52421 44.9993C3.91829 44.9993 5.04841 43.88 5.04841 42.4993V38.3327H66.9488V42.5C66.9488 43.8807 68.079 45 69.4731 45C70.8671 45 71.9973 43.8807 71.9973 42.5V35.8331L72 34.6427C72 27.993 72 24.6682 71.0557 21.9954C69.3643 17.208 65.5637 13.444 60.7299 11.7688C58.0312 10.8335 54.6741 10.8335 47.9599 10.8335H47.9523C45.2676 10.8335 41.7668 10.8335 40.6883 11.2073C38.7548 11.8773 37.2346 13.383 36.558 15.2979C36.1803 16.367 36.1803 17.697 36.1803 20.3568V33.3328H5.04841V2.49996Z" fill="white"/>
<path d="M19.3523 27.4996C23.9992 27.4996 27.7663 23.7687 27.7663 19.1664C27.7663 14.5641 23.9992 10.8332 19.3523 10.8332C14.7053 10.8332 10.9382 14.5641 10.9382 19.1664C10.9382 23.7687 14.7053 27.4996 19.3523 27.4996Z" fill="white"/>
</svg>
