<svg width="132" height="151" viewBox="0 0 132 151" fill="none" xmlns="http://www.w3.org/2000/svg">
<path d="M57.7184 66.548C61.3433 64.7534 65.2099 65.5294 68.8348 65.9175C73.1847 66.354 82.0778 63.2012 74.8764 74.0662C71.6864 78.8682 75.553 86.8229 79.6612 91.2853C83.0928 95.0201 88.071 90.8972 91.5509 88.8116C111.029 77.025 123.643 60.7275 123.74 36.7663C136.79 50.5416 134.035 76.0064 117.892 87.9385C111.367 92.7889 103.731 96.1842 96.6258 100.21C93.3392 102.102 89.8593 103.702 86.8144 105.934C81.1112 110.056 75.3113 114.713 76.6646 122.668C77.9213 130.04 84.7361 131.592 90.7776 133.484C81.7395 144.155 80.4345 144.155 70.7198 131.447C72.6047 140.566 78.2596 151.285 65.7416 150.994C53.8519 150.752 58.8784 140.663 61.15 133.339C54.9635 134.357 56.8968 142.845 51.4836 141.681C47.3754 140.808 43.7988 137.655 40.7539 133.775C43.2188 132.805 45.4904 132.126 47.617 131.107C56.3168 126.936 58.0084 119.515 51.8703 111.9C48.4387 107.631 43.9921 104.672 39.2072 102.15C33.359 99.046 27.3659 96.1357 21.6143 92.8859C-1.05344 80.1293 -6.36997 59.1754 7.93634 35.0687C8.12967 54.4219 15.6212 69.3128 29.2508 81.1479C34.0357 85.3192 39.3522 88.6175 45.2004 91.2368C50.372 93.5165 53.7069 92.5949 54.8668 86.8229C56.1718 80.1778 61.875 74.1147 57.7184 66.5965V66.548Z" fill="#BDBAA0"/>
<path d="M90.391 0C129.878 24.0097 128.38 64.1228 87.1044 86.9199C106.099 58.1568 103.392 30.0242 90.391 0Z" fill="#BDBAA0"/>
<path d="M45.1038 87.1139C3.58645 64.2683 2.18482 23.9612 41.1405 0.242522C29.0092 29.7332 25.3359 57.8657 45.1038 87.1139Z" fill="#BDBAA0"/>
<path d="M80.2412 118.157C93.4359 99.8706 118.569 99.3855 130.458 79.6927C130.023 103.848 115.379 114.858 80.2412 118.157Z" fill="#BDBAA0"/>
<path d="M1.79816 83.2336C15.4278 98.6094 37.9989 100.986 52.9819 118.787C28.4775 114.858 5.76139 113.015 1.79816 83.2336Z" fill="#BDBAA0"/>
<path d="M19.2944 115.926C30.4108 118.448 40.2705 120.679 50.9036 123.104C40.1739 133.242 32.1991 131.35 19.2944 115.926Z" fill="#BDBAA0"/>
<path d="M113.107 116.023C105.277 123.977 99.4774 131.786 88.1677 128.731C85.7027 128.052 82.6095 127.033 82.4645 124.511C82.2712 121.213 85.9444 121.746 88.1677 121.261C95.7558 119.563 103.441 118.06 113.107 116.023Z" fill="#BDBAA0"/>
</svg>
