<svg width="182" height="120" viewBox="0 0 182 120" fill="none" xmlns="http://www.w3.org/2000/svg">
<path d="M173.967 86.756C169.879 74.042 165.656 61.3758 161.464 48.6968C157.88 37.8478 154.276 27.0019 150.931 16.0765C150.337 16.0478 149.733 15.9524 149.139 15.8028C150.1 18.8421 150.963 21.9195 151.886 24.9683C154.08 32.2148 156.274 39.4645 158.468 46.7109C161.003 55.0936 163.541 63.473 166.076 71.8556C168.175 78.7902 170.274 85.7249 172.373 92.6626C173.252 95.5714 174.134 98.4802 175.013 101.389C175.095 101.663 174.915 101.959 174.649 102.035C168.412 103.839 161.698 103.372 155.385 102.245C143.74 100.167 132.29 94.5753 120.231 96.3766C115.167 97.134 110.21 98.7793 105.582 100.963C101.457 102.91 97.4327 105.323 94.1009 108.483C94.0629 108.6 94.0282 108.718 93.9902 108.836C93.9175 109.081 93.7279 109.192 93.5319 109.205C93.4655 109.218 93.3991 109.215 93.3359 109.205C93.3169 109.205 93.2948 109.205 93.2758 109.205C93.2031 109.227 93.1273 109.227 93.0545 109.215C93.0514 109.215 93.0451 109.215 93.0419 109.215C93.0324 109.215 93.0229 109.208 93.0103 109.208C92.9249 109.189 92.8364 109.151 92.7574 109.075C88.3856 104.976 83.0939 102.15 77.2489 100.899C71.4198 99.6513 65.379 99.9569 59.4961 100.625C53.0664 101.354 46.7157 102.624 40.305 103.473C35.0512 104.17 29.7184 104.403 24.4267 104.155C19.2393 103.909 13.9507 103.235 9.05415 101.418C8.75068 101.338 8.64953 101.074 8.69378 100.835C8.70011 100.775 8.71275 100.711 8.7412 100.647C11.2006 95.1545 13.5745 89.6266 15.9011 84.0731C20.7218 72.559 25.3402 60.9589 29.7437 49.276C32.9206 40.8456 36.0153 32.3707 38.8129 23.8003C36.7772 28.3004 34.7857 32.8195 32.8321 37.3577C27.8596 48.8941 23.1022 60.5229 18.1993 72.088C13.2679 83.7199 8.16904 95.2786 2.69398 106.659C3.74663 106.653 4.79929 106.65 5.84878 106.643C18.3352 106.58 30.8216 106.513 43.308 106.443C55.7502 106.376 68.1923 106.309 80.6377 106.245C81.4722 106.242 82.3036 106.236 83.1381 106.233C83.7545 106.233 84.6807 106.042 85.2055 106.452C85.667 106.809 85.9705 107.471 86.3783 107.907C86.7734 108.33 87.2002 108.725 87.6648 109.068C89.6595 110.532 92.0367 111.089 94.4707 110.825C96.8226 110.57 99.0638 109.759 100.913 108.25C101.422 107.833 101.858 107.273 102.389 106.898C102.939 106.51 103.812 106.653 104.45 106.637C106.034 106.599 107.618 106.554 109.202 106.51C121.1 106.172 132.992 105.676 144.887 105.262C156.435 104.861 167.986 104.571 179.543 104.549C177.747 98.6011 175.876 92.6786 173.976 86.7655L173.967 86.756Z" fill="#556DC6"/>
<path d="M159.302 56.7898C161.856 65.793 164.379 74.809 166.611 83.8981C168.523 86.4218 169.844 89.4293 171.134 92.303C171.172 92.3889 171.21 92.4749 171.248 92.5576C171.08 92.0102 170.916 91.4597 170.749 90.9123C168.555 83.6658 166.361 76.4161 164.167 69.1696C161.632 60.787 159.093 52.4076 156.558 44.0249C154.459 37.0903 152.36 30.1557 150.261 23.2179C149.474 20.6147 148.687 18.0146 147.9 15.4113C147.887 15.405 147.871 15.4018 147.859 15.3954C148.962 19.8095 150.132 24.2077 151.333 28.5963C153.912 38.0164 156.634 47.3952 159.302 56.7898Z" fill="#D8CCC3"/>
<path d="M170.233 92.8345C169.035 90.158 167.806 87.3702 166.098 84.9611C162.179 89.4611 156.122 93.0986 150.056 92.8409C148.561 92.7772 147.094 92.4112 145.649 92.0389C143.961 91.6029 142.295 91.0873 140.633 90.5622C137.358 89.5279 134.08 88.4522 130.688 87.8857C125.643 87.0456 120.458 87.7012 115.615 89.2638C107.134 92.0039 98.5075 97.9105 94.8753 106.379C98.3747 103.432 102.462 101.153 106.616 99.3395C111.269 97.3059 116.194 95.7846 121.242 95.1832C127.065 94.4926 132.938 95.5364 138.584 96.9367C144.597 98.4293 150.495 100.38 156.621 101.386C162.261 102.312 168.223 102.649 173.796 101.169C172.604 98.3911 171.472 95.5841 170.233 92.8249V92.8345Z" fill="#D8CCC3"/>
<path d="M79.9106 89.4611C76.5914 88.5572 73.0826 88.3504 69.6623 88.5509C62.594 88.9614 55.8008 91.2019 49.2351 93.7288C39.1638 97.6082 28.5361 102.449 17.6397 102.481C20.7945 102.955 23.9999 103.139 27.1579 103.184C32.6645 103.263 38.127 102.777 43.5672 101.949C50.1171 100.956 56.6416 99.7086 63.2515 99.2153C68.8593 98.7953 74.5494 98.9162 79.9833 100.507C84.7155 101.892 89.0146 104.352 92.7005 107.614C91.4898 102.461 89.5236 97.1467 85.9009 93.2578C84.2603 91.4947 82.2404 90.1007 79.9074 89.4642L79.9106 89.4611Z" fill="#D8CCC3"/>
<path d="M17.6397 102.477C17.1213 102.401 16.6061 102.309 16.0908 102.213C16.6061 102.306 17.1213 102.398 17.6397 102.477Z" fill="#D8CCC3"/>
<path d="M102.364 95.2468C110.188 88.8978 120.917 85.2061 130.966 86.8769C134.402 87.4466 137.718 88.5445 141.034 89.5915C142.697 90.1167 144.363 90.629 146.051 91.0619C147.565 91.4501 149.089 91.8129 150.66 91.8034C156.365 91.7779 161.926 88.2581 165.555 83.9872C164.701 80.5279 163.797 77.0781 162.877 73.6378C160.503 77.9373 156.593 81.3139 152.171 83.4367C147.34 85.7567 141.932 86.6669 136.58 86.7019C134.061 86.721 131.532 86.5491 129.069 86.0176C119.067 83.8567 111.041 75.8115 106.723 66.4773C102.405 57.1431 101.337 46.6218 101.236 36.3265C101.147 27.2883 101.836 18.0114 104.687 9.51423C100.218 10.4085 96.0197 12.8272 94.0598 17.114C93.9965 17.254 93.9175 17.3622 93.8259 17.4449V106.204C95.6467 101.889 98.7477 98.1874 102.364 95.25V95.2468Z" fill="#D8CCC3"/>
<path d="M86.2676 13.47C87.0769 23.6699 86.1696 34.0065 83.2614 43.799C79.5439 56.3252 72.5136 67.9221 62.7394 76.5307C59.5277 79.3567 56.0442 81.855 52.4437 84.1623C40.0363 92.1152 26.2159 97.8182 11.8391 100.934C18.9074 102.146 26.1937 100.867 32.987 98.7221C46.3901 94.4894 59.2875 86.7273 73.778 87.4784C76.7432 87.6311 79.9422 88.0194 82.6197 89.3942C84.7851 90.5049 86.5679 92.2362 88.0252 94.1711C90.1937 97.0576 91.7016 100.428 92.7827 103.909V17.5372C92.6594 17.4927 92.5361 17.4259 92.4192 17.324C90.5667 15.72 88.4899 14.4375 86.2676 13.47Z" fill="#D8CCC3"/>
<path d="M161.72 69.3224C159.141 59.9023 156.419 50.5235 153.751 41.1289C151.273 32.3994 148.829 23.6539 146.645 14.8417C146.613 14.8258 146.585 14.8099 146.553 14.7939C142.216 16.1433 137.614 15.9078 133.207 15.0167C125.206 13.4 117.67 9.36784 109.41 9.11324C107.858 9.0655 106.255 9.19598 104.687 9.51105C101.839 18.0082 101.15 27.2851 101.236 36.3234C101.334 46.6187 102.405 57.1399 106.723 66.4741C111.041 75.8083 119.071 83.8567 129.069 86.0145C131.532 86.5459 134.061 86.7178 136.58 86.6987C141.932 86.6605 147.34 85.7503 152.171 83.4335C156.593 81.3108 160.503 77.9342 162.877 73.6346C162.492 72.1962 162.112 70.7577 161.717 69.3192L161.72 69.3224Z" fill="#F4EFEA"/>
<path d="M82.5217 12.1716C75.8296 10.4276 68.7108 11.15 62.0155 12.4835C55.1622 13.8488 48.4891 15.9492 41.7812 17.8778C40.0584 23.4948 38.1712 29.0641 36.2145 34.6016C32.045 46.4054 27.5593 58.0978 22.8998 69.717C18.7493 80.0664 14.4691 90.3681 9.9203 100.549C10.5588 100.702 11.1974 100.826 11.8391 100.934C26.2159 97.8151 40.0363 92.1152 52.4437 84.1623C56.041 81.855 59.5277 79.3599 62.7394 76.5307C72.5136 67.9221 79.5439 56.3252 83.2614 43.799C86.1696 34.0065 87.0769 23.6699 86.2676 13.47C85.0569 12.9449 83.8083 12.5089 82.5217 12.1716Z" fill="#F4EFEA"/>
<path d="M181.952 105.307C178.367 93.3341 174.479 81.454 170.571 69.5834C166.468 57.1144 162.302 44.6646 158.243 32.183C156.356 26.3845 154.491 20.5797 152.711 14.7462C152.689 14.6794 152.664 14.6157 152.635 14.5584C152.503 14.2116 152.193 13.9474 151.703 13.9729C150.179 14.0492 148.538 13.5464 147.239 12.7635C147.015 12.6267 146.794 12.5885 146.591 12.6171C146.496 12.6203 146.398 12.6362 146.294 12.6712C138.088 15.3668 129.635 11.9647 121.821 9.50786C117.872 8.2667 113.823 7.18784 109.669 7.01917C106.338 6.88233 102.984 7.47745 99.9268 8.82363C97.0186 10.1062 94.4296 12.1907 92.8238 14.9531C89.8049 12.598 86.334 10.9272 82.6039 10.0202C78.3964 8.99867 74.0151 8.87774 69.7192 9.24372C60.5899 10.0202 51.7703 12.7763 43.0109 15.3286C42.5177 15.4718 42.0278 15.615 41.5346 15.7582C40.9498 15.9269 40.2006 16.0033 39.8403 16.5475C39.4926 17.0726 39.2776 17.76 39.0121 18.3329C38.7023 19.0044 38.3925 19.6759 38.0859 20.3474C36.9573 22.8138 35.8446 25.2866 34.7446 27.7689C32.5507 32.7176 30.4075 37.6918 28.2927 42.6756C24.0916 52.5794 20.0011 62.5278 15.7905 72.4285C11.3965 82.762 6.86666 93.0382 2.03963 103.174C1.40108 104.514 0.759378 105.848 0.11451 107.181C0.00387076 107.41 -0.0214182 107.636 0.0165152 107.843C0.0165152 107.843 0.0165152 107.843 0.0165152 107.846C0.063932 108.301 0.367399 108.721 0.926917 108.76C0.955367 108.76 0.986978 108.763 1.01859 108.763C1.11342 108.763 1.2051 108.763 1.29993 108.763C22.8335 108.651 44.3638 108.534 65.8974 108.419C71.9446 108.387 77.9887 108.355 84.0359 108.324C86.236 111.283 89.8081 113.135 93.5161 112.992C97.3379 112.846 100.723 111.391 103.458 108.753C123.446 108.266 143.417 107.238 163.408 106.825C169.253 106.704 175.098 106.637 180.943 106.637C181.288 106.637 181.544 106.497 181.711 106.293C181.952 106.067 182.075 105.727 181.952 105.307ZM147.903 15.4113C148.69 18.0146 149.477 20.6147 150.264 23.2179C152.363 30.1525 154.462 37.0872 156.561 44.0249C159.097 52.4076 161.635 60.787 164.17 69.1696C166.364 76.4161 168.558 83.6658 170.752 90.9123C170.919 91.4597 171.084 92.0102 171.251 92.5576C171.213 92.4717 171.175 92.3858 171.137 92.303C169.848 89.4261 168.526 86.4218 166.614 83.8981C164.379 74.809 161.859 65.793 159.305 56.7898C156.637 47.3952 153.916 38.0164 151.336 28.5963C150.135 24.2077 148.965 19.8095 147.862 15.3954C147.875 15.4018 147.89 15.405 147.903 15.4113ZM173.796 101.179C168.22 102.659 162.258 102.321 156.621 101.395C150.495 100.386 144.6 98.4388 138.584 96.9462C132.938 95.546 127.068 94.4989 121.242 95.1927C116.194 95.791 111.269 97.3154 106.616 99.349C102.462 101.163 98.3747 103.445 94.8754 106.389C98.5075 97.9169 107.134 92.0102 115.615 89.2733C120.458 87.7075 125.646 87.0551 130.688 87.8953C134.083 88.4586 137.361 89.5375 140.633 90.5718C142.295 91.0969 143.961 91.6124 145.649 92.0484C147.091 92.4208 148.561 92.7868 150.056 92.8504C156.119 93.105 162.179 89.4706 166.098 84.9706C167.802 87.3797 169.032 90.1676 170.233 92.844C171.469 95.6032 172.601 98.4102 173.796 101.188V101.179ZM93.829 73.3546V17.4418C93.9175 17.359 93.9997 17.2508 94.0629 17.1108C96.712 11.3187 103.439 8.93184 109.413 9.11324C117.676 9.36784 125.209 13.4 133.21 15.0167C137.62 15.9078 142.219 16.1401 146.556 14.7939C146.588 14.8099 146.617 14.8258 146.648 14.8417C148.832 23.6539 151.276 32.3962 153.754 41.1289C156.422 50.5235 159.144 59.9023 161.724 69.3224C163.058 74.1948 164.354 79.0799 165.561 83.9872C161.932 88.2581 156.372 91.7779 150.666 91.8034C149.095 91.8097 147.571 91.4469 146.057 91.0619C144.369 90.629 142.7 90.1167 141.04 89.5915C137.724 88.5477 134.408 87.4498 130.972 86.8769C120.923 85.2061 110.194 88.8978 102.37 95.2468C98.754 98.181 95.653 101.885 93.8322 106.201V73.3578L93.829 73.3546ZM41.7812 17.8778C48.4891 15.9492 55.1622 13.8488 62.0155 12.4835C68.7108 11.15 75.8296 10.4276 82.5217 12.1716C86.1665 13.1232 89.5615 14.8449 92.4192 17.324C92.5361 17.4259 92.6594 17.4927 92.7827 17.5372L92.7827 103.913C91.7016 100.431 90.1937 97.0608 88.0252 94.1743C86.5679 92.2362 84.7851 90.5081 82.6197 89.3974C79.9422 88.0226 76.7432 87.6343 73.778 87.4816C59.2875 86.7305 46.3901 94.4926 32.987 98.7252C25.5742 101.064 17.5797 102.385 9.9203 100.552C14.4691 90.3713 18.7493 80.0696 22.8998 69.7202C27.5593 58.1042 32.045 46.4118 36.2145 34.6048C38.1712 29.0641 40.0584 23.498 41.7812 17.8809V17.8778ZM17.6397 102.477C17.1213 102.401 16.6061 102.309 16.0908 102.213C16.6061 102.306 17.1213 102.398 17.6397 102.477C28.5361 102.446 39.1606 97.605 49.2351 93.7256C55.8008 91.1987 62.594 88.9551 69.6623 88.5477C73.0826 88.3504 76.5914 88.5573 79.9106 89.4579C82.2467 90.0944 84.2635 91.4883 85.9041 93.2514C89.5236 97.1404 91.493 102.455 92.7037 107.608C89.0146 104.345 84.7155 101.885 79.9865 100.501C74.5525 98.9098 68.8625 98.7889 63.2547 99.209C56.6416 99.7054 50.1171 100.95 43.5704 101.943C38.1301 102.77 32.6677 103.254 27.161 103.178C24.0031 103.133 20.7977 102.945 17.6429 102.474L17.6397 102.477ZM144.881 105.252C132.986 105.666 121.094 106.163 109.195 106.5C107.611 106.545 106.028 106.586 104.444 106.627C103.809 106.643 102.933 106.5 102.383 106.888C101.852 107.264 101.416 107.824 100.907 108.241C99.0575 109.749 96.8163 110.561 94.4644 110.815C92.0303 111.08 89.65 110.523 87.6585 109.059C87.1938 108.718 86.7639 108.324 86.3719 107.897C85.9642 107.461 85.6607 106.802 85.1992 106.443C84.6744 106.035 83.7451 106.22 83.1318 106.223C82.2973 106.226 81.4659 106.233 80.6313 106.236C68.1892 106.3 55.747 106.366 43.3017 106.433C30.8153 106.5 18.3289 106.567 5.84246 106.634C4.7898 106.64 3.73715 106.643 2.68766 106.65C8.16272 95.2691 13.2616 83.7104 18.1929 72.0784C23.0958 60.5133 27.8533 48.8846 32.8258 37.3481C34.7793 32.8131 36.7708 28.2908 38.8066 23.7908C36.009 32.3612 32.9111 40.8361 29.7373 49.2665C25.3371 60.9493 20.7187 72.5494 15.8948 84.0636C13.5714 89.6138 11.1974 95.145 8.73488 100.638C8.70643 100.702 8.69378 100.765 8.68746 100.826C8.64321 101.068 8.74436 101.328 9.04783 101.408C13.9412 103.225 19.233 103.9 24.4203 104.145C29.7121 104.393 35.0449 104.161 40.2986 103.464C46.7094 102.614 53.0632 101.344 59.4898 100.616C65.3726 99.9473 71.4135 99.6418 77.2426 100.889C83.0907 102.14 88.3824 104.966 92.7511 109.065C92.8301 109.141 92.9186 109.18 93.004 109.199C93.0135 109.199 93.0229 109.205 93.0356 109.205C93.0387 109.205 93.0451 109.205 93.0482 109.205C93.1209 109.221 93.1936 109.218 93.2695 109.196C93.2916 109.196 93.3106 109.196 93.3296 109.196C93.3928 109.208 93.4592 109.208 93.5256 109.196C93.7215 109.186 93.9112 109.071 93.9839 108.826C94.0187 108.709 94.0566 108.591 94.0946 108.473C97.4264 105.313 101.45 102.901 105.576 100.953C110.204 98.7698 115.16 97.1245 120.224 96.367C132.284 94.5626 143.734 100.154 155.379 102.236C161.692 103.362 168.406 103.83 174.643 102.025C174.909 101.949 175.092 101.653 175.007 101.379C174.128 98.4706 173.246 95.5619 172.367 92.6531C170.268 85.7185 168.169 78.7839 166.07 71.8461C163.535 63.4635 160.996 55.084 158.461 46.7014C156.267 39.4549 154.074 32.2052 151.88 24.9588C150.957 21.91 150.097 18.8325 149.133 15.7932C149.727 15.9428 150.331 16.0351 150.925 16.0669C154.27 26.9924 157.873 37.8382 161.458 48.6873C165.65 61.3662 169.873 74.0325 173.96 86.7464C175.86 92.6595 177.735 98.582 179.527 104.53C167.973 104.556 156.419 104.845 144.872 105.243L144.881 105.252Z" fill="#4661AF"/>
<path d="M42.17 99.6736C51.96 96.7107 61.8733 89.9003 72.5073 92.6467C73.1585 92.8154 73.4366 91.8002 72.7855 91.6315C61.8954 88.8182 51.9158 95.6255 41.8918 98.6584C41.2501 98.8525 41.522 99.8678 42.17 99.6736Z" fill="#4661AF"/>
<path d="M86.1127 100.517C86.5806 101.007 87.3171 100.262 86.8524 99.7723C84.5859 97.3918 82.1013 95.2468 79.427 93.3437C78.8769 92.9522 78.3553 93.8624 78.8991 94.2507C81.5007 96.1029 83.9094 98.2001 86.1127 100.514V100.517Z" fill="#4661AF"/>
<path d="M64.0639 94.8013C61.6773 94.9668 59.3633 95.5937 57.0873 96.3097C54.6564 97.0735 52.235 97.8628 49.8104 98.6425C49.1719 98.8462 49.4438 99.8646 50.0886 99.6577C52.431 98.9066 54.7702 98.146 57.1189 97.4045C59.3823 96.6885 61.6868 96.0201 64.0671 95.8547C68.9352 95.5141 73.6832 96.9876 78.2795 98.4134C78.9243 98.6139 79.1994 97.5986 78.5576 97.3981C73.8792 95.9469 69.0237 94.4576 64.0671 94.8013H64.0639Z" fill="#4661AF"/>
<path d="M157.462 93.541C149.8 97.1658 141.303 93.5665 133.716 91.6379C129.828 90.6481 125.889 90.1198 121.881 90.5113C118.214 90.8677 114.645 91.8606 111.266 93.3214C107.318 95.0272 103.676 97.3759 100.391 100.154C99.8762 100.59 100.619 101.332 101.131 100.899C106.979 95.9533 114.212 92.3094 121.884 91.5647C125.895 91.1764 129.809 91.7143 133.694 92.7167C137.658 93.7383 141.549 95.1004 145.605 95.7337C149.784 96.3829 154.108 96.2907 157.993 94.4512C158.6 94.1648 158.072 93.2578 157.465 93.5442L157.462 93.541Z" fill="#4661AF"/>
<path d="M167.025 96.6216C163.168 98.3338 158.847 98.8589 154.696 98.1237C154.039 98.006 153.757 99.0212 154.418 99.139C158.872 99.9282 163.418 99.3681 167.553 97.5318C168.166 97.2581 167.635 96.3511 167.025 96.6248V96.6216Z" fill="#4661AF"/>
<path d="M161.626 93.1241C162.751 92.529 163.8 91.832 164.802 91.0459C165.33 90.629 164.587 89.8907 164.063 90.3012C163.133 91.03 162.141 91.6633 161.098 92.2139C160.503 92.529 161.028 93.436 161.626 93.1209V93.1241Z" fill="#4661AF"/>
<path d="M47.2088 22.3746C56.787 18.0433 67.8004 14.6507 78.074 18.6638C80.6408 19.6663 83.0117 21.1493 85 23.0684C85.4837 23.5362 86.2265 22.7947 85.7397 22.3237C82.0823 18.7879 77.2616 16.7798 72.2797 16.0924C66.7572 15.3286 61.1715 16.2038 55.883 17.8618C52.7408 18.8484 49.6872 20.1087 46.6873 21.4644C46.074 21.7413 46.6051 22.6483 47.2152 22.3714L47.2088 22.3746Z" fill="#4661AF"/>
<path d="M46.1467 29.6815C56.3223 26.0822 67.8984 22.4605 78.33 27.2279C80.8431 28.3767 83.1097 29.9807 84.9557 32.0525C85.4046 32.5585 86.1412 31.8106 85.6954 31.3078C82.332 27.5334 77.6093 25.2961 72.7033 24.3923C67.0923 23.358 61.3707 24.0677 55.8893 25.4807C52.4942 26.3559 49.1751 27.4984 45.8685 28.6663C45.2395 28.8891 45.5082 29.9043 46.1467 29.6815Z" fill="#4661AF"/>
<path d="M42.6979 42.2237C53.2371 36.5971 66.1123 32.7113 77.5335 38.1596C80.3279 39.4931 82.8378 41.3421 84.8704 43.694C85.313 44.2063 86.0495 43.4585 85.6101 42.9493C81.8673 38.6243 76.544 35.9924 70.9868 34.9772C64.7752 33.841 58.4055 34.7544 52.4658 36.7625C48.9095 37.9655 45.486 39.544 42.1732 41.3135C41.5789 41.6317 42.1068 42.5387 42.7011 42.2205L42.6979 42.2237Z" fill="#4661AF"/>
<path d="M34.8678 53.1013C38.4494 52.1657 42.0341 51.2269 45.6156 50.2912C49.0202 49.4001 52.4184 48.4581 55.8861 47.8471C59.4929 47.2074 63.1156 47.0737 66.7572 47.4493C69.9088 47.7707 73.1079 48.3149 76.1489 49.2283C79.1709 50.1385 82.1613 51.6024 84.0517 54.2407C84.4405 54.7849 85.3477 54.2598 84.9526 53.7092C81.3837 48.7286 74.7074 47.497 69.049 46.6823C65.3315 46.1476 61.5983 46.0013 57.8681 46.485C54.2613 46.9528 50.7335 47.8662 47.2183 48.7859C43.0077 49.8871 38.8003 50.9882 34.5897 52.0861C33.9385 52.2548 34.2167 53.27 34.8678 53.1013Z" fill="#4661AF"/>
<path d="M26.3202 71.4069C34.6908 69.7425 42.4767 66.0922 50.6861 63.8517C58.219 61.799 66.4885 60.9398 73.7749 64.3418C77.2806 65.9808 80.35 68.5013 82.3067 71.8906C82.645 72.4762 83.5491 71.9479 83.2077 71.3592C79.6799 65.2552 72.8613 61.9009 66.0649 61.1562C57.2169 60.1855 48.5681 63.2152 40.3461 66.1145C35.6486 67.7725 30.9322 69.4211 26.0388 70.3917C25.3813 70.5222 25.6595 71.5374 26.317 71.4069H26.3202Z" fill="#4661AF"/>
<path d="M37.0585 84.7828C31.242 86.5873 25.2612 88.0099 19.1413 87.9876C18.468 87.9876 18.468 89.0378 19.1413 89.041C29.6773 89.076 39.5305 84.9674 49.409 81.8104C58.5035 78.9048 68.2998 76.7025 77.682 79.6081C82.1866 81.0052 86.3877 83.5576 89.2675 87.3702C89.669 87.9017 90.5762 87.3797 90.1684 86.8387C84.9715 79.9646 76.152 77.0622 67.8099 77.164C57.1063 77.2945 47.1235 81.664 37.0553 84.7828H37.0585Z" fill="#4661AF"/>
<path d="M43.3017 90.7913C35.4811 93.7956 27.3444 96.8794 18.8252 96.3288C18.155 96.2843 18.155 97.3377 18.8252 97.3822C27.4361 97.9392 35.6708 94.8458 43.5799 91.8066C44.2026 91.5679 43.9308 90.5495 43.3017 90.7913Z" fill="#4661AF"/>
<path d="M98.3241 23.1225C102.197 20.0323 106.935 18.0687 111.835 17.4609C114.247 17.1617 116.712 17.1713 119.115 17.5404C121.846 17.9605 124.467 18.858 127.119 19.6027C130.188 20.4683 133.318 21.0793 136.479 21.4644C137.146 21.5472 137.139 20.4938 136.479 20.411C133.498 20.0482 130.545 19.4594 127.65 18.6575C124.874 17.8873 122.14 16.9326 119.279 16.5061C114.424 15.7805 109.391 16.3693 104.823 18.1769C102.209 19.2112 99.7846 20.6211 97.5844 22.3778C97.0565 22.7979 97.8025 23.5394 98.3241 23.1225Z" fill="#4661AF"/>
<path d="M107.042 30.0316C103.97 31.0055 101.065 32.4662 98.4537 34.3661C97.9132 34.7576 98.4348 35.671 98.9816 35.2731C103.625 31.8902 109.221 29.933 114.948 29.6815C117.822 29.5542 120.67 29.8757 123.458 30.5822C126.366 31.3205 129.18 32.3803 132.034 33.2936C135.246 34.3184 138.546 35.1427 141.935 35.1077C142.608 35.1013 142.608 34.0479 141.935 34.0543C135.698 34.1179 130.008 31.2155 124.09 29.6593C118.479 28.1826 112.581 28.2717 107.039 30.0284L107.042 30.0316Z" fill="#4661AF"/>
<path d="M120.781 40.0755C115.913 39.0126 110.76 39.299 106.025 40.8456C103.316 41.7304 100.752 43.0193 98.4348 44.6869C97.8911 45.0783 98.4126 45.9885 98.9627 45.5939C103.028 42.6724 107.871 40.9252 112.856 40.5656C115.378 40.3842 117.923 40.537 120.398 41.0652C122.981 41.6158 125.415 42.6278 127.858 43.6112C130.65 44.7346 133.482 45.7721 136.51 45.9631C137.181 46.0044 137.181 44.9542 136.51 44.9097C130.956 44.5564 126.151 41.2466 120.787 40.0723L120.781 40.0755Z" fill="#4661AF"/>
<path d="M97.616 57.2163C100.847 53.3782 105.889 51.752 110.763 51.682C116.807 51.5929 122.605 53.5596 128.405 55.0045C131.576 55.7937 134.794 56.4302 138.069 56.5575C138.742 56.583 138.739 55.5328 138.069 55.5041C126.6 55.0554 115.129 47.6721 103.632 51.8888C101.04 52.8404 98.6719 54.3457 96.8795 56.4748C96.4464 56.9871 97.183 57.735 97.6192 57.2195L97.616 57.2163Z" fill="#4661AF"/>
<path d="M143.594 57.2958C146.307 57.8623 149.079 57.4868 151.545 56.217C152.142 55.9083 151.614 55.0013 151.017 55.31C148.814 56.4461 146.297 56.7898 143.873 56.2838C143.215 56.147 142.937 57.159 143.594 57.299V57.2958Z" fill="#4661AF"/>
<path d="M135.297 68.2467C139.08 69.0201 142.928 69.5643 146.794 69.3479C147.464 69.3097 147.467 68.2595 146.794 68.2945C139.536 68.6986 132.559 66.3977 125.516 65.0292C122.077 64.3609 118.568 63.8963 115.059 64.0713C111.768 64.2368 108.503 64.921 105.418 66.0858C101.918 67.4097 98.6845 69.3288 95.8363 71.7634C95.3242 72.2025 96.0639 72.944 96.576 72.508C101.602 68.2085 108.01 65.5798 114.594 65.1502C121.644 64.6919 128.469 66.8528 135.297 68.2467Z" fill="#4661AF"/>
<path d="M133.248 77.4122C136.71 77.9533 140.168 78.5261 143.62 79.1212C144.277 79.2358 144.559 78.2206 143.898 78.106C137.661 77.0272 131.393 75.8783 125.099 75.1972C122.029 74.8663 118.922 74.7326 115.849 75.1272C113.017 75.49 110.311 76.3429 107.713 77.5236C104.697 78.8921 101.877 80.6488 99.0733 82.3992C98.5043 82.7556 99.0259 83.6658 99.6012 83.3062C104.422 80.2987 109.388 77.2372 115.075 76.2952C121.1 75.2991 127.289 76.4766 133.248 77.4122Z" fill="#4661AF"/>
<path d="M133.849 84.0954C125.276 81.2408 115.672 82.0714 107.615 86.1258C105.342 87.2683 103.214 88.6782 101.258 90.3108C100.739 90.7436 101.482 91.4819 101.997 91.0555C108.712 85.4607 117.639 82.8161 126.297 83.5862C128.772 83.8058 131.212 84.3246 133.571 85.1106C134.209 85.3239 134.484 84.3087 133.849 84.0954Z" fill="#4661AF"/>
<path d="M145.393 83.3284C144.736 83.2139 144.454 84.2259 145.115 84.3437C148.551 84.942 152.025 84.506 155.212 83.077C155.825 82.8033 155.294 81.8963 154.684 82.17C151.779 83.4717 148.526 83.8758 145.393 83.3316V83.3284Z" fill="#4661AF"/>
</svg>
