<svg width="100" height="120" viewBox="0 0 100 120" fill="none" xmlns="http://www.w3.org/2000/svg">
<path d="M6.98027 33.2302C8.8302 33.4117 10.7582 32.9709 12.5589 32.4408C12.6919 31.7925 13.0185 31.1558 13.4752 30.7265C13.8712 30.3549 14.4089 30.1503 14.9407 30.1561C13.6747 22.3166 13.3827 15.9696 13.3365 12.3942C11.1397 12.3654 8.94293 12.3337 6.74614 12.3049C6.7606 12.8811 6.77505 13.4544 6.78661 14.0306C6.92824 20.4295 6.97738 26.8284 6.98027 33.2302Z" fill="#4661AF"/>
<path d="M92.0102 116.744C91.9755 115.183 91.9495 113.618 91.9235 112.057C88.1196 111.362 84.5007 110.513 81.0552 109.527C81.0552 109.686 81.0552 109.844 81.0523 110.003C73.7075 109.988 66.3599 109.971 59.0151 109.956C51.442 109.939 43.8718 109.925 36.2986 109.907C32.1855 109.899 28.0723 109.89 23.9562 109.882C24.0747 104.975 23.4301 100.083 23.5775 95.1765C24.8985 95.1765 26.2166 95.1822 27.5375 95.1851C33.7521 95.1995 39.9638 95.211 46.1784 95.2254C47.9676 95.2283 49.7539 95.2341 51.5432 95.237C28.5579 78.1982 19.3487 53.0895 15.6951 34.3913C15.568 34.495 15.4321 34.5872 15.2847 34.6592C15.039 34.8753 14.7413 35.0251 14.3742 35.0511C13.6198 35.1058 12.9954 34.6333 12.6948 33.9937C10.9345 34.4979 9.11925 34.8839 7.28667 34.7831C7.1855 34.7773 7.08433 34.7687 6.98027 34.7601C6.97449 41.6718 6.91379 48.5864 6.83575 55.4981C6.82708 56.3884 6.81552 57.2815 6.80395 58.1718C8.4949 58.5406 10.2841 58.264 11.8883 57.5379C11.9173 57.3593 11.9606 57.1836 12.0184 57.0165C12.2815 56.253 12.7873 55.4895 13.5909 55.2244C14.458 54.9363 15.3974 55.3253 15.8859 56.0801C16.834 57.5495 15.779 60.0848 13.8394 59.814C13.7787 59.8054 13.7209 59.7938 13.6602 59.7794C13.3336 59.837 12.9896 59.7852 12.6717 59.5864C12.4549 59.451 12.2872 59.2839 12.1629 59.0908C10.7553 59.6786 9.22041 59.9782 7.69712 59.8515C7.38783 59.8255 7.08433 59.7823 6.78372 59.7247C6.71724 65.3889 6.64498 71.0531 6.58428 76.7202C6.56404 78.6851 6.54381 80.6529 6.52936 82.6178C8.25499 83.0586 10.1251 82.7561 11.6311 81.7592C11.6195 81.0591 11.8537 80.3129 12.1629 79.7079C12.3277 79.3852 12.6139 79.2873 12.8856 79.3363C12.8942 79.3305 12.9029 79.3218 12.9145 79.3132C13.5157 78.8724 14.3048 78.9041 14.8974 79.3478C15.4928 79.7943 15.7385 80.5377 15.7154 81.2608C15.6894 82.0185 15.4292 82.7993 14.8309 83.2978C14.2499 83.7818 13.4319 83.9402 12.741 83.5945C12.5214 83.485 12.3422 83.3525 12.1919 83.2027C10.9576 83.946 9.53259 84.358 8.07578 84.3609C7.5497 84.3609 7.02652 84.3032 6.51779 84.1966C6.48311 88.6825 6.46576 93.1655 6.47155 97.6513C6.47444 99.7545 6.48311 101.861 6.50045 103.964C8.53825 104.214 10.6599 103.578 12.5474 102.702C12.6486 101.924 13.1457 101.166 13.8655 100.749C14.3019 100.495 14.7182 100.72 14.906 101.063C14.9696 101.074 15.0361 101.086 15.0997 101.103C15.8483 101.316 16.3397 101.984 16.4264 102.739C16.623 104.416 14.7875 105.672 13.3596 104.618C13.1891 104.491 13.0503 104.353 12.9347 104.203C11.2178 104.978 9.39673 105.537 7.49767 105.551C7.16816 105.551 6.83864 105.537 6.51201 105.502C6.5467 109.438 6.61029 113.373 6.70568 117.306C12.8133 117.39 18.9181 117.473 25.0257 117.557C36.3449 117.712 47.6612 117.865 58.9804 118.021C70.0019 118.17 81.0263 118.323 92.0478 118.473C92.0333 117.897 92.0189 117.323 92.0073 116.747L92.0102 116.744Z" fill="#4661AF"/>
<path d="M91.9582 75.2797C92.0362 68.2066 92.1316 61.1307 92.2068 54.0576C92.279 47.0796 92.331 40.1045 92.3224 33.1265C92.3137 26.5749 92.2472 20.0233 92.0882 13.4717C85.9806 13.3882 79.8759 13.3046 73.7682 13.221C62.449 13.0655 51.1327 12.9128 39.8135 12.7572C30.9859 12.6362 22.1612 12.5152 13.3336 12.3942C13.3798 15.9696 13.6718 22.3138 14.9378 30.1561C15.3252 30.1618 15.7096 30.28 16.0275 30.545C17.1751 31.5102 16.8022 33.4924 15.6923 34.3884C19.3487 53.0867 28.555 78.1925 51.5403 95.2341C57.3242 95.2456 63.1081 95.26 68.892 95.2716C72.8173 95.2802 76.7426 95.2888 80.6708 95.2975C80.6245 97.0031 80.6737 98.7087 80.7517 100.411C80.8875 103.451 81.1072 106.485 81.0552 109.527C84.5007 110.513 88.1196 111.362 91.9235 112.057C91.8426 106.79 91.8108 101.521 91.8165 96.254C91.8223 89.2616 91.883 82.2721 91.9611 75.2797H91.9582Z" fill="#556DC6"/>
<path d="M15.0159 32.6281C15.0679 32.6597 15.0448 32.6194 15.0159 32.5964C15.0159 32.6079 15.0159 32.6165 15.0159 32.6281Z" fill="#702D00"/>
<path d="M66.013 1.7572C60.2609 1.76872 54.5059 1.78889 48.7538 1.80041C43.2648 1.80906 37.7728 1.80906 32.2808 1.7716C30.0841 1.7572 27.8873 1.73415 25.6905 1.70246C30.3847 4.7881 37.7873 7.73546 49.3984 8.86484C66.9322 10.5704 80.6708 5.74751 88.6081 1.8177C86.6483 1.79753 84.6915 1.78313 82.7317 1.7716C77.1588 1.74279 71.583 1.74567 66.0101 1.7572H66.013Z" fill="#F4EFEA"/>
<path d="M98.3549 8.23965C97.0252 10.9767 95.5771 16.5746 95.2042 28.027C94.6117 46.1461 91.2529 81.1571 98.0196 96.4643C97.9791 92.572 97.9618 88.6767 97.9646 84.7844C97.9704 77.792 98.0311 70.8025 98.1092 63.8101C98.1872 56.737 98.2826 49.6639 98.3577 42.588C98.43 35.61 98.482 28.6349 98.4734 21.6569C98.4676 17.1854 98.43 12.7111 98.3606 8.23965H98.3549Z" fill="#F4EFEA"/>
<path d="M80.6737 95.2975C76.7484 95.2888 72.8231 95.2802 68.8949 95.2716C63.111 95.26 57.3271 95.2456 51.5432 95.2341C49.7539 95.2312 47.9676 95.2254 46.1784 95.2226C39.9638 95.2082 33.7521 95.1966 27.5375 95.1822C33.8966 99.2619 46.1466 105.28 61.2177 103.586C62.397 103.454 63.5098 103.321 64.5764 103.189C72.7826 102.175 77.7542 101.195 80.7517 100.409C80.6765 98.7058 80.6245 97.0002 80.6708 95.2946L80.6737 95.2975Z" fill="#F4EFEA"/>
<path d="M88.6081 1.8177C80.6708 5.74751 66.9322 10.5704 49.3984 8.86484C37.7873 7.73546 30.3847 4.7881 25.6905 1.70246C23.2625 1.66788 20.8345 1.62179 18.4064 1.55264C16.3744 5.62074 12.9867 8.81298 8.94293 10.8125C10.4055 10.8326 11.8681 10.8528 13.3307 10.873C17.23 10.9277 21.1293 10.9796 25.0315 11.0343C36.3507 11.1899 47.667 11.3455 58.9862 11.4982C69.4614 11.6422 79.9337 11.7834 90.4089 11.9274C90.5303 8.21084 92.0651 4.58355 94.6463 1.9099C92.6346 1.86956 90.6228 1.84075 88.6139 1.8177H88.6081Z" fill="#D8CCC3"/>
<path d="M98.0167 96.4643C91.25 81.1571 94.6088 46.1461 95.2013 28.027C95.5771 16.5746 97.0223 10.9796 98.352 8.23965C98.3202 6.15662 98.2797 4.07359 98.2306 1.99345C97.9386 1.9848 97.6467 1.97616 97.3547 1.9704C97.1784 1.96464 97.0021 1.96176 96.8258 1.95887C93.8746 4.44237 92.0651 8.09559 91.9351 11.9476C92.2357 11.9505 92.5334 11.9562 92.834 11.9591C93.0913 11.962 93.2791 12.0686 93.4034 12.2242C93.5191 12.3452 93.5942 12.5123 93.6 12.7226C93.6202 13.5553 93.6404 14.3879 93.6607 15.2205C93.811 22.0487 93.8601 28.8798 93.8543 35.7108C93.8486 42.7032 93.7879 49.6927 93.7098 56.6851C93.6318 63.7582 93.5364 70.8313 93.4612 77.9072C93.389 84.8852 93.3369 91.8603 93.3456 98.8383C93.3514 102.656 93.3774 106.476 93.4266 110.294C94.5856 108.597 96.2448 107.257 98.1814 106.493C98.1728 106.087 98.1612 105.681 98.1525 105.275C98.0889 102.339 98.0456 99.4001 98.0138 96.4643H98.0167Z" fill="#D8CCC3"/>
<path d="M64.5764 103.192C63.5098 103.324 62.397 103.457 61.2177 103.589C46.1466 105.283 33.8966 99.2647 27.5375 95.1851C26.2166 95.1851 24.8985 95.1794 23.5775 95.1765C23.4301 100.083 24.0747 104.975 23.9562 109.882C28.0694 109.89 32.1826 109.899 36.2986 109.907C43.8718 109.925 51.442 109.939 59.0151 109.956C66.3599 109.971 73.7075 109.988 81.0523 110.003C81.0552 109.844 81.0523 109.686 81.0552 109.527C81.1072 106.485 80.8875 103.448 80.7517 100.411C77.7542 101.198 72.7826 102.178 64.5764 103.192Z" fill="#D8CCC3"/>
<path d="M99.855 45.2126C99.9331 38.2231 99.9938 31.2307 99.9995 24.2383C100.005 17.4073 99.9562 10.5762 99.8059 3.74803C99.7886 2.9154 99.7683 2.08276 99.7452 1.25013C99.7394 1.011 99.644 0.829488 99.5024 0.708483C99.381 0.581715 99.2076 0.495282 98.9792 0.48952C94.1983 0.351228 89.4174 0.290725 84.6336 0.259033C79.1446 0.221579 73.6526 0.221579 68.1607 0.230222C62.4086 0.238865 56.6536 0.261914 50.9015 0.273438C45.3286 0.284963 39.7528 0.290725 34.1799 0.259033C29.3036 0.233103 24.4302 0.184125 19.5569 0.0602378C19.0395 0.0458324 18.5192 0.0314269 18.0018 0.0170215C17.7243 -0.0434813 17.4323 0.0515945 17.2734 0.394444C15.0245 5.16264 10.8622 8.73519 5.88188 10.4494C5.58127 10.5532 5.4194 10.7808 5.37315 11.0285C5.26042 11.1495 5.18816 11.3195 5.19394 11.5356C5.27777 14.8345 5.33847 18.1362 5.37894 21.435C2.30633 22.8698 -0.28356 25.8114 0.259854 29.4012C0.664525 32.0835 2.94802 33.8179 5.44831 34.4835C5.44831 38.5429 5.42229 42.6053 5.3905 46.6647C2.21962 47.2121 0.103767 50.2834 0.52289 53.4814C0.881313 56.2242 2.80928 58.3072 5.26042 59.2752C5.22285 62.4877 5.18238 65.7001 5.1448 68.9125C5.10723 68.9298 5.07254 68.9471 5.04075 68.973C3.52612 70.1369 1.96525 71.3499 1.12122 73.1102C0.335007 74.7496 0.109548 76.6223 0.52289 78.3941C1.07209 80.7653 2.80928 82.7158 4.9945 83.6867C4.98005 85.6228 4.96559 87.556 4.95692 89.4921C4.90778 89.5238 4.85864 89.5641 4.8124 89.6131C2.21383 92.3588 -0.45699 95.6634 0.0661907 99.694C0.427504 102.477 2.4682 104.41 4.98005 105.174C5.00895 108.631 5.06098 112.088 5.13613 115.549C5.15348 116.381 5.17371 117.214 5.19683 118.047C5.20261 118.26 5.27777 118.424 5.39339 118.545C5.51768 118.701 5.70556 118.804 5.96282 118.81C17.2473 118.966 28.5319 119.118 39.8164 119.274C51.1356 119.429 62.4519 119.585 73.7711 119.738C80.1273 119.824 86.4836 119.911 92.8398 120C93.0623 120.003 93.2329 119.928 93.3543 119.81C93.5104 119.689 93.6115 119.496 93.6058 119.236C93.5595 117.421 93.5219 115.609 93.4873 113.794C94.1463 111.288 95.9413 109.161 98.2942 108.09C98.6063 108.729 99.7712 108.625 99.751 107.764C99.5775 100.962 99.5082 94.1595 99.4995 87.3572C99.4908 80.3792 99.54 73.4041 99.6151 66.4261C99.6903 59.353 99.7857 52.28 99.8637 45.204L99.855 45.2126ZM18.4064 1.54976C23.0312 1.67941 27.656 1.73703 32.2808 1.76872C37.7699 1.80618 43.2619 1.80618 48.7538 1.79753C54.5059 1.78889 60.2609 1.76584 66.013 1.75432C71.5859 1.74279 77.1617 1.73703 82.7346 1.76872C86.7032 1.78889 90.6748 1.82634 94.6434 1.90702C92.0622 4.58066 90.5274 8.20507 90.406 11.9246C79.9308 11.7805 69.4585 11.6393 58.9833 11.4953C47.6641 11.3397 36.3478 11.187 25.0286 11.0314C19.6667 10.9594 14.3048 10.8845 8.94293 10.8125C12.9867 8.81298 16.3773 5.62074 18.4064 1.55264V1.54976ZM4.34414 32.4523C3.26598 31.8761 2.30633 30.9772 1.92189 29.7902C1.47965 28.4274 1.78315 26.9379 2.52023 25.7336C3.21106 24.6042 4.24875 23.7658 5.39917 23.132C5.42807 26.0678 5.44542 29.0036 5.44831 31.9395C5.44831 32.265 5.44831 32.5935 5.44831 32.919C5.07254 32.798 4.70545 32.6453 4.34414 32.4523ZM4.67943 57.3075C2.3757 55.8727 1.15013 52.7092 2.6214 50.2603C3.22551 49.2548 4.23141 48.4798 5.37894 48.2119C5.36448 49.7648 5.35003 51.3177 5.33558 52.8706C5.31823 54.4609 5.30089 56.0484 5.28355 57.6388C5.08121 57.5408 4.87888 57.4313 4.68232 57.3075H4.67943ZM4.64186 81.7794C2.17626 80.1516 1.24552 77.0314 2.26875 74.2943C2.80928 72.8452 3.93657 71.782 5.12168 70.8342C5.11012 71.9203 5.09567 73.0065 5.0841 74.0927C5.0552 76.7289 5.02918 79.3651 5.00606 82.0013C4.88177 81.9321 4.76037 81.8601 4.64186 81.7794ZM4.10422 103.189C2.79772 102.463 1.91611 101.29 1.62417 99.8237C1.31489 98.2765 1.708 96.6199 2.41328 95.2341C3.0752 93.9347 3.97993 92.7967 4.95114 91.7192C4.94825 92.8341 4.94247 93.9491 4.94247 95.067C4.94247 97.9077 4.94825 100.748 4.96848 103.589C4.67654 103.48 4.39038 103.347 4.10711 103.189H4.10422ZM58.9804 118.018C47.6612 117.862 36.3449 117.709 25.0257 117.554C18.9181 117.47 12.8133 117.387 6.70568 117.303C6.61029 113.368 6.5467 109.435 6.51201 105.499C6.83864 105.534 7.16527 105.551 7.49767 105.548C9.39384 105.534 11.2178 104.975 12.9347 104.2C13.0503 104.35 13.192 104.488 13.3596 104.615C14.7875 105.669 16.623 104.413 16.4264 102.736C16.3397 101.984 15.8454 101.313 15.0997 101.1C15.0361 101.083 14.9696 101.068 14.906 101.06C14.7182 100.717 14.3048 100.495 13.8655 100.746C13.1428 101.16 12.6486 101.921 12.5474 102.699C10.6628 103.575 8.53825 104.209 6.50045 103.961C6.486 101.858 6.47444 99.7516 6.47155 97.6484C6.46576 93.1626 6.48311 88.6767 6.51779 84.1938C7.02652 84.3032 7.54681 84.3609 8.07578 84.3609C9.53259 84.3609 10.9576 83.946 12.1919 83.2027C12.3393 83.3525 12.5214 83.485 12.741 83.5945C13.4319 83.9402 14.2499 83.7818 14.8309 83.2978C15.4292 82.7993 15.6923 82.0185 15.7154 81.2608C15.7385 80.5377 15.4928 79.7943 14.8974 79.3478C14.3077 78.9041 13.5186 78.8724 12.9145 79.3132C12.9058 79.319 12.8971 79.3276 12.8856 79.3363C12.6139 79.2873 12.3306 79.3852 12.1629 79.7079C11.8537 80.3129 11.6166 81.0591 11.6311 81.7592C10.1223 82.7561 8.25499 83.0615 6.52936 82.6207C6.5467 80.6558 6.56404 78.688 6.58428 76.7231C6.64209 71.0589 6.71724 65.3947 6.78372 59.7304C7.08433 59.7881 7.39073 59.8313 7.69712 59.8572C9.22041 59.984 10.7553 59.6844 12.1629 59.0966C12.2901 59.2868 12.4578 59.4567 12.6717 59.5922C12.9896 59.791 13.3336 59.8428 13.6602 59.7852C13.718 59.7996 13.7787 59.8111 13.8394 59.8198C15.7761 60.0906 16.834 57.5552 15.8859 56.0859C15.3974 55.3281 14.458 54.9421 13.5909 55.2302C12.7873 55.4953 12.2843 56.2616 12.0184 57.0222C11.9606 57.1893 11.9144 57.3651 11.8883 57.5437C10.2812 58.2697 8.4949 58.5463 6.80395 58.1775C6.81552 57.2873 6.82419 56.3941 6.83575 55.5039C6.91379 48.5922 6.97449 41.6804 6.98027 34.7658C7.08144 34.7745 7.1855 34.7831 7.28667 34.7889C9.11925 34.8926 10.9345 34.5036 12.6948 33.9995C12.9954 34.6391 13.6198 35.1116 14.3742 35.0568C14.7413 35.0309 15.039 34.8839 15.2847 34.665C16.6981 33.9793 17.3109 31.6283 16.0304 30.5537C15.2789 29.9227 14.1632 30.0898 13.4781 30.7323C13.0214 31.1616 12.6948 31.7954 12.5618 32.4465C10.7611 32.9767 8.83309 33.4175 6.98316 33.236C6.98316 26.8371 6.92824 20.4353 6.7895 14.0364C6.77794 13.4602 6.76349 12.8868 6.74903 12.3106C17.7705 12.4604 28.7949 12.6131 39.8164 12.763C51.1356 12.9185 62.4519 13.0712 73.7711 13.2268C79.8788 13.3104 85.9835 13.3939 92.0911 13.4775C92.2501 20.0291 92.3166 26.5807 92.3253 33.1322C92.3339 40.1102 92.2848 47.0854 92.2096 54.0634C92.1345 61.1364 92.0391 68.2124 91.9611 75.2854C91.883 82.275 91.8223 89.2674 91.8165 96.2598C91.8108 103.091 91.8599 109.922 92.0102 116.75C92.0218 117.326 92.0362 117.9 92.0507 118.476C81.0292 118.326 70.0048 118.173 58.9833 118.024L58.9804 118.018ZM15.0188 32.5964C15.0477 32.6194 15.0708 32.6597 15.0188 32.6281C15.0188 32.6165 15.0188 32.6079 15.0188 32.5964ZM93.4294 110.291C93.3774 106.473 93.3543 102.653 93.3485 98.8355C93.3398 91.8575 93.389 84.8823 93.4641 77.9044C93.5393 70.8313 93.6347 63.7553 93.7127 56.6823C93.7907 49.6927 93.8514 42.7003 93.8572 35.7079C93.863 28.8769 93.8139 22.0458 93.6636 15.2176C93.6462 14.385 93.626 13.5524 93.6029 12.7197C93.5971 12.5065 93.5219 12.3423 93.4063 12.2213C93.282 12.0657 93.0941 11.962 92.8369 11.9562C92.5363 11.9534 92.2386 11.9476 91.9379 11.9447C92.068 8.09271 93.8775 4.43949 96.8287 1.95599C97.005 1.95887 97.1813 1.96464 97.3576 1.96752C97.6496 1.97616 97.9415 1.9848 98.2335 1.99057C98.3924 8.54504 98.4589 15.0995 98.4676 21.654C98.4763 28.632 98.4271 35.6071 98.352 42.5851C98.2768 49.6582 98.1814 56.7341 98.1034 63.8072C98.0253 70.7967 97.9646 77.7891 97.9589 84.7815C97.9531 91.6126 98.0022 98.4436 98.1525 105.272C98.1612 105.678 98.1728 106.084 98.1814 106.491C96.2448 107.254 94.5856 108.594 93.4266 110.291H93.4294Z" fill="#702D00"/>
<path d="M28.5492 21.7203L66.2847 21.3803C69.8198 21.3486 73.3549 21.3169 76.8929 21.2852C77.3843 21.2795 77.3871 20.5188 76.8929 20.5217C64.3134 20.6341 51.7339 20.7493 39.1574 20.8617C35.6223 20.8934 32.0872 20.9251 28.5492 20.9568C28.0578 20.9625 28.0549 21.7231 28.5492 21.7203Z" fill="#702D00"/>
<path d="M74.8984 45.8177C62.9751 46.0309 51.0547 46.2441 39.1313 46.4544C35.7697 46.5149 32.4051 46.5754 29.0435 46.633C28.5521 46.6417 28.5492 47.4052 29.0435 47.3965C40.9668 47.1833 52.8872 46.9701 64.8106 46.7598C68.1722 46.6993 71.5368 46.6388 74.8984 46.5812C75.3898 46.5725 75.3927 45.809 74.8984 45.8177Z" fill="#702D00"/>
<path d="M39.1313 60.2663C35.9344 60.347 32.7404 60.4248 29.5435 60.5055C29.0522 60.517 29.0493 61.2805 29.5435 61.2689C40.9668 60.9866 52.3901 60.7014 63.8133 60.419C67.0102 60.3384 70.2042 60.2606 73.4011 60.1799C73.8925 60.1684 73.8954 59.4049 73.4011 59.4164C61.9779 59.6988 50.5546 59.984 39.1313 60.2663Z" fill="#702D00"/>
<path d="M27.8006 74.0034C39.2238 74.1157 50.6471 74.231 62.0704 74.3433C65.2673 74.375 68.4613 74.4067 71.6582 74.4384C72.1496 74.4442 72.1525 73.6807 71.6582 73.6749C60.2349 73.5626 48.8116 73.4473 37.3884 73.3349C34.1915 73.3033 30.9975 73.2716 27.8006 73.2399C27.3092 73.2341 27.3063 73.9976 27.8006 74.0034Z" fill="#702D00"/>
<path d="M71.5888 86.3373C60.5297 86.6052 49.4707 86.8703 38.4116 87.1382C35.2899 87.2131 32.171 87.2881 29.0493 87.363C28.5579 87.3745 28.555 88.138 29.0493 88.1265C40.1083 87.8585 51.1674 87.5934 62.2265 87.3255C65.01 87.2592 67.7965 87.1901 70.58 87.1238C70.6407 87.337 70.8835 87.5157 71.1408 87.3802C71.3547 87.2679 71.5686 87.1584 71.7825 87.0461C72.1207 86.8703 71.9617 86.3258 71.5888 86.3344V86.3373Z" fill="#702D00"/>
<path d="M82.2085 95.0526C82.2345 94.2949 81.3269 94.122 80.8962 94.534C73.6006 94.5196 66.3079 94.5023 59.0122 94.4879C51.4391 94.4706 43.8689 94.4562 36.2958 94.4389C32.0525 94.4303 27.8063 94.4216 23.5631 94.413C23.3636 94.413 23.248 94.5369 23.2076 94.6838C23.0168 94.6838 22.8202 94.8048 22.8116 95.0526C22.6468 100.129 23.3434 105.185 23.1787 110.262C23.1729 110.406 23.2394 110.51 23.3319 110.567C23.3897 110.613 23.4677 110.642 23.5631 110.642C31.1015 110.659 38.64 110.674 46.1755 110.691C53.7486 110.708 61.3188 110.723 68.892 110.74C72.9994 110.749 77.1068 110.757 81.2171 110.766C81.6131 111.195 82.5496 111.028 82.5756 110.262C82.7404 105.185 82.0437 100.129 82.2085 95.0526ZM59.0122 109.956C51.4391 109.939 43.8689 109.925 36.2958 109.907C32.1826 109.899 28.0694 109.89 23.9533 109.882C24.0718 104.975 23.4272 100.083 23.5747 95.1765C31.1073 95.1938 38.6428 95.2082 46.1755 95.2255C53.7486 95.2427 61.3188 95.2572 68.892 95.2744C72.8173 95.2831 76.7426 95.2917 80.6708 95.3004C80.5378 100.207 81.1824 105.099 81.0494 110.005C73.7046 109.991 66.357 109.974 59.0122 109.959V109.956Z" fill="#702D00"/>
</svg>
