<svg width="54" height="65" viewBox="0 0 54 65" fill="none" xmlns="http://www.w3.org/2000/svg">
<path fill-rule="evenodd" clip-rule="evenodd" d="M20.3146 0.0273454H32.7679C36.912 0.027284 40.2522 0.0272344 42.8793 0.374394C45.6068 0.734825 47.9033 1.5059 49.7272 3.29863C51.5511 5.09135 52.3356 7.34858 52.7023 10.0294C53.0555 12.6116 53.0555 15.8947 53.0554 19.9679V44.1216C53.0555 48.1948 53.0555 51.4779 52.7023 54.06C52.3356 56.7409 51.5511 58.9981 49.7272 60.7908C47.9033 62.5836 45.6068 63.3546 42.8793 63.7151C40.2522 64.0622 36.912 64.0622 32.7679 64.0621H20.3147C16.1706 64.0622 12.8304 64.0622 10.2033 63.7151C7.4758 63.3546 5.1793 62.5836 3.35538 60.7908C1.53146 58.9981 0.746964 56.7409 0.380262 54.06C0.263004 53.2028 0.18468 52.2683 0.132365 51.2533C0.0139442 50.8859 -0.00911662 50.4844 0.08402 50.0841C0.0271095 48.321 0.02714 46.3383 0.027174 44.1216V19.9678C0.0271115 15.8947 0.0270611 12.6116 0.380262 10.0294C0.746964 7.34858 1.53146 5.09135 3.35538 3.29863C5.1793 1.5059 7.4758 0.734825 10.2033 0.374394C12.8304 0.0272344 16.1706 0.027284 20.3146 0.0273454ZM4.65353 50.6568C4.69959 51.7105 4.7718 52.6372 4.88501 53.4648C5.18395 55.6502 5.73073 56.8075 6.56937 57.6318C7.40802 58.4561 8.58546 58.9935 10.8089 59.2874C13.0978 59.5898 16.1313 59.5946 20.4809 59.5946H32.6017C36.9512 59.5946 39.9848 59.5898 42.2736 59.2874C44.4971 58.9935 45.6746 58.4561 46.5132 57.6318C47.3519 56.8075 47.8986 55.6502 48.1976 53.4648C48.4486 51.6293 48.4981 49.3067 48.5078 46.192H31.8441V54.4746C31.8441 54.5002 31.8442 54.527 31.8442 54.5547C31.8447 54.886 31.8454 55.3583 31.7809 55.7637C31.7021 56.2593 31.4428 57.2162 30.4347 57.7979C29.4639 58.3582 28.5144 58.1501 28.0631 58.0122C27.6696 57.892 27.2382 57.69 26.9165 57.5394C26.8911 57.5275 26.8663 57.5158 26.8422 57.5046L23.5111 55.9494L20.18 57.5046C20.156 57.5158 20.1312 57.5274 20.1057 57.5394C19.784 57.69 19.3526 57.892 18.9591 58.0122C18.5078 58.1501 17.5583 58.3582 16.5875 57.7979C15.5794 57.2162 15.3201 56.2593 15.2413 55.7637C15.1768 55.3583 15.1775 54.886 15.178 54.5547C15.1781 54.527 15.1781 54.5002 15.1781 54.4746V46.192H14.1108C11.1465 46.192 10.1102 46.2111 9.31601 46.4203C7.13634 46.9943 5.39871 48.5868 4.65353 50.6568ZM19.7234 46.192V52.7719L21.9939 51.7118C21.9995 51.7092 22.0085 51.7047 22.0206 51.6985C22.1692 51.6239 22.7949 51.3094 23.5111 51.3094C24.2273 51.3094 24.853 51.6239 25.0016 51.6985C25.0138 51.7047 25.0227 51.7092 25.0283 51.7118L27.2988 52.7719V46.192H19.7234ZM14.1108 41.7244C13.9921 41.7244 13.8752 41.7244 13.7599 41.7243C11.2813 41.7235 9.59003 41.723 8.1396 42.105C6.84275 42.4465 5.63979 43.0044 4.57245 43.7375V20.1313C4.57245 15.8561 4.57728 12.8744 4.88501 10.6247C5.18395 8.43927 5.73073 7.28196 6.56937 6.45766C7.40802 5.63336 8.58546 5.09592 10.8089 4.8021C13.0978 4.49963 16.1313 4.49489 20.4809 4.49489H32.6017C36.9512 4.49489 39.9848 4.49963 42.2736 4.8021C44.4971 5.09592 45.6746 5.63336 46.5132 6.45766C47.3519 7.28196 47.8986 8.43927 48.1976 10.6247C48.5053 12.8744 48.5101 15.8561 48.5101 20.1313V41.7244H14.1108ZM12.1479 17.1529C12.1479 15.9192 13.1654 14.9192 14.4206 14.9192H38.662C39.9172 14.9192 40.9347 15.9192 40.9347 17.1529C40.9347 18.3866 39.9172 19.3867 38.662 19.3867H14.4206C13.1654 19.3867 12.1479 18.3866 12.1479 17.1529ZM12.1479 27.5772C12.1479 26.3435 13.1654 25.3434 14.4206 25.3434H29.5715C30.8266 25.3434 31.8441 26.3435 31.8441 27.5772C31.8441 28.8109 30.8266 29.811 29.5715 29.811H14.4206C13.1654 29.811 12.1479 28.8109 12.1479 27.5772Z" fill="white"/>
</svg>
