<svg width="31" height="31" viewBox="0 0 31 31" fill="none" xmlns="http://www.w3.org/2000/svg">
<path fill-rule="evenodd" clip-rule="evenodd" d="M15.5 0C9.65458 0 6.73188 0 4.91594 1.81595C3.26814 3.46375 3.11557 6.02286 3.10144 10.85H1.55C0.693959 10.85 0 11.544 0 12.4001V13.9501C0 14.4379 0.229701 14.8973 0.62 15.1901L3.1 17.0501C3.11413 21.8773 3.26814 24.4364 4.91594 26.0842C5.29132 26.4596 5.71399 26.7573 6.2 26.9936V29.45C6.2 30.306 6.89396 31 7.75 31H10.075C10.931 31 11.625 30.306 11.625 29.45V27.8715C12.7519 27.9001 14.0341 27.9001 15.5 27.9001C16.9659 27.9001 18.2481 27.9001 19.375 27.8715V29.45C19.375 30.306 20.069 31 20.925 31H23.25C24.106 31 24.8 30.306 24.8 29.45V26.9936C25.286 26.7573 25.7087 26.4596 26.0841 26.0842C27.7319 24.4364 27.8859 21.8773 27.9 17.0501L30.38 15.1901C30.7703 14.8973 31 14.4379 31 13.9501V12.4001C31 11.544 30.306 10.85 29.45 10.85H27.8986C27.8844 6.02286 27.7319 3.46375 26.0841 1.81595C24.2681 0 21.3454 0 15.5 0ZM5.425 11.6251C5.425 13.8171 5.425 14.9131 6.10598 15.5941C6.78695 16.2751 7.88297 16.2751 10.075 16.2751H15.5H20.925C23.117 16.2751 24.213 16.2751 24.894 15.5941C25.575 14.9131 25.575 13.8171 25.575 11.6251V7.75004C25.575 5.55799 25.575 4.46197 24.894 3.78099C24.213 3.10001 23.117 3.10001 20.925 3.10001H15.5H10.075C7.88297 3.10001 6.78695 3.10001 6.10598 3.78099C5.425 4.46197 5.425 5.55799 5.425 7.75004V11.6251ZM6.5875 21.7001C6.5875 21.0581 7.10797 20.5376 7.75 20.5376H10.075C10.717 20.5376 11.2375 21.0581 11.2375 21.7001C11.2375 22.3421 10.717 22.8626 10.075 22.8626H7.75C7.10797 22.8626 6.5875 22.3421 6.5875 21.7001ZM24.4125 21.7001C24.4125 21.0581 23.892 20.5376 23.25 20.5376H20.925C20.283 20.5376 19.7625 21.0581 19.7625 21.7001C19.7625 22.3421 20.283 22.8626 20.925 22.8626H23.25C23.892 22.8626 24.4125 22.3421 24.4125 21.7001Z" fill="white"/>
</svg>
