<svg width="14" height="14" viewBox="0 0 14 14" fill="none" xmlns="http://www.w3.org/2000/svg">
<path d="M5.28289 1.15165L5.85078 2.16921C6.36327 3.08751 6.15754 4.29216 5.35037 5.09932C5.35037 5.09933 5.35037 5.09932 5.35037 5.09933C5.35026 5.09944 4.37141 6.07851 6.14645 7.85355C7.92083 9.62793 8.89986 8.65044 8.90067 8.64963C8.9007 8.64961 8.90069 8.64962 8.90071 8.64959C9.70788 7.84246 10.9125 7.63674 11.8308 8.14922L12.8484 8.71711C14.235 9.49097 14.3988 11.4356 13.1799 12.6544C12.4475 13.3868 11.5504 13.9567 10.5585 13.9943C8.88893 14.0576 6.05349 13.635 3.20924 10.7908C0.364987 7.94651 -0.0575622 5.11107 0.00573269 3.44145C0.0433317 2.44965 0.613203 1.55246 1.34558 0.820078C2.56441 -0.398753 4.50903 -0.234992 5.28289 1.15165Z" fill="white"/>
</svg>
