<svg width="54" height="71" viewBox="0 0 54 71" fill="none" xmlns="http://www.w3.org/2000/svg">
<g id="Vector">
<path d="M39.5067 14.4171C39.5067 22.1399 33.2067 28.4006 25.4353 28.4006C17.6639 28.4006 11.3639 22.1399 11.3639 14.4171C11.3639 6.69421 17.6639 0.433594 25.4353 0.433594C33.2067 0.433594 39.5067 6.69421 39.5067 14.4171Z" fill="white"/>
<path fill-rule="evenodd" clip-rule="evenodd" d="M41.2657 70.351C35.4615 70.351 32.5594 70.351 30.7563 68.5592C28.9532 66.7673 28.9532 63.8834 28.9532 58.1155C28.9532 52.3476 28.9532 49.4636 30.7563 47.6718C32.5594 45.8799 35.4615 45.8799 41.2657 45.8799C47.0698 45.8799 49.9719 45.8799 51.775 47.6718C53.5782 49.4636 53.5782 52.3476 53.5782 58.1155C53.5782 63.8834 53.5782 66.7673 51.775 68.5592C49.9719 70.351 47.0698 70.351 41.2657 70.351ZM48.1889 55.4789C48.9903 54.6825 48.9903 53.3913 48.1889 52.595C47.3875 51.7986 46.0882 51.7986 45.2868 52.595L38.5295 59.31L37.2445 58.033C36.4431 57.2366 35.1438 57.2366 34.3424 58.033C33.541 58.8294 33.541 60.1206 34.3424 60.9169L37.0785 63.6359C37.8799 64.4323 39.1792 64.4323 39.9806 63.6359L48.1889 55.4789Z" fill="white"/>
<path d="M37.4479 40.662C33.8944 39.5322 29.7973 38.8882 25.4353 38.8882C11.8353 38.8882 0.810303 45.1488 0.810303 52.8717C0.810303 60.3548 11.1614 66.465 24.1764 66.8372C24.0809 66.3957 24.0071 65.9574 23.9489 65.527C23.6756 63.5073 23.676 61.0398 23.6764 58.416V57.8149C23.676 55.191 23.6756 52.7235 23.9489 50.7038C24.2529 48.4564 24.9797 45.9964 27.0251 43.9638C29.0705 41.9312 31.546 41.209 33.8075 40.9068C34.9049 40.7602 36.1338 40.6928 37.4479 40.662Z" fill="white"/>
</g>
</svg>
