<svg width="103" height="35" viewBox="0 0 103 35" fill="none" xmlns="http://www.w3.org/2000/svg">
<g clip-path="url(#clip0_148_2173)">
<path d="M24.7368 11.3055C23.5238 11.3055 22.3108 11.2964 21.0979 11.3121C20.805 11.3154 20.639 11.2264 20.4812 10.9677C19.2886 9.01434 17.5407 8.00429 15.2718 7.82387C11.0457 7.48773 8.37437 10.625 8.07828 14.0407C7.82391 16.9794 9.36159 19.8917 11.8979 20.9388C15.3561 22.3657 18.4576 21.4826 20.5392 18.2011C20.7347 17.893 20.9302 17.7818 21.2843 17.7843C23.6285 17.7991 25.9726 17.7909 28.3168 17.7925C28.8198 17.7925 28.8313 17.8082 28.7331 18.3066C28.3789 20.1117 27.4735 21.6539 26.4405 23.1303C24.0914 26.4858 20.931 28.5809 16.8684 29.1024C12.7797 29.6272 9.00007 28.6666 5.79466 26.0319C1.86539 22.804 0.0160851 18.543 0.443037 13.4393C0.901888 7.95074 4.61523 1.9712 12.0288 0.344909C18.366 -1.04493 26.4274 2.42432 28.7102 10.793C28.8476 11.2981 28.8403 11.3047 28.3348 11.3055C27.1357 11.3071 25.9358 11.3055 24.7368 11.3055Z" fill="#233F8B"/>
<path d="M66.2782 17.5085C66.2054 14.6184 65.035 12.1353 62.9493 10.135C60.7336 8.00944 58.1318 6.82061 55.0098 7.02822C53.8933 7.10237 52.8431 7.39896 51.9124 8.06711C51.4134 8.42548 50.9423 8.81764 50.3657 9.29053C50.3657 8.68417 50.3469 8.19398 50.3722 7.70626C50.3894 7.36683 50.279 7.26138 49.9371 7.26302C47.7156 7.27703 45.495 7.27703 43.2743 7.26385C42.9357 7.26138 42.8359 7.36106 42.8359 7.70296C42.8449 16.4696 42.8449 25.2371 42.8359 34.0045C42.8351 34.3769 42.9537 34.461 43.3022 34.4593C45.4958 34.4445 47.6895 34.4412 49.8831 34.461C50.2921 34.4651 50.3779 34.3283 50.3747 33.9444C50.3583 31.6945 50.3657 29.4445 50.3689 27.1946C50.3698 27.0372 50.324 26.87 50.4393 26.6871C50.7149 26.9194 50.9758 27.1525 51.2498 27.3676C52.3107 28.2005 53.4713 28.8414 54.8364 28.9189C56.9941 29.04 59.0413 28.6009 60.8939 27.4376C64.5385 25.1497 66.3886 21.8263 66.279 17.5085H66.2782ZM54.5714 22.2316C52.7573 22.249 50.3559 20.8179 50.3739 17.9344C50.3878 15.6606 52.2403 13.7838 54.479 13.788C56.7773 13.7929 58.7297 15.6952 58.7182 17.9196C58.6773 20.2387 56.9793 22.2094 54.5714 22.2316Z" fill="#233F8B"/>
<path d="M102.997 7.72525C102.998 7.37346 102.902 7.25153 102.536 7.254C100.26 7.26883 97.9842 7.27048 95.7088 7.25318C95.3325 7.24988 95.245 7.3817 95.263 7.72772C95.2884 8.22368 95.2696 8.72211 95.2696 9.32517C94.6684 8.74847 94.1253 8.297 93.4971 7.96004C91.4082 6.84043 89.2211 6.92446 87.0634 7.59508C84.8878 8.27229 83.0532 9.51878 81.6627 11.3947C79.9443 13.7122 79.1542 16.3263 79.4584 19.1636C79.9189 23.446 82.8479 27.8537 88.4056 28.8135C90.1592 29.1166 91.8809 29.0812 93.4751 28.1214C94.0836 27.7556 94.6422 27.3256 95.2696 26.786C95.2696 27.3668 95.2916 27.8323 95.2622 28.2944C95.2385 28.6619 95.3669 28.7599 95.7235 28.7574C97.985 28.7426 100.247 28.7418 102.509 28.7583C102.888 28.7607 102.998 28.6405 102.998 28.2673C102.989 21.4202 102.989 14.5723 102.997 7.72525ZM90.9338 22.2951C88.7254 22.2597 86.7673 20.2561 86.8041 18.0696C86.845 15.6507 88.772 13.8135 91.2217 13.858C93.4767 13.8992 95.2859 15.8172 95.2565 18.1347C95.227 20.5041 93.3254 22.3338 90.9338 22.2951Z" fill="#233F8B"/>
<path d="M69.1167 14.4497C69.1167 9.88055 69.1167 5.31145 69.1167 0.742349C69.1167 0.371614 69.303 0.185697 69.6754 0.184599C71.8281 0.184599 73.9809 0.192838 76.1336 0.17636C76.5132 0.173065 76.6481 0.257922 76.6481 0.66985C76.6367 9.86243 76.6375 19.0558 76.6473 28.2484C76.6473 28.6406 76.5426 28.7625 76.1451 28.7592C73.9653 28.7411 71.7848 28.7402 69.605 28.7592C69.1977 28.7625 69.1086 28.62 69.1094 28.2377C69.1208 23.6414 69.1167 19.0451 69.1167 14.448V14.4497Z" fill="#233F8B"/>
<path d="M39.1746 18.0045C39.1746 21.407 39.1746 24.8104 39.1746 28.2129C39.1746 28.7476 39.173 28.7492 38.6372 28.7492C36.4976 28.7492 34.3587 28.741 32.219 28.7575C31.8346 28.7607 31.7062 28.6619 31.707 28.2557C31.7226 21.4087 31.7258 14.5616 31.7193 7.71455C31.7193 7.34958 31.8215 7.24989 32.179 7.25236C34.3456 7.26719 36.5123 7.26884 38.6789 7.25154C39.0683 7.24825 39.1861 7.35123 39.1844 7.75327C39.1689 11.1698 39.1754 14.5863 39.1754 18.0028L39.1746 18.0045Z" fill="#233F8B"/>
<path d="M35.4672 5.04831C34.3507 5.04831 33.2342 5.03924 32.1178 5.0549C31.8143 5.05902 31.7195 4.96674 31.7227 4.65945C31.7375 3.31574 31.7358 1.97203 31.7236 0.628323C31.7211 0.340797 31.8184 0.250173 32.099 0.250997C34.3319 0.259235 36.5648 0.260059 38.7977 0.250997C39.0971 0.249349 39.2034 0.347388 39.2009 0.651391C39.1895 1.9951 39.1903 3.33881 39.2009 4.68251C39.2034 4.97333 39.0938 5.05654 38.8165 5.05407C37.7001 5.04171 36.5836 5.04913 35.4672 5.04913V5.04831Z" fill="#233F8B"/>
</g>
<defs>
<clipPath id="clip0_148_2173">
<rect width="102.617" height="34.4141" fill="white" transform="translate(0.382812 0.046875)"/>
</clipPath>
</defs>
</svg>
