<svg width="228" height="37" viewBox="0 0 228 37" fill="none" xmlns="http://www.w3.org/2000/svg">
<path d="M32.3291 13.7388H23.8064C23.6927 12.8638 23.4598 12.074 23.1075 11.3695C22.7552 10.6649 22.2893 10.0626 21.7098 9.56263C21.1302 9.06263 20.4427 8.68195 19.6473 8.42059C18.8632 8.14786 17.9939 8.0115 17.0393 8.0115C15.3461 8.0115 13.8859 8.42627 12.6586 9.25582C11.4427 10.0854 10.5052 11.2842 9.84615 12.8524C9.19842 14.4206 8.87456 16.3183 8.87456 18.5456C8.87456 20.8638 9.2041 22.807 9.86319 24.3751C10.5336 25.932 11.4711 27.1081 12.6757 27.9035C13.8916 28.6876 15.3291 29.0797 16.9882 29.0797C17.92 29.0797 18.7666 28.9604 19.528 28.7217C20.3007 28.4831 20.9768 28.1365 21.5564 27.682C22.1473 27.216 22.6302 26.6535 23.0052 25.9945C23.3916 25.324 23.6586 24.5683 23.8064 23.7274L32.3291 23.7785C32.1814 25.324 31.7325 26.8467 30.9825 28.3467C30.2439 29.8467 29.2268 31.216 27.9314 32.4547C26.6359 33.682 25.0564 34.6592 23.1927 35.3865C21.3405 36.1138 19.2155 36.4774 16.8177 36.4774C13.6586 36.4774 10.8291 35.7842 8.3291 34.3979C5.84047 33.0001 3.87456 30.966 2.43137 28.2956C0.988192 25.6251 0.266602 22.3751 0.266602 18.5456C0.266602 14.7047 0.999556 11.449 2.46547 8.77854C3.93137 6.10809 5.91433 4.07968 8.41433 2.69332C10.9143 1.30695 13.7155 0.61377 16.8177 0.61377C18.9314 0.61377 20.8859 0.909225 22.6814 1.50013C24.4768 2.07968 26.0564 2.93195 27.42 4.05695C28.7836 5.17059 29.8916 6.53991 30.7439 8.16491C31.5961 9.78991 32.1246 11.6479 32.3291 13.7388Z" fill="white" fill-opacity="0.04"/>
<path d="M37.1572 36.0001V1.09104H45.5947V29.1479H60.1175V36.0001H37.1572Z" fill="white" fill-opacity="0.04"/>
<path d="M72.9229 1.09104V36.0001H64.4854V1.09104H72.9229Z" fill="white" fill-opacity="0.04"/>
<path d="M109.907 13.7388H101.384C101.271 12.8638 101.038 12.074 100.686 11.3695C100.333 10.6649 99.8675 10.0626 99.2879 9.56263C98.7084 9.06263 98.0209 8.68195 97.2254 8.42059C96.4413 8.14786 95.572 8.0115 94.6175 8.0115C92.9243 8.0115 91.464 8.42627 90.2368 9.25582C89.0209 10.0854 88.0834 11.2842 87.4243 12.8524C86.7765 14.4206 86.4527 16.3183 86.4527 18.5456C86.4527 20.8638 86.7822 22.807 87.4413 24.3751C88.1118 25.932 89.0493 27.1081 90.2538 27.9035C91.4697 28.6876 92.9072 29.0797 94.5663 29.0797C95.4981 29.0797 96.3447 28.9604 97.1061 28.7217C97.8788 28.4831 98.555 28.1365 99.1345 27.682C99.7254 27.216 100.208 26.6535 100.583 25.9945C100.97 25.324 101.237 24.5683 101.384 23.7274L109.907 23.7785C109.759 25.324 109.311 26.8467 108.561 28.3467C107.822 29.8467 106.805 31.216 105.509 32.4547C104.214 33.682 102.635 34.6592 100.771 35.3865C98.9186 36.1138 96.7936 36.4774 94.3959 36.4774C91.2368 36.4774 88.4072 35.7842 85.9072 34.3979C83.4186 33.0001 81.4527 30.966 80.0095 28.2956C78.5663 25.6251 77.8447 22.3751 77.8447 18.5456C77.8447 14.7047 78.5777 11.449 80.0436 8.77854C81.5095 6.10809 83.4925 4.07968 85.9925 2.69332C88.4925 1.30695 91.2936 0.61377 94.3959 0.61377C96.5095 0.61377 98.464 0.909225 100.259 1.50013C102.055 2.07968 103.635 2.93195 104.998 4.05695C106.362 5.17059 107.47 6.53991 108.322 8.16491C109.174 9.78991 109.703 11.6479 109.907 13.7388Z" fill="white" fill-opacity="0.04"/>
<path d="M114.735 36.0001V1.09104H123.173V15.8524H123.633L135.173 1.09104H145.11L132.735 16.6706L145.332 36.0001H135.241L126.548 22.2785L123.173 26.5399V36.0001H114.735Z" fill="white" fill-opacity="0.04"/>
<path d="M158.751 1.09104H169.2L178.063 22.7047H178.473L187.336 1.09104H197.785V36.0001H189.569V14.557H189.279L180.893 35.7785H175.643L167.257 14.4376H166.967V36.0001H158.751V1.09104Z" fill="white" fill-opacity="0.04"/>
<path d="M203.048 36.0001V1.09104H227.389V7.94332H211.485V15.1024H226.144V21.9717H211.485V29.1479H227.389V36.0001H203.048Z" fill="white" fill-opacity="0.04"/>
</svg>
