<svg width="230" height="36" viewBox="0 0 230 36" fill="none" xmlns="http://www.w3.org/2000/svg">
<path d="M32.8614 13.6198H23.2084C23.1399 12.8213 22.9574 12.097 22.6607 11.4468C22.3754 10.7966 21.9761 10.2376 21.4626 9.76996C20.9606 9.29088 20.3501 8.92586 19.6313 8.67491C18.9124 8.41255 18.0966 8.28137 17.1838 8.28137C15.5864 8.28137 14.2342 8.6692 13.1275 9.44487C12.0321 10.2205 11.1991 11.3327 10.6286 12.7814C10.0695 14.23 9.78997 15.9696 9.78997 18C9.78997 20.1445 10.0752 21.9411 10.6457 23.3897C11.2277 24.827 12.0663 25.9106 13.1617 26.6407C14.2571 27.3593 15.5749 27.7186 17.1153 27.7186C17.9939 27.7186 18.7812 27.6103 19.4772 27.3935C20.1733 27.1654 20.778 26.8403 21.2915 26.4183C21.8049 25.9962 22.2214 25.4886 22.5409 24.8954C22.8718 24.2909 23.0943 23.6122 23.2084 22.8593L32.8614 22.9278C32.7473 24.4106 32.3308 25.9221 31.612 27.462C30.8932 28.9905 29.8719 30.4049 28.5484 31.7053C27.2362 32.9943 25.6102 34.0323 23.6705 34.8194C21.7308 35.6065 19.4772 36 16.9099 36C13.6923 36 10.8055 35.3099 8.24959 33.9297C5.70511 32.5494 3.69121 30.519 2.20788 27.8384C0.735959 25.1578 0 21.8783 0 18C0 14.0989 0.753074 10.8137 2.25922 8.14449C3.76537 5.46388 5.79639 3.43916 8.35228 2.07034C10.9082 0.690114 13.7607 0 16.9099 0C19.1235 0 21.1602 0.302281 23.0201 0.906843C24.88 1.51141 26.5116 2.39544 27.9151 3.55893C29.3186 4.71103 30.4482 6.13118 31.3039 7.81939C32.1597 9.5076 32.6789 11.4411 32.8614 13.6198Z" fill="#B5B08F"/>
<path d="M37.1788 35.5209V0.479088H46.6949V27.8555H60.8664V35.5209H37.1788Z" fill="#B5B08F"/>
<path d="M74.2292 0.479088V35.5209H64.713V0.479088H74.2292Z" fill="#B5B08F"/>
<path d="M111.464 13.6198H101.811C101.742 12.8213 101.559 12.097 101.263 11.4468C100.978 10.7966 100.578 10.2376 100.065 9.76996C99.5627 9.29088 98.9522 8.92586 98.2334 8.67491C97.5146 8.41255 96.6987 8.28137 95.7859 8.28137C94.1885 8.28137 92.8364 8.6692 91.7296 9.44487C90.6342 10.2205 89.8013 11.3327 89.2307 12.7814C88.6716 14.23 88.3921 15.9696 88.3921 18C88.3921 20.1445 88.6774 21.9411 89.2479 23.3897C89.8298 24.827 90.6684 25.9106 91.7638 26.6407C92.8592 27.3593 94.1771 27.7186 95.7175 27.7186C96.596 27.7186 97.3833 27.6103 98.0794 27.3935C98.7754 27.1654 99.3801 26.8403 99.8936 26.4183C100.407 25.9962 100.824 25.4886 101.143 24.8954C101.474 24.2909 101.696 23.6122 101.811 22.8593L111.464 22.9278C111.349 24.4106 110.933 25.9221 110.214 27.462C109.495 28.9905 108.474 30.4049 107.15 31.7053C105.838 32.9943 104.212 34.0323 102.273 34.8194C100.333 35.6065 98.0794 36 95.5121 36C92.2944 36 89.4076 35.3099 86.8517 33.9297C84.3072 32.5494 82.2933 30.519 80.81 27.8384C79.3381 25.1578 78.6021 21.8783 78.6021 18C78.6021 14.0989 79.3552 10.8137 80.8614 8.14449C82.3675 5.46388 84.3985 3.43916 86.9544 2.07034C89.5103 0.690114 92.3628 0 95.5121 0C97.7256 0 99.7624 0.302281 101.622 0.906843C103.482 1.51141 105.114 2.39544 106.517 3.55893C107.921 4.71103 109.05 6.13118 109.906 7.81939C110.762 9.5076 111.281 11.4411 111.464 13.6198Z" fill="#B5B08F"/>
<path d="M115.781 35.5209V0.479088H125.297V14.6464H125.776L136.319 0.479088H147.41L135.566 16.0837L147.684 35.5209H136.319L128.446 22.3802L125.297 26.4867V35.5209H115.781Z" fill="#B5B08F"/>
<path d="M159.836 0.479088H171.68L179.826 20.327H180.237L188.384 0.479088H200.228V35.5209H190.917V15.2624H190.643L182.839 35.2472H177.225L169.42 15.1255H169.146V35.5209H159.836V0.479088Z" fill="#B5B08F"/>
<path d="M204.738 35.5209V0.479088H230V8.14449H214.254V14.1673H228.699V21.8327H214.254V27.8555H229.932V35.5209H204.738Z" fill="#B5B08F"/>
</svg>
