<svg width="36" height="35" viewBox="0 0 36 35" fill="none" xmlns="http://www.w3.org/2000/svg">
<path d="M31.9613 12.9829C32.1175 13.5059 32.6681 13.8032 33.1911 13.647C33.714 13.4908 34.0114 12.9402 33.8551 12.4172L31.9613 12.9829ZM28.9009 6.03601L29.5979 5.33535L29.5971 5.33458L28.9009 6.03601ZM20.7002 1.71001L20.8918 0.740519L20.8901 0.74017L20.7002 1.71001ZM11.4575 2.61362L11.082 1.69945L11.0811 1.69984L11.4575 2.61362ZM4.27737 8.43282L3.45746 7.88109L3.45745 7.88111L4.27737 8.43282ZM6.26687 28.4002L6.96682 27.7025L6.96637 27.7021L6.26687 28.4002ZM26.4659 30.3678L27.0124 31.1912L27.0127 31.191L26.4659 30.3678ZM33.2714 23.6496C33.4811 23.1457 33.2425 22.5672 32.7386 22.3575C32.2347 22.1479 31.6562 22.3864 31.4466 22.8904L33.2714 23.6496ZM31.954 12.4411C31.8112 12.9679 32.1224 13.5107 32.6492 13.6535C33.1759 13.7964 33.7188 13.4852 33.8616 12.9584L31.954 12.4411ZM35.5353 6.78679C35.6781 6.26001 35.3669 5.71717 34.8401 5.57432C34.3133 5.43147 33.7705 5.7427 33.6276 6.26947L35.5353 6.78679ZM32.6553 13.656C33.1829 13.7957 33.7239 13.4812 33.8636 12.9536C34.0033 12.426 33.6889 11.885 33.1613 11.7453L32.6553 13.656ZM26.917 10.0917C26.3894 9.95198 25.8484 10.2664 25.7086 10.794C25.5689 11.3217 25.8834 11.8626 26.411 12.0024L26.917 10.0917ZM16.7122 12.7003C16.7122 12.1545 16.2698 11.712 15.724 11.712C15.1782 11.712 14.7357 12.1545 14.7357 12.7003H16.7122ZM15.724 19.4773H14.7357C14.7357 20.0231 15.1782 20.4655 15.724 20.4655V19.4773ZM22.7956 20.4655C23.3414 20.4655 23.7839 20.0231 23.7839 19.4773C23.7839 18.9315 23.3414 18.489 22.7956 18.489V20.4655ZM33.8551 12.4172C33.0598 9.75454 31.5966 7.32352 29.5979 5.33535L28.204 6.73667C29.9734 8.49665 31.262 10.6419 31.9613 12.9829L33.8551 12.4172ZM29.5971 5.33458C27.2392 2.99437 24.2043 1.39546 20.8918 0.740521L20.5085 2.6795C23.4473 3.26057 26.1289 4.67716 28.2048 6.73744L29.5971 5.33458ZM20.8901 0.74017C17.5962 0.0951945 14.1748 0.429256 11.082 1.69945L11.8329 3.52778C14.566 2.40531 17.5941 2.10885 20.5103 2.67985L20.8901 0.74017ZM11.0811 1.69984C7.96149 2.98485 5.30556 5.13467 3.45746 7.88109L5.09729 8.98454C6.72224 6.56972 9.06591 4.66755 11.8339 3.52739L11.0811 1.69984ZM3.45745 7.88111C-1.04541 14.5731 -0.1651 23.3544 5.56737 29.0983L6.96637 27.7021C1.89333 22.6189 1.12797 14.8836 5.0973 8.98452L3.45745 7.88111ZM5.56693 29.0978C11.2147 34.764 20.3036 35.6437 27.0124 31.1912L25.9194 29.5444C19.9856 33.4826 11.9414 32.6934 6.96682 27.7025L5.56693 29.0978ZM27.0127 31.191C29.8213 29.3258 32.0005 26.7044 33.2714 23.6496L31.4466 22.8904C30.3298 25.5746 28.4096 27.8906 25.9192 29.5445L27.0127 31.191ZM33.8616 12.9584L35.5353 6.78679L33.6276 6.26947L31.954 12.4411L33.8616 12.9584ZM33.1613 11.7453L26.917 10.0917L26.411 12.0024L32.6553 13.656L33.1613 11.7453ZM14.7357 12.7003V19.4773H16.7122V12.7003H14.7357ZM15.724 20.4655H22.7956V18.489H15.724V20.4655Z" fill="white"/>
</svg>
