<svg width="35" height="36" viewBox="0 0 35 36" fill="none" xmlns="http://www.w3.org/2000/svg">
<path d="M1.25 15.5C0.546875 15.5 0 14.9531 0 14.25V11.75C0 11.125 0.546875 10.5 1.25 10.5H33.75C34.375 10.5 35 11.125 35 11.75V14.25C35 14.9531 34.375 15.5 33.75 15.5H1.25ZM33.75 30.5C34.375 30.5 35 31.125 35 31.75V34.25C35 34.9531 34.375 35.5 33.75 35.5H1.25C0.546875 35.5 0 34.9531 0 34.25V31.75C0 31.125 0.546875 30.5 1.25 30.5H33.75ZM33.9844 0.5C34.5312 0.5 35 0.96875 35 1.51562V4.5625C35 5.10938 34.5312 5.5 33.9844 5.5H13.4375C12.8906 5.5 12.5 5.10938 12.5 4.5625V1.51562C12.5 0.96875 12.8906 0.5 13.4375 0.5H33.9844ZM33.9844 20.5C34.5312 20.5 35 20.9688 35 21.5156V24.5625C35 25.1094 34.5312 25.5 33.9844 25.5H13.4375C12.8906 25.5 12.5 25.1094 12.5 24.5625V21.5156C12.5 20.9688 12.8906 20.5 13.4375 20.5H33.9844Z" fill="white"/>
</svg>
