<svg width="31" height="31" viewBox="0 0 31 31" fill="none" xmlns="http://www.w3.org/2000/svg">
<path fill-rule="evenodd" clip-rule="evenodd" d="M13.7125 30.9787C5.99405 30.0901 0 23.5171 0 15.5405C0 6.95771 6.93959 0 15.5 0C24.0604 0 31 6.95771 31 15.5405C31 23.554 25.9118 22.895 21.566 22.3321C19.0594 22.0075 16.7998 21.7148 15.9059 23.1366C15.2945 24.1089 15.9554 25.3214 16.7661 26.1341C17.7789 27.1496 17.7789 28.7961 16.7661 29.8116C15.9554 30.6243 14.8515 31.1098 13.7125 30.9787ZM14.0818 7.76986C14.0818 9.05727 13.0408 10.1009 11.7568 10.1009C10.4727 10.1009 9.43175 9.05727 9.43175 7.76986C9.43175 6.48244 10.4727 5.43879 11.7568 5.43879C13.0408 5.43879 14.0818 6.48244 14.0818 7.76986ZM6.975 17.0945C8.25906 17.0945 9.3 16.0508 9.3 14.7634C9.3 13.476 8.25906 12.4324 6.975 12.4324C5.69094 12.4324 4.65 13.476 4.65 14.7634C4.65 16.0508 5.69094 17.0945 6.975 17.0945ZM24.025 17.0945C25.3091 17.0945 26.35 16.0508 26.35 14.7634C26.35 13.476 25.3091 12.4324 24.025 12.4324C22.7409 12.4324 21.7 13.476 21.7 14.7634C21.7 16.0508 22.7409 17.0945 24.025 17.0945ZM19.375 10.1013C20.6591 10.1013 21.7 9.05763 21.7 7.77021C21.7 6.4828 20.6591 5.43914 19.375 5.43914C18.0909 5.43914 17.05 6.4828 17.05 7.77021C17.05 9.05763 18.0909 10.1013 19.375 10.1013Z" fill="white"/>
</svg>
