<svg width="28" height="31" viewBox="0 0 28 31" fill="none" xmlns="http://www.w3.org/2000/svg">
<path fill-rule="evenodd" clip-rule="evenodd" d="M0.136658 15.0121C-0.0644534 12.0344 -0.165009 10.5455 0.729481 9.6017C1.62397 8.65792 3.13566 8.65792 6.15902 8.65792H14.3811C17.4044 8.65792 18.9161 8.65792 19.8106 9.6017C20.0557 9.86031 20.2261 10.1599 20.3402 10.5198H20.8326C24.6444 10.5198 28 13.2185 28 16.85C28 20.4816 24.6444 23.1803 20.8326 23.1803H19.8517C19.8341 23.4373 19.817 23.6854 19.7997 23.925H0.740384C0.711712 23.5267 0.683219 23.1048 0.653019 22.6576L0.136658 15.0121ZM20.0027 20.9461H20.8326C23.6877 20.9461 25.7366 18.9767 25.7366 16.85C25.7366 14.7233 23.6877 12.754 20.8326 12.754H20.5318C20.5127 13.3946 20.4624 14.1394 20.4034 15.0121L20.0027 20.9461Z" fill="white"/>
<path d="M0.943339 26.1592H19.5968C19.3797 27.9118 19.0257 29.0147 18.1812 29.7946C16.876 31 14.8685 31 10.8535 31H9.68657C5.67159 31 3.66411 31 2.35887 29.7946C1.51437 29.0147 1.16037 27.9118 0.943339 26.1592Z" fill="white"/>
<path fill-rule="evenodd" clip-rule="evenodd" d="M5.70885 0.20774C6.21768 0.56601 6.33595 1.26362 5.973 1.7659L5.39044 2.57207C6.33477 3.27848 6.54407 4.603 5.85149 5.56143L5.2319 6.41887C4.86895 6.92114 4.16222 7.03788 3.65338 6.67961C3.14454 6.32134 3.02628 5.62373 3.38923 5.12145L3.97178 4.31528C3.02746 3.60887 2.81816 2.28435 3.51073 1.32592L4.13033 0.468486C4.49328 -0.0337905 5.20001 -0.150531 5.70885 0.20774ZM11.7446 0.20774C12.2534 0.56601 12.3717 1.26362 12.0087 1.7659L11.4262 2.57207C12.3705 3.27848 12.5798 4.603 11.8872 5.56143L11.2676 6.41887C10.9047 6.92114 10.198 7.03788 9.68911 6.67961C9.18027 6.32134 9.06201 5.62373 9.42496 5.12145L10.0075 4.31528C9.06319 3.60887 8.85389 2.28435 9.54647 1.32592L10.1661 0.468486C10.529 -0.0337905 11.2357 -0.150531 11.7446 0.20774ZM17.7803 0.20774C18.2892 0.56601 18.4074 1.26362 18.0445 1.7659L17.4619 2.57208C18.4062 3.27848 18.6155 4.603 17.923 5.56143L17.3034 6.41887C16.9404 6.92114 16.2337 7.03788 15.7248 6.67961C15.216 6.32134 15.0977 5.62373 15.4607 5.12145L16.0433 4.31528C15.0989 3.60887 14.8896 2.28435 15.5822 1.32592L16.2018 0.468486C16.5647 -0.0337905 17.2715 -0.150531 17.7803 0.20774Z" fill="white"/>
</svg>
