<svg width="124" height="45" viewBox="0 0 124 45" fill="none" xmlns="http://www.w3.org/2000/svg">
<g clip-path="url(#clip0_148_2162)">
<path d="M52.6062 0.291411C51.3197 0.250863 50.0865 0.538854 48.8699 0.910019C45.3768 1.97673 42.1299 3.59967 38.9904 5.42534C27.6293 12.0335 17.4253 20.1046 8.39719 29.6394C6.06843 32.0983 3.90242 34.6964 2.12768 37.5919C1.27422 38.983 0.496917 40.4157 0.286159 42.074C0.110876 43.4505 0.751495 44.3634 2.12455 44.6222C3.18564 44.8229 4.23838 44.6628 5.27444 44.4185C8.34294 43.6928 11.1704 42.3651 13.9478 40.9241C17.033 39.324 19.992 37.5098 22.8883 35.5916C23.0156 35.5074 23.1502 35.3462 23.2952 35.4045C23.4935 35.4835 23.4069 35.708 23.4079 35.8692C23.4121 36.7862 23.4184 37.7032 23.4966 38.6191C23.6938 40.922 25.0136 42.5678 27.2381 43.2249C28.6977 43.6543 30.1835 43.7021 31.6776 43.4485C34.0992 43.0367 35.7894 41.2724 36.0878 38.8396C36.2005 37.9278 36.1848 37.0066 36.1775 36.0886C36.1754 35.7673 36.0649 35.6311 35.7164 35.6353C34.2567 35.6509 32.796 35.6498 31.3353 35.6363C30.9889 35.6332 30.8804 35.7694 30.8867 36.0958C30.9002 36.8403 30.894 37.5857 30.8877 38.3301C30.8836 38.798 30.8491 39.2648 30.7187 39.7181C30.6029 40.1194 30.3274 40.3128 29.9153 40.3294C29.3352 40.3512 29.0817 40.0882 29.0316 39.3625C28.9325 37.9444 29.0076 36.5232 28.9732 35.103C28.9617 34.6289 29.1245 34.4812 29.6034 34.4875C31.5847 34.5114 33.5671 34.4843 35.5484 34.5072C36.0158 34.5124 36.2047 34.3918 36.1848 33.9042C36.1535 33.1265 36.1984 32.3457 36.1692 31.567C36.1087 29.9326 35.997 28.3055 34.9725 26.9144C34.8848 26.7959 34.8911 26.6899 35.0006 26.5963C35.8739 25.855 36.7472 25.1137 37.6236 24.3776C37.7645 24.2602 37.8824 24.2674 37.8907 24.4899C37.8959 24.6282 37.8959 24.7665 37.8959 24.9048C37.8959 27.9188 37.9074 30.9328 37.8845 33.9468C37.8803 34.4407 38.0504 34.5696 38.5115 34.5592C39.6237 34.5363 40.737 34.528 41.8492 34.5623C42.3855 34.579 42.5201 34.3877 42.5138 33.8741C42.4877 31.6398 42.5023 29.4045 42.5023 27.1702C42.5023 24.9193 42.5076 22.6674 42.4982 20.4154C42.4971 20.0994 42.5796 19.8592 42.8133 19.6346C43.626 18.8528 44.4336 18.0647 45.2213 17.2569C47.9476 14.457 50.5591 11.5594 52.7283 8.29797C53.7278 6.79356 54.6533 5.24444 55.0602 3.45619C55.5067 1.48912 54.6209 0.355871 52.6062 0.291411ZM30.5935 30.1884V30.4473C30.5935 31.5358 30.388 31.6938 29.2914 31.4963C29.0368 31.4495 28.9836 31.3009 28.9878 31.0981C29.0024 30.2861 29.0107 29.4741 29.0504 28.6642C29.0723 28.2255 29.3248 27.9583 29.787 27.9583C30.2492 27.9583 30.4464 28.2276 30.4902 28.6393C30.5445 29.1539 30.5768 29.6706 30.6185 30.1863C30.6102 30.1874 30.6019 30.1874 30.5935 30.1884ZM48.3503 8.17217C48.0561 9.66619 47.2705 10.9377 46.4514 12.1843C45.4018 13.7802 44.1853 15.2503 42.9186 16.6788C42.7465 16.8732 42.5775 16.9616 42.2968 16.9471C41.6551 16.9117 41.0114 16.9356 40.3676 16.9356C39.7072 16.9346 39.0457 16.9543 38.3863 16.9263C37.9857 16.9096 37.8834 17.0656 37.8897 17.4409C37.9074 18.6875 37.8751 19.9351 37.9064 21.1817C37.9179 21.6266 37.7728 21.925 37.4452 22.2068C36.2735 23.2122 35.1102 24.2279 33.9615 25.2603C33.6474 25.5421 33.3991 25.5597 32.9974 25.3892C30.8366 24.4722 28.6372 24.4369 26.4597 25.3217C24.5431 26.0993 23.7293 27.6682 23.5029 29.6259C23.3871 30.6282 23.4152 31.6325 23.4152 32.6358C23.4152 32.8968 23.361 33.0964 23.12 33.2471C19.8063 35.3254 16.4289 37.28 12.7115 38.5724C11.545 38.9778 10.3545 39.2991 9.09937 39.2783C7.49469 39.2513 6.74035 38.3197 7.08883 36.755C7.48217 34.9907 8.45667 33.5081 9.4875 32.0681C12.0437 28.4958 15.1258 25.3965 18.3664 22.4511C23.1544 18.099 28.2793 14.1846 33.8112 10.813C36.7795 9.00391 39.8261 7.34251 43.1576 6.27164C44.2009 5.93582 45.2641 5.67694 46.3753 5.71021C47.9361 5.757 48.6508 6.64072 48.3503 8.17217Z" fill="#004B75"/>
<path d="M84.7516 25.7353C84.7516 23.0155 84.7621 20.2967 84.7422 17.5769C84.7391 17.0935 84.8528 16.9022 85.3756 16.9209C86.4346 16.9594 87.4977 16.9646 88.5568 16.9188C89.1129 16.8949 89.2328 17.1049 89.213 17.605C89.1796 18.47 89.2015 19.3371 89.2068 20.2032C89.2068 20.3539 89.1421 20.5546 89.2788 20.6419C89.4353 20.7407 89.5552 20.5504 89.6794 20.4714C90.7447 19.7946 91.8882 19.6303 93.0703 20.0566C94.1303 20.4392 94.7814 21.1753 94.8784 22.3615C95.0245 24.1612 94.9379 25.9619 94.9546 27.7627C94.9734 29.8233 94.9431 31.885 94.9703 33.9456C94.9765 34.4395 94.8044 34.5694 94.3442 34.559C93.2842 34.5351 92.2231 34.533 91.1631 34.559C90.6779 34.5715 90.5496 34.3917 90.5516 33.9248C90.5694 30.8765 90.5652 27.8282 90.5569 24.7798C90.5548 24.209 90.5151 23.6372 90.4661 23.0685C90.4379 22.741 90.3117 22.4541 89.9089 22.4364C89.5156 22.4187 89.3361 22.6641 89.2871 23.003C89.2349 23.3607 89.2088 23.7256 89.2088 24.0874C89.2026 27.3437 89.2057 30.5999 89.2047 33.8562C89.2047 34.5434 89.2015 34.5476 88.5108 34.5497C87.503 34.5538 86.494 34.5528 85.4862 34.5497C84.7569 34.5476 84.7548 34.5445 84.7548 33.7886C84.7548 31.1042 84.7548 28.4187 84.7548 25.7342L84.7516 25.7353Z" fill="#004B75"/>
<path d="M112.646 22.2086C112.618 21.6627 112.426 21.1678 112.032 20.7561C110.895 19.5688 108.941 19.522 107.641 20.6542C107.478 20.7967 107.368 21.0119 107.14 21.0691C107.019 20.989 107.052 20.8757 107.05 20.779C107.037 20.1053 107.039 20.1022 106.365 20.1001C105.322 20.098 104.278 20.1219 103.236 20.0907C102.72 20.0751 102.559 20.229 102.563 20.7644C102.584 25.3203 102.575 29.8751 102.575 34.431C102.575 35.0028 102.59 35.5747 102.571 36.1454C102.559 36.4885 102.699 36.5987 103.03 36.5956C104.212 36.5842 105.394 36.5832 106.576 36.5956C106.896 36.5987 107.011 36.4615 107.009 36.1642C107.006 35.558 107 34.9519 107.018 34.3458C107.024 34.0973 106.882 33.7386 107.123 33.6294C107.325 33.5379 107.484 33.8883 107.667 34.038C108.652 34.8448 109.759 35.0236 110.945 34.6171C112.066 34.2335 112.575 33.3539 112.637 32.229C112.822 28.8895 112.81 25.549 112.646 22.2086ZM108.312 27.3238H108.309C108.309 28.536 108.315 29.7493 108.306 30.9616C108.304 31.2371 108.264 31.5137 108.227 31.7871C108.191 32.0377 108.05 32.1916 107.781 32.2144C107.497 32.2373 107.251 32.178 107.148 31.8828C107.092 31.7227 107.056 31.547 107.051 31.3775C106.984 28.6941 106.993 26.0096 107.046 23.3252C107.049 23.1713 107.065 23.0122 107.105 22.8636C107.19 22.5548 107.405 22.4186 107.728 22.4321C108.046 22.4446 108.199 22.6172 108.245 22.9103C108.33 23.4614 108.31 24.0166 108.312 24.5697C108.315 25.4877 108.312 26.4057 108.312 27.3238Z" fill="#004B75"/>
<path d="M48.7256 21.1837C49.6646 19.9684 50.8718 19.6211 52.2803 19.9476C53.3195 20.1888 53.9862 20.8438 54.2011 21.9042C54.3493 22.6362 54.3754 23.3816 54.3764 24.1271C54.3806 27.3989 54.3681 30.6718 54.3889 33.9437C54.3921 34.4324 54.2314 34.5706 53.7661 34.5602C52.707 34.5363 51.646 34.5322 50.5859 34.5623C50.0788 34.5769 49.9296 34.3928 49.9317 33.9C49.9484 30.7321 49.9422 27.5632 49.938 24.3953C49.938 23.9462 49.9098 23.496 49.8879 23.0468C49.8702 22.6965 49.7377 22.4449 49.3318 22.4355C48.9447 22.4261 48.7673 22.6403 48.7016 22.9907C48.6088 23.4877 48.6265 23.9909 48.6254 24.492C48.6202 27.6079 48.6234 30.7249 48.6223 33.8408C48.6223 34.5467 48.6192 34.5509 47.8941 34.553C46.834 34.5561 45.774 34.5426 44.7139 34.5571C44.3195 34.5623 44.163 34.4355 44.1641 34.0196C44.1755 29.5531 44.1745 25.0856 44.1651 20.6192C44.1651 20.2387 44.2955 20.0942 44.6774 20.0983C45.8063 20.1108 46.9373 20.1201 48.0662 20.0921C48.5493 20.0796 48.7454 20.2324 48.6567 20.7169C48.6328 20.8469 48.6098 20.9893 48.7256 21.1837Z" fill="#004B75"/>
<path d="M72.2261 23.6571C72.0623 22.2026 71.3455 21.1245 70.0403 20.4612C68.7538 19.8072 67.3724 19.7178 65.9733 19.9247C63.7843 20.2491 62.5615 21.4988 62.3038 23.6759C62.0649 25.6928 62.2183 27.7212 62.1974 29.7445C62.1901 30.4213 62.236 31.095 62.3769 31.7583C62.694 33.2575 63.5861 34.2161 65.0906 34.581C66.2174 34.8545 67.3599 34.894 68.5045 34.7235C70.7362 34.3918 72.0581 32.9435 72.2261 30.7134C72.3065 29.6582 72.3033 28.6039 72.3033 27.2742C72.2637 26.2522 72.3712 24.9526 72.2261 23.6571ZM67.8503 31.1345C67.8493 31.3747 67.8618 31.619 67.77 31.8508C67.6802 32.0817 67.53 32.2199 67.265 32.221C66.9833 32.222 66.7788 32.0952 66.7245 31.8301C66.6557 31.4942 66.6077 31.147 66.6066 30.8039C66.5972 28.4875 66.5983 26.1721 66.6045 23.8557C66.6045 23.5636 66.6473 23.2704 66.6817 22.9782C66.7214 22.6445 66.8894 22.4386 67.2545 22.4366C67.6333 22.4355 67.7762 22.6788 67.8138 22.9949C67.8493 23.3026 67.8503 23.6156 67.8513 23.9264C67.8555 25.0669 67.8534 26.2085 67.8524 27.349C67.8524 28.6112 67.8545 29.8723 67.8503 31.1345Z" fill="#004B75"/>
<path d="M121.205 24.7269C120.718 24.7269 120.23 24.705 119.745 24.7331C119.345 24.756 119.232 24.5917 119.242 24.2174C119.255 23.8036 119.22 23.3878 119.188 22.975C119.162 22.6351 118.978 22.4375 118.617 22.4292C118.257 22.4219 118.024 22.5831 117.916 22.9262C117.639 23.8078 117.945 24.6739 118.725 25.1895C119.363 25.6116 120.065 25.9194 120.743 26.2708C123.193 27.5423 123.708 28.5196 123.473 31.2717C123.346 32.7626 122.758 33.8916 121.281 34.4344C120.838 34.5965 120.385 34.713 119.916 34.7587C118.604 34.8877 117.312 34.8242 116.076 34.3127C115.008 33.8719 114.303 33.1254 114.095 31.9599C113.971 31.2581 113.939 30.5512 113.942 29.84C113.943 29.5718 114.056 29.4595 114.309 29.4595C115.369 29.4595 116.429 29.4605 117.489 29.4574C117.772 29.4574 117.895 29.5801 117.893 29.866C117.889 30.3682 117.888 30.8703 117.918 31.3715C117.955 31.9714 118.172 32.2146 118.618 32.2198C119.124 32.2261 119.345 32.0036 119.39 31.3912C119.414 31.0648 119.386 30.7352 119.382 30.4066C119.378 29.9866 119.182 29.6872 118.82 29.4793C117.933 28.9688 117.071 28.4094 116.16 27.9447C113.45 26.5619 113.512 24.0324 114.204 21.7607C114.452 20.9445 115.178 20.5203 115.952 20.2417C117.402 19.7198 118.89 19.6876 120.365 20.065C121.888 20.4548 123.243 21.2325 123.184 23.6071C123.148 24.9993 123.248 24.6905 122.089 24.7248C121.794 24.7331 121.499 24.7258 121.204 24.7248L121.205 24.7269Z" fill="#004B75"/>
<path d="M78.0489 27.1867C78.0489 28.5019 78.0291 29.8171 78.0572 31.1312C78.0729 31.8476 78.3567 32.2104 78.7886 32.2156C79.2248 32.2208 79.4564 31.9037 79.4981 31.1302C79.5346 30.4565 79.5325 29.7807 79.5138 29.1059C79.5033 28.7327 79.6118 28.5757 80.0104 28.584C81.0172 28.6048 82.0262 28.5892 83.033 28.5934C83.2385 28.5934 83.4858 28.5715 83.4764 28.8855C83.4409 30.0052 83.5296 31.1437 83.057 32.2073C82.4863 33.4913 81.5337 34.3417 80.145 34.6474C78.9034 34.9208 77.6545 34.9053 76.4348 34.5382C74.658 34.0038 73.8515 32.6762 73.6992 30.9358C73.4915 28.5539 73.5708 26.1647 73.647 23.7776C73.719 21.5184 75.2245 20.4402 76.9242 20.0223C78.3233 19.6781 79.7203 19.7457 81.0517 20.3591C82.2839 20.9268 83.0695 21.8531 83.2959 23.2161C83.4013 23.8493 83.4597 24.4846 83.4848 25.125C83.4962 25.4151 83.4222 25.5804 83.0862 25.5773C81.9573 25.5669 80.8273 25.5689 79.6984 25.5762C79.4032 25.5783 79.3103 25.4463 79.3082 25.1666C79.3041 24.4918 79.352 23.816 79.2561 23.1444C79.2008 22.7608 79.0943 22.4114 78.5998 22.4426C78.1271 22.4728 78.0625 22.8387 78.0593 23.1902C78.0447 24.522 78.0541 25.8549 78.0541 27.1867C78.0531 27.1867 78.052 27.1867 78.0499 27.1867H78.0489Z" fill="#004B75"/>
<path d="M56.03 28.6295C56.03 26.8642 56.0217 25.0978 56.0363 23.3324C56.0394 22.9383 55.9705 22.6888 55.5031 22.7491C55.1922 22.7886 55.1223 22.6004 55.1265 22.3353C55.1338 21.8508 55.1379 21.3653 55.1254 20.8808C55.1171 20.5752 55.235 20.4223 55.5501 20.4504C55.9111 20.4826 56.0467 20.3163 56.0363 19.9617C56.0258 19.5989 56.0467 19.235 56.0738 18.8722C56.1354 18.0851 56.5632 17.5622 57.2841 17.2638C57.7714 17.0621 58.2857 16.9685 58.8074 16.9519C59.5534 16.928 60.3015 16.9446 61.0485 16.929C61.3501 16.9228 61.5003 17.0163 61.4899 17.3407C61.4753 17.8075 61.4721 18.2764 61.4909 18.7422C61.5045 19.0666 61.3375 19.1695 61.0548 19.182C60.795 19.1945 60.5342 19.209 60.2744 19.2225C59.9071 19.2423 59.7078 19.4211 59.6692 19.7995C59.6139 20.3412 59.6859 20.4369 60.2378 20.4473C61.0718 20.4632 61.4888 20.8874 61.4888 21.7198C61.4888 21.8581 61.4753 21.9985 61.4909 22.1347C61.5452 22.589 61.3939 22.825 60.8931 22.7543C60.3881 22.6836 60.4465 23.0496 60.4465 23.3594C60.4465 26.8215 60.4465 30.2837 60.4465 33.7468C60.4465 34.2805 60.1836 34.5481 59.6577 34.5495C58.6843 34.5505 57.7119 34.5515 56.7384 34.5495C56.0331 34.5474 56.0321 34.5443 56.031 33.8217C56.03 32.0906 56.031 30.3596 56.031 28.6285L56.03 28.6295Z" fill="#004B75"/>
<path d="M101.009 27.325C101.009 29.5405 100.995 31.7571 101.019 33.9727C101.025 34.4436 100.857 34.5663 100.42 34.559C99.2916 34.5393 98.1616 34.5393 97.0327 34.559C96.5955 34.5663 96.462 34.3937 96.463 33.9758C96.4724 29.5447 96.4745 25.1125 96.4609 20.6814C96.4599 20.2136 96.6467 20.0867 97.0817 20.095C98.1762 20.1148 99.2717 20.12 100.365 20.093C100.848 20.0815 101.028 20.2125 101.02 20.7313C100.992 22.9292 101.008 25.1281 101.008 27.327L101.009 27.325Z" fill="#004B74"/>
<path d="M98.7276 16.9345C99.3338 16.9345 99.9411 16.946 100.547 16.9293C100.871 16.92 101.027 17.0125 101.012 17.365C100.99 17.8474 100.994 18.3319 101.01 18.8153C101.022 19.1324 100.887 19.2405 100.582 19.2385C99.3505 19.2301 98.1204 19.2301 96.8892 19.2385C96.6055 19.2405 96.4709 19.1314 96.4719 18.8496C96.4729 18.3485 96.4729 17.8484 96.4688 17.3473C96.4667 17.0489 96.5888 16.9189 96.907 16.9293C97.5132 16.9491 98.1204 16.9356 98.7266 16.9345H98.7276Z" fill="#004B74"/>
</g>
<defs>
<clipPath id="clip0_148_2162">
<rect width="123.265" height="44.4254" fill="white" transform="translate(0.257812 0.287109)"/>
</clipPath>
</defs>
</svg>
