<svg width="354" height="404" viewBox="0 0 354 404" fill="none" xmlns="http://www.w3.org/2000/svg">
<g style="mix-blend-mode:multiply">
<path d="M154.79 178.049C164.512 173.247 174.881 175.324 184.603 176.362C196.268 177.53 220.118 169.095 200.805 198.164C192.25 211.011 202.619 232.294 213.637 244.233C222.84 254.226 236.19 243.195 245.523 237.615C297.759 206.08 331.589 162.476 331.849 98.3682C366.845 135.224 359.457 203.355 316.165 235.279C298.666 248.256 278.187 257.341 259.133 268.112C250.319 273.173 240.986 277.455 232.82 283.425C217.525 294.456 201.971 306.914 205.601 328.197C208.971 347.922 227.247 352.075 243.449 357.136C219.211 385.686 215.711 385.686 189.658 351.686C194.713 376.083 209.878 404.763 176.307 403.984C144.421 403.336 157.901 376.343 163.993 356.747C147.402 359.472 152.587 382.183 138.07 379.068C127.052 376.732 117.46 368.297 109.294 357.915C115.905 355.319 121.997 353.503 127.7 350.777C151.031 339.617 155.568 319.762 139.107 299.387C129.904 287.967 117.979 280.051 105.147 273.303C89.4629 264.997 73.3903 257.211 57.9657 248.516C-2.82513 214.386 -17.0831 158.323 21.2838 93.8261C21.8023 145.606 41.8931 185.446 78.4454 217.111C91.2775 228.271 105.536 237.096 121.219 244.104C135.088 250.203 144.032 247.737 147.143 232.294C150.643 214.515 165.938 198.294 154.79 178.179V178.049Z" fill="#99957D"/>
<path d="M242.412 0C348.31 64.2378 344.292 171.56 233.598 232.554C284.538 155.598 277.279 80.3297 242.412 0Z" fill="#99957D"/>
<path d="M120.96 233.073C9.6182 171.95 5.85928 64.108 110.331 0.648867C77.7973 79.5511 67.9463 154.82 120.96 233.073Z" fill="#99957D"/>
<path d="M215.192 316.128C250.578 267.203 317.979 265.906 349.865 213.218C348.699 277.845 309.425 307.303 215.192 316.128Z" fill="#99957D"/>
<path d="M4.82233 222.691C41.3746 263.829 101.906 270.188 142.088 317.815C76.3715 307.303 15.451 302.372 4.82233 222.691Z" fill="#99957D"/>
<path d="M51.744 310.158C81.5562 316.907 107.998 322.876 136.514 329.365C107.739 356.487 86.3521 351.426 51.744 310.158Z" fill="#99957D"/>
<path d="M303.333 310.418C282.334 331.701 266.78 352.594 236.45 344.419C229.839 342.602 221.544 339.876 221.155 333.128C220.636 324.304 230.487 325.731 236.45 324.433C256.8 319.891 277.409 315.868 303.333 310.418Z" fill="#99957D"/>
</g>
</svg>
