<svg width="18" height="34" viewBox="0 0 18 34" fill="none" xmlns="http://www.w3.org/2000/svg">
<path d="M11.3916 33.7225V18.4767H16.5087L17.2751 12.5358H11.3916V8.74238C11.3916 7.02247 11.8692 5.85057 14.3371 5.85057H17.4844V0.537226C16.1549 0.388524 14.6136 0.303695 13.0525 0.303695C12.9991 0.303695 12.9456 0.303793 12.8923 0.303989L12.9005 0.303956C12.7453 0.291978 12.5645 0.285156 12.382 0.285156C8.42815 0.285156 5.22291 3.49039 5.22291 7.44427C5.22291 7.69408 5.23571 7.9409 5.26068 8.18412L5.25813 8.15361V12.5357H0.126221V18.4767H5.25813V33.7225H11.3935L11.3916 33.7225Z" fill="white" stroke="white" stroke-width="0.0175781"/>
</svg>
