<svg width="128" height="169" viewBox="0 0 128 169" fill="none" xmlns="http://www.w3.org/2000/svg">
<path d="M0 0H128V169L64 135L0 169V0Z" fill="#BAB699"/>
<path d="M59.8592 69.4944C61.6717 68.5911 63.605 68.9817 65.4174 69.177C67.5924 69.3967 72.0389 67.8099 68.4382 73.2784C66.8432 75.6952 68.7765 79.6989 70.8306 81.9449C72.5464 83.8247 75.0355 81.7496 76.7755 80.6999C86.5144 74.7675 92.8217 66.5648 92.8701 54.5049C99.3949 61.4381 98.0174 74.2549 89.946 80.2604C86.6836 82.7017 82.8653 84.4106 79.3129 86.4369C77.6696 87.389 75.9297 88.1946 74.4072 89.3176C71.5556 91.3927 68.6557 93.7363 69.3323 97.74C69.9606 101.451 73.3681 102.232 76.3888 103.184C71.8698 108.555 71.2173 108.555 66.3599 102.159C67.3024 106.748 70.1298 112.144 63.8708 111.997C57.9259 111.875 60.4392 106.797 61.575 103.111C58.4818 103.623 59.4484 107.896 56.7418 107.31C54.6877 106.87 52.8994 105.284 51.3769 103.331C52.6094 102.842 53.7452 102.5 54.8085 101.988C59.1584 99.8883 60.0042 96.1532 56.9351 92.3204C55.2193 90.172 52.9961 88.6828 50.6036 87.4134C47.6795 85.851 44.6829 84.3862 41.8072 82.7505C30.4733 76.33 27.815 65.7836 34.9682 53.6505C35.0648 63.3912 38.8106 70.8859 45.6254 76.8426C48.0178 78.9421 50.6761 80.6022 53.6002 81.9205C56.186 83.0679 57.8534 82.6041 58.4334 79.6989C59.0859 76.3544 61.9375 73.3028 59.8592 69.5188V69.4944Z" fill="#1D3459"/>
<path d="M76.1955 36C95.9392 48.0843 95.19 68.2737 74.5522 79.7478C84.0495 65.271 82.6962 51.1115 76.1955 36Z" fill="#1D3459"/>
<path d="M53.5519 79.8454C32.7932 68.347 32.0924 48.0599 51.5703 36.1221C45.5046 50.9651 43.668 65.1245 53.5519 79.8454Z" fill="#1D3459"/>
<path d="M71.1206 95.4696C77.7179 86.266 90.2843 86.0218 96.2292 76.1102C96.0117 88.2678 88.6893 93.8095 71.1206 95.4696Z" fill="#1D3459"/>
<path d="M31.8991 77.8924C38.7139 85.6312 49.9995 86.8275 57.4909 95.787C45.2387 93.8095 33.8807 92.8818 31.8991 77.8924Z" fill="#1D3459"/>
<path d="M40.6472 94.3466C46.2054 95.6161 51.1353 96.7391 56.4518 97.9597C51.0869 103.062 47.0995 102.11 40.6472 94.3466Z" fill="#1D3459"/>
<path d="M87.5535 94.3954C83.6386 98.3991 80.7387 102.33 75.0838 100.792C73.8514 100.45 72.3047 99.9371 72.2322 98.6677C72.1356 97.0076 73.9722 97.2762 75.0838 97.032C78.8779 96.1776 82.7203 95.4208 87.5535 94.3954Z" fill="#1D3459"/>
</svg>
