<svg width="62" height="71" viewBox="0 0 62 71" fill="none" xmlns="http://www.w3.org/2000/svg">
<path d="M27.1102 31.2908C28.8128 30.447 30.6289 30.8119 32.3315 30.9943C34.3746 31.1996 38.5517 29.7171 35.1692 34.8258C33.6709 37.0837 35.487 40.824 37.4166 42.9222C39.0284 44.6783 41.3667 42.7398 43.0012 41.7591C52.1499 36.217 58.075 28.554 58.1204 17.2875C64.2498 23.7646 62.9558 35.7381 55.3735 41.3486C52.3088 43.6292 48.722 45.2257 45.3848 47.1187C43.8411 48.0081 42.2066 48.7607 40.7765 49.8098C38.0977 51.7484 35.3735 53.9379 36.0091 57.6782C36.5994 61.1448 39.8003 61.8746 42.638 62.7641C38.3928 67.7815 37.7799 67.7815 33.2169 61.8062C34.1022 66.0938 36.7583 71.1341 30.8786 70.9973C25.2941 70.8832 27.655 66.1394 28.722 62.6956C25.8162 63.1746 26.7243 67.1657 24.1817 66.6184C22.2521 66.2079 20.5722 64.7254 19.142 62.9009C20.2997 62.4448 21.3667 62.1255 22.3656 61.6465C26.4518 59.6852 27.2464 56.1957 24.3633 52.6151C22.7515 50.6081 20.663 49.2169 18.4155 48.0309C15.6686 46.5713 12.8537 45.2029 10.1522 43.6748C-0.494797 37.6767 -2.99196 27.8242 3.72767 16.4892C3.81848 25.5891 7.33721 32.5908 13.739 38.1556C15.9865 40.117 18.4836 41.6679 21.2305 42.8994C23.6596 43.9713 25.226 43.538 25.7708 40.824C26.3837 37.6995 29.0625 34.8486 27.1102 31.3136V31.2908Z" fill="#0B1F3D"/>
<path d="M42.4564 0C61.0035 11.2893 60.2997 30.1505 40.9127 40.8696C49.8343 27.3452 48.5631 14.1174 42.4564 0Z" fill="#0B1F3D"/>
<path d="M21.1851 40.9608C1.68454 30.2189 1.0262 11.2665 19.3236 0.114034C13.6255 13.9805 11.9002 27.2084 21.1851 40.9608Z" fill="#0B1F3D"/>
<path d="M37.6891 55.5571C43.8866 46.959 55.6913 46.7309 61.2759 37.4714C61.0716 48.8292 54.193 54.0063 37.6891 55.5571Z" fill="#0B1F3D"/>
<path d="M0.844589 39.1363C7.2464 46.366 17.848 47.4836 24.8854 55.8536C13.3758 54.0063 2.70611 53.1396 0.844589 39.1363Z" fill="#0B1F3D"/>
<path d="M9.06252 54.508C14.2839 55.694 18.9149 56.7431 23.9093 57.8834C18.8695 62.65 15.1238 61.7606 9.06252 54.508Z" fill="#0B1F3D"/>
<path d="M53.126 54.5536C49.4484 58.2939 46.7242 61.9658 41.4121 60.529C40.2543 60.2097 38.8014 59.7308 38.7333 58.5448C38.6425 56.994 40.3678 57.2448 41.4121 57.0168C44.9762 56.2185 48.5858 55.5115 53.126 54.5536Z" fill="#0B1F3D"/>
</svg>
