<svg width="46" height="53" viewBox="0 0 46 53" fill="none" xmlns="http://www.w3.org/2000/svg">
<path d="M20.114 23.3579C21.3772 22.728 22.7247 23.0004 23.9879 23.1366C25.5038 23.2898 28.6029 22.1832 26.0933 25.9968C24.9816 27.6822 26.3291 30.4743 27.7607 32.0405C28.9566 33.3514 30.6914 31.9043 31.9041 31.1723C38.6918 27.0353 43.0879 21.315 43.1216 12.9047C47.6692 17.7398 46.7091 26.6777 41.0836 30.8658C38.8097 32.5683 36.1486 33.76 33.6726 35.1731C32.5273 35.837 31.3146 36.3989 30.2535 37.182C28.266 38.6291 26.2449 40.2635 26.7165 43.0555C27.1544 45.6433 29.5292 46.1881 31.6346 46.852C28.485 50.5975 28.0302 50.5975 24.6448 46.137C25.3017 49.3377 27.2723 53.1001 22.9099 52.998C18.7666 52.9128 20.5182 49.3717 21.3099 46.801C19.1539 47.1585 19.8277 50.1378 17.9413 49.7292C16.5096 49.4228 15.2632 48.3162 14.2021 46.9542C15.0611 46.6137 15.8527 46.3754 16.5938 46.0178C19.6256 44.5537 20.2151 41.9489 18.076 39.276C16.8801 37.7779 15.3306 36.7394 13.6631 35.8541C11.6251 34.7645 9.53659 33.743 7.53227 32.6023C-0.367108 28.1248 -2.21984 20.7702 2.76569 12.3089C2.83307 19.1017 5.44373 24.3283 10.1935 28.4824C11.8609 29.9465 13.7137 31.1042 15.7517 32.0235C17.5539 32.8237 18.716 32.5002 19.1203 30.4743C19.575 28.1419 21.5625 26.0138 20.114 23.3749V23.3579Z" fill="#CCC8AC"/>
<path d="M31.4999 0C45.2606 8.42724 44.7385 22.5067 30.3546 30.5083C36.9739 20.4126 36.0307 10.5383 31.4999 0Z" fill="#CCC8AC"/>
<path d="M15.718 30.5764C1.24982 22.5578 0.761375 8.41021 14.3368 0.0851236C10.1093 10.4362 8.82918 20.3105 15.718 30.5764Z" fill="#CCC8AC"/>
<path d="M27.9628 41.4722C32.561 35.0539 41.3194 34.8837 45.4627 27.9716C45.3112 36.4499 40.2077 40.3145 27.9628 41.4722Z" fill="#CCC8AC"/>
<path d="M0.626631 29.2144C5.37636 34.6113 13.2421 35.4455 18.4634 41.6935C9.92398 40.3145 2.00776 39.6676 0.626631 29.2144Z" fill="#CCC8AC"/>
<path d="M6.7238 40.6891C10.5977 41.5744 14.0337 42.3575 17.7391 43.2087C14 46.7669 11.2209 46.103 6.7238 40.6891Z" fill="#CCC8AC"/>
<path d="M39.4161 40.7231C36.6875 43.5152 34.6664 46.2562 30.7251 45.1836C29.8661 44.9453 28.7882 44.5878 28.7376 43.7025C28.6703 42.5448 29.9503 42.7321 30.7251 42.5618C33.3695 41.9659 36.0475 41.4382 39.4161 40.7231Z" fill="#CCC8AC"/>
</svg>
