<svg width="14" height="14" viewBox="0 0 14 14" fill="none" xmlns="http://www.w3.org/2000/svg">
<path fill-rule="evenodd" clip-rule="evenodd" d="M4.18392e-08 6.475C0.269214 2.85422 3.30036 0 7 0C6.41678 -1.55249e-07 5.89751 0.254946 5.47032 0.644789C5.04528 1.03268 4.68609 1.57414 4.39558 2.21421C4.10335 2.85804 3.87635 3.61108 3.72271 4.42828C3.59955 5.08336 3.5246 5.77396 3.49962 6.475H4.18392e-08ZM0 7.525H3.49962C3.5246 8.22604 3.59955 8.91664 3.72271 9.57172C3.87635 10.3889 4.10334 11.142 4.39558 11.7858C4.68609 12.4259 5.04528 12.9673 5.47032 13.3552C5.89751 13.7451 6.41678 14 7 14C3.30036 14 0.269214 11.1458 0 7.525Z" fill="white"/>
<path d="M7 0.976744C6.80696 0.976744 6.55758 1.05865 6.26759 1.32329C5.97547 1.58988 5.68302 2.0077 5.42464 2.57696C5.16797 3.14244 4.95956 3.82508 4.81614 4.58794C4.70319 5.18869 4.63312 5.82553 4.60853 6.475H9.39147C9.36688 5.82553 9.29681 5.18869 9.18387 4.58794C9.04044 3.82509 8.83203 3.14244 8.57536 2.57696C8.31698 2.0077 8.02454 1.58988 7.73241 1.32329C7.44242 1.05865 7.19304 0.976744 7 0.976744Z" fill="white"/>
<path d="M4.81614 9.41206C4.95956 10.1749 5.16797 10.8576 5.42464 11.423C5.68302 11.9923 5.97547 12.4101 6.26759 12.6767C6.55758 12.9413 6.80696 13.0233 7 13.0233C7.19304 13.0233 7.44242 12.9413 7.73241 12.6767C8.02454 12.4101 8.31698 11.9923 8.57536 11.423C8.83203 10.8576 9.04044 10.1749 9.18387 9.41206C9.29681 8.81131 9.36688 8.17447 9.39147 7.525H4.60853C4.63312 8.17447 4.70319 8.81131 4.81614 9.41206Z" fill="white"/>
<path d="M7 0C7.58322 1.55249e-07 8.10249 0.254946 8.52968 0.64479C8.95472 1.03268 9.31391 1.57414 9.60443 2.21421C9.89666 2.85805 10.1237 3.61108 10.2773 4.42828C10.4005 5.08336 10.4754 5.77396 10.5004 6.475H14C13.7308 2.85422 10.6996 0 7 0Z" fill="white"/>
<path d="M10.2773 9.57172C10.1237 10.3889 9.89666 11.142 9.60443 11.7858C9.31391 12.4259 8.95472 12.9673 8.52968 13.3552C8.10249 13.7451 7.58322 14 7 14C10.6996 14 13.7308 11.1458 14 7.525H10.5004C10.4754 8.22604 10.4005 8.91664 10.2773 9.57172Z" fill="white"/>
</svg>
