<svg width="81" height="32" viewBox="0 0 81 32" fill="none" xmlns="http://www.w3.org/2000/svg">
<g clip-path="url(#clip0_148_2106)">
<path d="M80.5441 0.672852H0.453125V31.3327H80.5441V0.672852Z" fill="#004B8E"/>
<path d="M41.1823 19.174C30.7521 19.174 20.321 19.174 9.89082 19.174C9.25106 19.174 9.25007 19.172 9.25007 18.5145C9.25007 14.6991 9.25499 10.8836 9.2422 7.06915C9.24121 6.69591 9.31208 6.56982 9.71562 6.56982C30.6921 6.58083 51.6676 6.58083 72.6441 6.56982C73.0407 6.56982 73.1224 6.6869 73.1215 7.06614C73.1087 10.8816 73.1136 14.6971 73.1136 18.5115C73.1136 18.9538 72.9007 19.175 72.4748 19.175C62.0446 19.175 51.6135 19.175 41.1833 19.175L41.1823 19.174Z" fill="#FBFDFD"/>
<path d="M13.6471 23.5368C13.8646 22.6452 14.0732 21.7626 14.2986 20.8841C14.3429 20.7119 14.3488 20.4178 14.6402 20.5178C14.8951 20.6059 14.7268 20.822 14.6864 20.9801C14.4295 21.9928 14.1677 23.0044 13.9059 24.0151C13.8626 24.1802 13.8784 24.3803 13.5998 24.3693C13.3311 24.3583 13.336 24.1542 13.2937 23.9951C13.0486 23.0665 12.8163 22.1359 12.5427 21.0622C12.274 22.0958 12.0467 22.9934 11.8035 23.886C11.7533 24.0701 11.8045 24.3433 11.4896 24.3653C11.15 24.3893 11.1982 24.0911 11.15 23.916C10.8764 22.9084 10.6234 21.8937 10.3705 20.8811C10.338 20.751 10.2307 20.5719 10.4561 20.5108C10.6884 20.4478 10.709 20.6289 10.7514 20.8C10.9777 21.7266 11.214 22.6522 11.4777 23.7029C11.7425 22.7062 11.9728 21.8267 12.214 20.9501C12.2661 20.761 12.2327 20.4898 12.5565 20.4978C12.8803 20.5058 12.8301 20.786 12.8803 20.9691C13.0909 21.7366 13.2829 22.5091 13.4778 23.2806C13.5024 23.3797 13.5201 23.4747 13.648 23.5368H13.6471Z" fill="#F1FAFD"/>
<path d="M27.5621 21.8748C27.5621 21.4565 27.5621 21.1243 27.5621 20.7921C27.5621 20.657 27.5552 20.5059 27.7481 20.5119C27.8977 20.5159 27.9233 20.632 27.9233 20.7591C27.9233 21.8738 27.9243 22.9885 27.9233 24.1022C27.9233 24.2213 27.9213 24.3434 27.7609 24.3584C27.6467 24.3694 27.5739 24.3274 27.5631 24.2003C27.5345 23.8661 27.3997 24.1302 27.3416 24.1723C26.877 24.5095 26.3957 24.5265 25.9223 24.2253C25.4676 23.9351 25.2756 23.1966 25.442 22.5102C25.5857 21.9148 25.9253 21.5726 26.4489 21.4935C26.8465 21.4335 27.1762 21.6056 27.5611 21.8758L27.5621 21.8748Z" fill="#EBF8FB"/>
<path d="M61.438 22.3252C61.2894 22.8975 61.1466 23.4709 60.9882 24.0403C60.9488 24.1834 60.9518 24.3715 60.7018 24.3675C60.4685 24.3635 60.4498 24.2124 60.4015 24.0513C60.188 23.3378 59.9655 22.6264 59.7598 21.9109C59.7323 21.8128 59.5994 21.6537 59.8012 21.5857C59.9911 21.5216 60.0571 21.6627 60.1033 21.8178C60.2815 22.4212 60.4616 23.0246 60.6634 23.701C60.9281 23.2337 60.938 22.7494 61.1014 22.3202C61.1535 22.1821 61.1791 22.033 61.2126 21.8869C61.25 21.7238 61.2687 21.5667 61.5049 21.5687C61.7539 21.5717 61.7401 21.7708 61.7795 21.9109C61.935 22.4773 62.0728 23.0496 62.311 23.627C62.4783 23.0806 62.6368 22.5313 62.8189 21.9899C62.8779 21.8138 62.8642 21.4616 63.1772 21.5957C63.4291 21.7038 63.1919 21.9489 63.1486 22.105C62.9606 22.7734 62.7303 23.4289 62.5167 24.0893C62.4705 24.2314 62.4468 24.3735 62.2382 24.3655C62.0256 24.3575 62.0246 24.2104 61.9872 24.0653C61.8356 23.4799 61.6781 22.8955 61.5236 22.3111C61.4951 22.3162 61.4675 22.3202 61.439 22.3252H61.438Z" fill="#F0F9FB"/>
<path d="M71.7433 21.8308C71.7433 21.4305 71.7433 21.1143 71.7433 20.7991C71.7433 20.665 71.7315 20.5149 71.9205 20.5049C72.1055 20.4949 72.1233 20.629 72.1233 20.7731C72.1233 21.8888 72.1242 23.0035 72.1233 24.1193C72.1233 24.2143 72.137 24.3364 72.0022 24.3494C71.9274 24.3574 71.7847 24.3334 71.7798 24.3054C71.705 23.8621 71.5258 24.1953 71.4126 24.2603C70.7177 24.6576 69.9146 24.3434 69.6794 23.5729C69.389 22.6223 69.7994 21.6877 70.579 21.5066C70.9973 21.4095 71.3388 21.6046 71.7433 21.8308Z" fill="#ECF9FB"/>
<path d="M45.528 21.8519C45.528 21.4717 45.5241 21.1455 45.53 20.8182C45.532 20.6932 45.4936 20.5201 45.6825 20.507C45.8804 20.494 45.8558 20.6651 45.8558 20.7932C45.8577 21.908 45.8587 23.0217 45.8558 24.1364C45.8558 24.2094 45.8892 24.3135 45.7829 24.3455C45.7062 24.3685 45.5812 24.3826 45.5654 24.2985C45.5005 23.9583 45.3784 24.1384 45.2249 24.2295C44.3804 24.7308 43.5083 24.2855 43.3833 23.2979C43.2563 22.2922 43.6392 21.6308 44.4158 21.4967C44.8184 21.4276 45.1402 21.6288 45.527 21.8519H45.528Z" fill="#EEFAFC"/>
<path d="M39.6946 23.1127C39.6946 23.3449 39.6907 23.578 39.6966 23.8102C39.6986 23.8872 39.7045 23.9913 39.7517 24.0353C39.8433 24.1204 40.1769 24.0604 39.9466 24.3135C39.8285 24.4436 39.5332 24.4506 39.421 24.2615C39.2793 24.0213 39.1907 24.1514 39.0539 24.2315C38.7143 24.4296 38.3541 24.4866 37.9712 24.3676C37.6346 24.2625 37.4466 24.0253 37.421 23.6811C37.3934 23.3129 37.5539 23.0117 37.9023 22.8976C38.2409 22.7865 38.6001 22.7395 38.9545 22.6855C39.1336 22.6575 39.2842 22.6104 39.3068 22.4103C39.3305 22.1982 39.2596 22.017 39.0598 21.911C38.7232 21.7319 38.1759 21.8689 37.9869 22.2012C37.9092 22.3372 37.8472 22.5124 37.6759 22.4263C37.4692 22.3222 37.5982 22.1361 37.6641 21.998C37.8492 21.6128 38.4131 21.4076 38.9564 21.5127C39.421 21.6028 39.6779 21.8699 39.672 22.3673C39.669 22.6164 39.672 22.8656 39.672 23.1137C39.6799 23.1137 39.6877 23.1137 39.6956 23.1137L39.6946 23.1127Z" fill="#F1F8FC"/>
<path d="M30.975 23.5208C30.7604 24.1612 30.3362 24.4764 29.7476 24.4374C29.1207 24.3964 28.7467 24.0561 28.599 23.4087C28.4986 22.9694 28.5409 22.5482 28.7457 22.1509C29.0203 21.6176 29.601 21.3704 30.1581 21.5365C30.6876 21.6946 31.0518 22.271 31.0203 22.8434C31.0075 23.0775 30.8766 23.0615 30.727 23.0625C30.2201 23.0645 29.7122 23.0745 29.2053 23.0635C28.9455 23.0585 28.9061 23.1415 28.9839 23.3867C29.0921 23.7319 29.2752 23.9921 29.6295 24.0631C29.9917 24.1362 30.3264 24.0481 30.5134 23.6919C30.6295 23.4698 30.7624 23.4147 30.976 23.5218L30.975 23.5208Z" fill="#EDF9FC"/>
<path d="M16.4209 23.0647C16.2241 23.0647 16.0272 23.0627 15.8304 23.0647C15.3904 23.0687 15.3235 23.1837 15.5262 23.592C15.8284 24.2014 16.5883 24.2774 16.9642 23.7121C17.0814 23.536 17.2152 23.3759 17.3707 23.4959C17.5489 23.633 17.3471 23.8151 17.2595 23.9472C16.9948 24.3465 16.5961 24.4616 16.1444 24.4205C15.6857 24.3795 15.3255 24.1764 15.1591 23.7191C14.9514 23.1467 14.9524 22.5743 15.2733 22.041C15.5646 21.5567 16.167 21.3616 16.6946 21.5557C17.165 21.7288 17.5223 22.3122 17.4908 22.8195C17.478 23.0256 17.3776 23.0677 17.2064 23.0647C16.9446 23.0597 16.6818 23.0637 16.419 23.0637L16.4209 23.0647Z" fill="#F1F9FB"/>
<path d="M66.1195 22.9472C66.1195 23.8568 65.5969 24.4672 64.836 24.4452C64.0801 24.4242 63.5732 23.8268 63.5782 22.9643C63.5831 22.0787 64.0723 21.4943 64.8223 21.4793C65.6116 21.4643 66.1205 22.0387 66.1195 22.9472Z" fill="#EAF9FC"/>
<path d="M53.1763 23.0276C53.1389 23.9051 52.6045 24.4665 51.8397 24.4315C51.0956 24.3975 50.573 23.75 50.6114 22.9105C50.6517 22.0269 51.1773 21.4626 51.9352 21.4866C52.7196 21.5116 53.2137 22.126 53.1753 23.0276H53.1763Z" fill="#EFF9FC"/>
<path d="M34.3098 21.4824C34.7252 21.4905 35.0952 21.5985 35.2813 22.0178C35.3295 22.1259 35.4761 22.298 35.2567 22.392C35.111 22.4551 35.0126 22.37 34.9584 22.2219C34.8413 21.8977 34.5775 21.8457 34.2803 21.8527C34.0362 21.8577 33.8068 21.8957 33.7537 22.1849C33.6986 22.4781 33.8994 22.6022 34.1326 22.6762C34.2881 22.7263 34.4496 22.7553 34.608 22.7983C35.2468 22.9694 35.4614 23.1956 35.4328 23.6639C35.4063 24.1091 35.1317 24.3323 34.4988 24.4233C33.9978 24.4954 33.5263 24.2602 33.3669 23.838C33.3275 23.7339 33.1868 23.5848 33.3669 23.4927C33.5185 23.4157 33.6513 23.4777 33.7133 23.6539C33.86 24.0711 34.1946 24.1091 34.5569 24.0711C34.8019 24.0451 34.9998 23.942 35.0401 23.6619C35.0854 23.3527 34.8639 23.2596 34.6395 23.1875C34.4693 23.1335 34.2901 23.1075 34.1159 23.0645C33.4948 22.9104 33.2931 22.6692 33.358 22.1639C33.4102 21.7646 33.795 21.4874 34.3088 21.4814L34.3098 21.4824Z" fill="#EBF8FB"/>
<path d="M49.087 23.7942C49.4905 23.0307 49.5978 22.2442 50.0171 21.5977C50.0456 21.5537 50.1982 21.5917 50.3537 21.5917C49.9177 22.7315 49.5053 23.8292 49.0761 24.9189C48.9551 25.2281 48.7366 25.4582 48.3724 25.4362C48.273 25.4302 48.1421 25.4072 48.1293 25.2431C48.1155 25.058 48.2385 25.093 48.3488 25.068C48.7533 24.9759 48.9718 24.5426 48.8173 24.1144C48.5584 23.3979 48.2779 22.6904 48.019 21.975C47.9757 21.8539 47.7907 21.6778 48.0309 21.5837C48.2671 21.4907 48.3271 21.7028 48.3891 21.8749C48.6125 22.4893 48.836 23.1037 49.087 23.7942Z" fill="#EFF9FB"/>
<path d="M24.6998 23.1914C24.6998 23.5076 24.6998 23.8228 24.6998 24.139C24.6998 24.265 24.6831 24.3741 24.5158 24.3581C24.3789 24.3451 24.375 24.242 24.374 24.143C24.3711 23.6446 24.3799 23.1453 24.3671 22.647C24.3524 22.0616 24.1723 21.8495 23.7195 21.8485C23.2461 21.8485 22.9409 22.1407 22.9173 22.659C22.8957 23.1233 22.9085 23.5896 22.9045 24.0549C22.9035 24.2 22.939 24.3771 22.7018 24.3601C22.4961 24.3461 22.5443 24.18 22.5433 24.0599C22.5394 23.3124 22.5433 22.5639 22.5404 21.8165C22.5404 21.6644 22.6309 21.4802 22.7343 21.5903C23.0177 21.8915 23.2057 21.6133 23.4242 21.5383C24.0945 21.3101 24.6939 21.7314 24.7018 22.4439C24.7047 22.693 24.7018 22.9422 24.7018 23.1914H24.6998Z" fill="#EAF8FC"/>
<path d="M21.783 22.9936C21.783 23.3599 21.7791 23.7261 21.784 24.0914C21.7869 24.2685 21.6718 24.4646 21.5537 24.3425C21.3086 24.0904 21.1619 24.2775 20.9611 24.3565C20.2466 24.6367 19.6206 24.2224 19.593 23.4479C19.5753 22.9496 19.5802 22.4493 19.592 21.951C19.595 21.8139 19.4877 21.5887 19.7672 21.5757C20.0537 21.5627 19.9602 21.7899 19.9631 21.931C19.9739 22.3963 19.9749 22.8626 19.9651 23.3289C19.9562 23.7221 20.0546 24.0213 20.4976 24.0743C20.9346 24.1274 21.2623 23.9042 21.3637 23.4519C21.4739 22.9606 21.3883 22.4573 21.4198 21.96C21.4287 21.8199 21.3204 21.5897 21.594 21.5807C21.8765 21.5717 21.7741 21.8049 21.78 21.946C21.7928 22.2952 21.784 22.6444 21.784 22.9936H21.783Z" fill="#EFFAFC"/>
<path d="M40.5091 22.9415C40.5091 22.5592 40.5111 22.176 40.5082 21.7938C40.5062 21.6196 40.6794 21.4956 40.7336 21.5936C40.959 22.0059 41.1273 21.6447 41.2956 21.5746C42.0121 21.2764 42.6784 21.7137 42.6844 22.5042C42.6883 23.0205 42.6853 23.5359 42.6834 24.0522C42.6834 24.1983 42.7129 24.3764 42.4786 24.3594C42.2759 24.3454 42.3212 24.1813 42.3202 24.0582C42.3153 23.5589 42.3133 23.0596 42.3172 22.5602C42.3202 22.186 42.209 21.9018 41.7946 21.8558C41.3674 21.8078 41.0515 21.9699 40.9235 22.4021C40.769 22.9225 40.8645 23.4608 40.833 23.9912C40.8251 24.1203 40.9245 24.3344 40.7001 24.3524C40.4314 24.3744 40.5121 24.1383 40.5091 23.9902C40.5003 23.6409 40.5062 23.2907 40.5062 22.9415C40.5072 22.9415 40.5091 22.9415 40.5101 22.9415H40.5091Z" fill="#EBF8FC"/>
<path d="M55.9243 22.9653C55.9243 23.3476 55.9243 23.7288 55.9253 24.1111C55.9253 24.2582 55.8367 24.4553 55.7294 24.3462C55.4332 24.049 55.2166 24.3322 54.9794 24.3892C54.2777 24.5593 53.7668 24.2001 53.7403 23.4686C53.7206 22.9383 53.7363 22.406 53.7383 21.8746C53.7383 21.7265 53.7137 21.5614 53.9489 21.5754C54.1596 21.5884 54.1103 21.7475 54.1113 21.8676C54.1182 22.3659 54.1251 22.8642 54.1143 23.3626C54.1054 23.7448 54.2275 24.018 54.63 24.073C55.0385 24.1291 55.3357 23.958 55.4785 23.5627C55.6281 23.1464 55.5493 22.7071 55.5631 22.2779C55.568 22.1288 55.5631 21.9787 55.5611 21.8296C55.5592 21.6865 55.572 21.5634 55.7659 21.5744C55.9381 21.5844 55.9243 21.7045 55.9243 21.8196C55.9243 22.2018 55.9243 22.5841 55.9243 22.9663V22.9653Z" fill="#EEF9FD"/>
<path d="M68.8813 22.4621C68.8813 22.9924 68.8852 23.5238 68.8793 24.0541C68.8783 24.1872 68.9374 24.3633 68.6923 24.3713C68.4462 24.3793 68.4915 24.2102 68.4915 24.0701C68.4895 22.9754 68.4885 21.8807 68.4935 20.786C68.4935 20.6589 68.4226 20.4788 68.6765 20.4728C68.9226 20.4668 68.8793 20.6289 68.8793 20.77C68.8813 21.3334 68.8803 21.8977 68.8803 22.4621H68.8813Z" fill="#F1FEFE"/>
<path d="M36.7056 24.4344C36.3394 24.4264 36.1849 24.2322 36.1829 23.896C36.18 23.3977 36.1711 22.8984 36.1829 22.4011C36.1898 22.1139 36.116 21.9518 35.8561 21.7577C35.6711 21.6196 36.3581 21.5855 36.1928 21.1863C36.1465 21.0752 36.0983 20.81 36.3611 20.811C36.6189 20.812 36.5284 21.0462 36.5382 21.1933C36.552 21.3904 36.5057 21.6126 36.8227 21.5765C36.9221 21.5655 37.0235 21.5815 37.0245 21.7226C37.0254 21.8647 36.925 21.8827 36.8246 21.8707C36.5087 21.8337 36.5402 22.0528 36.5402 22.253C36.5412 22.6682 36.5353 23.0835 36.5441 23.4988C36.55 23.778 36.4418 24.1472 36.9457 24.0852C37.051 24.0721 37.0874 24.1592 37.054 24.2503C36.99 24.4234 36.8237 24.4054 36.7056 24.4344Z" fill="#F1FCFD"/>
<path d="M56.6867 22.9693C56.6867 22.5881 56.6956 22.2058 56.6838 21.8246C56.6769 21.5854 56.8934 21.4773 56.9643 21.5994C57.1473 21.9136 57.2399 21.6995 57.3836 21.6024C57.4623 21.5494 57.5647 21.5254 57.6601 21.5074C57.7664 21.4873 57.9003 21.4373 57.9416 21.6024C57.9761 21.7425 57.9554 21.8536 57.7763 21.8906C57.1621 22.0177 57.0607 22.485 57.0656 23.0203C57.0686 23.3686 57.0656 23.7168 57.0656 24.065C57.0656 24.2191 57.0755 24.3782 56.8501 24.3622C56.6464 24.3472 56.6906 24.1841 56.6887 24.064C56.6818 23.6988 56.6857 23.3345 56.6867 22.9693Z" fill="#E3F4FC"/>
<path d="M66.7191 22.9465C66.7191 22.5652 66.7191 22.183 66.7191 21.8017C66.7191 21.6847 66.7791 21.4885 66.8746 21.5886C67.1896 21.9188 67.3913 21.5406 67.6423 21.5196C67.7575 21.5096 67.915 21.4125 67.9661 21.6166C68.0144 21.8108 67.8972 21.8758 67.7319 21.9098C67.2624 22.0069 67.1118 22.3521 67.101 22.7874C67.0901 23.2187 67.0941 23.6499 67.0882 24.0812C67.0862 24.2123 67.102 24.3564 66.9051 24.3634C66.6994 24.3704 66.721 24.2223 66.7201 24.0932C66.7171 23.712 66.7201 23.3297 66.7201 22.9485L66.7191 22.9465Z" fill="#E8F7FB"/>
<path d="M31.6492 22.9692C31.6492 22.5869 31.6531 22.2047 31.6472 21.8224C31.6443 21.6643 31.7535 21.4892 31.847 21.5903C32.1295 21.8955 32.3037 21.5873 32.5252 21.5363C32.6502 21.5072 32.8204 21.3862 32.8893 21.6163C32.9464 21.8094 32.8332 21.8685 32.662 21.9055C32.1374 22.0176 32.0409 22.4418 32.0173 22.8901C31.9976 23.2544 32.0212 23.6216 32.0124 23.9868C32.0084 24.1329 32.096 24.3651 31.8234 24.3511C31.5626 24.3381 31.659 24.1099 31.6541 23.9648C31.6423 23.6326 31.6502 23.3004 31.6502 22.9682L31.6492 22.9692Z" fill="#F0F9FC"/>
<path d="M12.5564 18.0764C11.9009 18.0764 11.2463 18.0644 10.5908 18.0814C10.3142 18.0884 10.2237 18.0003 10.2266 17.7142C10.2394 16.3833 10.2375 15.0524 10.2286 13.7216C10.2266 13.4744 10.2788 13.3583 10.5505 13.3724C10.9589 13.3924 11.3694 13.3924 11.7778 13.3714C12.0446 13.3573 12.1105 13.4614 12.1046 13.7156C12.0908 14.397 12.1154 15.0805 12.0938 15.7619C12.0839 16.0791 12.1636 16.1972 12.4953 16.1842C13.1656 16.1582 13.8389 16.2002 14.5091 16.1672C14.891 16.1482 14.9924 16.2822 14.9609 16.6465C14.9304 17.0097 14.9383 17.3789 14.957 17.7432C14.9698 18.0084 14.8713 18.0884 14.6184 18.0834C13.9304 18.0694 13.2424 18.0784 12.5554 18.0784L12.5564 18.0764Z" fill="#EA1C23"/>
<path d="M10.2349 9.77582C10.2349 9.14441 10.2457 8.512 10.23 7.88159C10.2231 7.59941 10.2753 7.46632 10.5991 7.47133C11.9239 7.48934 13.2497 7.48634 14.5745 7.47133C14.8757 7.46833 14.9584 7.56038 14.9633 7.86558C14.9899 9.27749 14.9997 9.27749 13.6188 9.27749C13.3078 9.27749 12.9938 9.30651 12.6867 9.26949C12.231 9.21445 12.0509 9.34354 12.0893 9.84886C12.1385 10.5103 12.0902 11.1777 12.107 11.8422C12.1139 12.1053 12.0292 12.2004 11.7723 12.1784C11.2733 12.1343 10.6375 12.3855 10.3137 12.0663C10.0804 11.8361 10.2438 11.1867 10.2349 10.7254C10.229 10.4102 10.2339 10.094 10.2349 9.77782V9.77582Z" fill="#EB1C22"/>
<path d="M20.5952 18.0512C19.173 18.0592 17.7507 18.0612 16.3295 18.0792C16.0775 18.0822 16.0312 17.9722 16.0371 17.752C16.049 17.3367 16.0549 16.9205 16.0362 16.5062C16.0243 16.241 16.1159 16.164 16.3708 16.17C17.0244 16.186 17.6799 16.15 18.3324 16.184C18.7606 16.206 18.9397 16.1069 18.9053 15.6266C18.86 14.9992 18.9072 14.3648 18.8876 13.7334C18.8787 13.4472 18.9702 13.3572 19.2478 13.3722C19.7045 13.3972 20.1622 13.3902 20.6198 13.3962C20.8521 13.5053 20.8069 13.7254 20.8078 13.9145C20.8147 15.1053 20.8128 16.2961 20.8098 17.4868C20.8098 17.701 20.8275 17.9261 20.5952 18.0512Z" fill="#EA1C23"/>
<path d="M20.5972 18.0512C20.7281 17.7139 20.6543 17.3627 20.6543 17.0185C20.6533 15.8107 20.6346 14.6039 20.6228 13.3961C20.6986 12.9849 20.6759 12.5726 20.6336 12.1603C20.5194 12.0223 20.5214 11.8551 20.5214 11.69C20.5194 10.4532 20.5184 9.21544 20.5214 7.97864C20.5214 7.79552 20.5214 7.6114 20.6956 7.49132C20.9082 7.48632 21.1208 7.47732 21.3344 7.47732C38.0855 7.47732 54.8355 7.47932 71.5866 7.46631C72.0404 7.46631 72.1476 7.58439 72.1437 8.03568C72.1181 11.2488 72.123 14.4618 72.1171 17.6749C72.0482 17.6919 71.9902 17.6739 71.9429 17.6189C71.7549 17.3507 71.8169 17.0405 71.8159 16.7473C71.8081 14.1166 71.814 11.4859 71.811 8.85421C71.811 8.00566 71.7274 7.9236 70.8789 7.90459C70.6988 7.90059 70.5187 7.90259 70.3376 7.90259C54.3237 7.90259 38.3089 7.90259 22.295 7.90259C21.4879 7.90259 21.0841 8.31419 21.0834 9.13739C21.0814 10.4012 20.9968 11.669 21.0263 12.9268C21.0588 14.3067 21.0509 15.6876 21.0814 17.0675C21.0873 17.3157 21.0982 17.5678 21.0076 17.808C20.986 17.9071 20.9358 17.9891 20.8619 18.0572C20.7734 18.0552 20.6848 18.0522 20.5962 18.0501L20.5972 18.0512Z" fill="#104678"/>
<path d="M15.511 11.1749C15.9372 11.1749 16.3643 11.1879 16.7895 11.1699C17.0405 11.1599 17.133 11.2289 17.1281 11.5011C17.1114 12.3506 17.1114 13.2002 17.1271 14.0487C17.132 14.3209 17.0375 14.3849 16.7875 14.3809C15.9184 14.3679 15.0494 14.3709 14.1812 14.3809C13.9549 14.3839 13.8643 14.3229 13.8673 14.0757C13.8801 13.2102 13.8791 12.3436 13.8673 11.4781C13.8643 11.2309 13.9558 11.1649 14.1832 11.1719C14.6251 11.1859 15.0681 11.1759 15.511 11.1759V11.1749Z" fill="#014B8E"/>
<path d="M72.0358 17.6741C72.0624 17.6741 72.0899 17.6741 72.1165 17.6741C72.1805 17.9602 72.1145 18.1183 71.7799 18.0813C71.5535 18.0563 71.3212 18.0763 71.0919 18.0763C54.5121 18.0763 37.9333 18.0763 21.3534 18.0763C21.1901 18.0763 21.0267 18.0653 20.8633 18.0583L20.8682 17.8662C21.006 17.6941 21.195 17.662 21.3977 17.656C21.7088 17.647 22.0208 17.648 22.3318 17.648C38.2817 17.648 54.2306 17.646 70.1805 17.654C70.7986 17.654 71.4196 17.5169 72.0368 17.6741H72.0358Z" fill="#0D4675"/>
<path d="M20.6921 7.49039C20.6891 8.86728 20.6861 10.2432 20.6822 11.6201C20.6822 11.8012 20.7078 11.9863 20.63 12.1594C20.1556 12.1654 19.6802 12.1594 19.2058 12.1824C18.9352 12.1954 18.8781 12.0804 18.882 11.8322C18.8958 11.1167 18.8712 10.4003 18.8948 9.68581C18.9056 9.35059 18.7944 9.26454 18.4775 9.27555C17.7737 9.29856 17.069 9.27254 16.3643 9.28655C16.1094 9.29156 16.0149 9.21551 16.0286 8.94934C16.0483 8.56809 16.0483 8.18384 16.0286 7.80159C16.0149 7.53342 16.1153 7.46438 16.3672 7.46738C17.8082 7.48339 19.2501 7.48439 20.6911 7.48939L20.6921 7.49039Z" fill="#B9313A"/>
<path d="M25.7744 23.0135C25.7705 22.296 26.0943 21.8577 26.6347 21.8497C27.178 21.8417 27.5549 22.3 27.551 22.9654C27.5471 23.6259 27.1996 24.0701 26.6799 24.0802C26.1317 24.0902 25.7774 23.6729 25.7734 23.0135H25.7744Z" fill="#044B8F"/>
<path d="M71.7503 22.9394C71.7503 23.6388 71.4048 24.0851 70.8645 24.0801C70.335 24.0751 69.9688 23.6318 69.9649 22.9904C69.9609 22.321 70.331 21.8517 70.8655 21.8477C71.3901 21.8437 71.7503 22.289 71.7503 22.9404V22.9394Z" fill="#044A90"/>
<path d="M45.5248 22.9383C45.5357 23.6117 45.1676 24.077 44.6223 24.08C44.078 24.082 43.7365 23.6657 43.7305 22.9923C43.7246 22.3249 44.0603 21.8666 44.5691 21.8456C45.1193 21.8226 45.514 22.2748 45.5248 22.9393V22.9383Z" fill="#044C93"/>
<path d="M38.4066 24.0833C38.1172 24.0933 37.8603 24.0002 37.815 23.689C37.7707 23.3878 37.9597 23.1917 38.255 23.1327C38.5414 23.0756 38.8327 23.0386 39.1201 22.9866C39.318 22.9515 39.3268 23.0726 39.3327 23.2207C39.3534 23.725 38.9745 24.0813 38.4066 24.0823V24.0833Z" fill="#094D8C"/>
<path d="M28.9531 22.7691C29.0476 22.2728 29.211 21.9025 29.7327 21.8525C30.1145 21.8155 30.4029 21.9526 30.5555 22.3248C30.6687 22.6 30.6844 22.8001 30.2799 22.7751C29.8586 22.7491 29.4344 22.7691 28.9531 22.7691Z" fill="#074B8C"/>
<path d="M16.2589 22.7695C16.1448 22.7695 16.0296 22.7755 15.9154 22.7685C15.7609 22.7585 15.5444 22.8575 15.4666 22.7014C15.3731 22.5113 15.5247 22.3202 15.6408 22.1631C15.8475 21.8839 16.133 21.7979 16.4686 21.8609C16.7757 21.9179 16.9371 22.1131 17.0444 22.4023C17.1477 22.6784 17.1241 22.8085 16.7973 22.7785C16.6192 22.7625 16.4381 22.7755 16.258 22.7755C16.258 22.7735 16.258 22.7725 16.258 22.7705L16.2589 22.7695Z" fill="#074C8C"/>
<path d="M65.7446 22.9654C65.7426 23.6168 65.3913 24.0711 64.8834 24.0791C64.3046 24.0881 63.9513 23.6458 63.9611 22.9294C63.971 22.2719 64.3145 21.8547 64.8509 21.8497C65.41 21.8437 65.7466 22.2649 65.7446 22.9654Z" fill="#064B8C"/>
<path d="M52.777 22.9553C52.7809 23.3745 52.6874 23.7498 52.3055 23.9799C51.8469 24.2561 51.2376 24.008 51.088 23.4756C51.0034 23.1724 50.9807 22.8602 51.0634 22.545C51.1894 22.0697 51.4719 21.8356 51.9345 21.8466C52.3754 21.8576 52.6697 22.1307 52.7494 22.6091C52.7681 22.7231 52.7681 22.8392 52.777 22.9543V22.9553Z" fill="#074A8A"/>
<path d="M72.0361 17.6742C71.9938 17.8323 71.8826 17.8663 71.7359 17.8663C62.6453 17.8663 53.5537 17.8713 44.4631 17.8723C36.5979 17.8723 28.7327 17.8683 20.8675 17.8663C20.8666 16.7666 20.9118 15.6649 20.8528 14.5682C20.7416 12.5069 20.9266 10.4485 20.8666 8.38919C20.8459 7.67874 20.8636 7.67773 21.5644 7.67773C37.7495 7.67773 53.9346 7.67773 70.1188 7.67874C70.5932 7.67874 71.0715 7.73377 71.543 7.69775C71.9337 7.66773 72.0391 7.82783 72.0351 8.17906C72.0272 8.87851 72.0331 9.57796 72.0331 10.2784C72.0331 12.744 72.0351 15.2096 72.0351 17.6742H72.0361Z" fill="#014A90"/>
<path d="M18.9974 10.6007C18.9974 10.2344 19.0004 9.86819 18.9965 9.50296C18.9925 9.18575 18.8508 9.05967 18.525 9.11671C17.8596 9.23478 17.1854 9.14973 16.5161 9.17575C16.2445 9.18575 16.1333 9.06367 16.1352 8.7895C16.1421 7.30554 15.9935 7.60873 17.2297 7.58472C18.0486 7.56871 18.8675 7.58272 19.6864 7.57971C20.5319 7.57671 20.528 7.67678 20.5093 8.44527C20.4847 9.47594 20.4896 10.5066 20.4847 11.5363C20.4827 11.9385 20.3705 12.1347 19.9541 12.0816C19.8252 12.0656 19.6913 12.0666 19.5614 12.0786C19.1352 12.1196 18.96 11.9315 18.9945 11.4982C19.0181 11.2011 18.9994 10.8999 18.9984 10.5997L18.9974 10.6007Z" fill="#EA1C22"/>
<path d="M59.531 12.8767C59.531 13.5542 59.5191 14.2306 59.5369 14.908C59.5438 15.1912 59.4552 15.2673 59.1766 15.2733C57.966 15.2983 57.966 15.3083 57.967 14.0635C57.967 12.9308 57.9778 11.798 57.9611 10.6663C57.9571 10.3661 58.0398 10.3071 58.3371 10.263C59.2101 10.133 59.781 10.4251 60.152 11.2577C60.3754 11.759 60.7367 12.1973 61.1382 12.6416C61.1382 11.9701 61.1471 11.2977 61.1333 10.6263C61.1284 10.3781 61.1875 10.284 61.4562 10.271C62.7131 10.215 62.7131 10.205 62.7131 11.4698C62.7131 12.6025 62.7052 13.7353 62.717 14.867C62.7199 15.1542 62.6501 15.2423 62.342 15.2803C61.5054 15.3843 60.9178 15.1562 60.5497 14.3257C60.3174 13.8013 59.9404 13.343 59.6284 12.8557C59.5959 12.8627 59.5634 12.8697 59.531 12.8767Z" fill="#FBFDFC"/>
<path d="M50.371 10.2733C51.3327 10.6066 51.6063 10.9218 51.5649 11.6522C51.562 11.7023 51.561 11.7523 51.5561 11.8013C51.5177 12.1325 51.0836 12.3577 51.1407 12.5818C51.2008 12.822 51.5827 12.9671 51.6929 13.2883C51.9724 14.0988 51.5275 14.9253 50.6555 15.1675C50.498 15.2115 50.3366 15.2385 50.1771 15.2746C49.2687 15.4067 48.3523 15.2626 47.4419 15.3526C47.2303 15.3736 47.1456 15.2085 47.1555 15.0274C47.2322 13.6335 47.1761 12.2406 47.1446 10.8477C47.1417 10.7156 47.1958 10.5875 47.1899 10.4525C47.1811 10.2753 47.2834 10.2223 47.438 10.2273C48.4163 10.2563 49.3956 10.1663 50.373 10.2733H50.371Z" fill="#F9FDFD"/>
<path d="M29.5504 12.731C29.5504 12.0316 29.5474 11.3321 29.5524 10.6326C29.5533 10.4806 29.4903 10.2744 29.763 10.2794C30.6961 10.2964 31.639 10.1784 32.5612 10.3295C33.9274 10.5526 34.3851 11.6673 34.2856 12.9321C34.1557 14.5802 33.4343 15.2196 31.8043 15.2616C31.1813 15.2777 30.5583 15.2506 29.9352 15.2716C29.637 15.2817 29.5346 15.1906 29.5435 14.8804C29.5632 14.1649 29.5494 13.4485 29.5504 12.732V12.731Z" fill="#FBFDFB"/>
<path d="M28.6341 12.795C28.6341 13.4774 28.6124 14.1608 28.6429 14.8413C28.6596 15.2075 28.5307 15.2746 28.2 15.2726C26.9736 15.2636 26.9726 15.2766 26.9726 14.0338C26.9726 13.5775 26.7489 13.3483 26.3014 13.3463C26.2197 13.3463 26.136 13.3563 26.0563 13.3433C25.639 13.2773 25.4579 13.4194 25.511 13.8787C25.5533 14.2399 25.513 14.6101 25.5218 14.9764C25.5268 15.1885 25.448 15.2886 25.2344 15.2636C25.2187 15.2616 25.202 15.2636 25.1852 15.2636C24.3158 15.3082 23.8811 14.892 23.8811 14.0147C23.8811 12.9 23.8899 11.7843 23.8752 10.6696C23.8712 10.3784 23.9313 10.2363 24.2512 10.2723C24.6547 10.3174 25.1675 10.1052 25.4372 10.3554C25.6911 10.5905 25.514 11.1109 25.511 11.5041C25.509 11.7983 25.5809 11.9074 25.8909 11.9144C26.9726 11.9384 26.9943 11.9494 26.9628 10.8427C26.95 10.3964 27.0524 10.2493 27.5159 10.2643C28.635 10.3003 28.636 10.2743 28.636 11.3971C28.636 11.8634 28.636 12.3287 28.636 12.795H28.6341Z" fill="#FDFEFE"/>
<path d="M68.5818 10.2743C68.2383 10.9077 67.6536 11.321 67.1812 11.8353C66.9656 12.0705 66.9233 12.2096 67.1162 12.4898C67.6487 13.2653 68.1408 14.0678 68.6418 14.8653C68.7078 14.9694 68.8298 15.0624 68.7688 15.2646C68.2314 15.2646 67.6812 15.2556 67.132 15.2696C66.9282 15.2746 66.8436 15.1535 66.758 15.0084C66.4961 14.5681 66.2402 14.1248 65.9686 13.6915C65.8928 13.5715 65.877 13.3043 65.6585 13.4084C65.4991 13.4854 65.3328 13.6275 65.3347 13.8687C65.3387 14.333 65.3268 14.7983 65.3219 15.2626C64.8957 15.3896 64.4518 15.2916 64.0198 15.3656C63.8268 15.3986 63.7274 15.2766 63.695 15.0794C63.6713 14.9303 63.6664 14.7822 63.6664 14.6332C63.6635 13.3383 63.6802 12.0435 63.6566 10.7486C63.6487 10.3364 63.7865 10.1703 64.1969 10.2193C64.4391 10.2483 64.69 10.2513 64.9312 10.2193C65.3465 10.1633 65.4607 10.3694 65.4115 10.7316C65.3859 10.9147 65.4105 11.0769 65.565 11.1689C65.7589 11.284 65.8839 11.1169 65.9627 10.9848C66.3958 10.2603 67.0523 10.1302 67.8101 10.2213C68.0651 10.2523 68.3298 10.1723 68.5818 10.2723V10.2743Z" fill="#FCFDFC"/>
<path d="M43.2852 12.1766C43.0096 12.1926 42.6789 12.2376 42.4348 11.7273C42.1701 11.177 41.3128 11.3411 41.0539 11.9465C40.8443 12.4368 40.8521 12.9551 40.986 13.4614C41.0893 13.8497 41.3462 14.0778 41.7685 14.0878C42.176 14.0968 42.4801 13.9417 42.5903 13.5345C42.6474 13.3233 42.7517 13.2783 42.9378 13.2833C43.2488 13.2913 43.5628 13.3083 43.8708 13.2783C44.236 13.2433 44.237 13.4304 44.1701 13.6956C43.9447 14.5932 43.3649 15.1195 42.4949 15.3226C41.175 15.6308 39.9456 15.0485 39.4653 13.9037C38.9565 12.6919 39.3452 11.208 40.3541 10.5155C41.3374 9.8421 43.5037 9.90414 44.0657 11.5292C44.2714 12.1226 44.2468 12.1746 43.6494 12.1766C43.5677 12.1766 43.486 12.1766 43.2832 12.1766H43.2852Z" fill="#FBFDFB"/>
<path d="M54.7805 10.2764C55.6013 10.2764 55.6033 10.2744 55.87 11.0289C56.3179 12.2947 56.7519 13.5655 57.2116 14.8263C57.3385 15.1735 57.2962 15.3116 56.9074 15.2686C56.6968 15.2446 56.4812 15.2546 56.2686 15.2676C55.9222 15.2886 55.6082 15.2846 55.5757 14.8103C55.5669 14.6802 55.4655 14.6132 55.3326 14.6132C54.9389 14.6132 54.5452 14.6152 54.1525 14.6162C54.0265 14.6162 53.9212 14.6482 53.9153 14.8013C53.8956 15.3176 53.5423 15.2726 53.1889 15.2696C52.1417 15.2616 52.1436 15.2676 52.4999 14.2699C52.8799 13.2083 53.2568 12.1446 53.6318 11.0809C53.8208 10.5459 54.2037 10.2777 54.7805 10.2764Z" fill="#FBFDFD"/>
<path d="M34.9985 12.777C34.9985 12.0626 35.0103 11.3471 34.9926 10.6326C34.9857 10.3505 35.0713 10.2674 35.3489 10.2714C36.3794 10.2874 37.4109 10.2914 38.4414 10.2694C38.7662 10.2624 38.8558 10.3575 38.8518 10.6837C38.842 11.5062 38.8577 11.5072 38.0546 11.5102C37.6786 11.5112 37.3006 11.5292 36.9256 11.5042C36.6048 11.4832 36.5979 11.6583 36.5959 11.9015C36.594 12.1496 36.6117 12.3097 36.9276 12.2837C37.2849 12.2547 37.6491 12.2997 38.0064 12.2707C38.3213 12.2447 38.3843 12.3658 38.3833 12.6629C38.3823 13.5105 38.3961 13.5105 37.5743 13.5105C36.926 13.5105 36.6018 13.839 36.6018 14.4961C36.6018 15.0091 36.3394 15.2656 35.8144 15.2656C35.2705 15.2656 34.9981 14.9851 34.9975 14.4241C34.9975 13.8757 34.9975 13.3264 34.9975 12.778L34.9985 12.777Z" fill="#FBFDFC"/>
<path d="M68.585 10.2742C67.2149 10.052 66.1145 10.4343 65.4344 11.9222C65.2897 11.3569 65.3438 10.9656 65.3468 10.5814C65.3488 10.3432 65.2789 10.2812 65.0456 10.2702C63.771 10.2111 63.771 10.2041 63.77 11.4909C63.77 12.6207 63.7799 13.7504 63.7631 14.8801C63.7582 15.1853 63.8419 15.2914 64.148 15.2704C64.5387 15.2434 64.9324 15.2624 65.3251 15.2624C64.8999 15.4645 64.4324 15.3655 63.9905 15.4595C63.832 15.4935 63.7247 15.3675 63.6676 15.2104C63.5978 15.0202 63.5732 14.8271 63.5702 14.625C63.5486 13.2971 63.6194 11.9683 63.5328 10.6414C63.5121 10.3252 63.6991 10.1891 63.9836 10.1781C64.2779 10.1671 64.5732 10.1931 64.8665 10.1691C65.3064 10.1331 65.5564 10.2471 65.5053 10.7665C65.4757 11.0677 65.6736 11.0947 65.8891 10.9556C65.9836 10.8946 66.0948 10.8125 66.1312 10.7134C66.3547 10.101 66.8517 10.1291 67.3429 10.1761C67.7572 10.2161 68.1903 10.008 68.587 10.2722L68.585 10.2742Z" fill="#124776"/>
<path d="M50.3675 10.273C49.4511 10.275 48.5348 10.287 47.6185 10.271C47.3271 10.266 47.2228 10.3321 47.2267 10.6523C47.2444 12.0652 47.2435 13.4791 47.2267 14.892C47.2228 15.2142 47.334 15.2773 47.6224 15.2723C48.4718 15.2573 49.3222 15.2723 50.1726 15.2743C50.0368 15.4014 49.8665 15.3653 49.7061 15.3733C48.957 15.4094 48.2061 15.3223 47.4561 15.4324C47.1234 15.4814 47.0545 15.2052 47.0742 14.9351C47.1598 13.7593 47.1913 12.5855 47.0427 11.4128C47.0387 11.3798 47.0407 11.3467 47.0387 11.3137C46.9984 10.277 47.0909 10.177 48.086 10.176C48.6746 10.176 49.2632 10.174 49.8508 10.179C50.0269 10.181 50.2139 10.139 50.3675 10.274V10.273Z" fill="#174571"/>
<path d="M49.4084 13.184C49.5226 13.184 49.6387 13.17 49.7499 13.187C49.994 13.2241 50.1909 13.3271 50.1909 13.6213C50.1909 13.8895 50.0147 14.0066 49.7913 14.0426C49.5836 14.0756 49.3671 14.0486 49.1584 14.0806C48.7539 14.1426 48.808 13.8715 48.8031 13.6213C48.7982 13.3611 48.7706 13.1 49.1633 13.171C49.2421 13.185 49.3257 13.173 49.4074 13.173V13.184H49.4084Z" fill="#084A87"/>
<path d="M49.1434 12.2663C48.9338 12.3034 48.7921 12.1993 48.7891 11.805C48.7861 11.4058 48.9702 11.3748 49.2615 11.4018C49.358 11.4108 49.4564 11.4098 49.5529 11.4228C49.793 11.4558 50.0096 11.5299 50.0204 11.827C50.0312 12.1393 49.8009 12.1943 49.5667 12.2303C49.4712 12.2453 49.3728 12.2473 49.1434 12.2653V12.2663Z" fill="#164F89"/>
<path d="M31.1827 12.7699C31.1827 12.5868 31.1492 12.3957 31.1905 12.2225C31.2447 11.9984 30.9769 11.6572 31.3766 11.5561C31.9081 11.421 32.3864 11.6262 32.5537 12.0244C32.8756 12.7879 32.6128 13.7085 32.0163 13.9076C31.3303 14.1368 31.1836 14.0337 31.1827 13.3182C31.1827 13.1351 31.1827 12.952 31.1827 12.7689V12.7699Z" fill="#044A8D"/>
<path d="M54.7734 11.9731C54.923 12.5015 55.0628 12.9988 55.2055 13.5021C54.5651 13.5782 54.3272 13.325 54.4919 12.7426C54.5628 12.4925 54.5805 12.2213 54.7734 11.9731Z" fill="#174D87"/>
</g>
<defs>
<clipPath id="clip0_148_2106">
<rect width="80.091" height="30.6598" fill="white" transform="translate(0.453125 0.672852)"/>
</clipPath>
</defs>
</svg>
