<svg width="650" height="741" viewBox="0 0 650 741" fill="none" xmlns="http://www.w3.org/2000/svg">
<path d="M284.184 326.494C302.031 317.689 321.069 321.496 338.917 323.4C360.334 325.542 404.12 310.074 368.663 363.379C352.957 386.938 371.994 425.965 392.222 447.858C409.117 466.181 433.628 445.954 450.762 435.721C546.664 377.895 608.774 297.937 609.25 180.381C673.501 247.964 659.937 372.898 580.455 431.438C548.329 455.235 510.73 471.893 475.749 491.644C459.567 500.925 442.433 508.778 427.441 519.725C399.361 539.952 370.804 562.797 377.468 601.824C383.655 637.995 417.208 645.61 446.955 654.891C402.454 707.244 396.029 707.244 348.197 644.896C357.478 689.635 385.321 742.226 323.687 740.798C265.146 739.608 289.895 690.11 301.08 654.177C270.619 659.174 280.138 700.819 253.486 695.108C233.258 690.824 215.649 675.356 200.657 656.319C212.793 651.559 223.978 648.228 234.448 643.231C277.283 622.765 285.612 586.356 255.389 548.995C238.494 528.053 216.6 513.537 193.042 501.163C164.247 485.933 134.739 471.655 106.421 455.711C-5.18674 393.125 -31.3633 290.322 39.0755 172.052C40.0274 267.001 76.9126 340.058 144.02 398.122C167.579 418.588 193.755 434.77 222.55 447.62C248.012 458.804 264.432 454.283 270.144 425.965C276.569 393.363 304.649 363.617 284.184 326.732V326.494Z" fill="#1D3459" fill-opacity="0.08"/>
<path d="M445.051 0C639.472 117.795 632.095 314.595 428.869 426.441C522.391 285.325 509.065 147.303 445.051 0Z" fill="#1D3459" fill-opacity="0.08"/>
<path d="M222.074 427.393C17.6583 315.309 10.7572 117.557 202.56 1.18985C142.83 145.875 124.744 283.897 222.074 427.393Z" fill="#1D3459" fill-opacity="0.08"/>
<path d="M395.077 579.693C460.043 489.978 583.787 487.599 642.327 390.983C640.186 509.492 568.081 563.511 395.077 579.693Z" fill="#1D3459" fill-opacity="0.08"/>
<path d="M8.85345 408.355C75.9607 483.791 187.092 495.452 260.863 582.786C140.212 563.511 28.3669 554.468 8.85345 408.355Z" fill="#1D3459" fill-opacity="0.08"/>
<path d="M94.9983 568.746C149.731 581.121 198.277 592.067 250.63 603.966C197.801 653.701 158.536 644.42 94.9983 568.746Z" fill="#1D3459" fill-opacity="0.08"/>
<path d="M556.896 569.222C518.345 608.249 489.789 646.562 434.104 631.57C421.968 628.239 406.738 623.241 406.024 610.867C405.072 594.685 423.158 597.303 434.104 594.923C471.465 586.594 509.302 579.217 556.896 569.222Z" fill="#1D3459" fill-opacity="0.08"/>
</svg>
