<svg width="97" height="36" viewBox="0 0 97 36" fill="none" xmlns="http://www.w3.org/2000/svg">
<path d="M68.0869 16.3459C68.2982 15.7445 68.5171 15.1447 68.7179 14.5388C68.7809 14.3484 68.8648 14.2744 69.0747 14.2744C73.4695 14.282 77.8643 14.282 82.2591 14.2744C82.4734 14.2744 82.5574 14.3152 82.5514 14.5524C82.5349 15.1855 82.5394 15.8186 82.5484 16.4501C82.5514 16.6496 82.5064 16.7297 82.2876 16.7281C80.0452 16.7206 77.8028 16.7206 75.5605 16.7281C75.3506 16.7281 75.2862 16.6632 75.2922 16.4547C75.3056 15.9682 75.2966 15.4816 75.2307 14.9815C75.0583 15.465 74.874 15.9455 74.7196 16.435C74.6521 16.6511 74.5607 16.7297 74.3254 16.7281C70.1494 16.7206 65.9749 16.7206 61.799 16.7281C61.5622 16.7281 61.4497 16.6662 61.3778 16.429C61.2279 15.9319 61.0405 15.4469 60.8127 14.9619C60.8127 15.4529 60.8037 15.944 60.8172 16.435C60.8232 16.6466 60.7842 16.7266 60.5444 16.7251C58.3125 16.7146 56.0792 16.7161 53.8473 16.7251C53.606 16.7251 53.546 16.6496 53.552 16.4184C53.567 15.7959 53.564 15.1734 53.552 14.5509C53.549 14.3515 53.5925 14.2699 53.8128 14.2714C58.2271 14.2774 62.6429 14.2774 67.0572 14.2714C67.24 14.2714 67.321 14.3273 67.3779 14.498C67.5833 15.113 67.8051 15.7234 68.021 16.3353L68.0869 16.3414V16.3459Z" fill="#005799"/>
<path d="M33.1219 7.42087C28.7676 7.42087 24.4117 7.41785 20.0574 7.42843C19.7786 7.42843 19.7052 7.35288 19.7157 7.0794C19.7367 6.47806 19.7367 5.87369 19.7157 5.27234C19.7067 5.01095 19.7951 4.96411 20.0349 4.96411C24.8284 4.97167 29.6219 4.96865 34.4155 4.96865C38.0923 4.96865 41.7706 4.97167 45.4474 4.9626C45.7322 4.9626 45.8701 5.04872 45.966 5.31918C46.1759 5.91448 46.3842 6.50979 46.5476 7.1202C46.6121 7.35892 46.5656 7.42843 46.3078 7.42843C41.913 7.42087 37.5182 7.42238 33.1234 7.42389L33.1219 7.42087Z" fill="#005799"/>
<path d="M33.1249 28.2384C37.4597 28.2384 41.7946 28.2384 46.1279 28.2384C46.5521 28.2384 46.5566 28.2384 46.4607 28.6705C46.3228 29.2884 46.1114 29.8822 45.8656 30.4639C45.7922 30.6362 45.6857 30.6921 45.4999 30.6921C36.9996 30.6876 28.5008 30.6876 20.0005 30.6921C19.7861 30.6921 19.7067 30.6498 19.7142 30.4141C19.7322 29.7916 19.7322 29.1691 19.7142 28.5466C19.7067 28.2927 19.7831 28.2323 20.0304 28.2338C24.3953 28.2414 28.7586 28.2399 33.1234 28.2399L33.1249 28.2384Z" fill="#01579C"/>
<path d="M43.881 2.7763C43.6637 2.7763 43.4464 2.7763 43.229 2.7763C35.5156 2.7763 27.8038 2.77479 20.0904 2.78234C19.8026 2.78234 19.6947 2.73248 19.7112 2.41368C19.7411 1.80175 19.7277 1.18832 19.7157 0.576396C19.7112 0.375443 19.7561 0.301408 19.975 0.301408C25.7248 0.311984 31.4746 0.296875 37.2244 0.327093C38.8867 0.336159 40.519 0.602081 42.0149 1.41194C42.6909 1.77758 43.3205 2.21272 43.881 2.7763Z" fill="#015799"/>
<path d="M43.9605 32.892C43.0566 33.6686 42.1453 34.2594 41.1156 34.6567C39.8235 35.1554 38.473 35.3261 37.1015 35.3276C31.4101 35.3367 25.7203 35.3291 20.0289 35.3367C19.7846 35.3367 19.7067 35.2838 19.7142 35.0254C19.7352 34.3939 19.7277 33.7593 19.7172 33.1277C19.7142 32.9434 19.7651 32.8678 19.951 32.8905C20.0499 32.9011 20.1503 32.892 20.2493 32.892C27.8143 32.892 35.3792 32.892 42.9427 32.892C43.25 32.892 43.5588 32.892 43.9605 32.892Z" fill="#005799"/>
<path d="M45.3575 14.282C44.9243 14.9105 44.4791 15.4454 44.0085 15.9576C43.298 16.7312 43.2905 16.7251 42.2442 16.7251C36.427 16.7251 30.6097 16.7251 24.791 16.7312C24.6051 16.7312 24.5601 16.6904 24.5631 16.5091C24.5736 15.8563 24.5781 15.2036 24.5601 14.5509C24.5541 14.3152 24.6321 14.2759 24.8449 14.2759C27.0258 14.2835 29.2082 14.2805 31.3892 14.2805C35.9323 14.2805 40.474 14.2805 45.0172 14.2805H45.3575V14.282Z" fill="#005799"/>
<path d="M45.362 21.3697H44.4222C37.9049 21.3697 31.3877 21.3697 24.8704 21.3757C24.6291 21.3757 24.5481 21.3334 24.5586 21.0721C24.5811 20.4707 24.5796 19.8663 24.5586 19.265C24.5496 19.0081 24.6036 18.9296 24.8779 18.9296C27.528 18.9417 30.1795 18.9371 32.8296 18.9371C36.1887 18.9371 39.5462 18.9401 42.9053 18.9326C43.1316 18.9326 43.3025 18.993 43.4644 19.1486C44.1553 19.815 44.7594 20.5508 45.3605 21.3682L45.362 21.3697Z" fill="#01579A"/>
<path d="M8.84398 2.7763C6.13395 2.7763 3.42243 2.77328 0.712405 2.78234C0.463586 2.78234 0.393138 2.71737 0.400632 2.46656C0.418619 1.84406 0.418619 1.22005 0.400632 0.599059C0.394637 0.357312 0.463586 0.298386 0.697416 0.299897C4.19587 0.307451 7.69432 0.305941 11.1913 0.305941C13.1354 0.305941 15.0779 0.310473 17.022 0.298386C17.2723 0.298386 17.3413 0.361845 17.3338 0.614169C17.3158 1.23667 17.3158 1.85917 17.3338 2.48167C17.3398 2.7219 17.2693 2.78083 17.0355 2.77932C14.3045 2.77025 11.5735 2.77328 8.84398 2.77479V2.7763Z" fill="#005799"/>
<path d="M8.84259 4.96713C11.5631 4.96713 14.2851 4.97167 17.0056 4.96109C17.2769 4.96109 17.3414 5.03815 17.3339 5.29652C17.3159 5.89937 17.3159 6.50223 17.3339 7.10509C17.3414 7.35439 17.2724 7.42692 17.0221 7.42692C15.0286 7.41785 13.035 7.42238 11.0415 7.42238C7.603 7.42238 4.1645 7.41936 0.72451 7.42843C0.454707 7.42843 0.390254 7.35439 0.399247 7.093C0.420232 6.50072 0.418733 5.90693 0.399247 5.31465C0.390254 5.04872 0.453208 4.95958 0.738 4.96109C3.08979 4.97318 5.44307 4.96713 7.79486 4.96713C8.1441 4.96713 8.49185 4.96713 8.84109 4.96713H8.84259Z" fill="#005799"/>
<path d="M8.87257 30.6876C6.15205 30.6876 3.43154 30.6845 0.709521 30.6936C0.456206 30.6936 0.393252 30.6271 0.400746 30.3778C0.418733 29.7659 0.415735 29.1525 0.400746 28.5405C0.39475 28.3094 0.453208 28.2323 0.69753 28.2338C2.41228 28.2444 4.12553 28.2399 5.84028 28.2399C9.53808 28.2399 13.2359 28.2399 16.9322 28.2399C17.3909 28.2399 17.3234 28.2081 17.3264 28.6478C17.3294 29.231 17.3159 29.8127 17.3339 30.396C17.3414 30.6392 17.2664 30.6921 17.0341 30.6921C14.3136 30.683 11.5931 30.6861 8.87107 30.6876H8.87257Z" fill="#005799"/>
<path d="M8.84259 35.3321C6.13257 35.3321 3.42104 35.3276 0.71102 35.3382C0.457705 35.3382 0.393252 35.2672 0.400746 35.0209C0.418733 34.3984 0.415735 33.7759 0.400746 33.1534C0.396249 32.9403 0.462201 32.8829 0.670549 32.8829C6.04113 32.8905 11.4132 32.8905 16.7838 32.8935C17.1465 32.8935 17.3279 33.0763 17.3279 33.442C17.3279 33.9738 17.3159 34.5072 17.3324 35.039C17.3399 35.2777 17.268 35.3397 17.0326 35.3382C14.3016 35.3291 11.5721 35.3321 8.84109 35.3321H8.84259Z" fill="#005799"/>
<path d="M56.8076 7.42087C54.2265 7.42087 51.6454 7.41483 49.0643 7.42843C48.778 7.42843 48.7165 7.3423 48.724 7.07487C48.742 6.46295 48.739 5.84951 48.724 5.23759C48.718 5.02002 48.79 4.96109 48.9953 4.96562C49.5034 4.9762 50.0116 4.96713 50.5197 4.96713C54.904 4.96713 59.2898 4.97016 63.6741 4.96109C63.9394 4.96109 64.0533 5.04117 64.1328 5.29652C64.3246 5.90693 64.5435 6.5113 64.7728 7.10811C64.8717 7.36648 64.8268 7.42843 64.551 7.42692C61.9699 7.41785 59.3887 7.42238 56.8076 7.42087Z" fill="#005799"/>
<path d="M79.2927 7.42087C76.7311 7.42087 74.1695 7.42087 71.6093 7.42087C71.2301 7.42087 71.2316 7.42087 71.356 7.07487C71.5719 6.4705 71.7937 5.86916 71.9931 5.25874C72.062 5.04721 72.1504 4.95958 72.3873 4.96109C77.2902 4.96865 82.1931 4.96865 87.0975 4.96109C87.3224 4.96109 87.3853 5.01851 87.3793 5.24665C87.3628 5.87973 87.3628 6.51281 87.3793 7.14437C87.3853 7.37554 87.3164 7.4254 87.096 7.4254C84.4954 7.41785 81.8933 7.42087 79.2927 7.42087Z" fill="#005799"/>
<path d="M55.9488 2.7763C53.6674 2.7763 51.3861 2.7763 49.1047 2.7763C48.8539 2.7763 48.7285 2.64535 48.7285 2.38346C48.7285 1.7806 48.736 1.17774 48.724 0.576396C48.7195 0.373932 48.7645 0.301408 48.9833 0.301408C53.3676 0.307451 57.7504 0.307451 62.1347 0.30443C62.3041 0.30443 62.3926 0.33767 62.4525 0.523513C62.6654 1.18076 62.8947 1.83499 63.1435 2.47865C63.2499 2.75514 63.166 2.78083 62.9142 2.78083C60.5924 2.77176 58.2721 2.7763 55.9502 2.7763H55.9488Z" fill="#005799"/>
<path d="M72.8714 2.77479C73.1592 1.96795 73.4365 1.19738 73.7078 0.425303C73.7393 0.334648 73.7902 0.298386 73.8832 0.30443C73.9431 0.308962 74.0031 0.30443 74.063 0.30443C78.3859 0.30443 82.7087 0.307451 87.0316 0.296875C87.3314 0.296875 87.3898 0.382998 87.3793 0.662518C87.3568 1.27444 87.3614 1.88788 87.3778 2.4998C87.3838 2.72493 87.3239 2.78083 87.1005 2.77932C83.7745 2.77177 80.4469 2.77328 77.1208 2.77328C75.8363 2.77328 74.5517 2.77328 73.2656 2.77328C73.1487 2.77328 73.0318 2.77328 72.8714 2.77328V2.77479Z" fill="#005799"/>
<path d="M60.0348 12.079C57.9828 12.079 55.9308 12.073 53.8773 12.0866C53.6045 12.0881 53.543 12.008 53.5505 11.7512C53.5685 11.1498 53.5685 10.5455 53.5505 9.94411C53.543 9.68272 53.6105 9.60869 53.8803 9.60869C57.5166 9.61926 61.153 9.61473 64.7893 9.61624C65.0666 9.61624 65.3994 9.53616 65.6077 9.66157C65.8221 9.78849 65.828 10.1556 65.924 10.4185C66.0919 10.8794 66.2417 11.3478 66.4216 11.8041C66.516 12.0413 66.4606 12.0866 66.2208 12.0851C64.1583 12.0775 62.0958 12.0806 60.0333 12.0806L60.0348 12.079Z" fill="#005799"/>
<path d="M76.0746 12.079C74.0136 12.079 71.9511 12.076 69.8901 12.0836C69.6683 12.0836 69.5888 12.0685 69.6877 11.8116C69.9366 11.168 70.1584 10.5122 70.3787 9.85799C70.4387 9.68121 70.5196 9.6102 70.716 9.6102C74.5712 9.61624 78.4249 9.61624 82.2801 9.6102C82.4854 9.6102 82.5559 9.66308 82.5514 9.87914C82.5379 10.5213 82.5364 11.1649 82.5529 11.8071C82.5589 12.0443 82.4719 12.0851 82.2606 12.0836C80.1996 12.076 78.1371 12.079 76.0761 12.079H76.0746Z" fill="#005799"/>
<path d="M54.7811 30.6815C52.8685 30.6815 50.9544 30.677 49.0418 30.6876C48.8005 30.6876 48.715 30.6347 48.724 30.3763C48.7435 29.7644 48.7405 29.151 48.724 28.539C48.718 28.2988 48.7885 28.2338 49.0253 28.2353C51.527 28.2429 54.0271 28.2399 56.5288 28.2399C57.8643 28.2399 59.1999 28.2459 60.5354 28.2353C60.7617 28.2338 60.8247 28.3003 60.8187 28.5239C60.8037 29.157 60.8037 29.7901 60.8187 30.4216C60.8232 30.6377 60.7557 30.6876 60.5504 30.686C58.6273 30.6785 56.7042 30.6815 54.7811 30.6815Z" fill="#005799"/>
<path d="M81.3268 30.6815C79.4231 30.6815 77.521 30.6755 75.6189 30.6891C75.3491 30.6906 75.2832 30.6135 75.2907 30.3521C75.3086 29.7402 75.3026 29.1268 75.2922 28.5149C75.2892 28.3139 75.3356 28.2338 75.5545 28.2338C79.4097 28.2399 83.2648 28.2399 87.1215 28.2338C87.3434 28.2338 87.3808 28.3124 87.3778 28.5118C87.3674 29.1449 87.3629 29.778 87.3808 30.4095C87.3868 30.6422 87.3134 30.6891 87.0961 30.6876C85.173 30.6785 83.2499 30.683 81.3283 30.683L81.3268 30.6815Z" fill="#015799"/>
<path d="M54.7721 32.8875C56.7042 32.8875 58.6363 32.8905 60.5699 32.8829C60.7677 32.8829 60.8232 32.9388 60.8202 33.1383C60.8082 33.791 60.8097 34.4437 60.8202 35.0964C60.8232 35.2793 60.7752 35.3382 60.5879 35.3382C56.7132 35.3336 52.8385 35.3336 48.9638 35.3382C48.7855 35.3382 48.721 35.2898 48.724 35.101C48.7345 34.4482 48.736 33.7955 48.724 33.1428C48.721 32.9434 48.778 32.8844 48.9758 32.886C50.9079 32.892 52.84 32.8905 54.7736 32.889L54.7721 32.8875Z" fill="#005799"/>
<path d="M81.3552 32.892C83.2693 32.892 85.182 32.895 87.0961 32.8875C87.3089 32.8875 87.3883 32.9192 87.3808 33.1579C87.3614 33.7895 87.3629 34.4241 87.3808 35.0556C87.3868 35.2868 87.3209 35.3367 87.0991 35.3367C84.1297 35.3291 81.1604 35.3321 78.1895 35.3321C77.3127 35.3321 76.4358 35.3261 75.559 35.3367C75.3476 35.3397 75.2877 35.2747 75.2907 35.0647C75.3027 34.4316 75.3057 33.7985 75.2907 33.167C75.2847 32.9283 75.3746 32.8875 75.5859 32.8875C77.509 32.895 79.4321 32.892 81.3552 32.892Z" fill="#005799"/>
<path d="M68.0794 18.9386C69.9126 18.9386 71.7457 18.9417 73.5789 18.9341C73.8007 18.9341 73.8532 18.9764 73.7738 19.1955C73.5459 19.8271 73.3241 20.4601 73.1217 21.1008C73.0558 21.3108 72.9584 21.3757 72.7425 21.3742C71.2886 21.3652 69.8331 21.3682 68.3792 21.3697C66.7049 21.3697 65.0321 21.3697 63.3578 21.3803C63.148 21.3803 63.0626 21.3062 63.0011 21.1174C62.7928 20.4798 62.5814 19.8422 62.3446 19.2136C62.2502 18.9628 62.3191 18.9311 62.5484 18.9326C64.3921 18.9386 66.2342 18.9356 68.0779 18.9356L68.0794 18.9386Z" fill="#02589B"/>
<path d="M42.9352 26.0369C41.7301 26.0369 40.5235 26.0324 39.3184 26.0415C39.113 26.043 39.0456 25.9946 39.0501 25.7771C39.0651 25.1243 39.0606 24.4716 39.0501 23.8189C39.0471 23.6361 39.098 23.5787 39.2839 23.5787C41.5952 23.5847 43.908 23.5847 46.2193 23.5787C46.3782 23.5787 46.4517 23.627 46.4906 23.7781C46.657 24.4399 46.7694 25.1107 46.8294 25.7907C46.8474 25.9946 46.7769 26.0415 46.5821 26.0415C45.3665 26.0324 44.1509 26.0369 42.9352 26.0369Z" fill="#005799"/>
<path d="M42.9023 9.61473C44.1089 9.61473 45.314 9.61926 46.5206 9.6102C46.729 9.60869 46.8039 9.66761 46.7874 9.88065C46.7395 10.5424 46.6315 11.1936 46.4727 11.8388C46.4292 12.0156 46.3512 12.0836 46.1669 12.0836C43.8751 12.079 41.5817 12.079 39.2899 12.0836C39.1085 12.0836 39.0486 12.0277 39.0516 11.8433C39.0606 11.18 39.0636 10.5168 39.0501 9.85497C39.0456 9.64042 39.134 9.60869 39.3154 9.6102C40.5115 9.61624 41.7076 9.61322 42.9038 9.61322L42.9023 9.61473Z" fill="#01579A"/>
<path d="M68.0629 23.5832C69.358 23.5832 70.653 23.5938 71.9481 23.5772C72.2434 23.5741 72.2449 23.6557 72.1579 23.8914C71.9286 24.5109 71.7143 25.1364 71.5074 25.7635C71.4415 25.9629 71.3515 26.0445 71.1297 26.043C69.0777 26.0339 67.0257 26.0354 64.9737 26.043C64.7683 26.043 64.6739 25.975 64.6109 25.7831C64.3951 25.1259 64.1703 24.4731 63.9334 23.8234C63.8555 23.6089 63.9214 23.5787 64.1193 23.5802C65.4338 23.5877 66.7484 23.5832 68.0644 23.5847L68.0629 23.5832Z" fill="#005799"/>
<path d="M8.84259 23.5832C9.97727 23.5832 11.1134 23.5877 12.2481 23.5787C12.4385 23.5787 12.5059 23.621 12.5014 23.8265C12.4879 24.4882 12.4924 25.1515 12.4999 25.8133C12.5014 25.978 12.4625 26.0415 12.2856 26.04C10.0147 26.0354 7.74389 26.0354 5.47305 26.04C5.29318 26.04 5.23172 25.9871 5.23322 25.8012C5.24222 25.1485 5.24521 24.4958 5.23172 23.8446C5.22723 23.6346 5.28269 23.5741 5.49403 23.5756C6.60922 23.5862 7.72441 23.5802 8.84109 23.5802L8.84259 23.5832Z" fill="#005799"/>
<path d="M28.1905 26.0385C27.0753 26.0385 25.9586 26.0324 24.8434 26.0445C24.6216 26.0475 24.5556 25.9901 24.5601 25.762C24.5766 25.1092 24.5706 24.4565 24.5616 23.8038C24.5586 23.6346 24.6066 23.5802 24.779 23.5817C27.0513 23.5862 29.3222 23.5862 31.5945 23.5817C31.7624 23.5817 31.8178 23.63 31.8148 23.8023C31.8059 24.4746 31.8029 25.1485 31.8148 25.8209C31.8193 26.0249 31.7339 26.0445 31.5675 26.043C30.4418 26.0369 29.3162 26.04 28.1905 26.04V26.0385Z" fill="#025699"/>
<path d="M8.84259 12.079C7.7364 12.079 6.6302 12.073 5.52401 12.0836C5.30967 12.0851 5.22723 12.0443 5.23322 11.8071C5.24971 11.1544 5.24521 10.5016 5.23622 9.84892C5.23322 9.66308 5.29318 9.6102 5.47455 9.61171C7.7364 9.61624 9.99975 9.61624 12.2616 9.61171C12.437 9.61171 12.5059 9.64948 12.5029 9.84288C12.4909 10.5062 12.4894 11.1695 12.5029 11.8313C12.5074 12.0337 12.4445 12.0851 12.2511 12.0836C11.1149 12.076 9.97877 12.079 8.84259 12.079Z" fill="#00579A"/>
<path d="M28.159 12.079C27.0438 12.079 25.9286 12.0745 24.8134 12.0836C24.6216 12.0836 24.5571 12.0382 24.5601 11.8358C24.5721 11.174 24.5706 10.5107 24.5601 9.84892C24.5571 9.66308 24.6126 9.61171 24.7955 9.61171C27.0558 9.61775 29.3162 9.61624 31.5765 9.61171C31.7549 9.61171 31.8193 9.65704 31.8163 9.8459C31.8059 10.5077 31.8059 11.171 31.8163 11.8328C31.8193 12.0307 31.7594 12.0851 31.566 12.0836C30.4314 12.0745 29.2952 12.079 28.1605 12.079H28.159Z" fill="#005799"/>
<path d="M57.2063 23.5832C58.3215 23.5832 59.4352 23.5892 60.5504 23.5787C60.7572 23.5772 60.8232 23.6255 60.8172 23.8416C60.8022 24.4837 60.8052 25.1259 60.8172 25.768C60.8202 25.969 60.7767 26.0445 60.5579 26.043C58.308 26.0354 56.0597 26.0369 53.8098 26.043C53.6224 26.043 53.5475 26.0007 53.552 25.7922C53.5655 25.15 53.5655 24.5079 53.552 23.8657C53.5475 23.6421 53.6075 23.5757 53.8338 23.5787C54.958 23.5908 56.0837 23.5847 57.2078 23.5847L57.2063 23.5832Z" fill="#015699"/>
<path d="M78.9375 26.0385C77.8133 26.0385 76.6876 26.0339 75.5635 26.043C75.3581 26.0445 75.2862 25.9886 75.2907 25.774C75.3027 25.1228 75.3011 24.4701 75.2922 23.8174C75.2892 23.6316 75.3521 23.5802 75.532 23.5802C77.7908 23.5847 80.0512 23.5847 82.31 23.5802C82.4929 23.5802 82.5499 23.6346 82.5469 23.8189C82.5379 24.4716 82.5364 25.1228 82.5499 25.7755C82.5544 25.9856 82.4899 26.046 82.2816 26.0445C81.1664 26.0354 80.0527 26.04 78.9375 26.04V26.0385Z" fill="#005799"/>
<path d="M57.1943 18.9371C58.3005 18.9371 59.4052 18.9462 60.5114 18.9311C60.7677 18.9281 60.8262 19.0066 60.8187 19.2514C60.8007 19.8739 60.8067 20.4964 60.8187 21.1189C60.8217 21.3093 60.7812 21.3803 60.5744 21.3803C58.3335 21.3712 56.0926 21.3682 53.8503 21.3757C53.6105 21.3757 53.546 21.3078 53.552 21.0736C53.567 20.4616 53.567 19.8482 53.552 19.2363C53.546 19.0021 53.6075 18.9296 53.8473 18.9311C54.9625 18.9447 56.0792 18.9371 57.1943 18.9371Z" fill="#01579A"/>
<path d="M8.86058 16.7251C7.72591 16.7251 6.58974 16.7206 5.45506 16.7297C5.29018 16.7297 5.23322 16.6964 5.23622 16.5212C5.24521 15.8488 5.24671 15.1764 5.23622 14.5041C5.23322 14.3077 5.31117 14.2774 5.48204 14.2789C7.7319 14.2835 9.98326 14.285 12.2331 14.2774C12.443 14.2774 12.5059 14.3349 12.5029 14.5479C12.4909 15.2006 12.4924 15.8533 12.5029 16.5045C12.5059 16.6949 12.4445 16.7342 12.2661 16.7327C11.1314 16.7251 9.99525 16.7282 8.86058 16.7282V16.7251Z" fill="#005799"/>
<path d="M8.85308 21.3697C7.7289 21.3697 6.60322 21.3667 5.47904 21.3727C5.31117 21.3727 5.22873 21.3561 5.23322 21.1536C5.24671 20.4919 5.24372 19.8301 5.23622 19.1683C5.23322 18.984 5.29018 18.9311 5.47305 18.9326C7.7319 18.9386 9.99076 18.9401 12.2511 18.9341C12.446 18.9341 12.5059 18.987 12.5014 19.1879C12.4894 19.8301 12.4879 20.4722 12.5014 21.1144C12.5059 21.335 12.4265 21.3788 12.2271 21.3773C11.1029 21.3682 9.97727 21.3727 8.85308 21.3727V21.3697Z" fill="#00579A"/>
<path d="M78.936 21.3697C77.8208 21.3697 76.7041 21.3622 75.5889 21.3757C75.3476 21.3788 75.2847 21.3017 75.2892 21.069C75.3026 20.4465 75.2981 19.824 75.2907 19.2015C75.2892 19.0202 75.3176 18.9326 75.532 18.9326C77.7923 18.9401 80.0542 18.9386 82.3145 18.9326C82.5034 18.9326 82.5499 18.9976 82.5469 19.1758C82.5379 19.818 82.5349 20.4616 82.5469 21.1038C82.5514 21.3168 82.4884 21.3757 82.2786 21.3742C81.1634 21.3652 80.0482 21.3697 78.9315 21.3697H78.936Z" fill="#005799"/>
<path d="M68.0554 28.2384C68.8214 28.2384 69.5888 28.2444 70.3548 28.2338C70.5721 28.2308 70.6365 28.2761 70.5556 28.4997C70.3218 29.1494 70.0984 29.8037 69.8826 30.4594C69.8271 30.6286 69.7447 30.6876 69.5633 30.686C68.568 30.677 67.5728 30.6785 66.576 30.686C66.3946 30.686 66.2957 30.6468 66.2343 30.4534C66.0364 29.8339 65.8101 29.2235 65.5972 28.6085C65.4698 28.2429 65.4728 28.2399 65.843 28.2384C66.5805 28.2384 67.3165 28.2384 68.0539 28.2384H68.0554Z" fill="#005799"/>
<path d="M93.9535 32.6064C94.5351 32.4886 94.7959 32.1894 94.766 31.6757C94.736 31.1847 94.4797 30.9399 93.8801 30.9006C93.4034 30.8704 92.9238 30.8946 92.4456 30.881C92.2748 30.8764 92.2523 30.9565 92.2523 31.1C92.2568 32.0247 92.2568 32.9479 92.2523 33.8726C92.2508 34.0252 92.2928 34.0811 92.4531 34.0796C92.612 34.0781 92.66 34.0267 92.657 33.8711C92.648 33.5205 92.6525 33.1685 92.654 32.8164C92.6555 32.7515 92.6285 32.6759 92.705 32.6276C92.8668 32.5279 93.375 32.6502 93.4769 32.8164C93.6717 33.1322 93.8801 33.4405 94.0525 33.7668C94.1964 34.0373 94.3822 34.1445 94.706 34.0433C94.4077 33.5764 94.1124 33.1156 93.7992 32.6261C93.8771 32.6155 93.9161 32.614 93.9535 32.6064ZM93.2341 32.3058C92.8463 32.2957 92.6525 32.0998 92.6525 31.718C92.6525 31.1711 92.6525 31.168 93.1996 31.1726C93.4379 31.1741 93.6748 31.1529 93.9116 31.2118C94.1964 31.2814 94.3388 31.4566 94.3343 31.7452C94.3298 32.0368 94.1664 32.2136 93.8861 32.2574C93.6718 32.2922 93.4514 32.2906 93.2341 32.3058Z" fill="#05589A"/>
<path d="M93.3 29.6208C91.7517 29.6133 90.4791 30.9082 90.4806 32.4886C90.4821 34.0735 91.7367 35.3352 93.312 35.3336C94.8979 35.3321 96.1345 34.066 96.133 32.4463C96.13 30.8976 94.8574 29.6284 93.3 29.6208ZM93.2865 34.9499C91.939 34.9423 90.9378 33.8696 90.9422 32.4387C90.9467 31.0653 91.972 30.0243 93.315 30.0258C94.6595 30.0288 95.6773 31.088 95.6743 32.4856C95.6728 33.8922 94.6415 34.9574 93.2865 34.9499Z" fill="#05589A"/>
<path d="M68.0809 32.892C68.3297 32.892 68.5785 32.8996 68.8274 32.889C69.0027 32.8814 69.0252 32.9298 68.9653 33.096C68.7209 33.7729 68.4916 34.4558 68.2563 35.1372C68.2248 35.2294 68.2143 35.3291 68.0734 35.3352C67.919 35.3427 67.895 35.2339 67.8591 35.1327C67.6237 34.4528 67.3944 33.7698 67.1546 33.0899C67.0976 32.9267 67.1261 32.8754 67.303 32.8859C67.5608 32.8995 67.8201 32.889 68.0794 32.8905L68.0809 32.892Z" fill="#01579A"/>
<path d="M93.9535 32.6064C94.5351 32.4886 94.7959 32.1894 94.766 31.6757C94.736 31.1847 94.4797 30.9399 93.8801 30.9006C93.4034 30.8704 92.9238 30.8946 92.4456 30.881C92.2748 30.8764 92.2523 30.9565 92.2523 31.1C92.2568 32.0247 92.2568 32.9479 92.2523 33.8726C92.2508 34.0252 92.2928 34.0811 92.4531 34.0796C92.612 34.0781 92.66 34.0267 92.657 33.8711C92.648 33.5205 92.6525 33.1685 92.654 32.8164C92.6555 32.7515 92.6285 32.6759 92.705 32.6276C92.8668 32.5279 93.375 32.6502 93.4769 32.8164C93.6717 33.1322 93.8801 33.4405 94.0525 33.7668C94.1964 34.0373 94.3822 34.1445 94.706 34.0433C94.4077 33.5764 94.1124 33.1156 93.7992 32.6261C93.8771 32.6155 93.9161 32.614 93.9535 32.6064ZM93.2341 32.3058C92.8463 32.2957 92.6525 32.0998 92.6525 31.718C92.6525 31.1711 92.6525 31.168 93.1996 31.1726C93.4379 31.1741 93.6748 31.1529 93.9116 31.2118C94.1964 31.2814 94.3388 31.4566 94.3343 31.7452C94.3298 32.0368 94.1664 32.2136 93.8861 32.2574C93.6718 32.2922 93.4514 32.2906 93.2341 32.3058Z" fill="#FEFEFE"/>
<path d="M93.9535 32.6064C94.5351 32.4886 94.7959 32.1894 94.766 31.6757C94.736 31.1847 94.4797 30.9399 93.8801 30.9006C93.4034 30.8704 92.9238 30.8946 92.4456 30.881C92.2748 30.8764 92.2523 30.9565 92.2523 31.1C92.2568 32.0247 92.2568 32.9479 92.2523 33.8726C92.2508 34.0252 92.2928 34.0811 92.4531 34.0796C92.612 34.0781 92.66 34.0267 92.657 33.8711C92.648 33.5205 92.6525 33.1685 92.654 32.8164C92.6555 32.7515 92.6285 32.6759 92.705 32.6276C92.8668 32.5279 93.375 32.6502 93.4769 32.8164C93.6717 33.1322 93.8801 33.4405 94.0525 33.7668C94.1964 34.0373 94.3822 34.1445 94.706 34.0433C94.4077 33.5764 94.1124 33.1156 93.7992 32.6261C93.8771 32.6155 93.9161 32.614 93.9535 32.6064ZM93.2341 32.3058C92.8463 32.2957 92.6525 32.0998 92.6525 31.718C92.6525 31.1711 92.6525 31.168 93.1996 31.1726C93.4379 31.1741 93.6748 31.1529 93.9116 31.2118C94.1964 31.2814 94.3388 31.4566 94.3343 31.7452C94.3298 32.0368 94.1664 32.2136 93.8861 32.2574C93.6718 32.2922 93.4514 32.2906 93.2341 32.3058Z" fill="#045799"/>
</svg>
