<svg width="102" height="36" viewBox="0 0 102 36" fill="none" xmlns="http://www.w3.org/2000/svg">
<g style="mix-blend-mode:luminosity">
<path d="M0.0635838 35.4494C0.0615408 35.3742 0.0594979 35.299 0.0574549 35.2238C0.208636 34.8641 0.135089 34.4881 0.135089 34.1202C0.139175 23.2899 0.137132 12.4575 0.139175 1.62721C0.139175 0.259449 0.00638008 0.401712 1.31185 0.401712C34.2163 0.39968 67.1228 0.39968 100.027 0.401712C101.371 0.401712 101.228 0.263513 101.231 1.59469C101.233 12.5266 101.231 23.4606 101.231 34.3926C101.231 35.2922 100.78 35.7427 99.8781 35.7441C67.6866 35.7441 35.4972 35.7441 3.30581 35.7441C2.52743 35.7441 1.7511 35.6607 0.968629 35.7339C0.645836 35.7644 0.267883 35.8437 0.0615409 35.4473L0.0635838 35.4494Z" fill="#0070C0"/>
<path d="M0.0635838 35.4494C1.09938 35.9514 2.20648 35.5855 3.2525 35.5876C35.4787 35.6465 67.7048 35.6323 99.931 35.6546C100.893 35.6546 101.149 35.3417 101.147 34.4271C101.122 23.4606 101.112 12.4921 101.159 1.5256C101.163 0.371227 100.564 0.491135 99.8247 0.491135C69.709 0.497232 39.5912 0.4952 9.47545 0.4952C6.78687 0.4952 4.09829 0.533814 1.41176 0.474877C0.471983 0.454553 0.208436 0.728919 0.210479 1.66379C0.241124 12.4616 0.230909 23.2594 0.222737 34.0572C0.222737 34.4474 0.369833 34.8742 0.0552121 35.2238C0.0429541 32.1448 0.0245672 29.0658 0.0225242 25.9848C0.0184382 17.7599 0.0347822 9.53504 5.12973e-05 1.31017C-0.00403469 0.450489 0.234995 0.267578 1.06854 0.267578C34.1466 0.289934 67.2227 0.289934 100.301 0.267578C101.14 0.267578 101.367 0.462683 101.363 1.31626C101.332 12.486 101.33 23.6578 101.363 34.8275C101.365 35.6872 101.134 35.8782 100.301 35.8762C67.19 35.8559 34.0772 35.8619 0.966387 35.8437C0.66811 35.8437 0.075642 36.2115 0.0613411 35.4494H0.0635838Z" fill="#2B668A"/>
<path d="M52.2947 17.9957C52.3254 21.7555 50.597 24.6434 47.5509 25.6088C42.3331 27.2631 37.6832 24.2797 37.5791 18.7253C37.5361 16.4755 37.8058 14.3212 39.3687 12.5551C41.4301 10.222 44.9134 9.44968 48.0637 10.5817C50.5214 11.4637 52.2007 14.0834 52.2927 17.1868C52.3009 17.4571 52.2927 17.7274 52.2927 17.9977L52.2947 17.9957Z" fill="#F4FCFA"/>
<path d="M76.4306 17.1644C77.113 15.3333 77.8669 13.5245 78.4471 11.6609C78.7556 10.6671 79.2295 10.2748 80.2408 10.4496C80.5677 10.5065 80.913 10.4577 81.3829 10.4577C80.5759 12.5998 79.8057 14.6423 79.0375 16.6848C78.7515 18.3838 77.8975 19.8654 77.2008 21.4059C76.3653 23.4992 75.5297 25.5946 74.6961 27.6879C74.12 29.1349 73.4846 30.5433 72.3222 31.6489C71.1965 32.72 69.8318 33.0167 68.369 32.7708C67.2392 32.5818 67.9073 31.6225 67.8235 31.0229C67.7316 30.3604 68.2627 30.6429 68.5917 30.6917C69.9339 30.8868 70.9738 30.3889 71.6092 29.1491C71.9769 28.4338 72.2384 27.6635 72.5469 26.9176C72.9106 26.0214 72.7532 25.1597 72.3855 24.3061C72.0954 23.6313 71.8666 22.9342 71.7399 22.2087C70.6592 19.2069 69.5314 16.2235 68.2791 13.2847C67.7949 12.738 67.6356 12.0287 67.3924 11.3804C67.086 10.5593 67.3618 10.2484 68.2546 10.3358C68.847 10.3947 69.4783 10.1569 70.034 10.5329C70.4038 10.9109 70.5795 11.4007 70.6755 11.8885C71.0412 13.7196 71.8543 15.3943 72.4795 17.1319C73.1046 18.8696 73.5786 20.658 74.3161 22.4018C75.1762 20.6885 75.5746 18.833 76.4306 17.1624V17.1644Z" fill="#F4FCF9"/>
<path d="M16.7977 10.4719C17.7171 10.2199 18.6364 9.97606 19.6048 10.1061C22.1402 10.4455 23.6295 11.9169 23.9359 14.5956C24.3364 18.1013 24.032 21.6295 24.1096 25.1454C24.1178 25.5275 23.9748 25.6515 23.5846 25.6921C21.7213 25.8852 21.6825 25.8649 21.6805 23.9728C21.6784 21.6031 21.6825 19.2334 21.6703 16.8637C21.6682 16.3921 21.6274 15.9166 21.5477 15.4532C21.1697 13.2603 20.232 12.2706 18.4566 12.1588C16.6404 12.045 14.9427 13.2278 14.3441 15.0305C14.1173 15.7113 14.0438 16.4186 14.0438 17.1299C14.0397 19.6683 14.0213 22.2067 14.0601 24.7451C14.0703 25.4198 13.9355 25.8405 13.1857 25.6698C12.6096 25.5397 11.6249 26.2368 11.6412 24.8162C11.6964 20.4162 11.6882 16.0162 11.6412 11.6162C11.631 10.7077 11.8394 10.3033 12.7976 10.4577C13.1632 10.5167 13.5453 10.476 13.9192 10.4801C14.1418 11.039 14.103 11.6426 14.2276 12.2482C14.5586 12.1669 14.7466 11.8946 14.9897 11.7056L14.9836 11.7137C15.3595 10.9678 16.0786 10.7179 16.7998 10.4719H16.7977Z" fill="#F1FCFA"/>
<path d="M32.4757 6.77716C32.0875 7.86039 32.351 8.97818 32.3 10.0797C32.2816 10.4923 32.6023 10.4516 32.872 10.4516C33.4502 10.4537 34.0283 10.4516 34.6065 10.4516C35.6934 10.4537 36.1387 11.1345 35.771 12.1872C35.6443 12.549 35.3767 12.5023 35.1152 12.5063C34.4696 12.5165 33.8179 12.5612 33.1784 12.5023C32.4532 12.4372 32.2632 12.7075 32.2693 13.4087C32.3 17.1624 32.2632 20.9182 32.2959 24.6719C32.302 25.4117 32.1998 25.8202 31.3275 25.7003C30.6247 25.6027 29.7952 26.0153 29.8341 24.6414C29.9362 21.1275 29.8668 17.6075 29.8647 14.0895C29.8647 12.5246 29.8647 12.488 28.3243 12.5307C27.599 12.551 27.3294 12.3945 27.313 11.5999C27.2926 10.6833 27.5316 10.3642 28.4877 10.4272C29.8627 10.5146 29.8647 10.4516 29.8688 9.02695C29.8708 8.01485 29.8055 6.99868 30.1426 6.01706C30.9189 3.75101 33.1253 2.48689 35.5381 2.86694C36.153 2.96449 36.4595 3.15756 36.3839 3.81807C36.3328 4.25299 36.3614 4.69604 36.3553 5.13503C36.0897 5.3972 35.7955 5.22852 35.5136 5.18177C33.9507 4.9257 33.4972 5.13706 32.7453 6.48247C32.68 6.60034 32.586 6.69586 32.4777 6.77716H32.4757Z" fill="#F7FCFA"/>
<path d="M61.0878 16.9836C61.8478 17.3534 62.62 17.6949 63.3616 18.0973C64.7713 18.8635 65.6252 19.9975 65.5823 21.6661C65.5394 23.3021 64.7651 24.5439 63.3085 25.2186C60.7405 26.4075 58.1418 26.4136 55.6003 25.054C55.3613 24.4402 55.541 23.8 55.4838 23.1741C55.4185 22.4729 55.7229 22.418 56.252 22.7595C56.5074 22.9241 56.7689 23.0745 56.9875 23.2879H56.9957C57.7822 23.4769 58.5483 23.7573 59.3614 23.8305C60.3196 23.9159 61.2349 23.8569 62.0827 23.296C62.9367 22.731 63.1818 21.9445 62.6486 21.0686C62.3503 20.5767 61.9683 20.1459 61.5229 19.776C60.4749 19.3004 59.4166 18.8472 58.3808 18.3473C56.3685 17.3758 55.4777 16.0243 55.6391 14.246C55.8025 12.4311 57.0712 11.0552 59.1101 10.4415C60.8303 9.92525 62.5301 9.99841 64.2238 10.541C64.7897 10.7219 65.2922 12.5388 64.8816 12.9616C64.661 13.1872 64.4383 12.9575 64.2421 12.866C63.0123 12.2868 61.7191 12.0389 60.3727 12.2116C58.5156 12.4494 57.7434 13.7135 58.4176 15.3455C59.1204 16.197 60.2031 16.4348 61.0919 16.9856L61.0878 16.9836Z" fill="#F4FCF9"/>
<path d="M88.4679 19.398C87.7876 19.0972 87.1012 18.8106 86.429 18.4956C84.1634 17.4388 83.2052 16.0751 83.3932 14.1932C83.5811 12.3071 85.0337 10.8378 87.283 10.3114C88.6906 9.98215 90.0921 10.0472 91.5059 10.3947C92.3639 10.6061 92.8461 10.9313 92.6438 11.8946C92.5703 12.2441 92.6316 12.6201 92.6316 13.051C91.892 12.9819 91.4037 12.4433 90.752 12.4555C89.659 12.4189 88.5701 12.0308 87.4751 12.549C85.7303 13.3762 85.5362 14.8049 87.0419 15.9735C87.3075 16.1808 87.6038 16.3474 87.8489 16.5812C88.7744 16.9917 89.7101 17.3839 90.6233 17.8188C92.272 18.6074 93.3813 19.7922 93.3344 21.7392C93.2935 23.5094 92.1678 24.93 90.2249 25.5864C88.1901 26.2734 86.1471 26.2266 84.1307 25.4706C83.4667 25.2206 83.0193 23.6395 83.4483 23.0907C83.7159 22.7493 84.0122 23.0074 84.2533 23.1111C85.1256 23.485 85.9714 23.9362 86.9643 23.8915C87.8959 24.1293 88.7785 23.8488 89.61 23.5236C90.8623 23.0359 91.0748 21.6275 90.1248 20.6865C89.6222 20.1886 89.1217 19.6947 88.4659 19.3939L88.4679 19.398Z" fill="#F5FCFA"/>
<path d="M6.73804 18.081C6.73804 20.3125 6.71557 22.544 6.75234 24.7755C6.76256 25.4523 6.61546 25.8039 5.8616 25.6942C5.56128 25.6494 5.2487 25.6637 4.94634 25.6942C4.44784 25.745 4.31097 25.5295 4.31097 25.056C4.32527 20.3898 4.32731 15.7255 4.31097 11.0593C4.31097 10.5492 4.50301 10.4557 4.96472 10.4394C6.73191 10.3744 6.73395 10.3561 6.736 12.0978C6.74008 14.0915 6.736 16.0873 6.736 18.081H6.73804Z" fill="#EBF6F8"/>
<path d="M7.13438 5.04154C7.10986 5.92561 6.34374 6.6288 5.46117 6.58205C4.57247 6.53531 3.96774 5.8748 3.99022 4.97854C4.01269 4.0965 4.69096 3.40551 5.52859 3.41567C6.40299 3.4238 7.1589 4.18999 7.13438 5.04357V5.04154Z" fill="#EAF8F7"/>
<path d="M76.4306 17.1644C75.7564 19.1358 75.0823 21.1092 74.3407 23.2736C73.3702 20.4589 72.4591 17.8371 71.5622 15.2114C71.0514 13.7156 70.5611 12.2116 70.0626 10.7118C69.9809 10.6122 69.9911 10.5248 70.0953 10.4476C70.8676 10.9048 70.9922 11.7422 71.0596 12.4697C71.1577 13.5225 71.6766 14.3761 72.0178 15.3191C72.6777 17.1441 73.548 18.898 73.9341 20.8186C73.9893 21.0909 73.9096 21.5075 74.3611 21.4771C74.7533 21.4506 74.69 21.0686 74.7983 20.7922C75.2845 19.5606 75.5562 18.2274 76.4265 17.1665L76.4306 17.1644Z" fill="#246FA1"/>
<path d="M61.5209 19.774C62.7242 20.3105 63.2431 21.0828 63.1103 22.1457C62.9816 23.1781 62.3299 23.7228 60.9938 23.9179C59.5923 24.1232 58.248 23.989 56.9916 23.2858C58.154 23.1598 59.2082 23.7838 60.3972 23.6984C61.2839 23.6354 61.86 23.1497 62.4137 22.6802C62.8672 22.2961 62.8243 21.6051 62.3279 21.1438C61.9111 20.7576 61.6782 20.2942 61.5188 19.774H61.5209Z" fill="#2975A5"/>
<path d="M87.8489 16.5832C87.1318 16.4104 86.5332 16.0527 86.1451 15.4187C85.2952 14.0326 86.2125 12.4636 88.0777 12.1771C88.9766 12.0389 89.8878 12.108 90.752 12.4575C90.0451 12.4677 89.3362 12.5002 88.6293 12.484C87.9429 12.4677 87.377 12.7461 86.8846 13.1607C86.0776 13.8375 86.0695 14.6382 86.7866 15.3902C87.1543 15.7764 87.6221 16.0751 87.851 16.5852L87.8489 16.5832Z" fill="#2D74A4"/>
<path d="M88.4679 19.398C89.1544 19.5362 89.7366 19.8817 90.2229 20.3593C91.3833 21.4953 90.9992 23.2899 89.4608 23.7675C88.6641 24.0154 87.8142 24.1963 86.9663 23.8955C87.7795 23.8712 88.5762 23.7492 89.3383 23.4647C90.658 22.9708 90.8685 21.7921 89.8368 20.8348C89.3526 20.3857 88.9215 19.8776 88.4659 19.398H88.4679Z" fill="#2A75A5"/>
<path d="M96.4377 11.7401C96.1619 11.9047 96.1128 11.6487 96.0025 11.5084C95.8391 11.2768 95.6797 11.1304 95.5387 11.5247C95.4754 11.7056 95.5796 11.9251 95.4039 12.0795C95.2098 12.0125 95.0178 11.9434 94.8237 11.8763C94.5295 11.5369 94.5029 11.2077 94.8462 10.8601C94.5908 10.7402 94.2312 10.8743 93.984 10.6345C94.0126 10.2829 94.2537 9.95573 94.5479 10.0797C95.2977 10.3968 96.1578 10.0939 96.8605 10.5512C96.8892 11.0065 96.503 11.3174 96.4377 11.7401Z" fill="#1E73A4"/>
<path d="M32.4757 6.77716C32.7617 5.34842 33.6871 4.69198 35.1704 4.88911C35.5687 4.94196 35.959 5.04967 36.3533 5.133C36.1612 5.47443 35.8915 5.5354 35.5095 5.4602C34.4328 5.25087 33.4073 5.196 32.9966 6.5536C32.9374 6.75074 32.6902 6.79342 32.4757 6.77512L32.4757 6.77716Z" fill="#216DA0"/>
<path d="M70.0953 10.4476C70.0851 10.535 70.0749 10.6244 70.0626 10.7118C69.319 10.2138 68.4936 10.5187 67.7071 10.5045C67.231 10.4963 67.4762 10.8845 67.5375 11.104C67.7418 11.8458 68.2055 12.5023 68.2791 13.2888C67.6376 12.9026 67.0901 11.4617 67.1228 10.8215C67.1534 10.2504 67.5334 10.1508 67.8317 10.1793C68.5855 10.2525 69.3782 10.0695 70.0933 10.4476L70.0953 10.4476Z" fill="#2976AA"/>
<path d="M71.7399 22.2128C72.1546 23.2289 72.5714 24.2451 72.9821 25.2633C73.2477 25.9197 72.7921 26.3953 72.5469 26.9217C72.6062 25.9319 72.3651 24.993 72.0259 24.0785C71.8012 23.4728 71.6398 22.8631 71.7379 22.2128H71.7399Z" fill="#2676A7"/>
<path d="M77.2008 21.408C77.7198 19.7983 78.3102 18.2152 79.0375 16.6868C79.3092 18.6013 78.0732 19.9345 77.2008 21.408Z" fill="#2676A8"/>
<path d="M14.9876 11.7056C14.863 12.1791 14.4422 12.4088 14.056 13.0164C13.9988 11.982 13.958 11.23 13.9171 10.478C14.2481 10.6813 14.2277 11.0573 14.3094 11.3601C14.4197 11.7747 14.6587 11.7909 14.9876 11.7035V11.7056Z" fill="#3A7EAA"/>
<path d="M56.9834 23.2879C56.5891 23.1131 56.1948 22.9403 55.729 22.7351C55.4838 23.4952 55.7331 24.2939 55.5982 25.056C55.1059 24.3752 55.5165 23.5602 55.2795 22.8204C55.1978 22.5664 55.5758 22.0969 56.0518 22.4221C56.4011 22.6599 56.871 22.7899 56.9834 23.2879Z" fill="#2975A5"/>
<path d="M61.0878 16.9836C60.0642 16.6482 58.9835 16.4084 58.4135 15.3435C59.2797 15.9308 60.3033 16.2661 61.0878 16.9836Z" fill="#347EAC"/>
<path d="M93.984 10.6345C94.3497 10.6366 94.7236 10.5309 95.1322 10.7077C94.7195 11.0308 94.7665 11.4536 94.8217 11.8783C94.4028 12.2848 94.3967 11.8824 94.411 11.6405C94.4396 11.2178 94.3252 10.8865 93.982 10.6345L93.984 10.6345Z" fill="#89D4F4"/>
<path d="M16.7977 10.4719C16.191 10.8865 15.5862 11.2991 14.9815 11.7137C15.2042 10.7443 15.9213 10.4923 16.7977 10.4719Z" fill="#3A7EAA"/>
<path d="M96.4377 11.7401C96.358 11.2666 96.6154 10.9109 96.8605 10.5512C97.3447 11.0227 97.0465 11.5653 97.0648 12.0531C96.6256 12.2787 97.1282 11.041 96.4397 11.7401H96.4377Z" fill="#A1E4F7"/>
<path d="M95.4019 12.0816V10.5837C95.9106 10.8439 96.0556 11.1162 96.0025 11.5105C95.4427 11.3276 95.9065 12.2076 95.4019 12.0816Z" fill="#B9F4FC"/>
<path d="M49.8962 18.1074C49.835 18.6785 49.8104 19.2557 49.7083 19.8166C49.2139 22.5257 47.6122 23.9809 45.1402 23.9951C42.517 24.0114 40.5455 22.4058 40.141 19.7252C39.8509 17.8006 39.9019 15.8658 41.0746 14.1505C42.2473 12.4332 43.9246 11.9738 45.892 12.238C47.7961 12.4941 48.9217 13.6302 49.4774 15.3983C49.7532 16.2783 49.9044 17.1746 49.8962 18.1034V18.1074Z" fill="#0171C0"/>
</g>
</svg>
