<svg width="124" height="46" viewBox="0 0 124 46" fill="none" xmlns="http://www.w3.org/2000/svg">
<g style="mix-blend-mode:luminosity">
<path d="M52.3484 0.635649C51.0619 0.595101 49.8287 0.883092 48.6121 1.25426C45.119 2.32097 41.8721 3.9439 38.7326 5.76958C27.3715 12.3778 17.1675 20.4488 8.13938 29.9837C5.81062 32.4425 3.64461 35.0407 1.86987 37.9362C1.0164 39.3273 0.239104 40.7599 0.0283469 42.4182C-0.146937 43.7948 0.493683 44.7076 1.86674 44.9665C2.92783 45.1671 3.98057 45.007 5.01662 44.7627C8.08513 44.037 10.9126 42.7093 13.69 41.2683C16.7752 39.6683 19.7342 37.854 22.6305 35.9358C22.7578 35.8516 22.8924 35.6905 23.0374 35.7487C23.2357 35.8277 23.1491 36.0523 23.1501 36.2134C23.1543 37.1304 23.1605 38.0474 23.2388 38.9634C23.436 41.2663 24.7558 42.9121 26.9803 43.5692C28.4399 43.9985 29.9257 44.0464 31.4197 43.7927C33.8414 43.381 35.5316 41.6166 35.83 39.1838C35.9427 38.272 35.927 37.3508 35.9197 36.4328C35.9176 36.1115 35.807 35.9753 35.4586 35.9795C33.9989 35.9951 32.5382 35.9941 31.0775 35.9805C30.7311 35.9774 30.6226 36.1136 30.6289 36.4401C30.6424 37.1845 30.6362 37.9299 30.6299 38.6744C30.6257 39.1422 30.5913 39.609 30.4609 40.0623C30.3451 40.4636 30.0696 40.657 29.6575 40.6737C29.0774 40.6955 28.8239 40.4324 28.7738 39.7068C28.6747 38.2886 28.7498 36.8674 28.7154 35.4472C28.7039 34.9731 28.8667 34.8255 29.3456 34.8317C31.3269 34.8556 33.3092 34.8286 35.2906 34.8515C35.758 34.8567 35.9468 34.7361 35.927 34.2484C35.8957 33.4708 35.9406 32.69 35.9114 31.9112C35.8509 30.2769 35.7392 28.6498 34.7146 27.2587C34.627 27.1402 34.6333 27.0341 34.7428 26.9405C35.6161 26.1993 36.4894 25.458 37.3658 24.7219C37.5067 24.6044 37.6246 24.6117 37.6329 24.8342C37.6381 24.9724 37.6381 25.1107 37.6381 25.249C37.6381 28.263 37.6496 31.277 37.6267 34.2911C37.6225 34.7849 37.7925 34.9138 38.2537 34.9034C39.3659 34.8806 40.4792 34.8723 41.5914 34.9066C42.1277 34.9232 42.2623 34.7319 42.256 34.2183C42.2299 31.984 42.2445 29.7487 42.2445 27.5144C42.2445 25.2635 42.2498 23.0116 42.2404 20.7597C42.2393 20.4436 42.3217 20.2034 42.5555 19.9789C43.3682 19.197 44.1758 18.4089 44.9635 17.6011C47.6898 14.8013 50.3013 11.9037 52.4704 8.64221C53.47 7.1378 54.3954 5.58868 54.8023 3.80043C55.2489 1.83336 54.3631 0.700109 52.3484 0.635649ZM30.3357 30.5326V30.7915C30.3357 31.8801 30.1301 32.0381 29.0336 31.8405C28.779 31.7938 28.7258 31.6451 28.73 31.4424C28.7446 30.6304 28.7529 29.8184 28.7926 29.0085C28.8145 28.5697 29.067 28.3025 29.5292 28.3025C29.9914 28.3025 30.1886 28.5718 30.2324 28.9835C30.2867 29.4982 30.319 30.0149 30.3607 30.5306C30.3524 30.5316 30.344 30.5316 30.3357 30.5326ZM48.0925 8.51641C47.7983 10.0104 47.0127 11.282 46.1936 12.5285C45.144 14.1244 43.9275 15.5945 42.6608 17.0231C42.4887 17.2175 42.3197 17.3058 42.039 17.2913C41.3973 17.2559 40.7536 17.2799 40.1098 17.2799C39.4494 17.2788 38.7879 17.2986 38.1285 17.2705C37.7279 17.2539 37.6256 17.4098 37.6319 17.7851C37.6496 19.0317 37.6173 20.2793 37.6486 21.5259C37.66 21.9709 37.515 22.2693 37.1874 22.551C36.0157 23.5564 34.8524 24.5722 33.7036 25.6046C33.3896 25.8863 33.1413 25.904 32.7396 25.7335C30.5788 24.8165 28.3794 24.7811 26.2019 25.6659C24.2853 26.4436 23.4715 28.0125 23.2451 29.9702C23.1292 30.9724 23.1574 31.9767 23.1574 32.98C23.1574 33.241 23.1032 33.4406 22.8621 33.5914C19.5485 35.6697 16.1711 37.6243 12.4536 38.9166C11.2872 39.3221 10.0967 39.6433 8.84156 39.6225C7.23688 39.5955 6.48253 38.664 6.83102 37.0992C7.22436 35.3349 8.19885 33.8523 9.22969 32.4124C11.7859 28.84 14.868 25.7408 18.1086 22.7953C22.8966 18.4433 28.0215 14.5289 33.5534 11.1572C36.5217 9.34815 39.5683 7.68675 42.8998 6.61588C43.9431 6.28006 45.0063 6.02118 46.1175 6.05445C47.6783 6.10124 48.393 6.98496 48.0925 8.51641Z" fill="#004B75"/>
<path d="M84.4942 26.0796C84.4942 23.3598 84.5046 20.641 84.4848 17.9212C84.4817 17.4378 84.5954 17.2465 85.1181 17.2652C86.1771 17.3036 87.2403 17.3088 88.2993 17.2631C88.8554 17.2392 88.9754 17.4492 88.9556 17.9493C88.9222 18.8143 88.9441 19.6814 88.9493 20.5474C88.9493 20.6982 88.8846 20.8989 89.0213 20.9862C89.1778 21.085 89.2978 20.8947 89.4219 20.8157C90.4872 20.1389 91.6307 19.9746 92.8128 20.4008C93.8729 20.7834 94.5239 21.5195 94.621 22.7058C94.767 24.5055 94.6804 26.3062 94.6971 28.1069C94.7159 30.1676 94.6857 32.2293 94.7128 34.2899C94.719 34.7838 94.5469 34.9137 94.0868 34.9033C93.0267 34.8794 91.9656 34.8773 90.9056 34.9033C90.4204 34.9158 90.2921 34.7359 90.2942 34.2691C90.3119 31.2208 90.3077 28.1724 90.2994 25.1241C90.2973 24.5533 90.2577 23.9815 90.2086 23.4128C90.1805 23.0853 90.0542 22.7983 89.6515 22.7807C89.2581 22.763 89.0787 23.0084 89.0296 23.3473C88.9775 23.7049 88.9514 24.0699 88.9514 24.4317C88.9451 27.688 88.9483 30.9442 88.9472 34.2005C88.9472 34.8877 88.9441 34.8919 88.2534 34.894C87.2455 34.8981 86.2366 34.8971 85.2287 34.894C84.4994 34.8919 84.4973 34.8888 84.4973 34.1329C84.4973 31.4485 84.4973 28.763 84.4973 26.0785L84.4942 26.0796Z" fill="#004B75"/>
<path d="M112.386 22.553C112.359 22.0072 112.167 21.5123 111.773 21.1006C110.635 19.9132 108.681 19.8665 107.381 20.9987C107.218 21.1411 107.109 21.3563 106.88 21.4135C106.759 21.3334 106.793 21.2201 106.791 21.1234C106.778 20.4497 106.779 20.4466 106.105 20.4445C105.063 20.4424 104.018 20.4663 102.976 20.4352C102.461 20.4196 102.3 20.5734 102.303 21.1089C102.325 25.6647 102.316 30.2196 102.316 34.7754C102.316 35.3473 102.33 35.9191 102.312 36.4899C102.3 36.833 102.44 36.9432 102.771 36.9401C103.953 36.9286 105.135 36.9276 106.317 36.9401C106.636 36.9432 106.752 36.8059 106.75 36.5086C106.747 35.9025 106.741 35.2963 106.758 34.6902C106.765 34.4417 106.623 34.083 106.864 33.9739C107.066 33.8824 107.225 34.2327 107.407 34.3824C108.392 35.1892 109.499 35.3681 110.685 34.9615C111.807 34.5779 112.315 33.6983 112.378 32.5734C112.562 29.234 112.551 25.8935 112.386 22.553ZM108.053 27.6682H108.05C108.05 28.8805 108.055 30.0938 108.047 31.306C108.045 31.5816 108.005 31.8581 107.968 32.1315C107.932 32.3821 107.79 32.536 107.522 32.5588C107.237 32.5817 106.992 32.5225 106.889 32.2272C106.832 32.0671 106.797 31.8914 106.792 31.7219C106.725 29.0385 106.733 26.354 106.786 23.6696C106.79 23.5157 106.805 23.3567 106.846 23.208C106.93 22.8992 107.145 22.763 107.469 22.7765C107.787 22.789 107.939 22.9616 107.985 23.2548C108.071 23.8058 108.051 24.361 108.053 24.9141C108.055 25.8321 108.053 26.7502 108.053 27.6682Z" fill="#004B75"/>
<path d="M48.4682 21.5279C49.4072 20.3125 50.6144 19.9652 52.0229 20.2917C53.0621 20.5329 53.7288 21.1879 53.9437 22.2484C54.0919 22.9803 54.118 23.7257 54.119 24.4712C54.1232 27.7431 54.1107 31.016 54.1315 34.2878C54.1347 34.7765 53.974 34.9148 53.5086 34.9044C52.4496 34.8804 51.3885 34.8763 50.3285 34.9064C49.8214 34.921 49.6722 34.737 49.6743 34.2442C49.691 31.0763 49.6848 27.9073 49.6806 24.7394C49.6806 24.2903 49.6524 23.8401 49.6305 23.391C49.6128 23.0406 49.4803 22.789 49.0744 22.7796C48.6873 22.7703 48.5099 22.9844 48.4442 23.3348C48.3513 23.8318 48.3691 24.335 48.368 24.8361C48.3628 27.952 48.366 31.069 48.3649 34.1849C48.3649 34.8908 48.3618 34.895 47.6367 34.8971C46.5766 34.9002 45.5166 34.8867 44.4565 34.9012C44.0621 34.9064 43.9056 34.7796 43.9067 34.3637C43.9181 29.8973 43.9171 25.4298 43.9077 20.9633C43.9077 20.5828 44.0381 20.4383 44.42 20.4424C45.5489 20.4549 46.6799 20.4643 47.8088 20.4362C48.2919 20.4237 48.488 20.5766 48.3993 21.061C48.3753 21.191 48.3524 21.3334 48.4682 21.5279Z" fill="#004B75"/>
<path d="M71.9677 24.0013C71.8039 22.5467 71.0871 21.4686 69.7818 20.8053C68.4954 20.1513 67.114 20.0619 65.7148 20.2688C63.5259 20.5932 62.3031 21.8429 62.0454 24.02C61.8064 26.0369 61.9598 28.0654 61.9389 30.0886C61.9316 30.7654 61.9775 31.4391 62.1184 32.1024C62.4356 33.6016 63.3276 34.5602 64.8322 34.9252C65.959 35.1986 67.1015 35.2381 68.246 35.0676C70.4778 34.7359 71.7997 33.2877 71.9677 31.0576C72.048 30.0023 72.0449 28.948 72.0449 27.6183C72.0052 26.5963 72.1127 25.2967 71.9677 24.0013ZM67.5918 31.4786C67.5908 31.7188 67.6033 31.9631 67.5115 32.195C67.4218 32.4258 67.2715 32.564 67.0065 32.5651C66.7248 32.5661 66.5203 32.4393 66.466 32.1742C66.3972 31.8384 66.3492 31.4911 66.3482 31.148C66.3388 28.8316 66.3398 26.5162 66.3461 24.1998C66.3461 23.9077 66.3888 23.6145 66.4233 23.3223C66.4629 22.9886 66.6309 22.7828 66.9961 22.7807C67.3748 22.7796 67.5178 23.0229 67.5553 23.339C67.5908 23.6467 67.5918 23.9597 67.5929 24.2705C67.5971 25.4111 67.595 26.5526 67.5939 27.6932C67.5939 28.9553 67.596 30.2165 67.5918 31.4786Z" fill="#004B75"/>
<path d="M120.946 25.0711C120.46 25.0711 119.971 25.0493 119.486 25.0773C119.087 25.1002 118.973 24.9359 118.983 24.5616C118.996 24.1479 118.961 23.732 118.929 23.3192C118.903 22.9793 118.719 22.7817 118.358 22.7734C117.998 22.7661 117.765 22.9273 117.657 23.2704C117.38 24.152 117.686 25.0181 118.466 25.5337C119.104 25.9559 119.806 26.2636 120.484 26.615C122.934 27.8865 123.449 28.8638 123.214 31.6159C123.087 33.1068 122.499 34.2358 121.022 34.7786C120.58 34.9408 120.126 35.0572 119.657 35.1029C118.345 35.2319 117.053 35.1684 115.817 34.6569C114.749 34.2161 114.044 33.4696 113.836 32.3041C113.712 31.6023 113.68 30.8954 113.683 30.1842C113.684 29.916 113.797 29.8037 114.05 29.8037C115.11 29.8037 116.17 29.8047 117.23 29.8016C117.513 29.8016 117.636 29.9243 117.634 30.2102C117.63 30.7124 117.629 31.2145 117.659 31.7157C117.696 32.3156 117.913 32.5589 118.359 32.564C118.865 32.5703 119.087 32.3478 119.131 31.7354C119.155 31.409 119.127 31.0794 119.123 30.7509C119.119 30.3308 118.923 30.0314 118.561 29.8235C117.674 29.313 116.812 28.7536 115.901 28.2889C113.192 26.9061 113.253 24.3766 113.945 22.1049C114.193 21.2887 114.919 20.8645 115.694 20.5859C117.143 20.064 118.631 20.0318 120.106 20.4092C121.629 20.799 122.985 21.5767 122.925 23.9514C122.89 25.3435 122.989 25.0347 121.831 25.069C121.535 25.0773 121.24 25.07 120.945 25.069L120.946 25.0711Z" fill="#004B75"/>
<path d="M77.7906 27.531C77.7906 28.8462 77.7708 30.1614 77.799 31.4755C77.8146 32.1918 78.0984 32.5547 78.5304 32.5599C78.9665 32.5651 79.1981 32.248 79.2398 31.4745C79.2764 30.8008 79.2743 30.125 79.2555 29.4502C79.2451 29.077 79.3536 28.92 79.7521 28.9283C80.759 28.9491 81.7679 28.9335 82.7747 28.9377C82.9803 28.9377 83.2275 28.9158 83.2182 29.2298C83.1827 30.3495 83.2714 31.488 82.7987 32.5516C82.228 33.8356 81.2754 34.686 79.8867 34.9917C78.6451 35.2651 77.3962 35.2495 76.1766 34.8825C74.3997 34.3481 73.5932 33.0205 73.4409 31.28C73.2333 28.8981 73.3126 26.509 73.3887 24.1219C73.4607 21.8626 74.9663 20.7845 76.6659 20.3665C78.065 20.0224 79.4621 20.09 80.7934 20.7034C82.0256 21.2711 82.8112 22.1974 83.0377 23.5604C83.143 24.1936 83.2015 24.8288 83.2265 25.4693C83.238 25.7594 83.1639 25.9247 82.8279 25.9215C81.699 25.9111 80.5691 25.9132 79.4402 25.9205C79.1449 25.9226 79.0521 25.7905 79.05 25.5109C79.0458 24.8361 79.0938 24.1603 78.9978 23.4887C78.9425 23.1051 78.8361 22.7557 78.3415 22.7869C77.8689 22.8171 77.8042 23.183 77.8011 23.5344C77.7865 24.8663 77.7959 26.1991 77.7959 27.531C77.7959 27.531 77.7938 27.531 77.7917 27.531H77.7906Z" fill="#004B75"/>
<path d="M55.7727 28.974C55.7727 27.2087 55.7644 25.4423 55.779 23.6769C55.7821 23.2828 55.7133 23.0333 55.2458 23.0936C54.9349 23.1331 54.865 22.9449 54.8692 22.6798C54.8765 22.1953 54.8807 21.7098 54.8681 21.2253C54.8598 20.9197 54.9777 20.7668 55.2928 20.7949C55.6538 20.8271 55.7894 20.6608 55.779 20.3062C55.7686 19.9434 55.7894 19.5795 55.8165 19.2167C55.8781 18.4296 56.3059 17.9067 57.0268 17.6083C57.5141 17.4066 58.0285 17.313 58.5501 17.2964C59.2961 17.2725 60.0442 17.2891 60.7913 17.2735C61.0928 17.2673 61.243 17.3608 61.2326 17.6852C61.218 18.152 61.2149 18.6209 61.2336 19.0867C61.2472 19.4111 61.0803 19.514 60.7975 19.5265C60.5377 19.539 60.2769 19.5535 60.0171 19.567C59.6498 19.5868 59.4506 19.7656 59.4119 20.1441C59.3566 20.6857 59.4286 20.7814 59.9806 20.7918C60.8146 20.8077 61.2316 21.2319 61.2316 22.0643C61.2316 22.2026 61.218 22.343 61.2336 22.4792C61.2879 22.9335 61.1366 23.1695 60.6358 23.0988C60.1308 23.0281 60.1892 23.3941 60.1892 23.7039C60.1892 27.166 60.1892 30.6282 60.1892 34.0913C60.1892 34.625 59.9263 34.8926 59.4005 34.894C58.427 34.895 57.4546 34.896 56.4812 34.894C55.7759 34.8919 55.7748 34.8888 55.7738 34.1662C55.7727 32.4351 55.7738 30.7041 55.7738 28.973L55.7727 28.974Z" fill="#004B75"/>
<path d="M100.751 27.6692C100.751 29.8848 100.737 32.1014 100.761 34.3169C100.766 34.7879 100.598 34.9106 100.162 34.9033C99.0333 34.8836 97.9034 34.8836 96.7745 34.9033C96.3373 34.9106 96.2037 34.738 96.2048 34.3201C96.2142 29.889 96.2163 25.4568 96.2027 21.0257C96.2017 20.5578 96.3884 20.431 96.8235 20.4393C97.918 20.4591 99.0135 20.4643 100.107 20.4372C100.59 20.4258 100.769 20.5568 100.762 21.0756C100.734 23.2735 100.75 25.4724 100.75 27.6713L100.751 27.6692Z" fill="#004B74"/>
<path d="M98.472 17.2787C99.0782 17.2787 99.6854 17.2901 100.292 17.2735C100.615 17.2641 100.772 17.3567 100.756 17.7091C100.734 18.1915 100.738 18.676 100.755 19.1595C100.766 19.4766 100.632 19.5847 100.326 19.5826C99.0949 19.5743 97.8647 19.5743 96.6336 19.5826C96.3498 19.5847 96.2152 19.4755 96.2162 19.1938C96.2173 18.6927 96.2173 18.1926 96.2131 17.6914C96.211 17.3931 96.3331 17.2631 96.6513 17.2735C97.2575 17.2933 97.8648 17.2797 98.4709 17.2787H98.472Z" fill="#004B74"/>
</g>
</svg>
