<svg width="81" height="31" viewBox="0 0 81 31" fill="none" xmlns="http://www.w3.org/2000/svg">
<g style="mix-blend-mode:luminosity">
<path d="M80.091 0.0175781H0V30.6774H80.091V0.0175781Z" fill="#004B8E"/>
<path d="M40.7276 18.5185C30.2974 18.5185 19.8662 18.5185 9.43607 18.5185C8.7963 18.5185 8.79532 18.5165 8.79532 17.8591C8.79532 14.0436 8.80024 10.2282 8.78745 6.41371C8.78646 6.04047 8.85733 5.91439 9.26087 5.91439C30.2374 5.9254 51.2129 5.9254 72.1893 5.91439C72.586 5.91439 72.6677 6.03147 72.6667 6.41071C72.6539 10.2262 72.6588 14.0416 72.6588 17.8561C72.6588 18.2984 72.4459 18.5195 72.02 18.5195C61.5899 18.5195 51.1587 18.5195 40.7285 18.5195L40.7276 18.5185Z" fill="#FBFDFD"/>
<path d="M13.193 22.8814C13.4105 21.9898 13.6192 21.1072 13.8446 20.2286C13.8888 20.0565 13.8948 19.7623 14.1861 19.8624C14.441 19.9505 14.2727 20.1666 14.2324 20.3247C13.9755 21.3374 13.7137 22.349 13.4518 23.3597C13.4085 23.5248 13.4243 23.7249 13.1457 23.7139C12.877 23.7029 12.882 23.4988 12.8396 23.3397C12.5946 22.4111 12.3623 21.4805 12.0886 20.4068C11.8199 21.4404 11.5926 22.338 11.3495 23.2306C11.2993 23.4147 11.3505 23.6879 11.0355 23.7099C10.6959 23.7339 10.7441 23.4357 10.6959 23.2606C10.4223 22.253 10.1693 21.2383 9.91639 20.2256C9.88391 20.0956 9.77662 19.9164 10.002 19.8554C10.2343 19.7924 10.255 19.9735 10.2973 20.1446C10.5237 21.0712 10.7599 21.9968 11.0237 23.0475C11.2884 22.0508 11.5188 21.1713 11.7599 20.2947C11.8121 20.1056 11.7786 19.8344 12.1024 19.8424C12.4262 19.8504 12.376 20.1306 12.4262 20.3137C12.6369 21.0812 12.8288 21.8537 13.0237 22.6252C13.0483 22.7243 13.065 22.8193 13.193 22.8814Z" fill="#F1FAFD"/>
<path d="M27.1064 21.2193C27.1064 20.801 27.1064 20.4688 27.1064 20.1366C27.1064 20.0015 27.0995 19.8504 27.2925 19.8564C27.4421 19.8604 27.4677 19.9765 27.4677 20.1036C27.4677 21.2183 27.4686 22.333 27.4677 23.4467C27.4677 23.5658 27.4657 23.6879 27.3053 23.7029C27.1911 23.7139 27.1182 23.6719 27.1074 23.5448C27.0789 23.2106 26.944 23.4747 26.886 23.5168C26.4214 23.854 25.9401 23.871 25.4667 23.5698C25.0119 23.2796 24.82 22.5411 24.9863 21.8547C25.13 21.2593 25.4696 20.9171 25.9932 20.838C26.3909 20.778 26.7206 20.9501 27.1055 21.2203L27.1064 21.2193Z" fill="#EBF8FB"/>
<path d="M60.9816 21.6696C60.833 22.2419 60.6903 22.8153 60.5318 23.3847C60.4924 23.5278 60.4954 23.7159 60.2454 23.7119C60.0121 23.7079 59.9934 23.5568 59.9452 23.3957C59.7316 22.6822 59.5092 21.9708 59.3034 21.2553C59.2759 21.1572 59.143 20.9981 59.3448 20.9301C59.5347 20.8661 59.6007 21.0071 59.647 21.1622C59.8251 21.7656 60.0052 22.369 60.207 23.0455C60.4718 22.5782 60.4816 22.0938 60.645 21.6646C60.6972 21.5265 60.7227 21.3774 60.7562 21.2313C60.7936 21.0682 60.8123 20.9111 61.0485 20.9131C61.2976 20.9161 61.2838 21.1152 61.3231 21.2553C61.4787 21.8217 61.6165 22.394 61.8546 22.9714C62.022 22.4251 62.1804 21.8757 62.3625 21.3344C62.4216 21.1582 62.4078 20.806 62.7208 20.9401C62.9728 21.0482 62.7356 21.2933 62.6922 21.4494C62.5043 22.1179 62.2739 22.7733 62.0604 23.4337C62.0141 23.5758 61.9905 23.7179 61.7818 23.7099C61.5692 23.7019 61.5682 23.5548 61.5308 23.4097C61.3792 22.8243 61.2218 22.2399 61.0672 21.6556C61.0387 21.6606 61.0101 21.6646 60.9816 21.6696Z" fill="#F0F9FB"/>
<path d="M71.2887 21.1753C71.2887 20.775 71.2887 20.4588 71.2887 20.1436C71.2887 20.0095 71.2769 19.8594 71.4659 19.8494C71.651 19.8394 71.6687 19.9735 71.6687 20.1176C71.6687 21.2333 71.6697 22.348 71.6687 23.4637C71.6687 23.5588 71.6824 23.6809 71.5476 23.6939C71.4728 23.7019 71.3301 23.6779 71.3252 23.6499C71.2504 23.2066 71.0712 23.5398 70.958 23.6048C70.2632 24.0021 69.46 23.6879 69.2248 22.9174C68.9344 21.9668 69.3448 21.0322 70.1244 20.851C70.5427 20.754 70.8842 20.9491 71.2887 21.1753Z" fill="#ECF9FB"/>
<path d="M45.0721 21.1963C45.0721 20.816 45.0681 20.4898 45.074 20.1626C45.076 20.0375 45.0376 19.8644 45.2266 19.8514C45.4244 19.8384 45.3998 20.0095 45.3998 20.1376C45.4018 21.2523 45.4028 22.366 45.3998 23.4807C45.3998 23.5538 45.4333 23.6579 45.327 23.6899C45.2502 23.7129 45.1252 23.7269 45.1095 23.6428C45.0445 23.3026 44.9225 23.4827 44.7689 23.5738C43.9244 24.0751 43.0524 23.6298 42.9274 22.6422C42.8004 21.6366 43.1833 20.9751 43.9599 20.841C44.3624 20.772 44.6853 20.9731 45.0721 21.1963Z" fill="#EEFAFC"/>
<path d="M39.2413 22.4571C39.2413 22.6892 39.2374 22.9224 39.2433 23.1545C39.2453 23.2316 39.2512 23.3356 39.2984 23.3797C39.39 23.4647 39.7236 23.4047 39.4933 23.6579C39.3752 23.7879 39.0799 23.7949 38.9677 23.6058C38.826 23.3657 38.7374 23.4958 38.6006 23.5758C38.261 23.7739 37.9008 23.831 37.5179 23.7119C37.1813 23.6068 36.9933 23.3697 36.9677 23.0254C36.9401 22.6572 37.1006 22.356 37.449 22.2419C37.7876 22.1309 38.1468 22.0838 38.5012 22.0298C38.6803 22.0018 38.8309 21.9548 38.8535 21.7546C38.8772 21.5425 38.8063 21.3614 38.6065 21.2553C38.2699 21.0762 37.7226 21.2133 37.5336 21.5455C37.4559 21.6816 37.3939 21.8567 37.2226 21.7706C37.0159 21.6666 37.1449 21.4805 37.2108 21.3424C37.3959 20.9571 37.9598 20.752 38.5031 20.857C38.9677 20.9471 39.2246 21.2143 39.2187 21.7116C39.2157 21.9608 39.2187 22.2099 39.2187 22.4581C39.2266 22.4581 39.2344 22.4581 39.2423 22.4581L39.2413 22.4571Z" fill="#F1F8FC"/>
<path d="M30.5218 22.8653C30.3072 23.5058 29.883 23.821 29.2944 23.7819C28.6675 23.7409 28.2934 23.4007 28.1458 22.7533C28.0454 22.314 28.0877 21.8927 28.2925 21.4955C28.5671 20.9621 29.1478 20.715 29.7049 20.8811C30.2344 21.0392 30.5986 21.6155 30.5671 22.1879C30.5543 22.4221 30.4234 22.406 30.2738 22.4071C29.7669 22.4091 29.259 22.4191 28.7521 22.4081C28.4923 22.403 28.4529 22.4861 28.5307 22.7313C28.6389 23.0765 28.822 23.3367 29.1763 23.4077C29.5385 23.4807 29.8732 23.3927 30.0602 23.0365C30.1763 22.8143 30.3092 22.7593 30.5228 22.8663L30.5218 22.8653Z" fill="#EDF9FC"/>
<path d="M15.9676 22.409C15.7707 22.409 15.5739 22.407 15.377 22.409C14.9371 22.4131 14.8702 22.5281 15.0729 22.9364C15.3751 23.5458 16.1349 23.6218 16.5109 23.0565C16.628 22.8804 16.7619 22.7203 16.9174 22.8403C17.0956 22.9774 16.8938 23.1595 16.8062 23.2916C16.5414 23.6909 16.1428 23.806 15.691 23.7649C15.2324 23.7239 14.8721 23.5208 14.7058 23.0635C14.4981 22.4911 14.4991 21.9187 14.82 21.3854C15.1113 20.9011 15.7137 20.7059 16.2412 20.9001C16.7117 21.0732 17.069 21.6566 17.0375 22.1639C17.0247 22.37 16.9243 22.4121 16.753 22.409C16.4912 22.404 16.2284 22.408 15.9656 22.408L15.9676 22.409Z" fill="#F1F9FB"/>
<path d="M65.6647 22.292C65.6647 23.2016 65.1421 23.812 64.3812 23.7899C63.6253 23.7689 63.1184 23.1715 63.1233 22.309C63.1283 21.4234 63.6174 20.839 64.3674 20.824C65.1568 20.809 65.6657 21.3834 65.6647 22.292Z" fill="#EAF9FC"/>
<path d="M52.7217 22.372C52.6843 23.2496 52.1499 23.811 51.3851 23.7759C50.641 23.7419 50.1184 23.0945 50.1567 22.2549C50.1971 21.3714 50.7227 20.807 51.4806 20.831C52.265 20.856 52.7601 21.4704 52.7217 22.372Z" fill="#EFF9FC"/>
<path d="M33.8565 20.827C34.2718 20.835 34.6419 20.9431 34.8279 21.3624C34.8762 21.4704 35.0228 21.6426 34.8033 21.7366C34.6577 21.7997 34.5592 21.7146 34.5051 21.5665C34.388 21.2423 34.1242 21.1903 33.8269 21.1973C33.5828 21.2023 33.3535 21.2403 33.3004 21.5295C33.2452 21.8227 33.446 21.9468 33.6793 22.0208C33.8348 22.0708 33.9962 22.0998 34.1547 22.1429C34.7935 22.314 35.008 22.5401 34.9795 23.0084C34.9529 23.4537 34.6783 23.6769 34.0454 23.7679C33.5445 23.84 33.073 23.6048 32.9136 23.1825C32.8742 23.0785 32.7334 22.9294 32.9136 22.8373C33.0651 22.7603 33.198 22.8223 33.26 22.9984C33.4067 23.4157 33.7413 23.4537 34.1035 23.4157C34.3486 23.3897 34.5464 23.2866 34.5868 23.0064C34.6321 22.6972 34.4106 22.6042 34.1862 22.5321C34.0159 22.4781 33.8368 22.4521 33.6626 22.409C33.0415 22.2549 32.8397 22.0138 32.9047 21.5085C32.9569 21.1092 33.3417 20.832 33.8555 20.826L33.8565 20.827Z" fill="#EBF8FB"/>
<path d="M48.6331 23.1385C49.0367 22.375 49.1439 21.5885 49.5632 20.9421C49.5918 20.8981 49.7443 20.9361 49.8999 20.9361C49.4638 22.0758 49.0514 23.1735 48.6223 24.2632C48.5012 24.5724 48.2827 24.8026 47.9185 24.7806C47.8191 24.7746 47.6882 24.7516 47.6754 24.5875C47.6617 24.4023 47.7847 24.4374 47.8949 24.4123C48.2995 24.3203 48.518 23.887 48.3634 23.4587C48.1046 22.7423 47.8241 22.0348 47.5652 21.3193C47.5219 21.1983 47.3369 21.0222 47.577 20.9281C47.8132 20.835 47.8733 21.0472 47.9353 21.2193C48.1587 21.8337 48.3821 22.4481 48.6331 23.1385Z" fill="#EFF9FB"/>
<path d="M24.2432 22.5361C24.2432 22.8523 24.2432 23.1675 24.2432 23.4837C24.2432 23.6098 24.2265 23.7189 24.0592 23.7029C23.9224 23.6899 23.9184 23.5868 23.9174 23.4877C23.9145 22.9894 23.9233 22.4901 23.9106 21.9918C23.8958 21.4064 23.7157 21.1943 23.2629 21.1933C22.7895 21.1933 22.4844 21.4855 22.4607 22.0038C22.4391 22.4681 22.4519 22.9344 22.4479 23.3997C22.447 23.5448 22.4824 23.7219 22.2452 23.7049C22.0395 23.6909 22.0877 23.5248 22.0867 23.4047C22.0828 22.6572 22.0867 21.9087 22.0838 21.1612C22.0838 21.0091 22.1743 20.825 22.2777 20.9351C22.5611 21.2363 22.7491 20.9581 22.9676 20.8831C23.6379 20.6549 24.2373 21.0762 24.2452 21.7887C24.2482 22.0378 24.2452 22.287 24.2452 22.5361H24.2432Z" fill="#EAF8FC"/>
<path d="M21.3298 22.338C21.3298 22.7042 21.3259 23.0705 21.3308 23.4357C21.3338 23.6128 21.2186 23.809 21.1005 23.6869C20.8554 23.4347 20.7088 23.6218 20.508 23.7009C19.7934 23.9811 19.1674 23.5668 19.1399 22.7923C19.1221 22.294 19.1271 21.7937 19.1389 21.2953C19.1418 21.1582 19.0345 20.9331 19.3141 20.9201C19.6005 20.9071 19.507 21.1342 19.5099 21.2753C19.5208 21.7406 19.5218 22.2069 19.5119 22.6732C19.5031 23.0665 19.6015 23.3657 20.0444 23.4187C20.4814 23.4717 20.8092 23.2486 20.9105 22.7963C21.0208 22.305 20.9351 21.8017 20.9666 21.3043C20.9755 21.1642 20.8672 20.9341 21.1409 20.9251C21.4233 20.9161 21.321 21.1492 21.3269 21.2903C21.3397 21.6396 21.3298 21.9888 21.3298 22.338Z" fill="#EFFAFC"/>
<path d="M40.0553 22.286C40.0553 21.9037 40.0573 21.5205 40.0543 21.1382C40.0524 20.9641 40.2256 20.84 40.2797 20.9381C40.5051 21.3504 40.6734 20.9891 40.8417 20.9191C41.5583 20.6209 42.2246 21.0582 42.2305 21.8487C42.2345 22.365 42.2315 22.8804 42.2295 23.3967C42.2295 23.5428 42.2591 23.7209 42.0248 23.7039C41.8221 23.6899 41.8673 23.5258 41.8664 23.4027C41.8614 22.9034 41.8595 22.404 41.8634 21.9047C41.8664 21.5305 41.7551 21.2463 41.3408 21.2003C40.9136 21.1522 40.5976 21.3143 40.4697 21.7466C40.3152 22.267 40.4106 22.8053 40.3791 23.3356C40.3713 23.4647 40.4707 23.6789 40.2463 23.6969C39.9776 23.7189 40.0583 23.4827 40.0553 23.3346C40.0465 22.9854 40.0524 22.6352 40.0524 22.286C40.0534 22.286 40.0543 22.286 40.0553 22.286Z" fill="#EBF8FC"/>
<path d="M55.4698 22.31C55.4698 22.6922 55.4698 23.0735 55.4708 23.4557C55.4708 23.6028 55.3822 23.7999 55.2749 23.6909C54.9786 23.3937 54.7621 23.6769 54.5249 23.7339C53.8231 23.904 53.3123 23.5448 53.2857 22.8133C53.266 22.283 53.2818 21.7506 53.2837 21.2193C53.2837 21.0712 53.2591 20.9061 53.4944 20.9201C53.705 20.9331 53.6558 21.0922 53.6568 21.2123C53.6637 21.7106 53.6705 22.2089 53.6597 22.7072C53.6509 23.0895 53.7729 23.3627 54.1755 23.4177C54.5839 23.4737 54.8812 23.3026 55.0239 22.9074C55.1735 22.4911 55.0948 22.0518 55.1085 21.6225C55.1135 21.4734 55.1085 21.3233 55.1066 21.1743C55.1046 21.0312 55.1174 20.9081 55.3113 20.9191C55.4835 20.9291 55.4698 21.0492 55.4698 21.1642C55.4698 21.5465 55.4698 21.9287 55.4698 22.311V22.31Z" fill="#EEF9FD"/>
<path d="M68.4255 21.8067C68.4255 22.337 68.4295 22.8683 68.4236 23.3987C68.4226 23.5318 68.4816 23.7079 68.2366 23.7159C67.9905 23.7239 68.0358 23.5548 68.0358 23.4147C68.0338 22.32 68.0328 21.2253 68.0377 20.1306C68.0377 20.0035 67.9669 19.8234 68.2208 19.8174C68.4669 19.8114 68.4236 19.9735 68.4236 20.1146C68.4255 20.6779 68.4255 21.2423 68.4255 21.8067Z" fill="#F1FEFE"/>
<path d="M36.2502 23.7789C35.884 23.7709 35.7295 23.5768 35.7275 23.2406C35.7246 22.7423 35.7157 22.2429 35.7275 21.7456C35.7344 21.4584 35.6606 21.2963 35.4008 21.1022C35.2157 20.9641 35.9027 20.9301 35.7374 20.5308C35.6911 20.4198 35.6429 20.1546 35.9057 20.1556C36.1636 20.1566 36.073 20.3907 36.0829 20.5378C36.0966 20.735 36.0504 20.9571 36.3673 20.9211C36.4667 20.9101 36.5681 20.9261 36.5691 21.0672C36.5701 21.2093 36.4697 21.2273 36.3693 21.2153C36.0533 21.1783 36.0848 21.3974 36.0848 21.5975C36.0858 22.0128 36.0799 22.4281 36.0888 22.8433C36.0947 23.1225 35.9864 23.4918 36.4903 23.4297C36.5957 23.4167 36.6321 23.5038 36.5986 23.5948C36.5346 23.7679 36.3683 23.7499 36.2502 23.7789Z" fill="#F1FCFD"/>
<path d="M56.2326 22.314C56.2326 21.9327 56.2414 21.5505 56.2296 21.1693C56.2227 20.9301 56.4393 20.822 56.5101 20.9441C56.6932 21.2583 56.7857 21.0442 56.9294 20.9471C57.0082 20.8941 57.1105 20.8701 57.206 20.852C57.3123 20.832 57.4461 20.782 57.4875 20.9471C57.5219 21.0872 57.5013 21.1983 57.3221 21.2353C56.708 21.3624 56.6066 21.8297 56.6115 22.365C56.6144 22.7132 56.6115 23.0615 56.6115 23.4097C56.6115 23.5638 56.6213 23.7229 56.3959 23.7069C56.1922 23.6919 56.2365 23.5288 56.2345 23.4087C56.2276 23.0435 56.2316 22.6792 56.2326 22.314Z" fill="#E3F4FC"/>
<path d="M66.2631 22.291C66.2631 21.9097 66.2631 21.5275 66.2631 21.1462C66.2631 21.0292 66.3232 20.833 66.4186 20.9331C66.7336 21.2633 66.9354 20.8851 67.1864 20.8641C67.3015 20.854 67.459 20.757 67.5102 20.9611C67.5584 21.1552 67.4413 21.2203 67.2759 21.2543C66.8064 21.3514 66.6558 21.6966 66.645 22.1319C66.6342 22.5631 66.6381 22.9944 66.6322 23.4257C66.6303 23.5568 66.646 23.7009 66.4492 23.7079C66.2434 23.7149 66.2651 23.5668 66.2641 23.4377C66.2612 23.0565 66.2641 22.6742 66.2641 22.293L66.2631 22.291Z" fill="#E8F7FB"/>
<path d="M31.196 22.314C31.196 21.9317 31.2 21.5495 31.1941 21.1672C31.1911 21.0091 31.3004 20.834 31.3939 20.9351C31.6763 21.2403 31.8506 20.9321 32.072 20.8811C32.197 20.852 32.3673 20.731 32.4362 20.9611C32.4933 21.1542 32.3801 21.2133 32.2088 21.2503C31.6842 21.3624 31.5878 21.7866 31.5641 22.2349C31.5444 22.5992 31.5681 22.9664 31.5592 23.3316C31.5553 23.4777 31.6429 23.7099 31.3702 23.6959C31.1094 23.6829 31.2059 23.4547 31.2009 23.3096C31.1891 22.9774 31.197 22.6452 31.197 22.313L31.196 22.314Z" fill="#F0F9FC"/>
<path d="M12.1024 17.4208C11.4469 17.4208 10.7924 17.4088 10.1369 17.4258C9.86029 17.4328 9.76973 17.3448 9.77269 17.0586C9.78548 15.7277 9.78351 14.3969 9.77466 13.066C9.77269 12.8189 9.82485 12.7028 10.0965 12.7168C10.505 12.7368 10.9154 12.7368 11.3239 12.7158C11.5906 12.7018 11.6566 12.8058 11.6506 13.06C11.6369 13.7414 11.6615 14.4249 11.6398 15.1063C11.63 15.4235 11.7097 15.5416 12.0414 15.5286C12.7117 15.5026 13.3849 15.5446 14.0552 15.5116C14.4371 15.4926 14.5385 15.6267 14.507 15.9909C14.4765 16.3541 14.4843 16.7234 14.503 17.0876C14.5158 17.3528 14.4174 17.4328 14.1644 17.4278C13.4764 17.4138 12.7885 17.4228 12.1014 17.4228L12.1024 17.4208Z" fill="#EA1C23"/>
<path d="M9.78056 9.12046C9.78056 8.48905 9.79139 7.85665 9.77564 7.22624C9.76875 6.94406 9.82092 6.81097 10.1447 6.81597C11.4695 6.83398 12.7953 6.83098 14.1201 6.81597C14.4213 6.81297 14.504 6.90503 14.5089 7.21023C14.5355 8.62214 14.5453 8.62214 13.1644 8.62214C12.8534 8.62214 12.5394 8.65116 12.2323 8.61413C11.7766 8.5591 11.5965 8.68818 11.6349 9.19351C11.6841 9.85494 11.6359 10.5224 11.6526 11.1868C11.6595 11.45 11.5749 11.545 11.318 11.523C10.819 11.479 10.1831 11.7301 9.8593 11.4109C9.62603 11.1808 9.78942 10.5314 9.78056 10.0701C9.77466 9.75487 9.77958 9.43867 9.78056 9.12246V9.12046Z" fill="#EB1C22"/>
<path d="M20.1409 17.3958C18.7186 17.4038 17.2963 17.4058 15.8751 17.4238C15.6231 17.4268 15.5769 17.3168 15.5828 17.0966C15.5946 16.6813 15.6005 16.2651 15.5818 15.8508C15.57 15.5856 15.6615 15.5086 15.9164 15.5146C16.57 15.5306 17.2255 15.4946 17.878 15.5286C18.3062 15.5506 18.4853 15.4516 18.4509 14.9712C18.4056 14.3438 18.4528 13.7094 18.4332 13.078C18.4243 12.7918 18.5158 12.7018 18.7934 12.7168C19.2501 12.7418 19.7078 12.7348 20.1655 12.7408C20.3977 12.8499 20.3525 13.07 20.3534 13.2591C20.3603 14.4499 20.3584 15.6407 20.3554 16.8314C20.3554 17.0456 20.3731 17.2707 20.1409 17.3958Z" fill="#EA1C23"/>
<path d="M20.1409 17.3958C20.2718 17.0586 20.1979 16.7074 20.1979 16.3631C20.197 15.1554 20.1773 13.9486 20.1655 12.7408C20.2412 12.3295 20.2196 11.9173 20.1773 11.505C20.0631 11.3669 20.0651 11.1998 20.0651 11.0347C20.0631 9.7979 20.0621 8.5601 20.0651 7.3233C20.0651 7.14018 20.0651 6.95606 20.2393 6.83599C20.4519 6.83098 20.6645 6.82198 20.8781 6.82198C37.6291 6.82198 54.3792 6.82398 71.1303 6.81097C71.584 6.81097 71.6913 6.92905 71.6874 7.38034C71.6618 10.5934 71.6667 13.8065 71.6608 17.0196C71.5919 17.0366 71.5338 17.0186 71.4866 16.9635C71.2986 16.6954 71.3606 16.3852 71.3596 16.092C71.3517 13.4613 71.3576 10.8306 71.3547 8.19887C71.3547 7.35032 71.271 7.26826 70.4226 7.24925C70.2425 7.24525 70.0624 7.24725 69.8813 7.24725C53.8674 7.24725 37.8526 7.24725 21.8387 7.24725C21.0316 7.24725 20.6277 7.65885 20.6271 8.48205C20.6251 9.74587 20.5405 11.0137 20.57 12.2715C20.6025 13.6514 20.5946 15.0323 20.6251 16.4122C20.631 16.6603 20.6418 16.9125 20.5513 17.1527C20.5296 17.2517 20.4794 17.3338 20.4056 17.4018C20.317 17.3998 20.2284 17.3968 20.1399 17.3948L20.1409 17.3958Z" fill="#104678"/>
<path d="M15.0581 10.5194C15.4843 10.5194 15.9115 10.5324 16.3367 10.5144C16.5877 10.5044 16.6802 10.5734 16.6753 10.8456C16.6585 11.6951 16.6585 12.5447 16.6743 13.3932C16.6792 13.6654 16.5847 13.7294 16.3347 13.7254C15.4656 13.7124 14.5965 13.7154 13.7284 13.7254C13.502 13.7284 13.4115 13.6674 13.4144 13.4202C13.4272 12.5547 13.4262 11.6881 13.4144 10.8226C13.4115 10.5754 13.503 10.5094 13.7304 10.5164C14.1723 10.5304 14.6152 10.5204 15.0581 10.5204V10.5194Z" fill="#014B8E"/>
<path d="M71.5801 17.0186C71.6067 17.0186 71.6342 17.0186 71.6608 17.0186C71.7248 17.3048 71.6588 17.4629 71.3242 17.4258C71.0978 17.4008 70.8655 17.4208 70.6362 17.4208C54.0564 17.4208 37.4776 17.4208 20.8977 17.4208C20.7344 17.4208 20.571 17.4098 20.4076 17.4028L20.4125 17.2107C20.5503 17.0386 20.7393 17.0066 20.942 17.0006C21.2531 16.9915 21.5651 16.9925 21.8761 16.9925C37.826 16.9925 53.7749 16.9905 69.7248 16.9986C70.3429 16.9986 70.963 16.8615 71.5801 17.0186Z" fill="#0D4675"/>
<path d="M20.2383 6.83498C20.2353 8.21187 20.2324 9.58776 20.2284 10.9647C20.2284 11.1458 20.254 11.3309 20.1763 11.504C19.7019 11.51 19.2265 11.504 18.7521 11.527C18.4814 11.54 18.4243 11.425 18.4282 11.1768C18.442 10.4613 18.4174 9.74487 18.441 9.0304C18.4519 8.69519 18.3406 8.60913 18.0237 8.62014C17.32 8.64315 16.6152 8.61714 15.9105 8.63115C15.6556 8.63615 15.5611 8.5601 15.5749 8.29393C15.5946 7.91268 15.5946 7.52843 15.5749 7.14619C15.5611 6.87801 15.6615 6.80897 15.9135 6.81197C17.3544 6.82798 18.7964 6.82898 20.2373 6.83398L20.2383 6.83498Z" fill="#B9313A"/>
<path d="M25.319 22.358C25.3151 21.6406 25.6389 21.2023 26.1793 21.1943C26.7226 21.1863 27.0995 21.6446 27.0956 22.31C27.0917 22.9704 26.7442 23.4147 26.2245 23.4247C25.6763 23.4347 25.323 23.0174 25.319 22.358Z" fill="#044B8F"/>
<path d="M71.2956 22.284C71.2956 22.9834 70.9502 23.4297 70.4098 23.4247C69.8803 23.4197 69.5141 22.9764 69.5102 22.335C69.5063 21.6656 69.8763 21.1963 70.4108 21.1923C70.9354 21.1883 71.2956 21.6335 71.2956 22.285V22.284Z" fill="#044A90"/>
<path d="M45.0701 22.283C45.0809 22.9564 44.7128 23.4217 44.1675 23.4247C43.6232 23.4267 43.2817 23.0104 43.2758 22.337C43.2699 21.6696 43.6055 21.2113 44.1144 21.1903C44.6646 21.1672 45.0593 21.6195 45.0701 22.284V22.283Z" fill="#044C93"/>
<path d="M37.95 23.4277C37.6606 23.4377 37.4037 23.3447 37.3585 23.0335C37.3142 22.7323 37.5031 22.5361 37.7984 22.4771C38.0848 22.4201 38.3762 22.383 38.6636 22.331C38.8614 22.296 38.8703 22.4171 38.8762 22.5652C38.8969 23.0695 38.5179 23.4257 37.95 23.4267V23.4277Z" fill="#094D8C"/>
<path d="M28.4982 22.1139C28.5927 21.6175 28.756 21.2473 29.2777 21.1973C29.6596 21.1602 29.948 21.2973 30.1005 21.6696C30.2137 21.9448 30.2295 22.1449 29.825 22.1199C29.4037 22.0939 28.9795 22.1139 28.4982 22.1139Z" fill="#074B8C"/>
<path d="M15.8052 22.1139C15.691 22.1139 15.5759 22.1199 15.4617 22.1129C15.3072 22.1029 15.0906 22.2019 15.0129 22.0458C14.9194 21.8557 15.0709 21.6646 15.1871 21.5075C15.3938 21.2283 15.6792 21.1422 16.0148 21.2053C16.3219 21.2623 16.4834 21.4574 16.5906 21.7466C16.694 22.0228 16.6704 22.1529 16.3436 22.1229C16.1654 22.1069 15.9843 22.1199 15.8042 22.1199C15.8042 22.1179 15.8042 22.1169 15.8042 22.1149L15.8052 22.1139Z" fill="#074C8C"/>
<path d="M65.2887 22.31C65.2868 22.9614 64.9354 23.4157 64.4275 23.4237C63.8487 23.4327 63.4954 22.9904 63.5052 22.274C63.5151 21.6165 63.8586 21.1993 64.395 21.1943C64.9541 21.1883 65.2907 21.6095 65.2887 22.31Z" fill="#064B8C"/>
<path d="M52.3231 22.3C52.327 22.7192 52.2335 23.0945 51.8516 23.3246C51.393 23.6008 50.7837 23.3527 50.6341 22.8203C50.5495 22.5171 50.5268 22.2049 50.6095 21.8897C50.7355 21.4144 51.018 21.1803 51.4806 21.1913C51.9215 21.2023 52.2158 21.4754 52.2955 21.9538C52.3142 22.0678 52.3142 22.1839 52.3231 22.299V22.3Z" fill="#074A8A"/>
<path d="M71.5801 17.0186C71.5378 17.1767 71.4265 17.2107 71.2799 17.2107C62.1893 17.2107 53.0977 17.2157 44.0071 17.2167C36.1419 17.2167 28.2777 17.2127 20.4125 17.2107C20.4115 16.111 20.4558 15.0093 20.3968 13.9126C20.2855 11.8512 20.4706 9.7929 20.4105 7.73357C20.3899 7.02311 20.4076 7.02211 21.1084 7.02211C37.2935 7.02211 53.4786 7.02211 69.6628 7.02311C70.1372 7.02311 70.6155 7.07814 71.087 7.04212C71.4777 7.0121 71.583 7.1722 71.5791 7.52343C71.5712 8.22288 71.5771 8.92233 71.5771 9.62279C71.5771 12.0884 71.5801 14.554 71.5801 17.0186Z" fill="#014A90"/>
<path d="M18.5414 9.94499C18.5414 9.57876 18.5444 9.21252 18.5404 8.84729C18.5365 8.53008 18.3948 8.404 18.069 8.46104C17.4036 8.57911 16.7294 8.49406 16.0601 8.52007C15.7885 8.53008 15.6772 8.408 15.6792 8.13382C15.6861 6.64987 15.5375 6.95306 16.7737 6.92905C17.5926 6.91304 18.4115 6.92704 19.2304 6.92404C20.0759 6.92104 20.072 7.0211 20.0533 7.7896C20.0286 8.82027 20.0336 9.85093 20.0286 10.8806C20.0267 11.2829 19.9145 11.479 19.4981 11.426C19.3692 11.4099 19.2353 11.4109 19.1054 11.423C18.6792 11.464 18.504 11.2759 18.5385 10.8426C18.5621 10.5454 18.5434 10.2442 18.5424 9.94399L18.5414 9.94499Z" fill="#EA1C22"/>
<path d="M59.078 12.2215C59.078 12.8989 59.0662 13.5753 59.084 14.2528C59.0908 14.536 59.0023 14.612 58.7237 14.618C57.5131 14.643 57.5131 14.653 57.5141 13.4082C57.5141 12.2755 57.5249 11.1428 57.5082 10.011C57.5042 9.71084 57.5869 9.6518 57.8841 9.60778C58.7572 9.47769 59.3281 9.76988 59.6991 10.6024C59.9225 11.1037 60.2838 11.542 60.6853 11.9863C60.6853 11.3149 60.6942 10.6424 60.6804 9.97101C60.6755 9.72285 60.7346 9.62879 61.0033 9.61578C62.2602 9.55975 62.2602 9.54974 62.2602 10.8146C62.2602 11.9473 62.2523 13.08 62.2641 14.2118C62.267 14.4989 62.1972 14.587 61.8891 14.625C61.0525 14.7291 60.4649 14.5009 60.0968 13.6704C59.8645 13.1461 59.4875 12.6878 59.1755 12.2005C59.143 12.2075 59.1105 12.2145 59.078 12.2215Z" fill="#FBFDFC"/>
<path d="M49.9146 9.61778C50.8762 9.951 51.1499 10.2662 51.1085 10.9967C51.1056 11.0467 51.1046 11.0967 51.0997 11.1458C51.0613 11.477 50.6272 11.7021 50.6843 11.9263C50.7443 12.1664 51.1262 12.3115 51.2365 12.6327C51.516 13.4433 51.0711 14.2698 50.1991 14.5119C50.0416 14.556 49.8802 14.583 49.7207 14.619C48.8123 14.7511 47.8959 14.607 46.9855 14.6971C46.7739 14.7181 46.6892 14.553 46.6991 14.3719C46.7758 12.978 46.7197 11.5851 46.6882 10.1922C46.6853 10.0601 46.7394 9.93199 46.7335 9.7969C46.7246 9.61978 46.827 9.56675 46.9815 9.57175C47.9599 9.60077 48.9392 9.51071 49.9166 9.61778H49.9146Z" fill="#F9FDFD"/>
<path d="M29.0956 12.0754C29.0956 11.3759 29.0927 10.6765 29.0976 9.97702C29.0986 9.82492 29.0356 9.61878 29.3082 9.62379C30.2413 9.6408 31.1842 9.52272 32.1065 9.67382C33.4726 9.89696 33.9303 11.0117 33.8309 12.2765C33.701 13.9246 32.9795 14.564 31.3496 14.606C30.7265 14.622 30.1035 14.595 29.4805 14.616C29.1822 14.626 29.0799 14.535 29.0887 14.2248C29.1084 13.5093 29.0946 12.7928 29.0956 12.0764V12.0754Z" fill="#FBFDFB"/>
<path d="M28.1803 12.1394C28.1803 12.8219 28.1586 13.5053 28.1891 14.1857C28.2058 14.552 28.0769 14.619 27.7462 14.617C26.5198 14.608 26.5188 14.621 26.5188 13.3782C26.5188 12.9219 26.2951 12.6928 25.8476 12.6908C25.7659 12.6908 25.6822 12.7008 25.6025 12.6878C25.1852 12.6217 25.0041 12.7638 25.0572 13.2231C25.0995 13.5843 25.0592 13.9546 25.068 14.3208C25.073 14.533 24.9942 14.633 24.7806 14.608C24.7649 14.606 24.7482 14.608 24.7314 14.608C23.862 14.6527 23.4273 14.2364 23.4273 13.3592C23.4273 12.2445 23.4361 11.1288 23.4214 10.014C23.4174 9.72285 23.4775 9.58076 23.7974 9.61678C24.2009 9.66181 24.7137 9.44967 24.9834 9.69984C25.2373 9.93499 25.0602 10.4553 25.0572 10.8486C25.0552 11.1428 25.1271 11.2518 25.4371 11.2588C26.5188 11.2829 26.5405 11.2939 26.509 10.1872C26.4962 9.74086 26.5986 9.59377 27.0621 9.60878C28.1812 9.6448 28.1822 9.61878 28.1822 10.7415C28.1822 11.2078 28.1822 11.6731 28.1822 12.1394H28.1803Z" fill="#FDFEFE"/>
<path d="M68.1283 9.61878C67.7848 10.2522 67.2001 10.6655 66.7277 11.1798C66.5121 11.4149 66.4698 11.554 66.6627 11.8342C67.1952 12.6097 67.6873 13.4122 68.1883 14.2098C68.2543 14.3138 68.3763 14.4069 68.3153 14.609C67.7779 14.609 67.2277 14.6 66.6785 14.614C66.4747 14.619 66.3901 14.4979 66.3045 14.3528C66.0427 13.9126 65.7867 13.4693 65.5151 13.036C65.4393 12.9159 65.4236 12.6487 65.205 12.7528C65.0456 12.8299 64.8793 12.972 64.8812 13.2131C64.8852 13.6774 64.8734 14.1427 64.8684 14.607C64.4422 14.7341 63.9983 14.636 63.5663 14.7101C63.3733 14.7431 63.2739 14.621 63.2415 14.4239C63.2178 14.2748 63.2129 14.1267 63.2129 13.9776C63.21 12.6828 63.2267 11.3879 63.2031 10.0931C63.1952 9.68082 63.333 9.51472 63.7434 9.56375C63.9856 9.59277 64.2365 9.59577 64.4777 9.56375C64.893 9.50771 65.0072 9.71385 64.958 10.0761C64.9324 10.2592 64.957 10.4213 65.1115 10.5134C65.3054 10.6284 65.4304 10.4613 65.5092 10.3292C65.9423 9.60478 66.5988 9.47469 67.3566 9.56575C67.6116 9.59677 67.8763 9.51672 68.1283 9.61678V9.61878Z" fill="#FCFDFC"/>
<path d="M42.8319 11.521C42.5563 11.537 42.2256 11.5821 41.9815 11.0717C41.7167 10.5214 40.8595 10.6855 40.6006 11.2909C40.3909 11.7812 40.3988 12.2995 40.5327 12.8058C40.636 13.1941 40.8929 13.4222 41.3152 13.4322C41.7227 13.4413 42.0268 13.2862 42.137 12.8789C42.1941 12.6678 42.2984 12.6227 42.4845 12.6277C42.7955 12.6357 43.1095 12.6527 43.4175 12.6227C43.7827 12.5877 43.7837 12.7748 43.7168 13.04C43.4914 13.9376 42.9116 14.4639 42.0415 14.667C40.7217 14.9752 39.4923 14.3929 39.012 13.2481C38.5031 12.0363 38.8919 10.5524 39.9008 9.85994C40.8841 9.1865 43.0504 9.24854 43.6124 10.8736C43.8181 11.467 43.7935 11.519 43.1961 11.521C43.1144 11.521 43.0327 11.521 42.8299 11.521H42.8319Z" fill="#FBFDFB"/>
<path d="M54.3241 9.62079C55.145 9.62079 55.1469 9.61878 55.4137 10.3733C55.8615 11.6391 56.2956 12.9099 56.7552 14.1707C56.8822 14.518 56.8399 14.656 56.4511 14.613C56.2404 14.589 56.0249 14.599 55.8123 14.612C55.4658 14.633 55.1519 14.629 55.1194 14.1547C55.1105 14.0246 55.0091 13.9576 54.8763 13.9576C54.4826 13.9576 54.0889 13.9596 53.6961 13.9606C53.5702 13.9606 53.4648 13.9926 53.4589 14.1457C53.4393 14.662 53.0859 14.617 52.7326 14.614C51.6853 14.606 51.6873 14.612 52.0436 13.6144C52.4235 12.5527 52.8005 11.489 53.1755 10.4253C53.3644 9.89029 53.7473 9.62212 54.3241 9.62079Z" fill="#FBFDFD"/>
<path d="M34.5445 12.1214C34.5445 11.4069 34.5563 10.6915 34.5386 9.97701C34.5317 9.69483 34.6173 9.61178 34.8949 9.61578C35.9254 9.63179 36.9569 9.63579 37.9874 9.61378C38.3122 9.60678 38.4018 9.70184 38.3978 10.028C38.388 10.8506 38.4037 10.8516 37.6006 10.8546C37.2246 10.8556 36.8466 10.8736 36.4716 10.8486C36.1508 10.8276 36.1439 11.0027 36.1419 11.2458C36.1399 11.494 36.1577 11.6541 36.4736 11.6281C36.8309 11.5991 37.1951 11.6441 37.5524 11.6151C37.8673 11.5891 37.9303 11.7101 37.9293 12.0073C37.9283 12.8549 37.9421 12.8549 37.1203 12.8549C36.472 12.8549 36.1478 13.1834 36.1478 13.8405C36.1478 14.3535 35.8853 14.61 35.3604 14.61C34.8164 14.61 34.5441 14.3295 34.5435 13.7685C34.5435 13.2201 34.5435 12.6708 34.5435 12.1224L34.5445 12.1214Z" fill="#FBFDFC"/>
<path d="M68.1283 9.61878C66.7582 9.39664 65.6578 9.77889 64.9777 11.2668C64.833 10.7015 64.8871 10.3102 64.8901 9.92598C64.8921 9.68783 64.8222 9.62579 64.5889 9.61478C63.3143 9.55574 63.3143 9.54874 63.3133 10.8356C63.3133 11.9653 63.3232 13.095 63.3064 14.2248C63.3015 14.53 63.3852 14.636 63.6913 14.615C64.082 14.588 64.4757 14.607 64.8684 14.607C64.4432 14.8091 63.9757 14.7101 63.5338 14.8041C63.3753 14.8382 63.268 14.7121 63.2109 14.555C63.1411 14.3649 63.1165 14.1717 63.1135 13.9696C63.0919 12.6417 63.1627 11.3129 63.0761 9.98602C63.0554 9.66982 63.2424 9.53373 63.5269 9.52272C63.8212 9.51171 64.1165 9.53773 64.4098 9.51372C64.8497 9.47769 65.0997 9.59177 65.0486 10.1111C65.019 10.4123 65.2169 10.4393 65.4324 10.3002C65.5269 10.2392 65.6381 10.1571 65.6745 10.0581C65.898 9.44567 66.395 9.47369 66.8862 9.52072C67.3005 9.56075 67.7336 9.35261 68.1303 9.61678L68.1283 9.61878Z" fill="#124776"/>
<path d="M49.9146 9.61778C48.9983 9.61979 48.0819 9.63179 47.1656 9.61578C46.8743 9.61078 46.7699 9.67682 46.7739 9.99703C46.7916 11.4099 46.7906 12.8239 46.7739 14.2368C46.7699 14.559 46.8811 14.622 47.1695 14.617C48.0189 14.602 48.8703 14.617 49.7207 14.619C49.5849 14.7461 49.4136 14.7101 49.2532 14.7181C48.5042 14.7541 47.7532 14.667 47.0032 14.7771C46.6705 14.8261 46.6016 14.55 46.6213 14.2798C46.7069 13.104 46.7384 11.9303 46.5898 10.7575C46.5859 10.7245 46.5878 10.6915 46.5859 10.6585C46.5455 9.62179 46.638 9.52172 47.6331 9.52072C48.2217 9.52072 48.8103 9.51872 49.3979 9.52372C49.5741 9.52572 49.7611 9.4837 49.9146 9.61878V9.61778Z" fill="#174571"/>
<path d="M48.954 12.5287C49.0682 12.5287 49.1843 12.5147 49.2955 12.5317C49.5396 12.5687 49.7365 12.6718 49.7365 12.9659C49.7365 13.2341 49.5603 13.3512 49.3369 13.3872C49.1292 13.4202 48.9126 13.3932 48.704 13.4252C48.2994 13.4873 48.3536 13.2161 48.3487 12.9659C48.3437 12.7058 48.3162 12.4446 48.7089 12.5157C48.7876 12.5297 48.8713 12.5177 48.953 12.5177L48.954 12.5287Z" fill="#084A87"/>
<path d="M48.6882 11.6111C48.4786 11.6481 48.3369 11.544 48.3339 11.1498C48.3309 10.7505 48.515 10.7195 48.8063 10.7465C48.9028 10.7555 49.0012 10.7545 49.0977 10.7675C49.3378 10.8005 49.5544 10.8746 49.5652 11.1718C49.576 11.484 49.3457 11.539 49.1115 11.575C49.016 11.5901 48.9176 11.5921 48.6882 11.6101V11.6111Z" fill="#164F89"/>
<path d="M30.7295 12.1144C30.7295 11.9313 30.696 11.7402 30.7374 11.567C30.7915 11.3429 30.5238 11.0017 30.9234 10.9006C31.4549 10.7655 31.9332 10.9707 32.1006 11.3689C32.4224 12.1324 32.1596 13.053 31.5632 13.2521C30.8771 13.4813 30.7305 13.3782 30.7295 12.6628C30.7295 12.4796 30.7295 12.2965 30.7295 12.1134V12.1144Z" fill="#044A8D"/>
<path d="M54.3202 11.3179C54.4698 11.8462 54.6095 12.3435 54.7522 12.8469C54.1118 12.9229 53.874 12.6698 54.0387 12.0874C54.1095 11.8372 54.1272 11.566 54.3202 11.3179Z" fill="#174D87"/>
</g>
</svg>
