<svg width="103" height="35" viewBox="0 0 103 35" fill="none" xmlns="http://www.w3.org/2000/svg">
<g style="mix-blend-mode:luminosity">
<path d="M24.354 11.6492C23.141 11.6492 21.928 11.6402 20.7151 11.6558C20.4222 11.6591 20.2562 11.5701 20.0983 11.3114C18.9058 9.35809 17.1579 8.34804 14.889 8.16762C10.6629 7.83148 7.99155 10.9687 7.69547 14.3844C7.4411 17.3231 8.97878 20.2354 11.5151 21.2826C14.9733 22.7095 18.0748 21.8263 20.1564 18.5449C20.3519 18.2368 20.5474 18.1256 20.9015 18.128C23.2457 18.1429 25.5898 18.1346 27.934 18.1363C28.437 18.1363 28.4484 18.1519 28.3503 18.6503C27.9961 20.4554 27.0907 21.9977 26.0577 23.474C23.7086 26.8296 20.5482 28.9246 16.4856 29.4461C12.3968 29.9709 8.61726 29.0103 5.41185 26.3756C1.48258 23.1478 -0.366727 18.8868 0.0602246 13.783C0.519075 8.29449 4.23241 2.31495 11.646 0.688659C17.9832 -0.701185 26.0446 2.76807 28.3274 11.1368C28.4648 11.6418 28.4574 11.6484 27.952 11.6492C26.7529 11.6509 25.553 11.6492 24.354 11.6492Z" fill="#233F8B"/>
<path d="M65.8959 17.852C65.8231 14.9619 64.6526 12.4788 62.5669 10.4785C60.3512 8.35295 57.7494 7.16413 54.6274 7.37174C53.511 7.44589 52.4608 7.74247 51.53 8.41062C51.0311 8.769 50.5599 9.16115 49.9833 9.63405C49.9833 9.02769 49.9645 8.53749 49.9898 8.04977C50.007 7.71034 49.8966 7.60489 49.5547 7.60654C47.3333 7.62054 45.1126 7.62054 42.892 7.60736C42.5534 7.60489 42.4536 7.70458 42.4536 8.04648C42.4626 16.8131 42.4626 25.5806 42.4536 34.3481C42.4528 34.7204 42.5713 34.8045 42.9198 34.8028C45.1134 34.788 47.3071 34.7847 49.5007 34.8045C49.9097 34.8086 49.9956 34.6718 49.9923 34.2879C49.9759 32.038 49.9833 29.788 49.9866 27.5381C49.9874 27.3807 49.9416 27.2135 50.0569 27.0306C50.3326 27.2629 50.5935 27.496 50.8675 27.7111C51.9283 28.544 53.0889 29.185 54.454 29.2624C56.6117 29.3835 58.6589 28.9444 60.5115 27.7811C64.1561 25.4933 66.0055 22.1698 65.8959 17.852ZM54.189 22.5752C52.3749 22.5925 49.9735 21.1614 49.9915 18.2779C50.0054 16.0041 51.858 14.1274 54.0966 14.1315C56.3949 14.1364 58.3473 16.0387 58.3359 18.2631C58.295 20.5823 56.597 22.5529 54.189 22.5752Z" fill="#233F8B"/>
<path d="M102.615 8.06872C102.616 7.71693 102.52 7.595 102.154 7.59748C99.8786 7.6123 97.6024 7.61395 95.3269 7.59665C94.9507 7.59336 94.8632 7.72517 94.8812 8.07119C94.9065 8.56715 94.8877 9.06559 94.8877 9.66865C94.2865 9.09195 93.7434 8.64048 93.1153 8.30352C91.0263 7.1839 88.8392 7.26793 86.6815 7.93855C84.5059 8.61576 82.6713 9.86225 81.2808 11.7382C79.5624 14.0557 78.7723 16.6698 79.0766 19.5071C79.5371 23.7895 82.466 28.1971 88.0237 29.1569C89.7774 29.4601 91.4991 29.4247 93.0932 28.4649C93.7017 28.0991 94.2604 27.6691 94.8877 27.1294C94.8877 27.7103 94.9098 28.1757 94.8803 28.6379C94.8566 29.0054 94.985 29.1034 95.3416 29.1009C97.6032 29.0861 99.8655 29.0853 102.127 29.1017C102.506 29.1042 102.616 28.9839 102.616 28.6107C102.607 21.7637 102.607 14.9158 102.615 8.06872ZM90.5519 22.6386C88.3435 22.6032 86.3855 20.5996 86.4223 18.413C86.4632 15.9942 88.3902 14.157 90.8398 14.2015C93.0948 14.2427 94.904 16.1606 94.8746 18.4781C94.8452 20.8475 92.9435 22.6773 90.5519 22.6386Z" fill="#233F8B"/>
<path d="M68.734 14.793C68.734 10.2239 68.734 5.65483 68.734 1.08572C68.734 0.714989 68.9202 0.529073 69.2927 0.527974C71.4454 0.527974 73.5982 0.536213 75.7509 0.519736C76.1304 0.51644 76.2654 0.601297 76.2654 1.01323C76.2539 10.2058 76.2548 19.3992 76.2646 28.5918C76.2646 28.9839 76.1599 29.1059 75.7624 29.1026C73.5826 29.0844 71.4021 29.0836 69.2223 29.1026C68.815 29.1059 68.7258 28.9633 68.7267 28.5811C68.7381 23.9848 68.734 19.3885 68.734 14.7914V14.793Z" fill="#233F8B"/>
<path d="M38.7918 18.348C38.7918 21.7505 38.7918 25.1538 38.7918 28.5563C38.7918 29.091 38.7901 29.0927 38.2544 29.0927C36.1147 29.0927 33.9759 29.0844 31.8362 29.1009C31.4518 29.1042 31.3234 29.0053 31.3242 28.5992C31.3397 21.7521 31.343 14.9051 31.3365 8.05801C31.3365 7.69304 31.4387 7.59336 31.7961 7.59583C33.9628 7.61066 36.1294 7.6123 38.2961 7.595C38.6854 7.59171 38.8032 7.69469 38.8016 8.09673C38.786 11.5133 38.7926 14.9298 38.7926 18.3463L38.7918 18.348Z" fill="#233F8B"/>
<path d="M35.0825 5.39202C33.9661 5.39202 32.8496 5.38295 31.7331 5.39861C31.4297 5.40273 31.3348 5.31045 31.3381 5.00316C31.3528 3.65945 31.3512 2.31574 31.3389 0.972032C31.3365 0.684507 31.4338 0.593883 31.7143 0.594707C33.9472 0.602945 36.1802 0.603769 38.4131 0.594707C38.7124 0.593059 38.8187 0.691098 38.8163 0.9951C38.8048 2.33881 38.8057 3.68252 38.8163 5.02622C38.8187 5.31704 38.7092 5.40025 38.4319 5.39778C37.3154 5.38542 36.199 5.39202 35.0825 5.39202Z" fill="#233F8B"/>
</g>
</svg>
