<svg width="96" height="36" viewBox="0 0 96 36" fill="none" xmlns="http://www.w3.org/2000/svg">
<g style="mix-blend-mode:luminosity">
<path d="M67.6885 16.6896C67.8998 16.0883 68.1187 15.4885 68.3195 14.8826C68.3825 14.6922 68.4664 14.6182 68.6762 14.6182C73.071 14.6257 77.4658 14.6257 81.8606 14.6182C82.075 14.6182 82.1589 14.659 82.1529 14.8962C82.1364 15.5292 82.1409 16.1623 82.1499 16.7939C82.1529 16.9933 82.108 17.0734 81.8891 17.0719C79.6468 17.0643 77.4044 17.0643 75.162 17.0719C74.9522 17.0719 74.8877 17.0069 74.8937 16.7984C74.9072 16.3119 74.8982 15.8254 74.8323 15.3253C74.6599 15.8088 74.4755 16.2892 74.3211 16.7788C74.2537 16.9948 74.1622 17.0734 73.9269 17.0719C69.751 17.0643 65.5765 17.0643 61.4006 17.0719C61.1637 17.0719 61.0513 17.01 60.9794 16.7727C60.8295 16.2756 60.6421 15.7906 60.4143 15.3056C60.4143 15.7967 60.4053 16.2877 60.4188 16.7788C60.4248 16.9903 60.3858 17.0704 60.146 17.0689C57.9141 17.0583 55.6807 17.0598 53.4488 17.0689C53.2075 17.0689 53.1476 16.9933 53.1536 16.7622C53.1685 16.1397 53.1656 15.5172 53.1536 14.8947C53.1506 14.6952 53.194 14.6136 53.4144 14.6151C57.8287 14.6212 62.2444 14.6212 66.6587 14.6151C66.8416 14.6151 66.9225 14.671 66.9795 14.8418C67.1848 15.4567 67.4067 16.0671 67.6225 16.6791L67.6885 16.6851V16.6896Z" fill="#005799"/>
<path d="M32.7235 7.76462C28.3691 7.76462 24.0133 7.7616 19.659 7.77218C19.3802 7.77218 19.3067 7.69663 19.3172 7.42315C19.3382 6.82181 19.3382 6.21744 19.3172 5.61609C19.3082 5.3547 19.3967 5.30786 19.6365 5.30786C24.43 5.31542 29.2235 5.3124 34.017 5.3124C37.6938 5.3124 41.3722 5.31542 45.049 5.30635C45.3338 5.30635 45.4717 5.39247 45.5676 5.66293C45.7774 6.25823 45.9858 6.85354 46.1492 7.46395C46.2136 7.70267 46.1672 7.77218 45.9093 7.77218C41.5145 7.76462 37.1198 7.76613 32.725 7.76764L32.7235 7.76462Z" fill="#005799"/>
<path d="M32.7265 28.5821C37.0613 28.5821 41.3961 28.5821 45.7295 28.5821C46.1537 28.5821 46.1582 28.5821 46.0622 29.0142C45.9243 29.6322 45.713 30.226 45.4672 30.8077C45.3937 30.9799 45.2873 31.0358 45.1014 31.0358C36.6011 31.0313 28.1023 31.0313 19.602 31.0358C19.3877 31.0358 19.3082 30.9935 19.3157 30.7578C19.3337 30.1353 19.3337 29.5128 19.3157 28.8903C19.3082 28.6365 19.3847 28.5761 19.632 28.5776C23.9968 28.5851 28.3601 28.5836 32.725 28.5836L32.7265 28.5821Z" fill="#01579C"/>
<path d="M43.4826 3.12005C43.2653 3.12005 43.0479 3.12005 42.8306 3.12005C35.1172 3.12005 27.4053 3.11854 19.692 3.12609C19.4042 3.12609 19.2962 3.07623 19.3127 2.75743C19.3427 2.1455 19.3292 1.53207 19.3172 0.920146C19.3127 0.719193 19.3577 0.645158 19.5765 0.645158C25.3263 0.655734 31.0762 0.640625 36.826 0.670843C38.4883 0.679909 40.1206 0.945831 41.6165 1.75569C42.2925 2.12133 42.922 2.55647 43.4826 3.12005Z" fill="#015799"/>
<path d="M43.5621 33.2357C42.6582 34.0124 41.7469 34.6031 40.7171 35.0005C39.4251 35.4991 38.0746 35.6698 36.7031 35.6713C31.0117 35.6804 25.3218 35.6729 19.6305 35.6804C19.3862 35.6804 19.3082 35.6275 19.3157 35.3692C19.3367 34.7376 19.3292 34.103 19.3187 33.4714C19.3157 33.2871 19.3667 33.2116 19.5526 33.2342C19.6515 33.2448 19.7519 33.2357 19.8508 33.2357C27.4158 33.2357 34.9808 33.2357 42.5443 33.2357C42.8516 33.2357 43.1603 33.2357 43.5621 33.2357Z" fill="#005799"/>
<path d="M44.959 14.6257C44.5259 15.2543 44.0807 15.7891 43.61 16.3013C42.8995 17.0749 42.892 17.0689 41.8458 17.0689C36.0285 17.0689 30.2113 17.0689 24.3925 17.0749C24.2067 17.0749 24.1617 17.0341 24.1647 16.8528C24.1752 16.2001 24.1797 15.5474 24.1617 14.8947C24.1557 14.659 24.2336 14.6197 24.4465 14.6197C26.6274 14.6272 28.8098 14.6242 30.9907 14.6242C35.5339 14.6242 40.0756 14.6242 44.6188 14.6242H44.959V14.6257Z" fill="#005799"/>
<path d="M44.9635 21.7135H44.0237C37.5065 21.7135 30.9892 21.7135 24.472 21.7195C24.2306 21.7195 24.1497 21.6772 24.1602 21.4158C24.1827 20.8145 24.1812 20.2101 24.1602 19.6087C24.1512 19.3519 24.2052 19.2733 24.4795 19.2733C27.1295 19.2854 29.7811 19.2809 32.4312 19.2809C35.7902 19.2809 39.1478 19.2839 42.5068 19.2763C42.7332 19.2763 42.904 19.3368 43.0659 19.4924C43.7569 20.1587 44.361 20.8945 44.962 21.7119L44.9635 21.7135Z" fill="#01579A"/>
<path d="M8.44554 3.12005C5.73551 3.12005 3.02399 3.11703 0.313967 3.12609C0.0651488 3.12609 -0.00529985 3.06112 0.00219469 2.81031C0.0201816 2.18781 0.0201816 1.5638 0.00219469 0.942809C-0.00380094 0.701062 0.0651488 0.642136 0.298978 0.643647C3.79743 0.651201 7.29588 0.649691 10.7928 0.649691C12.7369 0.649691 14.6795 0.654223 16.6236 0.642136C16.8739 0.642136 16.9428 0.705595 16.9354 0.957919C16.9174 1.58042 16.9174 2.20292 16.9354 2.82542C16.9413 3.06565 16.8709 3.12458 16.6371 3.12307C13.9061 3.114 11.175 3.11703 8.44554 3.11854V3.12005Z" fill="#005799"/>
<path d="M8.44415 5.31088C11.1647 5.31088 13.8867 5.31542 16.6072 5.30484C16.8785 5.30484 16.943 5.3819 16.9355 5.64027C16.9175 6.24312 16.9175 6.84598 16.9355 7.44884C16.943 7.69814 16.874 7.77067 16.6237 7.77067C14.6301 7.7616 12.6366 7.76613 10.6431 7.76613C7.20456 7.76613 3.76606 7.76311 0.326073 7.77218C0.0562693 7.77218 -0.00818373 7.69814 0.00080971 7.43675C0.0217944 6.84447 0.0202955 6.25068 0.00080971 5.6584C-0.00818373 5.39247 0.0547704 5.30333 0.339563 5.30484C2.69135 5.31693 5.04463 5.31088 7.39642 5.31088C7.74566 5.31088 8.09341 5.31088 8.44265 5.31088H8.44415Z" fill="#005799"/>
<path d="M8.47413 31.0313C5.75362 31.0313 3.0331 31.0283 0.311083 31.0374C0.0577682 31.0374 -0.00518592 30.9709 0.00230862 30.7216C0.0202955 30.1096 0.0172977 29.4962 0.00230862 28.8843C-0.00368701 28.6531 0.0547704 28.5761 0.299092 28.5776C2.01384 28.5882 3.72709 28.5836 5.44184 28.5836C9.13965 28.5836 12.8375 28.5836 16.5338 28.5836C16.9924 28.5836 16.925 28.5519 16.928 28.9916C16.931 29.5748 16.9175 30.1565 16.9355 30.7397C16.943 30.983 16.868 31.0358 16.6357 31.0358C13.9152 31.0268 11.1946 31.0298 8.47263 31.0313H8.47413Z" fill="#005799"/>
<path d="M8.44415 35.6759C5.73413 35.6759 3.02261 35.6714 0.312582 35.6819C0.0592671 35.6819 -0.00518592 35.6109 0.00230862 35.3646C0.0202955 34.7421 0.0172977 34.1196 0.00230862 33.4971C-0.0021881 33.2841 0.0637638 33.2267 0.272112 33.2267C5.6427 33.2342 11.0148 33.2342 16.3854 33.2373C16.7481 33.2373 16.9295 33.4201 16.9295 33.7857C16.9295 34.3176 16.9175 34.8509 16.934 35.3828C16.9415 35.6215 16.8695 35.6834 16.6342 35.6819C13.9032 35.6729 11.1737 35.6759 8.44266 35.6759H8.44415Z" fill="#005799"/>
<path d="M56.4092 7.76462C53.8281 7.76462 51.247 7.75858 48.6658 7.77218C48.3795 7.77218 48.3181 7.68605 48.3256 7.41862C48.3436 6.8067 48.3406 6.19326 48.3256 5.58134C48.3196 5.36377 48.3915 5.30484 48.5969 5.30937C49.105 5.31995 49.6131 5.31088 50.1213 5.31088C54.5056 5.31088 58.8914 5.31391 63.2757 5.30484C63.541 5.30484 63.6549 5.38492 63.7343 5.64027C63.9262 6.25068 64.1451 6.85505 64.3744 7.45186C64.4733 7.71023 64.4283 7.77218 64.1525 7.77067C61.5714 7.7616 58.9903 7.76613 56.4092 7.76462Z" fill="#005799"/>
<path d="M78.8943 7.76462C76.3327 7.76462 73.771 7.76462 71.2109 7.76462C70.8317 7.76462 70.8332 7.76462 70.9576 7.41862C71.1734 6.81425 71.3953 6.21291 71.5946 5.60249C71.6636 5.39096 71.752 5.30333 71.9888 5.30484C76.8917 5.3124 81.7947 5.3124 86.6991 5.30484C86.9239 5.30484 86.9869 5.36226 86.9809 5.5904C86.9644 6.22348 86.9644 6.85656 86.9809 7.48812C86.9869 7.71929 86.9179 7.76915 86.6976 7.76915C84.097 7.7616 81.4949 7.76462 78.8943 7.76462Z" fill="#005799"/>
<path d="M55.5503 3.12005C53.269 3.12005 50.9876 3.12005 48.7063 3.12005C48.4555 3.12005 48.3301 2.9891 48.3301 2.72721C48.3301 2.12435 48.3376 1.52149 48.3256 0.920146C48.3211 0.717682 48.3661 0.645158 48.5849 0.645158C52.9692 0.651201 57.352 0.651201 61.7363 0.64818C61.9057 0.64818 61.9941 0.68142 62.0541 0.867263C62.2669 1.52451 62.4963 2.17874 62.7451 2.8224C62.8515 3.09889 62.7676 3.12458 62.5157 3.12458C60.1939 3.11551 57.8736 3.12005 55.5518 3.12005H55.5503Z" fill="#005799"/>
<path d="M72.473 3.11854C72.7608 2.3117 73.0381 1.54113 73.3094 0.769053C73.3408 0.678398 73.3918 0.642136 73.4847 0.64818C73.5447 0.652712 73.6047 0.64818 73.6646 0.64818C77.9875 0.64818 82.3103 0.651201 86.6331 0.640625C86.9329 0.640625 86.9914 0.726748 86.9809 1.00627C86.9584 1.61819 86.9629 2.23163 86.9794 2.84355C86.9854 3.06868 86.9254 3.12458 86.7021 3.12307C83.376 3.11552 80.0485 3.11703 76.7224 3.11703C75.4378 3.11703 74.1533 3.11703 72.8672 3.11703C72.7503 3.11703 72.6334 3.11703 72.473 3.11703V3.11854Z" fill="#005799"/>
<path d="M59.6363 12.4228C57.5843 12.4228 55.5323 12.4167 53.4788 12.4303C53.206 12.4319 53.1446 12.3518 53.1521 12.0949C53.17 11.4936 53.17 10.8892 53.1521 10.2879C53.1446 10.0265 53.212 9.95244 53.4818 9.95244C57.1182 9.96301 60.7545 9.95848 64.3909 9.95999C64.6682 9.95999 65.0009 9.87991 65.2093 10.0053C65.4236 10.1322 65.4296 10.4994 65.5255 10.7623C65.6934 11.2231 65.8433 11.6915 66.0232 12.1478C66.1176 12.385 66.0621 12.4303 65.8223 12.4288C63.7598 12.4213 61.6973 12.4243 59.6348 12.4243L59.6363 12.4228Z" fill="#005799"/>
<path d="M75.6761 12.4228C73.6152 12.4228 71.5527 12.4198 69.4917 12.4273C69.2698 12.4273 69.1904 12.4122 69.2893 12.1554C69.5381 11.5117 69.76 10.856 69.9803 10.2017C70.0403 10.025 70.1212 9.95395 70.3176 9.95395C74.1727 9.95999 78.0264 9.95999 81.8816 9.95395C82.087 9.95395 82.1574 10.0068 82.1529 10.2229C82.1394 10.865 82.1379 11.5087 82.1544 12.1508C82.1604 12.388 82.0735 12.4288 81.8621 12.4273C79.8011 12.4198 77.7386 12.4228 75.6777 12.4228H75.6761Z" fill="#005799"/>
<path d="M54.3827 31.0253C52.4701 31.0253 50.556 31.0207 48.6433 31.0313C48.402 31.0313 48.3166 30.9784 48.3256 30.7201C48.3451 30.1081 48.3421 29.4947 48.3256 28.8828C48.3196 28.6425 48.39 28.5776 48.6269 28.5791C51.1285 28.5866 53.6287 28.5836 56.1304 28.5836C57.4659 28.5836 58.8014 28.5897 60.137 28.5791C60.3633 28.5776 60.4263 28.6441 60.4203 28.8677C60.4053 29.5007 60.4053 30.1338 60.4203 30.7654C60.4248 30.9814 60.3573 31.0313 60.152 31.0298C58.2289 31.0222 56.3058 31.0253 54.3827 31.0253Z" fill="#005799"/>
<path d="M80.9283 31.0253C79.0247 31.0253 77.1226 31.0192 75.2205 31.0328C74.9507 31.0343 74.8847 30.9573 74.8922 30.6959C74.9102 30.084 74.9042 29.4705 74.8937 28.8586C74.8907 28.6576 74.9372 28.5776 75.156 28.5776C79.0112 28.5836 82.8664 28.5836 86.7231 28.5776C86.9449 28.5776 86.9824 28.6561 86.9794 28.8556C86.9689 29.4887 86.9644 30.1217 86.9824 30.7533C86.9884 30.986 86.915 31.0328 86.6976 31.0313C84.7745 31.0222 82.8514 31.0268 80.9298 31.0268L80.9283 31.0253Z" fill="#015799"/>
<path d="M54.3737 33.2312C56.3058 33.2312 58.2379 33.2342 60.1714 33.2267C60.3693 33.2267 60.4248 33.2826 60.4218 33.482C60.4098 34.1347 60.4113 34.7875 60.4218 35.4402C60.4248 35.623 60.3768 35.6819 60.1894 35.6819C56.3148 35.6774 52.4401 35.6774 48.5654 35.6819C48.387 35.6819 48.3226 35.6336 48.3256 35.4447C48.3361 34.792 48.3376 34.1393 48.3256 33.4866C48.3226 33.2871 48.3795 33.2282 48.5774 33.2297C50.5095 33.2357 52.4416 33.2342 54.3752 33.2327L54.3737 33.2312Z" fill="#005799"/>
<path d="M80.9568 33.2357C82.8709 33.2357 84.7835 33.2388 86.6976 33.2312C86.9105 33.2312 86.9899 33.2629 86.9824 33.5017C86.9629 34.1332 86.9644 34.7678 86.9824 35.3994C86.9884 35.6306 86.9225 35.6804 86.7006 35.6804C83.7313 35.6729 80.7619 35.6759 77.7911 35.6759C76.9142 35.6759 76.0374 35.6698 75.1605 35.6804C74.9492 35.6834 74.8892 35.6185 74.8922 35.4085C74.9042 34.7754 74.9072 34.1423 74.8922 33.5107C74.8862 33.272 74.9762 33.2312 75.1875 33.2312C77.1106 33.2388 79.0337 33.2357 80.9568 33.2357Z" fill="#005799"/>
<path d="M67.681 19.2824C69.5141 19.2824 71.3473 19.2854 73.1805 19.2778C73.4023 19.2778 73.4548 19.3202 73.3753 19.5392C73.1475 20.1708 72.9257 20.8039 72.7233 21.4445C72.6573 21.6545 72.5599 21.7195 72.3441 21.718C70.8901 21.7089 69.4347 21.7119 67.9808 21.7135C66.3065 21.7135 64.6337 21.7135 62.9594 21.724C62.7496 21.724 62.6641 21.65 62.6027 21.4611C62.3943 20.8235 62.183 20.1859 61.9461 19.5574C61.8517 19.3066 61.9207 19.2748 62.15 19.2763C63.9937 19.2824 65.8358 19.2794 67.6795 19.2794L67.681 19.2824Z" fill="#02589B"/>
<path d="M42.5368 26.3807C41.3317 26.3807 40.1251 26.3762 38.9199 26.3852C38.7146 26.3867 38.6471 26.3384 38.6516 26.1208C38.6666 25.4681 38.6621 24.8154 38.6516 24.1627C38.6486 23.9798 38.6996 23.9224 38.8855 23.9224C41.1968 23.9285 43.5096 23.9285 45.8209 23.9224C45.9798 23.9224 46.0532 23.9708 46.0922 24.1219C46.2586 24.7836 46.371 25.4545 46.431 26.1344C46.4489 26.3384 46.3785 26.3852 46.1836 26.3852C44.968 26.3762 43.7524 26.3807 42.5368 26.3807Z" fill="#005799"/>
<path d="M42.5038 9.95848C43.7104 9.95848 44.9156 9.96301 46.1222 9.95395C46.3305 9.95244 46.4055 10.0114 46.389 10.2244C46.341 10.8862 46.2331 11.5374 46.0742 12.1826C46.0308 12.3593 45.9528 12.4273 45.7684 12.4273C43.4766 12.4228 41.1833 12.4228 38.8915 12.4273C38.7101 12.4273 38.6501 12.3714 38.6531 12.1871C38.6621 11.5238 38.6651 10.8605 38.6516 10.1987C38.6471 9.98417 38.7356 9.95244 38.9169 9.95395C40.1131 9.95999 41.3092 9.95697 42.5053 9.95697L42.5038 9.95848Z" fill="#01579A"/>
<path d="M67.6645 23.927C68.9595 23.927 70.2546 23.9375 71.5497 23.9209C71.8449 23.9179 71.8464 23.9995 71.7595 24.2352C71.5302 24.8547 71.3158 25.4802 71.109 26.1072C71.043 26.3067 70.9531 26.3882 70.7312 26.3867C68.6792 26.3777 66.6272 26.3792 64.5752 26.3867C64.3699 26.3867 64.2755 26.3187 64.2125 26.1269C63.9967 25.4696 63.7718 24.8169 63.535 24.1672C63.4571 23.9526 63.523 23.9224 63.7209 23.9239C65.0354 23.9315 66.3499 23.927 67.666 23.9285L67.6645 23.927Z" fill="#005799"/>
<path d="M8.44415 23.927C9.57883 23.927 10.715 23.9315 11.8497 23.9224C12.04 23.9224 12.1075 23.9647 12.103 24.1702C12.0895 24.832 12.094 25.4953 12.1015 26.1571C12.103 26.3218 12.064 26.3852 11.8871 26.3837C9.6163 26.3792 7.34546 26.3792 5.07461 26.3837C4.89474 26.3837 4.83329 26.3308 4.83479 26.145C4.84378 25.4923 4.84678 24.8396 4.83329 24.1883C4.82879 23.9783 4.88425 23.9179 5.0956 23.9194C6.21078 23.93 7.32597 23.9239 8.44266 23.9239L8.44415 23.927Z" fill="#005799"/>
<path d="M27.7921 26.3822C26.6769 26.3822 25.5602 26.3762 24.445 26.3882C24.2232 26.3913 24.1572 26.3339 24.1617 26.1057C24.1782 25.453 24.1722 24.8003 24.1632 24.1475C24.1602 23.9783 24.2082 23.9239 24.3805 23.9254C26.6529 23.93 28.9237 23.93 31.1961 23.9254C31.3639 23.9254 31.4194 23.9738 31.4164 24.146C31.4074 24.8184 31.4044 25.4923 31.4164 26.1646C31.4209 26.3686 31.3355 26.3882 31.1691 26.3867C30.0434 26.3807 28.9177 26.3837 27.7921 26.3837V26.3822Z" fill="#025699"/>
<path d="M8.44416 12.4228C7.33796 12.4228 6.23177 12.4168 5.12557 12.4273C4.91123 12.4288 4.82879 12.388 4.83479 12.1508C4.85127 11.4981 4.84678 10.8454 4.83778 10.1927C4.83479 10.0068 4.89474 9.95395 5.07611 9.95546C7.33796 9.95999 9.60131 9.95999 11.8632 9.95546C12.0385 9.95546 12.1075 9.99323 12.1045 10.1866C12.0925 10.8499 12.091 11.5132 12.1045 12.175C12.109 12.3775 12.046 12.4288 11.8527 12.4273C10.7165 12.4198 9.58033 12.4228 8.44416 12.4228Z" fill="#00579A"/>
<path d="M27.7606 12.4228C26.6454 12.4228 25.5302 12.4183 24.415 12.4273C24.2232 12.4273 24.1587 12.382 24.1617 12.1795C24.1737 11.5178 24.1722 10.8545 24.1617 10.1927C24.1587 10.0068 24.2142 9.95546 24.397 9.95546C26.6574 9.9615 28.9177 9.95999 31.1781 9.95546C31.3565 9.95546 31.4209 10.0008 31.4179 10.1897C31.4074 10.8514 31.4074 11.5147 31.4179 12.1765C31.4209 12.3744 31.3609 12.4288 31.1676 12.4273C30.0329 12.4183 28.8967 12.4228 27.7621 12.4228H27.7606Z" fill="#005799"/>
<path d="M56.8079 23.927C57.9231 23.927 59.0368 23.933 60.152 23.9224C60.3588 23.9209 60.4248 23.9693 60.4188 24.1853C60.4038 24.8275 60.4068 25.4696 60.4188 26.1117C60.4218 26.3127 60.3783 26.3882 60.1595 26.3867C57.9096 26.3792 55.6612 26.3807 53.4114 26.3867C53.224 26.3867 53.1491 26.3444 53.1536 26.1359C53.167 25.4938 53.167 24.8516 53.1536 24.2095C53.1491 23.9859 53.209 23.9194 53.4354 23.9224C54.5595 23.9345 55.6852 23.9285 56.8094 23.9285L56.8079 23.927Z" fill="#015699"/>
<path d="M78.5391 26.3822C77.4149 26.3822 76.2892 26.3777 75.165 26.3867C74.9597 26.3882 74.8877 26.3323 74.8922 26.1178C74.9042 25.4666 74.9027 24.8139 74.8937 24.1611C74.8907 23.9753 74.9537 23.9239 75.1335 23.9239C77.3924 23.9285 79.6527 23.9285 81.9116 23.9239C82.0945 23.9239 82.1514 23.9783 82.1484 24.1627C82.1394 24.8154 82.1379 25.4666 82.1514 26.1193C82.1559 26.3293 82.0915 26.3898 81.8831 26.3882C80.7679 26.3792 79.6542 26.3837 78.5391 26.3837V26.3822Z" fill="#005799"/>
<path d="M56.7959 19.2809C57.9021 19.2809 59.0068 19.2899 60.113 19.2748C60.3693 19.2718 60.4278 19.3504 60.4203 19.5951C60.4023 20.2176 60.4083 20.8401 60.4203 21.4626C60.4233 21.653 60.3828 21.724 60.1759 21.724C57.9351 21.715 55.6942 21.7119 53.4518 21.7195C53.212 21.7195 53.1476 21.6515 53.1536 21.4173C53.1685 20.8054 53.1685 20.192 53.1536 19.58C53.1476 19.3458 53.209 19.2733 53.4488 19.2748C54.564 19.2884 55.6807 19.2809 56.7959 19.2809Z" fill="#01579A"/>
<path d="M8.46214 17.0689C7.32747 17.0689 6.1913 17.0643 5.05662 17.0734C4.89174 17.0734 4.83479 17.0402 4.83778 16.8649C4.84678 16.1925 4.84828 15.5202 4.83778 14.8478C4.83479 14.6514 4.91273 14.6212 5.0836 14.6227C7.33346 14.6272 9.58482 14.6287 11.8347 14.6212C12.0445 14.6212 12.1075 14.6786 12.1045 14.8916C12.0925 15.5444 12.094 16.1971 12.1045 16.8483C12.1075 17.0387 12.046 17.0779 11.8677 17.0764C10.733 17.0689 9.59682 17.0719 8.46214 17.0719V17.0689Z" fill="#005799"/>
<path d="M8.45465 21.7135C7.33047 21.7135 6.20479 21.7104 5.08061 21.7165C4.91273 21.7165 4.83029 21.6999 4.83479 21.4974C4.84828 20.8356 4.84528 20.1738 4.83778 19.512C4.83479 19.3277 4.89174 19.2748 5.07461 19.2763C7.33346 19.2824 9.59232 19.2839 11.8527 19.2778C12.0475 19.2778 12.1075 19.3307 12.103 19.5317C12.091 20.1738 12.0895 20.816 12.103 21.4581C12.1075 21.6787 12.028 21.7225 11.8287 21.721C10.7045 21.7119 9.57883 21.7165 8.45465 21.7165V21.7135Z" fill="#00579A"/>
<path d="M78.5376 21.7135C77.4224 21.7135 76.3057 21.7059 75.1905 21.7195C74.9492 21.7225 74.8862 21.6455 74.8907 21.4128C74.9042 20.7903 74.8997 20.1678 74.8922 19.5453C74.8907 19.364 74.9192 19.2763 75.1335 19.2763C77.3939 19.2839 79.6557 19.2824 81.9161 19.2763C82.105 19.2763 82.1514 19.3413 82.1484 19.5196C82.1394 20.1617 82.1364 20.8054 82.1484 21.4475C82.1529 21.6606 82.09 21.7195 81.8801 21.718C80.7649 21.7089 79.6497 21.7135 78.5331 21.7135H78.5376Z" fill="#005799"/>
<path d="M67.657 28.5821C68.4229 28.5821 69.1904 28.5881 69.9563 28.5776C70.1737 28.5745 70.2381 28.6199 70.1572 28.8435C69.9233 29.4932 69.7 30.1474 69.4842 30.8032C69.4287 30.9724 69.3463 31.0313 69.1649 31.0298C68.1696 31.0207 67.1743 31.0222 66.1776 31.0298C65.9962 31.0298 65.8973 30.9905 65.8358 30.7971C65.638 30.1776 65.4116 29.5672 65.1988 28.9523C65.0714 28.5866 65.0744 28.5836 65.4446 28.5821C66.1821 28.5821 66.918 28.5821 67.6555 28.5821H67.657Z" fill="#005799"/>
<path d="M93.5551 32.9502C94.1367 32.8323 94.3975 32.5332 94.3675 32.0195C94.3375 31.5284 94.0812 31.2836 93.4817 31.2443C93.005 31.2141 92.5254 31.2383 92.0472 31.2247C91.8763 31.2202 91.8538 31.3003 91.8538 31.4438C91.8583 32.3685 91.8583 33.2916 91.8538 34.2163C91.8523 34.3689 91.8943 34.4248 92.0547 34.4233C92.2136 34.4218 92.2616 34.3704 92.2586 34.2148C92.2496 33.8643 92.2541 33.5122 92.2556 33.1602C92.257 33.0952 92.2301 33.0197 92.3065 32.9713C92.4684 32.8716 92.9765 32.994 93.0785 33.1602C93.2733 33.476 93.4817 33.7842 93.654 34.1106C93.7979 34.381 93.9838 34.4883 94.3076 34.3871C94.0093 33.9202 93.714 33.4594 93.4007 32.9698C93.4787 32.9592 93.5176 32.9577 93.5551 32.9502ZM92.8356 32.6495C92.4479 32.6394 92.2541 32.4435 92.2541 32.0618C92.2541 31.5148 92.2541 31.5118 92.8012 31.5163C93.0395 31.5178 93.2763 31.4967 93.5131 31.5556C93.7979 31.6251 93.9403 31.8004 93.9358 32.089C93.9313 32.3806 93.768 32.5573 93.4877 32.6012C93.2733 32.6359 93.053 32.6344 92.8356 32.6495Z" fill="#05589A"/>
<path d="M92.9016 29.9646C91.3532 29.957 90.0806 31.2519 90.0821 32.8323C90.0836 34.4173 91.3382 35.6789 92.9136 35.6774C94.4994 35.6759 95.736 34.4097 95.7345 32.79C95.7315 31.2413 94.459 29.9722 92.9016 29.9646ZM92.8881 35.2936C91.5406 35.2861 90.5393 34.2133 90.5438 32.7825C90.5483 31.409 91.5736 30.368 92.9166 30.3695C94.2611 30.3725 95.2789 31.4317 95.2759 32.8293C95.2744 34.236 94.2431 35.3012 92.8881 35.2936Z" fill="#05589A"/>
<path d="M67.6825 33.2357C67.9313 33.2357 68.1801 33.2433 68.4289 33.2327C68.6043 33.2252 68.6268 33.2735 68.5668 33.4397C68.3225 34.1166 68.0932 34.7995 67.8578 35.481C67.8264 35.5731 67.8159 35.6729 67.675 35.6789C67.5206 35.6865 67.4966 35.5777 67.4606 35.4764C67.2253 34.7965 66.996 34.1136 66.7561 33.4337C66.6992 33.2705 66.7277 33.2191 66.9045 33.2297C67.1623 33.2433 67.4217 33.2327 67.681 33.2342L67.6825 33.2357Z" fill="#01579A"/>
<path d="M93.5551 32.9502C94.1367 32.8323 94.3975 32.5332 94.3675 32.0195C94.3375 31.5284 94.0812 31.2836 93.4817 31.2443C93.005 31.2141 92.5254 31.2383 92.0472 31.2247C91.8763 31.2202 91.8538 31.3003 91.8538 31.4438C91.8583 32.3685 91.8583 33.2916 91.8538 34.2163C91.8523 34.3689 91.8943 34.4248 92.0547 34.4233C92.2136 34.4218 92.2616 34.3704 92.2586 34.2148C92.2496 33.8643 92.2541 33.5122 92.2556 33.1602C92.257 33.0952 92.2301 33.0197 92.3065 32.9713C92.4684 32.8716 92.9765 32.994 93.0785 33.1602C93.2733 33.476 93.4817 33.7842 93.654 34.1106C93.7979 34.381 93.9838 34.4883 94.3076 34.3871C94.0093 33.9202 93.714 33.4594 93.4007 32.9698C93.4787 32.9592 93.5176 32.9577 93.5551 32.9502ZM92.8356 32.6495C92.4479 32.6394 92.2541 32.4435 92.2541 32.0618C92.2541 31.5148 92.2541 31.5118 92.8012 31.5163C93.0395 31.5178 93.2763 31.4967 93.5131 31.5556C93.7979 31.6251 93.9403 31.8004 93.9358 32.089C93.9313 32.3806 93.768 32.5573 93.4877 32.6012C93.2733 32.6359 93.053 32.6344 92.8356 32.6495Z" fill="#FEFEFE"/>
<path d="M93.5551 32.9502C94.1367 32.8323 94.3975 32.5332 94.3675 32.0195C94.3375 31.5284 94.0812 31.2836 93.4817 31.2443C93.005 31.2141 92.5254 31.2383 92.0472 31.2247C91.8763 31.2202 91.8538 31.3003 91.8538 31.4438C91.8583 32.3685 91.8583 33.2916 91.8538 34.2163C91.8523 34.3689 91.8943 34.4248 92.0547 34.4233C92.2136 34.4218 92.2616 34.3704 92.2586 34.2148C92.2496 33.8643 92.2541 33.5122 92.2556 33.1602C92.257 33.0952 92.2301 33.0197 92.3065 32.9713C92.4684 32.8716 92.9765 32.994 93.0785 33.1602C93.2733 33.476 93.4817 33.7842 93.654 34.1106C93.7979 34.381 93.9838 34.4883 94.3076 34.3871C94.0093 33.9202 93.714 33.4594 93.4007 32.9698C93.4787 32.9592 93.5176 32.9577 93.5551 32.9502ZM92.8356 32.6495C92.4479 32.6394 92.2541 32.4435 92.2541 32.0618C92.2541 31.5148 92.2541 31.5118 92.8012 31.5163C93.0395 31.5178 93.2763 31.4967 93.5131 31.5556C93.7979 31.6251 93.9403 31.8004 93.9358 32.089C93.9313 32.3806 93.768 32.5573 93.4877 32.6012C93.2733 32.6359 93.053 32.6344 92.8356 32.6495Z" fill="#045799"/>
</g>
</svg>
