<svg width="166" height="41" viewBox="0 0 166 41" fill="none" xmlns="http://www.w3.org/2000/svg">
<g style="mix-blend-mode:luminosity">
<path d="M69.6702 27.0101C69.3747 25.3322 68.1096 24.2416 65.9249 23.9553C63.4093 23.6268 60.875 23.8942 58.3511 23.81C57.779 23.7911 57.7706 24.1974 57.6957 24.5574C56.6325 29.5871 55.5838 34.6189 54.5143 39.6444C54.3812 40.2781 54.5102 40.5286 55.203 40.516C57.9725 40.4612 60.744 40.4697 63.5134 40.4212C64.5995 40.4023 65.6294 40.1117 66.5762 39.5433C69.0564 38.0569 69.8013 33.7178 67.0069 32.0988C67.1151 31.9977 67.1588 31.9388 67.217 31.9072C69.3393 30.7471 70.0717 29.2881 69.6702 27.0101ZM63.6569 36.8169C62.3211 37.4548 60.8813 37.2401 59.4747 37.2527C59.1002 37.2548 59.1481 36.9937 59.2042 36.7348C59.4185 35.7474 59.6412 34.762 59.8284 33.7683C59.9013 33.3851 60.0761 33.2336 60.4527 33.2483C60.9021 33.2651 61.3515 33.2525 61.7989 33.2525V33.2567C62.1796 33.2567 62.5604 33.2441 62.9391 33.2588C63.7755 33.2883 64.4185 33.6041 64.6349 34.4989C64.8658 35.4505 64.4767 36.4253 63.6569 36.8169ZM64.5662 29.9366C63.3927 30.3324 62.1734 30.1492 60.9708 30.1766C60.6129 30.1829 60.6274 29.924 60.6836 29.6629C60.8438 28.9134 61.0082 28.1639 61.1559 27.4123C61.2246 27.0712 61.4306 26.9596 61.7448 26.9617C62.1942 26.968 62.6416 26.9638 63.091 26.9638V26.9722C63.4364 26.9722 63.7818 26.9533 64.1251 26.9765C64.8637 27.027 65.5275 27.2438 65.619 28.1176C65.7044 28.9534 65.4276 29.646 64.5662 29.9366Z" fill="#F5AC02"/>
<path d="M112.724 0.17954C111.79 0.204804 110.849 0.234279 109.917 0.171119C109.195 0.12059 108.891 0.341652 108.754 1.09537C108.392 3.08493 107.928 5.05343 107.464 7.22405C106.742 5.75241 105.789 4.78816 104.272 4.61341C102.447 4.40288 100.81 4.8829 99.5116 6.21137C96.8608 8.92307 96.2366 12.2327 97.0793 15.8244C97.6868 18.4119 100.028 19.6667 102.647 19.0477C103.765 18.7845 104.634 18.1256 105.469 17.2771C105.41 18.2428 105.855 18.7256 106.802 18.7256C107.462 18.7256 108.122 18.7045 108.779 18.7319C109.26 18.753 109.516 18.6329 109.63 18.0856C110.826 12.3295 112.046 6.57981 113.282 0.832199C113.402 0.272176 113.215 0.166908 112.724 0.17954ZM105.643 14.3149C104.857 15.4602 103.679 15.9655 102.624 15.6139C101.64 15.2854 101.249 14.5149 101.272 12.9548C101.289 11.5863 101.621 10.3231 102.516 9.25992C103.259 8.37568 104.241 8.07461 105.206 8.40304C106.268 8.76517 106.565 9.6431 106.615 10.6305C106.678 11.9527 106.403 13.2054 105.643 14.3149Z" fill="#A51F22"/>
<path d="M40.79 0.173224C40.0326 0.23849 39.2545 0.27007 38.5054 0.164803C37.4734 0.0216388 37.1488 0.470079 36.9844 1.42801C36.6681 3.27651 36.2249 5.10185 35.788 7.15878C35.0077 5.80293 34.1609 4.85132 32.7814 4.64289C30.9254 4.36287 29.2442 4.8071 27.8897 6.1419C25.1743 8.8178 24.5626 12.1464 25.3637 15.7318C25.9733 18.4645 28.3599 19.7109 31.0627 19.0182C32.1468 18.7403 32.9541 18.0477 33.7988 17.2939C33.7156 18.2484 34.1512 18.7256 35.1055 18.7256C35.7297 18.7256 36.3581 18.6772 36.9761 18.7382C37.644 18.8035 37.8625 18.5045 37.9894 17.8898C39.1525 12.3043 40.3302 6.72297 41.5307 1.14379C41.6826 0.436393 41.614 0.101642 40.79 0.173224ZM33.5845 14.7654C32.7876 15.656 31.6786 15.9655 30.7756 15.5697C29.754 15.1191 29.5792 14.1949 29.5688 13.2117C29.5584 11.9295 29.7977 10.7063 30.5405 9.62836C31.3395 8.47042 32.3569 8.04092 33.468 8.39041C34.4584 8.70411 34.9287 9.54625 34.9266 11.0053C34.9058 12.4137 34.5333 13.7022 33.5845 14.7654Z" fill="#A51F22"/>
<path d="M14.7354 6.72718C15.1495 6.39033 15.4595 6.12084 15.7862 5.87662C16.7225 5.17343 17.7483 4.70184 18.9322 4.64499C21.9388 4.50393 23.6076 6.24927 23.1852 9.26624C22.8856 11.4116 22.3758 13.5254 21.9597 15.6539C21.9472 15.7212 21.916 15.7865 21.8993 15.8539C21.66 16.7908 21.839 18.2835 21.1503 18.5529C20.0329 18.9909 18.6347 18.7361 17.3571 18.7024C16.6643 18.6835 17.0242 18.115 17.0804 17.8266C17.4903 15.7318 17.946 13.6475 18.3808 11.559C18.4807 11.0789 18.5764 10.5968 18.6326 10.1126C18.7949 8.67885 18.0729 7.97776 16.6643 8.23041C15.2078 8.49147 14.4858 9.56309 14.1404 10.8684C13.668 12.658 13.3206 14.4812 12.9294 16.2918C12.5798 17.9129 11.6005 18.7242 9.99145 18.7256C7.95444 18.7256 7.96068 18.7256 8.39555 16.6939C9.16125 13.1022 9.93527 9.51046 10.6656 5.91241C10.8008 5.25133 11.0276 4.95237 11.7392 5.01764C12.4945 5.08712 13.2665 5.08712 14.0238 5.01764C14.8582 4.94185 15.0871 5.21765 14.7895 6.00084C14.723 6.17979 14.7542 6.39664 14.7334 6.72718H14.7354Z" fill="#A51F22"/>
<path d="M86.3428 6.80087C86.8089 6.42401 87.1689 6.11032 87.5517 5.8282C88.9999 4.75657 90.5979 4.34814 92.3561 4.81131C93.8479 5.20501 94.7135 6.24506 94.88 7.78407C94.9861 8.76727 94.8883 9.73573 94.6823 10.7021C94.1663 13.1296 93.6565 15.5591 93.1821 17.995C93.0739 18.5466 92.8658 18.7614 92.2999 18.7361C91.297 18.694 90.292 18.7024 89.2891 18.734C88.7107 18.753 88.6066 18.5845 88.7356 18.0034C89.2412 15.717 89.6886 13.418 90.1547 11.1211C90.1963 10.9147 90.2421 10.7084 90.2587 10.5C90.3232 9.70626 90.5667 8.79043 89.6428 8.36304C88.719 7.93566 87.8076 8.19251 87.0378 8.85569C86.2658 9.52099 85.8892 10.4179 85.677 11.3947C85.2026 13.5822 84.7116 15.7655 84.2892 17.9613C84.1685 18.5845 83.9147 18.7593 83.3258 18.734C82.3583 18.6919 81.3866 18.713 80.417 18.7256C79.9468 18.7319 79.6513 18.7403 79.8011 18.0561C80.7041 13.9233 81.5593 9.77994 82.4186 5.63872C82.5123 5.19028 82.712 4.99658 83.1906 5.01764C84.0208 5.05343 84.8572 5.08922 85.6812 5.01132C86.58 4.925 86.7527 5.2787 86.4926 6.05558C86.4281 6.24927 86.4094 6.4577 86.3428 6.79456V6.80087Z" fill="#A51F22"/>
<path d="M50.3196 16.9676C49.067 17.9782 47.9143 18.8372 46.3996 19.0393C43.497 19.4246 41.6244 17.8287 41.7908 14.8854C41.951 12.0453 42.8333 9.32098 43.3514 6.5377C43.6323 5.02817 43.6655 5.0029 45.1595 5.04501C46.1124 5.07238 47.415 4.59446 47.9081 5.26607C48.2847 5.77978 47.6855 7.03667 47.4982 7.95881C47.1507 9.67257 46.7512 11.3779 46.4454 13.1001C46.3018 13.9085 46.0833 14.8581 47.0238 15.3549C47.9601 15.8497 48.8548 15.5191 49.6288 14.8938C50.3925 14.277 50.7691 13.4054 50.9792 12.4664C51.4682 10.281 51.9696 8.09777 52.3837 5.89768C52.5189 5.18186 52.804 4.98185 53.4761 5.01974C54.4082 5.07027 55.3466 5.05343 56.2808 5.02606C56.8177 5.00922 57.007 5.12291 56.8738 5.73556C55.9854 9.83889 55.124 13.9464 54.2834 18.0603C54.1773 18.5824 53.9588 18.7551 53.4532 18.7361C52.623 18.7045 51.7844 18.6624 50.9605 18.7445C50.0533 18.8372 49.9638 18.4414 50.1844 17.7213C50.2426 17.534 50.2551 17.3297 50.3155 16.9676H50.3196Z" fill="#A51F22"/>
<path d="M69.0876 8.86201C68.6714 8.86201 68.2553 8.84306 67.8392 8.86833C67.4209 8.89359 67.1712 8.77569 66.9382 8.36725C66.3431 7.323 64.8138 6.93772 63.761 7.48722C63.0452 7.86197 62.9724 8.4641 63.6132 8.95465C64.2562 9.44519 65.0219 9.69573 65.7585 9.9989C66.7842 10.42 67.8329 10.7968 68.7588 11.4305C71.0476 12.999 71.1641 16.0097 69.0085 17.7508C66.6365 19.6688 61.9029 19.6498 59.5309 17.7234C58.6528 17.0097 58.1597 16.0834 57.9059 14.9886C57.7831 14.4601 57.935 14.3001 58.451 14.317C59.3166 14.3443 60.1842 14.3507 61.0498 14.3149C61.5346 14.2938 61.7614 14.4622 61.9695 14.9191C62.5666 16.2307 64.3602 16.736 65.6107 16.0076C66.3327 15.5865 66.3972 14.9591 65.7376 14.4096C65.0885 13.8706 64.3207 13.5401 63.5404 13.239C62.5042 12.8369 61.4888 12.3801 60.5525 11.7779C58.3886 10.3884 58.218 7.59038 60.1842 5.92294C62.3669 4.07023 67.4043 4.03444 69.589 5.85978C70.3069 6.4598 70.7625 7.21352 70.981 8.13988C71.1079 8.67463 71.0559 8.92938 70.438 8.87254C69.9906 8.83254 69.537 8.86412 69.0876 8.86412V8.86201Z" fill="#A51F22"/>
<path d="M105.177 35.4126C103.407 36.0863 103.178 37.5916 103.007 39.0443C102.872 40.196 102.458 40.7265 101.257 40.5181C100.485 40.3833 99.4013 40.8655 98.9831 40.3118C98.5795 39.7791 99.1662 38.8022 99.3264 38.0253C100.24 33.6083 101.195 29.2018 102.081 24.7806C102.237 23.9995 102.547 23.7132 103.309 23.81C104.218 23.9279 105.487 23.3868 105.96 24.0416C106.413 24.6732 105.745 25.8227 105.566 26.7449C105.261 28.3218 104.921 29.8945 104.601 31.4693C104.591 31.5177 104.651 31.5809 104.718 31.7177C105.818 30.7324 106.913 29.7787 107.974 28.7892C108.434 28.3597 108.904 28.1512 109.547 28.1786C110.739 28.2291 111.935 28.1934 113.407 28.1934C111.769 29.6313 110.362 30.9093 108.906 32.1219C108.365 32.5725 108.244 32.9746 108.471 33.6483C109.141 35.6337 109.722 37.6506 110.375 39.6423C110.593 40.3054 110.552 40.617 109.745 40.516C108.756 40.3939 107.514 40.9181 106.829 40.297C106.205 39.7307 106.153 38.518 105.856 37.5874C105.625 36.8611 105.402 36.1326 105.179 35.4105L105.177 35.4126Z" fill="#F5AC02"/>
<path d="M82.6662 32.7914C83.1635 30.2082 82.0566 28.4944 79.4932 27.9386C78.02 27.6186 76.5261 27.6375 75.0737 28.0628C73.6318 28.486 72.5852 29.4018 72.0276 30.844C71.8279 31.364 71.9215 31.6335 72.5436 31.6019C73.1637 31.5703 73.79 31.5809 74.4121 31.5977C75.0384 31.6167 75.5398 31.583 75.9997 30.9535C76.5178 30.2419 77.4 30.2776 78.1969 30.5703C78.5693 30.7071 78.8315 30.9872 78.8627 31.4272C78.8981 31.9156 78.6484 32.223 78.2385 32.4167C77.5685 32.7325 76.8465 32.8146 76.1203 32.8714C74.9094 32.9683 73.713 33.1262 72.5873 33.6357C70.8666 34.4105 70.0821 35.9937 70.4587 37.9432C70.8021 39.7159 72.142 40.8086 74.0292 40.8107C75.39 40.8107 76.6031 40.3497 77.7558 39.3854C77.943 39.897 77.6289 40.5876 78.4632 40.5391C79.3621 40.4865 80.263 40.5076 81.164 40.5033C81.5905 40.5012 81.8381 40.4149 81.6155 39.8928C81.3408 39.2486 81.4927 38.5833 81.6238 37.9327C81.9692 36.219 82.3354 34.5094 82.6662 32.7914ZM75.75 38.1348C75.1112 38.1201 74.6077 37.8843 74.4079 37.2211C74.1978 36.5179 74.4745 35.9958 75.0675 35.6358C75.9768 35.0863 77.0525 35.1073 78.0263 34.7768C78.2218 34.7094 78.3072 34.8294 78.3321 35.0526C78.484 36.5411 77.1274 38.1706 75.75 38.1348Z" fill="#F5AC02"/>
<path d="M90.0527 29.7197C91.4988 28.3997 92.9699 27.6081 94.7988 27.8902C96.6923 28.1807 97.7701 29.4102 97.6515 31.3872C97.4725 34.3347 96.557 37.1579 96.0327 40.0486C95.9723 40.3812 95.758 40.5139 95.4376 40.5033C95.3335 40.4991 95.2295 40.5076 95.1255 40.5054C94.1247 40.4802 92.7535 40.8423 92.225 40.3244C91.6465 39.758 92.4143 38.4633 92.5808 37.4864C92.8326 36.0042 93.1592 34.5326 93.4609 33.0588C93.6024 32.3725 93.6378 31.6777 92.9886 31.2587C92.3082 30.8187 91.5737 30.9893 90.9204 31.3893C89.9986 31.9535 89.5638 32.8651 89.3411 33.8862C88.9312 35.7663 88.5068 37.6443 88.1593 39.537C88.0178 40.3075 87.7015 40.6276 86.9296 40.516C86.5904 40.4676 86.2367 40.5076 85.8913 40.5076C84.5722 40.5076 84.0478 39.8731 84.3183 38.6043C84.9821 35.4905 85.6812 32.383 86.2867 29.2566C86.4552 28.3828 86.7985 28.0733 87.6537 28.1849C88.1988 28.2565 88.7669 28.2481 89.3141 28.1849C90.1047 28.0965 90.2983 28.4018 90.0569 29.1197C90.0153 29.2418 90.0507 29.3913 90.0507 29.7218L90.0527 29.7197Z" fill="#F5AC02"/>
<path d="M152.151 24.8564C152.072 23.7974 151.604 22.9131 150.82 22.2036C150.591 21.9973 150.299 21.8352 150.362 21.4478C150.491 20.6457 150.127 20.0772 149.607 19.4898C148.612 18.3677 148.695 17.5761 149.829 16.5592C150.11 16.3086 150.191 16.1297 150.037 15.7697C149.38 14.2391 149.215 12.6706 149.75 11.0579C149.796 10.9168 149.817 10.7189 149.646 10.5947C149.134 11.0705 148.72 12.3071 148.402 14.3043C148.071 14.3843 147.796 14.1864 147.503 14.1001C145.137 13.4011 144.128 14.1149 144.124 16.5802C144.122 17.4982 143.662 17.8413 142.878 17.9256C141.864 18.0329 140.882 17.8392 139.898 17.6013C138.283 17.2097 136.696 16.6602 135.019 16.6139C132.618 16.5465 131.409 17.6603 131.465 20.0793C131.532 22.8689 131.763 25.6543 131.929 28.5723C132.618 28.1176 132.428 27.5975 132.408 27.128C132.295 24.6774 132.147 22.2289 132.066 19.7783C132.023 18.4919 132.734 17.7782 134.01 17.6729C135.187 17.5761 136.284 17.8729 137.312 18.4245C138.697 19.1698 140.166 19.4898 141.723 19.3825C142.551 19.3256 143.375 19.1993 144.199 19.1067C145.949 18.9109 146.877 19.7319 146.567 21.452C146.379 22.5026 145.637 23.41 145.406 24.5048C145.333 24.8479 144.836 24.9785 144.461 25.0816C144.114 25.1764 143.764 25.2669 143.412 25.3617C143.583 25.8585 143.779 26.2775 143.864 26.7196C143.955 27.1954 143.937 27.6944 143.978 28.1807C144.032 28.8228 144.161 29.4418 144.719 29.8461C144.956 30.0145 145.241 30.0482 145.491 29.8376C145.68 29.6776 145.709 29.4502 145.535 29.2923C145.225 29.0144 145.012 28.7113 145.522 28.5176C145.92 28.366 146.348 28.4523 146.498 28.9955C146.563 29.2292 146.633 29.4818 146.775 29.6671C147.062 30.0418 147.478 30.145 147.89 29.9261C148.344 29.6839 147.959 29.4145 147.861 29.1513C147.62 28.4965 148.029 28.6628 148.389 28.7197C149.869 28.9555 150.343 28.6649 150.764 27.2565C150.855 26.9554 150.859 26.6628 151.252 26.5449C152.083 26.2943 152.205 25.5848 152.151 24.8564ZM147.341 27.7428C147.081 27.8586 146.766 27.9512 146.581 27.6881C146.417 27.4523 146.61 27.2228 146.827 27.0859C147.676 26.5512 147.359 25.9175 146.968 25.2985C146.454 24.4816 146.45 23.6879 146.999 22.8773C146.962 23.8016 147.357 24.5237 147.875 25.2395C148.523 26.1406 148.227 27.347 147.341 27.7428ZM149.476 28.2312C149.238 28.2923 148.955 28.3281 148.797 28.1197C148.654 27.9302 148.818 27.7239 148.97 27.5744C149.565 26.9891 149.588 26.3701 149.101 25.7069C149.022 25.5975 148.901 25.4417 148.928 25.3385C149.249 24.0374 148.369 23.2395 147.771 22.2857C147.149 21.2878 147.434 20.193 147.774 19.1488C147.832 18.9677 147.909 18.713 148.19 18.7993C148.391 18.8624 148.381 19.073 148.377 19.2351C148.371 19.513 148.331 19.7909 148.304 20.0688C148.208 21.0562 148.425 21.9278 149.17 22.6394C149.546 23.0016 149.86 23.4289 149.769 24.1448C149.434 24.829 149.765 25.4501 150.218 26.1343C150.687 26.8438 150.189 28.046 149.476 28.2312ZM151.196 25.7385C151.111 25.8248 150.959 25.8754 150.834 25.8838C150.67 25.8922 150.568 25.7301 150.62 25.6038C151.28 24.0458 150.16 23.1595 149.365 22.1468C149.349 22.1278 149.367 22.0815 149.378 21.8499C150.483 22.5615 151.4 23.2584 151.535 24.5742C151.577 24.9848 151.513 25.4185 151.196 25.7385Z" fill="#E52129"/>
<path d="M2.17217 18.7256C-0.247692 18.7256 -0.235208 18.7277 0.270403 16.3908C1.37318 11.3064 2.47387 6.21773 3.54335 1.12488C3.689 0.428011 3.91788 0.103787 4.68357 0.169053C5.61157 0.246951 6.55621 0.249056 7.4842 0.169053C8.34977 0.0953657 8.43508 0.404852 8.26654 1.1712C7.32399 5.47033 6.42304 9.77998 5.50961 14.0854C5.25577 15.2813 4.95823 16.4708 4.77929 17.6793C4.66069 18.4856 4.35482 18.854 3.52046 18.7383C3.07935 18.6772 2.6216 18.7277 2.17217 18.7277V18.7256Z" fill="#A51F22"/>
<path d="M74.2436 18.7256C72.7843 18.7256 72.2066 18.0034 72.5103 16.5592C73.5944 11.4221 74.6972 6.28927 75.75 1.1459C75.906 0.379548 76.1973 0.101642 76.9672 0.169013C77.7932 0.240595 78.6318 0.223753 79.4599 0.173224C80.1403 0.131117 80.2589 0.333231 80.1153 1.00273C79.0729 5.82399 78.0679 10.6558 77.0525 15.4833C76.9006 16.2034 76.678 16.915 76.6176 17.6434C76.5427 18.5466 76.1495 18.873 75.2818 18.734C74.9427 18.6793 74.591 18.7256 74.2436 18.7256Z" fill="#A51F22"/>
<path d="M130.845 29.8945C128.294 29.8945 125.953 29.8924 123.614 29.8966C123.255 29.8966 123.065 29.6945 122.872 29.4208C121.093 26.9112 120.165 24.0879 119.832 21.0436C119.769 20.473 119.946 20.2141 120.564 20.2267C122.227 20.2583 123.891 20.2414 125.556 20.2351C125.93 20.2351 126.207 20.273 126.292 20.753C126.906 24.17 128.477 27.1217 130.845 29.8945Z" fill="#80CDF2"/>
<path d="M154.817 29.8882C156.75 27.4796 158.346 25.2038 159.324 22.5489C159.359 22.45 159.394 22.3489 159.442 22.2584C159.773 21.6478 159.498 20.652 160.129 20.372C160.774 20.0856 161.619 20.252 162.376 20.2414C163.241 20.2288 164.107 20.2709 164.971 20.2288C165.624 20.1972 165.851 20.4457 165.751 21.0857C165.258 24.1869 164.047 26.9722 162.147 29.4545C161.978 29.6755 161.789 29.8924 161.475 29.8924C159.342 29.8924 157.21 29.8924 154.817 29.8924V29.8882Z" fill="#80CDF2"/>
<path d="M130.192 9.47256C128.627 11.7 127.206 13.7612 126.55 16.235C126.453 16.6055 126.321 16.9718 126.269 17.3487C126.049 18.9677 126.057 18.9677 124.424 18.9677C123.144 18.9677 121.865 18.9551 120.587 18.974C120.073 18.9824 119.884 18.8919 119.95 18.2666C120.275 15.1991 121.411 12.4727 123.15 9.97153C123.39 9.62625 123.662 9.46204 124.093 9.46625C126.061 9.4852 128.03 9.47467 130.192 9.47467V9.47256Z" fill="#80CDF2"/>
<path d="M156.365 9.47677C158.427 9.47677 160.489 9.48098 162.549 9.47467C162.929 9.47467 163.098 9.73784 163.256 10.0052C164.733 12.4937 165.778 15.1149 165.813 18.0792C165.822 18.7698 165.607 18.9993 164.929 18.9782C163.512 18.9382 162.095 18.9656 160.678 18.9656C160.32 18.9656 159.996 18.9719 159.952 18.4561C159.698 15.3633 158.383 12.7043 156.631 10.2263C156.531 10.0852 156.446 9.93363 156.369 9.77784C156.342 9.7252 156.365 9.64731 156.365 9.47888V9.47677Z" fill="#80CDF2"/>
<path d="M143.221 0.531134C148.233 -0.393115 157.187 2.32279 161.723 7.98618C161.485 8.37146 161.103 8.18619 160.797 8.1904C159.205 8.21146 157.611 8.16935 156.019 8.21567C155.339 8.23462 154.854 8.02829 154.39 7.52511C151.962 4.88921 149.234 2.65122 145.876 1.32696C145.019 0.987995 144.107 0.792197 143.221 0.531134Z" fill="#80CDF2"/>
<path d="M124.266 31.1808C126.904 31.1808 129.218 31.1808 131.534 31.1808C131.823 31.1808 132.079 31.2419 132.291 31.4545C134.782 33.9473 137.711 35.8968 140.387 38.1601C140.51 38.2632 140.707 38.3222 140.67 38.6422C134.405 38.1875 128.891 36.0947 124.266 31.183V31.1808Z" fill="#80CDF2"/>
<path d="M142.174 0.489027C139.588 1.31011 137.326 2.69123 135.254 4.40919C134.024 5.43029 132.819 6.47875 131.756 7.68091C131.548 7.9146 131.396 8.19672 131.026 8.19461C128.995 8.1904 126.964 8.19461 124.89 8.19461C126.548 4.50183 137.94 -0.605756 142.174 0.489027Z" fill="#80CDF2"/>
<path d="M145.279 38.4612C148.404 36.3221 151.024 34.0083 153.46 31.4777C153.733 31.1956 154.063 31.1787 154.415 31.1787C156.386 31.1829 158.356 31.1787 160.341 31.1787C159.4 33.2315 152.255 37.9474 145.279 38.459V38.4612Z" fill="#80CDF2"/>
<path d="M143.136 0.737458C146.253 3.10598 149.147 5.30186 152.035 7.50406C152.16 7.5988 152.247 7.74196 152.488 8.01566C149.409 8.01566 146.521 8.01566 143.635 8.01566C143.292 8.01566 143.136 7.83881 143.136 7.49564C143.136 5.33765 143.136 3.17756 143.136 0.737458Z" fill="#81CEF2"/>
<path d="M152.168 31.4082C151.142 32.1956 150.123 32.9978 149.086 33.7704C147.393 35.0336 145.684 36.28 143.982 37.5327C143.791 37.6738 143.614 37.9348 143.36 37.8443C143.023 37.7222 143.136 37.3727 143.136 37.1116C143.127 35.4337 143.131 33.7557 143.131 32.0798C143.131 31.644 143.125 31.1914 143.731 31.1914C146.513 31.1851 149.295 31.1893 152.076 31.1893C152.108 31.263 152.137 31.3366 152.168 31.4124V31.4082Z" fill="#80CEF2"/>
<path d="M142.249 1.00273C142.249 3.28072 142.239 5.27449 142.255 7.27036C142.26 7.79039 142.114 8.03461 141.552 8.0304C138.816 8.01145 136.08 8.02198 133.242 7.83249C136.174 5.60924 139.105 3.38599 142.249 1.00273Z" fill="#80CEF2"/>
<path d="M142.249 38.0359C139.178 35.7052 136.323 33.5409 133.215 31.1808C136.248 31.1808 138.968 31.1851 141.685 31.1766C142.164 31.1766 142.253 31.444 142.251 31.8482C142.245 33.8083 142.247 35.7684 142.247 38.0338L142.249 38.0359Z" fill="#80CEF2"/>
<path d="M135.3 29.8082C134.259 30.0882 133.772 29.5113 133.627 28.7513C133.479 27.9786 133.25 27.0986 134.18 26.5154C136.188 25.2543 136.473 24.0942 135.354 21.9636C135.237 21.7426 135.077 21.532 135.252 21.2941C135.477 20.9888 135.801 21.0541 136.105 21.1425C137.091 21.431 137.911 22.5194 137.946 23.5721C137.99 24.8858 138.238 25.1637 139.53 25.4395C139.877 25.5132 140.287 25.3659 140.697 25.8122C139.865 26.1048 139.112 25.9575 138.491 25.6375C137.736 25.248 137.33 25.469 136.871 26.0564C136.623 26.3743 136.251 26.6164 135.893 26.8207C134.557 27.5786 134.42 27.9933 135.102 29.3892C135.162 29.5134 135.219 29.6397 135.298 29.8103L135.3 29.8082Z" fill="#E5232B"/>
<path d="M154.228 11.199C155.376 12.6432 155.312 14.2286 153.926 15.8034C153.439 16.3571 153.154 16.8118 153.539 17.5234C153.687 17.795 153.766 18.1592 153.62 18.4435C153.002 19.6562 152.428 20.8857 151.92 22.1763C152.166 21.3825 151.947 20.4962 152.405 19.7972C153.148 18.6645 153.009 17.6266 152.255 16.5929C152.087 16.3613 151.954 16.2034 152.23 15.8897C153.897 14.0033 153.885 13.9906 154.228 11.199Z" fill="#E6272F"/>
<path d="M136.665 28.3913C136.76 27.6249 136.991 26.9449 137.484 26.3785C137.665 26.1701 137.923 25.9133 138.184 26.1069C138.521 26.3554 138.194 26.5933 138.03 26.7891C137.318 27.6375 137.339 28.4797 138.011 29.3344C138.129 29.4839 138.371 29.6292 138.169 29.8503C138.025 30.0061 137.805 30.0208 137.591 29.9555C136.798 29.7134 136.779 29.0165 136.665 28.3934V28.3913Z" fill="#E72E35"/>
<path d="M150.967 18.5529C150.967 18.7214 150.882 18.8603 150.695 18.8961C150.489 18.9361 150.372 18.793 150.345 18.6161C150.312 18.4014 150.37 18.1782 150.637 18.1866C150.809 18.1908 150.93 18.3361 150.969 18.5508L150.967 18.5529Z" fill="#EC6267"/>
</g>
</svg>
