<svg width="57" height="56" viewBox="0 0 57 56" fill="none" xmlns="http://www.w3.org/2000/svg">
<g style="mix-blend-mode:luminosity">
<path d="M56.3139 27.8536C56.3051 43.1404 43.5918 55.698 28.1331 55.6882C12.6931 55.679 -0.00882952 43.1029 4.60529e-06 27.8336C0.00883873 12.556 12.7076 0.00154177 28.1533 1.41742e-07C43.6105 -0.00154149 56.3228 12.5725 56.3139 27.8536Z" fill="#DFDFDF"/>
<path d="M56.3139 27.8536C56.3051 43.1404 43.5918 55.698 28.1331 55.6882C12.6931 55.679 -0.00882952 43.1029 4.60529e-06 27.8336C0.00883873 12.556 12.7076 0.00154177 28.1533 1.41742e-07C43.6105 -0.00154149 56.3228 12.5725 56.3139 27.8536Z" fill="#EC1C24"/>
<path d="M54.7212 19.2616C53.8684 19.8582 53.0167 20.4559 52.1635 21.052C47.5432 24.2806 42.924 27.5104 38.2991 30.7329C38.1198 30.8577 38.1333 30.9657 38.1889 31.1347C40.2712 37.4513 42.3503 43.7689 44.4294 50.0865C44.4554 50.1651 44.4809 50.2437 44.5287 50.3886C44.3042 50.2242 44.1338 50.0998 43.9643 49.9744C38.774 46.1368 33.5832 42.3002 28.397 38.4575C28.2115 38.3203 28.1003 38.3228 27.9138 38.458C22.5831 42.3228 17.2473 46.181 11.912 50.0397C11.8383 50.0932 11.7619 50.143 11.6356 50.2293C11.8783 49.4734 12.1012 48.7761 12.3267 48.0793C14.1533 42.4436 15.9794 36.8074 17.8143 31.1743C17.8922 30.9348 17.8408 30.8187 17.6412 30.6769C12.3434 26.9143 7.05015 23.1445 1.75591 19.3757C1.70135 19.3366 1.64886 19.2955 1.53974 19.2133C1.68888 19.2133 1.77826 19.2133 1.86816 19.2133C8.44023 19.2133 15.0123 19.2118 21.5839 19.219C21.8125 19.219 21.9071 19.1604 21.9772 18.9399C23.9472 12.776 25.9261 6.61461 27.9039 0.453239C27.9268 0.381296 27.9553 0.310895 27.9855 0.228161C28.0816 0.271327 28.0712 0.361769 28.0905 0.422406C30.0719 6.58275 32.0513 12.7441 34.0218 18.9076C34.0961 19.1403 34.1881 19.22 34.4427 19.2195C41.1016 19.2113 47.7599 19.2128 54.4188 19.2128H54.702C54.7082 19.2287 54.7139 19.2447 54.7202 19.2606L54.7212 19.2616Z" fill="#FEFEFE"/>
<path d="M19.3732 26.6429C19.4075 26.6398 19.4424 26.6373 19.4767 26.6342C19.8986 26.6018 19.9095 26.5998 19.9786 27.0001C20.0353 27.3295 20.2244 27.5165 20.5394 27.5957C20.9327 27.6943 21.3287 27.6964 21.7184 27.5879C22.0235 27.5026 22.2417 27.3094 22.2786 26.9841C22.315 26.665 22.1144 26.4775 21.8478 26.3505C21.4046 26.1398 20.9582 25.9358 20.5139 25.7267C19.8778 25.4271 19.5084 24.9518 19.5536 24.2308C19.6009 23.4831 20.0587 22.9107 20.7909 22.6866C21.4628 22.4816 22.1435 22.4893 22.804 22.7267C23.4634 22.9636 23.8241 23.4579 23.942 24.1357C23.9691 24.2909 23.9259 24.3495 23.7581 24.3485C23.4816 24.3459 23.2047 24.3629 22.9287 24.3824C22.8087 24.3906 22.7728 24.3521 22.7453 24.2344C22.6351 23.7663 22.3555 23.5494 21.8614 23.5263C21.6363 23.5155 21.4119 23.5098 21.192 23.5761C20.9483 23.6496 20.7836 23.8027 20.7347 24.0509C20.6843 24.3084 20.8054 24.498 21.0195 24.6352C21.296 24.813 21.6026 24.9307 21.8982 25.0715C22.17 25.201 22.447 25.3238 22.7079 25.4734C23.5024 25.9292 23.7316 26.7611 23.2862 27.5664C22.9199 28.2288 22.3192 28.5474 21.5854 28.6399C20.9863 28.7154 20.3928 28.6856 19.8253 28.4549C19.1269 28.1702 18.7512 27.5879 18.7621 26.8459C18.7642 26.6948 18.8172 26.6512 18.9591 26.6604C19.0968 26.6691 19.2355 26.6625 19.3738 26.6625C19.3738 26.6563 19.3732 26.6491 19.3732 26.6429Z" fill="#0054A5"/>
<path d="M28.607 28.5633C29.3314 27.3454 30.0319 26.1681 30.7319 24.9908C31.1528 24.2837 31.5805 23.5802 31.9899 22.867C32.085 22.701 32.1895 22.6439 32.376 22.6542C32.6608 22.6702 32.9487 22.6753 33.2324 22.6527C33.4538 22.6352 33.5281 22.7087 33.5546 22.9214C33.6658 23.8125 33.7937 24.7015 33.9153 25.5915C34.0369 26.4816 34.1517 27.3721 34.2847 28.2601C34.3201 28.4975 34.2868 28.6059 34.015 28.5669C33.8539 28.5438 33.6866 28.5628 33.5224 28.5628C33.2747 28.5628 33.1351 28.4382 33.1036 28.1892C33.0719 27.9343 33.0386 27.6799 33.0152 27.4245C33.0033 27.294 32.9451 27.2575 32.8157 27.2591C32.1406 27.2652 31.4651 27.2647 30.7901 27.2591C30.6679 27.258 30.604 27.3048 30.5484 27.4055C30.3613 27.7426 30.1634 28.0736 29.9742 28.4096C29.9207 28.5052 29.8687 28.5695 29.7393 28.5659C29.3771 28.5561 29.0144 28.5633 28.607 28.5633Z" fill="#0054A5"/>
<path d="M27.0319 22.6589C27.4253 22.6753 27.9003 22.647 28.3763 22.6851C29.4348 22.7693 29.8885 23.5186 29.6832 24.5319C29.4551 25.6599 28.7005 26.2519 27.4679 26.2981C27.0272 26.3146 26.585 26.3197 26.1443 26.3069C25.9448 26.3007 25.8596 26.3531 25.8175 26.5545C25.6912 27.1563 25.5348 27.7519 25.4044 28.3526C25.3685 28.5176 25.3056 28.5772 25.1331 28.5674C24.8655 28.5525 24.5958 28.5504 24.3287 28.5674C24.1343 28.5802 24.125 28.5042 24.1613 28.3511C24.4815 27.0047 24.7974 25.6573 25.1149 24.3104C25.2246 23.8449 25.3519 23.3824 25.4397 22.9127C25.4807 22.6928 25.5743 22.645 25.7816 22.6537C26.1703 22.6702 26.5606 22.6589 27.0319 22.6589Z" fill="#0054A5"/>
<path d="M35.2367 23.6404C35.3048 23.3372 35.3734 23.0643 35.4238 22.7883C35.4451 22.6727 35.5054 22.6578 35.6021 22.6578C37.0561 22.6594 38.51 22.6604 39.9635 22.6563C40.0971 22.6563 40.1334 22.7015 40.0992 22.8207C40.0966 22.8289 40.095 22.8372 40.0929 22.8459C40.0274 23.1018 40.0368 23.4302 39.8752 23.592C39.7182 23.7488 39.382 23.629 39.1253 23.6388C38.918 23.6465 38.708 23.6589 38.5028 23.6357C38.2653 23.609 38.1811 23.6969 38.1297 23.924C37.796 25.3988 37.4411 26.869 37.107 28.3439C37.0649 28.5299 36.9947 28.5772 36.817 28.5674C36.5582 28.553 36.2974 28.5535 36.0386 28.5674C35.8614 28.5766 35.8188 28.5299 35.8608 28.3547C36.1648 27.0921 36.4605 25.8274 36.7593 24.5638C36.8144 24.331 36.8617 24.0962 36.9277 23.8659C36.9812 23.6784 36.9189 23.6326 36.7323 23.6373C36.2412 23.6486 35.7491 23.6409 35.2357 23.6409L35.2367 23.6404Z" fill="#0054A5"/>
<path d="M18.8027 22.6589C18.5501 23.738 18.3033 24.7945 18.0549 25.8505C17.859 26.6825 17.6547 27.5129 17.4687 28.3469C17.4318 28.5124 17.3783 28.5766 17.2021 28.5674C16.9257 28.5525 16.6482 28.5581 16.3712 28.5659C16.2387 28.5695 16.1857 28.5453 16.2205 28.3973C16.6586 26.5422 17.093 24.6861 17.5243 22.8295C17.5545 22.7 17.6075 22.6511 17.7483 22.6558C18.0928 22.6671 18.4379 22.6589 18.8027 22.6589Z" fill="#0054A5"/>
<path d="M32.572 23.9091C32.6473 24.499 32.7138 25.0186 32.7793 25.5391C32.8037 25.7339 32.8193 25.9302 32.8494 26.1239C32.8661 26.2308 32.8484 26.2837 32.7247 26.2827C32.2347 26.2791 31.7447 26.2812 31.2042 26.2812C31.662 25.4872 32.0985 24.7303 32.572 23.9091Z" fill="#FDFDFE"/>
<path d="M26.1121 25.3207C26.2374 24.7894 26.3605 24.2765 26.478 23.7621C26.4988 23.6702 26.5408 23.6362 26.6354 23.6388C27.0491 23.6496 27.4643 23.6183 27.8774 23.6645C28.408 23.7241 28.6215 24.0664 28.4365 24.5664C28.2942 24.9523 28.0032 25.1794 27.6046 25.2565C27.1197 25.35 26.6276 25.3341 26.1121 25.3207Z" fill="#FEFEFE"/>
</g>
</svg>
