<svg width="176" height="54" viewBox="0 0 176 54" fill="none" xmlns="http://www.w3.org/2000/svg">
<g style="mix-blend-mode:luminosity">
<path d="M74.6758 6.20169C75.2989 5.01934 76.1439 4.12312 77.1431 3.36462C79.1377 1.85189 81.4141 0.984213 83.8691 0.561792C87.3815 -0.0425847 90.8249 0.207871 94.1551 1.52223C96.144 2.30713 97.9204 3.406 99.2437 5.12209C99.4829 5.43177 99.7119 5.75073 99.8964 6.17315C99.3294 6.05755 98.8093 5.95195 98.2892 5.84563C95.1823 5.21271 92.0495 4.79742 88.8756 4.7068C88.2503 4.68896 87.9024 5.03076 87.9031 5.65939C87.9052 9.641 87.9031 13.6233 87.9096 17.6049C87.9096 17.844 87.857 17.9317 87.5955 17.931C86.7152 17.9289 86.7159 17.9403 86.7174 17.0655C86.7239 13.2145 86.7303 9.36343 86.7368 5.51169C86.7375 5.02576 86.3766 4.69467 85.845 4.7068C83.9836 4.74962 82.1352 4.933 80.2932 5.19202C78.4887 5.44604 76.6921 5.73574 74.9186 6.15745C74.8624 6.17101 74.8048 6.17814 74.6765 6.20169H74.6758Z" fill="#4E83C3"/>
<path d="M83.3619 6.43645C83.5053 6.42432 83.6486 6.40362 83.792 6.40148C84.4677 6.39078 84.8869 6.78466 84.9402 7.45896C85.0166 8.43653 84.7357 9.36628 84.5448 10.3053C84.083 12.5723 83.5968 14.8349 83.135 17.1026C83.0738 17.4023 82.9787 17.4765 82.6689 17.3951C80.4056 16.7986 78.3036 15.8853 76.5387 14.3233C75.1376 13.0839 74.1608 11.599 73.9439 9.70236C73.8733 9.083 73.913 8.46935 74.0498 7.86141C74.083 7.71513 74.119 7.60667 74.307 7.57527C77.3109 7.08007 80.3191 6.62054 83.3626 6.43645H83.3619Z" fill="#4E83C3"/>
<path d="M100.674 8.77404C100.715 10.6143 100.096 12.0985 98.9822 13.39C97.3895 15.2367 95.3322 16.3569 93.0212 17.0662C92.633 17.1854 92.236 17.2788 91.8456 17.3937C91.6677 17.4465 91.5906 17.4087 91.5517 17.216C90.9646 14.3197 90.3653 11.4256 89.7818 8.52786C89.7097 8.16966 89.6766 7.79861 89.7126 7.42828C89.776 6.77824 90.2385 6.36866 90.8991 6.40505C93.7279 6.55989 96.5337 6.90382 99.3208 7.40045C99.6277 7.4554 99.9324 7.52747 100.241 7.55815C100.472 7.58098 100.545 7.69444 100.565 7.89922C100.597 8.2296 100.646 8.55854 100.673 8.77261L100.674 8.77404Z" fill="#4E83C3"/>
<path d="M30.3477 48.2205C30.2289 48.5544 30.1324 48.8185 30.0409 49.0832C29.5806 50.4197 29.1152 51.754 28.6693 53.094C28.5829 53.3531 28.459 53.4387 28.1845 53.4337C27.261 53.4159 26.3361 53.4216 25.4118 53.4301C25.1626 53.4323 25.097 53.3802 25.1957 53.1262C26.2597 50.3918 27.3158 47.6547 28.3653 44.9153C28.4395 44.7205 28.5432 44.6756 28.7363 44.677C29.8046 44.6856 30.8729 44.6856 31.9412 44.677C32.1422 44.6756 32.2322 44.7405 32.3042 44.9275C33.3517 47.6554 34.4041 50.3811 35.4652 53.1033C35.5596 53.3459 35.5552 53.4358 35.257 53.4316C34.3213 53.418 33.3848 53.4194 32.4483 53.4316C32.212 53.4351 32.1213 53.3481 32.0485 53.134C31.5349 51.6156 31.0062 50.1021 30.4817 48.5873C30.4479 48.4902 30.4111 48.3939 30.347 48.2198L30.3477 48.2205Z" fill="#4E83C3"/>
<path d="M82.4399 26.119C82.0905 27.1287 81.7469 28.1219 81.404 29.1152C81.1872 29.7438 80.966 30.371 80.7593 31.0025C80.6988 31.1873 80.6102 31.2594 80.4034 31.2566C79.4316 31.2444 78.4599 31.2466 77.4881 31.2551C77.2742 31.2573 77.2144 31.2173 77.2987 31.0018C78.3778 28.249 79.4533 25.4946 80.5216 22.7382C80.5957 22.5477 80.6973 22.497 80.8918 22.4985C81.9594 22.507 83.0277 22.5077 84.0953 22.4985C84.2962 22.497 84.3877 22.5648 84.4583 22.7503C85.4956 25.4683 86.538 28.184 87.5883 30.8969C87.6949 31.1717 87.674 31.2644 87.3455 31.258C86.4343 31.2394 85.5216 31.2402 84.6103 31.2587C84.3416 31.2644 84.2386 31.1659 84.1587 30.9283C83.6587 29.4434 83.1444 27.9635 82.6315 26.4829C82.5904 26.3652 82.5868 26.226 82.4391 26.1197L82.4399 26.119Z" fill="#4E83C3"/>
<path d="M12.9669 48.2219C12.4418 49.7396 11.9526 51.151 11.4657 52.5624C11.2668 53.139 10.8651 53.4275 10.2605 53.428C9.50485 53.428 8.74919 53.4223 7.99353 53.4315C7.77886 53.4344 7.71619 53.3852 7.79975 53.1718C8.88246 50.4082 9.96156 47.6432 11.0363 44.8768C11.1004 44.7113 11.1991 44.6791 11.3612 44.6799C12.441 44.6856 13.5209 44.6863 14.6 44.6791C14.77 44.6777 14.8542 44.7334 14.9155 44.8896C15.9917 47.6561 17.0715 50.4204 18.1542 53.1839C18.2277 53.3716 18.1902 53.433 17.9813 53.4315C16.9858 53.4244 15.9902 53.4216 14.9947 53.4337C14.7563 53.4365 14.7311 53.2853 14.677 53.1283C14.1627 51.6363 13.6462 50.1442 13.1304 48.6529C13.093 48.5444 13.049 48.4374 12.9683 48.2241L12.9669 48.2219Z" fill="#4E83C3"/>
<path d="M94.5859 31.2516C94.8546 30.568 95.1067 29.9315 95.3552 29.2922C96.1937 27.1337 97.0337 24.9766 97.8621 22.8146C97.9514 22.5812 98.0616 22.4913 98.3224 22.4956C99.3539 22.512 100.385 22.5049 101.418 22.4999C101.601 22.4992 101.72 22.5227 101.798 22.7246C102.873 25.5039 103.958 28.2796 105.039 31.0568C105.059 31.1089 105.066 31.1667 105.086 31.2501C103.982 31.2501 102.905 31.2466 101.828 31.253C101.622 31.2544 101.609 31.111 101.563 30.9804C101.043 29.477 100.524 27.9742 100.004 26.4708C99.9655 26.3609 99.9245 26.2517 99.8812 26.1333C99.73 26.2118 99.735 26.3573 99.6954 26.4722C99.1767 27.9635 98.6573 29.4541 98.1531 30.9497C98.0753 31.1802 97.9737 31.2616 97.7238 31.2573C96.6958 31.2416 95.6671 31.2509 94.588 31.2509L94.5859 31.2516Z" fill="#4E83C3"/>
<path d="M73.7646 22.5027C75.0836 22.5027 76.4033 22.5113 77.7222 22.4956C78.0154 22.492 78.0867 22.5855 78.0788 22.8595C78.0601 23.4767 78.0615 24.0947 78.0788 24.7119C78.086 24.9681 77.9931 25.0366 77.7482 25.0308C77.1611 25.0166 76.5718 25.0451 75.9854 25.0187C75.649 25.0037 75.5374 25.0851 75.541 25.4426C75.5612 27.2478 75.5424 29.0531 75.5575 30.8591C75.5604 31.1681 75.487 31.2673 75.1621 31.2594C74.2515 31.2366 73.3388 31.233 72.4283 31.2608C72.0768 31.2715 72.0213 31.146 72.0235 30.8384C72.0364 29.0331 72.022 27.2271 72.0371 25.4219C72.0393 25.1158 71.9702 25.0052 71.6431 25.0194C71.0322 25.0458 70.4199 25.0216 69.8084 25.0294C69.6095 25.0323 69.5008 25.0009 69.5065 24.7618C69.5217 24.0968 69.5209 23.4311 69.5065 22.7667C69.5015 22.5291 69.6067 22.4985 69.8076 22.4992C71.1266 22.5056 72.4463 22.5027 73.7653 22.502L73.7646 22.5027Z" fill="#4E83C3"/>
<path d="M91.1677 22.5027C92.4882 22.5027 93.8079 22.5092 95.1276 22.497C95.3819 22.4949 95.4546 22.5719 95.4481 22.8188C95.4323 23.4603 95.4337 24.1025 95.4481 24.744C95.4525 24.9631 95.384 25.0337 95.1643 25.0301C94.5282 25.0187 93.8922 25.0394 93.2568 25.0209C92.9838 25.0123 92.9161 25.0979 92.9175 25.3619C92.929 27.2043 92.9161 29.0467 92.9305 30.8884C92.9326 31.1931 92.839 31.2637 92.5465 31.258C91.623 31.2402 90.6981 31.233 89.7746 31.2608C89.4202 31.2715 89.3669 31.1403 89.369 30.8341C89.3813 29.0274 89.3669 27.2207 89.3827 25.4147C89.3856 25.0936 89.2883 25.0087 88.9764 25.0201C88.3771 25.043 87.7763 25.0209 87.177 25.0301C86.9767 25.033 86.9011 24.9673 86.9032 24.7647C86.9119 24.1111 86.9176 23.4568 86.9011 22.8039C86.8939 22.5341 87.0134 22.4977 87.2447 22.4992C88.5528 22.5077 89.861 22.5034 91.1685 22.5034L91.1677 22.5027Z" fill="#4E83C3"/>
<path d="M4.30169 44.6813C5.59761 44.6813 6.89426 44.6941 8.19019 44.6727C8.523 44.667 8.58999 44.7741 8.57774 45.0752C8.55397 45.6567 8.54965 46.2411 8.57918 46.8219C8.59647 47.153 8.47257 47.2208 8.17074 47.2101C7.58365 47.1894 6.99439 47.2172 6.40658 47.1987C6.1278 47.1894 6.04136 47.2686 6.04352 47.554C6.05648 49.3843 6.04136 51.2153 6.05864 53.0455C6.06153 53.3723 5.95996 53.4408 5.65308 53.4344C4.71733 53.4159 3.78087 53.4194 2.84512 53.433C2.59371 53.4366 2.52168 53.3631 2.5224 53.1133C2.53248 51.2588 2.52096 49.405 2.53464 47.5505C2.5368 47.2601 2.44388 47.1908 2.17014 47.1987C1.55855 47.2165 0.946248 47.1951 0.333942 47.2087C0.0976643 47.2137 -0.00750835 47.1659 0.000415615 46.9004C0.0198653 46.2589 0.0169839 45.6168 0.00113598 44.9753C-0.00462691 44.7391 0.0710109 44.6756 0.304408 44.677C1.63635 44.687 2.96902 44.682 4.30097 44.682L4.30169 44.6813Z" fill="#4E83C3"/>
<path d="M21.6753 44.682C22.995 44.682 24.3155 44.6863 25.6352 44.6777C25.8613 44.6763 25.9499 44.727 25.9442 44.9703C25.9276 45.6232 25.9291 46.2775 25.9442 46.9311C25.9492 47.1587 25.8649 47.2123 25.6532 47.2087C25.0416 47.198 24.4286 47.2265 23.8177 47.1973C23.4726 47.1809 23.4085 47.3036 23.4114 47.6168C23.4258 49.435 23.4128 51.2531 23.4244 53.0712C23.4258 53.3409 23.3667 53.4408 23.0721 53.4351C22.1364 53.4166 21.1999 53.4159 20.2649 53.4351C19.9551 53.4415 19.8903 53.3359 19.8917 53.0498C19.904 51.2196 19.8917 49.3893 19.904 47.5597C19.9061 47.2822 19.8327 47.1894 19.5459 47.1987C18.9344 47.2187 18.3221 47.1916 17.7105 47.2108C17.4346 47.2194 17.3633 47.1252 17.3712 46.8633C17.3892 46.234 17.387 45.6039 17.3712 44.9738C17.3654 44.7334 17.4504 44.6756 17.6802 44.6777C19.0122 44.687 20.3441 44.682 21.6761 44.682H21.6753Z" fill="#4E83C3"/>
<path d="M61.2058 50.9306C61.0934 49.1474 61.1136 47.3657 61.1187 45.5846C61.1194 45.2678 60.9775 44.8597 61.1871 44.6585C61.3773 44.4765 61.7821 44.6064 62.0919 44.6071C62.6501 44.6071 62.5817 44.5272 62.5824 45.1023C62.5853 47.6332 62.5788 50.1642 62.5896 52.6952C62.5911 52.9941 62.5363 53.1311 62.2006 53.0955C61.7864 53.0512 61.2951 53.2367 60.971 53.0248C60.6634 52.8236 60.5164 52.3741 60.3126 52.0251C59.2457 50.1992 58.0679 48.436 57.1365 46.5051C57.1365 46.66 57.1286 46.8155 57.1379 46.9696C57.251 48.9169 57.174 50.8663 57.2028 52.8143C57.2064 53.0362 57.1379 53.1069 56.9175 53.0933C56.6423 53.0762 56.3643 53.0698 56.0905 53.0948C55.8103 53.1204 55.7541 53.012 55.7556 52.7537C55.7671 51.0904 55.7613 49.4264 55.7613 47.7631C55.7613 46.8127 55.7707 45.8615 55.7556 44.9111C55.7512 44.6542 55.8341 44.5878 56.0805 44.5992C56.5595 44.6206 57.1257 44.4579 57.4945 44.6606C57.8612 44.8618 58.0341 45.4148 58.2833 45.8187C58.802 46.6592 59.3163 47.5027 59.8285 48.3468C60.3342 49.1795 60.7786 50.0436 61.2058 50.9313V50.9306Z" fill="#4E83C3"/>
<path d="M99.7732 46.5158C99.7732 47.193 99.7717 47.8673 99.7732 48.5416C99.7768 49.9444 99.7761 51.3473 99.7905 52.7494C99.7934 53.0034 99.7422 53.1254 99.4569 53.0933C99.0917 53.0519 98.6012 53.2467 98.3915 53.0113C98.21 52.8072 98.3296 52.3334 98.3296 51.9788C98.3274 49.6369 98.3332 47.295 98.3224 44.9532C98.3209 44.6791 98.3843 44.5793 98.6753 44.5978C99.1529 44.6271 99.704 44.4744 100.092 44.6627C100.483 44.8525 100.629 45.4198 100.877 45.8244C101.901 47.4955 102.974 49.1403 103.825 50.932C103.818 50.7879 103.814 50.643 103.804 50.4989C103.666 48.6351 103.738 46.7677 103.713 44.9025C103.71 44.6749 103.769 44.5778 104.011 44.6014C104.389 44.6392 104.883 44.4437 105.112 44.6841C105.295 44.8761 105.171 45.3606 105.171 45.7152C105.173 48.0571 105.167 50.399 105.178 52.7408C105.179 53.0191 105.11 53.1147 104.821 53.0955C104.404 53.0676 103.907 53.2146 103.585 53.037C103.264 52.8607 103.109 52.3791 102.897 52.023C101.822 50.2256 100.661 48.4759 99.8178 46.5515C99.8099 46.5337 99.7833 46.5237 99.7732 46.5165V46.5158Z" fill="#4E83C3"/>
<path d="M54.3141 47.6775C53.9532 46.0706 53.0542 44.9275 51.3808 44.5714C49.7384 44.2211 48.2934 44.6271 47.2532 45.9992C46.3311 47.2158 46.1733 48.6215 46.4788 50.0707C46.7828 51.5157 47.5838 52.6088 49.0656 53.037C50.5978 53.4794 52.0241 53.226 53.1976 52.0979C54.1247 51.2074 54.3948 50.0479 54.415 48.8698C54.4092 48.431 54.3977 48.0514 54.3141 47.6775ZM52.295 50.7643C51.8995 51.4971 51.3073 51.9445 50.4386 51.9723C49.5576 52.0009 48.892 51.6134 48.49 50.8642C47.761 49.5077 47.7574 48.1085 48.5246 46.7777C49.371 45.3106 51.3354 45.3385 52.2164 46.7884C52.5982 47.417 52.7243 48.1135 52.7365 48.8242C52.7221 49.5099 52.6191 50.1642 52.295 50.7643Z" fill="#4E83C3"/>
<path d="M143.585 52.8693C143.356 52.1943 143.214 51.495 143.034 50.8057C142.849 50.0921 142.572 49.4271 141.838 49.0675C141.883 49.0339 141.91 49.0097 141.941 48.9933C143.007 48.4353 143.488 47.5897 143.333 46.5415C143.184 45.5368 142.525 44.9025 141.352 44.6635C140.244 44.438 139.134 44.5243 138.02 44.6428C137.652 44.682 137.583 44.824 137.588 45.1565C137.608 46.4402 137.596 47.7246 137.596 49.0083C137.596 50.2919 137.601 51.5285 137.592 52.7886C137.59 53.017 137.65 53.1097 137.893 53.0933C138.18 53.0741 138.471 53.0691 138.756 53.094C139.063 53.1212 139.175 53.0384 139.164 52.7094C139.137 51.926 139.155 51.1411 139.155 50.3562C139.155 49.5712 139.155 49.5506 139.984 49.5891C140.719 49.6241 141.094 49.8981 141.346 50.5938C141.402 50.7493 141.445 50.9106 141.487 51.0711C141.633 51.622 141.78 52.1721 141.919 52.7251C141.984 52.9884 142.104 53.1276 142.414 53.0962C142.747 53.0626 143.086 53.0833 143.421 53.0912C143.6 53.0955 143.649 53.0591 143.585 52.8693ZM141.205 48.162C140.61 48.5302 139.938 48.4567 139.282 48.4495C139.114 48.4481 139.159 48.3018 139.157 48.2055C139.152 47.8495 139.155 47.4934 139.156 47.1373C139.156 46.7577 139.155 46.3774 139.157 45.9978C139.157 45.8822 139.134 45.7559 139.321 45.7445C139.87 45.7109 140.42 45.6275 140.957 45.8251C141.468 46.0128 141.757 46.376 141.803 46.914C141.847 47.4399 141.668 47.8759 141.205 48.162Z" fill="#4E83C3"/>
<path d="M77.6934 47.6918C77.661 48.5123 77.7611 49.5006 77.6012 50.481C77.2533 52.6145 75.6685 53.3895 73.8121 53.1996C72.1409 53.0284 71.2015 52.038 71.0279 50.3626C70.8867 48.9997 70.989 47.6325 70.9624 46.2675C70.9537 45.8044 70.9732 45.3406 70.9559 44.8775C70.9472 44.652 71.0265 44.59 71.2426 44.6007C71.5776 44.6164 71.9147 44.6192 72.2497 44.5999C72.4917 44.5857 72.5472 44.6742 72.5464 44.9018C72.5378 46.4816 72.5414 48.0621 72.5421 49.6419C72.5421 50.1214 72.612 50.5895 72.8195 51.0276C73.1263 51.6741 73.6407 51.9916 74.3668 51.9766C75.0915 51.9616 75.5928 51.6306 75.8752 50.9698C76.0849 50.4775 76.1201 49.9566 76.1216 49.4328C76.1266 47.9358 76.1295 46.4388 76.118 44.9417C76.1158 44.6856 76.1684 44.5707 76.4515 44.6007C76.852 44.6428 77.3765 44.4351 77.6264 44.6827C77.8605 44.9146 77.6848 45.4291 77.692 45.8187C77.7021 46.3888 77.6949 46.9589 77.6949 47.6925L77.6934 47.6918Z" fill="#4E83C3"/>
<path d="M97.0668 52.8072C96.1829 50.1499 95.3062 47.4905 94.4332 44.8297C94.3755 44.6542 94.2884 44.5942 94.1018 44.5992C93.6343 44.6128 93.1653 44.6185 92.6985 44.5978C92.4522 44.5864 92.3506 44.6663 92.2749 44.9018C91.6907 46.7206 91.0892 48.5337 90.4942 50.349C90.1996 51.2488 89.9071 52.1493 89.6017 53.089C90.0843 53.089 90.5259 53.0769 90.9653 53.094C91.175 53.1026 91.26 53.0248 91.3154 52.8357C91.4984 52.2092 91.7102 51.5906 91.8831 50.962C91.9472 50.7308 92.056 50.6687 92.2843 50.673C92.9917 50.6858 93.6998 50.6858 94.4072 50.673C94.6226 50.6687 94.7256 50.735 94.7876 50.9434C94.9734 51.5685 95.1859 52.1864 95.3761 52.8108C95.4344 53.0034 95.5108 53.1083 95.742 53.0948C96.113 53.0726 96.4862 53.0791 96.8572 53.0926C97.0949 53.1012 97.1431 53.037 97.0668 52.8072ZM92.4111 49.5249C92.321 49.5249 92.2036 49.5491 92.2555 49.3822C92.6157 48.2305 93.0241 47.0924 93.331 45.9136C93.3432 45.9535 93.3569 45.9928 93.367 46.0335C93.6508 47.198 94.0478 48.3297 94.4382 49.5256C93.7294 49.5256 93.0702 49.5263 92.4111 49.5249Z" fill="#4E83C3"/>
<path d="M131.024 48.817C131.024 47.5212 131.028 46.2254 131.02 44.9303C131.018 44.7027 131.049 44.5949 131.323 44.5971C132.787 44.6106 134.251 44.6071 135.716 44.5992C135.939 44.5978 136.025 44.6456 136.029 44.8896C136.042 45.8793 136.051 45.8793 135.051 45.8793C134.343 45.8793 133.635 45.8879 132.927 45.8743C132.689 45.8701 132.584 45.9186 132.594 46.1826C132.614 46.7049 132.612 47.2287 132.595 47.751C132.588 47.9886 132.671 48.0528 132.903 48.05C133.766 48.0393 134.631 48.0557 135.494 48.04C135.767 48.035 135.839 48.122 135.839 48.3853C135.837 49.3215 135.847 49.3215 134.915 49.3215C134.243 49.3215 133.571 49.3308 132.899 49.3165C132.661 49.3115 132.59 49.3886 132.595 49.6205C132.609 50.2498 132.613 50.8806 132.594 51.51C132.585 51.7775 132.691 51.8182 132.928 51.8154C133.912 51.8039 134.896 51.8182 135.88 51.8054C136.132 51.8018 136.262 51.8432 136.228 52.1293C136.191 52.4326 136.352 52.8286 136.163 53.0227C135.971 53.2189 135.571 53.0833 135.264 53.0848C133.956 53.0919 132.648 53.0812 131.339 53.0933C131.086 53.0955 131.016 53.0227 131.018 52.7744C131.03 51.455 131.024 50.1357 131.024 48.8163V48.817Z" fill="#4E83C3"/>
<path d="M163.426 48.8177C163.426 47.5219 163.434 46.2268 163.42 44.931C163.417 44.6592 163.498 44.5949 163.764 44.5978C165.204 44.6106 166.644 44.6092 168.083 44.5992C168.326 44.5978 168.413 44.6513 168.413 44.9103C168.413 45.8808 168.424 45.8808 167.453 45.8808C166.745 45.8808 166.037 45.8943 165.33 45.8743C165.05 45.8665 164.983 45.9607 164.992 46.2197C165.011 46.7299 165.008 47.2422 164.993 47.7524C164.986 47.9893 165.072 48.0549 165.303 48.0521C166.167 48.0414 167.031 48.055 167.895 48.0435C168.138 48.04 168.227 48.1035 168.23 48.3596C168.241 49.3236 168.25 49.3236 167.265 49.3236C166.605 49.3236 165.945 49.3315 165.285 49.3194C165.067 49.3158 164.99 49.385 164.994 49.6026C165.005 50.2441 165.008 50.8863 164.992 51.5278C164.985 51.7775 165.09 51.8182 165.309 51.8161C166.293 51.8075 167.277 51.8211 168.261 51.8061C168.522 51.8025 168.612 51.8617 168.612 52.1372C168.61 53.0898 168.621 53.0898 167.669 53.0898C166.36 53.0898 165.052 53.0833 163.744 53.0948C163.493 53.0969 163.418 53.0255 163.42 52.7765C163.431 51.4572 163.425 50.1378 163.425 48.8185L163.426 48.8177Z" fill="#4E83C3"/>
<path d="M147.849 51.4828C148.369 49.2559 149.179 47.1609 149.823 45.0152C149.926 44.6734 150.083 44.5707 150.422 44.5964C150.803 44.6249 151.187 44.6028 151.589 44.6028C151.556 44.9003 151.434 45.1458 151.346 45.3991C150.487 47.853 149.619 50.3041 148.77 52.7608C148.679 53.0248 148.56 53.1119 148.289 53.0933C147.931 53.0698 147.568 53.0684 147.21 53.0933C146.94 53.1126 146.842 53.0041 146.764 52.7637C145.908 50.1464 145.045 47.5312 144.17 44.9196C144.072 44.6271 144.151 44.5778 144.423 44.5985C144.875 44.6328 145.443 44.4237 145.748 44.6756C146.034 44.9118 146.055 45.4705 146.179 45.8908C146.714 47.6875 147.332 49.4606 147.761 51.2881C147.774 51.343 147.808 51.3922 147.849 51.4807V51.4828Z" fill="#4E83C3"/>
<path d="M127.451 44.4622C127.85 44.4694 128.39 44.5536 128.92 44.7291C129.183 44.8162 129.308 44.921 129.178 45.2122C129.088 45.417 129.033 45.6403 128.985 45.8594C128.937 46.072 128.861 46.1205 128.646 46.0221C128.101 45.7723 127.517 45.7074 126.924 45.7488C126.084 45.8073 125.589 46.4373 125.845 47.1052C125.95 47.3771 126.165 47.5433 126.405 47.6861C126.746 47.8887 127.119 48.0221 127.486 48.1663C127.844 48.3061 128.191 48.4681 128.511 48.6793C130.1 49.7275 129.976 51.993 128.258 52.82C126.918 53.4644 125.557 53.3202 124.219 52.7565C124.062 52.6909 124.041 52.6067 124.091 52.4511C124.194 52.1357 124.176 51.7048 124.386 51.5214C124.616 51.3209 124.948 51.6819 125.253 51.7504C125.807 51.8746 126.357 51.9738 126.926 51.8846C127.499 51.7954 127.898 51.47 127.993 51.0133C128.098 50.5053 127.892 50.0857 127.373 49.7603C127.057 49.5627 126.708 49.4342 126.36 49.3044C125.91 49.1367 125.477 48.9348 125.094 48.6408C123.82 47.6625 123.889 45.8644 125.237 44.9874C125.861 44.5821 126.562 44.4544 127.452 44.4622H127.451Z" fill="#4E83C3"/>
<path d="M67.2007 44.4594C67.8072 44.4644 68.3828 44.5543 68.9418 44.7555C69.137 44.8261 69.2429 44.9089 69.1521 45.1415C69.0405 45.4284 69.0491 45.8215 68.8503 45.9992C68.6284 46.1983 68.3172 45.8629 68.0255 45.8215C67.5118 45.7495 67.0011 45.6703 66.494 45.8265C66.0899 45.9507 65.7981 46.1969 65.7398 46.6421C65.6843 47.0674 65.8752 47.3728 66.2217 47.6033C66.5531 47.823 66.9197 47.9672 67.2885 48.1085C67.7251 48.2762 68.1522 48.4624 68.5369 48.7321C69.974 49.7411 69.9114 51.8689 68.3748 52.7273C66.9946 53.4979 65.5626 53.3367 64.1514 52.7473C64.0303 52.6966 63.9821 52.6252 64.0325 52.4989C64.0455 52.4661 64.0462 52.429 64.057 52.3948C64.1499 52.0879 64.1543 51.6741 64.3624 51.5064C64.567 51.3409 64.8984 51.6712 65.1894 51.7433C65.7534 51.8824 66.3153 51.9738 66.8959 51.8796C67.4859 51.7832 67.8663 51.4607 67.9664 50.9712C68.0636 50.4939 67.8526 50.0886 67.3318 49.7639C67.0155 49.567 66.669 49.4357 66.3204 49.3079C65.8694 49.1424 65.4358 48.9426 65.0518 48.6508C63.7321 47.6489 63.8315 45.8044 65.2521 44.9417C65.8543 44.5764 66.5192 44.458 67.1999 44.4587L67.2007 44.4594Z" fill="#4E83C3"/>
<path d="M172.759 44.4594C173.436 44.4644 174.023 44.565 174.592 44.7719C174.789 44.8433 174.851 44.9339 174.768 45.1408C174.676 45.3713 174.605 45.6132 174.554 45.8558C174.508 46.0749 174.433 46.1141 174.218 46.0242C173.564 45.7495 172.881 45.6496 172.18 45.8101C171.741 45.9114 171.415 46.1519 171.341 46.6279C171.267 47.1074 171.519 47.4156 171.904 47.6504C172.273 47.8759 172.679 48.02 173.081 48.177C173.449 48.3218 173.805 48.4909 174.132 48.7143C175.616 49.7289 175.546 51.881 173.959 52.7423C172.599 53.4808 171.191 53.3445 169.8 52.7672C169.648 52.7044 169.611 52.6095 169.655 52.4583C169.731 52.1964 169.804 51.9331 169.867 51.6677C169.914 51.4679 169.972 51.4029 170.199 51.5064C170.917 51.8339 171.672 52.0016 172.47 51.8846C173.069 51.7968 173.448 51.485 173.556 50.9962C173.667 50.4953 173.46 50.0829 172.929 49.7539C172.612 49.5577 172.265 49.4271 171.916 49.3001C171.442 49.1274 170.987 48.9155 170.593 48.5958C169.439 47.6625 169.472 45.9771 170.664 45.088C171.306 44.6092 172.048 44.4629 172.759 44.4594Z" fill="#4E83C3"/>
<path d="M159.969 44.4565C160.729 44.4672 161.333 44.5329 161.92 44.727C162.102 44.7869 162.172 44.8575 162.101 45.0595C161.994 45.3606 162.012 45.768 161.811 45.9564C161.6 46.1541 161.25 45.8572 160.953 45.8094C160.364 45.7159 159.781 45.6981 159.204 45.8494C157.962 46.174 157.241 47.1252 157.13 48.5716C157.087 49.1224 157.151 49.6654 157.346 50.1842C157.792 51.3708 158.954 52.028 160.384 51.9153C160.791 51.8831 161.195 51.8303 161.583 51.6941C161.759 51.632 161.85 51.6619 161.873 51.8639C161.891 52.028 161.943 52.1878 161.979 52.3505C162.092 52.8593 162.094 52.8707 161.6 52.9999C160.465 53.296 159.326 53.3374 158.197 52.9706C156.62 52.459 155.784 51.3337 155.525 49.7475C155.409 49.0354 155.441 48.3254 155.626 47.6268C156.069 45.945 157.439 44.7576 159.186 44.5307C159.495 44.4908 159.804 44.4458 159.971 44.4558L159.969 44.4565Z" fill="#4E83C3"/>
<path d="M43.5959 53.231C42.7833 53.2211 41.9931 53.0969 41.2691 52.7109C39.9012 51.9823 39.3184 50.7729 39.2046 49.3008C39.1333 48.3839 39.2752 47.4948 39.7254 46.6799C40.525 45.2329 41.8332 44.5978 43.436 44.4729C44.1462 44.4173 44.8479 44.4986 45.5373 44.6856C45.798 44.7562 45.9291 44.8611 45.8088 45.1522C45.7231 45.3592 45.6619 45.5804 45.6208 45.8008C45.5783 46.0278 45.4933 46.0542 45.2779 45.9778C44.5158 45.7074 43.7299 45.6474 42.9425 45.8472C41.6992 46.1626 40.9478 47.1545 40.8578 48.5623C40.8311 48.9797 40.8556 49.3943 40.9558 49.801C41.3066 51.2245 42.4484 52.013 44.0209 51.9203C44.4524 51.8946 44.8825 51.8446 45.2916 51.6998C45.4904 51.6291 45.5855 51.6691 45.6043 51.881C45.6115 51.9631 45.6403 52.043 45.6576 52.1243C45.8261 52.9035 45.8276 52.9078 45.0229 53.0769C44.5532 53.1754 44.0764 53.2303 43.5952 53.231H43.5959Z" fill="#4E83C3"/>
<path d="M106.54 48.9219C106.51 46.3524 108.294 44.5322 110.893 44.4644C111.569 44.4465 112.234 44.5058 112.884 44.7013C113.092 44.7633 113.22 44.839 113.114 45.1016C113 45.3863 113.026 45.7866 112.831 45.9621C112.636 46.1376 112.292 45.8601 112.005 45.8144C110.833 45.6289 109.735 45.7331 108.901 46.6764C108.173 47.4991 108.073 48.5116 108.236 49.5363C108.495 51.1596 109.707 52.0451 111.401 51.916C111.82 51.8839 112.237 51.8311 112.634 51.6876C112.815 51.6227 112.902 51.6698 112.926 51.8539C112.936 51.936 112.953 52.018 112.97 52.0994C113.142 52.905 113.144 52.9128 112.331 53.0783C111.465 53.2553 110.597 53.2903 109.724 53.1047C107.863 52.708 106.644 51.3059 106.54 49.4214C106.531 49.2559 106.539 49.0889 106.539 48.9226L106.54 48.9219Z" fill="#4E83C3"/>
<path d="M117.279 48.386C117.519 47.8701 117.756 47.3564 117.995 46.8441C118.308 46.1769 118.628 45.5133 118.933 44.8433C119.013 44.6699 119.107 44.5914 119.31 44.5985C119.789 44.6149 120.269 44.6035 120.762 44.6035C120.786 44.7584 120.679 44.8518 120.619 44.956C119.794 46.3745 118.968 47.7931 118.134 49.2066C118.02 49.3993 117.969 49.5891 117.971 49.811C117.978 50.7971 117.967 51.7833 117.979 52.7687C117.982 53.0113 117.92 53.1105 117.66 53.0933C117.338 53.0726 117.012 53.0726 116.689 53.0933C116.439 53.1097 116.393 53.0049 116.395 52.7844C116.405 51.8104 116.395 50.8364 116.403 49.8624C116.404 49.6526 116.355 49.4714 116.255 49.2887C115.472 47.8602 114.695 46.4295 113.916 44.9988C113.855 44.8868 113.801 44.7712 113.718 44.6042C114.286 44.6042 114.808 44.6092 115.329 44.6021C115.531 44.5992 115.55 44.7605 115.605 44.8797C116.117 45.9778 116.624 47.0781 117.134 48.177C117.166 48.2469 117.173 48.3361 117.279 48.386Z" fill="#4E83C3"/>
<path d="M86.1591 49.4863C86.1591 48.4289 86.1418 47.3714 86.1685 46.3146C86.1778 45.955 86.0611 45.8779 85.7247 45.8943C85.1506 45.9214 84.5736 45.8908 83.998 45.9072C83.756 45.9143 83.6854 45.8308 83.7019 45.6032C83.725 45.2857 83.6047 44.8718 83.7653 44.6742C83.9368 44.4637 84.3719 44.6085 84.6903 44.6071C86.4054 44.5999 88.1206 44.6092 89.8358 44.5985C90.0937 44.5971 90.2133 44.647 90.1816 44.9282C90.1477 45.2329 90.3048 45.6282 90.1225 45.8251C89.9201 46.0435 89.5117 45.885 89.1933 45.8993C88.846 45.915 88.4959 45.9257 88.1502 45.8965C87.8094 45.8679 87.7028 45.9678 87.7057 46.321C87.723 48.4353 87.7057 50.5502 87.7223 52.6645C87.7252 53.0041 87.6445 53.1383 87.2893 53.094C86.9248 53.0491 86.448 53.2439 86.2189 53.0141C86.0071 52.8015 86.1627 52.3363 86.1598 51.9823C86.1519 51.151 86.1576 50.319 86.1576 49.4878L86.1591 49.4863Z" fill="#4E83C3"/>
<path d="M79.4633 48.8156C79.4633 47.5319 79.4691 46.2482 79.4583 44.9646C79.4561 44.7056 79.4936 44.5657 79.8026 44.5992C80.2039 44.6428 80.7312 44.4358 80.9775 44.6813C81.2059 44.9082 81.038 45.4262 81.0388 45.8158C81.0438 47.6818 81.0503 49.5477 81.0323 51.4136C81.0294 51.7412 81.131 51.8061 81.4364 51.7997C82.3722 51.7804 83.3086 51.7997 84.2444 51.7875C84.4907 51.784 84.5916 51.8496 84.5693 52.1051C84.5484 52.3413 84.5505 52.581 84.5693 52.8172C84.5865 53.0462 84.4893 53.0933 84.2782 53.0926C82.7784 53.0855 81.2779 53.0833 79.7781 53.094C79.5231 53.0962 79.4554 53.0205 79.4576 52.7729C79.4691 51.4536 79.4633 50.1342 79.4633 48.8149V48.8156Z" fill="#4E83C3"/>
<path d="M154.121 48.8127C154.121 50.1193 154.114 51.4265 154.126 52.733C154.128 53.0013 154.069 53.1226 153.771 53.0948C153.485 53.0684 153.194 53.0712 152.908 53.0948C152.629 53.1169 152.542 53.0298 152.544 52.7437C152.557 50.9741 152.55 49.2038 152.55 47.4335C152.55 46.59 152.558 45.7466 152.546 44.9032C152.543 44.677 152.599 44.5821 152.844 44.5992C153.13 44.6192 153.421 44.6235 153.707 44.5992C154.025 44.5714 154.136 44.6613 154.13 45.001C154.109 46.2718 154.121 47.5426 154.121 48.8142L154.121 48.8127Z" fill="#4E83C3"/>
</g>
</svg>
