<svg width="59" height="64" viewBox="0 0 59 64" fill="none" xmlns="http://www.w3.org/2000/svg">
<g id="bachelor">
<path id="Path 24667" d="M47.9073 34.2464C46.3968 34.2464 44.9202 34.6943 43.6642 35.5335C42.4083 36.3727 41.4294 37.5655 40.8514 38.961C40.2733 40.3565 40.1221 41.8921 40.4168 43.3736C40.7115 44.8551 41.4388 46.2159 42.5069 47.284C43.575 48.3521 44.9358 49.0795 46.4173 49.3742C47.8988 49.6689 49.4344 49.5176 50.8299 48.9396C52.2255 48.3615 53.4183 47.3826 54.2574 46.1267C55.0966 44.8708 55.5446 43.3942 55.5446 41.8837C55.5412 39.8592 54.7355 37.9185 53.304 36.487C51.8724 35.0554 49.9318 34.2497 47.9073 34.2464ZM47.9073 48.0493C46.6899 48.0493 45.4999 47.6883 44.4877 47.012C43.4754 46.3356 42.6865 45.3743 42.2207 44.2496C41.7548 43.1249 41.6329 41.8873 41.8704 40.6933C42.1079 39.4993 42.6941 38.4026 43.5549 37.5418C44.4157 36.6809 45.5125 36.0947 46.7065 35.8572C47.9005 35.6197 49.1381 35.7416 50.2628 36.2075C51.3875 36.6733 52.3488 37.4623 53.0251 38.4745C53.7015 39.4867 54.0625 40.6767 54.0625 41.8941C54.0594 43.5256 53.41 45.0895 52.2563 46.2431C51.1026 47.3968 49.5388 48.0463 47.9073 48.0493Z" fill="#D0C9B3"/>
<path id="Path 24668" d="M55.7043 49.0474C57.0579 47.581 57.9693 45.7617 58.3332 43.7995C58.6972 41.8374 58.4989 39.8123 57.7613 37.9579C57.0237 36.1036 55.7768 34.4957 54.1645 33.3196C52.5522 32.1436 50.6402 31.4474 48.6492 31.3114V16.8166C48.647 15.5338 48.1366 14.3041 47.2299 13.3968C46.3231 12.4894 45.0938 11.9783 43.811 11.9752H26.2297L23.5226 5.68104L26.8923 2.75448L28.3838 6.22454C28.0666 6.48446 27.8131 6.81355 27.6427 7.18658C27.4723 7.55962 27.3895 7.96671 27.4008 8.37666C27.412 8.78662 27.5169 9.18857 27.7075 9.55172C27.898 9.91487 28.1692 10.2296 28.5001 10.4718C28.8311 10.7139 29.2131 10.8771 29.6169 10.9489C30.0207 11.0206 30.4356 10.999 30.8297 10.8856C31.2238 10.7723 31.5868 10.5702 31.8908 10.2949C32.1948 10.0196 32.4317 9.67843 32.5834 9.29742C32.7158 8.97025 32.7814 8.61992 32.7763 8.26704C32.7713 7.91415 32.6958 7.56583 32.5542 7.24256C32.3266 6.70552 31.9283 6.25849 31.421 5.97072C30.9136 5.68294 30.3255 5.57047 29.7478 5.65073L27.8508 1.23476C27.8132 1.14973 27.7596 1.07273 27.693 1.00795C27.6836 0.998546 27.6637 0.988094 27.6532 0.968235C27.5988 0.922166 27.5391 0.882535 27.4756 0.850127C27.4575 0.839084 27.4371 0.832293 27.416 0.830269C27.3514 0.811351 27.2853 0.798062 27.2184 0.790551C27.1922 0.785474 27.1652 0.785474 27.139 0.790551H27.0993L12.0808 2.25383C11.927 2.27068 11.7816 2.33248 11.6627 2.43151L0.263804 12.3212C0.14703 12.4183 0.0633754 12.5494 0.024444 12.6962C-0.0144874 12.843 -0.00676528 12.9983 0.0465389 13.1405C0.099843 13.2827 0.196087 13.4048 0.32192 13.4899C0.447752 13.5749 0.596936 13.6187 0.748776 13.6151H0.81776L6.27161 13.0821L9.03825 19.5142C9.02689 19.5527 9.02022 19.5923 9.01839 19.6324V58.6705C9.0206 59.9539 9.53138 61.184 10.4388 62.0914C11.3463 62.9989 12.5764 63.5097 13.8598 63.5119H47.8977C48.0938 63.5105 48.2815 63.432 48.4202 63.2933C48.5589 63.1546 48.6374 62.967 48.6387 62.7708V52.4568H48.6879L50.9309 57.9964C50.9825 58.125 51.0691 58.2366 51.1808 58.3186C51.2926 58.4006 51.425 58.4498 51.5632 58.4604H51.6123C51.7419 58.4604 51.8691 58.4266 51.9817 58.3625C52.0942 58.2984 52.1881 58.206 52.2541 58.0946L53.963 55.1398L57.2439 56.0805C57.3765 56.117 57.5168 56.1159 57.6488 56.0772C57.7809 56.0386 57.8995 55.9639 57.9916 55.8616C58.0836 55.7592 58.1453 55.6333 58.1698 55.4979C58.1942 55.3625 58.1805 55.223 58.1302 55.0949L55.7043 49.0474ZM29.5963 7.18299C29.7458 7.11705 29.9074 7.08322 30.0708 7.08369C30.2233 7.08355 30.3743 7.11375 30.515 7.17253C30.6994 7.2466 30.8627 7.36497 30.9905 7.51717C31.1182 7.66937 31.2065 7.85071 31.2475 8.04515C31.2885 8.23959 31.281 8.44115 31.2256 8.63198C31.1701 8.82281 31.0686 8.99705 30.9298 9.13927C30.791 9.28149 30.6193 9.38733 30.4299 9.4474C30.2404 9.50748 30.0391 9.51995 29.8437 9.48371C29.6484 9.44747 29.4649 9.36364 29.3096 9.23964C29.1544 9.11563 29.032 8.95527 28.9535 8.77273C28.8356 8.47593 28.8367 8.14514 28.9564 7.84908C29.0761 7.55303 29.3053 7.31448 29.5963 7.18299ZM47.164 16.8166V31.3114C45.9728 31.3928 44.8038 31.6733 43.7054 32.1413V22.5829C43.704 22.3868 43.6255 22.1991 43.4868 22.0605C43.3482 21.9218 43.1605 21.8433 42.9644 21.8419C41.8512 21.8397 40.7843 21.3965 39.9972 20.6094C39.2101 19.8223 38.767 18.7554 38.7648 17.6423C38.7634 17.4462 38.6849 17.2585 38.5462 17.1198C38.4075 16.9811 38.2198 16.9026 38.0237 16.9012H21.1908C22.9293 15.9308 24.5563 14.7728 26.0426 13.4479H43.7974C44.6897 13.4523 45.5443 13.8087 46.1753 14.4397C46.8063 15.0707 47.1627 15.9253 47.1671 16.8176L47.164 16.8166ZM2.99073 11.9219L12.455 3.70561L24.9347 2.49004L15.4694 10.7105L2.99073 11.9219ZM15.8467 12.1592C16.0005 12.1423 16.1459 12.0805 16.2648 11.9815L22.3468 6.69592L24.8552 12.5354C20.7955 16.1024 15.7087 18.289 10.327 18.7805L7.8185 12.941L15.8467 12.1592ZM10.4994 58.6914V20.2354C11.6628 20.1291 12.8181 19.9475 13.958 19.6919V52.9104C13.9581 53.0085 13.9777 53.1056 14.0156 53.196C14.0535 53.2865 14.1089 53.3686 14.1787 53.4375C14.2485 53.5064 14.3312 53.5608 14.4221 53.5975C14.5131 53.6342 14.6104 53.6526 14.7085 53.6515C15.8177 53.6572 16.8799 54.1005 17.6643 54.8848C18.4486 55.6692 18.8918 56.7314 18.8976 57.8406C18.8962 57.938 18.9141 58.0347 18.9501 58.1251C18.9862 58.2156 19.0397 58.298 19.1077 58.3677C19.1756 58.4374 19.2567 58.493 19.3462 58.5314C19.4357 58.5697 19.5319 58.59 19.6292 58.5911H41.198C41.3945 58.5911 41.583 58.513 41.722 58.374C41.8609 58.2351 41.939 58.0466 41.939 57.85C41.939 57.6535 41.8609 57.465 41.722 57.326C41.583 57.1871 41.3945 57.109 41.198 57.109H20.3316C20.1649 55.8706 19.596 54.7213 18.7124 53.8377C17.8288 52.9542 16.6795 52.3853 15.4411 52.2185V19.3062C16.3453 19.0492 17.2356 18.7457 18.1085 18.3969C18.1179 18.3969 18.1283 18.4063 18.1378 18.4063H37.3307C37.4975 19.6447 38.0664 20.794 38.95 21.6776C39.8335 22.5611 40.9829 23.13 42.2212 23.2968V32.9503C40.9112 33.7791 39.7994 34.8859 38.9649 36.1923C38.1304 37.4987 37.5934 38.9727 37.3921 40.5098C37.1909 42.0469 37.3302 43.6094 37.8002 45.0867C38.2703 46.5639 39.0595 47.9197 40.112 49.0578L37.6715 55.0949C37.6192 55.2232 37.6044 55.3637 37.6288 55.5001C37.6532 55.6364 37.7159 55.763 37.8094 55.8652C37.9019 55.9678 38.0211 56.0424 38.1537 56.0808C38.2863 56.1193 38.427 56.1199 38.5599 56.0826L41.8408 55.1419L43.5497 58.0967C43.6146 58.2091 43.7082 58.3023 43.821 58.3666C43.9338 58.4308 44.0616 58.464 44.1914 58.4625H44.2405C44.3796 58.4547 44.5133 58.4067 44.6256 58.3243C44.7378 58.2419 44.8237 58.1287 44.8729 57.9985L47.1159 52.4589H47.165V62.0528H13.8692C12.9774 62.0522 12.1222 61.6985 11.4907 61.0689C10.8592 60.4393 10.5028 59.5852 10.4994 58.6935V58.6914ZM41.268 50.1448C42.5372 51.1662 44.0247 51.8815 45.615 52.2352L44.0838 56.0293L42.8494 53.8887C42.7665 53.7447 42.6379 53.6324 42.484 53.5698C42.33 53.5071 42.1596 53.4976 41.9996 53.5428L39.6187 54.2243L41.268 50.1448ZM47.9082 51.0144C46.1045 51.0144 44.3414 50.4796 42.8417 49.4776C41.342 48.4755 40.1732 47.0513 39.483 45.3849C38.7927 43.7186 38.6121 41.885 38.964 40.116C39.3159 38.347 40.1844 36.7221 41.4598 35.4467C42.7352 34.1714 44.3601 33.3028 46.1291 32.951C47.898 32.5991 49.7316 32.7797 51.398 33.4699C53.0643 34.1601 54.4886 35.329 55.4906 36.8286C56.4927 38.3283 57.0275 40.0914 57.0275 41.8951C57.0242 44.3125 56.0623 46.6299 54.3527 48.339C52.6432 50.0482 50.3256 51.0096 47.9082 51.0124V51.0144ZM53.8271 53.5438C53.6671 53.5005 53.4973 53.5108 53.3438 53.5733C53.1903 53.6358 53.0616 53.747 52.9774 53.8898L51.7419 56.0293L50.2107 52.2352C51.8018 51.8837 53.2897 51.1682 54.5577 50.1448L56.2081 54.2357L53.8271 53.5438Z" fill="#D0C9B3"/>
<path id="Path 24669" d="M22.8504 28.3776H34.8065C35.003 28.3776 35.1915 28.2995 35.3305 28.1606C35.4694 28.0216 35.5475 27.8331 35.5475 27.6366C35.5475 27.44 35.4694 27.2515 35.3305 27.1126C35.1915 26.9736 35.003 26.8955 34.8065 26.8955H22.8504C22.6539 26.8955 22.4654 26.9736 22.3264 27.1126C22.1874 27.2515 22.1094 27.44 22.1094 27.6366C22.1094 27.8331 22.1874 28.0216 22.3264 28.1606C22.4654 28.2995 22.6539 28.3776 22.8504 28.3776Z" fill="#D0C9B3"/>
<path id="Path 24670" d="M18.8986 33.5847H38.7574C38.954 33.5847 39.1424 33.5066 39.2814 33.3676C39.4204 33.2287 39.4985 33.0402 39.4985 32.8436C39.4985 32.6471 39.4204 32.4586 39.2814 32.3197C39.1424 32.1807 38.954 32.1026 38.7574 32.1026H18.8986C18.7021 32.1026 18.5136 32.1807 18.3746 32.3197C18.2357 32.4586 18.1576 32.6471 18.1576 32.8436C18.1576 33.0402 18.2357 33.2287 18.3746 33.3676C18.5136 33.5066 18.7021 33.5847 18.8986 33.5847Z" fill="#D0C9B3"/>
<path id="Path 24671" d="M35.6657 37.3192H18.8986C18.7021 37.3192 18.5136 37.3973 18.3746 37.5363C18.2357 37.6752 18.1576 37.8637 18.1576 38.0603C18.1576 38.2568 18.2357 38.4453 18.3746 38.5843C18.5136 38.7232 18.7021 38.8013 18.8986 38.8013H35.6542C35.8503 38.7999 36.038 38.7214 36.1767 38.5827C36.3154 38.4441 36.3939 38.2564 36.3953 38.0603C36.3961 37.8655 36.3199 37.6782 36.1832 37.5394C36.0465 37.4006 35.8605 37.3214 35.6657 37.3192Z" fill="#D0C9B3"/>
<path id="Path 24672" d="M35.1619 42.5357H18.8986C18.7021 42.5357 18.5136 42.6138 18.3746 42.7528C18.2357 42.8917 18.1576 43.0802 18.1576 43.2768C18.1576 43.4733 18.2357 43.6618 18.3746 43.8008C18.5136 43.9397 18.7021 44.0178 18.8986 44.0178H35.1525C35.3486 44.0164 35.5363 43.9379 35.675 43.7992C35.8137 43.6606 35.8922 43.4729 35.8936 43.2768C35.8944 43.0816 35.8179 42.894 35.6808 42.7552C35.5437 42.6163 35.3571 42.5374 35.1619 42.5357Z" fill="#D0C9B3"/>
<path id="Path 24673" d="M24.9348 47.7431H18.9077C18.7112 47.7431 18.5227 47.8212 18.3838 47.9601C18.2448 48.0991 18.1667 48.2876 18.1667 48.4841C18.1667 48.6806 18.2448 48.8691 18.3838 49.008C18.5227 49.147 18.7112 49.225 18.9077 49.225H24.9348C25.1313 49.225 25.3198 49.147 25.4587 49.008C25.5977 48.8691 25.6758 48.6806 25.6758 48.4841C25.6758 48.2876 25.5977 48.0991 25.4587 47.9601C25.3198 47.8212 25.1313 47.7431 24.9348 47.7431Z" fill="#D0C9B3"/>
<path id="Path 24674" d="M50.852 38.8608L46.3665 43.3464L44.9535 41.9334C44.8119 41.8111 44.6292 41.7469 44.4422 41.7537C44.2551 41.7606 44.0776 41.8379 43.9453 41.9703C43.813 42.1026 43.7356 42.2801 43.7288 42.4671C43.7219 42.6542 43.7861 42.8369 43.9084 42.9785L45.845 44.9151C45.9136 44.9837 45.9951 45.0381 46.0847 45.0753C46.1744 45.1124 46.2705 45.1316 46.3675 45.1316C46.4646 45.1316 46.5607 45.1124 46.6504 45.0753C46.74 45.0381 46.8215 44.9837 46.8901 44.9151L51.8992 39.9059C52.0216 39.7643 52.0857 39.5816 52.0789 39.3946C52.0721 39.2075 51.9947 39.03 51.8624 38.8977C51.73 38.7654 51.5525 38.688 51.3655 38.6812C51.1785 38.6743 50.9958 38.7385 50.8541 38.8608H50.852Z" fill="#D0C9B3"/>
</g>
</svg>
