<svg width="67" height="66" viewBox="0 0 67 66" fill="none" xmlns="http://www.w3.org/2000/svg">
<g id="OUTLINE">
<path id="Path 24675" d="M33.4314 7.68158C27.0308 7.68877 20.8945 10.2346 16.3686 14.7605C11.8427 19.2864 9.29686 25.4227 9.28967 31.8233V31.8463C9.28969 36.3296 10.5381 40.7243 12.8951 44.5381C15.2521 48.3518 18.6245 51.4339 22.6345 53.439L22.832 53.5383C23.381 53.8103 23.8427 54.2309 24.1645 54.7523C24.4864 55.2736 24.6554 55.8748 24.6526 56.4875V62.5491C24.6537 63.4218 25.0009 64.2585 25.618 64.8757C26.2352 65.4928 27.0719 65.84 27.9446 65.8411H40.0155C40.8882 65.84 41.7249 65.4928 42.3421 64.8757C42.9592 64.2585 43.3064 63.4218 43.3075 62.5491V56.2231C43.3097 55.6612 43.4546 55.109 43.7289 54.6185C44.0031 54.128 44.3976 53.7153 44.8752 53.4191L46.0854 52.675C46.7689 52.257 47.4346 51.794 48.0711 51.308L48.5664 51.8034C48.8845 52.1215 49.2621 52.3738 49.6777 52.5459C50.0932 52.718 50.5386 52.8066 50.9885 52.8066C51.4383 52.8066 51.8837 52.718 52.2992 52.5459C52.7148 52.3738 53.0924 52.1215 53.4105 51.8034C53.7285 51.4853 53.9808 51.1078 54.153 50.6922C54.3251 50.2766 54.4137 49.8312 54.4137 49.3814C54.4137 48.9316 54.3251 48.4862 54.153 48.0706C53.9808 47.6551 53.7285 47.2775 53.4105 46.9594L52.8743 46.4233C55.9186 42.2727 57.5655 37.2622 57.5773 32.1149V31.8233C57.5701 25.422 55.0237 19.285 50.4969 14.759C45.9701 10.233 39.8327 7.68767 33.4314 7.68158ZM41.1128 62.5491C41.1125 62.84 40.9968 63.119 40.7911 63.3247C40.5854 63.5305 40.3064 63.6462 40.0155 63.6464H27.9446C27.6537 63.6462 27.3747 63.5305 27.169 63.3247C26.9633 63.119 26.8476 62.84 26.8473 62.5491V60.3544H41.1128V62.5491ZM41.1128 56.2231V58.1597H26.8473V56.4875C26.847 55.9399 26.7653 55.3954 26.6048 54.8718H41.2863C41.1713 55.3155 41.113 55.772 41.1128 56.2304V56.2231ZM51.8585 50.2504C51.6277 50.481 51.3147 50.6105 50.9885 50.6105C50.6622 50.6105 50.3493 50.481 50.1184 50.2504L39.171 39.303C39.841 38.8227 40.4486 38.261 40.9801 37.6309L51.8585 48.5093C52.0891 48.7401 52.2186 49.053 52.2186 49.3793C52.2186 49.7056 52.0891 50.0196 51.8585 50.2504ZM22.6606 37.7866L18.9045 38.8369L18.1009 37.1073L21.3595 35.0171L20.7972 30.2556L17.1279 28.9294L17.5031 27.0796L21.4002 27.2886L23.7705 23.1333L21.5863 19.9332L23.0003 18.653L26.0488 21.0839L30.4309 19.1181L30.5574 15.3024L32.4856 15.0934L33.5056 18.792L38.2221 19.7493L40.6018 16.7415L42.2948 17.6894L40.9247 21.2521L44.1938 24.771L47.9488 23.7207L48.7525 25.4503L45.4939 27.5405L46.0572 32.2915L49.7255 33.6229L49.3503 35.4717L45.4541 35.2627L44.0955 37.6424L42.2206 35.7675C43.2755 33.7039 43.5711 31.3351 43.0558 29.0755C42.5405 26.8159 41.247 24.8095 39.4017 23.4074C37.5564 22.0052 35.2769 21.2966 32.9618 21.4054C30.6468 21.5143 28.4438 22.4338 26.7383 24.003C25.0327 25.5722 23.9333 27.6911 23.6323 29.9891C23.3314 32.287 23.848 34.6176 25.0919 36.5731C26.3359 38.5286 28.2278 39.9844 30.4367 40.6857C32.6456 41.3871 35.0308 41.2894 37.1749 40.4098L39.0289 42.2638L36.4224 43.4332L36.296 47.2489L34.3678 47.4579L33.3478 43.7604L28.6313 42.8031L26.2516 45.8108L24.5585 44.8629L25.9286 41.3002L22.6606 37.7866ZM33.4314 38.9561C31.9121 38.9561 30.427 38.5055 29.1638 37.6615C27.9006 36.8174 26.916 35.6178 26.3346 34.2142C25.7533 32.8106 25.6011 31.2661 25.8975 29.776C26.1939 28.286 26.9255 26.9173 27.9998 25.843C29.074 24.7687 30.4427 24.0371 31.9328 23.7407C33.4229 23.4444 34.9673 23.5965 36.3709 24.1779C37.7745 24.7593 38.9742 25.7438 39.8183 27.007C40.6623 28.2702 41.1128 29.7554 41.1128 31.2746C41.1128 33.3118 40.3035 35.2657 38.863 36.7062C37.4224 38.1468 35.4686 38.9561 33.4314 38.9561ZM55.3784 32.1149C55.3688 36.6796 53.9449 41.1292 51.3025 44.8514L45.705 39.2539L46.6895 37.5285L51.1248 37.7605L52.2525 32.2026L48.0773 30.6873L47.8349 28.642L51.5491 26.254L49.1538 21.0964L44.8908 22.2889L43.4643 20.7536L45.0257 16.6945L40.0416 13.9041L37.3369 17.3226L35.2624 16.9045L34.1044 12.698L28.4275 13.3251L28.2832 17.6716L26.3718 18.5297L22.9114 15.7696L18.6955 19.5852L21.186 23.2326L20.1649 25.0218L15.7296 24.7898L14.6019 30.3476L18.7771 31.863L19.0195 33.9082L15.3052 36.2963L17.7006 41.4538L21.9635 40.2614L23.3891 41.7966L21.8308 45.8547L26.8149 48.6462L29.5196 45.2277L31.5941 45.6457L32.7531 49.848L38.4301 49.221L38.5743 44.8744L40.6927 43.9234L46.5087 49.7393C46.0007 50.1156 45.474 50.4709 44.941 50.8033L43.7308 51.5474C43.24 51.8501 42.8004 52.229 42.4286 52.6698H25.312C24.8788 52.2233 24.3732 51.8534 23.8165 51.5756L23.6179 51.4763C19.9721 49.6537 16.9059 46.8519 14.7628 43.3848C12.6197 39.9177 11.4845 35.9223 11.4844 31.8463V31.8233C11.4844 26.0026 13.7966 20.4203 17.9125 16.3044C22.0284 12.1885 27.6107 9.87628 33.4314 9.87628C39.2521 9.87628 44.8344 12.1885 48.9502 16.3044C53.0661 20.4203 55.3784 26.0026 55.3784 31.8233V32.1149Z" fill="#D0C9B3"/>
<path id="Path 24676" d="M59.7673 28.5312H66.3514V30.7259H59.7673V28.5312Z" fill="#D0C9B3"/>
<path id="Path 24677" d="M32.3341 0H34.5288V5.48675H32.3341V0Z" fill="#D0C9B3"/>
<path id="Path 24678" d="M45.8174 8.00635L50.207 3.61672L51.7589 5.16861L47.3693 9.55823L45.8174 8.00635Z" fill="#D0C9B3"/>
<path id="Path 24679" d="M55.8013 16.6817L61.2887 12.2903L62.6604 14.0044L57.173 18.3958L55.8013 16.6817Z" fill="#D0C9B3"/>
<path id="Path 24680" d="M58.0537 42.6494L59.1826 40.7673L64.6703 44.0587L63.5415 45.9408L58.0537 42.6494Z" fill="#D0C9B3"/>
<path id="Path 24681" d="M0.510742 28.5312H7.09484V30.7259H0.510742V28.5312Z" fill="#D0C9B3"/>
<path id="Path 24682" d="M15.0948 5.16705L16.6467 3.61517L21.0364 8.00479L19.4845 9.55668L15.0948 5.16705Z" fill="#D0C9B3"/>
<path id="Path 24683" d="M4.21851 14.0284L5.59019 12.3143L11.0776 16.7057L9.70595 18.4197L4.21851 14.0284Z" fill="#D0C9B3"/>
<path id="Path 24684" d="M2.16064 44.0267L7.64558 40.7306L8.77604 42.6118L3.2911 45.9078L2.16064 44.0267Z" fill="#D0C9B3"/>
</g>
</svg>
