<svg width="66" height="65" viewBox="0 0 66 65" fill="none" xmlns="http://www.w3.org/2000/svg">
<g id="e1.svg">
<g id="infrastructure">
<path id="Path 24630" d="M7.54286 43.8937L5.08095 44.6777L2.98572 38.3644L0.995239 39.004L3.09048 45.307C3.17391 45.5658 3.30861 45.8058 3.4868 46.0131C3.665 46.2203 3.88314 46.3908 4.12863 46.5145C4.37412 46.6383 4.64208 46.7129 4.91703 46.734C5.19198 46.7552 5.46845 46.7224 5.73048 46.6377L8.19238 45.8537C9.34959 47.9383 10.7718 49.8691 12.4248 51.5996L10.9057 53.6628C10.7412 53.8791 10.6222 54.1256 10.5556 54.3877C10.4891 54.6499 10.4763 54.9225 10.5181 55.1895C10.6036 55.7347 10.905 56.2243 11.3562 56.5512L16.4371 60.1824C16.6598 60.3428 16.9124 60.4583 17.1806 60.5224C17.4487 60.5864 17.727 60.5976 17.9996 60.5554C18.2721 60.5133 18.5335 60.4185 18.7688 60.2766C19.004 60.1347 19.2085 59.9484 19.3705 59.7285L20.9 57.6757C23.0753 58.7027 25.3791 59.4415 27.7514 59.8729V62.4209C27.7531 62.9676 27.9744 63.4914 28.3669 63.878C28.7595 64.2646 29.2915 64.4825 29.8467 64.4841H36.1324C36.6876 64.4825 37.2195 64.2646 37.6121 63.878C38.0047 63.4914 38.226 62.9676 38.2276 62.4209V59.8729C40.6033 59.4364 42.9104 58.6942 45.0895 57.6653L46.5981 59.7182C46.7569 59.94 46.9592 60.1282 47.1931 60.2717C47.4271 60.4152 47.6878 60.5112 47.96 60.5538C48.2338 60.6004 48.5144 60.5916 48.7846 60.5277C49.0548 60.4638 49.3089 60.3463 49.5314 60.1824L54.6124 56.5512C55.0616 56.2277 55.3623 55.7421 55.4487 55.2008C55.5351 54.6594 55.4001 54.1064 55.0733 53.6628L53.5648 51.5893C55.2239 49.8663 56.6436 47.9341 57.7867 45.8434L60.2486 46.6377C60.7787 46.8044 61.3541 46.7599 61.8514 46.5139C62.0972 46.3909 62.3155 46.2207 62.4936 46.0135C62.6717 45.8062 62.806 45.566 62.8886 45.307L64.9838 38.9937L62.9933 38.3541L60.8981 44.6777L58.4362 43.8834C57.9696 43.7382 57.4663 43.7565 57.0118 43.9351C56.5574 44.1137 56.1797 44.4417 55.9429 44.8634C54.8773 46.789 53.5639 48.5711 52.0352 50.1657C51.6961 50.5135 51.4923 50.968 51.4597 51.4491C51.4272 51.9302 51.5679 52.4072 51.8571 52.7963L53.3762 54.8594L48.2952 58.4906L46.7657 56.4171C46.4751 56.0304 46.0571 55.7552 45.5831 55.6385C45.1092 55.5219 44.6088 55.571 44.1676 55.7775C42.1597 56.7204 40.0364 57.4035 37.8505 57.8098C37.3686 57.8963 36.9324 58.1456 36.6169 58.5146C36.3014 58.8836 36.1264 59.3493 36.1219 59.8317V62.3797H29.8362V59.8317C29.8354 59.3483 29.6617 58.8807 29.3456 58.511C29.0294 58.1412 28.5911 57.893 28.1076 57.8098C25.9133 57.4048 23.7824 56.7181 21.7695 55.7672C21.3288 55.5623 20.8292 55.515 20.3569 55.6337C19.8846 55.7523 19.4691 56.0293 19.1819 56.4171L17.6629 58.4803L12.5819 54.8491L14.0905 52.7963C14.3848 52.4072 14.5285 51.9276 14.4959 51.4435C14.4632 50.9595 14.2563 50.5027 13.9124 50.1554C12.3786 48.555 11.0616 46.7658 9.99429 44.8325C9.75535 44.416 9.37807 44.0933 8.92589 43.9186C8.47371 43.7439 7.97422 43.7278 7.51143 43.8731L7.54286 43.8937Z" fill="#D0C9B3" stroke="#D0C9B3" stroke-width="0.827973"/>
<path id="Path 24631" d="M33 54.158C37.6854 54.1752 42.2528 52.7113 46.0302 49.9815C49.8075 47.2517 52.5955 43.4003 53.9838 38.9937L51.9829 38.3748C50.7109 42.3538 48.1833 45.8296 44.7675 48.297C41.3518 50.7645 37.2259 52.0949 32.9895 52.0949C28.7532 52.0949 24.6273 50.7645 21.2115 48.297C17.7957 45.8296 15.2682 42.3538 13.9962 38.3748L11.9952 38.9937C13.3836 43.4003 16.1715 47.2517 19.9489 49.9815C23.7262 52.7113 28.2936 54.1752 32.979 54.158H33Z" fill="#D0C9B3" stroke="#D0C9B3" stroke-width="0.827973"/>
<path id="Path 24632" d="M0.523804 34.558H65.4762V36.6211H0.523804V34.558Z" fill="#D0C9B3" stroke="#D0C9B3" stroke-width="0.827973"/>
<path id="Path 24633" d="M61.2857 32.4948V18.0526C61.2857 17.7791 61.1754 17.5167 60.9789 17.3232C60.7824 17.1297 60.516 17.0211 60.2381 17.0211H51.8572V1.54733C51.8572 1.27374 51.7468 1.01135 51.5503 0.81789C51.3538 0.624431 51.0874 0.515747 50.8095 0.515747H38.2381C37.9603 0.515747 37.6938 0.624431 37.4973 0.81789C37.3009 1.01135 37.1905 1.27374 37.1905 1.54733V11.8632H28.8095V7.73682C28.8104 7.58518 28.777 7.43525 28.7117 7.29787C28.6465 7.1605 28.5511 7.03912 28.4324 6.94251L22.1467 1.78459C21.9584 1.6302 21.7212 1.54565 21.4762 1.54565C21.2312 1.54565 20.994 1.6302 20.8057 1.78459L14.52 6.94251C14.4013 7.03912 14.3059 7.1605 14.2407 7.29787C14.1754 7.43525 14.142 7.58518 14.1429 7.73682V15.9895H5.76191C5.48407 15.9895 5.2176 16.0982 5.02114 16.2916C4.82467 16.4851 4.71429 16.7475 4.71429 17.0211V32.4948H6.80953V18.0526H14.1429V32.4948H16.2381V8.22167L21.4762 3.91997L26.7143 8.22167V32.4948H28.8095V13.9263H37.1905V32.4948H39.2857V2.57891H49.7619V32.4948H51.8572V19.0842H59.1905V32.4948H61.2857Z" fill="#D0C9B3" stroke="#D0C9B3" stroke-width="0.827973"/>
<path id="Path 24634" d="M41.3809 5.67365H43.4762V7.73681H41.3809V5.67365Z" fill="#D0C9B3" stroke="#D0C9B3" stroke-width="0.827973"/>
<path id="Path 24635" d="M45.5714 5.67365H47.6666V7.73681H45.5714V5.67365Z" fill="#D0C9B3" stroke="#D0C9B3" stroke-width="0.827973"/>
<path id="Path 24636" d="M41.3809 10.8316H43.4762V12.8948H41.3809V10.8316Z" fill="#D0C9B3" stroke="#D0C9B3" stroke-width="0.827973"/>
<path id="Path 24637" d="M45.5714 10.8316H47.6666V12.8948H45.5714V10.8316Z" fill="#D0C9B3" stroke="#D0C9B3" stroke-width="0.827973"/>
<path id="Path 24638" d="M41.3809 15.9895H43.4762V18.0527H41.3809V15.9895Z" fill="#D0C9B3" stroke="#D0C9B3" stroke-width="0.827973"/>
<path id="Path 24639" d="M45.5714 15.9895H47.6666V18.0527H45.5714V15.9895Z" fill="#D0C9B3" stroke="#D0C9B3" stroke-width="0.827973"/>
<path id="Path 24640" d="M18.3333 9.79999H24.619V11.8632H18.3333V9.79999Z" fill="#D0C9B3" stroke="#D0C9B3" stroke-width="0.827973"/>
<path id="Path 24641" d="M18.3333 14.9579H24.619V17.0211H18.3333V14.9579Z" fill="#D0C9B3" stroke="#D0C9B3" stroke-width="0.827973"/>
</g>
</g>
</svg>
