<svg width="69" height="63" viewBox="0 0 69 63" fill="none" xmlns="http://www.w3.org/2000/svg">
<g id="e3.svg">
<path id="portfolio (1)" d="M64.5545 25.9478V4.09196C64.4758 3.07414 63.9968 2.1282 63.2214 1.45921C62.4459 0.790211 61.4366 0.452066 60.4122 0.518075H8.58818C7.56374 0.452066 6.55442 0.790211 5.77901 1.45921C5.00361 2.1282 4.52461 3.07414 4.44584 4.09196V15.3899C3.35482 15.5533 2.35888 16.1003 1.63881 16.9316C0.918743 17.7629 0.522271 18.8233 0.521362 19.9205V57.9023C0.522742 59.1161 1.00826 60.2798 1.8714 61.1381C2.73453 61.9964 3.9048 62.4792 5.12546 62.4805H63.8749C65.0963 62.4803 66.2676 61.998 67.1317 61.1395C67.9957 60.2811 68.4818 59.1168 68.4832 57.9023V30.4763C68.4816 29.3789 68.0843 28.3184 67.3635 27.4875C66.6426 26.6565 65.646 26.1102 64.5545 25.9478ZM34.5023 25.898C33.6684 25.898 33.1753 24.7579 32.4394 22.9035C31.174 19.7121 29.4416 15.337 23.2062 15.337H11.0419V11.4087C11.0042 10.7162 11.2431 10.0369 11.7065 9.51861C12.1699 9.00033 12.8204 8.68499 13.5165 8.64119H60.7207C61.4168 8.68499 62.0673 9.00033 62.5307 9.51861C62.9941 10.0369 63.233 10.7162 63.1953 11.4087V25.898H34.5023ZM8.58818 1.86968H60.4122C61.0759 1.80613 61.7383 2.00289 62.2582 2.41803C62.7781 2.83316 63.1144 3.43383 63.1953 4.09196V8.27219C62.5236 7.64839 61.6398 7.29969 60.7207 7.2958H13.5154C12.4587 7.33923 11.4622 7.79688 10.7438 8.56874C10.0254 9.34059 9.64352 10.3639 9.68161 11.4149V15.3433H5.80508V4.09196C5.886 3.43383 6.22226 2.83316 6.74216 2.41803C7.26206 2.00289 7.92448 1.80613 8.58818 1.86968ZM67.1198 57.9033C67.1189 58.7591 66.7767 59.5796 66.1682 60.1847C65.5596 60.7899 64.7345 61.1302 63.8739 61.131H5.12546C4.26413 61.131 3.43804 60.7909 2.82879 60.1855C2.21953 59.58 1.87698 58.7588 1.87643 57.9023V19.9205C1.87726 19.0647 2.2195 18.2442 2.82805 17.6391C3.43659 17.0339 4.26172 16.6936 5.12233 16.6928H23.2052C28.515 16.6928 29.9889 20.4107 31.173 23.398C31.9579 25.3777 32.699 27.2486 34.5002 27.2486H63.8749C64.7355 27.2494 65.5607 27.5897 66.1692 28.1949C66.7777 28.8 67.12 29.6205 67.1208 30.4763L67.1198 57.9033ZM23.6847 33.4345C21.5457 35.5616 20.089 38.2717 19.4989 41.2221C18.9089 44.1725 19.2118 47.2306 20.3696 50.0097C21.5273 52.7889 23.4877 55.1642 26.0031 56.8354C28.5184 58.5067 31.4756 59.3987 34.5007 59.3987C37.5258 59.3987 40.483 58.5067 42.9983 56.8354C45.5137 55.1642 47.4741 52.7889 48.6319 50.0097C49.7896 47.2306 50.0926 44.1725 49.5025 41.2221C48.9124 38.2717 47.4557 35.5616 45.3167 33.4345C43.9032 32.01 42.2192 30.879 40.3624 30.107C38.5057 29.335 36.5132 28.9375 34.5007 28.9375C32.4882 28.9375 30.4957 29.335 28.639 30.107C26.7823 30.879 25.0982 32.01 23.6847 33.4345ZM24.6457 53.9895C24.3136 53.6592 24.0008 53.3154 23.7076 52.9581C24.9062 51.2099 26.516 49.7793 28.3972 48.7906C30.2784 47.8019 32.374 47.285 34.5017 47.285C36.6295 47.285 38.7251 47.8019 40.6063 48.7906C42.4875 49.7793 44.0973 51.2099 45.2959 52.9581C45.002 53.3147 44.6892 53.6585 44.3578 53.9895C41.742 56.5846 38.1978 58.042 34.5028 58.042C30.8077 58.042 27.2636 56.5846 24.6478 53.9895H24.6457ZM46.1444 51.8128C44.8059 49.9906 43.0537 48.5082 41.0305 47.4863C39.0072 46.4644 36.77 45.9318 34.5007 45.9318C32.2314 45.9318 29.9942 46.4644 27.9709 47.4863C25.9477 48.5082 24.1955 49.9906 22.857 51.8128C21.475 49.7232 20.6873 47.3007 20.5776 44.8021C20.4679 42.3035 21.0403 39.822 22.2339 37.6206C23.4276 35.4192 25.1981 33.5801 27.3577 32.2982C29.5174 31.0164 31.9856 30.3396 34.5007 30.3396C37.0158 30.3396 39.484 31.0164 41.6437 32.2982C43.8033 33.5801 45.5738 35.4192 46.7675 37.6206C47.9612 39.822 48.5335 42.3035 48.4238 44.8021C48.3141 47.3007 47.5264 49.7232 46.1444 51.8128ZM30.2588 34.3093C29.42 35.1433 28.8487 36.206 28.6172 37.363C28.3857 38.5199 28.5045 39.7191 28.9584 40.8089C29.4124 41.8988 30.1811 42.8302 31.1674 43.4856C32.1538 44.141 33.3134 44.4908 34.4997 44.4908C35.6859 44.4908 36.8456 44.141 37.8319 43.4856C38.8182 42.8302 39.587 41.8988 40.0409 40.8089C40.4948 39.7191 40.6136 38.5199 40.3821 37.363C40.1506 36.206 39.5794 35.1433 38.7405 34.3093C37.6149 33.1924 36.0898 32.5652 34.4997 32.5652C32.9096 32.5652 31.3844 33.1924 30.2588 34.3093ZM37.7794 41.7877C37.1309 42.4321 36.3047 42.8708 35.4055 43.0484C34.5062 43.226 33.5742 43.1345 32.7272 42.7854C31.8802 42.4363 31.1563 41.8454 30.647 41.0873C30.1378 40.3292 29.8659 39.438 29.8659 38.5263C29.8659 37.6146 30.1378 36.7234 30.647 35.9653C31.1563 35.2072 31.8802 34.6163 32.7272 34.2672C33.5742 33.9182 34.5062 33.8266 35.4055 34.0042C36.3047 34.1818 37.1309 34.6205 37.7794 35.2649C38.2138 35.6911 38.5588 36.1989 38.7942 36.7587C39.0297 37.3185 39.151 37.9193 39.1511 38.5261C39.1512 39.1329 39.0301 39.7337 38.7948 40.2936C38.5595 40.8535 38.2137 41.3614 37.7794 41.7877Z" fill="#D0C9B3" stroke="#D0C9B3" stroke-width="0.827959"/>
</g>
</svg>
