<svg width="66" height="64" viewBox="0 0 66 64" fill="none" xmlns="http://www.w3.org/2000/svg">
<g id="e2.svg">
<g id="creative-teaching">
<g id="Group 5400">
<g id="Group 5399">
<g id="Group 5384">
<g id="Group 5368">
<g id="Group 5366">
<path id="Path 24642" d="M33.0001 64.0006C32.7267 64.0006 32.4645 63.8935 32.2712 63.7027C32.0779 63.5119 31.9692 63.2532 31.9692 62.9834V38.3975C31.9692 38.1276 32.0779 37.8687 32.2713 37.6779C32.4647 37.487 32.7271 37.3798 33.0006 37.3798C33.2742 37.3798 33.5365 37.487 33.73 37.6779C33.9234 37.8687 34.0321 38.1276 34.0321 38.3975V62.9824C34.0322 63.1161 34.0056 63.2486 33.9538 63.3722C33.902 63.4958 33.826 63.6081 33.7301 63.7027C33.6343 63.7973 33.5204 63.8722 33.3952 63.9234C33.2699 63.9745 33.1357 64.0008 33.0001 64.0006Z" fill="#D0C9B3"/>
</g>
<g id="Group 5367">
<path id="Path 24643" d="M33.0002 63.9998C32.7268 63.9998 32.4646 63.8926 32.2713 63.7019C32.078 63.5111 31.9694 63.2524 31.9694 62.9826C31.968 61.9231 31.5408 60.9074 30.7816 60.1583C30.0224 59.4091 28.993 58.9876 27.9193 58.9862H6.24509C6.10972 58.9862 5.97567 58.9599 5.8506 58.9088C5.72553 58.8577 5.61189 58.7828 5.51617 58.6883C5.42044 58.5938 5.34451 58.4817 5.2927 58.3583C5.2409 58.2349 5.21423 58.1026 5.21423 57.969V17.3519C5.21423 17.2183 5.2409 17.0861 5.2927 16.9627C5.34451 16.8392 5.42044 16.7271 5.51617 16.6326C5.61189 16.5382 5.72553 16.4633 5.8506 16.4121C5.97567 16.361 6.10972 16.3347 6.24509 16.3347H22.0568C22.3303 16.3347 22.5927 16.4419 22.7861 16.6328C22.9795 16.8237 23.0882 17.0825 23.0882 17.3524C23.0882 17.6223 22.9795 17.8812 22.7861 18.072C22.5927 18.2629 22.3303 18.3701 22.0568 18.3701H7.277V56.9508H27.9151C28.9209 56.9515 29.911 57.1972 30.7976 57.666C31.6841 58.1349 32.4396 58.8124 32.9971 59.6385C33.5546 58.8127 34.31 58.1353 35.1963 57.6665C36.0826 57.1977 37.0724 56.9519 38.078 56.9508H58.7161V18.3701H43.9269C43.6534 18.3701 43.391 18.2629 43.1976 18.072C43.0042 17.8812 42.8955 17.6223 42.8955 17.3524C42.8955 17.0825 43.0042 16.8237 43.1976 16.6328C43.391 16.4419 43.6534 16.3347 43.9269 16.3347H59.7554C60.0288 16.3347 60.291 16.4419 60.4843 16.6326C60.6776 16.8234 60.7862 17.0821 60.7862 17.3519V57.968C60.7862 58.1016 60.7596 58.2339 60.7078 58.3573C60.656 58.4807 60.58 58.5928 60.4843 58.6873C60.3886 58.7817 60.2749 58.8567 60.1499 58.9078C60.0248 58.9589 59.8908 58.9852 59.7554 58.9852H38.0822C37.0085 58.9866 35.9792 59.408 35.2199 60.1572C34.4607 60.9064 34.0335 61.9221 34.0321 62.9816C34.0323 63.1153 34.0057 63.2478 33.9539 63.3714C33.9021 63.495 33.8261 63.6073 33.7302 63.7019C33.6344 63.7965 33.5205 63.8714 33.3953 63.9226C33.27 63.9737 33.1358 63.9999 33.0002 63.9998Z" fill="#D0C9B3"/>
</g>
</g>
<g id="Group 5369">
<path id="Path 24644" d="M64.9693 63.999H1.03098C0.895605 63.999 0.761557 63.9727 0.636487 63.9215C0.511418 63.8704 0.397777 63.7955 0.302053 63.701C0.206329 63.6066 0.130397 63.4945 0.0785914 63.3711C0.026786 63.2476 0.00012207 63.1154 0.00012207 62.9818L0.00012207 22.4959C0.00012207 22.2262 0.10873 21.9674 0.302053 21.7767C0.495376 21.5859 0.757579 21.4788 1.03098 21.4788H6.24498C6.51852 21.4788 6.78085 21.586 6.97428 21.7768C7.1677 21.9677 7.27636 22.2265 7.27636 22.4965C7.27636 22.7664 7.1677 23.0252 6.97428 23.2161C6.78085 23.4069 6.51852 23.5142 6.24498 23.5142H2.06288V61.9687H63.9374V23.5142H59.7553C59.4817 23.5142 59.2194 23.4069 59.026 23.2161C58.8326 23.0252 58.7239 22.7664 58.7239 22.4965C58.7239 22.2265 58.8326 21.9677 59.026 21.7768C59.2194 21.586 59.4817 21.4788 59.7553 21.4788H64.9693C65.1046 21.4788 65.2387 21.5051 65.3638 21.5562C65.4888 21.6073 65.6025 21.6822 65.6982 21.7767C65.7939 21.8711 65.8699 21.9833 65.9217 22.1067C65.9735 22.2301 66.0001 22.3624 66.0001 22.4959V62.9818C65.9998 63.2515 65.8912 63.51 65.6979 63.7007C65.5046 63.8914 65.2426 63.9987 64.9693 63.999Z" fill="#D0C9B3"/>
</g>
<g id="Group 5376">
<g id="Group 5370">
<path id="Path 24645" d="M17.9586 25.2683H12.6669C12.3934 25.2683 12.131 25.1611 11.9376 24.9702C11.7442 24.7794 11.6355 24.5205 11.6355 24.2506C11.6355 23.9807 11.7442 23.7218 11.9376 23.5309C12.131 23.3401 12.3934 23.2328 12.6669 23.2328H17.9586C18.2322 23.2328 18.4945 23.3401 18.6879 23.5309C18.8814 23.7218 18.99 23.9807 18.99 24.2506C18.99 24.5205 18.8814 24.7794 18.6879 24.9702C18.4945 25.1611 18.2322 25.2683 17.9586 25.2683Z" fill="#D0C9B3"/>
</g>
<g id="Group 5371">
<path id="Path 24646" d="M20.6322 30.6324H12.67C12.3965 30.6324 12.1341 30.5252 11.9407 30.3343C11.7473 30.1435 11.6386 29.8846 11.6386 29.6147C11.6386 29.3447 11.7473 29.0859 11.9407 28.895C12.1341 28.7042 12.3965 28.5969 12.67 28.5969H20.6322C20.9057 28.5969 21.1681 28.7042 21.3615 28.895C21.5549 29.0859 21.6636 29.3447 21.6636 29.6147C21.6636 29.8846 21.5549 30.1435 21.3615 30.3343C21.1681 30.5252 20.9057 30.6324 20.6322 30.6324Z" fill="#D0C9B3"/>
</g>
<g id="Group 5372">
<path id="Path 24647" d="M22.4614 35.9963H12.6669C12.3934 35.9963 12.131 35.8891 11.9376 35.6982C11.7442 35.5074 11.6355 35.2485 11.6355 34.9785C11.6355 34.7086 11.7442 34.4498 11.9376 34.2589C12.131 34.068 12.3934 33.9608 12.6669 33.9608H22.4614C22.735 33.9608 22.9973 34.068 23.1907 34.2589C23.3842 34.4498 23.4928 34.7086 23.4928 34.9785C23.4928 35.2485 23.3842 35.5074 23.1907 35.6982C22.9973 35.8891 22.735 35.9963 22.4614 35.9963Z" fill="#D0C9B3"/>
</g>
<g id="Group 5373">
<path id="Path 24648" d="M26.5766 41.3602H12.6669C12.3934 41.3602 12.131 41.2529 11.9376 41.0621C11.7442 40.8712 11.6355 40.6124 11.6355 40.3424C11.6355 40.0725 11.7442 39.8137 11.9376 39.6228C12.131 39.4319 12.3934 39.3247 12.6669 39.3247H26.5766C26.8502 39.3247 27.1125 39.4319 27.3059 39.6228C27.4994 39.8137 27.608 40.0725 27.608 40.3424C27.608 40.6124 27.4994 40.8712 27.3059 41.0621C27.1125 41.2529 26.8502 41.3602 26.5766 41.3602Z" fill="#D0C9B3"/>
</g>
<g id="Group 5374">
<path id="Path 24649" d="M26.5766 46.7243H12.6669C12.3934 46.7243 12.131 46.6171 11.9376 46.4262C11.7442 46.2353 11.6355 45.9765 11.6355 45.7066C11.6355 45.4367 11.7442 45.1778 11.9376 44.9869C12.131 44.7961 12.3934 44.6888 12.6669 44.6888H26.5766C26.8502 44.6888 27.1125 44.7961 27.3059 44.9869C27.4994 45.1778 27.608 45.4367 27.608 45.7066C27.608 45.9765 27.4994 46.2353 27.3059 46.4262C27.1125 46.6171 26.8502 46.7243 26.5766 46.7243Z" fill="#D0C9B3"/>
</g>
<g id="Group 5375">
<path id="Path 24650" d="M26.5766 52.0872H12.6669C12.3934 52.0872 12.131 51.98 11.9376 51.7891C11.7442 51.5982 11.6355 51.3393 11.6355 51.0694C11.6355 50.7995 11.7442 50.5407 11.9376 50.3498C12.131 50.1589 12.3934 50.0517 12.6669 50.0517H26.5766C26.8502 50.0517 27.1125 50.1589 27.3059 50.3498C27.4994 50.5407 27.608 50.7995 27.608 51.0694C27.608 51.3393 27.4994 51.5982 27.3059 51.7891C27.1125 51.98 26.8502 52.0872 26.5766 52.0872Z" fill="#D0C9B3"/>
</g>
</g>
<g id="Group 5383">
<g id="Group 5377">
<path id="Path 24651" d="M53.3313 25.2683H48.0229C47.7494 25.2683 47.487 25.161 47.2936 24.9702C47.1001 24.7793 46.9915 24.5204 46.9915 24.2505C46.9915 23.9806 47.1001 23.7217 47.2936 23.5309C47.487 23.34 47.7494 23.2328 48.0229 23.2328H53.3313C53.6049 23.2328 53.8672 23.34 54.0606 23.5309C54.2541 23.7217 54.3628 23.9806 54.3628 24.2505C54.3628 24.5204 54.2541 24.7793 54.0606 24.9702C53.8672 25.161 53.6049 25.2683 53.3313 25.2683Z" fill="#D0C9B3"/>
</g>
<g id="Group 5378">
<path id="Path 24652" d="M53.3317 30.6324H45.3695C45.0959 30.6324 44.8336 30.5252 44.6402 30.3343C44.4467 30.1435 44.3381 29.8846 44.3381 29.6147C44.3381 29.3447 44.4467 29.0859 44.6402 28.895C44.8336 28.7042 45.0959 28.5969 45.3695 28.5969H53.3317C53.6052 28.5969 53.8675 28.7042 54.061 28.895C54.2544 29.0859 54.3631 29.3447 54.3631 29.6147C54.3631 29.8846 54.2544 30.1435 54.061 30.3343C53.8675 30.5252 53.6052 30.6324 53.3317 30.6324Z" fill="#D0C9B3"/>
</g>
<g id="Group 5379">
<path id="Path 24653" d="M53.3315 35.9963H43.537C43.2634 35.9963 43.0011 35.8891 42.8077 35.6982C42.6142 35.5074 42.5056 35.2485 42.5056 34.9785C42.5056 34.7086 42.6142 34.4498 42.8077 34.2589C43.0011 34.068 43.2634 33.9608 43.537 33.9608H53.3315C53.605 33.9608 53.8674 34.068 54.0608 34.2589C54.2542 34.4498 54.3629 34.7086 54.3629 34.9785C54.3629 35.2485 54.2542 35.5074 54.0608 35.6982C53.8674 35.8891 53.605 35.9963 53.3315 35.9963Z" fill="#D0C9B3"/>
</g>
<g id="Group 5380">
<path id="Path 24654" d="M53.3327 41.3602H39.422C39.1484 41.3602 38.8861 41.2529 38.6927 41.0621C38.4992 40.8712 38.3906 40.6124 38.3906 40.3424C38.3906 40.0725 38.4992 39.8137 38.6927 39.6228C38.8861 39.4319 39.1484 39.3247 39.422 39.3247H53.3317C53.6052 39.3247 53.8676 39.4319 54.061 39.6228C54.2544 39.8137 54.3631 40.0725 54.3631 40.3424C54.3631 40.6124 54.2544 40.8712 54.061 41.0621C53.8676 41.2529 53.6052 41.3602 53.3317 41.3602H53.3327Z" fill="#D0C9B3"/>
</g>
<g id="Group 5381">
<path id="Path 24655" d="M53.3327 46.7243H39.422C39.1484 46.7243 38.8861 46.6171 38.6927 46.4262C38.4992 46.2353 38.3906 45.9765 38.3906 45.7066C38.3906 45.4367 38.4992 45.1778 38.6927 44.9869C38.8861 44.7961 39.1484 44.6888 39.422 44.6888H53.3317C53.6052 44.6888 53.8676 44.7961 54.061 44.9869C54.2544 45.1778 54.3631 45.4367 54.3631 45.7066C54.3631 45.9765 54.2544 46.2353 54.061 46.4262C53.8676 46.6171 53.6052 46.7243 53.3317 46.7243H53.3327Z" fill="#D0C9B3"/>
</g>
<g id="Group 5382">
<path id="Path 24656" d="M53.3327 52.0872H39.422C39.1484 52.0872 38.8861 51.98 38.6927 51.7891C38.4992 51.5982 38.3906 51.3393 38.3906 51.0694C38.3906 50.7995 38.4992 50.5407 38.6927 50.3498C38.8861 50.1589 39.1484 50.0517 39.422 50.0517H53.3317C53.6052 50.0517 53.8676 50.1589 54.061 50.3498C54.2544 50.5407 54.3631 50.7995 54.3631 51.0694C54.3631 51.3393 54.2544 51.5982 54.061 51.7891C53.8676 51.98 53.6052 52.0872 53.3317 52.0872H53.3327Z" fill="#D0C9B3"/>
</g>
</g>
</g>
<g id="Group 5398">
<g id="Group 5391">
<g id="Group 5385">
<path id="Path 24657" d="M36.6964 35.577H29.2874C28.6252 35.5765 27.9902 35.3166 27.5219 34.8546C27.0537 34.3925 26.7903 33.766 26.7898 33.1125V30.1994C26.7898 29.9296 26.8984 29.6709 27.0917 29.4801C27.2851 29.2894 27.5473 29.1822 27.8207 29.1822H38.1621C38.4355 29.1822 38.6977 29.2894 38.891 29.4801C39.0844 29.6709 39.193 29.9296 39.193 30.1994V33.1125C39.1924 33.7658 38.9292 34.3922 38.4612 34.8542C37.9931 35.3163 37.3584 35.5762 36.6964 35.577ZM28.8526 31.2177V33.1125C28.8529 33.2262 28.8988 33.3352 28.9803 33.4156C29.0618 33.496 29.1722 33.5413 29.2874 33.5416H36.6964C36.8116 33.5413 36.9221 33.496 37.0035 33.4156C37.085 33.3352 37.1309 33.2262 37.1312 33.1125V31.2177H28.8526Z" fill="#D0C9B3"/>
</g>
<g id="Group 5386">
<path id="Path 24658" d="M33.0463 39.4152H32.9415C31.8602 39.4133 30.8238 38.9885 30.0594 38.234C29.2949 37.4795 28.8647 36.4567 28.863 35.3898V34.6093C28.863 34.3394 28.9717 34.0805 29.1651 33.8896C29.3585 33.6988 29.6209 33.5916 29.8944 33.5916C30.168 33.5916 30.4303 33.6988 30.6238 33.8896C30.8172 34.0805 30.9259 34.3394 30.9259 34.6093V35.3898C30.9264 35.9172 31.1389 36.4229 31.5168 36.7959C31.8947 37.169 32.407 37.3789 32.9415 37.3798H33.0463C33.5808 37.3789 34.0932 37.169 34.4711 36.7959C34.8489 36.4229 35.0614 35.9172 35.062 35.3898V34.6093C35.062 34.3394 35.1707 34.0805 35.3641 33.8896C35.5575 33.6988 35.8199 33.5916 36.0934 33.5916C36.367 33.5916 36.6293 33.6988 36.8227 33.8896C37.0161 34.0805 37.1248 34.3394 37.1248 34.6093V35.3898C37.1232 36.4567 36.6929 37.4795 35.9285 38.234C35.164 38.9885 34.1276 39.4133 33.0463 39.4152Z" fill="#D0C9B3"/>
</g>
<g id="Group 5387">
<path id="Path 24659" d="M37.9163 31.2174H28.0683C27.4156 31.2211 26.7808 31.0067 26.2672 30.6092C25.7536 30.2117 25.3915 29.6544 25.2397 29.0279C25.0324 28.1792 24.6136 27.3949 24.0212 26.7464C22.4635 25.0355 21.4414 22.916 21.0787 20.644C20.7159 18.3721 21.028 16.0451 21.9773 13.9445C22.9265 11.8438 24.4722 10.0596 26.4274 8.80745C28.3825 7.55533 30.6635 6.88898 32.9944 6.88898C35.3253 6.88898 37.6062 7.55533 39.5614 8.80745C41.5166 10.0596 43.0623 11.8438 44.0115 13.9445C44.9607 16.0451 45.2728 18.3721 44.9101 20.644C44.5474 22.916 43.5253 25.0355 41.9675 26.7464C41.3752 27.3954 40.9564 28.1799 40.7491 29.029C40.5975 29.6555 40.2353 30.2129 39.7217 30.6105C39.2081 31.008 38.5732 31.2223 37.9204 31.2185L37.9163 31.2174ZM32.9923 8.92341H32.8372C30.9187 8.95319 29.0493 9.52699 27.4522 10.5764C25.8551 11.6257 24.5976 13.1063 23.8299 14.8415C23.0622 16.5767 22.8167 18.4932 23.1225 20.3624C23.4284 22.2315 24.2728 23.9743 25.555 25.3829C26.3774 26.2847 26.9586 27.3749 27.2459 28.5545C27.2932 28.7344 27.4 28.8936 27.5494 29.0069C27.6987 29.1201 27.8821 29.181 28.0704 29.1799H37.9184C38.1067 29.181 38.2901 29.1201 38.4394 29.0069C38.5888 28.8936 38.6955 28.7344 38.7429 28.5545C39.0301 27.3749 39.6114 26.2847 40.4338 25.3829C41.7248 23.9646 42.5717 22.2076 42.8722 20.3244C43.1727 18.4412 42.914 16.5124 42.1271 14.7712C41.3403 13.0301 40.0592 11.5511 38.4386 10.5131C36.8181 9.47514 34.9275 8.92263 32.9954 8.92238L32.9923 8.92341Z" fill="#D0C9B3"/>
</g>
<g id="Group 5390">
<g id="Group 5388">
<path id="Path 24660" d="M35.2726 31.2181C34.9992 31.2181 34.737 31.1109 34.5436 30.9202C34.3503 30.7294 34.2417 30.4707 34.2417 30.2009V22.2947H31.7441V30.2009C31.7441 30.4708 31.6355 30.7297 31.442 30.9205C31.2486 31.1114 30.9862 31.2186 30.7127 31.2186C30.4391 31.2186 30.1768 31.1114 29.9834 30.9205C29.7899 30.7297 29.6813 30.4708 29.6813 30.2009V21.2764C29.6813 21.0066 29.7899 20.7479 29.9832 20.5572C30.1765 20.3664 30.4388 20.2592 30.7122 20.2592H35.2757C35.5491 20.2592 35.8114 20.3664 36.0047 20.5572C36.198 20.7479 36.3066 21.0066 36.3066 21.2764V30.2009C36.3066 30.3347 36.2799 30.4672 36.2279 30.5909C36.1759 30.7145 36.0996 30.8268 36.0036 30.9213C35.9075 31.0158 35.7935 31.0906 35.6681 31.1416C35.5426 31.1925 35.4082 31.2185 35.2726 31.2181Z" fill="#D0C9B3"/>
</g>
<g id="Group 5389">
<path id="Path 24661" d="M35.2726 22.2935H30.709C30.5397 22.2934 30.3731 22.2522 30.2238 22.1736C30.0744 22.0949 29.947 21.9812 29.8527 21.8425C29.7584 21.7038 29.7001 21.5444 29.683 21.3782C29.6659 21.212 29.6905 21.0443 29.7546 20.8897L32.0364 15.3973C32.1138 15.2102 32.2459 15.0501 32.4159 14.9375C32.5859 14.8248 32.786 14.7646 32.9908 14.7646C33.1956 14.7646 33.3957 14.8248 33.5657 14.9375C33.7357 15.0501 33.8678 15.2102 33.9452 15.3973L36.227 20.8897C36.2914 21.0442 36.3161 21.2121 36.2991 21.3783C36.2822 21.5446 36.2239 21.7042 36.1296 21.843C36.0352 21.9818 35.9077 22.0955 35.7582 22.174C35.6087 22.2526 35.4419 22.2937 35.2726 22.2935ZM32.2469 20.258H33.7357L32.9918 18.4665L32.2469 20.258Z" fill="#D0C9B3"/>
</g>
</g>
</g>
<g id="Group 5397">
<g id="Group 5392">
<path id="Path 24662" d="M33.0002 5.5161C32.7268 5.5161 32.4646 5.40893 32.2712 5.21817C32.0779 5.0274 31.9693 4.76867 31.9693 4.49889V1.01719C31.9693 0.747266 32.0779 0.488401 32.2714 0.297539C32.4648 0.106676 32.7272 -0.000549316 33.0007 -0.000549316C33.2743 -0.000549316 33.5366 0.106676 33.73 0.297539C33.9234 0.488401 34.0321 0.747266 34.0321 1.01719V4.49889C34.0321 4.63256 34.0054 4.76491 33.9535 4.8884C33.9017 5.01188 33.8256 5.12406 33.7298 5.21853C33.634 5.313 33.5202 5.38791 33.395 5.43897C33.2698 5.49003 33.1356 5.51624 33.0002 5.5161Z" fill="#D0C9B3"/>
</g>
<g id="Group 5393">
<path id="Path 24663" d="M25.5529 7.48538C25.3716 7.48571 25.1934 7.43887 25.0364 7.34957C24.8793 7.26028 24.7488 7.13169 24.6582 6.97677L22.894 3.96233C22.8161 3.84666 22.763 3.71649 22.738 3.57982C22.7131 3.44314 22.7167 3.30288 22.7488 3.16765C22.7808 3.03243 22.8406 2.90512 22.9244 2.79356C23.0083 2.682 23.1143 2.58855 23.2361 2.51898C23.3579 2.44942 23.4929 2.40519 23.6327 2.38904C23.7725 2.37289 23.9141 2.38516 24.0489 2.42508C24.1837 2.465 24.3088 2.53174 24.4165 2.62117C24.5242 2.71061 24.6121 2.82086 24.675 2.94511L26.4392 5.95955C26.5299 6.11413 26.5777 6.28954 26.5779 6.46815C26.5781 6.64676 26.5306 6.82227 26.4403 6.97702C26.3499 7.13178 26.2198 7.26033 26.0632 7.34975C25.9065 7.43917 25.7287 7.48631 25.5477 7.48641L25.5529 7.48538Z" fill="#D0C9B3"/>
</g>
<g id="Group 5394">
<path id="Path 24664" d="M20.0999 12.8669C19.9192 12.8668 19.7418 12.8197 19.5855 12.7304L16.5295 10.9896C16.4122 10.9228 16.3094 10.8338 16.2269 10.7278C16.1445 10.6218 16.084 10.5009 16.0489 10.3718C16.0138 10.2427 16.0049 10.1081 16.0225 9.97563C16.0402 9.84315 16.0841 9.7154 16.1518 9.59967C16.2195 9.48393 16.3096 9.38249 16.417 9.30113C16.5245 9.21977 16.6471 9.16008 16.7779 9.12547C16.9087 9.09086 17.0451 9.08202 17.1794 9.09944C17.3136 9.11686 17.4431 9.1602 17.5604 9.22699L20.6164 10.9678C20.8126 11.0802 20.9658 11.2532 21.0524 11.4601C21.139 11.667 21.154 11.8963 21.0952 12.1125C21.0364 12.3287 20.907 12.5198 20.7271 12.6562C20.5472 12.7925 20.3267 12.8666 20.0999 12.8669Z" fill="#D0C9B3"/>
</g>
<g id="Group 5395">
<path id="Path 24665" d="M45.9006 12.8669C45.6733 12.8674 45.4522 12.7938 45.2716 12.6576C45.0911 12.5213 44.9613 12.3299 44.9024 12.1133C44.8434 11.8967 44.8587 11.6669 44.9459 11.4598C45.033 11.2526 45.1871 11.0797 45.3841 10.9679L48.4401 9.227C48.677 9.09211 48.9585 9.05559 49.2226 9.12548C49.4868 9.19537 49.712 9.36594 49.8487 9.59967C49.9854 9.8334 50.0224 10.1111 49.9516 10.3718C49.8807 10.6325 49.7079 10.8547 49.471 10.9896L46.415 12.7304C46.2587 12.8199 46.0812 12.867 45.9006 12.8669Z" fill="#D0C9B3"/>
</g>
<g id="Group 5396">
<path id="Path 24666" d="M40.4467 7.48642C40.2658 7.486 40.0882 7.43867 39.9317 7.34917C39.7752 7.25968 39.6452 7.13116 39.5549 6.97651C39.4646 6.82186 39.4171 6.6465 39.4172 6.46801C39.4172 6.28952 39.4648 6.11418 39.5551 5.95955L41.3194 2.94511C41.3822 2.82085 41.4702 2.71061 41.5778 2.62117C41.6855 2.53174 41.8106 2.465 41.9454 2.42508C42.0802 2.38516 42.2219 2.37289 42.3617 2.38904C42.5014 2.40519 42.6364 2.44942 42.7582 2.51898C42.88 2.58855 42.9861 2.682 43.0699 2.79356C43.1537 2.90512 43.2135 3.03243 43.2455 3.16765C43.2776 3.30288 43.2813 3.44314 43.2563 3.57982C43.2313 3.71649 43.1783 3.84667 43.1004 3.96233L41.3361 6.97677C41.2461 7.13119 41.1166 7.25956 40.9605 7.34901C40.8044 7.43845 40.6272 7.48584 40.4467 7.48642Z" fill="#D0C9B3"/>
</g>
</g>
</g>
</g>
</g>
</g>
</g>
</svg>
