<svg width="167" height="42" viewBox="0 0 167 42" fill="none" xmlns="http://www.w3.org/2000/svg">
<path d="M70.4241 27.6664C70.1286 25.9884 68.8635 24.8979 66.6788 24.6115C64.1632 24.2831 61.6289 24.5505 59.1051 24.4663C58.5329 24.4473 58.5245 24.8536 58.4496 25.2137C57.3864 30.2433 56.3377 35.2751 55.2682 40.3006C55.1351 40.9343 55.2641 41.1849 55.9569 41.1722C58.7264 41.1175 61.4979 41.1259 64.2673 41.0775C65.3534 41.0585 66.3834 40.768 67.3301 40.1996C69.8103 38.7132 70.5552 34.374 67.7608 32.755C67.869 32.654 67.9127 32.595 67.9709 32.5634C70.0932 31.4034 70.8257 29.9444 70.4241 27.6664ZM64.4108 37.4731C63.075 38.111 61.6352 37.8963 60.2286 37.9089C59.8541 37.911 59.902 37.65 59.9581 37.391C60.1725 36.4036 60.3951 35.4183 60.5824 34.4246C60.6552 34.0414 60.83 33.8898 61.2066 33.9046C61.656 33.9214 62.1054 33.9088 62.5528 33.9088V33.913C62.9335 33.913 63.3143 33.9003 63.693 33.9151C64.5294 33.9446 65.1724 34.2604 65.3888 35.1551C65.6197 36.1067 65.2306 37.0815 64.4108 37.4731ZM65.3201 30.5928C64.1466 30.9886 62.9273 30.8055 61.7247 30.8328C61.3668 30.8392 61.3813 30.5802 61.4375 30.3191C61.5977 29.5696 61.7621 28.8201 61.9098 28.0685C61.9785 27.7274 62.1845 27.6159 62.4987 27.618C62.9481 27.6243 63.3955 27.6201 63.8449 27.6201V27.6285C64.1903 27.6285 64.5357 27.6096 64.879 27.6327C65.6177 27.6832 66.2814 27.9001 66.3729 28.7738C66.4583 29.6096 66.1815 30.3023 65.3201 30.5928Z" fill="#F5AC02"/>
<path d="M113.478 0.83579C112.544 0.861054 111.603 0.890529 110.671 0.827369C109.949 0.77684 109.645 0.997902 109.508 1.75162C109.146 3.74118 108.682 5.70968 108.218 7.8803C107.496 6.40866 106.543 5.44441 105.026 5.26966C103.201 5.05913 101.564 5.53915 100.266 6.86762C97.6147 9.57932 96.9905 12.8889 97.8332 16.4807C98.4407 19.0681 100.782 20.3229 103.401 19.704C104.518 19.4408 105.388 18.7818 106.223 17.9334C106.164 18.899 106.609 19.3818 107.556 19.3818C108.216 19.3818 108.875 19.3608 109.533 19.3882C110.014 19.4092 110.27 19.2892 110.384 18.7418C111.58 12.9858 112.8 7.23606 114.036 1.48845C114.156 0.928426 113.969 0.823158 113.478 0.83579ZM106.397 14.9711C105.611 16.1164 104.433 16.6217 103.378 16.2701C102.394 15.9417 102.003 15.1711 102.026 13.6111C102.042 12.2426 102.375 10.9794 103.27 9.91617C104.013 9.03193 104.995 8.73086 105.96 9.05929C107.022 9.42142 107.319 10.2993 107.369 11.2868C107.431 12.6089 107.157 13.8616 106.397 14.9711Z" fill="#A51F22"/>
<path d="M41.5439 0.829474C40.7865 0.89474 40.0084 0.92632 39.2593 0.821053C38.2273 0.677889 37.9027 1.12633 37.7383 2.08426C37.422 3.93276 36.9789 5.7581 36.5419 7.81503C35.7616 6.45918 34.9148 5.50757 33.5353 5.29914C31.6793 5.01912 29.9981 5.46335 28.6436 6.79815C25.9282 9.47405 25.3165 12.8026 26.1176 16.388C26.7272 19.1208 29.1138 20.3671 31.8166 19.6745C32.9007 19.3966 33.708 18.7039 34.5528 17.9502C34.4695 18.9046 34.9051 19.3818 35.8594 19.3818C36.4836 19.3818 37.112 19.3334 37.73 19.3945C38.3979 19.4597 38.6164 19.1608 38.7433 18.546C39.9064 12.9605 41.0841 7.37922 42.2846 1.80004C42.4365 1.09264 42.3679 0.757892 41.5439 0.829474ZM34.3384 15.4217C33.5415 16.3122 32.4325 16.6217 31.5295 16.2259C30.5079 15.7754 30.3331 14.8511 30.3227 13.8679C30.3123 12.5858 30.5516 11.3625 31.2944 10.2846C32.0934 9.12667 33.1108 8.69717 34.2219 9.04666C35.2123 9.36036 35.6826 10.2025 35.6805 11.6615C35.6597 13.07 35.2872 14.3585 34.3384 15.4217Z" fill="#A51F22"/>
<path d="M15.4894 7.38343C15.9034 7.04658 16.2134 6.77709 16.5401 6.53287C17.4764 5.82968 18.5022 5.35809 19.6861 5.30124C22.6927 5.16018 24.3615 6.90552 23.9391 9.92249C23.6395 12.0678 23.1297 14.1816 22.7136 16.3101C22.7011 16.3775 22.6699 16.4428 22.6532 16.5101C22.4139 17.447 22.5929 18.9397 21.9042 19.2092C20.7868 19.6471 19.3886 19.3924 18.111 19.3587C17.4182 19.3397 17.7781 18.7713 17.8343 18.4828C18.2442 16.388 18.6999 14.3037 19.1347 12.2152C19.2346 11.7352 19.3303 11.2531 19.3865 10.7688C19.5488 9.3351 18.8268 8.63401 17.4182 8.88666C15.9617 9.14772 15.2397 10.2193 14.8943 11.5247C14.422 13.3142 14.0745 15.1374 13.6833 16.948C13.3337 18.5692 12.3544 19.3804 10.7454 19.3818C8.70835 19.3818 8.71459 19.3818 9.14945 17.3502C9.91515 13.7584 10.6892 10.1667 11.4195 6.56866C11.5547 5.90758 11.7815 5.60862 12.4931 5.67389C13.2484 5.74337 14.0204 5.74337 14.7778 5.67389C15.6121 5.5981 15.841 5.8739 15.5435 6.65709C15.4769 6.83604 15.5081 7.05289 15.4873 7.38343H15.4894Z" fill="#A51F22"/>
<path d="M87.0967 7.45712C87.5628 7.08026 87.9228 6.76657 88.3056 6.48445C89.7538 5.41282 91.3518 5.00439 93.11 5.46756C94.6018 5.86126 95.4674 6.90131 95.6339 8.44032C95.74 9.42352 95.6422 10.392 95.4362 11.3583C94.9202 13.7858 94.4104 16.2154 93.936 18.6513C93.8278 19.2029 93.6197 19.4176 93.0538 19.3924C92.0509 19.3503 91.0459 19.3587 90.043 19.3903C89.4646 19.4092 89.3605 19.2408 89.4895 18.6597C89.9952 16.3733 90.4425 14.0742 90.9086 11.7773C90.9502 11.571 90.996 11.3647 91.0126 11.1562C91.0771 10.3625 91.3206 9.44668 90.3967 9.01929C89.4729 8.59191 88.5616 8.84876 87.7917 9.51194C87.0198 10.1772 86.6432 11.0741 86.4309 12.051C85.9565 14.2385 85.4655 16.4217 85.0431 18.6176C84.9224 19.2408 84.6686 19.4155 84.0797 19.3903C83.1122 19.3481 82.1405 19.3692 81.1709 19.3818C80.7007 19.3881 80.4052 19.3966 80.555 18.7123C81.458 14.5795 82.3132 10.4362 83.1725 6.29497C83.2662 5.84653 83.4659 5.65283 83.9445 5.67389C84.7747 5.70968 85.6111 5.74547 86.4351 5.66757C87.3339 5.58125 87.5066 5.93495 87.2466 6.71183C87.1821 6.90552 87.1633 7.11395 87.0967 7.45081V7.45712Z" fill="#A51F22"/>
<path d="M51.0735 17.6239C49.821 18.6344 48.6682 19.4934 47.1535 19.6955C44.2509 20.0808 42.3783 18.485 42.5447 15.5417C42.705 12.7016 43.5872 9.97723 44.1053 7.19395C44.3862 5.68442 44.4194 5.65915 45.9134 5.70126C46.8664 5.72863 48.1689 5.25071 48.662 5.92232C49.0386 6.43603 48.4394 7.69292 48.2521 8.61506C47.9046 10.3288 47.5051 12.0342 47.1993 13.7563C47.0557 14.5648 46.8372 15.5143 47.7777 16.0112C48.714 16.5059 49.6087 16.1754 50.3827 15.5501C51.1464 14.9332 51.523 14.0616 51.7331 13.1226C52.2221 10.9373 52.7235 8.75402 53.1376 6.55393C53.2728 5.83811 53.5579 5.6381 54.23 5.67599C55.1621 5.72652 56.1005 5.70968 57.0347 5.68231C57.5716 5.66547 57.7609 5.77916 57.6278 6.39181C56.7393 10.4951 55.8779 14.6027 55.0373 18.7165C54.9312 19.2387 54.7127 19.4113 54.2071 19.3924C53.3769 19.3608 52.5384 19.3187 51.7144 19.4008C50.8072 19.4934 50.7177 19.0976 50.9383 18.3776C50.9966 18.1902 51.009 17.986 51.0694 17.6239H51.0735Z" fill="#A51F22"/>
<path d="M69.8415 9.51826C69.4253 9.51826 69.0092 9.49931 68.5931 9.52458C68.1748 9.54984 67.9252 9.43194 67.6921 9.0235C67.097 7.97925 65.5677 7.59397 64.5149 8.14347C63.7991 8.51822 63.7263 9.12035 64.3672 9.6109C65.0101 10.1014 65.7758 10.352 66.5124 10.6552C67.5381 11.0762 68.5868 11.4531 69.5127 12.0868C71.8015 13.6553 71.918 16.6659 69.7624 18.4071C67.3904 20.325 62.6568 20.3061 60.2848 18.3797C59.4068 17.666 58.9136 16.7396 58.6598 15.6448C58.537 15.1164 58.6889 14.9564 59.2049 14.9732C60.0705 15.0006 60.9382 15.0069 61.8037 14.9711C62.2885 14.9501 62.5153 15.1185 62.7234 15.5754C63.3206 16.887 65.1141 17.3923 66.3646 16.6638C67.0866 16.2428 67.1511 15.6154 66.4915 15.0659C65.8424 14.5269 65.0746 14.1964 64.2943 13.8953C63.2581 13.4932 62.2428 13.0363 61.3064 12.4342C59.1425 11.0446 58.9719 8.24663 60.9382 6.57919C63.1208 4.72648 68.1582 4.69069 70.3429 6.51603C71.0608 7.11605 71.5164 7.86977 71.7349 8.79613C71.8618 9.33088 71.8098 9.58563 71.1919 9.52879C70.7445 9.48879 70.2909 9.52037 69.8415 9.52037V9.51826Z" fill="#A51F22"/>
<path d="M105.931 36.0689C104.161 36.7426 103.932 38.2479 103.761 39.7006C103.626 40.8522 103.212 41.3828 102.011 41.1743C101.239 41.0396 100.155 41.5217 99.737 40.968C99.3334 40.4354 99.9201 39.4585 100.08 38.6816C100.994 34.2646 101.949 29.8581 102.835 25.4368C102.991 24.6557 103.301 24.3694 104.063 24.4663C104.972 24.5842 106.241 24.0431 106.714 24.6978C107.167 25.3295 106.499 26.479 106.32 27.4011C106.014 28.978 105.675 30.5507 105.355 32.1255C105.345 32.174 105.405 32.2371 105.471 32.374C106.572 31.3887 107.667 30.4349 108.728 29.4454C109.188 29.0159 109.658 28.8075 110.301 28.8349C111.493 28.8854 112.689 28.8496 114.16 28.8496C112.523 30.2876 111.116 31.5655 109.66 32.7782C109.119 33.2287 108.998 33.6309 109.225 34.3046C109.895 36.2899 110.476 38.3068 111.129 40.2985C111.347 40.9617 111.306 41.2733 110.498 41.1722C109.51 41.0501 108.268 41.5743 107.583 40.9533C106.959 40.3869 106.907 39.1742 106.61 38.2437C106.379 37.5173 106.156 36.7889 105.933 36.0667L105.931 36.0689Z" fill="#F5AC02"/>
<path d="M83.4201 33.4477C83.9174 30.8644 82.8105 29.1507 80.2471 28.5949C78.7739 28.2748 77.28 28.2938 75.8277 28.7191C74.3857 29.1422 73.3391 30.0581 72.7815 31.5002C72.5818 32.0203 72.6754 32.2897 73.2975 32.2582C73.9176 32.2266 74.5439 32.2371 75.166 32.254C75.7923 32.2729 76.2937 32.2392 76.7536 31.6097C77.2717 30.8981 78.1539 30.9339 78.9508 31.2265C79.3232 31.3634 79.5854 31.6434 79.6166 32.0834C79.652 32.5719 79.4023 32.8792 78.9924 33.0729C78.3224 33.3887 77.6004 33.4709 76.8742 33.5277C75.6633 33.6245 74.4669 33.7824 73.3412 34.2919C71.6205 35.0667 70.836 36.6499 71.2127 38.5995C71.556 40.3722 72.8959 41.4649 74.7831 41.467C76.1439 41.467 77.357 41.0059 78.5097 40.0417C78.6969 40.5533 78.3828 41.2438 79.2171 41.1954C80.116 41.1427 81.0169 41.1638 81.9179 41.1596C82.3444 41.1575 82.592 41.0712 82.3694 40.549C82.0947 39.9048 82.2466 39.2395 82.3777 38.589C82.7231 36.8752 83.0893 35.1657 83.4201 33.4477ZM76.5039 38.7911C75.8651 38.7763 75.3616 38.5405 75.1618 37.8774C74.9517 37.1742 75.2284 36.652 75.8214 36.292C76.7307 35.7425 77.8064 35.7636 78.7802 35.433C78.9758 35.3657 79.0611 35.4857 79.086 35.7088C79.2379 37.1973 77.8813 38.8269 76.5039 38.7911Z" fill="#F5AC02"/>
<path d="M90.8066 30.376C92.2527 29.0559 93.7238 28.2643 95.5527 28.5464C97.4462 28.837 98.524 30.0665 98.4054 32.0434C98.2264 34.9909 97.3109 37.8142 96.7866 40.7048C96.7262 41.0375 96.5119 41.1701 96.1915 41.1596C96.0875 41.1554 95.9834 41.1638 95.8794 41.1617C94.8786 41.1364 93.5074 41.4986 92.9789 40.9806C92.4005 40.4143 93.1682 39.1195 93.3347 38.1426C93.5865 36.6605 93.9131 35.1888 94.2148 33.7151C94.3563 33.0287 94.3917 32.334 93.7425 31.915C93.0621 31.475 92.3276 31.6455 91.6743 32.0455C90.7525 32.6098 90.3177 33.5214 90.095 34.5425C89.6851 36.4225 89.2607 38.3005 88.9132 40.1932C88.7717 40.9638 88.4554 41.2838 87.6835 41.1722C87.3443 41.1238 86.9906 41.1638 86.6452 41.1638C85.3261 41.1638 84.8017 40.5294 85.0722 39.2606C85.736 36.1467 86.4351 33.0392 87.0406 29.9128C87.2091 29.0391 87.5524 28.7296 88.4076 28.8412C88.9527 28.9128 89.5208 28.9043 90.068 28.8412C90.8587 28.7528 91.0522 29.058 90.8108 29.776C90.7692 29.8981 90.8046 30.0475 90.8046 30.3781L90.8066 30.376Z" fill="#F5AC02"/>
<path d="M152.905 25.5126C152.826 24.4536 152.358 23.5694 151.574 22.8599C151.345 22.6536 151.053 22.4914 151.116 22.1041C151.245 21.3019 150.881 20.7335 150.361 20.1461C149.366 19.0239 149.449 18.2323 150.583 17.2154C150.864 16.9649 150.945 16.7859 150.791 16.4259C150.134 14.8953 149.969 13.3268 150.504 11.7141C150.55 11.5731 150.571 11.3752 150.4 11.251C149.888 11.7268 149.473 12.9633 149.156 14.9606C148.825 15.0406 148.55 14.8427 148.257 14.7564C145.891 14.0574 144.882 14.7711 144.878 17.2365C144.876 18.1544 144.416 18.4976 143.632 18.5818C142.618 18.6892 141.636 18.4955 140.652 18.2576C139.037 17.866 137.45 17.3165 135.773 17.2702C133.372 17.2028 132.163 18.3165 132.219 20.7356C132.285 23.5252 132.516 26.3105 132.683 29.2286C133.372 28.7738 133.182 28.2538 133.161 27.7843C133.049 25.3337 132.901 22.8851 132.82 20.4345C132.777 19.1481 133.488 18.4344 134.764 18.3292C135.941 18.2323 137.038 18.5292 138.066 19.0808C139.451 19.8261 140.92 20.1461 142.477 20.0387C143.305 19.9819 144.129 19.8555 144.953 19.7629C146.703 19.5671 147.631 20.3882 147.321 22.1083C147.133 23.1588 146.391 24.0662 146.16 25.161C146.087 25.5042 145.589 25.6347 145.215 25.7379C144.867 25.8326 144.518 25.9232 144.166 26.0179C144.337 26.5148 144.532 26.9337 144.618 27.3759C144.709 27.8517 144.691 28.3506 144.732 28.837C144.786 29.4791 144.915 30.0981 145.473 30.5023C145.71 30.6707 145.995 30.7044 146.245 30.4939C146.434 30.3339 146.463 30.1065 146.289 29.9486C145.979 29.6707 145.766 29.3675 146.276 29.1738C146.674 29.0222 147.102 29.1086 147.252 29.6517C147.316 29.8854 147.387 30.1381 147.529 30.3233C147.816 30.6981 148.232 30.8013 148.644 30.5823C149.098 30.3402 148.713 30.0707 148.615 29.8075C148.373 29.1528 148.783 29.3191 149.143 29.3759C150.623 29.6117 151.097 29.3212 151.517 27.9127C151.609 27.6117 151.613 27.319 152.006 27.2011C152.837 26.9506 152.959 26.2411 152.905 25.5126ZM148.095 28.3991C147.835 28.5149 147.52 28.6075 147.335 28.3443C147.171 28.1085 147.364 27.879 147.581 27.7422C148.43 27.2074 148.113 26.5737 147.722 25.9547C147.208 25.1379 147.204 24.3441 147.753 23.5336C147.716 24.4578 148.111 25.18 148.629 25.8958C149.276 26.7969 148.981 28.0033 148.095 28.3991ZM150.229 28.8875C149.992 28.9486 149.709 28.9843 149.551 28.7759C149.408 28.5864 149.572 28.3801 149.724 28.2306C150.319 27.6453 150.342 27.0264 149.855 26.3632C149.776 26.2537 149.655 26.0979 149.682 25.9947C150.003 24.6936 149.123 23.8957 148.525 22.942C147.903 21.944 148.188 20.8493 148.527 19.805C148.586 19.6239 148.663 19.3692 148.944 19.4555C149.145 19.5187 149.135 19.7292 149.131 19.8913C149.125 20.1692 149.085 20.4471 149.058 20.725C148.962 21.7125 149.179 22.5841 149.924 23.2957C150.3 23.6578 150.614 24.0852 150.523 24.801C150.188 25.4852 150.519 26.1063 150.972 26.7906C151.44 27.5001 150.943 28.7022 150.229 28.8875ZM151.95 26.3948C151.865 26.4811 151.713 26.5316 151.588 26.54C151.424 26.5485 151.322 26.3863 151.374 26.26C152.033 24.7021 150.914 23.8157 150.119 22.803C150.103 22.7841 150.121 22.7378 150.132 22.5062C151.237 23.2178 152.154 23.9147 152.289 25.2305C152.331 25.641 152.266 26.0747 151.95 26.3948Z" fill="#E52129"/>
<path d="M2.92607 19.3819C0.506214 19.3819 0.518699 19.384 1.02431 17.047C2.12708 11.9626 3.22777 6.87398 4.29726 1.78113C4.4429 1.08426 4.67178 0.760037 5.43748 0.825303C6.36547 0.903201 7.31011 0.905306 8.23811 0.825303C9.10368 0.751616 9.18899 1.0611 9.02045 1.82745C8.07789 6.12658 7.17695 10.4362 6.26352 14.7417C6.00967 15.9375 5.71213 17.127 5.53319 18.3355C5.41459 19.1419 5.10873 19.5103 4.27437 19.3945C3.83326 19.3334 3.3755 19.384 2.92607 19.384V19.3819Z" fill="#A51F22"/>
<path d="M74.9975 19.3818C73.5382 19.3818 72.9605 18.6597 73.2642 17.2154C74.3483 12.0784 75.4511 6.94552 76.5039 1.80215C76.6599 1.0358 76.9512 0.757892 77.7211 0.825263C78.5471 0.896845 79.3857 0.880003 80.2138 0.829474C80.8942 0.787367 81.0128 0.989481 80.8692 1.65898C79.8268 6.48024 78.8218 11.312 77.8064 16.1396C77.6545 16.8596 77.4319 17.5712 77.3715 18.2997C77.2966 19.2029 76.9034 19.5292 76.0357 19.3903C75.6966 19.3355 75.3449 19.3818 74.9975 19.3818Z" fill="#A51F22"/>
<path d="M131.599 30.5507C129.048 30.5507 126.707 30.5486 124.368 30.5528C124.008 30.5528 123.819 30.3507 123.626 30.077C121.847 27.5674 120.919 24.7442 120.586 21.6998C120.523 21.1293 120.7 20.8703 121.318 20.883C122.981 20.9145 124.645 20.8977 126.31 20.8914C126.684 20.8914 126.961 20.9293 127.046 21.4093C127.66 24.8263 129.231 27.778 131.599 30.5507Z" fill="#80CDF2"/>
<path d="M155.571 30.5444C157.504 28.1359 159.099 25.86 160.077 23.2052C160.113 23.1062 160.148 23.0051 160.196 22.9146C160.527 22.3041 160.252 21.3082 160.883 21.0282C161.528 20.7419 162.372 20.9082 163.13 20.8977C163.995 20.8851 164.861 20.9272 165.724 20.8851C166.378 20.8535 166.605 21.1019 166.505 21.7419C166.012 24.8431 164.801 27.6285 162.901 30.1107C162.732 30.3318 162.543 30.5486 162.229 30.5486C160.096 30.5486 157.963 30.5486 155.571 30.5486V30.5444Z" fill="#80CDF2"/>
<path d="M130.945 10.1288C129.381 12.3563 127.96 14.4174 127.304 16.8912C127.206 17.2617 127.075 17.6281 127.023 18.0049C126.803 19.6239 126.811 19.6239 125.178 19.6239C123.898 19.6239 122.619 19.6113 121.341 19.6303C120.827 19.6387 120.638 19.5482 120.704 18.9229C121.029 15.8554 122.165 13.1289 123.904 10.6278C124.144 10.2825 124.416 10.1183 124.847 10.1225C126.815 10.1414 128.784 10.1309 130.945 10.1309V10.1288Z" fill="#80CDF2"/>
<path d="M157.119 10.133C159.181 10.133 161.243 10.1372 163.302 10.1309C163.683 10.1309 163.852 10.3941 164.01 10.6615C165.487 13.15 166.532 15.7712 166.567 18.7355C166.575 19.426 166.361 19.6555 165.683 19.6345C164.266 19.5945 162.849 19.6218 161.432 19.6218C161.074 19.6218 160.749 19.6282 160.706 19.1123C160.452 16.0196 159.137 13.3605 157.385 10.8825C157.285 10.7415 157.2 10.5899 157.123 10.4341C157.096 10.3815 157.119 10.3036 157.119 10.1351V10.133Z" fill="#80CDF2"/>
<path d="M143.975 1.18738C148.987 0.263135 157.941 2.97904 162.476 8.64243C162.239 9.02771 161.856 8.84244 161.551 8.84665C159.959 8.86771 158.365 8.8256 156.773 8.87192C156.093 8.89087 155.608 8.68454 155.144 8.18136C152.716 5.54546 149.988 3.30747 146.63 1.98321C145.773 1.64425 144.861 1.44845 143.975 1.18738Z" fill="#80CDF2"/>
<path d="M125.02 31.8371C127.658 31.8371 129.972 31.8371 132.288 31.8371C132.577 31.8371 132.833 31.8982 133.045 32.1108C135.536 34.6035 138.465 36.5531 141.141 38.8163C141.264 38.9195 141.461 38.9784 141.424 39.2985C135.159 38.8437 129.645 36.751 125.02 31.8392V31.8371Z" fill="#80CDF2"/>
<path d="M142.928 1.14528C140.342 1.96636 138.08 3.34748 136.008 5.06544C134.778 6.08654 133.573 7.135 132.51 8.33716C132.302 8.57085 132.15 8.85297 131.78 8.85086C129.749 8.84665 127.718 8.85086 125.644 8.85086C127.302 5.15808 138.694 0.0504939 142.928 1.14528Z" fill="#80CDF2"/>
<path d="M146.033 39.1174C149.158 36.9784 151.777 34.6646 154.214 32.134C154.487 31.8518 154.817 31.835 155.169 31.835C157.139 31.8392 159.11 31.835 161.095 31.835C160.154 33.8877 153.009 38.6037 146.033 39.1153V39.1174Z" fill="#80CDF2"/>
<path d="M143.89 1.39371C147.006 3.76223 149.901 5.95811 152.789 8.16031C152.914 8.25505 153.001 8.39821 153.242 8.67191C150.163 8.67191 147.275 8.67191 144.389 8.67191C144.046 8.67191 143.89 8.49506 143.89 8.15189C143.89 5.9939 143.89 3.83381 143.89 1.39371Z" fill="#81CEF2"/>
<path d="M152.922 32.0645C151.896 32.8519 150.877 33.654 149.84 34.4267C148.147 35.6899 146.438 36.9363 144.736 38.1889C144.545 38.33 144.368 38.5911 144.114 38.5005C143.777 38.3784 143.89 38.0289 143.89 37.7679C143.881 36.0899 143.885 34.4119 143.885 32.7361C143.885 32.3003 143.879 31.8476 144.485 31.8476C147.267 31.8413 150.048 31.8455 152.83 31.8455C152.862 31.9192 152.891 31.9929 152.922 32.0687V32.0645Z" fill="#80CEF2"/>
<path d="M143.003 1.65898C143.003 3.93697 142.993 5.93074 143.009 7.92661C143.014 8.44664 142.868 8.69086 142.306 8.68665C139.57 8.6677 136.834 8.67823 133.996 8.48874C136.928 6.26549 139.859 4.04224 143.003 1.65898Z" fill="#80CEF2"/>
<path d="M143.003 38.6921C139.932 36.3615 137.077 34.1972 133.969 31.8371C137.002 31.8371 139.722 31.8413 142.439 31.8329C142.918 31.8329 143.007 32.1003 143.005 32.5045C142.999 34.4646 143.001 36.4247 143.001 38.69L143.003 38.6921Z" fill="#80CEF2"/>
<path d="M136.054 30.4644C135.013 30.7444 134.526 30.1675 134.381 29.4075C134.233 28.6349 134.004 27.7548 134.934 27.1716C136.942 25.9105 137.227 24.7505 136.108 22.6199C135.991 22.3988 135.831 22.1883 136.006 21.9504C136.23 21.6451 136.555 21.7104 136.859 21.7988C137.845 22.0872 138.665 23.1757 138.7 24.2284C138.744 25.5421 138.992 25.82 140.284 26.0958C140.631 26.1695 141.041 26.0221 141.451 26.4684C140.619 26.7611 139.865 26.6137 139.245 26.2937C138.49 25.9042 138.084 26.1253 137.625 26.7127C137.377 27.0306 137.004 27.2727 136.647 27.4769C135.311 28.2348 135.173 28.6496 135.856 30.0454C135.916 30.1697 135.972 30.296 136.052 30.4665L136.054 30.4644Z" fill="#E5232B"/>
<path d="M154.982 11.8552C156.13 13.2995 156.066 14.8848 154.68 16.4596C154.193 17.0133 153.908 17.4681 154.293 18.1797C154.441 18.4513 154.52 18.8155 154.374 19.0997C153.756 20.3124 153.182 21.5419 152.674 22.8325C152.92 22.0388 152.701 21.1524 153.159 20.4535C153.902 19.3208 153.762 18.2828 153.009 17.2491C152.841 17.0175 152.708 16.8596 152.984 16.5459C154.651 14.6595 154.638 14.6469 154.982 11.8552Z" fill="#E6272F"/>
<path d="M137.419 29.0475C137.514 28.2812 137.745 27.6011 138.238 27.0348C138.419 26.8264 138.677 26.5695 138.937 26.7632C139.275 27.0116 138.948 27.2495 138.783 27.4453C138.072 28.2938 138.093 29.1359 138.765 29.9907C138.883 30.1402 139.125 30.2854 138.923 30.5065C138.779 30.6623 138.559 30.677 138.344 30.6118C137.552 30.3697 137.533 29.6728 137.419 29.0496V29.0475Z" fill="#E72E35"/>
<path d="M151.721 19.2092C151.721 19.3776 151.636 19.5166 151.449 19.5524C151.243 19.5924 151.126 19.4492 151.099 19.2724C151.066 19.0576 151.124 18.8344 151.39 18.8429C151.563 18.8471 151.684 18.9923 151.723 19.2071L151.721 19.2092Z" fill="#EC6267"/>
</svg>
