<svg width="102" height="37" viewBox="0 0 102 37" fill="none" xmlns="http://www.w3.org/2000/svg">
<path d="M0.618271 36.1051C0.616228 36.0299 0.614185 35.9548 0.612142 35.8796C0.763324 35.5198 0.689776 35.1439 0.689776 34.776C0.693862 23.9457 0.691819 13.1133 0.693862 2.28297C0.693862 0.91521 0.561068 1.05747 1.86654 1.05747C34.771 1.05544 67.6774 1.05544 100.582 1.05747C101.926 1.05747 101.783 0.919275 101.785 2.25046C101.787 13.1824 101.785 24.1164 101.785 35.0483C101.785 35.948 101.334 36.3985 100.433 36.3998C68.2413 36.3998 36.0519 36.3998 3.8605 36.3998C3.08212 36.3998 2.30578 36.3165 1.52332 36.3897C1.20052 36.4202 0.822571 36.4994 0.616228 36.1031L0.618271 36.1051Z" fill="#0070C0"/>
<path d="M0.618271 36.1051C1.65407 36.6071 2.76117 36.2413 3.80718 36.2433C36.0333 36.3023 68.2595 36.2881 100.486 36.3104C101.448 36.3104 101.703 35.9974 101.701 35.0829C101.677 24.1164 101.667 13.1479 101.714 2.18136C101.718 1.02699 101.119 1.1469 100.379 1.1469C70.2637 1.15299 40.1459 1.15096 10.0301 1.15096C7.34156 1.15096 4.65298 1.18958 1.96645 1.13064C1.02667 1.11031 0.763124 1.38468 0.765167 2.31956C0.795812 13.1174 0.785597 23.9152 0.777425 34.713C0.777425 35.1032 0.92452 35.53 0.6099 35.8796C0.597642 32.8006 0.579255 29.7216 0.577212 26.6405C0.573126 18.4157 0.58947 10.1908 0.554739 1.96593C0.550653 1.10625 0.789683 0.92334 1.62322 0.92334C34.7013 0.945696 67.7774 0.945696 100.855 0.92334C101.695 0.92334 101.922 1.11844 101.918 1.97203C101.887 13.1418 101.885 24.3135 101.918 35.4832C101.92 36.3429 101.689 36.534 100.855 36.5319C67.7447 36.5116 34.6319 36.5177 1.52107 36.4994C1.2228 36.4994 0.63033 36.8673 0.616029 36.1051H0.618271Z" fill="#2B668A"/>
<path d="M52.8494 18.6514C52.8801 22.4112 51.1517 25.2992 48.1056 26.2646C42.8878 27.9189 38.2379 24.9354 38.1337 19.381C38.0908 17.1312 38.3605 14.977 39.9234 13.2109C41.9848 10.8777 45.4681 10.1054 48.6184 11.2375C51.0761 12.1195 52.7554 14.7392 52.8474 17.8426C52.8555 18.1129 52.8474 18.3832 52.8474 18.6535L52.8494 18.6514Z" fill="#F4FCFA"/>
<path d="M76.9853 17.8202C77.6677 15.9891 78.4215 14.1803 79.0018 12.3166C79.3102 11.3228 79.7842 10.9306 80.7955 11.1054C81.1224 11.1623 81.4677 11.1135 81.9375 11.1135C81.1306 13.2556 80.3603 15.2981 79.5922 17.3406C79.3062 19.0396 78.4522 20.5212 77.7555 22.0617C76.9199 24.155 76.0844 26.2503 75.2508 28.3436C74.6747 29.7907 74.0393 31.1991 72.8769 32.3047C71.7512 33.3757 70.3865 33.6724 68.9237 33.4265C67.7939 33.2375 68.462 32.2783 68.3782 31.6787C68.2863 31.0162 68.8174 31.2987 69.1464 31.3474C70.4886 31.5425 71.5285 31.0446 72.1639 29.8049C72.5316 29.0895 72.7931 28.3193 73.1016 27.5734C73.4652 26.6771 73.3079 25.8154 72.9402 24.9618C72.6501 24.2871 72.4213 23.59 72.2946 22.8645C71.2139 19.8627 70.0861 16.8792 68.8338 13.9405C68.3496 13.3938 68.1902 12.6845 67.9471 12.0362C67.6407 11.2151 67.9165 10.9042 68.8093 10.9915C69.4017 11.0505 70.033 10.8127 70.5887 11.1887C70.9585 11.5667 71.1342 12.0565 71.2302 12.5442C71.5959 14.3754 72.409 16.05 73.0342 17.7877C73.6593 19.5253 74.1333 21.3138 74.8708 23.0575C75.7309 21.3443 76.1293 19.4887 76.9853 17.8182V17.8202Z" fill="#F4FCF9"/>
<path d="M17.3524 11.1277C18.2718 10.8757 19.1911 10.6318 20.1595 10.7619C22.6948 11.1013 24.1842 12.5727 24.4906 15.2513C24.8911 18.7571 24.5867 22.2852 24.6643 25.8012C24.6725 26.1833 24.5295 26.3072 24.1392 26.3479C22.276 26.541 22.2372 26.5206 22.2352 24.6285C22.2331 22.2588 22.2372 19.8891 22.225 17.5194C22.2229 17.0479 22.1821 16.5723 22.1024 16.109C21.7244 13.9161 20.7867 12.9263 19.0113 12.8145C17.1951 12.7007 15.4974 13.8836 14.8988 15.6862C14.672 16.3671 14.5985 17.0743 14.5985 17.7856C14.5944 20.324 14.576 22.8624 14.6148 25.4008C14.625 26.0756 14.4902 26.4962 13.7404 26.3255C13.1643 26.1955 12.1796 26.8926 12.1959 25.472C12.2511 21.0719 12.2429 16.6719 12.1959 12.2719C12.1857 11.3635 12.3941 10.959 13.3522 11.1135C13.7179 11.1724 14.1 11.1318 14.4738 11.1358C14.6965 11.6947 14.6577 12.2983 14.7823 12.904C15.1133 12.8227 15.3013 12.5503 15.5444 12.3613L15.5382 12.3695C15.9142 11.6236 16.6333 11.3736 17.3545 11.1277H17.3524Z" fill="#F1FCFA"/>
<path d="M33.0303 7.43292C32.6422 8.51615 32.9057 9.63394 32.8546 10.7355C32.8363 11.148 33.157 11.1074 33.4267 11.1074C34.0048 11.1094 34.583 11.1074 35.1612 11.1074C36.2481 11.1094 36.6934 11.7903 36.3257 12.843C36.199 13.2048 35.9314 13.158 35.6699 13.1621C35.0243 13.1722 34.3726 13.217 33.7331 13.158C33.0079 13.093 32.8179 13.3633 32.824 14.0644C32.8546 17.8182 32.8179 21.5739 32.8506 25.3277C32.8567 26.0674 32.7545 26.4759 31.8822 26.356C31.1794 26.2585 30.3499 26.671 30.3888 25.2972C30.4909 21.7833 30.4214 18.2632 30.4194 14.7453C30.4194 13.1804 30.4194 13.1438 28.879 13.1865C28.1537 13.2068 27.884 13.0503 27.8677 12.2557C27.8473 11.3391 28.0863 11.02 29.0424 11.083C30.4174 11.1704 30.4194 11.1074 30.4235 9.68272C30.4255 8.67061 30.3601 7.65444 30.6972 6.67282C31.4736 4.40677 33.68 3.14265 36.0928 3.5227C36.7077 3.62025 37.0142 3.81332 36.9386 4.47383C36.8875 4.90875 36.9161 5.3518 36.91 5.79079C36.6444 6.05296 36.3502 5.88428 36.0683 5.83753C34.5054 5.58146 34.0518 5.79282 33.3 7.13823C33.2346 7.2561 33.1407 7.35162 33.0324 7.43292H33.0303Z" fill="#F7FCFA"/>
<path d="M61.6425 17.6393C62.4024 18.0092 63.1747 18.3506 63.9163 18.753C65.326 19.5192 66.1799 20.6533 66.137 22.3218C66.0941 23.9579 65.3198 25.1996 63.8632 25.8744C61.2951 27.0633 58.6965 27.0694 56.155 25.7097C55.9159 25.096 56.0957 24.4558 56.0385 23.8298C55.9731 23.1287 56.2775 23.0738 56.8067 23.4152C57.0621 23.5798 57.3236 23.7302 57.5422 23.9436H57.5503C58.3369 24.1326 59.103 24.4131 59.9161 24.4863C60.8743 24.5716 61.7895 24.5127 62.6374 23.9518C63.4914 23.3868 63.7365 22.6003 63.2033 21.7243C62.905 21.2325 62.523 20.8016 62.0776 20.4318C61.0296 19.9562 59.9713 19.503 58.9355 19.003C56.9231 18.0316 56.0324 16.6801 56.1938 14.9018C56.3572 13.0869 57.6259 11.711 59.6648 11.0972C61.385 10.581 63.0848 10.6542 64.7784 11.1968C65.3444 11.3777 65.8469 13.1946 65.4363 13.6173C65.2156 13.8429 64.993 13.6133 64.7968 13.5218C63.5669 12.9426 62.2737 12.6946 60.9274 12.8674C59.0703 13.1052 58.2981 14.3693 58.9723 16.0013C59.675 16.8528 60.7578 17.0906 61.6465 17.6414L61.6425 17.6393Z" fill="#F4FCF9"/>
<path d="M89.0226 20.0537C88.3423 19.753 87.6559 19.4664 86.9837 19.1514C84.718 18.0946 83.7599 16.7309 83.9478 14.8489C84.1358 12.9629 85.5884 11.4935 87.8377 10.9672C89.2453 10.6379 90.6468 10.703 92.0606 11.0505C92.9186 11.2618 93.4008 11.587 93.1985 12.5503C93.125 12.8999 93.1862 13.2759 93.1862 13.7067C92.4467 13.6376 91.9584 13.0991 91.3067 13.1113C90.2137 13.0747 89.1248 12.6865 88.0297 13.2048C86.285 14.0319 86.0909 15.4607 87.5966 16.6292C87.8622 16.8365 88.1584 17.0032 88.4036 17.2369C89.3291 17.6474 90.2648 18.0397 91.178 18.4746C92.8267 19.2632 93.936 20.448 93.889 22.395C93.8482 24.1652 92.7225 25.5858 90.7796 26.2422C88.7448 26.9291 86.7018 26.8824 84.6854 26.1264C84.0214 25.8764 83.574 24.2952 84.003 23.7465C84.2706 23.4051 84.5669 23.6632 84.8079 23.7668C85.6803 24.1408 86.5261 24.5919 87.519 24.5472C88.4506 24.785 89.3332 24.5046 90.1647 24.1794C91.417 23.6916 91.6295 22.2832 90.6795 21.3422C90.1769 20.8443 89.6764 20.3505 89.0206 20.0497L89.0226 20.0537Z" fill="#F5FCFA"/>
<path d="M7.29273 18.7368C7.29273 20.9683 7.27025 23.1998 7.30703 25.4313C7.31724 26.1081 7.17015 26.4597 6.41628 26.3499C6.11596 26.3052 5.80339 26.3194 5.50102 26.3499C5.00253 26.4007 4.86565 26.1853 4.86565 25.7118C4.87995 21.0455 4.882 16.3813 4.86565 11.7151C4.86565 11.2049 5.05769 11.1115 5.51941 11.0952C7.2866 11.0302 7.28864 11.0119 7.29068 12.7536C7.29477 14.7473 7.29068 16.7431 7.29068 18.7368H7.29273Z" fill="#EBF6F8"/>
<path d="M7.68907 5.6973C7.66455 6.58137 6.89843 7.28456 6.01586 7.23781C5.12716 7.19107 4.52243 6.53056 4.5449 5.6343C4.56738 4.75226 5.24565 4.06127 6.08328 4.07143C6.95768 4.07956 7.71358 4.84575 7.68907 5.69933V5.6973Z" fill="#EAF8F7"/>
<path d="M76.9853 17.8202C76.3111 19.7916 75.6369 21.765 74.8953 23.9294C73.9249 21.1146 73.0137 18.4929 72.1169 15.8671C71.6061 14.3713 71.1158 12.8674 70.6173 11.3675C70.5356 11.2679 70.5458 11.1805 70.65 11.1033C71.4222 11.5606 71.5469 12.3979 71.6143 13.1255C71.7124 14.1782 72.2313 15.0318 72.5725 15.9748C73.2323 17.7999 74.1027 19.5538 74.4888 21.4743C74.5439 21.7467 74.4643 22.1633 74.9158 22.1328C75.308 22.1064 75.2447 21.7243 75.353 21.4479C75.8392 20.2163 76.1109 18.8831 76.9812 17.8222L76.9853 17.8202Z" fill="#246FA1"/>
<path d="M62.0756 20.4297C63.2789 20.9663 63.7978 21.7385 63.665 22.8015C63.5363 23.8339 62.8846 24.3786 61.5485 24.5737C60.147 24.7789 58.8027 24.6448 57.5462 23.9416C58.7087 23.8156 59.7629 24.4395 60.9519 24.3542C61.8386 24.2912 62.4147 23.8054 62.9684 23.336C63.4219 22.9519 63.379 22.2609 62.8825 21.7995C62.4658 21.4134 62.2329 20.95 62.0735 20.4297H62.0756Z" fill="#2975A5"/>
<path d="M88.4036 17.2389C87.6865 17.0662 87.0879 16.7085 86.6998 16.0744C85.8499 14.6884 86.7672 13.1194 88.6324 12.8328C89.5313 12.6946 90.4425 12.7637 91.3067 13.1133C90.5998 13.1235 89.8909 13.156 89.184 13.1397C88.4976 13.1235 87.9317 13.4019 87.4393 13.8165C86.6323 14.4933 86.6242 15.294 87.3412 16.046C87.709 16.4321 88.1768 16.7309 88.4056 17.241L88.4036 17.2389Z" fill="#2D74A4"/>
<path d="M89.0226 20.0537C89.7091 20.1919 90.2913 20.5374 90.7776 21.015C91.938 22.1511 91.5539 23.9457 90.0155 24.4233C89.2188 24.6712 88.3689 24.8521 87.521 24.5513C88.3341 24.5269 89.1309 24.405 89.893 24.1204C91.2127 23.6266 91.4231 22.4478 90.3914 21.4906C89.9072 21.0415 89.4762 20.5334 89.0206 20.0537H89.0226Z" fill="#2A75A5"/>
<path d="M96.9923 12.3959C96.7165 12.5605 96.6675 12.3044 96.5572 12.1642C96.3938 11.9325 96.2344 11.7862 96.0934 12.1805C96.0301 12.3613 96.1343 12.5808 95.9586 12.7353C95.7645 12.6682 95.5725 12.5991 95.3784 12.5321C95.0842 12.1927 95.0576 11.8634 95.4009 11.5159C95.1455 11.396 94.7859 11.5301 94.5387 11.2903C94.5673 10.9387 94.8084 10.6115 95.1026 10.7355C95.8524 11.0525 96.7124 10.7497 97.4152 11.207C97.4438 11.6622 97.0577 11.9732 96.9923 12.3959Z" fill="#1E73A4"/>
<path d="M33.0303 7.43292C33.3164 6.00418 34.2418 5.34774 35.725 5.54488C36.1234 5.59772 36.5136 5.70543 36.9079 5.78876C36.7159 6.13019 36.4462 6.19116 36.0642 6.11596C34.9875 5.90663 33.9619 5.85176 33.5513 7.20936C33.4921 7.4065 33.2449 7.44918 33.0303 7.43089L33.0303 7.43292Z" fill="#216DA0"/>
<path d="M70.65 11.1033C70.6398 11.1907 70.6296 11.2801 70.6173 11.3675C69.8737 10.8696 69.0483 11.1745 68.2617 11.1602C67.7857 11.1521 68.0309 11.5403 68.0922 11.7598C68.2965 12.5016 68.7602 13.158 68.8338 13.9445C68.1923 13.5584 67.6448 12.1175 67.6774 11.4773C67.7081 10.9062 68.0881 10.8066 68.3864 10.8351C69.1402 10.9082 69.9329 10.7253 70.648 11.1033L70.65 11.1033Z" fill="#2976AA"/>
<path d="M72.2946 22.8685C72.7093 23.8847 73.1261 24.9009 73.5368 25.9191C73.8023 26.5755 73.3467 27.0511 73.1016 27.5775C73.1608 26.5877 72.9198 25.6488 72.5806 24.7342C72.3559 24.1286 72.1945 23.5189 72.2926 22.8685H72.2946Z" fill="#2676A7"/>
<path d="M77.7555 22.0637C78.2745 20.4541 78.8649 18.8709 79.5922 17.3426C79.8639 19.2571 78.6279 20.5903 77.7555 22.0637Z" fill="#2676A8"/>
<path d="M15.5423 12.3613C15.4177 12.8349 14.9969 13.0645 14.6107 13.6722C14.5535 12.6377 14.5127 11.8858 14.4718 11.1338C14.8028 11.337 14.7823 11.713 14.8641 12.0158C14.9744 12.4304 15.2134 12.4467 15.5423 12.3593V12.3613Z" fill="#3A7EAA"/>
<path d="M57.5381 23.9436C57.1438 23.7689 56.7495 23.5961 56.2837 23.3908C56.0385 24.1509 56.2878 24.9496 56.1529 25.7118C55.6606 25.0309 56.0712 24.216 55.8342 23.4762C55.7525 23.2222 56.1305 22.7527 56.6065 23.0779C56.9558 23.3156 57.4257 23.4457 57.5381 23.9436Z" fill="#2975A5"/>
<path d="M61.6425 17.6393C60.6189 17.304 59.5382 17.0642 58.9682 15.9992C59.8344 16.5866 60.8579 16.9219 61.6425 17.6393Z" fill="#347EAC"/>
<path d="M94.5387 11.2903C94.9044 11.2923 95.2783 11.1866 95.6869 11.3635C95.2742 11.6866 95.3212 12.1093 95.3763 12.5341C94.9575 12.9406 94.9514 12.5382 94.9657 12.2963C94.9943 11.8736 94.8799 11.5423 94.5367 11.2903L94.5387 11.2903Z" fill="#89D4F4"/>
<path d="M17.3524 11.1277C16.7457 11.5423 16.1409 11.9549 15.5362 12.3695C15.7589 11.4 16.476 11.148 17.3524 11.1277Z" fill="#3A7EAA"/>
<path d="M96.9923 12.3959C96.9127 11.9224 97.1701 11.5667 97.4152 11.207C97.8994 11.6785 97.6012 12.2211 97.6195 12.7089C97.1803 12.9345 97.6829 11.6968 96.9944 12.3959H96.9923Z" fill="#A1E4F7"/>
<path d="M95.9565 12.7373V11.2395C96.4652 11.4996 96.6103 11.772 96.5572 12.1662C95.9974 11.9833 96.4612 12.8633 95.9565 12.7373Z" fill="#B9F4FC"/>
<path d="M50.4509 18.7632C50.3896 19.3343 50.3651 19.9115 50.263 20.4724C49.7686 23.1815 48.1669 24.6367 45.6949 24.6509C43.0716 24.6671 41.1002 23.0616 40.6956 20.3809C40.4055 18.4563 40.4566 16.5215 41.6293 14.8062C42.802 13.0889 44.4793 12.6296 46.4467 12.8938C48.3507 13.1499 49.4764 14.286 50.0321 16.0541C50.3079 16.9341 50.4591 17.8304 50.4509 18.7591V18.7632Z" fill="#0171C0"/>
</svg>
