<svg width="35" height="46" viewBox="0 0 35 46" fill="none" xmlns="http://www.w3.org/2000/svg">
<path fill-rule="evenodd" clip-rule="evenodd" d="M17.5 0C7.83502 0 0 7.90269 0 17.6512C0 22.8776 2.25406 27.5751 5.83004 30.8048C7.02193 31.8813 7.90492 32.6788 8.53069 33.2574C8.84358 33.5468 9.08279 33.7728 9.25936 33.9463C9.34736 34.0327 9.41467 34.1011 9.46483 34.1542C9.48964 34.1804 9.50831 34.2008 9.52187 34.2161C9.53514 34.2311 9.54146 34.2388 9.54146 34.2388C10.0933 34.9258 10.2128 35.1029 10.2839 35.2635C10.355 35.4241 10.4062 35.632 10.5455 36.5049C10.6004 36.8496 10.6061 37.4398 10.6061 39.0465L10.6061 39.1155C10.606 40.0564 10.606 40.868 10.6658 41.534C10.7291 42.2383 10.8692 42.9357 11.2455 43.593C11.6644 44.3248 12.2669 44.9325 12.9924 45.3551C13.6441 45.7345 14.3355 45.8759 15.0338 45.9397C15.6941 46.0001 16.4987 46 17.4316 46H17.5684C18.5013 46 19.3059 46.0001 19.9662 45.9397C20.6645 45.8759 21.3559 45.7345 22.0076 45.3551C22.7331 44.9325 23.3356 44.3248 23.7545 43.593C24.1308 42.9357 24.2709 42.2383 24.3342 41.534C24.394 40.868 24.394 40.0564 24.3939 39.1154V39.0465C24.3939 37.4398 24.3996 36.8496 24.4545 36.5049C24.5938 35.632 24.645 35.4241 24.7161 35.2635C24.7872 35.1029 24.9067 34.9257 25.4585 34.2388C25.4585 34.2388 25.4643 34.2318 25.4781 34.2161C25.4917 34.2008 25.5104 34.1804 25.5352 34.1542C25.5853 34.1011 25.6526 34.0327 25.7406 33.9463C25.9172 33.7728 26.1564 33.5468 26.4693 33.2574C27.0951 32.6788 27.9781 31.8813 29.17 30.8048C32.7459 27.5751 35 22.8776 35 17.6512C35 7.90269 27.165 0 17.5 0ZM21.1985 40.6512H13.8015C13.8085 40.8741 13.8189 41.069 13.8347 41.2444C13.878 41.7261 13.951 41.9009 14.001 41.9884C14.1407 42.2323 14.3415 42.4349 14.5833 42.5757C14.67 42.6262 14.8434 42.6998 15.321 42.7435C15.8204 42.7892 16.4795 42.7907 17.5 42.7907C18.5205 42.7907 19.1796 42.7892 19.679 42.7435C20.1566 42.6998 20.33 42.6262 20.4167 42.5757C20.6585 42.4349 20.8593 42.2323 20.999 41.9884C21.049 41.9009 21.122 41.7261 21.1653 41.2444C21.1811 41.069 21.1915 40.8741 21.1985 40.6512ZM20.0911 14.2059C20.806 14.721 20.9716 15.7232 20.461 16.4443L17.7124 20.3256H20.9846C21.5805 20.3256 22.1265 20.6615 22.3991 21.196C22.6718 21.7304 22.6255 22.3738 22.2791 22.8629L17.7337 29.2815C17.223 30.0027 16.2294 30.1697 15.5144 29.6546C14.7994 29.1395 14.6338 28.1373 15.1445 27.4162L17.8931 23.5349H14.6209C14.025 23.5349 13.479 23.199 13.2063 22.6645C12.9336 22.13 12.98 21.4867 13.3263 20.9975L17.8718 14.5789C18.3825 13.8578 19.3761 13.6908 20.0911 14.2059Z" fill="white"/>
</svg>
