<svg width="34" height="34" viewBox="0 0 34 34" fill="none" xmlns="http://www.w3.org/2000/svg">
<path d="M24.4701 0.285156H9.8513C4.66152 0.290183 0.45571 4.49596 0.450684 9.68528V24.3046C0.45571 29.4943 4.66149 33.7002 9.85081 33.7052H24.4701C29.6609 33.7014 33.8679 29.4952 33.8729 24.3051V9.68577C33.8679 4.49518 29.6605 0.28891 24.4701 0.285156ZM17.1629 25.3513C12.548 25.3513 8.80682 21.6101 8.80682 16.9952C8.80682 12.3802 12.548 8.63904 17.1629 8.63904C21.7779 8.63904 25.519 12.3802 25.519 16.9952C25.509 21.6061 21.7729 25.3412 17.1629 25.3513ZM26.5635 8.63904C25.9867 8.63904 25.519 8.17139 25.519 7.59454C25.519 7.01768 25.9867 6.55003 26.5635 6.55003C27.1404 6.55003 27.6081 7.01768 27.6081 7.59454V7.59675C27.6081 8.17361 27.1404 8.64126 26.5635 8.64126H26.5612L26.5635 8.63904Z" fill="white"/>
<path d="M22 16.9998C22 19.7612 19.7614 21.9998 17 21.9998C14.2386 21.9998 12 19.7612 12 16.9998C12 14.2383 14.2386 11.9998 17 11.9998C19.7614 11.9998 22 14.2383 22 16.9998Z" fill="white"/>
</svg>
