<svg width="46" height="46" viewBox="0 0 46 46" fill="none" xmlns="http://www.w3.org/2000/svg">
<path fill-rule="evenodd" clip-rule="evenodd" d="M0 23V13.8C0 7.29462 0 4.04193 2.02096 2.02096C4.04193 0 7.29462 0 13.8 0H32.2C38.7054 0 41.9581 0 43.979 2.02096C46 4.04193 46 7.29462 46 13.8V23C46 29.5054 46 32.7581 43.979 34.779C42.8835 35.8746 41.4259 36.3763 39.2845 36.606C39.1143 36.3762 38.9532 36.1952 38.8383 36.0688C38.5711 35.775 38.2324 35.4411 37.904 35.1173L34.4701 31.7312L33.202 30.4466C32.3686 25.5648 28.1187 21.85 23.0001 21.85C17.8816 21.85 13.6316 25.5648 12.7982 30.4466L11.5302 31.7312L8.09645 35.1172C7.76799 35.441 7.42919 35.775 7.16201 36.0688C7.04708 36.1952 6.88596 36.3762 6.71576 36.606C4.57417 36.3763 3.11657 35.8746 2.02096 34.779C0 32.7581 0 29.5054 0 23ZM16.1 7.475C15.1473 7.475 14.375 8.24731 14.375 9.2C14.375 10.1527 15.1473 10.925 16.1 10.925H29.9C30.8527 10.925 31.625 10.1527 31.625 9.2C31.625 8.24731 30.8527 7.475 29.9 7.475H16.1ZM9.775 17.25C9.775 16.2973 10.5473 15.525 11.5 15.525H34.5C35.4527 15.525 36.225 16.2973 36.225 17.25C36.225 18.2027 35.4527 18.975 34.5 18.975H11.5C10.5473 18.975 9.775 18.2027 9.775 17.25Z" fill="white"/>
<path d="M29.9 32.2C29.9 36.0108 26.8108 39.1 23 39.1C19.1892 39.1 16.1 36.0108 16.1 32.2C16.1 28.3892 19.1892 25.3 23 25.3C26.8108 25.3 29.9 28.3892 29.9 32.2Z" fill="white"/>
<path d="M16.1026 32.0101C16.1009 32.0732 16.1 32.1365 16.1 32.2C16.1 36.0108 19.1892 39.1 23 39.1C26.8108 39.1 29.9 36.0108 29.9 32.2C29.9 32.1365 29.8991 32.0732 29.8974 32.0101C29.7968 28.2871 26.7472 25.3 23 25.3C19.4274 25.3 16.489 28.0151 16.1356 31.4945C16.1183 31.6646 16.1073 31.8365 16.1026 32.0101Z" fill="white"/>
<path d="M13.0541 35.0735L10.569 37.5241C9.82367 38.2591 9.451 38.6266 9.32203 38.9378C9.02816 39.647 9.27965 40.4337 9.91951 40.8067C10.2003 40.9704 10.7068 41.0215 11.7197 41.1235C12.2916 41.1811 12.5776 41.2099 12.8171 41.2973C13.3533 41.4931 13.7704 41.9044 13.9689 42.4331C14.0576 42.6693 14.0868 42.9513 14.1452 43.5153C14.2487 44.5142 14.3004 45.0136 14.4665 45.2905C14.8448 45.9215 15.6426 46.1695 16.3617 45.8797C16.6773 45.7525 17.05 45.385 17.7954 44.65L20.2804 42.189C16.8016 41.2441 14.0511 38.5305 13.0541 35.0735Z" fill="white"/>
<path d="M25.7196 42.189L28.2046 44.65C28.95 45.385 29.3226 45.7525 29.6383 45.8797C30.3574 46.1695 31.1552 45.9215 31.5335 45.2905C31.6996 45.0136 31.7513 44.5142 31.8548 43.5153C31.9132 42.9513 31.9424 42.6693 32.0311 42.4331C32.2296 41.9044 32.6467 41.4931 33.1829 41.2973C33.4224 41.2099 33.7084 41.1811 34.2803 41.1235C35.2932 41.0215 35.7997 40.9704 36.0805 40.8067C36.7203 40.4337 36.9718 39.647 36.678 38.9378C36.549 38.6266 36.1763 38.2591 35.431 37.5241L32.9459 35.0735C31.9489 38.5305 29.1984 41.2441 25.7196 42.189Z" fill="white"/>
</svg>
