<svg width="53" height="46" viewBox="0 0 53 46" fill="none" xmlns="http://www.w3.org/2000/svg">
<path fill-rule="evenodd" clip-rule="evenodd" d="M32.463 3.87288L32.4629 11.9675C32.4625 12.262 32.4619 12.6817 32.5182 13.0421C32.5872 13.4826 32.8139 14.3331 33.6955 14.8502C34.5445 15.3482 35.3749 15.1633 35.7696 15.0407C36.1137 14.9338 36.491 14.7543 36.7723 14.6204L39.7505 13.2071L42.7286 14.6204C43.0099 14.7543 43.3872 14.9338 43.7313 15.0407C44.126 15.1633 44.9564 15.3482 45.8054 14.8502C46.687 14.3331 46.9138 13.4826 46.9827 13.0421C47.0391 12.6818 47.0385 12.262 47.038 11.9676L47.038 0.0389231C47.3368 0.0248838 47.6304 0.0130127 47.9172 0.00303215C50.7575 -0.095804 53 2.23473 53 5.07385V34.7514C53 37.6926 50.599 40.0723 47.6606 40.2559C45.0917 40.4164 42.0733 40.7302 39.75 41.3427C36.8842 42.0982 33.4617 43.7335 30.8131 45.144C30.0737 45.5377 29.2906 45.823 28.488 45.9998V5.71099C29.338 5.50301 30.1634 5.17504 30.9357 4.72853C31.424 4.44618 31.9361 4.1582 32.463 3.87288ZM46.9786 25.9478C47.2449 27.0116 46.5974 28.0896 45.5325 28.3556L34.9325 31.0029C33.8676 31.2688 32.7885 30.622 32.5223 29.5582C32.2561 28.4944 32.9035 27.4164 33.9684 27.1505L44.5684 24.5031C45.6333 24.2372 46.7124 24.884 46.9786 25.9478Z" fill="white"/>
<path fill-rule="evenodd" clip-rule="evenodd" d="M24.513 5.81715C23.6272 5.64909 22.7618 5.35091 21.948 4.92101C19.3347 3.54056 16.0304 1.97943 13.25 1.24647C10.9007 0.627176 7.84075 0.313165 5.25337 0.154305C2.3487 -0.0240365 0 2.33767 0 5.24489V34.7514C0 37.6926 2.40102 40.0723 5.33938 40.2559C7.90834 40.4164 10.9267 40.7302 13.25 41.3427C16.1158 42.0982 19.5383 43.7335 22.1869 45.144C22.9266 45.5379 23.71 45.8232 24.513 46V5.81715ZM6.02231 15.3585C6.28854 14.2947 7.36762 13.6479 8.43251 13.9138L19.0325 16.5611C20.0974 16.8271 20.7449 17.9051 20.4786 18.9689C20.2124 20.0327 19.1333 20.6795 18.0684 20.4136L7.46843 17.7662C6.40354 17.5003 5.75609 16.4223 6.02231 15.3585ZM8.43251 24.5031C7.36762 24.2372 6.28854 24.884 6.02231 25.9478C5.75609 27.0116 6.40354 28.0896 7.46843 28.3556L18.0684 31.0029C19.1333 31.2688 20.2124 30.622 20.4786 29.5582C20.7449 28.4944 20.0974 27.4164 19.0325 27.1505L8.43251 24.5031Z" fill="white"/>
<path d="M43.063 0.355815C41.4198 0.549879 39.8046 0.833874 38.425 1.24647C37.785 1.43789 37.1169 1.68055 36.438 1.95848V2.47107V10.3828L38.4237 9.44052L38.447 9.42877C38.5769 9.36244 39.1241 9.08289 39.7505 9.08289C39.8764 9.08289 39.9992 9.0942 40.1161 9.11281C40.5801 9.18672 40.9502 9.37578 41.0539 9.42877L41.0773 9.44051L43.063 10.3828V1.66795V0.355815Z" fill="white"/>
</svg>
