<svg width="58" height="49" viewBox="0 0 58 49" fill="none" xmlns="http://www.w3.org/2000/svg">
<path d="M8.63253 49.0006C6.30062 49.0006 4.11436 48.0922 2.47866 46.4422C0.844565 44.7922 -0.0357017 42.6086 0.00110951 40.2916C0.0763323 35.6926 3.9111 31.9145 8.5477 31.8717H8.63253C9.77688 31.8717 10.8908 32.0908 11.9407 32.5244C12.2768 32.6625 12.6289 32.7308 12.9778 32.7308C13.7893 32.7308 14.5799 32.3687 15.1049 31.7065L21.6941 23.3993C22.3439 22.5798 22.4575 21.4634 21.9854 20.5312C21.6429 19.8563 21.4828 19.1274 21.51 18.3667C21.5933 16.0386 23.4962 14.1488 25.8426 14.0662C25.8986 14.0646 25.953 14.063 26.009 14.063C28.4914 14.063 30.5096 16.0672 30.5096 18.5287C30.5096 18.6224 30.5048 18.7288 30.4952 18.8638C30.4183 19.9008 30.9513 20.8885 31.8636 21.3999L40.9863 26.5071C41.4025 26.7406 41.8602 26.8533 42.3147 26.8533C43.003 26.8533 43.6832 26.5945 44.2017 26.0942C45.7286 24.6221 47.7404 23.8122 49.8658 23.8122C49.9363 23.8122 50.0083 23.8122 50.0787 23.8154C52.1577 23.8678 54.1231 24.711 55.61 26.1879C57.0984 27.6649 57.9451 29.615 57.9963 31.6795C58.0507 33.8758 57.2297 35.9498 55.6868 37.5188C54.1423 39.0895 52.0761 39.9534 49.8658 39.9534C45.3813 39.9534 41.7322 36.3326 41.7322 31.8828C41.7322 31.2777 41.8026 30.6647 41.9434 30.0628C42.2123 28.9036 41.681 27.7061 40.6358 27.1217L31.5147 22.0161C31.1001 21.7842 30.6424 21.6699 30.1847 21.6699C29.6325 21.6699 29.0819 21.8366 28.6146 22.1685C27.8496 22.7085 26.9485 22.9943 26.009 22.9943C25.6697 22.9943 25.3272 22.9546 24.9895 22.8784C24.7862 22.8323 24.583 22.8101 24.3797 22.8101C23.5619 22.8101 22.7728 23.1785 22.2527 23.8344L15.6619 32.1432C14.9112 33.0897 14.8872 34.4158 15.6042 35.3892C16.7278 36.9138 17.3008 38.7226 17.2623 40.6172C17.1679 45.1543 13.37 48.9149 8.79738 48.999C8.74136 48.999 8.68694 48.999 8.63253 48.999V49.0006Z" fill="white"/>
<path d="M16.2124 6.49743C16.0764 4.88235 16.5885 3.31651 17.6545 2.08735C18.7188 0.858176 20.204 0.122898 21.8365 0.0133212C25.0759 -0.202657 27.9568 2.23345 28.2577 5.44136L28.2625 5.50011C28.3297 6.29256 28.2401 7.07707 27.9968 7.82823C27.9184 8.06962 27.8928 8.31736 27.912 8.55874C27.96 9.12092 28.2609 9.64657 28.757 9.97213L34.9829 14.0519C35.5959 14.4537 36.3897 14.468 37.0171 14.0868C37.4717 13.8105 37.9742 13.658 38.512 13.6326C40.1541 13.5548 41.5945 14.7633 41.7882 16.3832C41.793 16.4213 41.7962 16.4594 41.7994 16.4975C41.9434 18.2158 40.6518 19.7308 38.9201 19.8754C38.8545 19.8801 38.7793 19.8833 38.6832 19.8849C37.9486 19.8912 37.2844 20.3184 36.9787 20.9807L33.917 27.5966C33.7778 27.8983 33.7233 28.2223 33.7505 28.5367C33.7906 29.0131 34.013 29.4689 34.3939 29.7992C35.5175 30.7711 36.2057 32.1178 36.3289 33.5884C36.3337 33.6376 36.3369 33.6868 36.3401 33.7361C36.425 35.1796 35.9464 36.5882 34.9925 37.7047C34.0402 38.8211 32.7166 39.5214 31.2682 39.677C29.7269 39.8422 28.2193 39.396 27.0253 38.4177C25.8313 37.4394 25.1031 36.0578 24.9735 34.5269C24.7126 31.4206 27.0461 28.6828 30.1767 28.424C30.6024 28.389 31.0377 28.4017 31.4699 28.4637C32.3005 28.5828 33.112 28.1445 33.4625 27.3869L36.5226 20.7726C36.6618 20.4725 36.7162 20.1485 36.689 19.8309C36.657 19.4482 36.5066 19.0766 36.2473 18.7716C35.8232 18.273 35.5687 17.6663 35.5143 17.0152C35.4951 16.7802 35.5015 16.5404 35.5367 16.3022C35.5575 16.1593 35.5623 16.0163 35.5495 15.8766C35.5015 15.3096 35.1958 14.7856 34.7044 14.4632L28.4753 10.3819C27.7663 9.91655 26.8316 9.97848 26.1883 10.5311C25.1815 11.3982 23.9428 11.9001 22.6064 11.9826C19.4086 12.1811 16.5437 9.77044 16.2172 6.60859C16.214 6.57048 16.2092 6.53236 16.206 6.49425L16.2124 6.49743Z" fill="white"/>
</svg>
