<svg width="49" height="46" viewBox="0 0 49 46" fill="none" xmlns="http://www.w3.org/2000/svg">
<path d="M19.2743 5.706C18.6068 5.04878 17.5324 5.04878 15.3837 5.04878H14.814V1.68293C14.814 0.753472 14.0487 0 13.1047 0C12.1606 0 11.3953 0.753472 11.3953 1.68293V5.04878H10.8256C8.67685 5.04878 7.60249 5.04878 6.93497 5.706C6.26744 6.36323 6.26744 7.42101 6.26744 9.53659V9.99389C6.72892 9.8745 7.19192 9.79123 7.64761 9.7309C9.11903 9.53613 10.9278 9.53634 12.9007 9.53657H13.3086C15.2815 9.53634 17.0903 9.53613 18.5617 9.7309C19.0174 9.79122 19.4804 9.8745 19.9418 9.99389L19.9419 9.53659C19.9419 7.42101 19.9419 6.36323 19.2743 5.706Z" fill="white"/>
<path fill-rule="evenodd" clip-rule="evenodd" d="M1.7093 42.6341C0.765281 42.6341 0 43.3876 0 44.3171C0 45.2465 0.765281 46 1.7093 46H47.2907C48.2347 46 49 45.2465 49 44.3171C49 43.3876 48.2347 42.6341 47.2907 42.6341H45.0116V12.3907C45.0116 9.38199 45.0116 7.87762 44.1999 6.72443C43.3883 5.57124 41.9576 5.04302 39.0963 3.98659C33.5006 1.92059 30.7028 0.887584 28.7409 2.22617C26.7791 3.56475 26.7791 6.50674 26.7791 12.3907V18.5122L26.983 18.5122C28.9559 18.5119 30.7647 18.5117 32.2361 18.7065C33.8564 18.921 35.569 19.4256 36.9776 20.8125C38.3862 22.1993 38.8987 23.8855 39.1166 25.4808C39.3144 26.9295 39.3142 28.7105 39.314 30.6529L39.314 30.8537V42.6341H35.8953V30.8537C35.8953 26.6225 35.8953 24.5069 34.5603 23.1925C33.2253 21.878 31.0765 21.878 26.7791 21.878H22.2209C17.9235 21.878 15.7747 21.878 14.4397 23.1925C13.1047 24.5069 13.1047 26.6225 13.1047 30.8537V42.6341H9.68605V30.8537L9.68603 30.6528C9.6858 28.7104 9.68558 26.9295 9.88341 25.4808C10.1013 23.8855 10.6138 22.1993 12.0224 20.8125C13.431 19.4256 15.1436 18.921 16.7639 18.7065C18.2353 18.5117 20.0441 18.5119 22.017 18.5122L22.1811 18.5122C22.0925 16.4116 21.8068 15.1236 20.8859 14.2169C19.5508 12.9024 17.4021 12.9024 13.1047 12.9024C8.8072 12.9024 6.65847 12.9024 5.32342 14.2169C3.98837 15.5313 3.98837 17.6469 3.98837 21.878V42.6341H1.7093ZM18.2326 28.6098C18.2326 27.6803 18.9978 26.9268 19.9419 26.9268H29.0581C30.0022 26.9268 30.7674 27.6803 30.7674 28.6098C30.7674 29.5392 30.0022 30.2927 29.0581 30.2927H19.9419C18.9978 30.2927 18.2326 29.5392 18.2326 28.6098ZM18.2326 35.3415C18.2326 34.412 18.9978 33.6585 19.9419 33.6585H29.0581C30.0022 33.6585 30.7674 34.412 30.7674 35.3415C30.7674 36.2709 30.0022 37.0244 29.0581 37.0244H19.9419C18.9978 37.0244 18.2326 36.2709 18.2326 35.3415Z" fill="white"/>
</svg>
