<svg width="36" height="46" viewBox="0 0 36 46" fill="none" xmlns="http://www.w3.org/2000/svg">
<path fill-rule="evenodd" clip-rule="evenodd" d="M0 6.29315V38.9929C0 42.8628 3.02208 46 6.75 46H29.25C32.9779 46 36 42.8628 36 38.9929V15.6359C36 11.766 32.9779 8.62885 29.25 8.62885H2.25C1.00736 8.62885 0 7.58312 0 6.29315ZM7.3125 22.643C7.3125 21.6756 8.06802 20.8913 9 20.8913H27C27.932 20.8913 28.6875 21.6756 28.6875 22.643C28.6875 23.6105 27.932 24.3948 27 24.3948H9C8.06802 24.3948 7.3125 23.6105 7.3125 22.643ZM7.3125 30.818C7.3125 29.8505 8.06802 29.0662 9 29.0662H21.375C22.307 29.0662 23.0625 29.8505 23.0625 30.818C23.0625 31.7854 22.307 32.5697 21.375 32.5697H9C8.06802 32.5697 7.3125 31.7854 7.3125 30.818Z" fill="white"/>
<path d="M0.919767 4.16089C1.70385 4.52592 2.25 5.34333 2.25 6.29315H29.25C30.0269 6.29315 30.7809 6.39535 31.5 6.58749V4.67227C31.5 1.8295 29.0746 -0.354201 26.3636 0.0478275L2.06909 3.65066C1.63602 3.71488 1.24359 3.89612 0.919767 4.16089Z" fill="white"/>
</svg>
