<svg width="52" height="33" viewBox="0 0 52 33" fill="none" xmlns="http://www.w3.org/2000/svg">
<path d="M4.19351 2.53773C4.19351 1.56765 3.39948 0.78125 2.42 0.78125C1.44051 0.78125 0.646484 1.56765 0.646484 2.53773V30.6414C0.646484 31.6115 1.44051 32.3979 2.42 32.3979C3.39948 32.3979 4.19351 31.6115 4.19351 30.6414V27.7139H47.6849V30.6419C47.6849 31.6119 48.4789 32.3983 49.4584 32.3983C50.4379 32.3983 51.2319 31.6119 51.2319 30.6419V25.9577L51.2338 25.1213C51.2338 20.4492 51.2338 18.1132 50.5704 16.2352C49.382 12.8716 46.7117 10.227 43.3155 9.05002C41.4193 8.39291 39.0606 8.39291 34.3432 8.39291H34.3379C32.4516 8.39291 29.9919 8.39291 29.2342 8.6555C27.8757 9.1263 26.8076 10.1841 26.3322 11.5296C26.0668 12.2808 26.0668 13.2152 26.0668 15.084V24.201H4.19351V2.53773Z" fill="#AEAA8E"/>
<path d="M14.2434 20.1025C17.5084 20.1025 20.1551 17.4812 20.1551 14.2476C20.1551 11.014 17.5084 8.39266 14.2434 8.39266C10.9785 8.39266 8.33171 11.014 8.33171 14.2476C8.33171 17.4812 10.9785 20.1025 14.2434 20.1025Z" fill="#AEAA8E"/>
</svg>
