<svg width="33" height="39" viewBox="0 0 33 39" fill="none" xmlns="http://www.w3.org/2000/svg">
<path d="M5.82353 5.51725C5.82353 8.53543 9.17387 11.7148 11.9377 13.8242C13.489 15.0081 14.2646 15.6 15.5294 15.6C16.7943 15.6 17.5699 15.0081 19.1211 13.8242C21.885 11.7149 25.2353 8.53548 25.2353 5.51722C25.2353 0.0764006 19.8969 -1.95495 15.5294 2.24805C11.1619 -1.95495 5.82353 0.0764002 5.82353 5.51725Z" fill="#AEAA8E"/>
<path d="M4.38693 37.8074H3.88235C2.05219 37.8074 1.13711 37.8074 0.568557 37.2362C0 36.6651 0 35.7458 0 33.9073V31.7391C0 30.728 0 30.2224 0.258523 29.771C0.517046 29.3195 0.907058 29.0916 1.68708 28.6359C6.8224 25.6356 14.1154 23.9466 18.9829 26.863C19.3099 27.059 19.6041 27.2955 19.8554 27.5791C20.9388 28.8015 20.8598 30.6464 19.6112 31.7411C19.3476 31.9723 19.0665 32.1476 18.7835 32.2085C19.0161 32.1815 19.239 32.1504 19.4517 32.1163C21.2209 31.8329 22.706 30.8832 24.0656 29.8514L27.5737 27.1894C28.8104 26.2509 30.6459 26.2507 31.8829 27.1889C32.9965 28.0336 33.337 29.4244 32.633 30.558C31.812 31.8799 30.6553 33.5712 29.5446 34.6045C28.4323 35.6394 26.7764 36.5633 25.4245 37.2187C23.927 37.9448 22.2727 38.3632 20.59 38.6368C17.1772 39.1918 13.6204 39.1071 10.2423 38.4079C8.33256 38.0127 6.34919 37.8074 4.38693 37.8074Z" fill="#AEAA8E"/>
</svg>
