<svg width="38" height="39" viewBox="0 0 38 39" fill="none" xmlns="http://www.w3.org/2000/svg">
<path d="M38 11.5822L38 11.7185C38 13.3363 37.9999 14.1452 37.6063 14.807C37.2126 15.4688 36.4978 15.8617 35.0682 16.6473L33.5609 17.4757C34.5996 14.0021 34.9461 10.27 35.0742 7.07822C35.0797 6.94136 35.0859 6.80283 35.0921 6.66283L35.0965 6.56476C36.3339 6.98985 37.0287 7.30677 37.4621 7.90165C38.0001 8.64 38.0001 9.62074 38 11.5822Z" fill="#AEAA8E"/>
<path d="M1.02657e-06 11.5822L5.70841e-06 11.7185C5.01021e-05 13.3363 7.27343e-05 14.1452 0.393733 14.807C0.787392 15.4688 1.5022 15.8617 2.9318 16.6473L4.43995 17.4762C3.40115 14.0024 3.05459 10.2701 2.92648 7.07822C2.92099 6.94136 2.9148 6.80283 2.90855 6.66283L2.90417 6.56453C1.66632 6.98974 0.971389 7.30666 0.537885 7.90165C-7.75757e-05 8.64 -5.13693e-05 9.62075 1.02657e-06 11.5822Z" fill="#AEAA8E"/>
<path fill-rule="evenodd" clip-rule="evenodd" d="M19.0003 0C22.3891 0 25.1809 0.29525 27.3166 0.651709C29.4802 1.01282 30.562 1.19337 31.4659 2.29458C32.3697 3.39578 32.322 4.58598 32.2264 6.96638C31.8985 15.1385 30.1157 25.3458 20.4251 26.2488V32.8916H23.1424C24.0481 32.8916 24.8279 33.5239 25.0056 34.4025L25.3651 36.1807H30.4001C31.1871 36.1807 31.8251 36.8118 31.8251 37.5904C31.8251 38.3689 31.1871 39 30.4001 39H7.60002C6.81301 39 6.17502 38.3689 6.17502 37.5904C6.17502 36.8118 6.81301 36.1807 7.60002 36.1807H12.635L12.9946 34.4025C13.1722 33.5239 13.952 32.8916 14.8577 32.8916H17.5751V26.2487C7.88494 25.3454 6.10222 15.1383 5.77425 6.96638C5.67872 4.58598 5.63095 3.39578 6.53481 2.29458C7.43868 1.19337 8.52048 1.01282 10.6841 0.651708C12.8198 0.29525 15.6116 0 19.0003 0ZM20.8095 7.89185L20.6228 7.56038C19.9008 6.27916 19.5398 5.63855 19.0001 5.63855C18.4603 5.63855 18.0993 6.27917 17.3774 7.56039L17.1906 7.89185C16.9854 8.25593 16.8828 8.43798 16.7229 8.55809C16.5629 8.6782 16.3637 8.72279 15.9653 8.81196L15.6026 8.89314C14.2006 9.20694 13.4995 9.36384 13.3328 9.89438C13.166 10.4249 13.6439 10.9777 14.5997 12.0834L14.847 12.3694C15.1186 12.6836 15.2544 12.8407 15.3155 13.035C15.3766 13.2294 15.356 13.439 15.315 13.8582L15.2776 14.2398C15.1331 15.715 15.0608 16.4526 15.4975 16.7805C15.9341 17.1084 16.5905 16.8094 17.9032 16.2115L18.2428 16.0568C18.6158 15.8869 18.8023 15.802 19.0001 15.802C19.1978 15.802 19.3843 15.8869 19.7573 16.0568L20.0969 16.2115C21.4096 16.8094 22.066 17.1083 22.5026 16.7805C22.9393 16.4526 22.867 15.715 22.7225 14.2398L22.6851 13.8582C22.6441 13.439 22.6235 13.2294 22.6846 13.035C22.7457 12.8407 22.8815 12.6836 23.1531 12.3694L23.4004 12.0834C24.3562 10.9777 24.8341 10.4249 24.6673 9.89438C24.5006 9.36384 23.7995 9.20694 22.3975 8.89314L22.0348 8.81196C21.6364 8.72279 21.4372 8.6782 21.2772 8.55809C21.1173 8.43797 21.0147 8.25593 20.8095 7.89185Z" fill="#AEAA8E"/>
</svg>
