<svg width="696" height="794" viewBox="0 0 696 794" fill="none" xmlns="http://www.w3.org/2000/svg">
<path d="M304.334 349.928C323.447 340.491 343.834 344.572 362.947 346.612C385.883 348.908 432.774 332.33 394.803 389.461C377.983 414.711 398.37 456.539 420.032 480.003C438.126 499.642 464.374 477.963 482.723 466.996C585.424 405.019 651.938 319.322 652.448 193.328C721.255 265.762 706.729 399.663 621.612 462.405C587.208 487.91 546.943 505.763 509.482 526.933C492.152 536.88 473.804 545.296 457.749 557.028C427.677 578.708 397.096 603.192 404.232 645.021C410.858 683.788 446.79 691.95 478.646 701.897C430.99 758.008 424.109 758.008 372.886 691.185C382.825 739.134 412.642 795.5 346.637 793.969C283.946 792.694 310.45 739.644 322.427 701.131C289.808 706.487 300.001 751.121 271.459 745C249.797 740.409 230.939 723.831 214.884 703.427C227.881 698.326 239.859 694.755 251.072 689.399C296.943 667.465 305.863 628.442 273.498 588.399C255.404 565.955 231.958 550.397 206.729 537.135C175.893 520.811 144.293 505.508 113.966 488.42C-5.5545 421.342 -33.5871 311.161 41.8462 184.401C42.8655 286.166 82.3661 364.466 154.232 426.698C179.461 448.632 207.494 465.976 238.329 479.748C265.598 491.736 283.182 486.89 289.298 456.539C296.179 421.597 326.25 389.716 304.334 350.183V349.928Z" fill="#1D3459" fill-opacity="0.04"/>
<path d="M476.607 0C684.813 126.25 676.913 337.176 459.278 457.049C559.431 305.805 545.159 157.876 476.607 0Z" fill="#1D3459" fill-opacity="0.04"/>
<path d="M237.82 458.069C18.9104 337.941 11.5199 125.995 216.923 1.27525C152.957 156.345 133.589 304.274 237.82 458.069Z" fill="#1D3459" fill-opacity="0.04"/>
<path d="M423.09 621.301C492.662 525.147 625.18 522.597 687.871 419.047C685.578 546.061 608.36 603.958 423.09 621.301Z" fill="#1D3459" fill-opacity="0.04"/>
<path d="M9.48119 437.665C81.3467 518.516 200.358 531.013 279.359 624.617C150.154 603.958 30.3783 594.266 9.48119 437.665Z" fill="#1D3459" fill-opacity="0.04"/>
<path d="M101.734 609.569C160.348 622.831 212.336 634.563 268.401 647.316C211.826 700.621 169.777 690.674 101.734 609.569Z" fill="#1D3459" fill-opacity="0.04"/>
<path d="M596.383 610.079C555.098 651.907 524.517 692.97 464.884 676.902C451.887 673.331 435.577 667.975 434.813 654.712C433.793 637.369 453.161 640.175 464.884 637.624C504.894 628.697 545.414 620.791 596.383 610.079Z" fill="#1D3459" fill-opacity="0.04"/>
</svg>
