<svg width="57" height="57" viewBox="0 0 57 57" fill="none" xmlns="http://www.w3.org/2000/svg">
<path d="M56.3139 28.5094C56.3051 43.7962 43.5918 56.3538 28.1331 56.344C12.6931 56.3347 -0.00882952 43.7587 4.60529e-06 28.4893C0.00883873 13.2118 12.7076 0.657303 28.1533 0.655762C43.6105 0.65422 56.3228 13.2283 56.3139 28.5094Z" fill="#DFDFDF"/>
<path d="M56.3139 28.5094C56.3051 43.7962 43.5918 56.3538 28.1331 56.344C12.6931 56.3347 -0.00882952 43.7587 4.60529e-06 28.4893C0.00883873 13.2118 12.7076 0.657303 28.1533 0.655762C43.6105 0.65422 56.3228 13.2283 56.3139 28.5094Z" fill="#EC1C24"/>
<path d="M54.7212 19.9174C53.8684 20.514 53.0167 21.1116 52.1635 21.7077C47.5432 24.9364 42.924 28.1661 38.2991 31.3886C38.1198 31.5135 38.1333 31.6214 38.1889 31.7905C40.2712 38.107 42.3503 44.4246 44.4294 50.7422C44.4554 50.8209 44.4809 50.8995 44.5287 51.0444C44.3042 50.88 44.1338 50.7556 43.9643 50.6302C38.774 46.7926 33.5832 42.956 28.397 39.1132C28.2115 38.976 28.1003 38.9786 27.9138 39.1137C22.5831 42.9786 17.2473 46.8368 11.912 50.6955C11.8383 50.7489 11.7619 50.7988 11.6356 50.8851C11.8783 50.1292 12.1012 49.4318 12.3267 48.735C14.1533 43.0994 15.9794 37.4632 17.8143 31.8301C17.8922 31.5906 17.8408 31.4744 17.6412 31.3326C12.3434 27.57 7.05015 23.8002 1.75591 20.0315C1.70135 19.9924 1.64886 19.9513 1.53974 19.8691C1.68888 19.8691 1.77826 19.8691 1.86816 19.8691C8.44023 19.8691 15.0123 19.8675 21.5839 19.8747C21.8125 19.8747 21.9071 19.8161 21.9772 19.5957C23.9472 13.4317 25.9261 7.27037 27.9039 1.109C27.9268 1.03706 27.9553 0.966657 27.9855 0.883923C28.0816 0.927088 28.0712 1.01753 28.0905 1.07817C30.0719 7.23851 32.0513 13.3999 34.0218 19.5633C34.0961 19.7961 34.1881 19.8758 34.4427 19.8752C41.1016 19.867 47.7599 19.8686 54.4188 19.8686H54.702C54.7082 19.8845 54.7139 19.9004 54.7202 19.9163L54.7212 19.9174Z" fill="#FEFEFE"/>
<path d="M19.3732 27.2987C19.4075 27.2956 19.4424 27.293 19.4767 27.29C19.8986 27.2576 19.9095 27.2555 19.9786 27.6558C20.0353 27.9852 20.2244 28.1723 20.5394 28.2514C20.9327 28.3501 21.3287 28.3521 21.7184 28.2437C22.0235 28.1584 22.2417 27.9652 22.2786 27.6399C22.315 27.3208 22.1144 27.1332 21.8478 27.0063C21.4046 26.7956 20.9582 26.5916 20.5139 26.3825C19.8778 26.0829 19.5084 25.6075 19.5536 24.8866C19.6009 24.1389 20.0587 23.5664 20.7909 23.3424C21.4628 23.1373 22.1435 23.145 22.804 23.3824C23.4634 23.6193 23.8241 24.1137 23.942 24.7915C23.9691 24.9467 23.9259 25.0053 23.7581 25.0042C23.4816 25.0017 23.2047 25.0186 22.9287 25.0382C22.8087 25.0464 22.7728 25.0078 22.7453 24.8902C22.6351 24.422 22.3555 24.2052 21.8614 24.182C21.6363 24.1712 21.4119 24.1656 21.192 24.2319C20.9483 24.3054 20.7836 24.4585 20.7347 24.7067C20.6843 24.9642 20.8054 25.1538 21.0195 25.291C21.296 25.4688 21.6026 25.5865 21.8982 25.7273C22.17 25.8568 22.447 25.9796 22.7079 26.1291C23.5024 26.5849 23.7316 27.4169 23.2862 28.2221C22.9199 28.8845 22.3192 29.2031 21.5854 29.2956C20.9863 29.3712 20.3928 29.3414 19.8253 29.1106C19.1269 28.8259 18.7512 28.2437 18.7621 27.5017C18.7642 27.3506 18.8172 27.3069 18.9591 27.3162C19.0968 27.3249 19.2355 27.3182 19.3738 27.3182C19.3738 27.3121 19.3732 27.3049 19.3732 27.2987Z" fill="#0054A5"/>
<path d="M28.607 29.219C29.3314 28.0012 30.0319 26.8239 30.7319 25.6466C31.1528 24.9395 31.5805 24.236 31.9899 23.5227C32.085 23.3568 32.1895 23.2997 32.376 23.31C32.6608 23.3259 32.9487 23.3311 33.2324 23.3084C33.4538 23.291 33.5281 23.3645 33.5546 23.5772C33.6658 24.4683 33.7937 25.3573 33.9153 26.2473C34.0369 27.1373 34.1517 28.0279 34.2847 28.9159C34.3201 29.1533 34.2868 29.2617 34.015 29.2226C33.8539 29.1995 33.6866 29.2185 33.5224 29.2185C33.2747 29.2185 33.1351 29.094 33.1036 28.8449C33.0719 28.5901 33.0386 28.3357 33.0152 28.0803C33.0033 27.9498 32.9451 27.9133 32.8157 27.9148C32.1406 27.921 31.4651 27.9205 30.7901 27.9148C30.6679 27.9138 30.604 27.9606 30.5484 28.0613C30.3613 28.3984 30.1634 28.7293 29.9742 29.0654C29.9207 29.161 29.8687 29.2252 29.7393 29.2216C29.3771 29.2119 29.0144 29.219 28.607 29.219Z" fill="#0054A5"/>
<path d="M27.0319 23.3146C27.4253 23.3311 27.9003 23.3028 28.3763 23.3408C29.4348 23.4251 29.8885 24.1743 29.6832 25.1877C29.4551 26.3156 28.7005 26.9076 27.4679 26.9539C27.0272 26.9703 26.585 26.9755 26.1443 26.9626C25.9448 26.9565 25.8596 27.0089 25.8175 27.2103C25.6912 27.8121 25.5348 28.4076 25.4044 29.0084C25.3685 29.1733 25.3056 29.2329 25.1331 29.2232C24.8655 29.2083 24.5958 29.2062 24.3287 29.2232C24.1343 29.236 24.125 29.16 24.1613 29.0068C24.4815 27.6605 24.7974 26.3131 25.1149 24.9662C25.2246 24.5006 25.3519 24.0382 25.4397 23.5685C25.4807 23.3485 25.5743 23.3007 25.7816 23.3095C26.1703 23.3259 26.5606 23.3146 27.0319 23.3146Z" fill="#0054A5"/>
<path d="M35.2367 24.2961C35.3048 23.9929 35.3734 23.7201 35.4238 23.4441C35.4451 23.3285 35.5054 23.3136 35.6021 23.3136C37.0561 23.3151 38.51 23.3162 39.9635 23.312C40.0971 23.312 40.1334 23.3573 40.0992 23.4765C40.0966 23.4847 40.095 23.4929 40.0929 23.5017C40.0274 23.7576 40.0368 24.0859 39.8752 24.2478C39.7182 24.4045 39.382 24.2848 39.1253 24.2946C38.918 24.3023 38.708 24.3146 38.5028 24.2915C38.2653 24.2648 38.1811 24.3526 38.1297 24.5798C37.796 26.0546 37.4411 27.5248 37.107 28.9996C37.0649 29.1856 36.9947 29.2329 36.817 29.2232C36.5582 29.2088 36.2974 29.2093 36.0386 29.2232C35.8614 29.2324 35.8188 29.1856 35.8608 29.0104C36.1648 27.7478 36.4605 26.4832 36.7593 25.2196C36.8144 24.9868 36.8617 24.7519 36.9277 24.5217C36.9812 24.3341 36.9189 24.2884 36.7323 24.293C36.2412 24.3043 35.7491 24.2966 35.2357 24.2966L35.2367 24.2961Z" fill="#0054A5"/>
<path d="M18.8027 23.3146C18.5501 24.3938 18.3033 25.4503 18.0549 26.5063C17.859 27.3383 17.6547 28.1687 17.4687 29.0027C17.4318 29.1682 17.3783 29.2324 17.2021 29.2232C16.9257 29.2083 16.6482 29.2139 16.3712 29.2216C16.2387 29.2252 16.1857 29.2011 16.2205 29.0531C16.6586 27.198 17.093 25.3419 17.5243 23.4852C17.5545 23.3557 17.6075 23.3069 17.7483 23.3115C18.0928 23.3228 18.4379 23.3146 18.8027 23.3146Z" fill="#0054A5"/>
<path d="M32.572 24.5649C32.6473 25.1548 32.7138 25.6743 32.7793 26.1949C32.8037 26.3896 32.8193 26.5859 32.8494 26.7797C32.8661 26.8866 32.8484 26.9395 32.7247 26.9385C32.2347 26.9349 31.7447 26.9369 31.2042 26.9369C31.662 26.143 32.0985 25.386 32.572 24.5649Z" fill="#FDFDFE"/>
<path d="M26.1121 25.9765C26.2374 25.4451 26.3605 24.9323 26.478 24.4179C26.4988 24.3259 26.5408 24.292 26.6354 24.2946C27.0491 24.3054 27.4643 24.274 27.8774 24.3203C28.408 24.3799 28.6215 24.7221 28.4365 25.2221C28.2942 25.608 28.0032 25.8352 27.6046 25.9123C27.1197 26.0058 26.6276 25.9898 26.1121 25.9765Z" fill="#FEFEFE"/>
</svg>
