<svg width="58" height="58" viewBox="0 0 58 58" fill="none" xmlns="http://www.w3.org/2000/svg">
<g filter="url(#filter0_b_828_2201)">
<path fill-rule="evenodd" clip-rule="evenodd" d="M0 29C0 45.0163 12.9837 58 29 58C45.0163 58 58 45.0163 58 29C58 12.9837 45.0163 0 29 0C12.9837 0 0 12.9837 0 29ZM26.012 18.762C26.8614 17.9127 28.2386 17.9127 29.088 18.762C29.9373 19.6114 29.9373 20.9886 29.088 21.838L21.9259 29L29.088 36.162C29.9373 37.0114 29.9373 38.3886 29.088 39.238C28.2386 40.0873 26.8614 40.0873 26.012 39.238L17.312 30.538C16.4627 29.6886 16.4627 28.3114 17.312 27.462L26.012 18.762ZM40.688 18.762C39.8386 17.9127 38.4614 17.9127 37.612 18.762L28.912 27.462C28.0627 28.3114 28.0627 29.6886 28.912 30.538L37.612 39.238C38.4614 40.0873 39.8386 40.0873 40.688 39.238C41.5373 38.3886 41.5373 37.0114 40.688 36.162L33.5259 29L40.688 21.838C41.5373 20.9886 41.5373 19.6114 40.688 18.762Z" fill="#1D3459" fill-opacity="0.47"/>
</g>
<defs>
<filter id="filter0_b_828_2201" x="-9.6" y="-9.6" width="77.2" height="77.2" filterUnits="userSpaceOnUse" color-interpolation-filters="sRGB">
<feFlood flood-opacity="0" result="BackgroundImageFix"/>
<feGaussianBlur in="BackgroundImageFix" stdDeviation="4.8"/>
<feComposite in2="SourceAlpha" operator="in" result="effect1_backgroundBlur_828_2201"/>
<feBlend mode="normal" in="SourceGraphic" in2="effect1_backgroundBlur_828_2201" result="shape"/>
</filter>
</defs>
</svg>
