<svg width="34" height="33" viewBox="0 0 34 33" fill="none" xmlns="http://www.w3.org/2000/svg">
<path d="M0.321201 3.99777C0.32036 3.96946 0.319892 3.93613 0.319892 3.90271C0.319892 2.88829 0.754724 1.97541 1.4482 1.34036L1.45082 1.33799C2.17978 0.684664 3.14806 0.28525 4.20962 0.28525C4.27095 0.28525 4.33196 0.28659 4.39263 0.289209L4.384 0.288898C4.43575 0.286528 4.49642 0.285156 4.55744 0.285156C5.59608 0.285156 6.54288 0.678397 7.25706 1.32411L7.25357 1.32103C7.94696 1.98439 8.37792 2.91709 8.37792 3.95047C8.37792 4.00438 8.37674 4.058 8.37443 4.11131L8.37468 4.10371C8.3753 4.12821 8.37568 4.15705 8.37568 4.18595C8.37568 5.17275 7.95416 6.06112 7.28135 6.68077L7.27898 6.68292C6.54737 7.34317 5.57335 7.7471 4.505 7.7471C4.43709 7.7471 4.36953 7.74548 4.30241 7.74224L4.31188 7.74261H4.28856C4.23643 7.74508 4.17536 7.74648 4.11394 7.74648C3.0709 7.74648 2.12238 7.34183 1.41681 6.68093L1.41899 6.68295C0.740881 6.0316 0.31958 5.11729 0.31958 4.10455C0.31958 4.06698 0.320172 4.02957 0.321295 3.99228L0.32117 3.99774L0.321201 3.99777ZM0.745059 32.2146V10.6737H7.89994V32.2146H0.745059ZM11.8716 32.2146H19.0244V20.1853C19.0186 20.1026 19.0153 20.006 19.0153 19.9088C19.0153 18.5588 19.6524 17.3576 20.6425 16.5896L20.652 16.5824C21.2444 16.1082 22.0048 15.8214 22.8321 15.8214C22.8763 15.8214 22.9204 15.8222 22.9642 15.8239L22.9579 15.8237C25.3598 15.8237 26.5607 17.4485 26.5607 20.6981V32.2104H33.7199V19.8631C33.7374 19.6366 33.7475 19.3726 33.7475 19.1062C33.7475 16.6446 32.891 14.3831 31.4598 12.6033L31.4755 12.6235C30.0646 11.1004 28.0539 10.1503 25.8214 10.1503C25.7117 10.1503 25.6026 10.1526 25.494 10.1571L25.5095 10.1566C25.4534 10.155 25.3874 10.1541 25.3211 10.1541C22.6581 10.1541 20.3273 11.5766 19.047 13.7031L19.0286 13.7361V13.7997H18.9925L19.0243 13.7361V10.6737H11.8652C11.9076 11.3618 11.9288 13.5009 11.9288 17.091C11.9288 20.6812 11.9076 25.7224 11.8652 32.2146L11.8716 32.2146Z" fill="white" stroke="white" stroke-width="0.016791"/>
</svg>
