<svg width="150" height="71" viewBox="0 0 150 71" fill="none" xmlns="http://www.w3.org/2000/svg">
<path d="M45.6022 6.54439C53.1237 -1.07442 62.7122 -1.63446 70.0883 2.76804C74.7647 5.56044 74.7804 5.74323 70.886 9.38346C70.7446 9.51569 70.607 9.6557 70.4577 9.78404C69.5303 10.6008 68.7208 11.7597 67.6362 12.1409C66.3393 12.592 65.7145 10.9469 64.7046 10.3441C59.3012 7.11221 52.1688 10.6902 51.4928 17.049C50.9584 22.0698 53.6974 26.1884 58.3502 27.4407C60.154 27.9269 61.828 27.5535 63.5374 27.009C65.1997 26.4762 65.2154 25.2278 65.0897 23.8822C64.9443 22.3771 63.7497 22.731 62.838 22.7154C58.4485 22.6299 58.4485 22.6454 58.4524 18.3751C58.4524 16.3243 59.4807 15.2988 61.5372 15.2988C65.1368 15.2988 68.7365 15.3455 72.3361 15.2755C73.7469 15.2483 74.3285 15.68 74.301 17.1501C74.2263 21.1637 74.2538 25.1772 74.2892 29.1908C74.297 30.1748 73.9551 30.9021 73.2557 31.5865C71.668 33.1344 70.0018 34.5578 67.9662 35.5029C54.8488 42.0872 42.3877 31.9288 40.914 21.7315C40.2578 17.2006 41.0476 13.0081 43.6373 9.18123C44.1207 8.17394 45.1463 7.56335 45.6022 6.53661V6.54439Z" fill="white"/>
<path d="M84.4436 35.1295C80.0226 32.2205 77.2129 28.2536 76.6195 22.9799C75.8414 16.0222 76.4191 9.02955 76.258 2.05633C76.2344 1.0296 76.592 0.508454 77.7198 0.512343C87.7838 0.535678 97.8479 0.527899 107.912 0.547345C108.211 0.547345 108.509 0.74958 108.808 0.854587C109.476 1.93188 109.747 3.1064 109.747 4.37037C109.747 9.80738 109.853 15.2483 109.712 20.6814C109.492 29.1286 104.344 35.7557 96.6965 37.2569C92.4131 38.097 88.2318 37.5019 84.4436 35.1295Z" fill="white"/>
<path d="M84.4514 51.5106C84.4514 53.0546 84.3768 54.6024 84.475 56.1387C84.5654 57.5893 83.9956 58.0599 82.5495 58.0404C81.178 58.0249 80.5178 57.7099 80.5532 56.197C80.6357 52.9029 80.5532 49.601 80.5964 46.303C80.6082 45.533 80.172 44.339 81.292 44.1523C82.5573 43.9384 84.0545 43.4912 85.0527 44.9341C86.377 46.8436 87.7131 48.7454 89.2379 50.9272C89.8705 49.1032 89.5955 47.5164 89.5522 45.988C89.509 44.4479 90.0631 43.9734 91.5878 43.9773C93.0851 43.9773 93.5016 44.5451 93.4702 45.9336C93.3994 49.1654 93.482 52.4012 93.423 55.6331C93.4073 56.4381 93.9339 57.7021 92.6292 57.8965C91.356 58.0871 89.8863 58.4877 88.9078 56.9982C87.6424 55.073 86.2984 53.1946 84.9898 51.2967C84.8091 51.3667 84.6283 51.4367 84.4514 51.5106Z" fill="white"/>
<path d="M38.4579 50.8494C38.4579 49.1304 38.5169 47.4075 38.4383 45.6924C38.3715 44.2379 39.1299 44.0007 40.3717 43.9968C41.6371 43.989 42.1204 44.444 42.1008 45.6963C42.0536 49.0565 42.1126 52.4168 42.0694 55.777C42.0615 56.5392 42.482 57.706 41.307 57.8888C40.0927 58.0793 38.6859 58.4721 37.7467 57.0798C36.5874 55.3647 35.381 53.6768 34.1863 51.9851C34.0095 51.7362 33.7658 51.53 33.4082 51.1567C32.8659 52.7784 33.141 54.2524 33.1214 55.6914C33.1017 57.0176 33.1292 58.0521 31.2233 58.0521C29.2074 58.0521 29.451 56.8465 29.451 55.6175C29.451 52.514 29.4156 49.4143 29.4785 46.3108C29.4942 45.5135 28.9755 44.2807 30.347 44.1018C31.5809 43.9423 32.9406 43.6234 33.8602 45.043C35.1609 47.042 36.5756 48.971 37.9431 50.9311C38.1121 50.9039 38.285 50.8767 38.454 50.8494H38.4579Z" fill="white"/>
<path d="M71.841 51.0439C71.841 52.8523 71.7859 54.6608 71.8567 56.4692C71.9195 58.0482 70.9135 58.0016 69.8014 58.021C68.6736 58.0366 67.8326 57.8538 67.9702 56.4615C68.0016 56.1425 67.9702 55.8159 67.9702 55.4931C67.9584 52.6345 67.0231 51.9423 64.178 52.6112C63.5571 52.7551 63.2702 53.0662 63.2466 53.6496C63.2191 54.3574 63.2191 55.0691 63.2113 55.7809C63.1877 57.846 62.0834 58.5966 60.1029 57.9588C59.3366 57.7099 59.3484 57.1498 59.3444 56.5742C59.3326 52.8951 59.3798 49.2121 59.3169 45.533C59.2894 43.9229 60.319 44.0512 61.3997 44.0123C62.5589 43.9696 63.341 44.234 63.2113 45.5952C63.1877 45.8519 63.2113 46.1125 63.2113 46.3691C63.2349 48.901 64.7321 49.8849 67.2078 49.0293C67.7344 48.8465 67.923 48.5121 67.9387 48.0259C67.9623 47.3803 68.0095 46.7308 67.9584 46.0891C67.8484 44.7046 68.1863 43.9501 69.8643 43.9734C71.4244 43.9929 71.9549 44.5101 71.8645 46.0113C71.7663 47.6837 71.841 49.3677 71.841 51.0478V51.0439Z" fill="white"/>
<path d="M148.29 52.514C150.015 51.1061 150.408 49.1499 149.591 47.0575C148.781 44.9924 147.079 44.1562 144.973 44.0473C143.409 43.9657 141.833 44.0746 140.269 44.0084C138.972 43.954 138.528 44.5296 138.564 45.743C138.615 47.4892 138.579 49.2354 138.576 50.9817C138.576 52.5995 138.607 54.2174 138.564 55.8314C138.524 57.1304 138.638 58.0366 140.395 58.056C142.175 58.0716 142.246 57.1498 142.23 55.8586C142.222 55.2053 141.845 54.2291 142.729 53.9802C143.602 53.7391 143.779 54.7619 144.175 55.3103C144.671 55.9909 145.091 56.7298 145.614 57.3871C146.062 57.9471 149.162 58.3671 149.477 57.8654C150.121 56.8309 148.899 56.3526 148.596 55.5864C148.207 54.5986 146.643 53.8557 148.29 52.514ZM143.947 50.235C142.945 50.2622 142.167 50.1572 142.195 48.8388C142.222 47.6215 142.961 47.5281 143.881 47.5592C144.867 47.6098 146.011 47.6603 145.975 48.9632C145.948 50.1144 144.902 50.2077 143.947 50.235Z" fill="white"/>
<path d="M51.7876 44.2846C49.9799 43.8412 48.1486 44.1251 46.3331 44.0162C45.1306 43.9462 44.7062 44.5024 44.7337 45.6302C44.7769 47.4387 44.7455 49.2471 44.7455 51.0556H44.7376C44.7376 51.5728 44.6983 52.094 44.7455 52.6034C44.9105 54.3146 43.9045 56.6948 45.2131 57.5893C46.8911 58.7366 49.3904 58.1571 51.4968 57.8343C54.9903 57.2976 57.5525 54.4352 57.6704 51.2656C57.7922 47.9365 55.4383 45.1752 51.7876 44.2846ZM53.2494 52.8173C52.377 54.2213 50.9623 54.6102 49.3551 54.4508C48.6045 54.3769 48.3884 53.9102 48.3844 53.2607V50.9505H48.3726C48.3726 50.8222 48.3451 50.6861 48.3766 50.5655C48.6123 49.5855 47.7164 48.1426 49.135 47.6837C50.5458 47.2286 51.9958 47.637 52.9979 48.866C54.0039 50.1027 54.0747 51.4989 53.2494 52.8173Z" fill="white"/>
<path d="M10.0264 49.846C10.8398 50.1766 12.2113 49.1732 12.8322 50.5928C13.5788 52.2962 12.8047 55.9987 11.559 56.8659C9.07538 58.6005 6.43853 58.6899 3.7899 57.3015C1.21593 55.952 -0.308803 52.9262 0.0527319 50.1455C0.422126 47.3064 2.59133 44.8485 5.39716 44.0473C7.48384 43.4523 9.42906 43.8257 11.2171 44.9263C11.8458 45.3152 13.0523 45.8247 12.1288 46.8008C11.4371 47.532 10.9459 49.2043 9.22471 48.022C7.93183 47.1353 6.47783 47.2248 5.20067 48.1932C3.89207 49.1849 3.7231 50.5966 4.0414 52.059C4.44617 53.918 6.52106 55.0419 8.31694 54.4741C8.78458 54.3263 9.17755 54.1124 9.22078 53.5835C9.26401 53.0312 8.91426 52.7046 8.39947 52.7046C7.07515 52.7046 6.44639 52.1601 6.68611 50.8067C6.93761 49.4027 8.07723 49.986 8.88282 49.8538C9.20113 49.8033 9.53516 49.846 10.0224 49.846H10.0264Z" fill="white"/>
<path d="M121.851 53.1401C121.851 57.0993 118.518 59.2344 114.243 57.8771C111.484 57.0021 109.72 55.0575 109.244 52.1951C108.729 49.1188 110.105 46.3108 112.777 44.7863C115.402 43.289 118.027 43.4484 120.538 45.0663C121.061 45.4008 122.122 45.9375 121.344 46.6531C120.593 47.3453 120.102 49.0293 118.432 48.0531C117.013 47.2248 115.571 47.1664 114.247 48.2437C112.977 49.2782 112.867 50.6978 113.201 52.1445C113.598 53.8674 115.437 54.9136 117.135 54.5052C117.689 54.373 118.141 54.1513 118.168 53.5291C118.2 52.829 117.681 52.654 117.127 52.6695C115.909 52.7046 115.528 52.0978 115.598 50.9817C115.681 49.6944 116.616 49.8772 117.449 49.8499C117.776 49.8383 118.102 49.846 118.428 49.8499C122.086 49.8849 121.835 49.4571 121.851 53.144V53.1401Z" fill="white"/>
<path d="M108.91 56.9282C107.578 52.8679 106.057 48.866 104.497 44.8835C103.923 43.4173 102.442 44.1873 101.357 44.0318C100.469 43.9073 99.9031 44.2846 99.5848 45.1752C98.2173 49.0177 96.7908 52.8446 95.3997 56.6793C95.2543 57.0837 94.9753 57.5154 95.5372 57.8732C96.3703 58.406 98.8735 57.8421 99.518 56.9593C100.41 55.742 103.935 55.6136 104.666 56.9126C105.287 58.021 106.144 58.021 107.381 57.9899C107.684 57.5465 109.48 58.6705 108.91 56.9282ZM102.839 53.109C102.571 53.4785 101.699 53.4902 101.428 53.0974C100.752 52.1212 101.742 51.4017 102.096 50.5383C102.611 51.3978 103.522 52.1523 102.839 53.109Z" fill="white"/>
<path d="M136.426 56.4654C135.062 52.969 133.746 49.4493 132.575 45.8908C132.072 44.3701 131.278 43.7401 129.93 44.0201C128.696 44.0434 127.663 43.8334 127.183 45.218C125.847 49.0682 124.389 52.8757 123.006 56.7104C122.868 57.0876 122.53 57.5426 123.112 57.9043C123.914 58.406 126.511 57.8188 127.144 56.9787C127.898 55.9714 131.53 55.5358 132.036 56.5742C132.803 58.1455 133.993 57.9743 135.294 58.021C136.548 58.0638 136.933 57.7682 136.426 56.4654ZM130.449 53.0312C130.182 53.4902 129.148 53.5135 128.912 53.0507C128.425 52.1056 129.227 51.3434 129.706 50.3361C130.358 51.3045 130.983 52.1134 130.449 53.0312Z" fill="white"/>
<path d="M27.4154 56.7531C26.0597 52.8484 24.5899 48.9826 23.1792 45.0974C22.6526 43.6429 21.4029 44.0901 20.3576 44.0279C19.4302 43.9734 18.5617 43.9696 18.153 45.1168C16.7619 49.0099 15.3079 52.8796 13.8893 56.7648C13.7439 57.1654 13.5238 57.6204 14.1015 57.9354C14.9896 58.4177 17.3985 57.8032 18.0862 56.9048C18.9272 55.8042 22.46 55.6136 23.1124 56.7959C23.7529 57.9549 24.5978 58.0949 25.9025 57.9627C26.3465 57.6865 28.0913 58.6899 27.4154 56.7531ZM21.4029 53.144C21.1829 53.4824 20.2751 53.4707 20.0079 53.0546C19.3791 52.0862 20.1493 51.3395 20.672 50.3477C21.2654 51.3472 22.0828 52.1173 21.4029 53.144Z" fill="white"/>
<path d="M84.4436 35.1295C86.6442 35.6701 88.7231 36.6074 91.0573 36.7202C101.593 37.218 108.686 30.6609 108.749 20.2458C108.788 13.7821 108.788 7.31833 108.808 0.850698C110.266 1.72964 110.843 2.93139 110.812 4.69705C110.698 10.7758 110.942 16.8623 110.718 22.9332C110.179 37.638 95.2936 41.7605 85.9644 36.3041C85.4142 35.9813 84.9466 35.5262 84.4436 35.1334L84.4436 35.1295Z" fill="#BEBEBE"/>
<path d="M44.0499 9.07622C37.4755 20.6892 44.4822 34.0523 56.5975 36.448C59.7885 37.078 62.9676 36.9069 66.0839 35.8957C66.6891 35.6974 67.2668 35.2968 67.9662 35.5107C65.8521 37.5797 63.0698 38.1008 60.3308 38.4703C52.9036 39.4698 45.5197 35.5651 41.7235 28.8136C38.1357 22.4315 38.902 14.5249 43.6688 8.68731C44.0146 8.60952 44.2032 8.68342 44.0499 9.08011V9.07622Z" fill="#BEBEBE"/>
<path d="M78.1521 51.0556C78.1521 52.8018 78.0853 54.5558 78.1757 56.2981C78.2503 57.7293 77.5666 58.0599 76.2855 58.0288C75.1223 58.0016 74.2459 57.9471 74.2735 56.4109C74.3403 52.7862 74.3363 49.1615 74.2774 45.5369C74.2538 43.9307 75.2716 44.0434 76.3641 44.0084C77.543 43.9696 78.2228 44.269 78.1678 45.6185C78.0931 47.427 78.1482 49.2432 78.1482 51.0556H78.1521Z" fill="white"/>
<path d="M44.9341 67.5649C44.9341 66.2932 44.9341 65.0214 44.9341 63.7497C44.9341 63.1936 45.0009 62.6802 45.7554 62.7424C46.4471 62.8007 46.3174 63.353 46.3213 63.7691C46.337 65.7682 46.341 67.7672 46.3213 69.7662C46.3174 70.1668 46.5296 70.7229 45.834 70.8396C45.2917 70.9329 44.997 70.5907 44.7219 70.2134C43.5823 68.6694 42.4427 67.1294 40.914 65.6787C40.914 67.0594 40.9258 68.4361 40.9062 69.8167C40.9022 70.2329 41.0398 70.7851 40.3521 70.8396C39.515 70.9018 39.6369 70.2718 39.6329 69.7856C39.6172 67.7866 39.6133 65.7876 39.6329 63.7886C39.6369 63.3841 39.46 62.8357 40.1595 62.7346C40.6979 62.6568 41.0044 62.9796 41.2795 63.353C42.3523 64.792 43.4212 66.2349 44.494 67.6738C44.6394 67.6349 44.7887 67.5999 44.9341 67.5611V67.5649Z" fill="white"/>
<path d="M83.5555 68.6617C83.1782 68.1405 83.1939 67.8372 83.7402 67.4094C84.754 66.6082 85.1116 65.5387 84.5811 64.3019C84.0427 63.0458 82.9464 62.7346 81.7006 62.7152C81.0483 62.7035 80.392 62.7541 79.7436 62.7035C78.8359 62.6335 78.4507 62.9524 78.4743 63.8975C78.5215 65.8343 78.4743 67.7711 78.4979 69.7079C78.5058 70.1707 78.3014 70.8474 79.1385 70.8551C79.9676 70.8629 79.7161 70.2018 79.8222 69.739C79.9598 69.1439 79.3428 68.2416 80.5296 68.0511C81.5159 67.8916 81.8696 68.5644 82.3372 69.2062C82.8992 69.9762 83.1782 71.2441 84.8562 70.7151C84.3807 69.9529 84.0074 69.28 83.5555 68.6617ZM80.8911 66.7716C80.2348 66.8688 79.7751 66.5343 79.7711 65.387C79.7633 64.2475 80.2073 63.9169 81.2487 64.018C82.1958 64.1153 83.3433 63.9792 83.355 65.3754C83.3668 66.7793 82.2351 66.6743 80.8911 66.7716Z" fill="white"/>
<path d="M68.3278 66.7871C68.3278 63.8184 69.863 62.4585 72.9334 62.7074C73.4404 62.7463 74.0966 62.6218 74.0495 63.4074C74.0023 64.1697 73.3382 64.0064 72.843 64.0258C72.2536 64.0492 71.6641 64.0492 71.0786 64.0258C70.2769 63.9986 69.6678 64.0997 69.6953 65.1459C69.7228 66.0987 70.2848 66.1493 71 66.1221C71.5227 66.1026 72.0453 66.1143 72.568 66.1221C73.0277 66.1299 73.5347 66.0871 73.5032 66.7793C73.4718 67.4638 72.9413 67.3588 72.5051 67.3783C72.0492 67.3938 71.5895 67.3938 71.1336 67.3783C70.3752 67.3549 69.715 67.3394 69.6914 68.4244C69.6639 69.6184 70.387 69.6067 71.224 69.5795C71.8763 69.5562 72.5326 69.5678 73.1849 69.5834C73.6447 69.5951 74.1477 69.599 74.1163 70.2718C74.0927 70.8007 73.6919 70.8629 73.291 70.8668C71.9196 70.8785 70.5441 70.8551 69.1727 70.8785C68.4457 70.8901 68.3199 70.4779 68.3278 69.8906C68.3435 68.8561 68.3317 67.8216 68.3278 66.7832V66.7871Z" fill="white"/>
<path d="M34.9958 65.8576C34.9526 66.8804 35.0784 67.9111 34.7208 68.9222C34.2217 70.3379 33.1882 70.9524 31.7499 70.9952C30.3077 71.0379 29.1681 70.4585 28.669 69.0817C27.9931 67.211 28.3978 65.247 28.3585 63.3258C28.3468 62.8163 28.7319 62.7035 29.1641 62.7424C29.6829 62.7852 29.7575 63.1741 29.7654 63.5747C29.7811 64.8659 29.7811 66.1532 29.7811 67.4444C29.7811 68.7045 30.237 69.6223 31.6556 69.6495C33.086 69.6806 33.5654 68.7433 33.6126 67.5105C33.6479 66.4799 33.5654 65.4415 33.644 64.4186C33.6912 63.8158 33.2078 62.7657 34.371 62.7852C35.381 62.8046 34.8937 63.7614 34.9762 64.3175C35.0509 64.8231 34.9919 65.3481 34.9958 65.8615V65.8576Z" fill="white"/>
<path d="M94.6609 68.7239C94.6216 69.8673 93.8906 70.6879 92.5742 70.929C91.2027 71.1818 89.9884 70.7463 88.9667 69.8284C88.8881 69.7584 89.0532 69.3734 89.1632 69.1634C89.2968 68.9067 89.564 68.8211 89.8234 68.93C90.0592 69.0312 90.2478 69.245 90.4836 69.3384C91.4778 69.739 92.7471 70.1862 93.1951 68.93C93.6313 67.7166 92.2087 67.6583 91.4149 67.3977C90.2478 67.0166 89.1435 66.6354 89.006 65.2081C88.9156 64.2903 89.3204 63.5319 90.0945 63.073C91.2656 62.3729 92.4799 62.5557 93.647 63.1469C93.9692 63.3102 94.4133 63.4852 94.1579 64.0064C93.9221 64.4925 93.6077 64.6675 93.0733 64.3447C92.7471 64.1464 92.3502 64.0142 91.9729 63.9558C91.2813 63.8508 90.5975 63.9597 90.4128 64.7492C90.236 65.5115 90.8962 65.7215 91.4503 65.9276C92.0594 66.1532 92.7078 66.2932 93.3051 66.546C94.15 66.9077 94.6451 67.5533 94.6609 68.7239Z" fill="white"/>
<path d="M60.4801 68.93C61.2543 66.8921 61.8477 65.3909 62.3939 63.878C62.6218 63.248 62.7947 62.4624 63.6514 62.7774C64.5317 63.1002 63.844 63.7497 63.6711 64.2047C62.948 66.1415 62.1542 68.055 61.4193 69.9879C61.2228 70.5012 61.0578 70.9641 60.3779 70.929C59.7806 70.8979 59.6824 70.4157 59.5173 70.0073C58.7039 67.9655 57.8865 65.9237 57.1045 63.8703C56.9709 63.5202 56.4757 63.0185 57.2106 62.758C57.8158 62.5441 58.193 62.8708 58.4052 63.4308C59.0301 65.1031 59.6627 66.7716 60.4762 68.93H60.4801Z" fill="white"/>
<path d="M114.714 62.7268C117.017 62.6957 116.821 65.0642 118.047 65.9976C119.56 65.3442 119.202 62.6218 121.583 62.723C121.619 63.5786 121.029 64.0492 120.684 64.6209C119.689 66.2699 118.361 67.7866 118.77 69.9412C118.856 70.3962 118.742 70.8746 118.078 70.8513C117.693 70.8357 117.43 70.614 117.489 70.2484C117.976 67.3588 115.889 65.4765 114.714 63.2402C114.663 63.143 114.706 62.9952 114.706 62.7268H114.714Z" fill="white"/>
<path d="M107.197 67.4133C107.197 66.8338 107.146 66.2504 107.208 65.6748C107.326 64.5781 107.055 63.9208 105.762 64.0842C105.299 64.1425 104.815 64.0453 104.784 63.4308C104.745 62.6296 105.358 62.7113 105.868 62.7074C107.299 62.6996 108.733 62.7074 110.164 62.7074C110.58 62.7074 110.965 62.7891 111.012 63.2869C111.064 63.8664 110.702 64.1581 110.179 64.0764C108.509 63.8236 108.423 64.7842 108.486 66.0248C108.552 67.3744 108.497 68.7278 108.486 70.0812C108.486 70.4896 108.395 70.8474 107.861 70.859C107.326 70.8707 107.212 70.5362 107.208 70.1123C107.205 69.21 107.208 68.3078 107.208 67.4094H107.201L107.197 67.4133Z" fill="white"/>
<path d="M100.465 66.7521C100.465 67.7866 100.465 68.8211 100.461 69.8556C100.461 70.3068 100.493 70.8007 99.8285 70.8435C99.1722 70.8863 99.0975 70.439 99.0975 69.9529C99.0936 67.8839 99.0897 65.8148 99.0975 63.7419C99.0975 63.2869 99.0779 62.7774 99.7341 62.7541C100.54 62.723 100.457 63.3336 100.465 63.8391C100.481 64.8075 100.469 65.7798 100.465 66.7482V66.7521Z" fill="white"/>
<path d="M52.4635 66.6704C52.4635 67.7011 52.4753 68.7317 52.4556 69.7584C52.4478 70.2523 52.5499 70.8785 51.7326 70.8318C51.0566 70.7968 51.1549 70.2562 51.1509 69.8245C51.1392 67.8294 51.1352 65.8343 51.147 63.8391C51.147 63.3491 51.0291 62.7113 51.8504 62.7619C52.5028 62.8007 52.4478 63.3336 52.4556 63.773C52.4713 64.7375 52.4596 65.702 52.4556 66.6704H52.4635Z" fill="white"/>
<path d="M44.0499 9.07622C43.9242 8.94399 43.7945 8.81565 43.6688 8.68342C44.1443 7.82003 44.8477 7.15888 45.6022 6.54439C45.4175 7.58668 44.7023 8.31395 44.0499 9.07622Z" fill="white"/>
<path d="M90.8648 17.1734C91.6114 16.8039 92.4131 16.9595 93.1636 17.0412C94.0635 17.1345 95.9066 16.4811 94.4172 18.7174C93.761 19.7052 94.5548 21.3426 95.4036 22.2721C96.1109 23.046 97.1445 22.1943 97.8636 21.7587C101.896 19.3241 104.501 15.9639 104.521 11.0247C107.22 13.8637 106.65 19.1141 103.31 21.572C101.958 22.5676 100.383 23.2677 98.9089 24.1C98.229 24.485 97.5138 24.8233 96.8812 25.2784C95.7022 26.1301 94.5037 27.0907 94.7788 28.7319C95.0342 30.2487 96.445 30.5715 97.7025 30.9643C95.8359 33.1655 95.5647 33.1655 93.5488 30.5443C93.9417 32.4266 95.1089 34.6356 92.5192 34.5773C90.0552 34.5228 91.0966 32.4499 91.5721 30.9409C90.2949 31.1471 90.6958 32.9011 89.5679 32.6638C88.7152 32.4849 87.9764 31.8316 87.3437 31.0382C87.8585 30.8398 88.3261 30.6959 88.7624 30.4898C90.5661 29.6264 90.908 28.098 89.6426 26.5307C88.9353 25.6556 88.0118 25.0411 87.0254 24.5239C85.8151 23.8861 84.5772 23.2871 83.3865 22.6143C78.7062 19.9658 77.6059 15.645 80.561 10.6785C80.6003 14.6688 82.1525 17.7373 84.9702 20.1797C85.9605 21.0353 87.0608 21.7198 88.2672 22.2565C89.3361 22.731 90.0316 22.5404 90.2714 21.3426C90.5425 19.9697 91.7254 18.7252 90.8648 17.1773V17.1734Z" fill="#1D3459"/>
<path d="M97.6239 3.44864C105.798 8.4034 105.479 16.6717 96.944 21.3659C100.874 15.4311 100.312 9.64015 97.6239 3.44864Z" fill="#1D3459"/>
<path d="M88.2515 21.4126C79.665 16.695 79.3742 8.38784 87.4341 3.50309C84.9191 9.58181 84.1606 15.3844 88.2515 21.4126Z" fill="#1D3459"/>
<path d="M95.5215 27.8102C98.2487 24.0416 103.448 23.9405 105.912 19.8841C105.821 24.8661 102.791 27.1296 95.5215 27.8102Z" fill="#1D3459"/>
<path d="M79.2917 20.6114C82.1093 23.7849 86.7818 24.275 89.8863 27.9463C84.8208 27.1374 80.113 26.7523 79.2917 20.6114Z" fill="#1D3459"/>
<path d="M82.911 27.3474C85.2138 27.8685 87.2533 28.3313 89.4461 28.8291C87.2219 30.9215 85.5714 30.5248 82.911 27.3474Z" fill="#1D3459"/>
<path d="M102.32 27.3707C100.697 29.008 99.5023 30.622 97.1602 29.9881C96.6532 29.852 96.0088 29.6342 95.9813 29.1169C95.9459 28.4402 96.6965 28.5491 97.1602 28.4441C98.7321 28.098 100.316 27.783 102.32 27.3668V27.3707Z" fill="#1D3459"/>
</svg>
