<svg width="35" height="36" viewBox="0 0 35 36" fill="none" xmlns="http://www.w3.org/2000/svg">
<path d="M33.75 30.5C34.375 30.5 35 31.125 35 31.75V34.25C35 34.9531 34.375 35.5 33.75 35.5H1.25C0.546875 35.5 0 34.9531 0 34.25V31.75C0 31.125 0.546875 30.5 1.25 30.5H33.75ZM33.75 20.5C34.375 20.5 35 21.125 35 21.75V24.25C35 24.9531 34.375 25.5 33.75 25.5H1.25C0.546875 25.5 0 24.9531 0 24.25V21.75C0 21.125 0.546875 20.5 1.25 20.5H33.75ZM33.75 10.5C34.375 10.5 35 11.125 35 11.75V14.25C35 14.9531 34.375 15.5 33.75 15.5H1.25C0.546875 15.5 0 14.9531 0 14.25V11.75C0 11.125 0.546875 10.5 1.25 10.5H33.75ZM33.75 0.5C34.375 0.5 35 1.125 35 1.75V4.25C35 4.95312 34.375 5.5 33.75 5.5H1.25C0.546875 5.5 0 4.95312 0 4.25V1.75C0 1.125 0.546875 0.5 1.25 0.5H33.75Z" fill="white"/>
</svg>
