<svg width="57" height="58" viewBox="0 0 57 58" fill="none" xmlns="http://www.w3.org/2000/svg">
<path d="M34.2 0H22.8C12.052 0 6.67797 0 3.33898 3.31469C0 6.62939 0 11.9643 0 22.6341V25.4634C0 27.0241 0 28.4326 0.018576 29.7073H30.2149C30.5102 27.7855 31.1721 25.7822 32.8466 24.1199C34.608 22.3712 36.7497 21.735 38.7759 21.4645C40.6159 21.2189 42.8779 21.2192 45.3449 21.2195H45.8551C48.3221 21.2192 50.5841 21.2189 52.4241 21.4645C53.9548 21.6688 55.5513 22.0819 57 23.0255V22.6341C57 11.9643 57 6.62939 53.661 3.31469C50.322 0 44.948 0 34.2 0Z" fill="#A69E87"/>
<path d="M2.50424 39.953C5.00847 42.439 9.03898 42.439 17.1 42.439H26.3625V53.7561H17.1C15.9195 53.7561 14.9625 54.7061 14.9625 55.878C14.9625 57.05 15.9195 58 17.1 58H32.9191L32.8466 57.9289C31.0852 56.1803 30.4442 54.0542 30.1718 52.0427C29.9244 50.2161 29.9247 47.9706 29.925 45.5215V36.5273C29.9248 35.1157 29.9247 33.7717 29.9719 32.5366H0.109306C0.310448 36.0955 0.881723 38.3423 2.50424 39.953Z" fill="#A69E87"/>
<path fill-rule="evenodd" clip-rule="evenodd" d="M57 36.7805V45.2683C57 50.6032 57 53.2707 55.3305 54.928C53.661 56.5854 50.974 56.5854 45.6 56.5854C40.226 56.5854 37.539 56.5854 35.8695 54.928C34.2 53.2707 34.2 50.6032 34.2 45.2683V36.7805C34.2 31.4456 34.2 28.7781 35.8695 27.1208C37.539 25.4634 40.226 25.4634 45.6 25.4634C50.974 25.4634 53.661 25.4634 55.3305 27.1208C57 28.7781 57 31.4456 57 36.7805ZM40.6125 50.9268C40.6125 49.7549 41.5695 48.8049 42.75 48.8049H48.45C49.6305 48.8049 50.5875 49.7549 50.5875 50.9268C50.5875 52.0988 49.6305 53.0488 48.45 53.0488H42.75C41.5695 53.0488 40.6125 52.0988 40.6125 50.9268Z" fill="#A69E87"/>
</svg>
