<svg width="65" height="46" viewBox="0 0 65 46" fill="none" xmlns="http://www.w3.org/2000/svg">
<path d="M44.8545 43.9906C44.5413 43.8587 44.2913 44.0311 44.011 43.9589C43.5299 43.8346 43.2559 44.1326 43.2016 44.5991C43.1448 45.0821 43.4567 45.3648 43.9643 45.3725C44.0741 45.375 44.314 45.1252 44.3115 45.4777C44.3103 45.7287 44.0905 45.749 43.9062 45.7845C43.6827 45.8276 43.545 45.498 43.2887 45.6146C43.2938 45.8948 43.5716 45.8542 43.6738 46H44.1789C44.5224 45.7984 44.6373 45.503 44.6196 45.1037C44.6045 44.7221 44.4807 44.305 44.8545 43.9906ZM44.3267 44.6194C44.3431 44.9693 44.2042 45.1443 43.8948 45.1404C43.5791 45.1354 43.4617 44.9211 43.463 44.6422C43.4642 44.3291 43.6233 44.1047 43.9516 44.1288C44.2471 44.1503 44.3696 44.3658 44.3267 44.6194Z" fill="#3F3C57"/>
<path d="M38.3666 31.6805C38.1305 31.5321 38.253 31.2989 38.253 31.11C38.2454 25.514 38.2555 19.9168 38.234 14.3208C38.2315 13.7833 38.3818 13.6628 38.8944 13.6704C40.8719 13.7009 42.8493 13.7059 44.8267 13.6666C45.3773 13.6565 45.4922 13.8302 45.4631 14.3373C45.4202 15.1119 45.4518 15.8903 45.4518 16.7423C45.9253 16.5534 46.2119 16.2035 46.5011 15.903C47.5668 14.7911 48.8523 14.3081 50.3688 14.445C50.8663 14.4907 51.0267 14.3322 50.9913 13.8251C50.9446 13.1519 50.9838 12.4737 50.98 11.7979C50.9724 10.3438 51.5734 9.19138 52.6998 8.30394C54.1052 7.19717 55.743 6.704 57.4918 6.63427C59.1725 6.56708 60.857 6.61906 62.5402 6.61779C63.3673 6.61779 64.1338 6.96897 65 6.98291C64.5631 8.33563 64.1363 9.63257 63.731 10.9358C63.6299 11.2591 63.414 11.2705 63.1476 11.2731C62.0957 11.2819 61.0439 11.2997 59.992 11.32C58.9932 11.339 58.5285 11.7282 58.3341 12.6942C58.1506 13.6045 58.5151 14.0601 59.4276 14.0609C60.1208 14.0609 60.8128 14.0609 61.6058 14.0609C61.0148 15.4719 60.4618 16.8272 59.8784 18.1685C59.713 18.5501 59.3177 18.3561 59.0336 18.3688C58.1952 18.4056 58.1914 18.3866 58.1914 19.2017C58.1914 23.1509 58.1939 27.1 58.1838 31.0491C58.1838 31.2558 58.3214 31.5119 58.0689 31.6805C57.6168 31.5423 57.1522 31.6221 56.6951 31.6196C55.0118 31.6082 53.3286 31.5968 51.6467 31.626C51.1706 31.6348 51.0482 31.4992 51.0507 31.025C51.0696 27.1608 51.0633 23.2954 51.057 19.4312C51.057 19.2094 51.1492 18.9659 50.9699 18.7644C50.3347 18.7251 49.7109 18.8303 49.1023 18.9735C47.1324 19.4375 45.9606 21.0337 45.9404 23.2776C45.9164 25.8702 45.9164 28.4628 45.8988 31.0555C45.8975 31.2545 45.9897 31.4764 45.8154 31.6551C43.5589 31.5651 41.3024 31.6386 39.0447 31.6196C38.8199 31.6171 38.5851 31.5562 38.3691 31.6817L38.3666 31.6805Z" fill="#383677"/>
<path d="M13.621 31.4244C13.6084 29.5075 13.5945 27.5919 13.5818 25.675C13.5717 24.179 13.597 22.6818 13.544 21.1871C13.4884 19.615 12.5679 18.7618 11.0286 18.758C9.07266 18.7529 7.6925 20.1424 7.6824 22.1683C7.66725 25.14 7.67987 28.1117 7.67103 31.0833C7.67103 31.276 7.78468 31.503 7.57254 31.6653C7.48541 31.555 7.5094 31.4244 7.5094 31.3001C7.5094 28.4109 7.5094 25.5216 7.50688 22.6323C7.50309 25.4253 7.49551 28.2182 7.51446 31.0111C7.51698 31.4649 7.4248 31.6336 6.92981 31.626C4.99658 31.5968 3.06335 31.6019 1.13012 31.6221C0.673012 31.6272 0.493705 31.4903 0.494968 31.0162C0.502544 25.4265 0.500019 19.8369 0.502544 14.246C0.502544 14.0584 0.483603 13.8619 0.626291 13.7059C2.6858 13.6971 4.7453 13.6983 6.80607 13.673C7.17478 13.6679 7.20761 13.8302 7.2013 14.1256C7.18615 14.8431 7.19625 15.5607 7.19625 16.3353C7.71397 16.1718 8.04859 15.794 8.42235 15.491C9.12443 14.9217 9.80125 14.3195 10.5955 13.8771C11.2862 13.4929 12.0123 13.2635 12.8179 13.2926C14.0768 13.3383 15.3547 13.143 16.5934 13.3712C19.0545 13.8238 20.9259 16.1325 21.1872 18.8835C21.0951 19.1079 21.1405 19.3425 21.1405 19.5719C21.1367 23.3702 21.1279 27.1672 21.1506 30.9654C21.1544 31.4941 21.0054 31.6323 20.4864 31.6247C18.4269 31.5955 16.3674 31.6145 14.3067 31.6095C14.0667 31.6095 13.7902 31.6982 13.621 31.4206V31.4244Z" fill="#383677"/>
<path d="M34.7817 33.6202C33.6895 32.4563 32.654 31.3572 31.6224 30.2542C31.0327 29.6241 30.4253 29.008 29.871 28.3475C29.5831 28.0039 29.448 28.1053 29.2119 28.383C27.8064 30.0311 26.3834 31.6653 24.9691 33.307C24.8933 33.3958 24.8403 33.5035 24.7772 33.6037C24.7304 33.5733 24.685 33.5428 24.6383 33.5111C24.6383 33.3514 24.6383 33.1917 24.6383 33.0319C24.6383 26.8071 24.6471 20.5836 24.6256 14.3588C24.6244 13.8035 24.7532 13.6603 25.3138 13.6666C28.2976 13.6983 31.2827 13.6894 34.2678 13.6742C34.6769 13.6717 34.8487 13.7351 34.8474 14.2092C34.831 20.6026 34.8373 26.9948 34.8373 33.3882C34.8373 33.4262 34.8196 33.4642 34.783 33.6189L34.7817 33.6202Z" fill="#383779"/>
<path d="M10.7887 33.9675C16.1856 33.6988 21.3804 34.8169 26.5298 36.2609C26.9932 36.3915 27.468 36.4841 27.9315 36.6134C28.7686 36.8467 29.5692 36.7972 30.3912 36.4752C33.9786 35.0667 37.7352 34.4645 41.5537 34.1678C44.1158 33.9688 46.6867 33.9967 49.2412 34.1133C51.5356 34.2186 53.8148 34.6496 56.1003 34.9412C56.661 35.0122 57.2178 35.1174 57.7797 35.1732C58.0841 35.2036 58.2154 35.2924 58.204 35.6283C58.1775 36.408 58.1851 37.1902 58.1952 37.9712C58.199 38.2843 58.1661 38.3895 57.7797 38.3223C54.7883 37.8089 51.7868 37.3512 48.7955 36.839C46.8875 36.512 44.9858 36.8276 43.0816 36.815C38.9866 36.7896 35.0052 37.672 31.0201 38.4517C29.2043 38.8066 27.4743 38.5036 25.7267 38.1766C23.2366 37.71 20.7554 37.1547 18.2337 36.9215C15.5959 36.678 12.9404 36.7592 10.2924 36.8505C7.78468 36.9379 5.37414 37.6263 2.92193 38.0561C2.22111 38.1791 1.51272 38.2666 0.809386 38.3794C0.542951 38.4225 0.419204 38.3439 0.425518 38.0536C0.443196 37.2308 0.448247 36.4067 0.450772 35.584C0.450772 35.3164 0.57957 35.2366 0.833378 35.1973C3.39797 34.7954 5.95625 34.3517 8.52464 33.9815C9.26585 33.875 10.0336 33.965 10.79 33.965L10.7887 33.9675Z" fill="#AD4A54"/>
<path d="M35.6076 6.34395C35.5179 6.5113 35.4282 6.67738 35.3399 6.84473C35.3197 7.14392 35.4548 7.46467 35.2136 7.7309C34.903 7.89064 34.5936 8.05038 34.2122 8.24562C34.562 8.47255 34.8487 8.65765 35.129 8.83894C35.0772 9.0684 34.9156 8.9822 34.8209 8.97332C34.0216 8.89599 33.3384 8.93275 33.1705 9.97233C33.1149 10.3159 32.7487 10.5327 32.3396 10.5111C32.298 10.5086 32.2563 10.5111 32.2134 10.5111C31.47 10.5272 31.2053 10.8923 31.4191 11.6065C31.1059 11.4468 30.837 11.3136 30.5718 11.1742C30.1122 10.935 29.8121 11.0926 29.6715 11.6471C29.4354 11.4239 29.2283 11.23 29.0224 11.0347C28.8368 10.9067 28.6057 10.9574 28.4024 10.8484C27.9668 10.6164 27.9239 11.1793 27.6423 11.2807C27.3961 11.1856 27.1511 11.0892 26.9049 10.9942C26.5248 10.8648 26.4478 10.52 26.3796 10.1955C26.3076 9.85316 26.2419 9.57044 25.7836 9.72004C25.6042 9.77836 25.4616 9.67187 25.382 9.49691C25.3643 9.43606 25.3441 9.37647 25.329 9.31562C25.1749 8.70329 24.8479 8.49917 24.2721 8.85542C24.1862 8.90867 24.0789 8.92388 23.8592 8.99741C24.137 8.42818 24.3731 7.94262 24.6433 7.3848H23.5107C23.4437 7.0818 23.6622 6.92206 23.7215 6.70907C24.1294 6.14998 23.6192 5.76585 23.4589 5.31452C23.5927 5.11548 23.9324 4.95701 23.4942 4.68951C23.2467 4.53864 23.3389 4.21409 23.3957 3.98589C23.4665 3.70064 23.7493 3.83629 23.9387 3.82869C24.5676 3.80333 24.8277 3.55611 24.6004 3.16183C24.4539 2.90828 24.1344 3.01984 23.8857 2.82207C24.4059 2.63698 24.8933 2.46329 25.382 2.28834C25.4818 2.14127 25.6396 2.07155 25.7987 2.04492C26.3455 1.95618 26.5728 1.68361 26.3707 1.13086C26.6233 0.999008 26.8746 0.867159 27.1271 0.734043C27.6574 0.869695 28.0868 0.607265 28.5237 0.37653C28.6083 0.460203 28.6941 0.543876 28.7787 0.628817C29.3015 0.97492 29.7169 0.669386 30.1374 0.400617C30.4468 0.546412 30.6274 0.836733 30.8584 1.08522C31.1047 0.774611 31.034 0.385404 31.2461 0C31.3736 0.276375 31.4848 0.505843 31.5883 0.739114C31.9204 1.48203 31.9482 1.51246 32.5 0.964778C32.8902 0.576838 33.0733 0.617407 33.2387 1.11945C33.317 1.35525 33.447 1.57331 33.5544 1.80024C33.8233 1.85983 33.9711 2.04619 34.0645 2.2896C34.8764 2.55837 35.3979 2.97294 34.8752 3.91236C34.5658 4.42074 34.8714 4.69965 35.2578 4.9494C35.2363 5.38171 35.1378 5.83431 35.624 6.11322C35.6808 6.14618 35.653 6.26535 35.6076 6.34015V6.34395Z" fill="#AD4A54"/>
<path d="M10.2243 38.0308C13.0528 37.4273 15.8787 37.1433 18.7716 37.6644C21.7832 38.207 24.7633 38.9005 27.7698 39.4697C29.0856 39.7194 30.3104 39.3936 31.5567 39.1946C35.4043 38.5835 39.2429 37.9179 43.0842 37.2752C43.1662 37.2612 43.2571 37.2485 43.3342 37.2714C45.4657 37.9116 47.6754 37.5528 49.8385 37.7962C52.0457 38.0447 54.2643 38.2235 56.392 38.9233C56.9779 39.116 57.584 39.3087 58.1358 39.9426C56.8996 39.7397 55.82 39.5673 54.7429 39.386C52.2831 38.9727 49.8359 38.4479 47.3623 38.1829C45.8962 38.0257 44.3784 38.1968 42.8998 38.3617C38.652 38.8345 34.4635 39.7093 30.2397 40.3419C29.2876 40.4852 28.3153 40.4941 27.3506 40.0377C25.7255 39.2706 23.9375 39.0513 22.176 38.7711C18.8777 38.2463 15.5555 38.425 12.2396 38.3933C11.6511 38.3883 11.0627 38.3807 10.4743 38.3743C10.3493 38.2894 10.151 38.2577 10.2281 38.0282L10.2243 38.0308Z" fill="#BD787F"/>
<path d="M0.627554 13.7085C0.627554 19.4033 0.63513 25.0969 0.612401 30.7918C0.609876 31.3939 0.76014 31.5828 1.37509 31.5689C3.18078 31.5283 4.98901 31.5347 6.7947 31.5664C7.33262 31.5765 7.46016 31.3952 7.45637 30.8818C7.43364 28.0977 7.44374 25.3137 7.44879 22.5297C7.44879 22.3319 7.38566 22.1227 7.57254 21.821C7.57254 25.1793 7.57254 28.4223 7.57254 31.6653C5.21503 31.7185 2.85879 31.7527 0.501281 31.6475C0.39395 31.4726 0.441933 31.2773 0.441933 31.0922C0.439408 25.4912 0.439408 19.8901 0.441933 14.2904C0.441933 14.1053 0.391424 13.91 0.503807 13.7364C0.545477 13.7275 0.585884 13.7173 0.627554 13.7085Z" fill="#2C2952"/>
<path d="M10.2243 38.0308C10.3063 38.1461 10.3884 38.2615 10.4705 38.3769C7.81498 38.4326 5.25039 39.0881 2.6618 39.5825C1.92311 39.7232 1.17431 39.8158 0.426781 39.9096C0.292932 39.9261 0.0744805 40.0998 0.0113442 39.8247C-0.0530548 39.5432 0.169185 39.5496 0.363644 39.5191C1.58217 39.3264 2.79818 39.1172 4.01671 38.9271C5.98024 38.6203 7.94505 38.3236 9.91111 38.0257C10.0134 38.0105 10.1195 38.0282 10.2243 38.0308Z" fill="#B2818A"/>
<path d="M13.621 31.4244C13.8281 31.5486 14.0554 31.555 14.289 31.555C16.3447 31.5524 18.4004 31.5372 20.4549 31.5651C20.9637 31.5727 21.0887 31.4079 21.0862 30.9185C21.0685 27.1494 21.0749 23.3816 21.0812 19.6125C21.0812 19.3704 20.9915 19.1041 21.1872 18.8861C21.1973 21.414 21.2087 23.942 21.2163 26.4699C21.2201 28.0508 21.2062 29.6305 21.2251 31.2114C21.2289 31.5765 21.1696 31.721 20.7554 31.7172C18.5305 31.6944 16.3055 31.7096 14.0794 31.6982C13.9064 31.6982 13.5553 31.877 13.621 31.4244Z" fill="#2D2C55"/>
<path d="M50.9673 18.7656C51.2287 18.9533 51.1138 19.2309 51.1151 19.4667C51.1227 23.2624 51.1315 27.0582 51.1075 30.8539C51.1037 31.4041 51.2401 31.5778 51.8058 31.5664C53.6746 31.5296 55.5447 31.5499 57.4148 31.5562C57.6345 31.5562 57.882 31.47 58.0664 31.6805C55.8415 31.6893 53.6165 31.6805 51.3916 31.7185C50.8903 31.7261 50.985 31.4396 50.985 31.1581C50.985 27.2369 50.985 23.3169 50.9825 19.3957C50.9825 19.1853 50.9724 18.9748 50.9673 18.7644V18.7656Z" fill="#302D58"/>
<path d="M0.50507 13.7364C0.50507 19.7076 0.503807 25.6775 0.502544 31.6488C0.377534 31.5271 0.433094 31.3699 0.433094 31.2304C0.429306 25.5596 0.429306 19.8889 0.433094 14.2181C0.433094 14.0571 0.371221 13.8796 0.50507 13.7364Z" fill="#383677"/>
<path d="M3.24771 43.2046C2.92445 43.77 3.14164 44.3646 3.07471 44.9389C3.05956 45.0745 3.13911 45.2622 2.96233 45.3217C2.7805 45.3826 2.72368 45.1962 2.6517 45.0758C2.40673 44.665 2.16808 44.2492 1.8524 43.7053C1.8183 44.3468 1.67309 44.8476 2.04686 45.3395H1.38266C1.63016 44.6384 1.60743 43.9551 1.4357 43.2502C1.61164 43.2046 2.06285 43.6669 2.78934 44.6371C2.71105 44.1123 3.00274 43.6343 2.47366 43.2046H3.24771Z" fill="#413D5F"/>
<path d="M34.514 43.912C34.6984 43.5367 34.5166 43.2375 34.0898 43.1944C33.7185 43.1564 33.3397 43.1868 32.9887 43.1868C33.2905 43.9272 33.2652 44.6194 33 45.3395C33.2059 45.356 33.4395 45.3991 33.7261 45.2888C33.394 45.0187 33.4129 44.7056 33.5152 44.414C33.5683 44.2644 33.7817 44.3278 33.9193 44.3418C34.3044 44.3836 34.2211 44.6967 34.2085 44.9287C34.187 45.3053 34.3133 45.4447 34.6087 45.3433C34.6062 44.8134 34.2615 44.4254 34.514 43.912ZM33.74 44.1059C33.394 44.1212 33.471 43.8739 33.4609 43.6407C33.4243 43.3592 33.6251 43.3491 33.8549 43.3592C34.0936 43.3719 34.2867 43.4759 34.2779 43.7193C34.2678 44.0375 34.0102 44.0945 33.74 44.1059Z" fill="#43415F"/>
<path d="M51.4106 45.2951C50.9194 45.4232 50.658 45.4396 50.8562 44.8691C50.9484 44.6029 50.9181 44.2657 50.7186 43.9842C51.3436 43.893 51.9232 44.092 52.5117 43.9525C52.8349 43.8752 52.9094 44.1896 52.9309 44.452C52.9536 44.7322 52.8602 45.0352 53.0925 45.3002C52.8122 45.3091 52.3235 45.6019 52.6379 44.8844C52.6846 44.7791 52.6405 44.6346 52.6455 44.5091C52.6518 44.3532 52.6354 44.1731 52.4675 44.1529C52.2705 44.13 52.0874 44.2631 52.0495 44.4609C51.9939 44.7563 51.9422 45.072 52.2844 45.3078C52.0129 45.3712 51.8298 45.3877 51.5873 45.3002C51.7755 45.0593 51.8247 44.7931 51.7868 44.5116C51.7641 44.3481 51.7616 44.1402 51.5305 44.1617C51.3411 44.1795 51.1681 44.2796 51.1631 44.518C51.158 44.7804 51.0999 45.0555 51.4106 45.2951Z" fill="#494662"/>
<path d="M25.3808 9.49691C25.4994 9.58439 25.632 9.69469 25.7747 9.59834C26.3316 9.22054 26.4263 9.5996 26.4995 10.0281C26.5601 10.3806 26.6776 10.7102 26.9036 10.9942C26.5462 10.9181 26.2558 11.4341 25.9351 11.1818C25.6586 10.9637 25.7596 10.5187 25.6219 10.1942C25.526 9.96853 25.4603 9.73019 25.382 9.49818L25.3808 9.49691Z" fill="#D7AAAD"/>
<path d="M26.3707 1.13339C26.8581 1.85476 26.8581 1.85729 26.0348 2.12353C25.8214 2.19199 25.5992 2.23509 25.382 2.29087C25.2292 1.98661 24.8302 1.92068 24.6711 1.56317C25.2532 1.41104 25.7873 1.18157 26.3695 1.13339H26.3707Z" fill="#CE979D"/>
<path d="M55.7278 45.3534C55.3932 44.9528 55.4298 44.3671 55.0169 43.9956C55.2753 43.9652 55.511 44.2382 55.724 44.8146C55.9463 44.6473 56.0751 44.3747 55.9917 44.1871C55.8377 43.8422 56.0814 43.9462 56.2039 43.9462C56.3364 43.9462 56.6117 43.8321 56.4147 44.1998C56.3415 44.3379 56.5259 44.6143 56.5839 44.7956C57.1092 44.7589 56.5019 43.8004 57.3593 43.9779C56.9943 44.4039 56.9665 44.9389 56.661 45.3648C56.3718 45.1823 56.4135 44.8349 56.2165 44.6257C55.945 44.7842 56.0347 45.1823 55.7303 45.3522L55.7278 45.3534Z" fill="#444062"/>
<path d="M38.6709 43.2375C38.947 43.2231 39.1099 43.6221 39.1596 44.4343C39.5776 44.5002 39.4778 43.5164 40.1066 44.0185C39.9943 44.2746 39.5409 44.3468 39.5536 44.6435C39.5649 44.9199 39.9488 45.0238 40.1294 45.2584C39.9122 45.3124 39.5809 45.1383 39.1356 44.736C39.2594 45.2127 39.2467 45.555 38.6596 45.3027C38.9576 44.8514 38.9639 43.6736 38.6697 43.2388L38.6709 43.2375Z" fill="#4E4A69"/>
<path d="M5.15695 43.9614C4.77182 43.9716 4.42204 43.964 4.07984 43.9551C3.63789 43.9437 3.475 44.3164 3.49015 44.6917C3.5053 45.0378 3.67198 45.3585 4.095 45.361C4.43719 45.3623 4.77939 45.3192 5.14432 45.2951C4.77055 44.8476 4.76424 44.4305 5.15695 43.9614ZM4.22253 45.1354C3.8917 45.1595 3.76795 44.9693 3.75785 44.6853C3.74648 44.3785 3.88033 44.1212 4.2099 44.1338C4.4776 44.144 4.64428 44.3532 4.66954 44.6447C4.64554 44.9224 4.53821 45.1126 4.22253 45.1354Z" fill="#424058"/>
<path d="M42.9326 45.2862C42.718 45.4003 42.5361 45.3648 42.2899 45.3268C42.3783 45.0783 42.4932 44.84 42.449 44.5801C42.42 44.4127 42.521 44.1376 42.2242 44.1655C42.0348 44.1833 41.8075 44.2847 41.8088 44.5573C41.8101 44.8159 41.7053 45.1062 42.1081 45.266C41.4603 45.3915 41.4792 45.3927 41.5209 44.8882C41.5449 44.5928 41.6156 44.2708 41.2936 43.969C41.7002 43.9551 42.031 44.0045 42.3644 43.9538C42.6409 43.9107 42.7521 44.1364 42.7584 44.4051C42.7647 44.7094 42.7028 45.0251 42.9326 45.2875V45.2862Z" fill="#494661"/>
<path d="M45.8495 45.3103C46.1147 44.6169 46.116 43.9196 45.8382 43.1843C46.2511 43.1843 46.6678 43.1919 47.0845 43.1817C47.5302 43.1703 47.4835 43.4099 47.337 43.8308C47.1779 43.2603 46.7953 43.3174 46.4619 43.3846C46.1841 43.4404 46.2687 44.0185 46.5642 44.0679C46.7233 44.0945 46.8963 44.0387 47.0504 44.1452C46.9443 44.5598 46.3938 44.0831 46.3243 44.5116C46.2788 44.7905 46.2485 45.0897 46.7486 45.3078H45.8495V45.3103Z" fill="#423E5B"/>
<path d="M9.76589 45.3116C9.47926 45.3725 9.29742 45.3927 9.10802 45.3091C9.27975 44.8653 9.31889 44.4229 9.09539 43.9678C9.41359 43.8815 9.69518 44.0603 10.0109 43.9563C10.3303 43.8511 10.4806 44.1237 10.4781 44.4508C10.4755 44.736 10.4175 45.0352 10.646 45.2774C10.4301 45.4308 10.2255 45.3167 9.84545 45.4041C10.2344 45.0948 10.1965 44.8146 10.1965 44.5421C10.1965 44.3696 10.199 44.1579 9.9894 44.1529C9.7861 44.1478 9.57648 44.2492 9.56007 44.5129C9.54365 44.7817 9.52219 45.0542 9.76463 45.3116H9.76589Z" fill="#494764"/>
<path d="M29.0805 45.3002C28.8293 45.3788 28.626 45.3686 28.3507 45.304C28.6499 45.0973 28.6462 44.821 28.6335 44.5357C28.6247 44.3379 28.6222 44.111 28.3595 44.1452C28.1638 44.1706 27.9554 44.2708 27.9693 44.5522C27.9807 44.7981 27.9251 45.0542 28.1625 45.2495C27.5956 45.4003 27.6208 45.4016 27.6612 44.8882C27.684 44.5991 27.7938 44.2619 27.4794 43.9918C27.9087 44.1148 28.3835 43.7586 28.751 44.0768C29.1058 44.3836 28.7207 44.9401 29.0805 45.3002Z" fill="#3A3755"/>
<path d="M53.6367 44.7512C53.8741 44.7512 54.0661 44.7766 54.2479 44.7436C54.4373 44.7107 54.7669 44.916 54.7833 44.5357C54.7959 44.2378 54.5863 44.0197 54.2959 43.9538C53.9108 43.8663 53.5837 43.9716 53.4145 44.3646C53.2617 44.7195 53.3261 45.0555 53.6557 45.2482C54.0484 45.4764 54.4436 45.4561 54.7719 44.9997C54.3767 44.9503 53.8981 45.4485 53.6367 44.7512ZM54.5446 44.4533C54.234 44.5433 53.9676 44.5167 53.6266 44.4736C53.9322 44.1837 54.2382 44.1769 54.5446 44.4533Z" fill="#4D4A65"/>
<path d="M36.5874 43.9475C36.1947 43.9982 35.8424 43.9424 35.4964 43.95C35.0861 43.9601 34.9371 44.2948 34.9421 44.6625C34.9459 45.0314 35.0999 45.3408 35.5154 45.361C35.8614 45.3788 36.2099 45.3293 36.5887 45.3078C36.2263 44.8451 36.2642 44.4242 36.5887 43.9475H36.5874ZM35.6214 45.1328C35.2767 45.1328 35.1984 44.9084 35.201 44.6422C35.2022 44.3658 35.3449 44.1744 35.6379 44.1199C35.9005 44.1883 36.0937 44.3202 36.095 44.6232C36.0962 44.9376 35.9738 45.1328 35.6214 45.1328Z" fill="#4A4764"/>
<path d="M50.4206 43.964C50.0708 43.9361 49.7349 43.969 49.4066 43.9563C48.9811 43.9399 48.8157 44.272 48.8283 44.684C48.8397 45.1011 49.024 45.3648 49.4634 45.3674C49.7791 45.3674 50.0935 45.3344 50.4244 45.3154C50.1529 44.8565 50.1466 44.4292 50.4206 43.964ZM49.5367 45.1341C49.2223 45.1442 49.0808 44.9832 49.0947 44.7031C49.0745 44.3557 49.2096 44.1186 49.5367 44.1288C49.8145 44.1389 49.961 44.3443 49.961 44.6447C49.961 44.9452 49.8549 45.124 49.5367 45.1341Z" fill="#47445D"/>
<path d="M61.9051 45.285C61.2358 45.6666 61.3343 44.8362 60.9631 44.7436C60.6891 44.9794 61.1007 45.11 61.0489 45.3319C60.8671 45.3319 60.6903 45.3319 60.5123 45.3319C60.7446 44.6308 60.732 43.9335 60.53 43.2388C60.7404 43.2413 60.8684 43.6622 60.9138 44.5015C61.3204 44.4875 61.2939 43.5836 61.8849 44.0058C61.4589 44.436 61.4656 44.8624 61.9051 45.285Z" fill="#403C58"/>
<path d="M16.476 45.337C16.6174 45.0821 16.6983 44.8425 16.6566 44.5801C16.6288 44.4051 16.7109 44.1452 16.4318 44.1541C16.231 44.1617 16.024 44.2822 16.0164 44.5433C16.0075 44.8045 15.9406 45.0897 16.3283 45.2672C16.0151 45.4029 15.7866 45.3648 15.5441 45.3243C15.7967 44.8679 15.8573 44.4368 15.5227 43.9779C15.8712 43.9259 16.202 44.0159 16.5379 43.9551C16.8536 43.8968 16.9331 44.1757 16.9306 44.4622C16.9268 44.7411 16.8447 45.0441 17.245 45.337H16.476Z" fill="#484562"/>
<path d="M37.7453 45.3243C37.7378 45.0973 38.0105 45.1341 37.9701 44.9325C37.9183 44.6752 38.08 44.3696 37.8161 44.1643C37.6974 44.0717 37.5724 44.1833 37.4739 44.2441C37.1746 44.4292 37.3148 44.7335 37.3021 44.9921C37.2958 45.1126 37.5181 45.1404 37.4499 45.3167C37.2365 45.375 37.0168 45.3915 36.792 45.3065C37.0938 44.8691 37.1784 44.4406 36.7705 43.9792C37.1456 43.8853 37.5029 44.0223 37.864 43.9678C38.1696 43.9208 38.21 44.2657 38.2201 44.5268C38.2315 44.7905 38.1557 45.0745 38.4499 45.2736C38.1987 45.4067 37.9815 45.3648 37.7466 45.323L37.7453 45.3243Z" fill="#423F5A"/>
<path d="M30.9898 43.9196C30.5743 43.9817 30.2877 44.0007 29.9821 43.9513C29.544 43.8803 29.3217 44.2099 29.3015 44.6004C29.28 45.0149 29.4644 45.3889 29.943 45.3522C30.2662 45.3268 30.5983 45.3598 30.9481 45.3141C30.5807 44.8552 30.5604 44.433 30.9898 43.9196ZM30.0112 45.1354C29.6387 45.1354 29.5553 44.9072 29.5566 44.6371C29.5591 44.3557 29.7056 44.1224 29.9973 44.1351C30.3003 44.1478 30.4872 44.3646 30.4645 44.6866C30.4443 44.9756 30.289 45.1493 30.0112 45.1354Z" fill="#45425A"/>
<path d="M17.4774 44.8108C17.7741 45.1202 18.0481 45.2191 18.3941 45.0568C18.3676 44.7652 18.139 44.7931 17.9433 44.7715C17.6743 44.7424 17.442 44.6562 17.4205 44.3379C17.4079 44.1503 17.5203 44.0071 17.6983 43.9652C17.9824 43.898 18.2691 43.9361 18.5418 44.0324C18.5683 44.0413 18.5595 44.1909 18.5431 44.2708C18.5191 44.3874 18.4219 44.3696 18.3474 44.3341C18.2186 44.2733 18.1024 44.1782 17.9698 44.1326C17.8688 44.0983 17.7564 44.1503 17.7147 44.2619C17.6642 44.395 17.7577 44.4457 17.8663 44.4749C17.966 44.5015 18.0658 44.5307 18.1668 44.5522C18.4509 44.6118 18.7502 44.7069 18.6214 45.0707C18.4547 45.5436 18.038 45.3217 17.7034 45.3344C17.2955 45.3496 17.3953 45.124 17.4786 44.8096L17.4774 44.8108Z" fill="#4D4A62"/>
<path d="M22.7379 44.04C23.3932 43.7852 23.3276 44.1643 23.3313 44.4787C23.3351 44.7589 23.248 45.0669 23.6609 45.2964C23.195 45.3255 22.8338 45.3661 22.4714 45.3648C22.176 45.3648 22.1166 45.1379 22.085 44.8869C22.0522 44.6283 22.2037 44.3405 21.9613 44.1123C21.8754 44.0324 21.912 43.9576 22.0194 43.9487C22.1558 43.9373 22.3338 43.8854 22.3489 44.1136C22.3616 44.3025 22.3527 44.4914 22.3527 44.6815C22.3527 44.892 22.3199 45.1366 22.6406 45.1227C22.9273 45.11 23.1142 44.9794 23.0902 44.6511C23.0725 44.4115 23.1748 44.1338 22.7379 44.04Z" fill="#4B4861"/>
<path d="M12.5641 43.9285C12.1575 43.9678 11.8696 43.9969 11.5665 43.9551C11.088 43.8879 10.8885 44.2631 10.891 44.6638C10.891 45.0276 11.064 45.3686 11.5223 45.3648C11.8456 45.361 12.1689 45.3281 12.5123 45.3065C12.1764 44.8501 12.1739 44.4305 12.5641 43.9285ZM11.583 45.143C11.237 45.143 11.1448 44.9173 11.141 44.6549C11.136 44.3772 11.3001 44.1364 11.583 44.1338C11.8948 44.1313 12.0464 44.376 12.0767 44.6815C12.0287 44.9655 11.9037 45.1404 11.583 45.143Z" fill="#413F57"/>
<path d="M38.3666 31.6805C38.4676 31.5385 38.6192 31.5537 38.7644 31.5537C40.9981 31.5537 43.2319 31.5537 45.4656 31.5524C45.5919 31.5524 45.7169 31.5512 45.8129 31.6551C44.3545 31.7717 42.8947 31.683 41.435 31.7008C40.4122 31.7134 39.3894 31.6881 38.3666 31.6805Z" fill="#2B2952"/>
<path d="M26.4882 43.9361C26.0311 43.9449 25.7823 44.1934 25.7735 44.6359C25.7634 45.1126 26.0184 45.3712 26.6359 45.3775C26.9831 45.3686 27.2698 45.1366 27.2559 44.6524C27.2433 44.1833 26.9743 43.9272 26.4882 43.9361ZM26.5766 45.1354C26.247 45.1658 26.0399 45.0073 26.0197 44.6955C26.0007 44.4026 26.1611 44.1592 26.4755 44.1275C26.8064 44.0945 26.9377 44.3392 27.0109 44.627C26.9756 44.8894 26.8922 45.1049 26.5766 45.1354Z" fill="#49455F"/>
<path d="M27.641 11.2807C27.8961 10.6789 28.3562 10.5973 29.0212 11.036C28.9151 11.0284 28.8015 11.0322 28.7535 11.1425C28.458 11.8169 28.0527 11.571 27.641 11.2807Z" fill="#D1959C"/>
<path d="M30.1374 0.403153C29.7637 0.91787 29.3108 0.993937 28.7787 0.631353C28.8861 0.618675 28.9783 0.578106 29.0275 0.475416C29.3558 -0.206648 29.7384 -0.0101422 30.1374 0.403153Z" fill="#C18186"/>
<path d="M35.6076 6.34395C35.5962 6.30338 35.5962 6.23873 35.5709 6.22732C34.9497 5.94207 34.9105 5.49201 35.2022 4.94433C35.2376 4.90883 35.2767 4.9063 35.3184 4.93419C35.3525 4.98617 35.3765 5.05209 35.4245 5.08759C35.858 5.41129 35.919 5.83008 35.6076 6.34395Z" fill="#D6A0A4"/>
<path d="M23.4589 5.31579C23.4905 5.36777 23.5107 5.43623 23.5548 5.47172C23.9892 5.81233 24.0448 6.22521 23.7215 6.71034C23.7013 6.65202 23.695 6.55187 23.6584 6.53919C22.8414 6.25141 23.0346 5.80388 23.4589 5.31579Z" fill="#D7A8AC"/>
<path d="M21.6721 45.3002C21.465 45.4092 21.21 45.4219 21.191 45.2736C21.1317 44.7931 20.9473 44.3126 21.0925 43.8207C21.1317 43.6876 21.0635 43.3732 21.3085 43.4923C21.4903 43.5798 21.6557 43.8828 21.5509 44.1338C21.3779 44.5433 21.3792 44.9084 21.6721 45.3002Z" fill="#5F5C79"/>
<path d="M35.3184 4.93419C35.2792 4.93799 35.2414 4.94053 35.2022 4.94433C34.3423 4.64894 34.3221 4.58682 34.8752 3.91616C35.4282 4.14521 35.576 4.48455 35.3184 4.93419Z" fill="#BF767E"/>
<path d="M28.5237 0.379065C28.5047 0.386672 28.4744 0.389207 28.4681 0.403153C28.1587 1.07507 27.6814 1.05986 27.1271 0.736578C27.1789 0.674457 27.2433 0.618675 27.2799 0.547679C27.6158 -0.107761 28.0489 -0.0152133 28.5237 0.379065Z" fill="#E0B1B4"/>
<path d="M13.544 45.2888C13.2535 45.3763 13.0528 45.3775 12.8482 45.3217C13.126 44.7221 12.9505 44.0983 12.9997 43.4923C13.0086 43.3782 12.6436 43.2933 12.9656 43.1957C13.2056 43.1222 13.2864 43.2781 13.2775 43.5164C13.2624 43.9145 13.2902 44.3164 13.2662 44.7132C13.2523 44.9389 13.3268 45.1037 13.5452 45.2888H13.544Z" fill="#403D55"/>
<path d="M59.1902 44.002C59.5741 43.8182 59.8872 44.2479 60.2458 43.9335C59.6902 44.3468 59.5614 44.7791 59.9933 45.3408H59.2155C59.4958 44.8818 59.6486 44.4508 59.1902 44.002Z" fill="#535168"/>
<path d="M5.73528 43.3858C5.89059 43.7827 6.08758 44.0502 5.86281 44.4216C5.76937 44.575 5.77189 44.8793 5.92595 45.0821C5.99919 45.1785 6.14945 45.2685 5.95752 45.3547C5.82745 45.413 5.59638 45.3864 5.61153 45.2064C5.65951 44.6321 5.26428 44.0299 5.73654 43.3858H5.73528Z" fill="#535069"/>
<path d="M58.723 45.2571C58.6977 45.271 58.675 45.2786 58.6548 45.2799C58.5891 45.2875 58.5475 45.2381 58.5134 45.1683C58.5096 45.1544 58.5083 45.1392 58.5071 45.1252C58.5045 45.1075 58.5045 45.091 58.5045 45.0745C58.5273 45.0872 58.55 45.1024 58.5715 45.1176C58.8568 44.7855 58.9301 44.4254 58.5096 44.1858C58.1182 43.9614 57.9174 44.2657 57.7861 44.6004C57.8088 44.6207 57.8315 44.6397 57.8542 44.6574C57.8366 44.6739 57.8189 44.6879 57.7999 44.7005C57.7343 44.7449 57.6623 44.7677 57.5701 44.7272C57.4628 44.2872 57.7052 44.059 58.0803 43.9614C58.4237 43.8727 58.7697 43.9386 58.9414 44.2834C59.1195 44.6409 59.1309 45.0086 58.723 45.2571Z" fill="#403E53"/>
<path d="M24.1761 43.3009C24.1786 43.77 24.5032 43.9627 24.267 44.3633C24.1231 44.6067 24.1332 45.0441 24.5183 45.271C24.3238 45.4067 24.0801 45.4282 24.0663 45.2609C24.017 44.6714 23.7228 44.0628 24.1761 43.3022V43.3009Z" fill="#4F4C68"/>
<path d="M14.76 45.1037C14.7019 44.4825 14.9809 43.8232 14.5554 43.2274C14.7928 43.1576 15.0327 43.183 15.284 43.2172C14.8029 43.7991 15.1577 44.4723 15.0416 45.0859C15.0592 45.195 15.0315 45.2748 14.9064 45.2837C14.7789 45.2913 14.741 45.2203 14.76 45.1062V45.1037Z" fill="#38354E"/>
<path d="M31.4191 45.0986C31.38 44.4761 31.5807 43.8334 31.2676 43.2248C31.5176 43.1538 31.7121 43.1374 31.7007 43.5101C31.6843 44.0375 31.6956 44.5649 31.6956 45.0935C31.7171 45.2267 31.6552 45.2951 31.5264 45.2812C31.4267 45.2698 31.4002 45.1924 31.4178 45.0999L31.4191 45.0986Z" fill="#3A3551"/>
<path d="M19.2022 43.4074C19.7338 44.0476 19.1883 44.6346 19.2641 45.2152C19.1176 44.6435 18.8436 44.0793 19.2022 43.4074Z" fill="#514F6B"/>
<path d="M8.63954 44.5154C8.62187 44.5154 8.60419 44.5154 8.58777 44.5104C8.58146 44.5104 8.57514 44.5078 8.56883 44.5066C8.57514 44.4964 8.5802 44.4875 8.58651 44.4774C8.39584 44.201 8.16855 43.9551 7.83014 44.2327C7.51067 44.4952 7.58012 44.8121 7.82635 45.105C7.84782 45.0948 7.86928 45.0859 7.89075 45.0745C7.89201 45.0885 7.89201 45.1024 7.89075 45.1151C7.88948 45.1328 7.88696 45.1519 7.88191 45.1709C7.83898 45.252 7.78594 45.3078 7.69503 45.2647C7.68745 45.2609 7.67987 45.2571 7.6723 45.252C7.21266 44.9173 7.24928 44.4723 7.57885 44.1389C7.91853 43.7953 8.36048 43.8029 8.70773 44.2251C8.79865 44.3494 8.77466 44.4457 8.63954 44.5154Z" fill="#4B495F"/>
<path d="M20.619 45.3116C20.4094 45.4029 20.1884 45.3408 19.8765 45.337C20.3096 44.9959 20.1884 44.6016 20.1695 44.2289C20.1632 44.1148 19.8993 44.1617 20.0066 43.9893C20.0344 43.9449 20.1594 43.9437 20.2377 43.95C20.4018 43.9614 20.4182 44.0882 20.4208 44.22C20.4258 44.4901 20.4296 44.7601 20.4448 45.0302C20.4511 45.1493 20.6986 45.1176 20.6203 45.3116H20.619Z" fill="#353254"/>
<path d="M6.5169 43.9931C7.33136 44.1072 6.59014 44.9731 7.10912 45.252C6.87173 45.4029 6.66717 45.3293 6.4121 45.3331C6.7101 44.8945 6.82248 44.4647 6.51817 43.9931H6.5169Z" fill="#252240"/>
<path d="M48.1111 45.0872C48.1818 45.1214 48.2803 45.1366 48.3194 45.1924C48.3788 45.2786 48.3131 45.3547 48.2197 45.3598C48.034 45.3699 47.8471 45.3623 47.5731 45.3623C47.9393 44.8768 47.9785 44.4305 47.6312 43.9779C47.9583 43.7941 48.279 44.2441 48.6035 43.8118C48.5985 44.2315 48.4204 44.2213 48.2537 44.2289C47.952 44.4723 47.9684 44.7677 48.1111 45.0847V45.0872Z" fill="#615E75"/>
<path d="M40.4943 43.9842C41.2229 44.1681 40.5852 44.9592 41.0714 45.2786C40.8112 45.375 40.6117 45.3598 40.4084 45.3116C40.6698 44.8818 40.7456 44.4571 40.4943 43.9842Z" fill="#25223F"/>
<path d="M35.2136 7.7309C35.2919 7.44058 35.1075 7.11223 35.3399 6.84473C35.4712 7.08307 35.7364 6.91192 35.9384 7.05771C35.8058 7.39621 35.5507 7.60412 35.2148 7.73217L35.2136 7.7309Z" fill="#C8999F"/>
<path d="M8.685 45.1404C8.40594 45.4574 8.05238 45.4701 7.69503 45.2647C7.68745 45.2609 7.67987 45.2571 7.6723 45.252C7.72281 45.2038 7.77458 45.1544 7.82635 45.105C7.84782 45.0948 7.86928 45.0859 7.89075 45.0745C7.89201 45.0885 7.89201 45.1024 7.89075 45.1151C8.34659 45.1886 8.61555 45.0302 8.58777 44.5104C8.58146 44.5104 8.57514 44.5078 8.56883 44.5066C8.57514 44.4964 8.5802 44.4875 8.58651 44.4774C8.69131 44.4254 8.70268 44.3265 8.70773 44.2251C8.94386 44.537 8.92744 44.8653 8.685 45.1404Z" fill="#57556F"/>
<path d="M58.723 45.2571C58.7003 45.2647 58.6775 45.2736 58.6548 45.2799C57.9957 45.498 57.7406 45.3636 57.5701 44.7272C57.6421 44.6853 57.7141 44.6435 57.7861 44.6004C57.8088 44.6207 57.8315 44.6397 57.8542 44.6574C57.8366 44.6739 57.8189 44.6879 57.7999 44.7005C57.8694 45.0948 58.151 45.1658 58.5071 45.1252C58.5045 45.1075 58.5045 45.091 58.5045 45.0745C58.5273 45.0872 58.55 45.1024 58.5715 45.1176C58.622 45.1645 58.6725 45.2102 58.723 45.2571Z" fill="#5B5770"/>
<path d="M34.0658 2.29341C33.8498 2.17804 33.692 2.00182 33.5556 1.80405C33.7804 1.71911 34.0039 1.63416 34.2602 1.53655C34.3297 1.84335 34.0519 2.03478 34.0658 2.29468V2.29341Z" fill="#CEAEB3"/>
<path d="M24.8555 43.969C25.0726 43.9589 25.2797 43.9373 25.2494 44.2746C25.2254 44.5459 25.2507 44.8222 25.2545 45.0961C25.257 45.1519 25.2759 45.2203 25.2002 45.2368C25.0992 45.2584 25.079 45.1759 25.0588 45.1024C25.0373 44.7157 25.1358 44.3088 24.8555 43.9678V43.969Z" fill="#272244"/>
<path d="M24.8555 43.969C25.252 44.2771 25.0992 44.7081 25.1055 45.1024C25.0613 45.1442 25.0183 45.1443 24.9792 45.0961C25.079 44.7043 24.8959 44.3443 24.8567 43.969L24.8555 43.969Z" fill="#AFACC4"/>
<path d="M14.76 45.1037C14.866 45.2761 14.9582 45.2419 15.0416 45.0847C15.1539 45.1138 15.332 45.0948 15.308 45.266C15.284 45.4396 15.1047 45.3826 15.0012 45.3636C14.8395 45.3331 14.5996 45.5068 14.5302 45.2393C14.4973 45.1164 14.6653 45.124 14.76 45.1037Z" fill="#686776"/>
<path d="M24.9779 45.0973C25.0196 45.0999 25.0625 45.1011 25.1042 45.1037C25.1585 45.2089 25.2078 45.1937 25.2545 45.0986C25.3277 45.1265 25.4249 45.1341 25.4704 45.1861C25.5386 45.2634 25.4868 45.361 25.3934 45.3598C25.1964 45.3572 24.9577 45.465 24.8113 45.2875C24.7203 45.1759 24.8883 45.1366 24.9779 45.0986V45.0973Z" fill="#62606F"/>
<path d="M48.1111 45.0872C47.8737 44.7449 47.9216 44.4571 48.2537 44.2315C48.0858 44.4964 48.1212 44.7956 48.1111 45.0872Z" fill="#302C4A"/>
<path d="M31.4191 45.0986C31.5151 45.2596 31.6072 45.2507 31.6956 45.0935C31.8169 45.124 32.0012 45.2064 31.8686 45.3116C31.7007 45.4434 31.4002 45.4498 31.2373 45.3078C31.1059 45.1937 31.3017 45.1278 31.4191 45.0986Z" fill="#676475"/>
<path d="M57.7861 44.6004C57.8088 44.6207 57.8315 44.6397 57.8542 44.6574C57.8366 44.6739 57.8189 44.6879 57.7999 44.7005C57.7936 44.6688 57.7886 44.6359 57.7861 44.6004Z" fill="#F2F0F6"/>
<path d="M58.5715 45.1176C58.55 45.1202 58.5285 45.124 58.5071 45.1252C58.5045 45.1075 58.5045 45.091 58.5045 45.0745C58.5273 45.0872 58.55 45.1024 58.5715 45.1176Z" fill="#F2F0F6"/>
<path d="M7.82635 45.105C7.84782 45.0948 7.86928 45.0859 7.89075 45.0745C7.89201 45.0885 7.89201 45.1024 7.89075 45.1151C7.86928 45.1126 7.84782 45.1088 7.82635 45.105Z" fill="#F5F5FA"/>
<path d="M8.58777 44.5104C8.58777 44.5104 8.57514 44.5078 8.56883 44.5066C8.57514 44.4964 8.5802 44.4875 8.58651 44.4774C8.58651 44.4888 8.58651 44.5002 8.58651 44.5104L8.58777 44.5104Z" fill="#F5F5FA"/>
</svg>
