<svg width="86" height="63" viewBox="0 0 86 63" fill="none" xmlns="http://www.w3.org/2000/svg">
<path d="M86.0011 10.3295C85.9975 12.5573 85.9948 14.7861 85.9912 17.0139C85.7072 17.6992 85.4357 17.7763 84.7215 17.7082C83.2573 17.5693 81.7851 17.3929 80.3137 17.6688C79.5986 17.8031 79.2474 18.3236 78.9884 18.9274C78.6524 19.7121 78.6864 20.5586 78.6174 21.3855C78.5888 21.7303 78.7357 21.9588 79.1112 21.9883C80.1515 22.0699 81.1919 22.1442 82.2367 22.0806C82.4948 22.0654 82.8102 21.9265 82.9724 22.2221C83.1148 22.4828 83.0118 22.7596 82.8639 23.0221C82.4105 23.8247 82.174 24.7178 81.8352 25.5689C81.5521 26.2801 81.3057 27.0093 80.975 27.6982C80.8379 27.9839 80.8164 28.2903 80.6766 28.5716C80.4481 29.0311 80.0987 29.2282 79.6022 29.2103C78.7178 29.178 78.5511 29.3698 78.5529 30.2647C78.5637 35.1441 78.5538 40.0244 78.569 44.9039C78.5735 46.3649 78.5045 47.8269 78.6192 49.2861C78.6542 49.7304 78.3522 49.9938 77.845 49.992C76.4418 49.9866 75.0385 49.9786 73.6353 49.9768C72.172 49.975 70.7087 49.9804 69.2463 49.9813C68.7059 49.9813 68.5823 49.8603 68.5823 49.3291C68.5886 42.9268 68.5957 36.5254 68.6002 30.1231C68.6002 29.9458 68.5823 29.7666 68.5509 29.5919C68.5016 29.3214 68.3018 29.221 68.0554 29.2551C66.9774 29.4056 65.9003 29.6322 64.9227 30.0873C63.8716 30.5773 63.058 31.3961 62.5221 32.4612C61.9441 33.6105 61.6789 34.8476 61.6108 36.108C61.3769 40.4463 61.5087 44.7901 61.506 49.1312C61.506 49.8397 61.3958 49.975 60.6995 49.9759C57.7586 49.9777 54.8177 49.9813 51.8758 49.9849C51.2154 49.9849 51.1169 49.8756 51.1169 49.1983C51.1169 40.2 51.1169 31.2008 51.1133 22.2024C51.1133 21.4535 51.2441 21.3219 51.9923 21.3237C54.5605 21.329 57.1277 21.3299 59.6959 21.3254C59.9387 21.3254 60.169 21.3649 60.402 21.415C60.6762 21.4741 60.7685 21.6685 60.7479 21.9104C60.6359 23.221 60.7461 24.5342 60.6941 25.8448C60.6896 25.9639 60.6807 26.0848 60.6914 26.2031C60.7094 26.3975 60.5749 26.694 60.8411 26.7468C61.0875 26.7952 61.3008 26.5955 61.4307 26.3608C61.6251 26.0096 61.7873 25.6468 62.0311 25.318C62.5194 24.6605 63.1323 24.1831 63.8143 23.7343C64.5876 23.2263 65.4245 22.9262 66.2865 22.6647C66.7695 22.5178 67.2677 22.4156 67.766 22.3314C68.4443 22.2168 68.6101 22.043 68.6056 21.3344C68.6002 20.4395 68.602 19.5437 68.6862 18.6515C68.7839 17.615 68.9013 16.566 69.2176 15.586C69.5707 14.4914 70.102 13.4648 71.0788 12.7204C71.93 12.0718 72.7768 11.434 73.7697 11.0201C74.8181 10.583 75.905 10.2811 77.0403 10.1835C78.5708 10.0527 80.1022 9.92546 81.6408 9.98996C82.8765 10.0419 84.1041 10.1843 85.3335 10.3035C85.5549 10.325 85.7789 10.3205 86.0011 10.3277V10.3295Z" fill="#1D3459"/>
<path d="M0.0170254 49.9562C0.0107529 49.5397 0 49.1231 0 48.7066C0 39.7172 0 30.7278 0.00268823 21.7394C0.00268823 21.6211 0.0215058 21.5029 0.0313627 21.3855C0.193552 21.3748 0.354846 21.3551 0.517036 21.3533C3.05383 21.3327 5.59151 21.4016 8.12831 21.3165C8.47061 21.3049 8.65341 21.545 8.64445 21.9866C8.62294 23.0302 8.60054 24.0738 8.57903 25.1174C8.57903 25.1327 8.57634 25.147 8.57724 25.1622C8.59158 25.3476 8.52885 25.5752 8.77169 25.6567C9.00736 25.7355 9.12385 25.5555 9.23406 25.3924C10.0773 24.132 11.2287 23.1843 12.4555 22.3413C13.7575 21.4473 15.1894 20.8292 16.8014 20.7405C18.3068 20.6581 19.8257 20.5515 21.2935 20.9681C22.9154 21.4276 24.324 22.2983 25.3706 23.634C26.0256 24.4698 26.5221 25.4068 26.8482 26.4504C27.3787 28.1506 27.5355 29.8929 27.5481 31.6433C27.5884 37.209 27.566 42.7746 27.5696 48.3402C27.5696 48.6385 27.5723 48.9377 27.6045 49.2333C27.643 49.5943 27.4844 49.7923 27.1547 49.898C26.9647 49.9589 26.7739 49.9607 26.5794 49.9607C23.7281 49.9625 20.8768 49.9643 18.0255 49.967C17.4188 49.967 17.2522 49.8039 17.253 49.2047C17.2539 44.1165 17.2414 39.0283 17.2683 33.9402C17.2737 32.9342 16.9968 32.0008 16.7638 31.0512C16.6858 30.7332 16.3883 30.5245 16.1688 30.2817C15.1589 29.1656 13.8811 29.0876 12.5549 29.4227C10.8631 29.8499 10.088 31.1229 9.71974 32.7246C9.34966 34.3379 9.36041 35.9746 9.36399 37.6139C9.37206 41.4936 9.36937 45.3733 9.37116 49.2521C9.37116 49.7323 9.15431 49.9553 8.66147 49.9553C5.78059 49.9571 2.8997 49.9562 0.0188176 49.9571L0.0170254 49.9562Z" fill="#1D3459"/>
<path d="M32.4775 37.2536C32.4775 32.2703 32.4775 27.2869 32.4775 22.3036C32.4775 21.5269 32.68 21.3316 33.4407 21.4248C33.9031 21.4812 34.3646 21.4588 34.827 21.4597C38.3799 21.4615 41.932 21.4588 45.4849 21.4579C46.1767 21.4579 46.3075 21.5851 46.3075 22.2552C46.3048 31.4461 46.2994 40.6371 46.303 49.828C46.303 50.7811 46.2179 51.737 46.3514 52.6883C46.3693 52.8137 46.3828 52.9651 46.2143 53.0278C46.07 53.0815 45.9482 53.0305 45.8451 52.9346C45.6247 52.7295 45.4616 52.4805 45.3155 52.2189C44.6659 51.0534 43.9831 49.9149 43.1659 48.8489C42.397 47.8465 41.6766 46.8082 40.7859 45.9053C40.3369 45.4502 39.8844 44.9996 39.4301 44.5508C39.2787 44.4012 39.1246 44.4093 38.9579 44.5463C37.9301 45.3929 37.0457 46.3675 36.2132 47.4075C35.5035 48.2944 34.887 49.2439 34.3413 50.2213C33.9264 50.9648 33.4461 51.6841 33.1191 52.4796C33.068 52.6032 33.0133 52.7268 32.9479 52.8424C32.8959 52.9337 32.8216 53.0144 32.6997 53C32.5733 52.9848 32.5276 52.8692 32.507 52.777C32.4694 52.605 32.4551 52.424 32.4551 52.2476C32.4524 47.2499 32.4533 42.2513 32.4533 37.2536C32.4613 37.2536 32.4703 37.2536 32.4784 37.2536H32.4775Z" fill="#1D3459"/>
<path d="M41.4453 17.7673C40.9578 17.5819 40.5501 17.3096 40.1971 16.945C40.0304 16.773 39.8503 16.6046 39.5734 16.7228C39.3099 16.8357 39.4067 17.074 39.3843 17.2684C39.3539 17.5326 39.4497 17.8076 39.3297 18.0638C39.2625 18.2072 39.1854 18.3594 39.034 18.1149C38.7866 17.7163 38.4076 17.4135 38.2813 16.9217C38.1872 16.5562 37.8314 16.5965 37.5277 16.6153C37.2319 16.6341 37.2875 16.8626 37.2642 17.0462C37.2606 17.0758 37.2633 17.108 37.2517 17.1349C37.163 17.3436 37.1486 17.6751 36.878 17.6697C36.6226 17.6643 36.6154 17.3436 36.5868 17.1376C36.5465 16.8393 36.4837 16.5499 36.3717 16.2731C36.2561 15.9874 36.0097 15.8736 35.7274 15.8817C35.4523 15.8897 35.3762 16.128 35.3206 16.3475C35.2606 16.5831 35.2785 16.9477 34.955 16.9011C34.6692 16.8599 34.7884 16.506 34.7686 16.283C34.7391 15.9569 34.7265 15.6299 34.7131 15.3021C34.7032 15.0504 34.653 14.8067 34.3923 14.7162C34.0885 14.6105 33.8761 14.8139 33.7095 15.0253C33.5589 15.217 33.4747 15.5834 33.1978 15.4812C32.9308 15.3827 33.0867 15.0262 33.0939 14.7888C33.1046 14.4636 33.1853 14.142 33.2256 13.8177C33.2587 13.5544 33.222 13.3098 32.9577 13.1665C32.705 13.0294 32.5374 13.1665 32.3797 13.3474C32.2784 13.4639 32.136 13.5203 31.9863 13.5409C31.8286 13.5624 31.6933 13.5176 31.7802 13.3232C31.9532 12.9354 31.9406 12.4785 32.2892 12.1515C32.489 11.9643 32.5455 11.6696 32.4012 11.4062C32.2596 11.1482 32.0042 11.1814 31.7632 11.2298C31.5885 11.2656 31.4173 11.322 31.2417 11.3525C31.1288 11.3722 30.9872 11.4053 30.9164 11.2808C30.8456 11.1581 30.9406 11.0416 31.0168 10.9619C31.2229 10.7478 31.4397 10.5409 31.6682 10.3501C31.8743 10.1781 32.0007 9.97384 32.0428 9.71137C32.118 9.24466 31.9702 9.06819 31.5024 9.07177C31.3833 9.07267 31.2632 9.09327 31.1449 9.08252C30.963 9.0646 30.8402 8.95711 30.8089 8.77615C30.7811 8.61849 30.8214 8.46442 30.9827 8.40261C31.2811 8.28884 31.5042 8.06668 31.7632 7.89737C31.9827 7.75404 32.1494 7.61519 32.1001 7.33391C32.0473 7.02934 31.7408 7.06965 31.5517 6.9532C31.4101 6.86541 31.1315 7.05353 31.0965 6.73641C31.0669 6.47036 31.2802 6.42019 31.4487 6.29299C31.7282 6.08248 32.049 6.04037 32.36 5.97588C32.6091 5.92482 32.8224 5.82449 32.8519 5.59606C32.8833 5.35688 32.8125 5.09172 32.584 4.92779C32.463 4.84089 32.3232 4.78088 32.2068 4.6895C32.0956 4.60261 31.8788 4.5614 31.92 4.38672C31.9675 4.18785 32.1933 4.17979 32.3618 4.16277C32.7166 4.12694 33.0751 4.10544 33.4317 4.10365C33.6853 4.10275 33.8735 3.99615 33.9846 3.79101C34.0921 3.59215 33.8654 3.51242 33.7767 3.39238C33.627 3.18993 33.4487 3.00898 33.2919 2.81101C33.2166 2.71605 33.0302 2.65603 33.1234 2.49031C33.2113 2.33265 33.4057 2.33444 33.5267 2.38998C33.8421 2.5342 34.1934 2.53331 34.5061 2.66768C34.7973 2.79309 35.145 2.88088 35.326 2.60497C35.5133 2.31921 35.4846 1.94656 35.2014 1.66169C35.1181 1.57838 35.0294 1.49238 34.9756 1.39026C34.9102 1.26664 34.9129 1.13048 35.0204 1.01671C35.1315 0.900259 35.24 0.96834 35.3448 1.02478C35.6459 1.18781 35.9488 1.34906 36.2436 1.52195C36.5016 1.67334 36.7857 1.7871 37.0348 1.58734C37.2741 1.39564 37.292 1.11525 37.1477 0.819637C37.0707 0.661976 36.9022 0.439816 37.1173 0.295592C37.3431 0.144202 37.5492 0.343966 37.7006 0.489086C37.9569 0.735431 38.1486 1.04717 38.4865 1.20662C38.9641 1.43147 39.1594 1.31949 39.163 0.810679C39.163 0.721098 39.1415 0.625248 39.1648 0.542834C39.2194 0.354715 38.999 0.0349137 39.2087 0.00535219C39.4739 -0.0322715 39.7768 0.130765 39.9318 0.4219C40.0635 0.669142 40.1191 0.956695 40.3476 1.15288C40.5197 1.30068 40.6845 1.47357 40.9327 1.40818C41.206 1.33651 41.1792 1.0624 41.2374 0.859052C41.2858 0.68885 41.2894 0.50521 41.3252 0.330529C41.3431 0.244531 41.2912 0.0913492 41.4686 0.113744C41.5851 0.128077 41.6801 0.154951 41.732 0.303654C41.9041 0.793658 42.1111 1.27202 42.2903 1.76023C42.3611 1.95193 42.4435 2.16155 42.6541 2.16065C42.8781 2.16065 42.9946 1.95193 43.0654 1.74769C43.1039 1.63571 43.1353 1.52195 43.1702 1.40907C43.2437 1.17079 43.4677 1.1484 43.6425 1.15467C43.8459 1.16183 43.7867 1.37593 43.7975 1.51478C43.8307 1.94476 43.8593 2.37565 43.8898 2.80653C43.9086 3.07348 43.9722 3.31803 44.267 3.39955C44.5493 3.47748 44.6049 3.22218 44.7187 3.06004C44.8235 2.90954 44.9283 2.7492 45.1479 2.82982C45.3755 2.91313 45.3289 3.12275 45.3128 3.29116C45.2751 3.68889 45.1129 4.06423 45.147 4.47899C45.1927 5.03887 45.3181 5.13024 45.7931 4.87762C45.9633 4.78625 46.1336 4.69219 46.3092 4.61246C46.4122 4.56588 46.4965 4.39658 46.6139 4.48078C46.7519 4.57932 46.6864 4.7549 46.656 4.89554C46.5601 5.33359 46.2501 5.69011 46.1954 6.14966C46.173 6.33957 46.0493 6.55009 46.2232 6.69073C46.4203 6.84928 46.6739 6.80449 46.9051 6.72387C47.0019 6.68983 47.0888 6.61906 47.1865 6.59577C47.3029 6.568 47.4212 6.57338 47.4947 6.70775C47.5673 6.84033 47.5798 6.94603 47.4642 7.06786C47.2501 7.29539 47.0583 7.54353 46.8451 7.77286C46.7214 7.90633 46.6228 8.04787 46.5529 8.21717C46.3137 8.80124 46.4732 9.02071 47.0969 8.95531C47.2151 8.94277 47.3352 8.94457 47.4544 8.94725C47.6193 8.95084 47.7519 9.04579 47.7967 9.18464C47.8442 9.33155 47.7107 9.43278 47.5933 9.49548C47.2331 9.68808 47.0234 10.0795 46.5986 10.1996C46.4445 10.2435 46.259 10.4092 46.3146 10.6529C46.3657 10.8786 46.5556 10.9341 46.7402 10.9977C46.9983 11.0864 47.4535 11.0067 47.406 11.4035C47.3585 11.8031 46.9356 11.9357 46.5592 12.0046C46.4293 12.0288 46.2984 12.0288 46.1667 12.0718C45.7232 12.2169 45.6004 12.5296 45.871 12.9148C46.026 13.1351 46.2187 13.3259 46.4983 13.3913C46.6434 13.4254 46.751 13.4988 46.7277 13.6672C46.7044 13.8339 46.5601 13.8007 46.4481 13.8231C46.0198 13.9091 45.5852 13.8598 45.1542 13.8813C44.6022 13.9091 44.4516 14.1976 44.7303 14.6741C44.8352 14.8533 44.9391 15.0333 45.052 15.2071C45.1076 15.2931 45.2088 15.3603 45.1452 15.4803C45.0852 15.5941 44.9678 15.5663 44.8674 15.5771C44.4588 15.6237 44.164 15.2725 43.7599 15.2716C43.5188 15.2716 43.1658 15.0719 43.0708 15.311C42.9534 15.6075 42.8844 16.0107 43.2016 16.3054C43.362 16.4541 43.5251 16.6538 43.3378 16.8384C43.1487 17.0256 42.9346 16.8975 42.7527 16.7282C42.4623 16.4586 42.12 16.2821 41.7132 16.2678C41.1845 16.2489 41.0241 16.4899 41.2141 17.0005C41.3028 17.2406 41.5125 17.4457 41.439 17.7664L41.4453 17.7673Z" fill="#B13241"/>
<path d="M78.4817 60.2624C69.1052 57.721 56.8997 56.1748 43.7256 59.5001C42.2131 59.8817 40.7543 60.3108 39.3474 60.7784C37.8115 60.3565 36.2255 59.9722 34.5875 59.6335C21.7924 56.9909 10.043 58.0202 0.475634 60.1585C0.241758 60.2104 0.0195312 60.034 0.0195312 59.7939V55.7305C9.72672 53.6406 22.0424 52.7565 35.1081 56.6013C36.5705 57.0312 37.9827 57.5033 39.3447 58.0095C40.5293 57.4899 41.7588 57.0017 43.0348 56.5529C56.1748 51.9287 68.9349 53.2948 78.4826 55.7314V60.2624H78.4817Z" fill="#B13241"/>
<path d="M78.4817 62.7546C68.314 60.2517 56.087 59.097 43.0177 62.0648C41.7641 62.3497 40.541 62.6632 39.3474 63.0027C38.0248 62.665 36.669 62.3542 35.2801 62.0765C22.2458 59.4688 10.1631 60.4739 0.0195312 62.7546V61.3885C10.1873 59.4213 22.1938 58.7297 35.117 61.4216C36.5615 61.7226 37.971 62.0559 39.3447 62.4178C40.5544 62.0594 41.7937 61.7262 43.0643 61.4216C56.0521 58.3096 68.2495 59.1588 78.4817 61.3885V62.7546Z" fill="#B13241"/>
</svg>
