<svg width="31" height="31" viewBox="0 0 31 31" fill="none" xmlns="http://www.w3.org/2000/svg">
<path d="M12.7351 26.7764C13.2282 26.3917 13.6756 25.9444 14.5702 25.0498L26.0337 13.5862C24.4735 12.9369 22.6256 11.8702 20.878 10.1226C19.13 8.37462 18.0633 6.5264 17.414 4.96605L5.95018 16.4298L5.95012 16.4299C5.05558 17.3244 4.60826 17.7718 4.22359 18.2649C3.76981 18.8467 3.38076 19.4762 3.06333 20.1423C2.79424 20.7069 2.5942 21.307 2.19412 22.5073L0.0843951 28.8364C-0.112487 29.4271 0.0412373 30.0783 0.481478 30.5185C0.921719 30.9588 1.57291 31.1125 2.16355 30.9156L8.49273 28.8059C9.69295 28.4058 10.2931 28.2058 10.8577 27.9367C11.5238 27.6192 12.1533 27.2302 12.7351 26.7764Z" fill="white"/>
<path d="M29.2147 10.4052C31.5951 8.02489 31.5951 4.1656 29.2147 1.78526C26.8344 -0.595085 22.9751 -0.595085 20.5948 1.78526L19.2199 3.16017C19.2387 3.21702 19.2582 3.27466 19.2785 3.33305C19.7824 4.78562 20.7333 6.68981 22.522 8.47853C24.3107 10.2673 26.2149 11.2181 27.6675 11.7221C27.7256 11.7422 27.783 11.7617 27.8396 11.7804L29.2147 10.4052Z" fill="white"/>
</svg>
