<svg width="76" height="94" viewBox="0 0 76 94" fill="none" xmlns="http://www.w3.org/2000/svg">
<mask id="path-1-outside-1_44_139" maskUnits="userSpaceOnUse" x="-1" y="-1" width="79" height="96" fill="black">
<rect fill="white" x="-1" y="-1" width="79" height="96"/>
<path d="M0.045455 94V0.909088H38.5C45.4697 0.909088 51.4849 2.16666 56.5455 4.68182C61.6364 7.16666 65.5606 10.7424 68.3182 15.4091C71.0758 20.0455 72.4545 25.5455 72.4545 31.9091C72.4545 38.3636 71.0455 43.8485 68.2273 48.3636C65.4091 52.8485 61.4091 56.2727 56.2273 58.6364C51.0455 60.9697 44.9091 62.1364 37.8182 62.1364H13.5V44.4091H33.6364C37.0303 44.4091 39.8636 43.9697 42.1364 43.0909C44.4394 42.1818 46.1818 40.8182 47.3636 39C48.5455 37.1515 49.1364 34.7879 49.1364 31.9091C49.1364 29.0303 48.5455 26.6515 47.3636 24.7727C46.1818 22.8636 44.4394 21.4394 42.1364 20.5C39.8333 19.5303 37 19.0455 33.6364 19.0455H22.5455V94H0.045455ZM52.4545 51.4545L75.6364 94H51.0909L28.3636 51.4545H52.4545Z"/>
</mask>
<path d="M0.045455 94H-0.954545V95H0.045455V94ZM0.045455 0.909088V-0.0909119H-0.954545V0.909088H0.045455ZM56.5455 4.68182L56.1004 5.57734L56.1068 5.58048L56.5455 4.68182ZM68.3182 15.4091L67.4573 15.9178L67.4587 15.9203L68.3182 15.4091ZM68.2273 48.3636L69.074 48.8957L69.0756 48.8931L68.2273 48.3636ZM56.2273 58.6364L56.6379 59.5482L56.6423 59.5462L56.2273 58.6364ZM13.5 62.1364H12.5V63.1364H13.5V62.1364ZM13.5 44.4091V43.4091H12.5V44.4091H13.5ZM42.1364 43.0909L42.497 44.0236L42.5035 44.0211L42.1364 43.0909ZM47.3636 39L48.2021 39.545L48.2062 39.5387L47.3636 39ZM47.3636 24.7727L46.5134 25.2991L46.5172 25.3052L47.3636 24.7727ZM42.1364 20.5L41.7483 21.4217L41.7587 21.4259L42.1364 20.5ZM22.5455 19.0455V18.0455H21.5455V19.0455H22.5455ZM22.5455 94V95H23.5455V94H22.5455ZM52.4545 51.4545L53.3327 50.9761L53.0485 50.4545H52.4545V51.4545ZM75.6364 94V95H77.32L76.5145 93.5215L75.6364 94ZM51.0909 94L50.2089 94.4712L50.4914 95H51.0909V94ZM28.3636 51.4545V50.4545H26.6957L27.4816 51.9257L28.3636 51.4545ZM1.04545 94V0.909088H-0.954545V94H1.04545ZM0.045455 1.90909H38.5V-0.0909119H0.045455V1.90909ZM38.5 1.90909C45.3506 1.90909 51.2066 3.14506 56.1004 5.57731L56.9905 3.78632C51.7631 1.18826 45.5888 -0.0909119 38.5 -0.0909119V1.90909ZM56.1068 5.58048C61.0302 7.98356 64.8039 11.4275 67.4573 15.9178L69.1791 14.9004C66.3173 10.0573 62.2425 6.34977 56.9841 3.78315L56.1068 5.58048ZM67.4587 15.9203C70.109 20.3762 71.4545 25.6928 71.4545 31.9091H73.4545C73.4545 25.3981 72.0426 19.7147 69.1777 14.8979L67.4587 15.9203ZM71.4545 31.9091C71.4545 38.2164 70.0788 43.5086 67.379 47.8342L69.0756 48.8931C72.0121 44.1883 73.4545 38.5108 73.4545 31.9091H71.4545ZM67.3806 47.8316C64.6742 52.1385 60.8304 55.4376 55.8123 57.7265L56.6423 59.5462C61.9878 57.1079 66.144 53.5585 69.074 48.8957L67.3806 47.8316ZM55.8167 57.7245C50.7918 59.9872 44.8016 61.1364 37.8182 61.1364V63.1364C45.0166 63.1364 51.2992 61.9522 56.6379 59.5482L55.8167 57.7245ZM37.8182 61.1364H13.5V63.1364H37.8182V61.1364ZM14.5 62.1364V44.4091H12.5V62.1364H14.5ZM13.5 45.4091H33.6364V43.4091H13.5V45.4091ZM33.6364 45.4091C37.1087 45.4091 40.0737 44.9606 42.497 44.0236L41.7757 42.1582C39.6536 42.9788 36.9519 43.4091 33.6364 43.4091V45.4091ZM42.5035 44.0211C44.9714 43.0469 46.8914 41.5614 48.2021 39.545L46.5252 38.455C45.4722 40.075 43.9074 41.3167 41.7692 42.1608L42.5035 44.0211ZM48.2062 39.5387C49.5183 37.4863 50.1364 34.9203 50.1364 31.9091H48.1364C48.1364 34.6554 47.5726 36.8167 46.5211 38.4613L48.2062 39.5387ZM50.1364 31.9091C50.1364 28.8969 49.518 26.3195 48.2101 24.2403L46.5172 25.3052C47.5729 26.9836 48.1364 29.1637 48.1364 31.9091H50.1364ZM48.2139 24.2464C46.9088 22.1381 44.9907 20.5843 42.514 19.5741L41.7587 21.4259C43.888 22.2945 45.4548 23.5891 46.5134 25.2991L48.2139 24.2464ZM42.5244 19.5784C40.064 18.5424 37.0898 18.0455 33.6364 18.0455V20.0455C36.9102 20.0455 39.6027 20.5182 41.7483 21.4216L42.5244 19.5784ZM33.6364 18.0455H22.5455V20.0455H33.6364V18.0455ZM21.5455 19.0455V94H23.5455V19.0455H21.5455ZM22.5455 93H0.045455V95H22.5455V93ZM51.5764 51.933L74.7583 94.4785L76.5145 93.5215L53.3327 50.9761L51.5764 51.933ZM75.6364 93H51.0909V95H75.6364V93ZM51.9729 93.5288L29.2457 50.9834L27.4816 51.9257L50.2089 94.4712L51.9729 93.5288ZM28.3636 52.4545H52.4545V50.4545H28.3636V52.4545Z" fill="white" mask="url(#path-1-outside-1_44_139)"/>
</svg>
