<svg width="58" height="58" viewBox="0 0 58 58" fill="none" xmlns="http://www.w3.org/2000/svg">
<g filter="url(#filter0_b_828_2200)">
<path fill-rule="evenodd" clip-rule="evenodd" d="M58 29C58 45.0163 45.0163 58 29 58C12.9837 58 0 45.0163 0 29C0 12.9837 12.9837 0 29 0C45.0163 0 58 12.9837 58 29ZM31.988 18.762C31.1386 17.9127 29.7614 17.9127 28.912 18.762C28.0627 19.6114 28.0627 20.9886 28.912 21.838L36.0741 29L28.912 36.162C28.0627 37.0114 28.0627 38.3886 28.912 39.238C29.7614 40.0873 31.1386 40.0873 31.988 39.238L40.688 30.538C41.5373 29.6886 41.5373 28.3114 40.688 27.462L31.988 18.762ZM17.312 18.762C18.1614 17.9127 19.5386 17.9127 20.388 18.762L29.088 27.462C29.9373 28.3114 29.9373 29.6886 29.088 30.538L20.388 39.238C19.5386 40.0873 18.1614 40.0873 17.312 39.238C16.4627 38.3886 16.4627 37.0114 17.312 36.162L24.4741 29L17.312 21.838C16.4627 20.9886 16.4627 19.6114 17.312 18.762Z" fill="#1D3459" fill-opacity="0.47"/>
</g>
<defs>
<filter id="filter0_b_828_2200" x="-9.6" y="-9.6" width="77.2" height="77.2" filterUnits="userSpaceOnUse" color-interpolation-filters="sRGB">
<feFlood flood-opacity="0" result="BackgroundImageFix"/>
<feGaussianBlur in="BackgroundImageFix" stdDeviation="4.8"/>
<feComposite in2="SourceAlpha" operator="in" result="effect1_backgroundBlur_828_2200"/>
<feBlend mode="normal" in="SourceGraphic" in2="effect1_backgroundBlur_828_2200" result="shape"/>
</filter>
</defs>
</svg>
