<svg width="77" height="97" viewBox="0 0 77 97" fill="none" xmlns="http://www.w3.org/2000/svg">
<mask id="path-1-outside-1_42_110" maskUnits="userSpaceOnUse" x="-1" y="-1" width="79" height="99" fill="black">
<rect fill="white" x="-1" y="-1" width="79" height="99"/>
<path d="M53.3636 29.8182C53.0606 26.4848 51.7121 23.8939 49.3182 22.0455C46.9545 20.1667 43.5758 19.2273 39.1818 19.2273C36.2727 19.2273 33.8485 19.6061 31.9091 20.3636C29.9697 21.1212 28.5152 22.1667 27.5455 23.5C26.5758 24.803 26.0758 26.303 26.0455 28C25.9848 29.3939 26.2576 30.6212 26.8636 31.6818C27.5 32.7424 28.4091 33.6818 29.5909 34.5C30.803 35.2879 32.2576 35.9848 33.9545 36.5909C35.6515 37.197 37.5606 37.7273 39.6818 38.1818L47.6818 40C52.2879 41 56.3485 42.3333 59.8636 44C63.4091 45.6667 66.3788 47.6515 68.7727 49.9545C71.197 52.2576 73.0303 54.9091 74.2727 57.9091C75.5152 60.9091 76.1515 64.2727 76.1818 68C76.1515 73.8788 74.6667 78.9242 71.7273 83.1364C68.7879 87.3485 64.5606 90.5758 59.0455 92.8182C53.5606 95.0606 46.9394 96.1818 39.1818 96.1818C31.3939 96.1818 24.6061 95.0152 18.8182 92.6818C13.0303 90.3485 8.5303 86.803 5.31818 82.0455C2.10606 77.2879 0.454545 71.2727 0.363636 64H21.9091C22.0909 67 22.8939 69.5 24.3182 71.5C25.7424 73.5 27.697 75.0152 30.1818 76.0455C32.697 77.0758 35.6061 77.5909 38.9091 77.5909C41.9394 77.5909 44.5152 77.1818 46.6364 76.3636C48.7879 75.5455 50.4394 74.4091 51.5909 72.9545C52.7424 71.5 53.3333 69.8333 53.3636 67.9545C53.3333 66.197 52.7879 64.697 51.7273 63.4545C50.6667 62.1818 49.0303 61.0909 46.8182 60.1818C44.6364 59.2424 41.8485 58.3788 38.4545 57.5909L28.7273 55.3182C20.6667 53.4697 14.3182 50.4848 9.68182 46.3636C5.04545 42.2121 2.74242 36.6061 2.77273 29.5455C2.74242 23.7879 4.28788 18.7424 7.40909 14.4091C10.5303 10.0758 14.8485 6.69697 20.3636 4.27273C25.8788 1.84848 32.1667 0.63636 39.2273 0.63636C46.4394 0.63636 52.697 1.86363 58 4.31818C63.3333 6.74242 67.4697 10.1515 70.4091 14.5455C73.3485 18.9394 74.8485 24.0303 74.9091 29.8182H53.3636Z"/>
</mask>
<path d="M53.3636 29.8182L52.3677 29.9087L52.4504 30.8182H53.3636V29.8182ZM49.3182 22.0455L48.6959 22.8284L48.707 22.837L49.3182 22.0455ZM31.9091 20.3636L31.5452 19.4322H31.5452L31.9091 20.3636ZM27.5455 23.5L28.3477 24.097L28.3542 24.0882L27.5455 23.5ZM26.0455 28L27.0445 28.0434L27.0451 28.0307L27.0453 28.0179L26.0455 28ZM26.8636 31.6818L25.9954 32.178L26.0007 32.1872L26.0061 32.1963L26.8636 31.6818ZM29.5909 34.5L29.0217 35.3222L29.0337 35.3305L29.0459 35.3384L29.5909 34.5ZM33.9545 36.5909L34.2909 35.6492L33.9545 36.5909ZM39.6818 38.1818L39.9035 37.2066L39.8913 37.204L39.6818 38.1818ZM47.6818 40L47.4602 40.9752L47.4697 40.9772L47.6818 40ZM59.8636 44L59.4352 44.9036L59.4382 44.905L59.8636 44ZM68.7727 49.9545L68.0794 50.6752L68.084 50.6795L68.7727 49.9545ZM74.2727 57.9091L73.3488 58.2917L74.2727 57.9091ZM76.1818 68L77.1819 68.0052L77.1818 67.9919L76.1818 68ZM71.7273 83.1364L70.9072 82.5641L71.7273 83.1364ZM59.0455 92.8182L58.6688 91.8918L58.667 91.8926L59.0455 92.8182ZM18.8182 92.6818L19.1921 91.7543L18.8182 92.6818ZM0.363636 64V63H-0.648942L-0.636285 64.0125L0.363636 64ZM21.9091 64L22.9073 63.9395L22.8503 63H21.9091V64ZM24.3182 71.5L23.5036 72.0801H23.5036L24.3182 71.5ZM30.1818 76.0455L29.7988 76.9692L29.8028 76.9708L30.1818 76.0455ZM46.6364 76.3636L46.2809 75.4289L46.2765 75.4306L46.6364 76.3636ZM51.5909 72.9545L50.8069 72.3338L51.5909 72.9545ZM53.3636 67.9545L54.3635 67.9707L54.3638 67.954L54.3635 67.9373L53.3636 67.9545ZM51.7273 63.4545L50.959 64.0948L50.9667 64.1038L51.7273 63.4545ZM46.8182 60.1818L46.4227 61.1003L46.4304 61.1036L46.4381 61.1068L46.8182 60.1818ZM38.4545 57.5909L38.227 58.5647L38.2284 58.565L38.4545 57.5909ZM28.7273 55.3182L28.9548 54.3444L28.9508 54.3435L28.7273 55.3182ZM9.68182 46.3636L9.01474 47.1086L9.01746 47.111L9.68182 46.3636ZM2.77273 29.5455L3.77276 29.5497L3.77271 29.5402L2.77273 29.5455ZM7.40909 14.4091L6.59766 13.8246L7.40909 14.4091ZM20.3636 4.27273L20.766 5.18819V5.18819L20.3636 4.27273ZM58 4.31818L57.5799 5.2257L57.5862 5.22854L58 4.31818ZM70.4091 14.5455L71.2403 13.9894L70.4091 14.5455ZM74.9091 29.8182V30.8182H75.9196L75.909 29.8077L74.9091 29.8182ZM54.3595 29.7276C54.0343 26.1501 52.5682 23.2915 49.9293 21.2539L48.707 22.837C50.856 24.4963 52.0869 26.8196 52.3677 29.9087L54.3595 29.7276ZM49.9404 21.2626C47.3351 19.1917 43.7021 18.2273 39.1818 18.2273V20.2273C43.4494 20.2273 46.574 21.1416 48.6959 22.8283L49.9404 21.2626ZM39.1818 18.2273C36.1941 18.2273 33.6368 18.6152 31.5452 19.4322L32.2729 21.2951C34.0602 20.5969 36.3514 20.2273 39.1818 20.2273V18.2273ZM31.5452 19.4322C29.4743 20.2411 27.845 21.3879 26.7367 22.9118L28.3542 24.0882C29.1853 22.9454 30.4651 22.0013 32.2729 21.2951L31.5452 19.4322ZM26.7432 22.903C25.6429 24.3815 25.0795 26.0862 25.0456 27.9821L27.0453 28.0179C27.072 26.5198 27.5086 25.2245 28.3477 24.097L26.7432 22.903ZM25.0464 27.9566C24.9788 29.5116 25.2829 30.9311 25.9954 32.178L27.7319 31.1857C27.2322 30.3113 26.9909 29.2762 27.0445 28.0434L25.0464 27.9566ZM26.0061 32.1963C26.7266 33.397 27.7418 34.4361 29.0217 35.3222L30.1601 33.6778C29.0764 32.9275 28.2734 32.0878 27.7211 31.1673L26.0061 32.1963ZM29.0459 35.3384C30.337 36.1777 31.8651 36.9065 33.6182 37.5326L34.2909 35.6492C32.6501 35.0632 31.2691 34.3981 30.1359 33.6616L29.0459 35.3384ZM33.6182 37.5326C35.3639 38.1561 37.3164 38.6976 39.4723 39.1596L39.8913 37.204C37.8048 36.7569 35.9391 36.2378 34.2909 35.6492L33.6182 37.5326ZM39.4602 39.1569L47.4602 40.9751L47.9034 39.0249L39.9034 37.2067L39.4602 39.1569ZM47.4697 40.9772C52.0162 41.9643 56.0018 43.2757 59.4352 44.9036L60.2921 43.0964C56.6952 41.391 52.5596 40.0357 47.894 39.0228L47.4697 40.9772ZM59.4382 44.905C62.9022 46.5334 65.7768 48.46 68.0794 50.6752L69.466 49.2339C66.9808 46.843 63.916 44.8 60.2891 43.095L59.4382 44.905ZM68.084 50.6795C70.4098 52.8891 72.1616 55.4249 73.3488 58.2917L75.1966 57.5265C73.899 54.3932 71.9841 51.626 69.4615 49.2295L68.084 50.6795ZM73.3488 58.2917C74.5353 61.1567 75.1524 64.3906 75.1819 68.0081L77.1818 67.9919C77.1506 64.1549 76.495 60.6615 75.1966 57.5265L73.3488 58.2917ZM75.1818 67.9948C75.1524 73.701 73.7143 78.5416 70.9072 82.5641L72.5473 83.7086C75.6191 79.3069 77.1506 74.0565 77.1818 68.0052L75.1818 67.9948ZM70.9072 82.5641C68.095 86.5939 64.0342 89.7103 58.6688 91.8918L59.4221 93.7445C65.087 91.4412 69.4807 88.1031 72.5473 83.7086L70.9072 82.5641ZM58.667 91.8926C53.3332 94.0732 46.8478 95.1818 39.1818 95.1818V97.1818C47.031 97.1818 53.788 96.048 59.4239 93.7438L58.667 91.8926ZM39.1818 95.1818C31.4914 95.1818 24.8357 94.0295 19.1921 91.7543L18.4443 93.6093C24.3765 96.0008 31.2965 97.1818 39.1818 97.1818V95.1818ZM19.1921 91.7543C13.5723 89.4888 9.23777 86.0638 6.14697 81.4859L4.48939 82.605C7.82283 87.5423 12.4883 91.2082 18.4443 93.6093L19.1921 91.7543ZM6.14697 81.4859C3.06986 76.9283 1.45268 71.117 1.36356 63.9875L-0.636285 64.0125C-0.543586 71.4285 1.14226 77.6475 4.48939 82.605L6.14697 81.4859ZM0.363636 65H21.9091V63H0.363636V65ZM20.9109 64.0605C21.1015 67.2055 21.9487 69.8965 23.5036 72.0801L25.1327 70.9199C23.8392 69.1035 23.0803 66.7945 22.9073 63.9395L20.9109 64.0605ZM23.5036 72.0801C25.0469 74.2473 27.1579 75.8742 29.7988 76.9692L30.5648 75.1217C28.2361 74.1561 26.4379 72.7527 25.1327 70.9199L23.5036 72.0801ZM29.8028 76.9708C32.4611 78.0598 35.5033 78.5909 38.9091 78.5909V76.5909C35.7088 76.5909 32.9329 76.0917 30.5609 75.1201L29.8028 76.9708ZM38.9091 78.5909C42.0239 78.5909 44.729 78.1711 46.9962 77.2966L46.2765 75.4306C44.3013 76.1925 41.8549 76.5909 38.9091 76.5909V78.5909ZM46.9918 77.2983C49.2716 76.4314 51.0875 75.2016 52.375 73.5752L50.8069 72.3338C49.7913 73.6166 48.3042 74.6595 46.2809 75.4289L46.9918 77.2983ZM52.375 73.5752C53.6648 71.946 54.3297 70.0662 54.3635 67.9707L52.3638 67.9384C52.337 69.6005 51.8201 71.054 50.8069 72.3338L52.375 73.5752ZM54.3635 67.9373C54.3295 65.9666 53.711 64.2381 52.4878 62.8053L50.9667 64.1038C51.8647 65.1558 52.3372 66.4273 52.3638 67.9718L54.3635 67.9373ZM52.4955 62.8144C51.2947 61.3734 49.4987 60.2023 47.1983 59.2569L46.4381 61.1068C48.5619 61.9796 50.0387 62.9903 50.9591 64.0947L52.4955 62.8144ZM47.2136 59.2633C44.9583 58.2923 42.1084 57.4125 38.6807 56.6168L38.2284 58.565C41.5885 59.345 44.3144 60.1926 46.4227 61.1003L47.2136 59.2633ZM38.6821 56.6171L28.9548 54.3444L28.4998 56.292L38.227 58.5647L38.6821 56.6171ZM28.9508 54.3435C21.0014 52.5205 14.8221 49.5948 10.3462 45.6162L9.01746 47.111C13.8142 51.3749 20.3319 54.4189 28.5037 56.2929L28.9508 54.3435ZM10.3489 45.6187C5.95537 41.6846 3.74346 36.3672 3.77272 29.5497L1.77274 29.5412C1.74139 36.8449 4.13554 42.7397 9.01474 47.1086L10.3489 45.6187ZM3.77271 29.5402C3.74343 23.9767 5.2328 19.1415 8.22052 14.9935L6.59766 13.8246C3.34296 18.3433 1.74142 23.5991 1.77274 29.5507L3.77271 29.5402ZM8.22052 14.9935C11.2245 10.8229 15.3929 7.54999 20.766 5.18819L19.9612 3.35726C14.304 5.84395 9.83608 9.32858 6.59766 13.8246L8.22052 14.9935ZM20.766 5.18819C26.1344 2.82845 32.2817 1.63636 39.2273 1.63636V-0.36364C32.0517 -0.36364 25.6231 0.868511 19.9612 3.35727L20.766 5.18819ZM39.2273 1.63636C46.3275 1.63636 52.4357 2.84461 57.58 5.22568L58.42 3.41067C52.9583 0.882654 46.5513 -0.36364 39.2273 -0.36364V1.63636ZM57.5862 5.22854C62.7691 7.58439 66.753 10.8786 69.5779 15.1015L71.2403 13.9894C68.1864 9.42445 63.8976 5.90045 58.4138 3.40781L57.5862 5.22854ZM69.5779 15.1015C72.399 19.3186 73.8504 24.216 73.9091 29.8286L75.909 29.8077C75.8466 23.8446 74.298 18.5602 71.2403 13.9894L69.5779 15.1015ZM74.9091 28.8182H53.3636V30.8182H74.9091V28.8182Z" fill="white" mask="url(#path-1-outside-1_42_110)"/>
</svg>
