<svg width="218" height="229" viewBox="0 0 218 229" fill="none" xmlns="http://www.w3.org/2000/svg">
<g filter="url(#filter0_d_570_3274)">
<path d="M197.114 183.933L196.564 60.6834L196.317 5.58423H5.34019C4.90941 5.87939 4.47864 6.17455 4.04786 6.45375C4.76582 7.06801 5.48378 7.69821 6.20173 8.31246C5.49973 8.89481 4.75784 9.42929 4.00798 9.93983V14.2954C4.9493 14.8778 5.89062 15.4601 6.82396 16.0425C5.68321 17.2869 4.73391 18.7069 4.00798 20.2226V26.8437C4.35898 27.2984 4.70998 27.7531 4.96525 28.2477C6.09803 30.4654 5.23648 32.9145 4.00798 35.2199V41.171C5.66726 42.9419 6.03421 45.7978 5.31625 48.175C5.01312 49.1881 4.55841 50.1454 4.00798 51.0469V56.3677C4.0718 56.3996 4.12764 56.4395 4.18348 56.4794C5.18862 57.2372 5.8268 58.6333 5.3003 59.774C4.86155 59.6544 4.38291 59.774 4.00798 60.0373V62.4384C4.18348 62.5661 4.37493 62.6618 4.58234 62.7097C5.053 62.8054 5.15671 63.986 5.30828 64.4328C5.83478 66.0282 6.37724 67.7513 5.91455 69.3707C5.59546 70.4556 4.8775 71.3251 4.00798 72.067V75.2181C5.60344 76.1754 7.27867 76.989 9.00974 77.6192C6.96756 78.0261 5.15671 79.4381 4.27921 81.3207C5.38805 81.0016 6.4251 82.2062 6.51285 83.3629C6.59262 84.5196 6.09005 85.6125 5.81882 86.7373C5.55557 87.8621 5.61939 89.2342 6.53678 89.9282C5.87467 90.4946 5.20457 91.053 4.54246 91.6194C5.14075 91.7869 5.69119 92.1379 6.08208 92.6166C6.05017 95.975 6.01028 99.3255 5.97039 102.676C5.95444 104.335 5.58748 106.457 4 106.864V106.968C5.06098 107.726 4.98121 109.449 4.2473 110.55C4.1755 110.669 4.08775 110.773 4 110.877V122.332C5.24446 123.186 6.43308 124.119 7.41428 124.909C7.53394 125.004 7.6536 125.124 7.66956 125.276C7.66956 125.403 7.58979 125.531 7.50203 125.643C6.93565 126.361 6.37724 127.094 5.81882 127.812C6.6724 128.171 7.51799 128.522 8.37156 128.873C7.55788 129.759 6.59262 130.501 5.53962 131.059C5.46782 131.442 6.08208 131.458 6.44105 131.626C7.10317 131.937 6.82396 132.934 6.36926 133.508C5.91455 134.075 5.34019 134.801 5.69916 135.431C6.55274 135.255 7.4781 135.55 8.08438 136.189C6.7043 136.46 5.45985 137.361 4.76582 138.59C5.42794 138.725 6.08208 138.869 6.74419 139.013C5.95444 139.866 5.44389 140.967 5.3003 142.116C5.97039 142.084 6.64846 142.211 7.25474 142.491C6.81599 143.081 6.6006 143.831 6.65644 144.557C6.75217 145.833 7.07126 148.434 6.80003 149.686C7.58181 149.646 8.37156 149.83 9.05761 150.205C7.61372 150.46 6.15387 150.564 4.69403 150.5C5.07694 151.258 5.76298 151.856 6.57667 152.127C6.56071 154.169 6.54476 156.212 6.5288 158.254C5.61939 158.118 4.7738 159.107 4 159.785V160.551C4.69403 161.07 6.01826 161.022 6.33735 161.883C6.61655 162.657 5.81085 163.343 5.21255 163.926C4.62223 164.492 4.31111 165.721 5.10884 165.96C4.72593 166.024 4.351 166.151 4 166.327V168.457C5.44389 168.935 6.72824 169.909 7.53394 171.193C6.85587 171.903 6.1778 172.621 5.49176 173.331C5.22053 173.602 4.9493 173.897 4.84559 174.272C4.54246 175.277 5.55557 176.155 6.44105 176.713C5.93051 176.633 5.55557 177.184 5.4758 177.686C5.38805 178.189 5.45187 178.74 5.17266 179.17C4.99716 179.457 4.702 179.641 4.41482 179.824C4.27123 179.912 4.13561 180 4 180.088V184.012C4.11966 184.092 4.23932 184.18 4.35898 184.252C4.65414 184.459 4.97323 184.691 5.06098 185.042C5.13278 185.337 5.02109 185.64 4.91739 185.919C4.60627 186.701 4.30314 187.483 4.00798 188.256V189.565C5.30828 190.187 7.03935 190.49 8.21999 191.2C8.47527 191.352 8.73852 191.527 8.83424 191.806C8.93795 192.125 8.75447 192.468 8.56302 192.748C7.94079 193.697 7.15901 194.535 6.26555 195.229C7.47013 195.691 8.56302 196.449 9.41659 197.422C8.14022 198.188 7.15103 199.417 6.6724 200.829C7.39035 201.251 8.11629 201.682 8.82627 202.105C8.61088 202.472 8.53908 202.919 8.61886 203.341C7.1271 203.876 5.57951 204.227 4.00798 204.41V206.014C4.27921 206.293 4.50257 206.62 4.63818 206.995C4.83762 207.53 4.83762 208.12 4.96525 208.686C5.26041 209.955 6.28151 211.024 7.54192 211.375C6.40117 211.941 5.26041 212.499 4.12764 213.066C5.07694 213.656 5.89062 214.446 6.51285 215.371C5.66726 215.387 4.82166 215.499 4 215.722V217.836C5.41198 218.403 6.92767 218.706 8.44336 218.722C9.53625 218.738 11.0998 219.073 10.9323 220.158C10.9163 220.261 10.8764 220.365 10.8286 220.461L195.495 219.751C197.106 206.397 197.641 194.463 197.106 183.949L197.114 183.933ZM12.3682 24.1634C12.3682 22.6557 13.5887 21.4351 15.0964 21.4351H19.6674C21.1751 21.4351 22.3957 22.6557 22.3957 24.1634V28.0244C22.3957 29.5241 21.1751 30.7526 19.6674 30.7526H15.0964C13.5967 30.7526 12.3682 29.5321 12.3682 28.0244V24.1634ZM12.3682 41.0992C12.3682 39.5915 13.5887 38.3709 15.0964 38.3709H19.6674C21.1751 38.3709 22.3957 39.5915 22.3957 41.0992V44.9522C22.3957 46.4599 21.1751 47.6804 19.6674 47.6804H15.0964C13.5967 47.6804 12.3682 46.4599 12.3682 44.9522V41.0992ZM22.3957 197.327C22.3957 198.834 21.1751 200.055 19.6674 200.055H15.0964C13.5967 200.055 12.3682 198.834 12.3682 197.327V193.474C12.3682 191.966 13.5887 190.745 15.0964 190.745H19.6674C21.1751 190.745 22.3957 191.966 22.3957 193.474V197.327ZM22.3957 180.399C22.3957 181.898 21.1751 183.127 19.6674 183.127H15.0964C13.5967 183.127 12.3682 181.906 12.3682 180.399V176.538C12.3682 175.03 13.5887 173.81 15.0964 173.81H19.6674C21.1751 173.81 22.3957 175.022 22.3957 176.538V180.399ZM22.3957 163.463C22.3957 164.963 21.1751 166.191 19.6674 166.191H15.0964C13.5967 166.191 12.3682 164.971 12.3682 163.463V159.602C12.3682 158.102 13.5887 156.874 15.0964 156.874H19.6674C21.1751 156.874 22.3957 158.094 22.3957 159.602V163.463ZM22.3957 146.527C22.3957 148.035 21.1751 149.255 19.6674 149.255H15.0964C13.5967 149.255 12.3682 148.035 12.3682 146.527V142.674C12.3682 141.166 13.5887 139.946 15.0964 139.946H19.6674C21.1751 139.946 22.3957 141.166 22.3957 142.674V146.527ZM22.3957 129.599C22.3957 131.099 21.1751 132.328 19.6674 132.328H15.0964C13.5967 132.328 12.3682 131.107 12.3682 129.599V125.738C12.3682 124.231 13.5887 123.01 15.0964 123.01H19.6674C21.1751 123.01 22.3957 124.223 22.3957 125.738V129.599ZM22.3957 112.664C22.3957 114.163 21.1751 115.392 19.6674 115.392H15.0964C13.5967 115.392 12.3682 114.171 12.3682 112.664V108.803C12.3682 107.303 13.5887 106.074 15.0964 106.074H19.6674C21.1751 106.074 22.3957 107.295 22.3957 108.803V112.664ZM22.3957 95.7277C22.3957 97.2354 21.1751 98.4559 19.6674 98.4559H15.0964C13.5967 98.4559 12.3682 97.2354 12.3682 95.7277V91.8747C12.3682 90.367 13.5887 89.1464 15.0964 89.1464H19.6674C21.1751 89.1464 22.3957 90.367 22.3957 91.8747V95.7277ZM22.3957 78.7999C22.3957 80.2996 21.1751 81.5281 19.6674 81.5281H15.0964C13.5967 81.5281 12.3682 80.3076 12.3682 78.7999V74.9389C12.3682 73.4312 13.5887 72.2106 15.0964 72.2106H19.6674C21.1751 72.2106 22.3957 73.4232 22.3957 74.9389V78.7999ZM22.3957 61.8641C22.3957 63.3638 21.1751 64.5923 19.6674 64.5923H15.0964C13.5967 64.5923 12.3682 63.3718 12.3682 61.8641V58.0031C12.3682 56.5033 13.5887 55.2748 15.0964 55.2748H19.6674C21.1751 55.2748 22.3957 56.4954 22.3957 58.0031V61.8641Z" fill="url(#paint0_linear_570_3274)" style="mix-blend-mode:multiply"/>
<path d="M123.659 11.8543C123.939 11.8303 124.21 11.8064 124.489 11.7984L126.858 12.4605C126.914 12.4925 126.986 12.5084 127.058 12.5164L127.201 12.5563C127.664 13.0987 128.534 13.3221 129.299 13.1466L130.983 13.6093L132.403 12.309C132.953 12.0377 133.767 11.6309 134.325 11.3597L134.381 11.3437C134.692 11.6309 135.003 11.9181 135.314 12.2053C135.825 11.6548 136.766 11.4394 137.484 11.7027C137.58 11.6548 137.676 11.599 137.779 11.5432L139.239 11.6548C139.295 11.4953 139.407 11.3756 139.566 11.2799C139.813 11.4793 140.069 11.6867 140.308 11.9021C140.468 11.607 140.635 11.3118 140.795 11.0167C141.01 11.0167 141.225 11.0246 141.417 11.0326L142.39 11.6548C142.901 12.4366 143.866 13.6252 144.337 12.1893C144.775 10.8412 145.549 10.203 146.004 9.93174C146.044 10.9847 147.432 11.7745 148.596 11.3916C148.796 11.3278 148.971 11.232 149.131 11.1204L149.211 11.1602C149.211 11.1602 149.777 10.9768 150.144 9.74028C150.232 9.44512 150.391 9.2058 150.591 9.01435C150.806 9.08614 151.03 9.14996 151.245 9.22176C151.293 8.76705 151.716 8.36021 152.21 8.2246L153.407 8.47189C153.614 8.64739 153.766 8.87076 153.79 9.12603C153.798 8.93458 153.877 8.7511 153.997 8.59155L157.794 9.36535C157.26 8.76705 157.603 8.43998 158.002 8.26448C158.129 8.36819 158.217 8.51178 158.257 8.66335C158.281 8.20864 159.039 7.88955 159.438 8.17673C159.454 8.05707 159.47 7.94539 159.493 7.83371L159.9 7.70607C160.068 7.91348 160.243 8.12089 160.419 8.3283C160.523 8.06505 160.626 7.8018 160.738 7.54653L161.488 7.49068C161.52 7.58641 161.528 7.69012 161.512 7.79382C161.52 7.68214 161.552 7.58641 161.591 7.47473L163.227 7.35507L163.554 7.73798C163.546 7.79382 163.53 7.84169 163.514 7.89753C163.53 7.84966 163.554 7.80978 163.578 7.76191L164.655 9.01435C164.655 9.01435 165.038 8.64739 165.221 8.12887C165.253 8.03314 165.269 7.92146 165.285 7.82573C165.405 8.04112 165.492 8.27246 165.516 8.51178C165.811 7.54653 167.766 7.49866 168.013 8.43998C168.053 8.32032 168.117 8.20066 168.181 8.08898C169.114 8.35223 169.537 8.32032 169.537 8.32032C171.092 6.39779 172.273 7.35507 172.273 7.35507C172.273 7.35507 172.377 7.2753 172.504 7.16362C172.943 7.2753 173.302 7.59439 173.35 7.98528C173.741 7.77787 174.036 7.44282 174.188 7.07587C174.251 7.11575 174.323 7.15564 174.387 7.2035C174.539 7.40293 174.682 7.60237 174.834 7.8018C174.953 7.65023 175.073 7.49866 175.193 7.34709L176.086 7.00407C176.23 7.15564 176.365 7.30721 176.509 7.45878C176.653 7.03598 177.155 6.69295 177.674 6.69295C177.841 6.69295 178.009 6.73284 178.168 6.79666C178.527 7.42687 179.229 8.30437 179.891 7.21148C180.107 6.84452 180.354 6.58925 180.601 6.40577C180.729 6.50948 180.841 6.61318 180.928 6.74082C181.216 6.51745 181.439 6.2542 181.622 5.96702C181.981 5.91118 182.229 5.96702 182.229 5.96702C182.229 5.96702 182.229 5.96702 182.253 5.96702C182.436 6.14252 182.668 6.28611 182.939 6.326C183.178 6.35791 183.425 6.31004 183.657 6.21432C184.247 6.27813 184.885 6.29409 185.252 6.13454C185.491 6.03084 185.787 5.81545 186.074 5.56816C186.209 5.65591 186.305 5.77557 186.313 5.93511C186.943 5.51231 187.398 4.89806 187.574 4.23595C187.645 4.39549 187.709 4.55504 187.773 4.71458C188.467 4.4992 189.153 4.28381 189.855 4.0764L193.221 4.36358L194.546 3.77326C194.586 3.78922 194.633 3.80517 194.681 3.82113C195.072 3.93281 195.551 3.94876 195.878 3.70147C195.95 3.64563 196.006 3.58978 196.053 3.52597L196.684 3.4781L197.824 2.32139C197.824 2.32139 197.88 2.32139 197.976 2.32937C198.128 2.55274 198.199 2.80003 198.263 3.05531C198.207 2.76812 198.367 2.50487 198.622 2.31342C198.798 2.28948 198.989 2.26555 199.196 2.21769C199.372 2.1778 199.739 2.05814 200.218 1.8986C200.64 1.8986 201.063 1.92253 201.478 1.84276C201.949 1.74703 202.427 1.41996 202.555 1.04503C203.767 0.59032 204.82 0.183478 204.82 0.183478L204.876 1.81085L207.365 0C207.365 0 210.221 35.7782 212.191 55.3784L212.215 55.6337C212.886 62.2788 213.452 67.0173 213.763 67.7672L130.041 79.5337L128.853 66.9455L128.693 65.2543L123.659 11.8543Z" fill="#DBC554"/>
<path d="M168.549 45.6357C168.715 47.7816 168.785 49.7525 168.759 51.5485C168.73 53.3213 168.632 54.8565 168.464 56.154C168.296 57.4515 168.09 58.4833 167.846 59.2493C167.602 60.0153 167.343 60.4297 167.069 60.4926C166.822 60.5752 166.374 60.5803 165.727 60.508C165.107 60.4554 164.443 60.35 163.736 60.1918C163.053 60.0303 162.414 59.8506 161.82 59.6528C161.249 59.4516 160.903 59.2652 160.785 59.0936C160.643 58.9253 160.403 58.4879 160.066 57.7816C159.729 57.0752 159.356 56.1972 158.946 55.1475C158.533 54.0747 158.126 52.8831 157.726 51.5726C157.326 50.2621 157.015 48.9152 156.794 47.532C156.549 46.1522 156.317 44.7822 156.099 43.4221C155.903 42.0587 155.751 40.8306 155.642 39.7379C155.555 38.6419 155.542 37.7241 155.601 36.9846C155.66 36.245 155.843 35.7943 156.15 35.6324C157.074 35.1699 158.134 34.9119 159.329 34.8587C160.544 34.7789 161.696 34.8379 162.786 35.0356C163.895 35.2068 164.841 35.4722 165.624 35.8318C166.429 36.188 166.882 36.5477 166.981 36.9108C167.057 36.9471 167.159 37.2508 167.288 37.8218C167.44 38.3896 167.589 39.0994 167.735 39.9511C167.9 40.7763 168.056 41.6974 168.201 42.7141C168.347 43.7309 168.463 44.7048 168.549 45.6357ZM164.276 58.5227C164.365 58.4864 164.508 58.3361 164.706 58.0719C164.904 57.8077 165.069 57.3125 165.201 56.5861C165.356 55.8564 165.446 54.8412 165.472 53.5405C165.521 52.2364 165.439 50.5148 165.227 48.3755C165.019 46.2594 164.755 44.5048 164.438 43.1118C164.14 41.6923 163.849 40.5666 163.565 39.7348C163.277 38.8799 163.015 38.2808 162.777 37.9375C162.559 37.5678 162.435 37.3615 162.405 37.3186C162.352 37.279 162.265 37.2444 162.143 37.2147C162.04 37.1587 161.92 37.1406 161.781 37.1604C161.639 37.1572 161.502 37.1886 161.37 37.2547C161.261 37.3174 161.182 37.4231 161.133 37.5717C161.083 37.7203 161.034 38.199 160.985 39.0079C160.955 39.7903 160.944 40.7824 160.951 41.9841C160.978 43.1594 161.035 44.4601 161.121 45.8863C161.227 47.286 161.39 48.6659 161.608 50.026C161.77 50.9933 161.972 51.9902 162.213 53.0168C162.455 54.0435 162.694 54.976 162.932 55.8145C163.194 56.6496 163.432 57.323 163.646 57.8347C163.884 58.343 164.094 58.5723 164.276 58.5227ZM175.922 55.3687C177.084 55.0843 178.064 54.8495 178.863 54.6643C179.658 54.456 180.296 54.294 180.774 54.1783C181.273 54.0361 181.626 53.9501 181.834 53.9203C182.065 53.8872 182.205 53.8789 182.255 53.8954C182.364 53.9977 182.397 54.2288 182.354 54.5887C182.308 54.9254 182.221 55.3035 182.092 55.7228C181.963 56.1421 181.81 56.5532 181.632 56.956C181.477 57.3556 181.34 57.6346 181.221 57.7931C181.182 57.846 181.002 57.9071 180.682 57.9766C180.365 58.0691 179.965 58.1617 179.483 58.2543C179.024 58.3437 178.508 58.4412 177.933 58.5471C177.382 58.6497 176.852 58.7374 176.344 58.8102C175.839 58.9061 175.401 58.9806 175.032 59.0336C174.662 59.0865 174.418 59.1097 174.299 59.1032C174.134 59.1032 173.959 59.034 173.774 58.8954C173.609 58.7304 173.442 58.5538 173.273 58.3657C173.125 58.1512 172.986 57.9234 172.857 57.6825C172.728 57.4415 172.637 57.2187 172.585 57.0141C172.552 56.948 172.573 56.6856 172.649 56.2267C172.721 55.7446 172.803 55.1668 172.896 54.4933C173.011 53.8165 173.143 53.0901 173.291 52.3143C173.436 51.5153 173.574 50.7526 173.706 50.0262C173.861 49.2966 173.993 48.6527 174.101 48.0948C174.207 47.5137 174.279 47.1142 174.319 46.8963C174.54 45.8034 174.739 44.7254 174.917 43.6623C175.114 42.5728 175.269 41.5955 175.381 40.7305C175.513 39.8391 175.595 39.0962 175.628 38.502C175.657 37.8846 175.616 37.5132 175.504 37.3878C175.421 37.3053 175.226 37.345 174.919 37.5069C174.632 37.6423 174.276 37.8703 173.85 38.1907C173.444 38.4847 173.008 38.8183 172.543 39.1915C172.101 39.5614 171.668 39.9182 171.246 40.2617C170.847 40.6019 170.5 40.8991 170.206 41.1535C169.909 41.3847 169.726 41.5052 169.657 41.5152C169.545 41.5548 169.431 41.4179 169.315 41.1043C169.222 40.7874 169.146 40.421 169.087 40.005C169.027 39.5891 168.992 39.1813 168.982 38.7819C168.969 38.3593 168.997 38.0605 169.066 37.8855C169.096 37.7634 169.241 37.5421 169.502 37.2218C169.785 36.8981 170.134 36.5299 170.546 36.117C170.959 35.7042 171.416 35.2732 171.917 34.824C172.419 34.3748 172.916 33.9735 173.407 33.6201C173.922 33.2633 174.399 32.971 174.838 32.743C175.3 32.5117 175.696 32.396 176.027 32.3959C176.241 32.4123 176.566 32.5426 177.002 32.7867C177.458 33.0044 177.909 33.27 178.354 33.5835C178.797 33.8738 179.195 34.1824 179.548 34.5091C179.921 34.8093 180.141 35.0255 180.207 35.1575C180.247 35.2697 180.219 35.6511 180.123 36.3015C180.048 36.9255 179.914 37.7228 179.723 38.6935C179.552 39.6378 179.339 40.7058 179.086 41.8977C178.829 43.0665 178.552 44.2618 178.255 45.4834C177.982 46.7017 177.705 47.8969 177.425 49.069C177.168 50.2378 176.929 51.2861 176.708 52.2139C176.484 53.1185 176.296 53.8647 176.144 54.4524C176.012 55.0137 175.938 55.3191 175.922 55.3687Z" fill="white"/>
<path d="M36.6913 121.332C36.6404 121.197 36.595 121.046 36.5552 120.878C36.5286 120.692 36.5175 120.56 36.5219 120.48C36.5483 120.334 36.6698 120.246 36.8864 120.215C37.1007 120.168 37.3449 120.165 37.6189 120.204C37.8929 120.244 38.1559 120.317 38.4078 120.423C38.6753 120.527 38.8609 120.666 38.9649 120.84C39.0069 120.913 39.0411 120.987 39.0677 121.062C39.0942 121.137 39.1363 121.266 39.1938 121.447C39.2491 121.612 39.3221 121.902 39.4129 122.315C39.5191 122.726 39.6132 123.162 39.6951 123.624C39.7749 124.071 39.8347 124.488 39.8746 124.877C39.9278 125.248 39.9356 125.468 39.8981 125.537C39.8363 125.656 39.7479 125.755 39.633 125.835C39.5159 125.899 39.3878 125.941 39.2486 125.961C39.1249 125.979 38.9978 125.973 38.8674 125.945C38.7525 125.914 38.6586 125.864 38.5856 125.796C38.4773 125.701 38.3358 125.484 38.1611 125.146C37.9997 124.791 37.8238 124.39 37.6336 123.943C37.4589 123.495 37.283 123.038 37.1061 122.575C36.9424 122.093 36.8041 121.679 36.6913 121.332ZM33.7216 121.757C33.6707 121.622 33.6253 121.471 33.5855 121.303C33.5434 121.12 33.5323 120.987 33.5522 120.905C33.5787 120.76 33.7002 120.671 33.9167 120.64C34.131 120.594 34.3752 120.59 34.6492 120.63C34.9232 120.67 35.1862 120.742 35.4382 120.848C35.7056 120.952 35.8912 121.091 35.9952 121.266C36.0372 121.339 36.0637 121.414 36.0748 121.491C36.1014 121.566 36.1434 121.694 36.2009 121.876C36.2562 122.041 36.3293 122.331 36.42 122.744C36.5262 123.155 36.6203 123.591 36.7023 124.053C36.782 124.499 36.8418 124.917 36.8817 125.306C36.9195 125.679 36.9195 125.9 36.882 125.969C36.8356 126.086 36.755 126.184 36.6402 126.264C36.5231 126.328 36.3949 126.37 36.2557 126.39C36.132 126.408 36.0049 126.402 35.8745 126.373C35.7596 126.343 35.6657 126.293 35.5927 126.224C35.4999 126.127 35.3661 125.91 35.1914 125.572C35.03 125.216 34.8541 124.815 34.6639 124.369C34.4892 123.92 34.3133 123.464 34.1364 123C33.9572 122.521 33.8189 122.106 33.7216 121.757ZM46.1456 124.523C46.1678 124.567 46.1866 124.699 46.2021 124.918C46.2155 125.121 46.2178 125.357 46.209 125.627C46.2136 125.879 46.2081 126.116 46.1928 126.34C46.1752 126.547 46.1542 126.677 46.1299 126.727C45.9775 126.765 45.8239 126.795 45.6692 126.817C45.5124 126.824 45.3643 126.837 45.2251 126.857L44.7379 126.927C44.8687 127.95 44.9906 128.966 45.1037 129.976C45.2168 130.986 45.3077 131.896 45.3765 132.707C45.4431 133.503 45.481 134.152 45.49 134.656C45.5145 135.158 45.5047 135.42 45.4605 135.442C45.3544 135.473 45.224 135.444 45.0693 135.356C44.9146 135.267 44.7566 135.156 44.5952 135.021C44.4471 134.869 44.3067 134.715 44.1741 134.561C44.0547 134.388 43.9773 134.234 43.9419 134.097C43.7294 133.164 43.5313 132.277 43.3475 131.435C43.1616 130.578 43.0055 129.819 42.8793 129.158C42.7066 128.394 42.5649 127.68 42.4542 127.017C42.2818 127.026 42.1084 127.027 41.9338 127.021C41.7747 127.012 41.6079 127.004 41.4333 126.998C41.2742 126.989 41.1074 126.981 40.9328 126.975C40.8974 126.948 40.8488 126.884 40.7869 126.783C40.7227 126.665 40.6575 126.541 40.5912 126.408C40.5403 126.273 40.4905 126.146 40.4419 126.027C40.391 125.892 40.3611 125.794 40.3523 125.732C40.3456 125.686 40.5091 125.615 40.8427 125.52C41.1918 125.422 41.6194 125.322 42.1253 125.218C41.977 124.402 41.8518 123.694 41.75 123.093C41.6613 122.474 41.6247 122.053 41.6401 121.83C41.6444 121.53 41.7282 121.234 41.8917 120.942C42.0683 120.632 42.2582 120.361 42.4614 120.126C42.6801 119.89 42.8833 119.711 43.0711 119.589C43.2721 119.45 43.4069 119.399 43.4754 119.436C43.5263 119.461 43.5882 119.618 43.6612 119.907C43.732 120.181 43.8095 120.557 43.8937 121.034C43.9778 121.511 44.0664 122.075 44.1595 122.724C44.2504 123.358 44.3467 124.031 44.4487 124.743C44.9082 124.645 45.3016 124.581 45.6286 124.55C45.9534 124.503 46.1257 124.495 46.1456 124.523ZM49.4455 129.378C49.6797 129.25 49.9437 129.109 50.2375 128.957C50.5446 128.786 50.8385 128.634 51.119 128.499C51.3974 128.348 51.647 128.218 51.868 128.107C52.0889 127.997 52.2502 127.911 52.3518 127.849C52.312 127.681 52.2611 127.491 52.1991 127.279C52.1504 127.049 52.0962 126.836 52.0364 126.639C51.9745 126.427 51.9092 126.247 51.8407 126.099C51.7721 125.951 51.7124 125.865 51.6616 125.84C51.5312 125.812 51.3169 125.803 51.0186 125.814C50.7335 125.808 50.4407 125.857 50.1402 125.964C49.8552 126.068 49.6012 126.222 49.3781 126.428C49.155 126.633 49.0546 126.924 49.0768 127.3C49.0813 127.552 49.1179 127.862 49.1865 128.231C49.2552 128.6 49.3415 128.982 49.4455 129.378ZM54.5332 129.028C54.5222 129.061 54.3455 129.149 54.003 129.293C53.6606 129.437 53.2496 129.598 52.7702 129.778C52.2885 129.941 51.7771 130.117 51.2358 130.305C50.6922 130.478 50.2238 130.624 49.8306 130.743C49.9965 131.351 50.1691 131.894 50.3483 132.374C50.5252 132.838 50.6612 133.126 50.7563 133.239C50.8491 133.336 50.9641 133.422 51.1011 133.497C51.2205 133.559 51.363 133.617 51.5288 133.673C51.7078 133.71 51.9155 133.728 52.1519 133.725C52.3287 133.747 52.4822 133.662 52.6125 133.47C52.7141 133.298 52.7836 133.011 52.821 132.612C52.8739 132.209 52.8405 131.591 52.7209 130.755C53.1893 130.609 53.5538 130.51 53.8145 130.457C54.0907 130.401 54.2918 130.372 54.4178 130.37C54.5746 130.364 54.6708 130.373 54.7061 130.4C54.7283 130.444 54.7449 130.56 54.756 130.748C54.7671 130.936 54.7617 131.173 54.7397 131.461C54.731 131.73 54.7112 132.033 54.6804 132.369C54.6628 132.687 54.6287 133 54.578 133.307C54.5251 133.599 54.4611 133.868 54.3861 134.116C54.3088 134.348 54.215 134.519 54.1045 134.63C53.7732 134.961 53.3291 135.167 52.7723 135.247C52.2133 135.311 51.6531 135.312 51.0918 135.251C50.5283 135.173 50.0156 135.065 49.5538 134.926C49.0897 134.772 48.7935 134.633 48.6653 134.509C48.5747 134.427 48.4718 134.205 48.3568 133.843C48.2395 133.465 48.1189 133.009 47.995 132.474C47.8865 131.937 47.778 131.345 47.6694 130.698C47.5609 130.05 47.4778 129.415 47.4201 128.792C47.3779 128.167 47.3578 127.585 47.3598 127.048C47.3772 126.509 47.44 126.066 47.5482 125.719C47.7137 125.222 48.0384 124.789 48.5221 124.42C49.0059 124.05 49.5339 123.77 50.1062 123.577C50.6784 123.385 51.233 123.289 51.77 123.291C52.3224 123.291 52.7489 123.404 53.0495 123.629C53.2264 123.761 53.4099 124.051 53.6001 124.497C53.7881 124.928 53.9441 125.466 54.0681 126.111C54.0769 126.173 54.1101 126.35 54.1677 126.641C54.2253 126.933 54.2784 127.249 54.3272 127.589C54.3892 127.912 54.4412 128.22 54.4833 128.514C54.5254 128.808 54.5421 128.979 54.5332 129.028ZM58.8427 121.923C58.772 121.87 58.6316 121.827 58.4217 121.794C58.2118 121.761 58.0759 121.804 58.0141 121.923C57.9765 121.992 57.928 122.204 57.8685 122.56C57.809 122.916 57.755 123.365 57.7066 123.909C57.6737 124.45 57.6595 125.068 57.6642 125.762C57.6844 126.453 57.7465 127.163 57.8507 127.89C57.926 128.415 58.0212 128.915 58.1363 129.388C58.2492 129.845 58.362 130.247 58.4749 130.594C58.6032 130.939 58.7292 131.213 58.8531 131.416C58.9923 131.617 59.1172 131.717 59.2277 131.717C59.3205 131.704 59.4133 131.58 59.506 131.346C59.6142 131.11 59.7102 130.843 59.794 130.547C59.8912 130.233 59.9684 129.946 60.0257 129.685C60.0963 129.407 60.1493 129.226 60.1846 129.142C60.2795 128.923 60.4176 128.729 60.5987 128.561C60.7776 128.378 60.9367 128.276 61.0759 128.256C61.1532 128.245 61.2151 128.292 61.2616 128.395C61.3235 128.497 61.3732 128.624 61.4109 128.777C61.4617 128.911 61.4983 129.056 61.5204 129.211C61.5426 129.365 61.5603 129.489 61.5736 129.582C61.598 129.752 61.6125 130.074 61.6171 130.546C61.6217 131.019 61.5964 131.504 61.5414 132.002C61.5018 132.497 61.4313 132.941 61.3298 133.334C61.2438 133.725 61.1146 133.925 60.9422 133.934C60.7699 133.943 60.5036 133.902 60.1434 133.812C59.7831 133.721 59.4119 133.609 59.0295 133.474C58.6627 133.337 58.319 133.197 57.9985 133.054C57.6913 132.892 57.499 132.762 57.4216 132.663C57.3443 132.563 57.2138 132.314 57.0302 131.914C56.8445 131.498 56.6377 130.991 56.4098 130.393C56.1975 129.792 55.9917 129.127 55.7925 128.398C55.5934 127.668 55.4406 126.933 55.3343 126.19C55.2279 125.448 55.1381 124.711 55.0649 123.98C55.0072 123.246 54.9837 122.586 54.9945 122.001C55.0054 121.415 55.0549 120.935 55.1431 120.559C55.2468 120.181 55.4058 119.969 55.6202 119.922C56.2145 119.774 56.8255 119.742 57.4531 119.825C58.0939 119.891 58.674 120.029 59.1934 120.239C59.726 120.431 60.1691 120.66 60.5228 120.925C60.8742 121.174 61.0721 121.398 61.1164 121.597C61.1629 121.812 61.1906 122.115 61.1996 122.509C61.2241 122.9 61.2264 123.302 61.2067 123.715C61.2002 124.111 61.1738 124.478 61.1276 124.816C61.0946 125.136 61.0504 125.324 60.9952 125.379C60.876 125.538 60.7346 125.709 60.5712 125.89C60.4077 126.071 60.2343 126.128 60.0508 126.059C59.9845 126.037 59.9138 125.929 59.8386 125.734C59.7611 125.524 59.6771 125.268 59.5864 124.965C59.5111 124.661 59.4325 124.332 59.3506 123.981C59.2687 123.63 59.1913 123.309 59.1182 123.02C59.0585 122.713 58.9987 122.461 58.939 122.264C58.8925 122.05 58.8604 121.936 58.8427 121.923ZM67.8487 122.811C68.0167 122.882 68.188 123.031 68.3627 123.258C68.5528 123.484 68.733 123.75 68.9032 124.057C69.0713 124.349 69.2206 124.674 69.3511 125.035C69.4794 125.379 69.5668 125.714 69.6133 126.039C69.6444 126.255 69.66 126.585 69.6601 127.027C69.6581 127.453 69.6472 127.928 69.6275 128.452C69.6056 128.96 69.5782 129.485 69.5453 130.026C69.5124 130.568 69.4805 131.062 69.4497 131.508C69.419 131.954 69.386 132.33 69.3508 132.635C69.3155 132.94 69.2924 133.109 69.2813 133.142C69.2571 133.193 69.1687 133.237 69.0162 133.275C68.8792 133.31 68.7235 133.325 68.5489 133.318C68.3898 133.309 68.2362 133.284 68.0881 133.242C67.9401 133.2 67.8439 133.135 67.7997 133.046C67.7754 132.987 67.7399 132.795 67.6934 132.47C67.6601 132.127 67.618 131.723 67.567 131.257C67.5314 130.788 67.4904 130.281 67.4437 129.735C67.4126 129.187 67.3792 128.679 67.3437 128.211C67.306 127.727 67.2704 127.314 67.2372 126.971C67.2193 126.626 67.206 126.423 67.1971 126.361C67.1772 126.112 67.1196 125.875 67.0245 125.652C66.9427 125.411 66.8431 125.212 66.726 125.055C66.6243 124.896 66.5126 124.778 66.3911 124.701C66.285 124.621 66.1877 124.604 66.0994 124.648C65.9646 124.699 65.8309 124.758 65.6984 124.824C65.5813 124.888 65.4785 124.942 65.3902 124.986C65.2731 125.051 65.1715 125.112 65.0853 125.172C65.2338 126.319 65.3712 127.444 65.4976 128.546C65.624 129.649 65.7272 130.644 65.8071 131.533C65.8847 132.405 65.9314 133.117 65.9471 133.667C65.976 134.2 65.9607 134.478 65.901 134.502C65.7795 134.536 65.6325 134.501 65.4601 134.4C65.3032 134.296 65.1419 134.161 64.9761 133.996C64.8125 133.845 64.6622 133.677 64.5251 133.492C64.4035 133.304 64.3172 133.143 64.2664 133.008C63.9255 131.51 63.6311 130.171 63.3831 128.991C63.1329 127.796 62.9182 126.737 62.7388 125.816C62.5595 124.895 62.4056 124.096 62.2772 123.42C62.1642 122.742 62.0734 122.163 62.0047 121.683C61.8275 120.556 61.7311 119.773 61.7154 119.333C61.7308 119 61.8257 118.67 62.0001 118.345C62.1723 118.005 62.3655 117.701 62.5798 117.434C62.8095 117.164 63.0249 116.959 63.2259 116.82C63.4402 116.663 63.5904 116.61 63.6766 116.661C63.7296 116.701 63.7993 116.912 63.8857 117.294C63.9852 117.658 64.0882 118.157 64.1945 118.789C64.2986 119.405 64.4094 120.123 64.5268 120.943C64.642 121.747 64.7562 122.599 64.8692 123.498C65.4524 123.162 66.0026 122.926 66.5196 122.788C67.0521 122.649 67.4951 122.657 67.8487 122.811ZM77.0862 122.34C77.1217 122.588 77.1417 122.948 77.1463 123.421C77.1664 123.891 77.1699 124.412 77.1569 124.982C77.1416 125.536 77.122 126.115 77.0979 126.719C77.0871 127.304 77.0619 127.845 77.0223 128.34C76.9982 128.832 76.9707 129.247 76.9399 129.583C76.9246 129.916 76.9114 130.1 76.9003 130.133C76.8761 130.184 76.7954 130.227 76.6584 130.262C76.5347 130.28 76.3855 130.285 76.211 130.279C76.0519 130.27 75.8983 130.245 75.7502 130.203C75.6176 130.159 75.5292 130.092 75.485 130.004C75.4606 129.944 75.4219 129.729 75.3687 129.358C75.331 128.984 75.2833 128.541 75.2257 128.029C75.1813 127.498 75.1324 126.937 75.0792 126.345C75.0237 125.737 74.9749 125.176 74.9327 124.661C74.9037 124.129 74.8704 123.676 74.8327 123.302C74.8105 122.927 74.7938 122.7 74.7827 122.623C74.7428 122.344 74.6742 122.086 74.5769 121.847C74.4928 121.591 74.3988 121.376 74.2949 121.201C74.191 121.026 74.0783 120.901 73.9567 120.823C73.8484 120.728 73.7578 120.702 73.6849 120.744C73.4882 120.804 73.3258 120.882 73.1977 120.979C73.0674 121.061 72.9613 121.147 72.8796 121.238C72.7846 121.346 72.7151 121.467 72.6709 121.599C72.6599 121.633 72.6423 121.73 72.618 121.891C72.6092 122.05 72.6193 122.23 72.6481 122.431C72.6569 122.493 72.6891 122.718 72.7444 123.104C72.7976 123.475 72.8542 123.925 72.914 124.453C72.9894 124.979 73.0636 125.552 73.1368 126.173C73.2232 126.777 73.2963 127.342 73.3562 127.87C73.4293 128.381 73.4847 128.823 73.5224 129.196C73.5602 129.569 73.5746 129.78 73.5658 129.829C73.5481 129.926 73.4896 130.069 73.3903 130.257C73.2887 130.429 73.1705 130.596 73.0358 130.757C72.9011 130.919 72.7697 131.048 72.6415 131.145C72.5112 131.227 72.4162 131.225 72.3565 131.139C72.3034 131.099 72.2249 130.881 72.1209 130.486C72.0147 130.075 71.8885 129.58 71.7424 129.001C71.6096 128.405 71.4624 127.763 71.3009 127.076C71.1371 126.373 70.9854 125.7 70.846 125.057C70.7065 124.414 70.5836 123.832 70.4774 123.311C70.3711 122.789 70.2936 122.413 70.2449 122.184C70.1829 121.861 70.1154 121.5 70.0423 121.1C69.967 120.685 69.8961 120.3 69.8297 119.947C69.7765 119.575 69.7311 119.258 69.6934 118.995C69.669 118.715 69.6756 118.54 69.7131 118.472C69.7352 118.405 69.8335 118.375 70.0081 118.382C70.1981 118.386 70.4003 118.421 70.6147 118.485C70.8423 118.531 71.0578 118.603 71.2611 118.7C71.4622 118.781 71.6015 118.872 71.6789 118.971C71.7231 119.06 71.7773 119.162 71.8414 119.28C71.9033 119.381 71.9686 119.561 72.0372 119.82C72.2779 119.627 72.5441 119.447 72.8358 119.279C73.1252 119.096 73.4124 118.952 73.6974 118.848C73.9956 118.726 74.2862 118.661 74.569 118.652C74.8497 118.628 75.1082 118.669 75.3447 118.778C75.4994 118.866 75.6652 119.032 75.8421 119.275C76.0344 119.515 76.2102 119.806 76.3694 120.146C76.5441 120.484 76.6912 120.85 76.8107 121.243C76.9434 121.619 77.0353 121.984 77.0862 122.34ZM83.041 118.456C83.1625 118.534 83.2886 118.697 83.419 118.947C83.565 119.194 83.7032 119.498 83.8337 119.858C83.9642 120.218 84.0914 120.611 84.2153 121.035C84.3393 121.459 84.4543 121.877 84.5605 122.287C84.6668 122.698 84.7542 123.088 84.8229 123.457C84.9048 123.809 84.9701 124.099 85.0188 124.329C85.0741 124.605 85.1239 124.898 85.1683 125.207C85.2258 125.499 85.2668 125.785 85.2912 126.066C85.3289 126.329 85.3478 126.571 85.3479 126.792C85.3634 127.01 85.3557 127.177 85.3249 127.292C85.2653 127.537 85.1261 127.723 84.9074 127.849C84.702 127.958 84.4623 128.047 84.1883 128.118C84.0513 128.153 83.8127 128.195 83.4724 128.244C83.1454 128.275 82.7874 128.311 82.3985 128.351C82.0229 128.373 81.6627 128.393 81.318 128.411C80.9733 128.429 80.7136 128.434 80.5391 128.428C80.1877 128.399 79.9258 128.334 79.7534 128.232C79.5965 128.129 79.4318 127.971 79.2594 127.759C79.1997 127.672 79.1278 127.446 79.0437 127.079C78.9573 126.697 78.8688 126.244 78.778 125.72C78.7004 125.179 78.6251 124.598 78.5519 123.977C78.4787 123.356 78.4177 122.765 78.3689 122.204C78.3355 121.64 78.3122 121.146 78.2987 120.722C78.3008 120.296 78.3382 120.006 78.4111 119.854C78.5347 119.615 78.7689 119.376 79.1135 119.137C79.4736 118.896 79.8005 118.7 80.0944 118.547C80.2424 118.479 80.439 118.419 80.6843 118.368C80.9428 118.299 81.2135 118.26 81.4963 118.252C81.7924 118.225 82.0775 118.231 82.3515 118.271C82.6233 118.295 82.8531 118.357 83.041 118.456ZM82.7721 125.835C82.7941 125.768 82.7985 125.578 82.7851 125.265C82.785 124.933 82.7605 124.542 82.7117 124.091C82.6784 123.638 82.6252 123.157 82.5521 122.646C82.4944 122.134 82.4346 121.661 82.3725 121.228C82.3105 120.795 82.2429 120.433 82.1699 120.144C82.0947 119.839 82.0305 119.667 81.9775 119.627C81.8913 119.576 81.7719 119.57 81.6195 119.607C81.4803 119.627 81.3367 119.671 81.1886 119.74C81.0384 119.793 80.9058 119.859 80.791 119.939C80.6739 120.003 80.5955 120.062 80.5557 120.115C80.379 120.314 80.3106 120.608 80.3505 120.996C80.3661 121.105 80.3949 121.416 80.4371 121.931C80.4925 122.428 80.5623 122.971 80.6465 123.558C80.7285 124.131 80.8127 124.663 80.8991 125.156C81.0009 125.647 81.0983 125.94 81.1911 126.038C81.2839 126.135 81.4044 126.204 81.5525 126.246C81.7138 126.27 81.8718 126.272 82.0265 126.249C82.1966 126.225 82.3479 126.18 82.4805 126.113C82.6263 126.029 82.7235 125.936 82.7721 125.835ZM89.1544 130.39C89.0505 130.436 88.9213 130.415 88.7666 130.327C88.6118 130.239 88.4538 130.127 88.2924 129.992C88.1443 129.84 88.0106 129.678 87.8912 129.505C87.7718 129.333 87.6878 129.187 87.6391 129.068C87.3359 127.722 87.0691 126.521 86.8389 125.465C86.6219 124.391 86.4304 123.44 86.2644 122.612C86.0983 121.783 85.9566 121.069 85.8393 120.471C85.7352 119.854 85.6521 119.329 85.5901 118.896C85.4306 117.893 85.3463 117.195 85.3373 116.802C85.3438 116.517 85.4277 116.22 85.5889 115.913C85.7655 115.604 85.9555 115.332 86.1587 115.098C86.3773 114.861 86.5795 114.674 86.765 114.537C86.966 114.398 87.1008 114.347 87.1693 114.385C87.2378 114.422 87.3219 114.678 87.4215 115.153C87.5189 115.613 87.6297 116.221 87.7537 116.976C87.8777 117.732 87.9996 118.583 88.1193 119.528C88.2545 120.472 88.3775 121.441 88.4884 122.435C88.6147 123.427 88.73 124.397 88.8342 125.345C88.9384 126.293 89.0205 127.142 89.0805 127.891C89.1382 128.624 89.176 129.219 89.1939 129.674C89.2117 130.129 89.1986 130.368 89.1544 130.39ZM94.5949 116.801C94.7165 116.879 94.8425 117.042 94.973 117.292C95.1189 117.539 95.2571 117.843 95.3876 118.203C95.5181 118.563 95.6454 118.955 95.7693 119.38C95.8932 119.804 96.0082 120.221 96.1145 120.632C96.2207 121.043 96.3081 121.433 96.3768 121.802C96.4587 122.154 96.524 122.444 96.5727 122.674C96.628 122.95 96.6779 123.243 96.7222 123.552C96.7797 123.844 96.8207 124.13 96.8451 124.411C96.8828 124.674 96.9017 124.916 96.9018 125.137C96.9173 125.355 96.9097 125.522 96.8788 125.637C96.8192 125.882 96.6801 126.068 96.4614 126.194C96.2559 126.302 96.0162 126.392 95.7422 126.463C95.6052 126.498 95.3666 126.54 95.0263 126.589C94.6993 126.62 94.3413 126.656 93.9524 126.695C93.5768 126.718 93.2166 126.738 92.8719 126.756C92.5272 126.773 92.2676 126.779 92.093 126.772C91.7416 126.744 91.4798 126.679 91.3074 126.577C91.1504 126.473 90.9857 126.315 90.8133 126.103C90.7536 126.017 90.6817 125.791 90.5976 125.424C90.5113 125.042 90.4227 124.589 90.3319 124.065C90.2543 123.524 90.179 122.943 90.1058 122.322C90.0327 121.701 89.9717 121.11 89.9228 120.549C89.8895 119.985 89.8661 119.491 89.8526 119.067C89.8547 118.641 89.8921 118.351 89.965 118.199C90.0887 117.96 90.3228 117.721 90.6674 117.482C91.0275 117.241 91.3545 117.045 91.6483 116.892C91.7963 116.823 91.993 116.764 92.2382 116.713C92.4967 116.644 92.7674 116.605 93.0502 116.596C93.3463 116.57 93.6314 116.576 93.9054 116.616C94.1772 116.64 94.407 116.702 94.5949 116.801ZM94.326 124.18C94.3481 124.113 94.3524 123.923 94.339 123.609C94.3389 123.278 94.3144 122.887 94.2656 122.436C94.2323 121.983 94.1791 121.501 94.106 120.991C94.0483 120.478 93.9885 120.006 93.9264 119.573C93.8644 119.139 93.7969 118.778 93.7238 118.489C93.6486 118.184 93.5844 118.011 93.5314 117.972C93.4452 117.921 93.3259 117.914 93.1734 117.952C93.0342 117.972 92.8906 118.016 92.7426 118.085C92.5923 118.138 92.4598 118.204 92.3449 118.284C92.2278 118.348 92.1494 118.406 92.1096 118.46C91.9329 118.658 91.8645 118.952 91.9045 119.341C91.92 119.45 91.9488 119.761 91.991 120.276C92.0464 120.773 92.1163 121.316 92.2005 121.903C92.2824 122.476 92.3666 123.008 92.453 123.501C92.5548 123.991 92.6522 124.285 92.745 124.382C92.8379 124.48 92.9583 124.549 93.1064 124.591C93.2677 124.615 93.4257 124.616 93.5804 124.594C93.7505 124.57 93.9019 124.524 94.0344 124.458C94.1802 124.374 94.2774 124.281 94.326 124.18ZM104.756 129.055C104.738 129.152 104.666 129.312 104.54 129.535C104.414 129.758 104.259 129.994 104.073 130.241C103.888 130.489 103.699 130.713 103.507 130.915C103.314 131.116 103.152 131.249 103.02 131.316C102.724 131.453 102.388 131.477 102.012 131.389C101.654 131.314 101.297 131.192 100.941 131.022C100.601 130.849 100.298 130.664 100.033 130.465C99.7698 130.282 99.5996 130.14 99.5222 130.041C99.4603 129.939 99.3928 129.799 99.3199 129.62C99.2623 129.439 99.2125 129.257 99.1705 129.073C99.1284 128.89 99.1063 128.735 99.104 128.609C99.115 128.466 99.1592 128.388 99.2365 128.377C99.3138 128.366 99.5028 128.418 99.8034 128.533C100.117 128.63 100.44 128.734 100.771 128.844C101.118 128.952 101.438 129.033 101.729 129.086C102.021 129.138 102.189 129.099 102.233 128.966C102.279 128.849 102.29 128.54 102.266 128.038C102.255 127.519 102.236 126.89 102.209 126.152C102.178 126.156 102.148 126.169 102.119 126.188C102.104 126.191 102.081 126.194 102.05 126.198C101.917 126.265 101.727 126.316 101.48 126.351C101.232 126.387 100.967 126.409 100.684 126.418C100.417 126.424 100.146 126.408 99.8721 126.368C99.6113 126.311 99.3937 126.224 99.219 126.107C99.1483 126.054 99.0654 125.971 98.9704 125.858C98.8885 125.728 98.8167 125.557 98.7547 125.345C98.695 125.258 98.58 125.007 98.4097 124.589C98.2372 124.156 98.0569 123.669 97.8688 123.127C97.6786 122.571 97.4961 122.013 97.3213 121.454C97.162 120.893 97.0734 120.44 97.0556 120.095C97.0223 119.752 97.0343 119.396 97.0916 119.024C97.1467 118.638 97.2206 118.272 97.3133 117.927C97.4214 117.58 97.5439 117.279 97.6808 117.022C97.8155 116.75 97.9613 116.556 98.1181 116.439C98.4628 116.2 98.9212 116.095 99.4936 116.123C100.066 116.152 100.691 116.275 101.37 116.494C101.363 116.337 101.408 116.157 101.505 115.953C101.603 115.75 101.719 115.568 101.853 115.406C102.001 115.227 102.156 115.095 102.317 115.008C102.476 114.907 102.607 114.88 102.708 114.929C102.759 114.953 102.829 115.164 102.917 115.562C103.004 115.944 103.1 116.451 103.206 117.083C103.326 117.697 103.443 118.406 103.558 119.211C103.687 119.997 103.804 120.817 103.911 121.67C104.03 122.505 104.141 123.334 104.243 124.156C104.361 124.976 104.453 125.728 104.519 126.413C104.601 127.096 104.66 127.671 104.695 128.14C104.746 128.606 104.767 128.911 104.756 129.055ZM101.553 118.267C101.451 118.218 101.334 118.172 101.201 118.128C101.084 118.081 100.952 118.037 100.804 117.995C100.655 117.953 100.493 117.922 100.316 117.899C100.234 117.88 100.131 117.926 100.005 118.039C99.8943 118.149 99.7817 118.3 99.6668 118.49C99.5675 118.678 99.4891 118.902 99.4318 119.163C99.3722 119.408 99.3613 119.662 99.3989 119.925C99.4034 119.956 99.4321 120.102 99.4853 120.363C99.5384 120.623 99.607 120.937 99.6911 121.304C99.7753 121.671 99.8638 122.068 99.9568 122.497C100.05 122.926 100.138 123.323 100.222 123.69C100.322 124.055 100.406 124.366 100.475 124.625C100.541 124.868 100.583 124.996 100.601 125.009C100.672 125.062 100.761 125.081 100.869 125.065C100.993 125.048 101.107 125.016 101.211 124.969C101.33 124.92 101.433 124.866 101.519 124.807C101.605 124.747 101.669 124.698 101.711 124.661C101.892 124.493 101.977 124.204 101.966 123.795C101.992 123.76 101.996 123.673 101.976 123.534C101.876 122.506 101.79 121.579 101.719 120.753C101.646 119.911 101.591 119.082 101.553 118.267ZM109.725 114.326C109.776 114.35 109.843 114.546 109.927 114.913C110.011 115.279 110.104 115.763 110.206 116.364C110.321 116.948 110.433 117.618 110.542 118.376C110.65 119.134 110.762 119.915 110.878 120.719C110.993 121.524 111.099 122.321 111.197 123.112C111.307 123.886 111.394 124.599 111.456 125.253C111.531 125.89 111.586 126.434 111.619 126.887C111.668 127.338 111.686 127.628 111.672 127.756C111.655 127.853 111.582 128.006 111.454 128.213C111.344 128.434 111.202 128.66 111.03 128.89C110.858 129.12 110.674 129.327 110.48 129.513C110.303 129.712 110.149 129.845 110.016 129.911C109.751 130.044 109.439 130.073 109.081 129.998C108.723 129.923 108.375 129.807 108.037 129.65C107.714 129.491 107.421 129.312 107.155 129.113C106.908 128.928 106.754 128.792 106.694 128.706C106.635 128.62 106.568 128.487 106.495 128.308C106.44 128.142 106.392 127.976 106.353 127.808C106.311 127.624 106.288 127.47 106.286 127.344C106.297 127.2 106.341 127.123 106.419 127.112C106.481 127.103 106.653 127.149 106.936 127.251C107.234 127.35 107.549 127.455 107.881 127.565C108.21 127.66 108.513 127.735 108.789 127.79C109.065 127.845 109.226 127.814 109.273 127.697C109.317 127.565 109.331 127.223 109.315 126.673C109.298 126.107 109.263 125.426 109.212 124.628C108.697 124.891 108.22 125.086 107.78 125.212C107.354 125.32 106.979 125.295 106.657 125.136C106.504 125.063 106.334 124.922 106.146 124.712C105.973 124.5 105.804 124.256 105.639 123.98C105.486 123.686 105.347 123.374 105.221 123.045C105.092 122.7 105.006 122.373 104.962 122.064C104.931 121.848 104.909 121.535 104.898 121.126C104.903 120.715 104.917 120.263 104.941 119.77C104.965 119.278 104.987 118.769 105.007 118.246C105.042 117.72 105.076 117.241 105.109 116.81C105.157 116.377 105.192 116.017 105.214 115.73C105.25 115.425 105.273 115.256 105.284 115.223C105.308 115.172 105.382 115.138 105.506 115.12C105.627 115.087 105.76 115.076 105.904 115.087C106.045 115.082 106.182 115.102 106.315 115.146C106.447 115.19 106.534 115.249 106.576 115.322C106.601 115.381 106.628 115.575 106.66 115.902C106.706 116.226 106.738 116.616 106.756 117.072C106.789 117.525 106.821 118.017 106.85 118.55C106.892 119.065 106.923 119.557 106.943 120.028C106.976 120.481 107.001 120.872 107.016 121.201C107.032 121.531 107.044 121.726 107.053 121.788C107.088 122.036 107.146 122.272 107.226 122.497C107.318 122.705 107.416 122.888 107.518 123.047C107.632 123.189 107.743 123.299 107.849 123.379C107.955 123.458 108.045 123.477 108.118 123.435C108.374 123.351 108.605 123.255 108.81 123.146C108.912 123.085 109.006 123.024 109.092 122.964C109.03 122.199 108.965 121.419 108.899 120.624C108.83 119.813 108.763 119.073 108.699 118.403C108.635 117.734 108.577 117.166 108.526 116.7C108.49 116.231 108.464 115.935 108.446 115.811C108.426 115.672 108.466 115.509 108.565 115.321C108.662 115.118 108.778 114.935 108.913 114.774C109.048 114.612 109.188 114.49 109.334 114.406C109.493 114.304 109.623 114.277 109.725 114.326ZM119.217 119.761C119.144 119.804 118.931 119.858 118.577 119.924C118.223 119.991 117.799 120.059 117.304 120.13C116.809 120.201 116.275 120.27 115.7 120.336C115.139 120.385 114.61 120.437 114.112 120.493C113.629 120.53 113.207 120.559 112.846 120.579C112.499 120.582 112.292 120.564 112.223 120.527C112.02 120.429 111.903 120.273 111.872 120.056C111.854 119.822 111.852 119.641 111.865 119.512C111.874 119.464 112.028 119.386 112.329 119.28C112.643 119.156 113.028 119.038 113.485 118.925C113.956 118.795 114.459 118.667 114.993 118.543C115.541 118.402 116.061 118.28 116.551 118.178C117.057 118.074 117.496 117.996 117.867 117.942C118.251 117.871 118.5 117.844 118.613 117.859C118.787 117.866 118.934 117.955 119.054 118.127C119.188 118.298 119.288 118.496 119.352 118.724C119.43 118.934 119.459 119.143 119.442 119.35C119.422 119.543 119.347 119.68 119.217 119.761ZM122.249 118.948C122.483 118.82 122.747 118.68 123.041 118.527C123.348 118.357 123.642 118.204 123.923 118.069C124.201 117.919 124.451 117.788 124.672 117.678C124.893 117.567 125.054 117.481 125.155 117.419C125.116 117.251 125.065 117.061 125.003 116.849C124.954 116.619 124.9 116.406 124.84 116.209C124.778 115.997 124.713 115.817 124.644 115.669C124.576 115.521 124.516 115.435 124.465 115.411C124.335 115.382 124.12 115.373 123.822 115.384C123.537 115.378 123.244 115.428 122.944 115.534C122.659 115.638 122.405 115.793 122.182 115.998C121.959 116.204 121.858 116.495 121.88 116.87C121.885 117.122 121.922 117.433 121.99 117.802C122.059 118.17 122.145 118.553 122.249 118.948ZM127.337 118.598C127.326 118.631 127.149 118.72 126.807 118.864C126.464 119.007 126.053 119.169 125.574 119.348C125.092 119.512 124.581 119.688 124.039 119.876C123.496 120.048 123.027 120.194 122.634 120.314C122.8 120.921 122.973 121.465 123.152 121.944C123.329 122.408 123.465 122.697 123.56 122.809C123.653 122.906 123.768 122.993 123.905 123.068C124.024 123.129 124.167 123.188 124.332 123.243C124.511 123.281 124.719 123.298 124.956 123.296C125.132 123.318 125.286 123.233 125.416 123.04C125.518 122.868 125.587 122.582 125.625 122.182C125.678 121.78 125.644 121.161 125.524 120.326C125.993 120.18 126.357 120.08 126.618 120.027C126.894 119.972 127.095 119.943 127.221 119.941C127.378 119.934 127.474 119.944 127.51 119.97C127.532 120.015 127.548 120.131 127.56 120.318C127.571 120.506 127.565 120.744 127.543 121.031C127.535 121.301 127.515 121.603 127.484 121.939C127.466 122.257 127.432 122.57 127.382 122.877C127.329 123.169 127.265 123.439 127.19 123.686C127.112 123.918 127.019 124.089 126.908 124.2C126.577 124.532 126.133 124.737 125.576 124.817C125.017 124.881 124.457 124.883 123.895 124.821C123.332 124.744 122.819 124.636 122.357 124.497C121.893 124.342 121.597 124.203 121.469 124.079C121.378 123.998 121.275 123.776 121.16 123.413C121.043 123.036 120.923 122.579 120.799 122.045C120.69 121.508 120.582 120.916 120.473 120.268C120.365 119.621 120.281 118.985 120.224 118.362C120.181 117.737 120.161 117.156 120.163 116.619C120.181 116.08 120.244 115.637 120.352 115.29C120.517 114.792 120.842 114.359 121.326 113.99C121.81 113.621 122.338 113.34 122.91 113.147C123.482 112.955 124.037 112.86 124.574 112.862C125.126 112.862 125.553 112.974 125.853 113.199C126.03 113.332 126.213 113.621 126.404 114.068C126.592 114.498 126.748 115.036 126.872 115.682C126.881 115.743 126.914 115.92 126.971 116.212C127.029 116.504 127.082 116.82 127.131 117.16C127.193 117.482 127.245 117.791 127.287 118.084C127.329 118.378 127.346 118.55 127.337 118.598ZM134.949 114.051C134.984 114.298 135.004 114.659 135.009 115.132C135.029 115.602 135.032 116.123 135.019 116.693C135.004 117.247 134.984 117.826 134.96 118.43C134.949 119.015 134.924 119.555 134.885 120.05C134.861 120.543 134.833 120.957 134.802 121.293C134.787 121.627 134.774 121.81 134.763 121.844C134.738 121.894 134.658 121.938 134.521 121.973C134.397 121.991 134.248 121.996 134.073 121.99C133.914 121.981 133.761 121.956 133.613 121.914C133.48 121.87 133.392 121.803 133.347 121.715C133.323 121.655 133.284 121.44 133.231 121.069C133.193 120.695 133.146 120.252 133.088 119.739C133.044 119.209 132.995 118.648 132.942 118.056C132.886 117.448 132.837 116.887 132.795 116.372C132.766 115.839 132.733 115.387 132.695 115.013C132.673 114.637 132.656 114.411 132.645 114.334C132.605 114.055 132.537 113.797 132.439 113.558C132.355 113.302 132.261 113.086 132.157 112.912C132.053 112.737 131.941 112.611 131.819 112.534C131.711 112.439 131.62 112.413 131.547 112.455C131.351 112.514 131.188 112.593 131.06 112.69C130.93 112.772 130.824 112.858 130.742 112.949C130.647 113.057 130.577 113.178 130.533 113.31C130.522 113.343 130.505 113.441 130.48 113.602C130.472 113.761 130.482 113.941 130.51 114.142C130.519 114.204 130.551 114.428 130.607 114.815C130.66 115.186 130.717 115.636 130.776 116.164C130.852 116.69 130.926 117.263 130.999 117.884C131.086 118.487 131.159 119.053 131.219 119.581C131.292 120.092 131.347 120.533 131.385 120.907C131.423 121.28 131.437 121.491 131.428 121.54C131.411 121.637 131.352 121.78 131.253 121.968C131.151 122.14 131.033 122.307 130.898 122.468C130.763 122.63 130.632 122.759 130.504 122.856C130.374 122.938 130.279 122.936 130.219 122.85C130.166 122.81 130.087 122.592 129.983 122.197C129.877 121.786 129.751 121.291 129.605 120.712C129.472 120.115 129.325 119.474 129.163 118.786C128.999 118.084 128.848 117.411 128.708 116.768C128.569 116.125 128.446 115.543 128.34 115.021C128.233 114.5 128.156 114.124 128.107 113.895C128.045 113.572 127.978 113.211 127.905 112.811C127.829 112.395 127.759 112.011 127.692 111.657C127.639 111.286 127.594 110.969 127.556 110.706C127.531 110.426 127.538 110.251 127.576 110.182C127.598 110.116 127.696 110.086 127.87 110.093C128.061 110.097 128.263 110.131 128.477 110.195C128.705 110.242 128.92 110.313 129.124 110.411C129.325 110.492 129.464 110.583 129.541 110.682C129.585 110.771 129.64 110.873 129.704 110.99C129.766 111.092 129.831 111.272 129.9 111.531C130.14 111.338 130.407 111.158 130.698 110.99C130.988 110.806 131.275 110.663 131.56 110.559C131.858 110.437 132.149 110.372 132.431 110.363C132.712 110.338 132.971 110.38 133.207 110.489C133.362 110.577 133.528 110.742 133.704 110.985C133.897 111.226 134.073 111.517 134.232 111.857C134.407 112.195 134.554 112.561 134.673 112.954C134.806 113.33 134.898 113.695 134.949 114.051ZM142.04 110.502C142.149 110.597 142.25 110.7 142.345 110.813C142.438 110.91 142.53 111.055 142.621 111.247C142.709 111.424 142.791 111.665 142.866 111.97C142.957 112.272 143.038 112.671 143.109 113.166C143.222 113.955 143.313 114.755 143.381 115.566C143.464 116.359 143.532 117.059 143.588 117.667C143.65 118.211 143.706 118.716 143.757 119.182C143.808 119.648 143.852 120.06 143.887 120.418C143.92 120.761 143.936 121.035 143.934 121.24C143.947 121.443 143.947 121.554 143.934 121.572C143.879 121.627 143.776 121.626 143.626 121.568C143.489 121.493 143.333 121.397 143.158 121.28C142.999 121.161 142.847 121.033 142.701 120.896C142.555 120.759 142.46 120.646 142.416 120.558C142.404 120.481 142.349 120.26 142.25 119.895C141.909 120.165 141.522 120.378 141.086 120.535C140.649 120.677 140.205 120.772 139.754 120.821C139.317 120.852 138.902 120.824 138.511 120.738C138.12 120.652 137.815 120.507 137.596 120.301C137.505 120.219 137.416 120.09 137.327 119.914C137.254 119.735 137.178 119.532 137.099 119.307C137.032 119.064 136.965 118.813 136.896 118.555C136.825 118.281 136.765 118.029 136.717 117.799C136.599 117.2 136.603 116.671 136.726 116.211C136.847 115.736 137.14 115.355 137.604 115.068C137.807 114.944 138.087 114.856 138.442 114.805C138.811 114.737 139.177 114.7 139.54 114.696C139.915 114.673 140.254 114.672 140.557 114.692C140.858 114.696 141.049 114.708 141.131 114.728C140.956 113.948 140.812 113.274 140.699 112.706C140.584 112.123 140.468 111.753 140.35 111.596C140.258 111.499 140.149 111.404 140.025 111.311C139.922 111.247 139.786 111.18 139.618 111.109C139.45 111.038 139.254 110.995 139.031 110.98C138.856 110.974 138.712 111.065 138.597 111.255C138.495 111.428 138.419 111.723 138.369 112.14C138.331 112.54 138.362 113.144 138.462 113.95C137.923 114.043 137.505 114.103 137.209 114.13C136.926 114.139 136.713 114.138 136.569 114.127C136.395 114.12 136.289 114.096 136.251 114.054C136.211 113.996 136.195 113.77 136.201 113.374C136.206 112.963 136.229 112.518 136.27 112.039C136.328 111.557 136.404 111.096 136.499 110.656C136.609 110.214 136.749 109.926 136.919 109.791C137.259 109.521 137.689 109.381 138.208 109.37C138.743 109.356 139.272 109.414 139.796 109.545C140.32 109.675 140.793 109.836 141.215 110.028C141.637 110.22 141.912 110.378 142.04 110.502ZM141.572 117.482C141.561 117.405 141.555 117.303 141.552 117.177C141.548 117.036 141.536 116.896 141.516 116.756C141.496 116.617 141.469 116.487 141.436 116.365C141.418 116.242 141.39 116.151 141.35 116.094C141.29 116.007 141.14 115.95 140.899 115.921C140.674 115.891 140.421 115.887 140.14 115.912C139.857 115.921 139.593 115.951 139.348 116.002C139.1 116.037 138.935 116.092 138.851 116.167C138.738 116.263 138.661 116.384 138.619 116.532C138.592 116.678 138.592 116.899 138.619 117.195C138.639 117.334 138.668 117.48 138.705 117.633C138.743 117.785 138.781 117.937 138.818 118.09C138.869 118.225 138.918 118.344 138.964 118.448C139.026 118.549 139.083 118.612 139.133 118.637C139.253 118.699 139.448 118.742 139.72 118.766C140.005 118.772 140.286 118.748 140.562 118.692C140.836 118.622 141.078 118.492 141.288 118.304C141.498 118.116 141.592 117.842 141.572 117.482ZM149.779 109.322C149.947 109.393 150.126 109.541 150.317 109.766C150.52 109.974 150.707 110.231 150.877 110.538C151.063 110.843 151.221 111.175 151.351 111.535C151.48 111.88 151.567 112.215 151.614 112.54C151.647 112.772 151.662 113.101 151.66 113.527C151.672 113.936 151.666 114.395 151.644 114.903C151.62 115.396 151.592 115.913 151.559 116.454C151.524 116.98 151.483 117.467 151.437 117.916C151.406 118.362 151.374 118.746 151.341 119.066C151.306 119.371 151.277 119.557 151.255 119.623C151.204 119.82 151.158 119.992 151.116 120.14C151.087 120.271 151.039 120.372 150.97 120.445C150.818 120.593 150.615 120.717 150.361 120.817C150.104 120.901 149.838 120.97 149.562 121.026C149.286 121.081 149.015 121.12 148.75 121.142C148.498 121.147 148.299 121.136 148.153 121.109C148.089 121.103 148.017 121.097 147.938 121.093C147.872 121.071 147.798 121.05 147.716 121.03C147.599 121.315 147.455 121.58 147.285 121.825C147.113 122.055 146.939 122.167 146.765 122.16C146.701 122.154 146.595 121.909 146.446 121.425C146.314 120.939 146.151 120.299 145.958 119.506C145.764 118.697 145.553 117.78 145.328 116.755C145.102 115.73 144.88 114.68 144.663 113.606C144.444 112.517 144.236 111.45 144.039 110.405C143.842 109.36 143.669 108.429 143.521 107.614C143.386 106.781 143.288 106.1 143.228 105.572C143.166 105.029 143.163 104.729 143.218 104.674C143.273 104.619 143.418 104.638 143.652 104.73C143.9 104.805 144.172 104.94 144.468 105.134C144.762 105.313 145.039 105.542 145.3 105.82C145.576 106.096 145.777 106.391 145.9 106.705C145.982 106.946 146.074 107.367 146.176 107.968C146.293 108.566 146.411 109.276 146.528 110.095C147.171 109.735 147.773 109.475 148.334 109.316C148.911 109.154 149.393 109.156 149.779 109.322ZM149.27 112.875C149.235 112.628 149.162 112.394 149.051 112.173C148.939 111.936 148.816 111.741 148.683 111.586C148.548 111.416 148.412 111.294 148.275 111.218C148.138 111.143 148.026 111.128 147.937 111.172C147.772 111.227 147.616 111.297 147.47 111.381C147.322 111.45 147.197 111.515 147.096 111.577C146.965 111.659 146.857 111.729 146.771 111.789C146.886 112.704 146.996 113.635 147.1 114.583C147.22 115.529 147.338 116.412 147.456 117.231C147.513 117.634 147.572 117.988 147.632 118.295C147.689 118.587 147.724 118.771 147.735 118.849C147.834 119.213 147.973 119.462 148.149 119.594C148.2 119.619 148.276 119.655 148.378 119.704C148.493 119.735 148.608 119.765 148.723 119.796C148.851 119.81 148.97 119.816 149.081 119.816C149.189 119.801 149.278 119.756 149.346 119.683C149.359 119.666 149.366 119.491 149.366 119.16C149.379 118.811 149.382 118.392 149.375 117.903C149.368 117.415 149.356 116.888 149.338 116.322C149.333 115.739 149.328 115.203 149.321 114.715C149.312 114.211 149.298 113.787 149.281 113.442C149.278 113.095 149.275 112.906 149.27 112.875ZM155.926 120.824C155.822 120.871 155.693 120.85 155.538 120.762C155.383 120.673 155.225 120.562 155.064 120.427C154.916 120.275 154.782 120.112 154.663 119.94C154.543 119.768 154.459 119.622 154.411 119.502C154.107 118.157 153.841 116.956 153.61 115.9C153.393 114.826 153.202 113.875 153.036 113.046C152.87 112.218 152.728 111.504 152.611 110.905C152.507 110.289 152.424 109.764 152.361 109.331C152.202 108.328 152.118 107.629 152.109 107.236C152.115 106.951 152.199 106.655 152.36 106.348C152.537 106.038 152.727 105.766 152.93 105.532C153.149 105.296 153.351 105.109 153.536 104.972C153.737 104.832 153.872 104.782 153.941 104.819C154.009 104.857 154.093 105.113 154.193 105.588C154.29 106.048 154.401 106.655 154.525 107.411C154.649 108.167 154.771 109.017 154.891 109.963C155.026 110.906 155.149 111.875 155.26 112.87C155.386 113.862 155.501 114.832 155.606 115.78C155.71 116.728 155.792 117.576 155.852 118.325C155.91 119.059 155.947 119.653 155.965 120.108C155.983 120.564 155.97 120.802 155.926 120.824ZM158.976 113.687C159.21 113.559 159.474 113.418 159.768 113.266C160.075 113.095 160.369 112.943 160.649 112.808C160.928 112.658 161.177 112.527 161.398 112.416C161.619 112.306 161.78 112.22 161.882 112.158C161.842 111.99 161.791 111.8 161.729 111.588C161.681 111.358 161.626 111.145 161.567 110.948C161.505 110.736 161.439 110.556 161.371 110.408C161.302 110.26 161.243 110.174 161.192 110.149C161.061 110.121 160.847 110.112 160.549 110.123C160.264 110.117 159.971 110.166 159.67 110.273C159.385 110.377 159.131 110.531 158.908 110.737C158.685 110.943 158.585 111.233 158.607 111.609C158.612 111.861 158.648 112.171 158.717 112.54C158.785 112.909 158.872 113.291 158.976 113.687ZM164.063 113.337C164.052 113.37 163.876 113.459 163.533 113.602C163.191 113.746 162.78 113.908 162.3 114.087C161.819 114.25 161.307 114.426 160.766 114.614C160.222 114.787 159.754 114.933 159.361 115.052C159.527 115.66 159.699 116.203 159.878 116.683C160.055 117.147 160.191 117.435 160.287 117.548C160.379 117.645 160.494 117.731 160.631 117.806C160.751 117.868 160.893 117.927 161.059 117.982C161.238 118.019 161.446 118.037 161.682 118.035C161.859 118.057 162.012 117.971 162.143 117.779C162.244 117.607 162.314 117.321 162.351 116.921C162.404 116.518 162.371 115.9 162.251 115.065C162.719 114.918 163.084 114.819 163.345 114.766C163.621 114.71 163.822 114.682 163.948 114.679C164.105 114.673 164.201 114.683 164.236 114.709C164.258 114.753 164.275 114.869 164.286 115.057C164.297 115.245 164.292 115.482 164.27 115.77C164.261 116.039 164.241 116.342 164.211 116.678C164.193 116.996 164.159 117.309 164.108 117.616C164.055 117.908 163.991 118.177 163.916 118.425C163.839 118.657 163.745 118.828 163.635 118.939C163.303 119.27 162.859 119.476 162.303 119.556C161.744 119.62 161.183 119.621 160.622 119.56C160.059 119.483 159.546 119.374 159.084 119.235C158.62 119.081 158.324 118.942 158.196 118.818C158.105 118.736 158.002 118.514 157.887 118.152C157.77 117.774 157.649 117.318 157.525 116.783C157.417 116.246 157.308 115.654 157.2 115.007C157.091 114.359 157.008 113.724 156.95 113.101C156.908 112.476 156.888 111.895 156.89 111.358C156.907 110.818 156.97 110.375 157.078 110.028C157.244 109.531 157.569 109.098 158.052 108.729C158.536 108.359 159.064 108.079 159.636 107.886C160.209 107.694 160.763 107.598 161.3 107.6C161.853 107.6 162.279 107.713 162.58 107.938C162.757 108.071 162.94 108.36 163.13 108.806C163.318 109.237 163.474 109.775 163.598 110.42C163.607 110.482 163.64 110.659 163.698 110.951C163.755 111.242 163.809 111.558 163.857 111.898C163.919 112.221 163.971 112.529 164.014 112.823C164.056 113.117 164.072 113.288 164.063 113.337ZM170.752 103.169C170.851 103.533 170.973 104.273 171.117 105.389C171.186 105.869 171.253 106.451 171.32 107.136C171.402 107.819 171.488 108.643 171.579 109.608C171.668 110.559 171.764 111.666 171.866 112.929C171.981 114.176 172.098 115.595 172.215 117.189C172.207 117.348 172.161 117.528 172.08 117.729C172.014 117.928 171.93 118.113 171.828 118.286C171.727 118.458 171.614 118.609 171.49 118.737C171.364 118.849 171.245 118.898 171.132 118.883C171.099 118.872 171.043 118.753 170.963 118.528C170.899 118.301 170.821 117.98 170.731 117.567C170.079 117.976 169.452 118.279 168.848 118.476C168.245 118.673 167.733 118.675 167.31 118.483C167.142 118.413 166.965 118.272 166.777 118.062C166.602 117.835 166.43 117.568 166.259 117.26C166.089 116.953 165.94 116.628 165.811 116.283C165.681 115.923 165.592 115.58 165.546 115.255C165.513 115.023 165.484 114.712 165.459 114.321C165.435 113.93 165.414 113.507 165.396 113.051C165.376 112.581 165.363 112.109 165.359 111.636C165.352 111.148 165.351 110.698 165.355 110.287C165.359 109.876 165.365 109.528 165.371 109.243C165.378 108.958 165.392 108.782 165.414 108.716C165.418 108.526 165.45 108.363 165.51 108.229C165.585 108.092 165.649 107.988 165.702 107.917C165.839 107.771 166.05 107.646 166.335 107.542C166.635 107.436 166.947 107.352 167.27 107.29C167.608 107.226 167.926 107.188 168.224 107.177C168.52 107.15 168.741 107.15 168.887 107.177L168.933 107.17C168.628 105.256 168.416 103.779 168.299 102.739C168.181 101.698 168.163 101.132 168.245 101.042C168.3 100.986 168.445 101.005 168.679 101.098C168.913 101.19 169.163 101.336 169.428 101.535C169.709 101.732 169.973 101.978 170.221 102.274C170.482 102.552 170.659 102.85 170.752 103.169ZM169.086 116.666C169.296 116.589 169.482 116.507 169.643 116.421C169.818 116.317 169.962 116.225 170.077 116.145C170.208 116.063 170.312 115.97 170.392 115.863C170.319 115.464 170.239 115.017 170.153 114.524C170.064 114.016 169.973 113.493 169.88 112.953C169.787 112.414 169.693 111.867 169.598 111.313C169.501 110.743 169.406 110.196 169.316 109.672C169.291 109.502 169.239 109.36 169.16 109.245C169.096 109.128 169.019 109.036 168.931 108.97C168.88 108.945 168.782 108.92 168.636 108.894C168.488 108.852 168.319 108.829 168.129 108.824C167.952 108.802 167.778 108.803 167.608 108.828C167.454 108.85 167.35 108.896 167.297 108.967C167.268 108.987 167.259 109.146 167.27 109.444C167.295 109.725 167.323 110.084 167.354 110.522C167.398 110.941 167.44 111.401 167.48 111.9C167.536 112.398 167.587 112.864 167.633 113.299C167.68 113.734 167.718 114.108 167.746 114.419C167.775 114.731 167.792 114.902 167.796 114.933C167.834 115.196 167.9 115.439 167.995 115.662C168.106 115.883 168.229 116.079 168.364 116.249C168.496 116.403 168.632 116.526 168.771 116.616C168.908 116.692 169.013 116.708 169.086 116.666ZM75.5174 154.939C75.7516 154.811 76.0156 154.67 76.3094 154.518C76.6165 154.347 76.9103 154.195 77.1909 154.06C77.4693 153.91 77.7189 153.779 77.9398 153.668C78.1608 153.558 78.322 153.472 78.4237 153.41C78.3838 153.242 78.3329 153.052 78.271 152.84C78.2223 152.61 78.168 152.397 78.1083 152.2C78.0463 151.988 77.9811 151.808 77.9125 151.66C77.844 151.512 77.7843 151.426 77.7334 151.401C77.6031 151.373 77.3887 151.364 77.0904 151.375C76.8053 151.369 76.5126 151.418 76.2121 151.525C75.9271 151.629 75.673 151.783 75.4499 151.989C75.2268 152.195 75.1264 152.485 75.1487 152.861C75.1532 153.113 75.1898 153.423 75.2584 153.792C75.327 154.161 75.4134 154.543 75.5174 154.939ZM80.6051 154.589C80.5941 154.622 80.4173 154.711 80.0749 154.854C79.7324 154.998 79.3215 155.16 78.842 155.339C78.3604 155.502 77.8489 155.678 77.3076 155.866C76.7641 156.039 76.2957 156.185 75.9024 156.304C76.0684 156.912 76.2409 157.455 76.4201 157.935C76.5971 158.399 76.7331 158.687 76.8281 158.8C76.921 158.897 77.0359 158.983 77.173 159.058C77.2923 159.12 77.4349 159.179 77.6006 159.234C77.7796 159.271 77.9873 159.289 78.2238 159.287C78.4005 159.309 78.5541 159.223 78.6844 159.031C78.786 158.859 78.8555 158.573 78.8929 158.173C78.9457 157.77 78.9124 157.152 78.7927 156.316C79.2611 156.17 79.6257 156.071 79.8864 156.018C80.1626 155.962 80.3637 155.934 80.4896 155.931C80.6465 155.925 80.7426 155.935 80.778 155.961C80.8001 156.005 80.8167 156.121 80.8278 156.309C80.839 156.497 80.8335 156.734 80.8116 157.022C80.8028 157.291 80.783 157.594 80.7522 157.93C80.7347 158.248 80.7006 158.561 80.6499 158.868C80.5969 159.16 80.533 159.429 80.4579 159.677C80.3807 159.909 80.2868 160.08 80.1764 160.191C79.8451 160.522 79.401 160.728 78.8442 160.808C78.2852 160.872 77.725 160.873 77.1637 160.812C76.6002 160.735 76.0875 160.626 75.6256 160.487C75.1615 160.333 74.8654 160.194 74.7371 160.07C74.6465 159.988 74.5437 159.766 74.4286 159.404C74.3114 159.026 74.1908 158.57 74.0668 158.035C73.9583 157.498 73.8498 156.906 73.7413 156.259C73.6328 155.611 73.5496 154.976 73.492 154.353C73.4497 153.728 73.4296 153.147 73.4316 152.61C73.4491 152.07 73.5119 151.627 73.62 151.28C73.7856 150.783 74.1102 150.35 74.594 149.981C75.0778 149.611 75.6058 149.331 76.178 149.138C76.7503 148.946 77.3049 148.85 77.8418 148.852C78.3942 148.852 78.8208 148.965 79.1214 149.19C79.2982 149.323 79.4817 149.612 79.6719 150.058C79.8599 150.489 80.0159 151.027 80.1399 151.672C80.1488 151.734 80.182 151.911 80.2396 152.203C80.2971 152.494 80.3503 152.81 80.399 153.15C80.461 153.473 80.5131 153.781 80.5552 154.075C80.5973 154.369 80.6139 154.54 80.6051 154.589ZM87.2932 144.421C87.3928 144.785 87.5146 145.525 87.6587 146.641C87.7274 147.121 87.795 147.703 87.8616 148.388C87.9436 149.071 88.0301 149.895 88.1211 150.86C88.2098 151.811 88.3053 152.918 88.4074 154.181C88.5228 155.428 88.6394 156.847 88.7571 158.441C88.7483 158.6 88.7031 158.78 88.6214 158.981C88.5552 159.18 88.4713 159.365 88.3697 159.538C88.2682 159.71 88.1555 159.861 88.0318 159.989C87.9059 160.101 87.7866 160.15 87.6739 160.135C87.6408 160.124 87.5844 160.005 87.5047 159.78C87.4406 159.553 87.3631 159.232 87.2723 158.819C86.6206 159.228 85.9932 159.531 85.39 159.728C84.7868 159.925 84.2742 159.927 83.8521 159.735C83.6841 159.665 83.5062 159.524 83.3183 159.314C83.1436 159.087 82.9711 158.82 82.8009 158.512C82.6306 158.205 82.4813 157.88 82.353 157.535C82.2225 157.175 82.134 156.832 82.0875 156.507C82.0542 156.275 82.0254 155.964 82.0009 155.573C81.9765 155.182 81.9553 154.759 81.9374 154.303C81.9174 153.833 81.905 153.361 81.9004 152.888C81.8936 152.4 81.8923 151.95 81.8966 151.539C81.9008 151.128 81.9062 150.78 81.9127 150.495C81.9193 150.21 81.9336 150.034 81.9556 149.968C81.96 149.778 81.992 149.615 82.0516 149.481C82.1266 149.344 82.1907 149.24 82.2437 149.169C82.3806 149.023 82.5916 148.898 82.8766 148.794C83.1771 148.688 83.4886 148.604 83.8112 148.542C84.1493 148.478 84.4675 148.44 84.7658 148.429C85.0619 148.402 85.2828 148.402 85.4287 148.429L85.4751 148.422C85.1694 146.508 84.9578 145.031 84.8403 143.991C84.7228 142.95 84.7049 142.384 84.7866 142.294C84.8418 142.238 84.9865 142.257 85.2208 142.35C85.4551 142.442 85.7048 142.588 85.9701 142.787C86.2508 142.984 86.5149 143.23 86.7625 143.526C87.0234 143.804 87.2003 144.102 87.2932 144.421ZM85.628 157.918C85.8379 157.841 86.0234 157.759 86.1847 157.673C86.3592 157.569 86.5039 157.477 86.6188 157.397C86.7492 157.315 86.8541 157.222 86.9336 157.115C86.8605 156.716 86.7808 156.269 86.6944 155.776C86.6058 155.268 86.515 154.745 86.422 154.205C86.329 153.666 86.2349 153.119 86.1396 152.565C86.0422 151.995 85.948 151.448 85.8572 150.924C85.8329 150.754 85.7809 150.612 85.7013 150.497C85.6372 150.38 85.5609 150.288 85.4725 150.222C85.4216 150.197 85.3233 150.172 85.1775 150.146C85.0294 150.104 84.8603 150.081 84.6703 150.076C84.4935 150.054 84.3201 150.055 84.1499 150.08C83.9952 150.102 83.8914 150.148 83.8384 150.219C83.8097 150.239 83.8009 150.398 83.8121 150.696C83.8365 150.977 83.8643 151.336 83.8954 151.774C83.9397 152.193 83.9819 152.653 84.0219 153.152C84.0773 153.65 84.1283 154.116 84.1749 154.551C84.2214 154.986 84.2592 155.36 84.288 155.671C84.3168 155.983 84.3335 156.154 84.3379 156.185C84.3756 156.448 84.442 156.691 84.5371 156.914C84.6477 157.135 84.7704 157.331 84.9052 157.501C85.0379 157.655 85.1738 157.778 85.3131 157.868C85.4501 157.944 85.5551 157.96 85.628 157.918ZM94.1883 146.44C94.2259 146.482 94.3033 146.692 94.4206 147.069C94.5378 147.447 94.6684 147.918 94.8122 148.481C94.9716 149.042 95.1298 149.651 95.2869 150.307C95.4595 150.961 95.62 151.586 95.7683 152.18C95.932 152.772 96.0714 153.305 96.1865 153.777C96.3016 154.25 96.3868 154.569 96.4421 154.735C96.5284 155.007 96.6269 155.309 96.7375 155.64C96.8459 155.956 96.9454 156.265 97.0362 156.568C97.1247 156.855 97.1922 157.106 97.2386 157.32C97.3006 157.532 97.3117 157.665 97.2719 157.718C97.2477 157.769 97.1261 157.802 96.9074 157.818C96.6864 157.818 96.44 157.806 96.1682 157.781C95.9097 157.739 95.6577 157.689 95.4124 157.629C95.1804 157.552 95.0268 157.471 94.9516 157.387C94.8787 157.319 94.8002 157.212 94.7162 157.066C94.6476 156.918 94.547 156.656 94.4142 156.281C94.2773 156.537 94.1272 156.811 93.9638 157.103C93.8136 157.377 93.6612 157.635 93.5067 157.879C93.3499 158.106 93.203 158.293 93.066 158.439C92.9291 158.585 92.822 158.663 92.7446 158.674C92.6209 158.692 92.4176 158.595 92.1346 158.383C91.8495 158.155 91.5599 157.897 91.2659 157.608C90.9719 157.318 90.7033 157.041 90.4601 156.776C90.217 156.511 90.081 156.333 90.0522 156.242C90.008 156.154 89.956 155.901 89.8962 155.484C89.8518 155.064 89.8008 154.597 89.7431 154.085C89.6987 153.555 89.6555 153.032 89.6133 152.517C89.5689 151.987 89.54 151.565 89.5266 151.251C89.5132 150.937 89.4954 150.592 89.4732 150.217C89.4642 149.824 89.4596 149.461 89.4595 149.13C89.4571 148.783 89.4537 148.483 89.4492 148.231C89.4601 147.977 89.4777 147.825 89.502 147.774C89.5263 147.723 89.6081 147.688 89.7473 147.668C89.8997 147.63 90.0555 147.616 90.2146 147.625C90.387 147.616 90.5472 147.632 90.6952 147.674C90.8411 147.701 90.9428 147.749 91.0002 147.82C91.04 147.877 91.0843 148.076 91.133 148.416C91.195 148.739 91.2604 149.14 91.3291 149.619C91.3955 150.084 91.4687 150.594 91.5484 151.151C91.626 151.692 91.6914 152.204 91.7446 152.685C91.8111 153.149 91.8609 153.553 91.8942 153.895C91.9408 154.22 91.9685 154.413 91.9773 154.475C91.995 154.599 92.099 154.829 92.2892 155.164C92.4948 155.498 92.6982 155.816 92.8994 156.119L93.8998 154.507C93.8444 154.231 93.778 153.878 93.7005 153.447C93.6384 153.014 93.5653 152.559 93.4812 152.081C93.397 151.604 93.3118 151.119 93.2254 150.626C93.139 150.134 93.067 149.686 93.0094 149.284C92.9518 148.882 92.9042 148.549 92.8665 148.286C92.8288 148.023 92.8144 147.868 92.8232 147.819C92.8563 147.72 92.9314 147.583 93.0485 147.408C93.1655 147.233 93.2991 147.064 93.4493 146.901C93.5995 146.737 93.7387 146.607 93.8668 146.509C94.0104 146.41 94.1176 146.387 94.1883 146.44ZM100.25 145.287C100.179 145.234 100.039 145.191 99.8292 145.158C99.6193 145.125 99.4834 145.168 99.4215 145.288C99.384 145.356 99.3355 145.568 99.276 145.924C99.2164 146.28 99.1625 146.729 99.1141 147.273C99.0811 147.814 99.067 148.432 99.0717 149.126C99.0919 149.818 99.154 150.527 99.2582 151.254C99.3335 151.78 99.4287 152.279 99.5438 152.752C99.6567 153.209 99.7695 153.611 99.8823 153.958C100.011 154.303 100.137 154.577 100.261 154.78C100.4 154.981 100.525 155.082 100.635 155.082C100.728 155.068 100.821 154.944 100.913 154.71C101.022 154.474 101.118 154.207 101.202 153.911C101.299 153.597 101.376 153.31 101.433 153.049C101.504 152.771 101.557 152.59 101.592 152.506C101.687 152.287 101.825 152.094 102.006 151.926C102.185 151.742 102.344 151.64 102.483 151.62C102.561 151.609 102.623 151.656 102.669 151.76C102.731 151.861 102.781 151.988 102.818 152.141C102.869 152.275 102.906 152.42 102.928 152.575C102.95 152.73 102.968 152.853 102.981 152.946C103.005 153.116 103.02 153.438 103.025 153.911C103.029 154.383 103.004 154.869 102.949 155.366C102.909 155.861 102.839 156.305 102.737 156.698C102.651 157.089 102.522 157.289 102.35 157.298C102.177 157.307 101.911 157.266 101.551 157.176C101.191 157.086 100.819 156.973 100.437 156.838C100.07 156.702 99.7265 156.561 99.406 156.418C99.0988 156.257 98.9065 156.126 98.8291 156.027C98.7517 155.928 98.6213 155.678 98.4377 155.278C98.2519 154.863 98.0451 154.356 97.8173 153.757C97.6049 153.156 97.3992 152.491 97.2 151.762C97.0008 151.033 96.8481 150.297 96.7417 149.554C96.6354 148.812 96.5456 148.075 96.4724 147.344C96.4146 146.61 96.3912 145.951 96.402 145.365C96.4128 144.779 96.4624 144.299 96.5506 143.923C96.6543 143.545 96.8133 143.333 97.0276 143.286C97.622 143.138 98.233 143.106 98.8606 143.19C99.5014 143.256 100.082 143.394 100.601 143.603C101.133 143.795 101.577 144.024 101.93 144.289C102.282 144.538 102.48 144.763 102.524 144.961C102.57 145.176 102.598 145.48 102.607 145.873C102.632 146.264 102.634 146.666 102.614 147.079C102.608 147.475 102.581 147.842 102.535 148.18C102.502 148.5 102.458 148.688 102.403 148.743C102.283 148.903 102.142 149.073 101.979 149.254C101.815 149.435 101.642 149.492 101.458 149.423C101.392 149.401 101.321 149.293 101.246 149.099C101.169 148.889 101.085 148.632 100.994 148.33C100.919 148.025 100.84 147.697 100.758 147.345C100.676 146.994 100.599 146.674 100.526 146.384C100.466 146.077 100.406 145.825 100.346 145.629C100.3 145.414 100.268 145.3 100.25 145.287ZM109.693 144.432C109.801 144.527 109.903 144.63 109.998 144.743C110.091 144.84 110.183 144.985 110.273 145.177C110.362 145.354 110.444 145.595 110.519 145.9C110.61 146.202 110.69 146.601 110.761 147.096C110.874 147.885 110.965 148.685 111.034 149.496C111.116 150.289 111.185 150.989 111.24 151.597C111.303 152.141 111.359 152.646 111.41 153.112C111.461 153.578 111.504 153.99 111.54 154.348C111.573 154.691 111.589 154.965 111.587 155.17C111.6 155.373 111.6 155.484 111.587 155.502C111.531 155.557 111.429 155.556 111.278 155.498C111.141 155.423 110.986 155.327 110.811 155.21C110.652 155.091 110.499 154.963 110.353 154.826C110.207 154.689 110.112 154.576 110.068 154.488C110.057 154.411 110.002 154.19 109.902 153.825C109.562 154.095 109.174 154.308 108.739 154.465C108.302 154.607 107.857 154.702 107.407 154.751C106.969 154.782 106.555 154.754 106.164 154.668C105.773 154.582 105.468 154.437 105.249 154.231C105.158 154.15 105.069 154.02 104.98 153.844C104.907 153.665 104.831 153.462 104.751 153.237C104.685 152.994 104.617 152.743 104.549 152.485C104.478 152.211 104.418 151.959 104.369 151.729C104.252 151.13 104.255 150.601 104.379 150.141C104.5 149.666 104.793 149.285 105.257 148.998C105.46 148.874 105.739 148.786 106.095 148.735C106.464 148.667 106.83 148.63 107.192 148.626C107.568 148.603 107.907 148.602 108.21 148.622C108.51 148.626 108.701 148.638 108.783 148.658C108.608 147.878 108.464 147.204 108.352 146.636C108.236 146.053 108.12 145.683 108.003 145.526C107.91 145.429 107.802 145.334 107.678 145.241C107.574 145.177 107.438 145.11 107.27 145.039C107.102 144.969 106.907 144.926 106.684 144.91C106.509 144.904 106.364 144.995 106.25 145.185C106.148 145.358 106.072 145.653 106.021 146.07C105.984 146.47 106.015 147.074 106.115 147.88C105.576 147.973 105.158 148.033 104.862 148.06C104.579 148.069 104.366 148.068 104.222 148.057C104.048 148.05 103.941 148.026 103.904 147.984C103.864 147.926 103.847 147.7 103.854 147.304C103.858 146.893 103.881 146.448 103.923 145.969C103.98 145.487 104.056 145.026 104.151 144.586C104.261 144.144 104.402 143.856 104.572 143.721C104.912 143.451 105.342 143.311 105.861 143.3C106.396 143.286 106.925 143.344 107.449 143.475C107.972 143.605 108.445 143.766 108.868 143.958C109.29 144.15 109.565 144.308 109.693 144.432ZM109.225 151.412C109.214 151.335 109.207 151.233 109.205 151.107C109.201 150.966 109.188 150.826 109.168 150.686C109.149 150.547 109.122 150.417 109.089 150.295C109.071 150.172 109.042 150.081 109.002 150.024C108.943 149.937 108.793 149.88 108.552 149.851C108.326 149.821 108.073 149.817 107.793 149.842C107.51 149.851 107.246 149.881 107 149.932C106.753 149.967 106.587 150.022 106.503 150.097C106.391 150.193 106.313 150.314 106.271 150.462C106.245 150.608 106.245 150.829 106.272 151.125C106.292 151.264 106.32 151.41 106.358 151.563C106.396 151.715 106.433 151.867 106.471 152.02C106.522 152.155 106.57 152.274 106.617 152.378C106.679 152.479 106.735 152.542 106.786 152.567C106.905 152.629 107.101 152.672 107.373 152.696C107.658 152.702 107.938 152.678 108.215 152.623C108.489 152.552 108.731 152.422 108.94 152.234C109.15 152.047 109.245 151.772 109.225 151.412ZM116.832 143.693C116.854 143.737 116.873 143.869 116.889 144.087C116.902 144.291 116.904 144.527 116.896 144.797C116.9 145.049 116.895 145.286 116.879 145.509C116.862 145.717 116.841 145.846 116.817 145.897C116.664 145.935 116.511 145.965 116.356 145.987C116.199 145.994 116.051 146.007 115.912 146.027L115.425 146.097C115.555 147.12 115.677 148.136 115.79 149.146C115.903 150.156 115.994 151.066 116.063 151.877C116.13 152.672 116.168 153.322 116.177 153.826C116.201 154.327 116.191 154.589 116.147 154.611C116.041 154.642 115.911 154.614 115.756 154.525C115.601 154.437 115.443 154.326 115.282 154.191C115.134 154.038 114.993 153.885 114.861 153.73C114.741 153.558 114.664 153.403 114.629 153.266C114.416 152.334 114.218 151.447 114.034 150.605C113.848 149.748 113.692 148.989 113.566 148.328C113.393 147.564 113.252 146.85 113.141 146.187C112.969 146.196 112.795 146.197 112.62 146.191C112.461 146.182 112.295 146.174 112.12 146.168C111.961 146.159 111.794 146.151 111.619 146.145C111.584 146.118 111.535 146.054 111.474 145.952C111.409 145.835 111.344 145.71 111.278 145.578C111.227 145.443 111.177 145.316 111.129 145.197C111.078 145.062 111.048 144.964 111.039 144.902C111.032 144.855 111.196 144.785 111.529 144.689C111.879 144.592 112.306 144.491 112.812 144.387C112.664 143.572 112.539 142.864 112.437 142.263C112.348 141.644 112.311 141.223 112.327 141C112.331 140.7 112.415 140.403 112.578 140.112C112.755 139.802 112.945 139.53 113.148 139.296C113.367 139.06 113.57 138.88 113.758 138.759C113.959 138.62 114.094 138.569 114.162 138.606C114.213 138.63 114.275 138.787 114.348 139.077C114.419 139.351 114.496 139.726 114.58 140.204C114.665 140.681 114.753 141.244 114.846 141.894C114.937 142.528 115.033 143.201 115.135 143.912C115.595 143.815 115.988 143.751 116.315 143.72C116.64 143.673 116.812 143.664 116.832 143.693ZM120.29 145.187C120.332 145.259 120.383 145.505 120.443 145.922C120.516 146.322 120.587 146.817 120.655 147.407C120.737 147.979 120.811 148.6 120.875 149.27C120.937 149.924 120.987 150.548 121.025 151.143C121.076 151.719 121.108 152.22 121.122 152.644C121.133 153.053 121.121 153.299 121.085 153.383C120.977 153.62 120.788 153.789 120.519 153.89C120.247 153.977 120.047 154.013 119.919 154C119.857 154.009 119.762 153.841 119.634 153.496C119.521 153.15 119.395 152.71 119.255 152.177C119.116 151.645 118.978 151.065 118.84 150.437C118.703 149.81 118.578 149.212 118.465 148.644C118.35 148.061 118.261 147.553 118.199 147.12C118.137 146.687 118.113 146.406 118.126 146.278C118.144 146.07 118.25 145.873 118.444 145.688C118.654 145.5 118.877 145.35 119.113 145.237C119.365 145.122 119.601 145.056 119.819 145.041C120.051 145.008 120.208 145.056 120.29 145.187ZM119.868 141.411C119.947 141.526 119.995 141.693 120.01 141.912C120.041 142.128 120.05 142.356 120.037 142.595C120.024 142.833 119.994 143.066 119.948 143.294C119.902 143.522 119.849 143.703 119.789 143.838C119.665 144.076 119.453 144.249 119.153 144.355C118.866 144.444 118.65 144.482 118.506 144.471C118.396 144.471 118.278 144.417 118.152 144.309C118.024 144.185 117.907 144.036 117.804 143.862C117.697 143.672 117.612 143.463 117.548 143.235C117.484 143.008 117.461 142.79 117.478 142.582C117.496 142.375 117.617 142.176 117.843 141.986C118.066 141.78 118.311 141.619 118.578 141.501C118.843 141.369 119.101 141.292 119.35 141.272C119.598 141.237 119.77 141.283 119.868 141.411ZM126.699 141.498C126.82 141.576 126.947 141.739 127.077 141.989C127.223 142.236 127.361 142.54 127.492 142.9C127.622 143.26 127.749 143.652 127.873 144.077C127.997 144.501 128.112 144.918 128.218 145.329C128.325 145.74 128.412 146.13 128.481 146.499C128.563 146.851 128.628 147.141 128.677 147.371C128.732 147.647 128.782 147.94 128.826 148.249C128.884 148.541 128.925 148.827 128.949 149.108C128.987 149.371 129.006 149.612 129.006 149.833C129.021 150.052 129.014 150.219 128.983 150.334C128.923 150.579 128.784 150.765 128.565 150.891C128.36 150.999 128.12 151.089 127.846 151.16C127.709 151.195 127.471 151.237 127.13 151.286C126.803 151.317 126.445 151.353 126.056 151.392C125.681 151.415 125.321 151.435 124.976 151.453C124.631 151.47 124.372 151.476 124.197 151.469C123.846 151.441 123.584 151.376 123.411 151.274C123.254 151.17 123.09 151.012 122.917 150.8C122.858 150.714 122.786 150.488 122.702 150.121C122.615 149.739 122.527 149.286 122.436 148.762C122.358 148.221 122.283 147.64 122.21 147.019C122.137 146.398 122.076 145.807 122.027 145.246C121.993 144.682 121.97 144.188 121.957 143.764C121.959 143.337 121.996 143.048 122.069 142.895C122.193 142.657 122.427 142.418 122.771 142.179C123.132 141.938 123.458 141.741 123.752 141.589C123.9 141.52 124.097 141.461 124.342 141.41C124.601 141.341 124.871 141.302 125.154 141.293C125.45 141.267 125.735 141.273 126.009 141.313C126.281 141.337 126.511 141.399 126.699 141.498ZM126.43 148.877C126.452 148.81 126.456 148.62 126.443 148.306C126.443 147.975 126.418 147.584 126.37 147.133C126.336 146.68 126.283 146.198 126.21 145.688C126.152 145.175 126.093 144.703 126.03 144.269C125.968 143.836 125.901 143.475 125.828 143.186C125.753 142.881 125.688 142.708 125.635 142.669C125.549 142.618 125.43 142.611 125.277 142.649C125.138 142.669 124.995 142.713 124.847 142.782C124.696 142.835 124.564 142.901 124.449 142.981C124.332 143.045 124.253 143.103 124.214 143.156C124.037 143.355 123.969 143.649 124.008 144.038C124.024 144.147 124.053 144.458 124.095 144.973C124.15 145.47 124.22 146.013 124.304 146.6C124.386 147.173 124.471 147.705 124.557 148.198C124.659 148.688 124.756 148.982 124.849 149.079C124.942 149.177 125.062 149.246 125.21 149.288C125.372 149.312 125.53 149.313 125.684 149.291C125.855 149.267 126.006 149.221 126.138 149.155C126.284 149.071 126.381 148.978 126.43 148.877ZM136.103 143.182C136.138 143.429 136.158 143.789 136.163 144.262C136.183 144.733 136.187 145.253 136.174 145.823C136.158 146.378 136.139 146.957 136.115 147.56C136.104 148.146 136.079 148.686 136.039 149.181C136.015 149.674 135.987 150.088 135.957 150.424C135.941 150.758 135.928 150.941 135.917 150.974C135.893 151.025 135.812 151.068 135.675 151.104C135.551 151.121 135.402 151.127 135.228 151.12C135.069 151.112 134.915 151.086 134.767 151.044C134.634 151 134.546 150.934 134.502 150.846C134.477 150.786 134.439 150.57 134.385 150.199C134.348 149.826 134.3 149.383 134.242 148.87C134.198 148.34 134.149 147.779 134.096 147.186C134.04 146.579 133.992 146.018 133.949 145.503C133.921 144.97 133.887 144.517 133.849 144.144C133.827 143.768 133.811 143.542 133.799 143.464C133.76 143.186 133.691 142.927 133.594 142.689C133.51 142.432 133.416 142.217 133.312 142.043C133.208 141.868 133.095 141.742 132.973 141.665C132.865 141.57 132.775 141.543 132.702 141.585C132.505 141.645 132.343 141.724 132.214 141.821C132.084 141.903 131.978 141.989 131.896 142.08C131.801 142.188 131.732 142.308 131.688 142.441C131.677 142.474 131.659 142.571 131.635 142.733C131.626 142.892 131.636 143.072 131.665 143.273C131.674 143.335 131.706 143.559 131.761 143.946C131.814 144.317 131.871 144.767 131.931 145.295C132.006 145.821 132.08 146.394 132.154 147.015C132.24 147.618 132.313 148.184 132.373 148.712C132.446 149.222 132.501 149.664 132.539 150.038C132.577 150.411 132.591 150.622 132.583 150.671C132.565 150.768 132.506 150.91 132.407 151.098C132.305 151.271 132.187 151.438 132.053 151.599C131.918 151.76 131.786 151.89 131.658 151.987C131.528 152.069 131.433 152.067 131.373 151.98C131.32 151.941 131.242 151.723 131.138 151.327C131.031 150.917 130.905 150.422 130.759 149.843C130.626 149.246 130.479 148.604 130.318 147.917C130.154 147.215 130.002 146.542 129.863 145.899C129.723 145.256 129.6 144.674 129.494 144.152C129.388 143.631 129.31 143.255 129.262 143.025C129.2 142.703 129.132 142.341 129.059 141.941C128.984 141.526 128.913 141.142 128.846 140.788C128.793 140.417 128.748 140.1 128.71 139.837C128.686 139.556 128.692 139.382 128.73 139.313C128.752 139.247 128.85 139.217 129.025 139.224C129.215 139.228 129.417 139.262 129.631 139.326C129.859 139.372 130.075 139.444 130.278 139.541C130.479 139.623 130.618 139.713 130.696 139.813C130.74 139.901 130.794 140.004 130.858 140.121C130.92 140.223 130.985 140.403 131.054 140.661C131.295 140.469 131.561 140.289 131.853 140.121C132.142 139.937 132.429 139.793 132.714 139.689C133.012 139.568 133.303 139.502 133.586 139.494C133.866 139.469 134.125 139.511 134.361 139.619C134.516 139.708 134.682 139.873 134.859 140.116C135.051 140.357 135.227 140.647 135.386 140.988C135.561 141.326 135.708 141.691 135.827 142.085C135.96 142.46 136.052 142.826 136.103 143.182ZM138.49 136.044C138.495 136.407 138.478 136.843 138.441 137.354C138.401 137.849 138.353 138.337 138.296 138.819C138.254 139.298 138.198 139.733 138.127 140.122C138.07 140.493 138.01 140.738 137.948 140.857C137.898 140.944 137.814 141.019 137.696 141.083C137.579 141.147 137.451 141.189 137.312 141.209C137.188 141.227 137.054 141.222 136.908 141.196C136.775 141.152 136.67 141.08 136.593 140.981C136.537 140.925 136.483 140.712 136.43 140.341C136.375 139.954 136.323 139.536 136.274 139.085C136.223 138.619 136.175 138.176 136.131 137.756C136.102 137.334 136.091 137.035 136.097 136.861C136.102 136.671 136.106 136.536 136.11 136.456C136.115 136.377 136.127 136.296 136.147 136.214C136.197 136.018 136.329 135.833 136.541 135.661C136.768 135.486 137.008 135.341 137.26 135.226C137.527 135.109 137.77 135.043 137.989 135.027C138.206 134.996 138.347 135.047 138.413 135.179C138.455 135.252 138.482 135.383 138.493 135.57C138.502 135.743 138.501 135.901 138.49 136.044ZM141.483 135.616C141.472 135.98 141.448 136.418 141.41 136.928C141.386 137.421 141.346 137.908 141.288 138.39C141.247 138.87 141.19 139.304 141.12 139.693C141.063 140.064 140.995 140.31 140.918 140.432C140.867 140.518 140.783 140.593 140.666 140.658C140.549 140.722 140.421 140.764 140.282 140.784C140.158 140.801 140.031 140.796 139.901 140.767C139.768 140.723 139.663 140.651 139.586 140.552C139.53 140.497 139.468 140.285 139.4 139.916C139.344 139.529 139.292 139.11 139.243 138.659C139.192 138.193 139.152 137.749 139.124 137.327C139.095 136.905 139.084 136.607 139.09 136.432C139.094 136.242 139.099 136.107 139.103 136.028C139.108 135.948 139.12 135.867 139.14 135.786C139.19 135.589 139.322 135.404 139.534 135.232C139.761 135.057 140.001 134.913 140.253 134.798C140.52 134.68 140.763 134.614 140.982 134.598C141.199 134.567 141.34 134.618 141.406 134.751C141.433 134.826 141.452 134.957 141.463 135.145C141.487 135.315 141.494 135.472 141.483 135.616Z" fill="#464343"/>
<path d="M177.291 31.6699H177.187C173.813 31.6699 171.069 28.3593 171.069 24.2989V9.33344H172.8V24.2989C172.8 27.41 174.77 29.9388 177.187 29.9388H177.291C179.708 29.9388 181.678 27.41 181.678 24.2989V6.10263C181.678 3.69349 180.171 1.73107 178.32 1.73107H170.989C169.162 1.73107 167.638 3.70944 167.638 6.08668L165.939 6.10263C165.939 2.71228 168.205 0 170.989 0H178.32C181.128 0 183.41 2.73621 183.41 6.10263V24.2989C183.41 28.3673 180.665 31.6699 177.291 31.6699Z" fill="#231F20"/>
</g>
<defs>
<filter id="filter0_d_570_3274" x="2.38419e-07" y="0" width="217.763" height="228.461" filterUnits="userSpaceOnUse" color-interpolation-filters="sRGB">
<feFlood flood-opacity="0" result="BackgroundImageFix"/>
<feColorMatrix in="SourceAlpha" type="matrix" values="0 0 0 0 0 0 0 0 0 0 0 0 0 0 0 0 0 0 127 0" result="hardAlpha"/>
<feOffset dy="4"/>
<feGaussianBlur stdDeviation="2"/>
<feComposite in2="hardAlpha" operator="out"/>
<feColorMatrix type="matrix" values="0 0 0 0 0 0 0 0 0 0 0 0 0 0 0 0 0 0 0.25 0"/>
<feBlend mode="normal" in2="BackgroundImageFix" result="effect1_dropShadow_570_3274"/>
<feBlend mode="normal" in="SourceGraphic" in2="effect1_dropShadow_570_3274" result="shape"/>
</filter>
<linearGradient id="paint0_linear_570_3274" x1="151.062" y1="237.692" x2="49.9971" y2="-12.4604" gradientUnits="userSpaceOnUse">
<stop offset="0.07" stop-color="#FBFBFB"/>
<stop offset="0.2" stop-color="#FDFDFD"/>
<stop offset="0.22" stop-color="#EDEDED"/>
<stop offset="0.41" stop-color="white"/>
<stop offset="0.95" stop-color="white"/>
</linearGradient>
</defs>
</svg>
