<svg width="286" height="299" viewBox="0 0 286 299" fill="none" xmlns="http://www.w3.org/2000/svg">
<g filter="url(#filter0_d_570_3262)">
<path d="M258.625 241.566L257.902 79.6979L257.577 7.33398H6.76012C6.19437 7.72163 5.62861 8.10927 5.06286 8.47597C6.00578 9.28269 6.9487 10.1104 7.89162 10.9171C6.96966 11.6819 5.9953 12.3838 5.01048 13.0544V18.7748C6.24675 19.5396 7.48302 20.3044 8.70882 21.0692C7.21062 22.7036 5.96387 24.5685 5.01048 26.5591V35.2549C5.47146 35.8521 5.93244 36.4493 6.2677 37.0988C7.75542 40.0114 6.62392 43.2278 5.01048 46.2556V54.0714C7.18967 56.3973 7.67161 60.148 6.72869 63.2701C6.33057 64.6007 5.73338 65.8579 5.01048 67.0418V74.0299C5.09429 74.0718 5.16763 74.1242 5.24097 74.1766C6.56106 75.1719 7.39921 77.0053 6.70773 78.5035C6.1315 78.3464 5.50289 78.5035 5.01048 78.8493V82.0028C5.24097 82.1704 5.49241 82.2962 5.76481 82.359C6.38295 82.4847 6.51915 84.0353 6.71821 84.622C7.40969 86.7174 8.12211 88.9804 7.51445 91.1072C7.09538 92.5321 6.15246 93.6741 5.01048 94.6484V98.7868C7.10586 100.044 9.306 101.113 11.5795 101.94C8.8974 102.475 6.51915 104.329 5.36669 106.802C6.82298 106.383 8.18498 107.965 8.30022 109.484C8.40499 111.003 7.74495 112.438 7.38873 113.915C7.04299 115.393 7.12681 117.195 8.33165 118.106C7.46207 118.85 6.58201 119.583 5.71243 120.327C6.4982 120.547 7.2211 121.008 7.73447 121.637C7.69256 126.048 7.64018 130.448 7.58779 134.848C7.56684 137.027 7.0849 139.814 5 140.349V140.485C6.39343 141.48 6.28866 143.743 5.32478 145.189C5.23049 145.346 5.11525 145.482 5 145.618V160.663C6.6344 161.784 8.19545 163.01 9.48411 164.047C9.64126 164.173 9.79842 164.33 9.81937 164.529C9.81937 164.697 9.7146 164.865 9.59936 165.011C8.8555 165.954 8.12211 166.918 7.38873 167.861C8.50976 168.332 9.62031 168.793 10.7413 169.254C9.67269 170.417 8.40499 171.392 7.02204 172.125C6.92775 172.628 7.73447 172.649 8.20593 172.869C9.07551 173.277 8.70882 174.587 8.11164 175.341C7.51445 176.085 6.76012 177.039 7.23158 177.866C8.35261 177.636 9.56793 178.024 10.3642 178.862C8.55167 179.218 6.91727 180.402 6.00578 182.015C6.87536 182.193 7.73447 182.382 8.60405 182.57C7.56684 183.692 6.89632 185.137 6.70773 186.646C7.58779 186.604 8.47833 186.772 9.27457 187.138C8.69834 187.914 8.41547 188.899 8.48881 189.852C8.61453 191.528 9.0336 194.944 8.67739 196.589C9.70412 196.536 10.7413 196.777 11.6423 197.27C9.74603 197.605 7.82876 197.741 5.91149 197.657C6.41438 198.653 7.31539 199.438 8.38404 199.795C8.36308 202.477 8.34213 205.159 8.32117 207.841C7.12681 207.663 6.01626 208.962 5 209.852V210.858C5.91149 211.539 7.65065 211.476 8.06973 212.608C8.43642 213.624 7.37825 214.525 6.59249 215.29C5.8172 216.034 5.4086 217.647 6.45629 217.961C5.9534 218.045 5.46098 218.213 5 218.443V221.241C6.89632 221.869 8.5831 223.148 9.64126 224.834C8.75073 225.767 7.86019 226.71 6.95918 227.642C6.60296 227.998 6.24675 228.386 6.11055 228.878C5.71243 230.198 7.04299 231.351 8.20593 232.084C7.53541 231.98 7.04299 232.702 6.93823 233.362C6.82298 234.023 6.90679 234.745 6.5401 235.311C6.30961 235.688 5.92197 235.929 5.5448 236.17C5.35621 236.286 5.17811 236.401 5 236.516V241.671C5.15715 241.775 5.31431 241.891 5.47146 241.985C5.85911 242.257 6.27818 242.561 6.39343 243.022C6.48772 243.41 6.34104 243.808 6.20484 244.175C5.79624 245.201 5.39812 246.228 5.01048 247.244V248.963C6.71821 249.78 8.9917 250.178 10.5423 251.11C10.8775 251.309 11.2233 251.54 11.349 251.907C11.4852 252.326 11.2442 252.776 10.9928 253.143C10.1756 254.39 9.14885 255.49 7.97544 256.401C9.55745 257.009 10.9928 258.004 12.1138 259.282C10.4375 260.288 9.13837 261.902 8.50976 263.756C9.45268 264.311 10.4061 264.877 11.3385 265.432C11.0556 265.914 10.9614 266.501 11.0661 267.056C9.10694 267.758 7.07442 268.219 5.01048 268.46V270.566C5.36669 270.933 5.66004 271.362 5.83815 271.855C6.10007 272.557 6.10007 273.332 6.2677 274.076C6.65535 275.742 7.99639 277.145 9.65174 277.606C8.15354 278.35 6.65535 279.084 5.16763 279.827C6.41438 280.603 7.48302 281.64 8.30022 282.855C7.18967 282.876 6.07912 283.023 5 283.316V286.093C6.85441 286.837 8.84502 287.235 10.8356 287.256C12.271 287.277 14.3244 287.717 14.1044 289.141C14.0835 289.278 14.0311 289.414 13.9682 289.54L256.498 288.607C258.614 271.069 259.316 255.395 258.614 241.587L258.625 241.566ZM15.9903 31.7347C15.9903 29.7545 17.5932 28.1516 19.5734 28.1516H25.5766C27.5567 28.1516 29.1597 29.7545 29.1597 31.7347V36.8055C29.1597 38.7751 27.5567 40.3886 25.5766 40.3886H19.5734C17.6037 40.3886 15.9903 38.7856 15.9903 36.8055V31.7347ZM15.9903 53.9771C15.9903 51.997 17.5932 50.394 19.5734 50.394H25.5766C27.5567 50.394 29.1597 51.997 29.1597 53.9771V59.0374C29.1597 61.0176 27.5567 62.6206 25.5766 62.6206H19.5734C17.6037 62.6206 15.9903 61.0176 15.9903 59.0374V53.9771ZM29.1597 259.157C29.1597 261.137 27.5567 262.74 25.5766 262.74H19.5734C17.6037 262.74 15.9903 261.137 15.9903 259.157V254.096C15.9903 252.116 17.5932 250.513 19.5734 250.513H25.5766C27.5567 250.513 29.1597 252.116 29.1597 254.096V259.157ZM29.1597 236.925C29.1597 238.894 27.5567 240.508 25.5766 240.508H19.5734C17.6037 240.508 15.9903 238.905 15.9903 236.925V231.854C15.9903 229.874 17.5932 228.271 19.5734 228.271H25.5766C27.5567 228.271 29.1597 229.863 29.1597 231.854V236.925ZM29.1597 214.682C29.1597 216.652 27.5567 218.265 25.5766 218.265H19.5734C17.6037 218.265 15.9903 216.662 15.9903 214.682V209.611C15.9903 207.642 17.5932 206.028 19.5734 206.028H25.5766C27.5567 206.028 29.1597 207.631 29.1597 209.611V214.682ZM29.1597 192.44C29.1597 194.42 27.5567 196.023 25.5766 196.023H19.5734C17.6037 196.023 15.9903 194.42 15.9903 192.44V187.379C15.9903 185.399 17.5932 183.796 19.5734 183.796H25.5766C27.5567 183.796 29.1597 185.399 29.1597 187.379V192.44ZM29.1597 170.208C29.1597 172.177 27.5567 173.791 25.5766 173.791H19.5734C17.6037 173.791 15.9903 172.188 15.9903 170.208V165.137C15.9903 163.157 17.5932 161.554 19.5734 161.554H25.5766C27.5567 161.554 29.1597 163.146 29.1597 165.137V170.208ZM29.1597 147.965C29.1597 149.935 27.5567 151.548 25.5766 151.548H19.5734C17.6037 151.548 15.9903 149.945 15.9903 147.965V142.895C15.9903 140.925 17.5932 139.311 19.5734 139.311H25.5766C27.5567 139.311 29.1597 140.914 29.1597 142.895V147.965ZM29.1597 125.723C29.1597 127.703 27.5567 129.306 25.5766 129.306H19.5734C17.6037 129.306 15.9903 127.703 15.9903 125.723V120.663C15.9903 118.682 17.5932 117.079 19.5734 117.079H25.5766C27.5567 117.079 29.1597 118.682 29.1597 120.663V125.723ZM29.1597 103.491C29.1597 105.461 27.5567 107.074 25.5766 107.074H19.5734C17.6037 107.074 15.9903 105.471 15.9903 103.491V98.4201C15.9903 96.44 17.5932 94.837 19.5734 94.837H25.5766C27.5567 94.837 29.1597 96.4295 29.1597 98.4201V103.491ZM29.1597 81.2485C29.1597 83.2181 27.5567 84.8316 25.5766 84.8316H19.5734C17.6037 84.8316 15.9903 83.2286 15.9903 81.2485V76.1777C15.9903 74.208 17.5932 72.5946 19.5734 72.5946H25.5766C27.5567 72.5946 29.1597 74.1975 29.1597 76.1777V81.2485Z" fill="url(#paint0_linear_570_3262)" style="mix-blend-mode:multiply"/>
<path d="M162.153 15.5687C162.52 15.5372 162.876 15.5058 163.243 15.4953L166.355 16.3649C166.428 16.4068 166.522 16.4278 166.616 16.4382L166.805 16.4906C167.413 17.2031 168.555 17.4964 169.56 17.2659L171.771 17.8736L173.636 16.1658C174.359 15.8096 175.428 15.2753 176.161 14.9191L176.234 14.8981C176.643 15.2753 177.051 15.6525 177.46 16.0296C178.131 15.3067 179.367 15.0239 180.31 15.3696C180.435 15.3067 180.561 15.2334 180.697 15.1601L182.615 15.3067C182.688 15.0972 182.835 14.9401 183.044 14.8143C183.369 15.0763 183.704 15.3486 184.019 15.6315C184.228 15.2439 184.448 14.8562 184.658 14.4686C184.941 14.4686 185.223 14.4791 185.475 14.4895L186.753 15.3067C187.424 16.3335 188.691 17.8945 189.309 16.0087C189.886 14.2381 190.902 13.3999 191.499 13.0437C191.551 14.4267 193.374 15.4639 194.904 14.961C195.166 14.8772 195.397 14.7515 195.606 14.6048L195.711 14.6572C195.711 14.6572 196.455 14.4162 196.937 12.7923C197.052 12.4046 197.261 12.0903 197.523 11.8389C197.806 11.9332 198.1 12.017 198.382 12.1113C198.445 11.5141 199.001 10.9798 199.65 10.8017L201.222 11.1265C201.494 11.357 201.693 11.6503 201.725 11.9856C201.735 11.7341 201.84 11.4932 201.997 11.2836L206.984 12.2999C206.282 11.5141 206.732 11.0846 207.256 10.8541C207.424 10.9903 207.539 11.1788 207.592 11.3779C207.623 10.7807 208.618 10.3616 209.142 10.7388C209.163 10.5817 209.184 10.435 209.216 10.2883L209.75 10.1207C209.97 10.3931 210.2 10.6655 210.431 10.9379C210.567 10.5921 210.703 10.2464 210.85 9.91114L211.835 9.8378C211.877 9.96353 211.887 10.0997 211.866 10.2359C211.877 10.0892 211.919 9.96353 211.971 9.81685L214.119 9.6597L214.548 10.1626C214.538 10.2359 214.517 10.2988 214.496 10.3721C214.517 10.3093 214.548 10.2569 214.58 10.194L215.994 11.8389C215.994 11.8389 216.497 11.357 216.738 10.676C216.78 10.5502 216.801 10.4036 216.822 10.2778C216.979 10.5607 217.094 10.8645 217.126 11.1788C217.513 9.91114 220.08 9.84828 220.405 11.0846C220.457 10.9274 220.541 10.7702 220.625 10.6236C221.851 10.9693 222.406 10.9274 222.406 10.9274C224.449 8.40247 226 9.6597 226 9.6597C226 9.6597 226.136 9.55493 226.303 9.40825C226.88 9.55493 227.351 9.974 227.414 10.4874C227.927 10.215 228.315 9.77494 228.514 9.293C228.598 9.34539 228.692 9.39777 228.776 9.46064C228.975 9.72256 229.164 9.98448 229.363 10.2464C229.52 10.0473 229.677 9.84828 229.834 9.64922L231.007 9.19871C231.196 9.39777 231.374 9.59683 231.563 9.7959C231.751 9.24062 232.411 8.79011 233.092 8.79011C233.312 8.79011 233.532 8.8425 233.742 8.92631C234.213 9.75399 235.135 10.9064 236.005 9.47111C236.288 8.98917 236.613 8.65391 236.937 8.41294C237.105 8.54914 237.252 8.68535 237.367 8.85298C237.744 8.55962 238.037 8.21388 238.278 7.83672C238.75 7.76338 239.075 7.83672 239.075 7.83672C239.075 7.83672 239.075 7.83672 239.106 7.83672C239.347 8.06721 239.651 8.25579 240.007 8.30818C240.321 8.35008 240.646 8.28722 240.95 8.1615C241.725 8.24531 242.563 8.26627 243.045 8.05673C243.36 7.92053 243.747 7.63766 244.125 7.31287C244.303 7.42812 244.428 7.58527 244.439 7.79481C245.267 7.23953 245.864 6.43281 246.094 5.56323C246.188 5.77277 246.272 5.98231 246.356 6.19184C247.268 5.90897 248.169 5.62609 249.091 5.35369L253.512 5.73086L255.251 4.95557C255.303 4.97652 255.366 4.99748 255.429 5.01843C255.942 5.16511 256.571 5.18606 257.001 4.86128C257.095 4.78794 257.168 4.7146 257.231 4.63079L258.059 4.56793L259.557 3.04878C259.557 3.04878 259.63 3.04878 259.756 3.05925C259.955 3.35261 260.049 3.67739 260.133 4.01265C260.06 3.63548 260.269 3.28974 260.605 3.0383C260.835 3.00687 261.087 2.97544 261.359 2.91258C261.59 2.86019 262.071 2.70304 262.7 2.4935C263.255 2.4935 263.811 2.52493 264.355 2.42016C264.974 2.29444 265.602 1.86489 265.77 1.37247C267.362 0.77529 268.745 0.240969 268.745 0.240969L268.819 2.37825L272.087 0C272.087 0 275.838 46.9889 278.426 72.7306L278.457 73.0658C279.337 81.7931 280.081 88.0164 280.49 89.0012L170.535 104.455L168.974 87.9221L168.764 85.701L162.153 15.5687Z" fill="#DB5461"/>
<path d="M220.972 58.9782C221.189 61.7964 221.282 64.3849 221.248 66.7436C221.21 69.072 221.08 71.0882 220.86 72.7923C220.639 74.4964 220.369 75.8514 220.048 76.8574C219.728 77.8635 219.388 78.4078 219.028 78.4903C218.703 78.5988 218.115 78.6056 217.266 78.5105C216.45 78.4414 215.579 78.303 214.651 78.0953C213.753 77.8832 212.914 77.6472 212.134 77.3873C211.383 77.1232 210.93 76.8784 210.774 76.653C210.588 76.4319 210.273 75.8575 209.83 74.9298C209.388 74.0021 208.897 72.849 208.359 71.4704C207.817 70.0615 207.283 68.4964 206.757 66.7753C206.232 65.0542 205.824 63.2853 205.533 61.4687C205.211 59.6565 204.907 57.8572 204.62 56.0709C204.363 54.2803 204.163 52.6675 204.02 51.2324C203.906 49.7929 203.889 48.5876 203.966 47.6163C204.044 46.645 204.284 46.0531 204.687 45.8405C205.901 45.233 207.293 44.8943 208.863 44.8243C210.458 44.7196 211.971 44.797 213.402 45.0566C214.859 45.2815 216.102 45.6301 217.129 46.1023C218.187 46.5701 218.782 47.0425 218.912 47.5194C219.012 47.5671 219.146 47.9659 219.316 48.7159C219.515 49.4616 219.711 50.3938 219.902 51.5123C220.119 52.5962 220.323 53.8058 220.515 55.1412C220.706 56.4766 220.858 57.7556 220.972 58.9782ZM215.359 75.9032C215.476 75.8555 215.664 75.6581 215.925 75.3112C216.185 74.9642 216.401 74.3137 216.574 73.3598C216.778 72.4015 216.896 71.0682 216.93 69.3598C216.995 67.6471 216.888 65.386 216.609 62.5765C216.335 59.7974 215.989 57.493 215.572 55.6634C215.181 53.7992 214.799 52.3208 214.426 51.2283C214.048 50.1055 213.703 49.3187 213.391 48.8678C213.104 48.3823 212.942 48.1114 212.903 48.0551C212.833 48.0031 212.718 47.9576 212.558 47.9186C212.423 47.845 212.265 47.8212 212.083 47.8473C211.897 47.843 211.717 47.8843 211.543 47.971C211.4 48.0535 211.296 48.1923 211.231 48.3874C211.166 48.5826 211.102 49.2113 211.037 50.2736C210.998 51.3012 210.984 52.6041 210.993 54.1824C211.028 55.7259 211.103 57.4342 211.216 59.3072C211.355 61.1456 211.569 62.9579 211.856 64.7441C212.068 66.0145 212.333 67.3238 212.651 68.6721C212.968 70.0204 213.282 71.2452 213.595 72.3464C213.938 73.4432 214.25 74.3276 214.533 74.9995C214.845 75.6671 215.12 75.9684 215.359 75.9032ZM229.413 41.6944C229.548 41.7681 229.704 42.3187 229.882 43.3462C230.086 44.339 230.288 45.6419 230.488 47.2547C230.719 48.8632 230.949 50.6885 231.18 52.7306C231.406 54.7424 231.624 56.8018 231.833 58.909C232.042 61.0161 232.216 63.0972 232.356 65.1524C232.521 67.1728 232.656 68.9808 232.761 70.5763C232.861 72.1415 232.905 73.4206 232.892 74.4135C232.91 75.4021 232.861 75.9202 232.744 75.968C232.54 76.0591 232.284 76.0028 231.976 75.7992C231.668 75.5955 231.369 75.3441 231.078 75.0451C230.788 74.746 230.508 74.4144 230.239 74.0503C230 73.6819 229.846 73.3633 229.777 73.0945C229.051 69.5437 228.434 66.4265 227.926 63.7428C227.448 61.0547 227.046 58.7894 226.72 56.9468C226.351 54.8007 226.051 52.9234 225.82 51.3149C225.5 51.8874 225.196 52.3644 224.91 52.7461C224.655 53.1234 224.468 53.3359 224.351 53.3837C224.169 53.4098 223.872 53.282 223.46 53.0003C223.078 52.7143 222.688 52.3676 222.289 51.9602C221.92 51.5484 221.597 51.1301 221.32 50.7053C221.042 50.2805 220.918 49.9575 220.948 49.7364C220.957 49.5803 221.104 49.3114 221.39 48.9298C221.672 48.5177 222.01 48.0667 222.404 47.5766C222.829 47.0821 223.269 46.5855 223.724 46.0867C224.21 45.5835 224.658 45.1476 225.07 44.7789C225.395 44.4536 225.779 44.1044 226.221 43.7314C226.658 43.328 227.085 42.9571 227.501 42.6187C227.918 42.2804 228.299 42.0244 228.646 41.8508C228.988 41.6469 229.244 41.5948 229.413 41.6944Z" fill="white"/>
<path d="M36.7918 161.658C36.7155 161.455 36.6475 161.228 36.5877 160.976C36.5478 160.698 36.5312 160.499 36.5377 160.38C36.5774 160.161 36.7597 160.028 37.0845 159.982C37.406 159.912 37.7722 159.907 38.1833 159.967C38.5943 160.026 38.9888 160.135 39.3667 160.294C39.7678 160.45 40.0463 160.659 40.2022 160.92C40.2652 161.03 40.3166 161.141 40.3565 161.253C40.3963 161.366 40.4593 161.558 40.5456 161.83C40.6286 162.079 40.7381 162.513 40.8743 163.133C41.0336 163.749 41.1747 164.404 41.2976 165.096C41.4172 165.766 41.507 166.392 41.5669 166.976C41.6466 167.532 41.6584 167.862 41.6021 167.965C41.5093 168.144 41.3768 168.293 41.2045 168.413C41.0288 168.509 40.8366 168.572 40.6278 168.602C40.4422 168.628 40.2516 168.62 40.056 168.577C39.8837 168.531 39.7428 168.456 39.6334 168.353C39.4709 168.211 39.2586 167.886 38.9966 167.379C38.7544 166.846 38.4907 166.244 38.2053 165.575C37.9432 164.902 37.6795 164.218 37.414 163.522C37.1685 162.799 36.9611 162.178 36.7918 161.658ZM32.3373 162.296C32.261 162.093 32.1929 161.866 32.1332 161.615C32.0701 161.339 32.0534 161.141 32.0832 161.018C32.1229 160.799 32.3052 160.667 32.63 160.62C32.9515 160.55 33.3177 160.545 33.7287 160.605C34.1398 160.664 34.5342 160.773 34.9122 160.932C35.3133 161.088 35.5918 161.297 35.7477 161.558C35.8107 161.668 35.8505 161.781 35.8671 161.897C35.907 162.009 35.97 162.201 36.0563 162.473C36.1393 162.722 36.2488 163.156 36.3849 163.776C36.5443 164.392 36.6854 165.047 36.8083 165.739C36.9279 166.409 37.0176 167.035 37.0775 167.619C37.1341 168.179 37.1342 168.51 37.0779 168.613C37.0084 168.789 36.8875 168.936 36.7152 169.056C36.5395 169.152 36.3473 169.215 36.1385 169.245C35.9529 169.271 35.7623 169.263 35.5667 169.22C35.3943 169.174 35.2534 169.099 35.144 168.997C35.0048 168.851 34.8041 168.524 34.5421 168.017C34.2999 167.484 34.0361 166.882 33.7508 166.213C33.4887 165.54 33.2249 164.856 32.9595 164.16C32.6907 163.441 32.4833 162.819 32.3373 162.296ZM50.9734 166.445C51.0066 166.511 51.0348 166.708 51.0581 167.036C51.0781 167.341 51.0816 167.696 51.0685 168.1C51.0753 168.478 51.0671 168.835 51.0441 169.169C51.0177 169.481 50.9862 169.675 50.9498 169.751C50.7211 169.808 50.4908 169.852 50.2588 169.886C50.0235 169.896 49.8014 169.916 49.5926 169.946L48.8618 170.05C49.0579 171.585 49.2408 173.109 49.4105 174.624C49.5801 176.139 49.7165 177.504 49.8197 178.721C49.9197 179.914 49.9764 180.888 49.9899 181.644C50.0267 182.397 50.0119 182.789 49.9456 182.822C49.7866 182.869 49.591 182.826 49.3589 182.693C49.1268 182.561 48.8898 182.394 48.6477 182.192C48.4256 181.963 48.215 181.733 48.0161 181.501C47.837 181.242 47.7209 181.01 47.6678 180.805C47.349 179.406 47.0518 178.075 46.7762 176.813C46.4973 175.527 46.2632 174.388 46.0739 173.397C45.8149 172.251 45.6023 171.18 45.4362 170.186C45.1777 170.199 44.9175 170.201 44.6556 170.191C44.417 170.178 44.1667 170.166 43.9049 170.157C43.6662 170.143 43.416 170.132 43.1541 170.122C43.1011 170.082 43.0281 169.986 42.9352 169.834C42.839 169.658 42.7412 169.471 42.6417 169.272C42.5654 169.07 42.4907 168.879 42.4177 168.7C42.3414 168.498 42.2966 168.351 42.2833 168.258C42.2733 168.188 42.5186 168.082 43.019 167.939C43.5427 167.793 44.184 167.642 44.9429 167.486C44.7204 166.263 44.5327 165.201 44.3799 164.3C44.2469 163.372 44.192 162.74 44.2151 162.405C44.2215 161.955 44.3473 161.51 44.5924 161.073C44.8574 160.609 45.1423 160.201 45.4471 159.849C45.7751 159.495 46.0799 159.226 46.3616 159.044C46.6631 158.835 46.8653 158.758 46.9681 158.815C47.0443 158.851 47.1372 159.086 47.2468 159.52C47.353 159.931 47.4692 160.495 47.5955 161.211C47.7217 161.927 47.8546 162.772 47.9942 163.746C48.1305 164.697 48.275 165.707 48.4279 166.774C49.1173 166.628 49.7073 166.531 50.1978 166.485C50.685 166.415 50.9435 166.402 50.9734 166.445ZM55.9232 173.727C56.2745 173.534 56.6705 173.324 57.1112 173.095C57.5719 172.839 58.0126 172.61 58.4335 172.408C58.851 172.183 59.2255 171.987 59.5569 171.821C59.8883 171.655 60.1302 171.526 60.2826 171.433C60.2229 171.181 60.1465 170.896 60.0536 170.578C59.9805 170.233 59.8992 169.913 59.8096 169.618C59.7167 169.3 59.6188 169.03 59.5159 168.808C59.4131 168.586 59.3236 168.457 59.2473 168.42C59.0517 168.377 58.7302 168.364 58.2828 168.381C57.8552 168.371 57.416 168.446 56.9653 168.605C56.5378 168.761 56.1567 168.993 55.8221 169.302C55.4874 169.61 55.3368 170.046 55.3701 170.61C55.3769 170.987 55.4318 171.453 55.5347 172.007C55.6377 172.56 55.7672 173.133 55.9232 173.727ZM63.5548 173.202C63.5382 173.251 63.2731 173.384 62.7595 173.6C62.2458 173.815 61.6294 174.058 60.9102 174.326C60.1877 174.572 59.4205 174.836 58.6086 175.118C57.7933 175.377 57.0907 175.596 56.5008 175.775C56.7497 176.686 57.0086 177.501 57.2773 178.221C57.5428 178.917 57.7468 179.349 57.8894 179.518C58.0286 179.664 58.201 179.793 58.4066 179.906C58.5856 179.998 58.7994 180.086 59.0481 180.169C59.3166 180.225 59.6281 180.252 59.9828 180.248C60.248 180.281 60.4783 180.153 60.6737 179.865C60.8261 179.606 60.9303 179.177 60.9865 178.577C61.0658 177.974 61.0157 177.046 60.8362 175.793C61.5388 175.574 62.0857 175.425 62.4767 175.345C62.891 175.262 63.1926 175.219 63.3816 175.215C63.6169 175.205 63.7611 175.22 63.8141 175.26C63.8473 175.326 63.8722 175.5 63.8889 175.782C63.9056 176.064 63.8975 176.42 63.8645 176.851C63.8514 177.255 63.8217 177.709 63.7755 178.213C63.7492 178.69 63.698 179.159 63.6219 179.62C63.5426 180.058 63.4466 180.462 63.334 180.833C63.2182 181.182 63.0774 181.438 62.9117 181.604C62.4148 182.102 61.7486 182.41 60.9134 182.53C60.0749 182.626 59.2346 182.628 58.3927 182.536C57.5474 182.42 56.7784 182.258 56.0856 182.049C55.3894 181.818 54.9452 181.609 54.7529 181.424C54.6169 181.301 54.4627 180.968 54.2901 180.424C54.1142 179.858 53.9333 179.173 53.7474 178.371C53.5846 177.566 53.4219 176.678 53.2591 175.706C53.0963 174.735 52.9716 173.782 52.8851 172.848C52.8217 171.91 52.7916 171.038 52.7946 170.233C52.8208 169.424 52.915 168.759 53.0772 168.239C53.3255 167.493 53.8125 166.843 54.5381 166.289C55.2638 165.735 56.0558 165.314 56.9142 165.026C57.7725 164.737 58.6044 164.594 59.4099 164.597C60.2385 164.597 60.8783 164.765 61.3292 165.103C61.5945 165.302 61.8697 165.736 62.155 166.406C62.437 167.052 62.671 167.859 62.857 168.827C62.8703 168.919 62.9201 169.185 63.0065 169.622C63.0928 170.06 63.1726 170.534 63.2457 171.044C63.3387 171.528 63.4168 171.99 63.4799 172.431C63.5431 172.872 63.568 173.129 63.5548 173.202ZM70.019 162.544C69.9129 162.465 69.7024 162.4 69.3875 162.351C69.0726 162.301 68.8688 162.366 68.776 162.545C68.7197 162.648 68.6469 162.966 68.5576 163.5C68.4684 164.033 68.3874 164.708 68.3148 165.523C68.2654 166.335 68.2442 167.262 68.2513 168.302C68.2815 169.34 68.3747 170.404 68.5309 171.494C68.6439 172.283 68.7868 173.032 68.9594 173.741C69.1287 174.427 69.298 175.031 69.4672 175.551C69.6597 176.068 69.8488 176.479 70.0345 176.784C70.2434 177.085 70.4308 177.236 70.5965 177.236C70.7357 177.216 70.8748 177.03 71.0139 176.679C71.1762 176.324 71.3202 175.925 71.446 175.481C71.5917 175.01 71.7075 174.579 71.7935 174.188C71.8994 173.77 71.9789 173.498 72.0319 173.372C72.1743 173.044 72.3813 172.754 72.653 172.502C72.9214 172.227 73.16 172.074 73.3688 172.044C73.4848 172.028 73.5776 172.097 73.6473 172.253C73.7401 172.405 73.8148 172.596 73.8712 172.825C73.9475 173.027 74.0023 173.244 74.0356 173.476C74.0688 173.708 74.0954 173.894 74.1153 174.033C74.1519 174.288 74.1736 174.77 74.1805 175.48C74.1874 176.189 74.1496 176.916 74.067 177.662C74.0076 178.405 73.9018 179.071 73.7496 179.661C73.6206 180.248 73.4268 180.548 73.1682 180.561C72.9097 180.575 72.5103 180.513 71.97 180.378C71.4296 180.242 70.8727 180.073 70.2992 179.871C69.7489 179.666 69.2334 179.456 68.7527 179.24C68.2919 178.999 68.0035 178.803 67.8874 178.654C67.7713 178.505 67.5756 178.13 67.3003 177.531C67.0216 176.908 66.7114 176.147 66.3697 175.249C66.0511 174.347 65.7425 173.35 65.4437 172.256C65.145 171.163 64.9159 170.059 64.7563 168.945C64.5968 167.832 64.4621 166.726 64.3523 165.629C64.2657 164.529 64.2305 163.539 64.2467 162.661C64.263 161.783 64.3373 161.062 64.4696 160.498C64.6252 159.931 64.8637 159.613 65.1852 159.543C66.0767 159.321 66.9932 159.272 67.9346 159.398C68.8958 159.497 69.766 159.704 70.545 160.019C71.3439 160.307 72.0087 160.649 72.5391 161.047C73.0663 161.421 73.3631 161.758 73.4295 162.056C73.4992 162.377 73.5408 162.833 73.5543 163.423C73.591 164.01 73.5946 164.613 73.565 165.233C73.5553 165.826 73.5157 166.376 73.4463 166.883C73.3968 167.364 73.3306 167.646 73.2478 167.729C73.0689 167.968 72.8568 168.223 72.6117 168.495C72.3665 168.767 72.1063 168.851 71.8312 168.749C71.7317 168.715 71.6256 168.553 71.5128 168.261C71.3967 167.947 71.2705 167.562 71.1345 167.108C71.0216 166.651 70.9037 166.159 70.7809 165.632C70.6581 165.105 70.5419 164.624 70.4323 164.19C70.3426 163.729 70.253 163.351 70.1634 163.056C70.0936 162.735 70.0455 162.564 70.019 162.544ZM83.528 163.877C83.78 163.983 84.0369 164.206 84.2989 164.547C84.5841 164.885 84.8544 165.285 85.1098 165.745C85.3619 166.183 85.5858 166.672 85.7816 167.212C85.974 167.729 86.1051 168.231 86.1749 168.718C86.2215 169.043 86.2449 169.537 86.2451 170.2C86.2421 170.839 86.2258 171.552 86.1962 172.338C86.1634 173.1 86.1223 173.887 86.0729 174.699C86.0235 175.511 85.9757 176.252 85.9296 176.922C85.8834 177.591 85.8339 178.155 85.7811 178.612C85.7282 179.07 85.6935 179.323 85.6769 179.373C85.6405 179.449 85.508 179.516 85.2793 179.572C85.0738 179.625 84.8401 179.647 84.5783 179.637C84.3396 179.624 84.1092 179.586 83.8871 179.523C83.665 179.46 83.5208 179.362 83.4545 179.23C83.418 179.14 83.3648 178.852 83.295 178.365C83.2451 177.851 83.1819 177.244 83.1054 176.545C83.0521 175.842 82.9905 175.082 82.9205 174.263C82.8738 173.441 82.8238 172.679 82.7705 171.976C82.7139 171.25 82.6606 170.63 82.6107 170.117C82.584 169.6 82.5639 169.295 82.5507 169.202C82.5207 168.827 82.4344 168.473 82.2917 168.138C82.1689 167.777 82.0196 167.478 81.8439 167.243C81.6913 167.005 81.5239 166.827 81.3415 166.711C81.1824 166.592 81.0365 166.566 80.904 166.632C80.7018 166.708 80.5013 166.796 80.3025 166.896C80.1268 166.992 79.9727 167.073 79.8402 167.14C79.6646 167.236 79.5121 167.329 79.3829 167.418C79.6056 169.138 79.8118 170.825 80.0014 172.479C80.191 174.133 80.3457 175.626 80.4655 176.959C80.582 178.268 80.6521 179.335 80.6756 180.16C80.719 180.959 80.6959 181.377 80.6065 181.413C80.4242 181.463 80.2037 181.412 79.9451 181.26C79.7098 181.104 79.4677 180.902 79.219 180.653C78.9737 180.428 78.7482 180.176 78.5426 179.898C78.3601 179.616 78.2308 179.374 78.1545 179.172C77.6431 176.925 77.2015 174.917 76.8296 173.147C76.4544 171.354 76.1322 169.766 75.8632 168.384C75.5942 167.002 75.3633 165.804 75.1707 164.79C75.0013 163.772 74.865 162.904 74.762 162.185C74.4962 160.494 74.3515 159.319 74.3281 158.66C74.3511 158.159 74.4934 157.665 74.7551 157.178C75.0134 156.667 75.3032 156.212 75.6246 155.81C75.9692 155.406 76.2922 155.099 76.5938 154.89C76.9152 154.655 77.1405 154.575 77.2698 154.651C77.3494 154.711 77.4539 155.027 77.5834 155.601C77.7328 156.148 77.8872 156.895 78.0467 157.843C78.2028 158.768 78.369 159.845 78.5451 161.074C78.718 162.281 78.8892 163.559 79.0587 164.907C79.9336 164.403 80.7588 164.048 81.5343 163.843C82.333 163.633 82.9976 163.645 83.528 163.877ZM97.3843 163.17C97.4375 163.541 97.4675 164.082 97.4744 164.791C97.5045 165.497 97.5098 166.277 97.4902 167.133C97.4674 167.965 97.4379 168.833 97.4018 169.738C97.3855 170.616 97.3477 171.427 97.2884 172.169C97.2522 172.908 97.211 173.53 97.1648 174.034C97.1418 174.534 97.122 174.809 97.1055 174.859C97.069 174.935 96.9481 175 96.7426 175.053C96.557 175.08 96.3332 175.088 96.0714 175.078C95.8327 175.065 95.6024 175.027 95.3803 174.964C95.1814 174.898 95.0487 174.799 94.9824 174.666C94.9459 174.576 94.8878 174.253 94.808 173.697C94.7514 173.136 94.6799 172.472 94.5934 171.703C94.5268 170.907 94.4536 170.066 94.3737 169.177C94.2905 168.266 94.2172 167.424 94.1539 166.652C94.1105 165.853 94.0606 165.173 94.004 164.613C93.9706 164.05 93.9456 163.71 93.929 163.594C93.8692 163.176 93.7663 162.789 93.6203 162.431C93.4942 162.046 93.3532 161.723 93.1973 161.461C93.0414 161.2 92.8723 161.011 92.69 160.895C92.5275 160.752 92.3916 160.713 92.2822 160.776C91.9873 160.865 91.7437 160.983 91.5515 161.129C91.356 161.252 91.1969 161.381 91.0744 161.517C90.9319 161.679 90.8276 161.86 90.7613 162.059C90.7448 162.109 90.7183 162.255 90.682 162.497C90.6688 162.735 90.6838 163.005 90.727 163.307C90.7403 163.4 90.7885 163.736 90.8716 164.316C90.9514 164.873 91.0362 165.547 91.126 166.34C91.239 167.128 91.3503 167.989 91.4601 168.92C91.5897 169.825 91.6994 170.673 91.7892 171.465C91.8989 172.231 91.982 172.894 92.0386 173.454C92.0952 174.014 92.1168 174.331 92.1036 174.404C92.0771 174.549 91.9894 174.763 91.8403 175.045C91.688 175.304 91.5107 175.554 91.3086 175.796C91.1066 176.038 90.9094 176.232 90.7172 176.378C90.5217 176.501 90.3792 176.497 90.2896 176.368C90.2101 176.309 90.0923 175.982 89.9363 175.389C89.7769 174.772 89.5877 174.03 89.3686 173.162C89.1694 172.267 88.9486 171.304 88.7062 170.273C88.4605 169.219 88.2331 168.21 88.0239 167.246C87.8147 166.281 87.6304 165.408 87.471 164.626C87.3116 163.844 87.1954 163.28 87.1223 162.935C87.0293 162.452 86.928 161.91 86.8184 161.31C86.7054 160.687 86.5991 160.11 86.4995 159.58C86.4197 159.023 86.3516 158.547 86.2951 158.153C86.2585 157.732 86.2683 157.47 86.3246 157.367C86.3577 157.268 86.5052 157.223 86.7671 157.233C87.0521 157.239 87.3554 157.291 87.677 157.387C88.0184 157.456 88.3416 157.564 88.6466 157.709C88.9483 157.832 89.1572 157.968 89.2732 158.117C89.3396 158.249 89.4208 158.404 89.517 158.579C89.6099 158.732 89.7078 159.002 89.8107 159.389C90.1719 159.101 90.5712 158.831 91.0086 158.579C91.4427 158.303 91.8735 158.088 92.301 157.932C92.7484 157.749 93.1842 157.651 93.6085 157.638C94.0294 157.601 94.4172 157.664 94.772 157.826C95.004 157.959 95.2527 158.207 95.518 158.572C95.8065 158.933 96.0702 159.369 96.3091 159.879C96.5711 160.386 96.7918 160.935 96.971 161.525C97.1701 162.088 97.3078 162.636 97.3843 163.17ZM106.316 157.345C106.499 157.461 106.688 157.706 106.883 158.08C107.102 158.451 107.31 158.907 107.505 159.447C107.701 159.987 107.892 160.576 108.078 161.212C108.264 161.848 108.436 162.475 108.596 163.091C108.755 163.708 108.886 164.293 108.989 164.846C109.112 165.373 109.21 165.809 109.283 166.154C109.366 166.568 109.441 167.007 109.507 167.471C109.594 167.908 109.655 168.338 109.692 168.759C109.748 169.153 109.777 169.516 109.777 169.847C109.8 170.176 109.789 170.426 109.742 170.598C109.653 170.966 109.444 171.245 109.116 171.434C108.808 171.596 108.448 171.731 108.037 171.837C107.832 171.89 107.474 171.953 106.964 172.026C106.473 172.073 105.936 172.126 105.353 172.186C104.789 172.219 104.249 172.249 103.732 172.276C103.215 172.303 102.825 172.311 102.564 172.301C102.037 172.258 101.644 172.161 101.385 172.008C101.15 171.853 100.903 171.616 100.644 171.298C100.554 171.169 100.447 170.829 100.32 170.279C100.191 169.705 100.058 169.026 99.9219 168.24C99.8056 167.428 99.6925 166.557 99.5828 165.625C99.473 164.694 99.3815 163.807 99.3083 162.966C99.2583 162.12 99.2232 161.38 99.203 160.743C99.2061 160.103 99.2623 159.669 99.3716 159.44C99.557 159.082 99.9082 158.724 100.425 158.366C100.965 158.005 101.456 157.709 101.896 157.481C102.119 157.378 102.413 157.288 102.781 157.212C103.169 157.109 103.575 157.051 103.999 157.037C104.444 156.997 104.871 157.007 105.282 157.067C105.69 157.103 106.035 157.196 106.316 157.345ZM105.913 168.412C105.946 168.313 105.953 168.028 105.933 167.557C105.932 167.06 105.896 166.473 105.823 165.797C105.773 165.117 105.693 164.395 105.583 163.629C105.497 162.86 105.407 162.151 105.314 161.501C105.221 160.852 105.119 160.31 105.01 159.876C104.897 159.418 104.801 159.16 104.721 159.1C104.592 159.024 104.413 159.014 104.184 159.071C103.975 159.101 103.76 159.167 103.538 159.27C103.313 159.349 103.114 159.449 102.941 159.568C102.766 159.665 102.648 159.752 102.588 159.832C102.323 160.13 102.221 160.571 102.281 161.155C102.304 161.317 102.347 161.784 102.411 162.557C102.494 163.302 102.598 164.116 102.725 164.998C102.848 165.856 102.974 166.655 103.104 167.394C103.256 168.13 103.402 168.57 103.542 168.716C103.681 168.862 103.862 168.966 104.084 169.029C104.326 169.066 104.563 169.067 104.795 169.034C105.05 168.997 105.277 168.929 105.476 168.83C105.694 168.704 105.84 168.565 105.913 168.412ZM115.487 175.245C115.331 175.314 115.137 175.283 114.905 175.15C114.673 175.018 114.436 174.851 114.194 174.648C113.971 174.42 113.771 174.176 113.592 173.918C113.413 173.659 113.287 173.441 113.214 173.262C112.759 171.243 112.359 169.442 112.013 167.858C111.688 166.247 111.401 164.82 111.151 163.577C110.902 162.335 110.69 161.264 110.514 160.366C110.358 159.441 110.233 158.654 110.14 158.004C109.901 156.5 109.774 155.452 109.761 154.862C109.771 154.435 109.896 153.99 110.138 153.53C110.403 153.066 110.688 152.658 110.993 152.306C111.321 151.951 111.624 151.671 111.902 151.466C112.204 151.257 112.406 151.18 112.509 151.237C112.612 151.293 112.738 151.677 112.887 152.39C113.033 153.079 113.199 153.991 113.385 155.124C113.572 156.258 113.754 157.534 113.934 158.952C114.137 160.368 114.321 161.821 114.487 163.313C114.677 164.801 114.85 166.256 115.006 167.678C115.163 169.1 115.286 170.372 115.376 171.496C115.462 172.596 115.519 173.488 115.546 174.171C115.573 174.853 115.553 175.211 115.487 175.245ZM123.647 154.862C123.83 154.978 124.019 155.223 124.214 155.597C124.433 155.969 124.641 156.424 124.836 156.964C125.032 157.505 125.223 158.093 125.409 158.729C125.595 159.366 125.767 159.992 125.927 160.608C126.086 161.225 126.217 161.81 126.32 162.363C126.443 162.89 126.541 163.326 126.614 163.671C126.697 164.085 126.772 164.524 126.838 164.988C126.925 165.426 126.986 165.855 127.023 166.276C127.079 166.67 127.107 167.033 127.108 167.365C127.131 167.693 127.119 167.943 127.073 168.115C126.984 168.483 126.775 168.762 126.447 168.951C126.139 169.113 125.779 169.248 125.368 169.354C125.163 169.407 124.805 169.47 124.294 169.543C123.804 169.59 123.267 169.643 122.684 169.703C122.12 169.737 121.58 169.767 121.063 169.793C120.546 169.82 120.156 169.828 119.894 169.819C119.367 169.776 118.975 169.678 118.716 169.526C118.481 169.37 118.234 169.133 117.975 168.815C117.885 168.686 117.777 168.346 117.651 167.796C117.522 167.223 117.389 166.543 117.253 165.758C117.136 164.946 117.023 164.074 116.914 163.143C116.804 162.211 116.712 161.325 116.639 160.483C116.589 159.638 116.554 158.897 116.534 158.26C116.537 157.621 116.593 157.186 116.702 156.958C116.888 156.6 117.239 156.242 117.756 155.883C118.296 155.522 118.787 155.227 119.227 154.998C119.449 154.895 119.744 154.805 120.112 154.729C120.5 154.626 120.906 154.568 121.33 154.554C121.774 154.515 122.202 154.524 122.613 154.584C123.021 154.62 123.365 154.713 123.647 154.862ZM123.244 165.929C123.277 165.83 123.284 165.545 123.263 165.074C123.263 164.577 123.227 163.99 123.153 163.314C123.103 162.635 123.024 161.912 122.914 161.147C122.827 160.378 122.738 159.668 122.645 159.019C122.552 158.369 122.45 157.827 122.341 157.393C122.228 156.936 122.132 156.677 122.052 156.618C121.923 156.541 121.744 156.531 121.515 156.588C121.306 156.618 121.091 156.684 120.869 156.787C120.643 156.867 120.445 156.966 120.272 157.086C120.097 157.182 119.979 157.27 119.919 157.349C119.654 157.648 119.552 158.088 119.612 158.672C119.635 158.834 119.678 159.302 119.741 160.074C119.825 160.82 119.929 161.633 120.056 162.515C120.179 163.373 120.305 164.172 120.434 164.911C120.587 165.647 120.733 166.088 120.872 166.234C121.012 166.379 121.192 166.484 121.415 166.547C121.657 166.583 121.893 166.584 122.125 166.551C122.381 166.515 122.608 166.447 122.807 166.347C123.025 166.221 123.171 166.082 123.244 165.929ZM138.888 173.242C138.862 173.388 138.754 173.628 138.565 173.963C138.377 174.298 138.143 174.651 137.865 175.022C137.586 175.393 137.303 175.73 137.015 176.032C136.727 176.333 136.483 176.534 136.284 176.634C135.84 176.839 135.336 176.876 134.773 176.744C134.236 176.631 133.701 176.447 133.167 176.192C132.656 175.934 132.202 175.656 131.804 175.358C131.41 175.083 131.154 174.871 131.038 174.721C130.945 174.569 130.844 174.359 130.735 174.09C130.648 173.818 130.574 173.545 130.511 173.27C130.448 172.995 130.414 172.763 130.411 172.574C130.427 172.358 130.494 172.242 130.61 172.226C130.726 172.209 131.009 172.287 131.46 172.459C131.931 172.605 132.415 172.76 132.912 172.926C133.432 173.088 133.911 173.209 134.349 173.288C134.786 173.368 135.038 173.308 135.105 173.109C135.174 172.933 135.191 172.469 135.154 171.717C135.137 170.938 135.108 169.995 135.068 168.888C135.022 168.895 134.977 168.913 134.934 168.943C134.911 168.946 134.876 168.951 134.83 168.958C134.631 169.057 134.346 169.133 133.974 169.187C133.603 169.24 133.205 169.273 132.781 169.287C132.38 169.297 131.974 169.272 131.563 169.212C131.172 169.126 130.845 168.996 130.583 168.82C130.477 168.741 130.353 168.616 130.21 168.447C130.088 168.252 129.98 167.995 129.887 167.677C129.797 167.548 129.625 167.17 129.369 166.543C129.111 165.894 128.84 165.163 128.558 164.351C128.273 163.516 127.999 162.679 127.737 161.841C127.498 160.999 127.365 160.319 127.338 159.802C127.288 159.289 127.306 158.753 127.392 158.196C127.475 157.616 127.586 157.068 127.725 156.551C127.887 156.03 128.071 155.578 128.276 155.193C128.478 154.785 128.697 154.494 128.932 154.318C129.449 153.96 130.137 153.802 130.995 153.845C131.854 153.887 132.792 154.073 133.81 154.4C133.8 154.165 133.867 153.895 134.013 153.59C134.159 153.285 134.333 153.011 134.535 152.769C134.757 152.501 134.989 152.302 135.231 152.172C135.469 152.02 135.665 151.98 135.817 152.053C135.894 152.089 135.998 152.406 136.131 153.002C136.26 153.576 136.405 154.336 136.564 155.284C136.744 156.206 136.92 157.27 137.093 158.476C137.285 159.656 137.461 160.886 137.621 162.165C137.8 163.418 137.967 164.661 138.12 165.894C138.296 167.123 138.434 168.252 138.534 169.279C138.657 170.303 138.745 171.167 138.798 171.87C138.875 172.569 138.905 173.026 138.888 173.242ZM134.084 157.06C133.932 156.987 133.756 156.918 133.557 156.852C133.381 156.782 133.182 156.716 132.96 156.653C132.738 156.59 132.495 156.542 132.229 156.509C132.107 156.479 131.951 156.549 131.762 156.718C131.596 156.884 131.427 157.109 131.255 157.394C131.106 157.676 130.989 158.013 130.903 158.404C130.813 158.772 130.797 159.153 130.853 159.547C130.86 159.594 130.903 159.813 130.983 160.204C131.063 160.595 131.165 161.065 131.292 161.616C131.418 162.166 131.551 162.762 131.69 163.405C131.83 164.048 131.962 164.645 132.089 165.195C132.238 165.742 132.364 166.209 132.467 166.597C132.567 166.961 132.63 167.154 132.656 167.174C132.762 167.253 132.896 167.281 133.059 167.258C133.244 167.231 133.415 167.183 133.571 167.114C133.75 167.041 133.904 166.959 134.033 166.87C134.162 166.78 134.259 166.707 134.321 166.651C134.593 166.399 134.721 165.966 134.704 165.353C134.744 165.3 134.748 165.169 134.719 164.96C134.569 163.419 134.441 162.029 134.334 160.789C134.224 159.526 134.141 158.283 134.084 157.06ZM146.342 151.149C146.419 151.185 146.52 151.479 146.646 152.029C146.772 152.579 146.912 153.305 147.064 154.206C147.237 155.081 147.405 156.087 147.568 157.224C147.731 158.361 147.898 159.533 148.071 160.739C148.244 161.945 148.404 163.142 148.55 164.328C148.716 165.488 148.846 166.559 148.939 167.54C149.052 168.495 149.134 169.312 149.184 169.991C149.257 170.667 149.283 171.101 149.264 171.294C149.237 171.44 149.128 171.668 148.936 171.98C148.77 172.311 148.558 172.65 148.3 172.994C148.041 173.339 147.766 173.651 147.475 173.929C147.21 174.228 146.978 174.427 146.779 174.526C146.381 174.725 145.914 174.769 145.377 174.656C144.84 174.544 144.318 174.37 143.811 174.135C143.327 173.896 142.886 173.628 142.488 173.33C142.117 173.052 141.886 172.848 141.797 172.719C141.707 172.589 141.607 172.39 141.498 172.122C141.415 171.873 141.344 171.623 141.284 171.371C141.221 171.096 141.188 170.864 141.184 170.675C141.201 170.46 141.267 170.344 141.383 170.327C141.476 170.314 141.734 170.383 142.159 170.536C142.606 170.685 143.079 170.842 143.576 171.008C144.07 171.15 144.524 171.262 144.938 171.345C145.353 171.428 145.594 171.381 145.664 171.206C145.73 171.007 145.752 170.495 145.728 169.669C145.701 168.821 145.649 167.798 145.573 166.602C144.801 166.996 144.085 167.288 143.425 167.478C142.786 167.64 142.224 167.602 141.74 167.364C141.511 167.255 141.256 167.043 140.974 166.728C140.715 166.41 140.461 166.044 140.213 165.629C139.984 165.189 139.775 164.721 139.586 164.228C139.393 163.711 139.264 163.22 139.197 162.756C139.151 162.431 139.119 161.962 139.102 161.349C139.109 160.732 139.13 160.055 139.166 159.315C139.202 158.576 139.235 157.814 139.265 157.028C139.317 156.24 139.369 155.522 139.418 154.876C139.491 154.226 139.543 153.686 139.576 153.255C139.629 152.797 139.664 152.544 139.681 152.494C139.717 152.418 139.828 152.366 140.014 152.34C140.196 152.29 140.395 152.273 140.61 152.29C140.822 152.283 141.028 152.313 141.227 152.379C141.426 152.445 141.557 152.533 141.62 152.642C141.656 152.732 141.698 153.022 141.744 153.512C141.814 154 141.862 154.585 141.889 155.267C141.939 155.947 141.986 156.686 142.029 157.485C142.092 158.257 142.139 158.996 142.169 159.702C142.219 160.382 142.256 160.968 142.279 161.462C142.303 161.956 142.321 162.249 142.334 162.342C142.388 162.713 142.474 163.068 142.593 163.406C142.733 163.717 142.879 163.993 143.031 164.231C143.204 164.443 143.369 164.609 143.529 164.728C143.688 164.847 143.822 164.876 143.931 164.812C144.316 164.686 144.662 164.542 144.97 164.38C145.123 164.287 145.264 164.195 145.393 164.106C145.3 162.959 145.203 161.789 145.103 160.596C145 159.38 144.9 158.269 144.803 157.265C144.707 156.261 144.62 155.409 144.544 154.709C144.491 154.007 144.451 153.563 144.424 153.377C144.394 153.168 144.454 152.923 144.603 152.641C144.748 152.336 144.922 152.063 145.124 151.821C145.327 151.579 145.537 151.395 145.756 151.268C145.994 151.116 146.19 151.076 146.342 151.149ZM160.58 159.302C160.471 159.365 160.151 159.447 159.62 159.546C159.09 159.646 158.454 159.749 157.711 159.855C156.969 159.962 156.167 160.065 155.305 160.164C154.463 160.238 153.669 160.316 152.924 160.399C152.198 160.456 151.565 160.499 151.024 160.529C150.504 160.532 150.193 160.506 150.09 160.45C149.785 160.304 149.609 160.069 149.562 159.744C149.536 159.393 149.532 159.121 149.552 158.929C149.565 158.856 149.797 158.74 150.248 158.58C150.719 158.395 151.297 158.217 151.983 158.048C152.689 157.852 153.443 157.661 154.245 157.475C155.067 157.263 155.846 157.08 156.582 156.927C157.341 156.771 157.998 156.653 158.555 156.573C159.132 156.467 159.505 156.426 159.674 156.449C159.936 156.459 160.156 156.593 160.335 156.851C160.538 157.106 160.687 157.405 160.783 157.746C160.899 158.061 160.944 158.374 160.918 158.686C160.888 158.974 160.775 159.179 160.58 159.302ZM165.129 158.082C165.48 157.89 165.876 157.679 166.317 157.45C166.777 157.195 167.218 156.966 167.639 156.764C168.056 156.538 168.431 156.342 168.762 156.177C169.094 156.011 169.336 155.881 169.488 155.789C169.428 155.537 169.352 155.252 169.259 154.933C169.186 154.589 169.105 154.269 169.015 153.974C168.922 153.656 168.824 153.386 168.721 153.164C168.619 152.942 168.529 152.812 168.453 152.776C168.257 152.733 167.936 152.72 167.488 152.737C167.061 152.727 166.621 152.802 166.171 152.961C165.743 153.117 165.362 153.349 165.027 153.657C164.693 153.966 164.542 154.402 164.576 154.965C164.582 155.343 164.637 155.809 164.74 156.362C164.843 156.916 164.973 157.489 165.129 158.082ZM172.76 157.557C172.744 157.607 172.479 157.74 171.965 157.955C171.451 158.171 170.835 158.413 170.116 158.682C169.393 158.927 168.626 159.191 167.814 159.473C166.999 159.732 166.296 159.951 165.706 160.13C165.955 161.042 166.214 161.857 166.483 162.576C166.748 163.272 166.952 163.705 167.095 163.874C167.234 164.019 167.406 164.149 167.612 164.261C167.791 164.354 168.005 164.442 168.253 164.525C168.522 164.581 168.834 164.607 169.188 164.604C169.453 164.637 169.684 164.509 169.879 164.221C170.032 163.962 170.136 163.533 170.192 162.933C170.271 162.33 170.221 161.401 170.042 160.149C170.744 159.93 171.291 159.78 171.682 159.701C172.096 159.618 172.398 159.574 172.587 159.571C172.822 159.561 172.967 159.576 173.02 159.615C173.053 159.682 173.078 159.856 173.094 160.137C173.111 160.419 173.103 160.776 173.07 161.206C173.057 161.611 173.027 162.065 172.981 162.569C172.955 163.046 172.903 163.515 172.827 163.976C172.748 164.413 172.652 164.818 172.539 165.189C172.424 165.537 172.283 165.794 172.117 165.96C171.62 166.457 170.954 166.766 170.119 166.885C169.28 166.982 168.44 166.984 167.598 166.891C166.753 166.776 165.984 166.614 165.291 166.405C164.595 166.173 164.151 165.965 163.958 165.779C163.822 165.657 163.668 165.324 163.496 164.78C163.32 164.213 163.139 163.529 162.953 162.727C162.79 161.921 162.627 161.033 162.465 160.062C162.302 159.091 162.177 158.138 162.091 157.203C162.027 156.265 161.997 155.394 162 154.588C162.026 153.78 162.12 153.115 162.283 152.594C162.531 151.849 163.018 151.199 163.744 150.645C164.469 150.091 165.261 149.67 166.12 149.381C166.978 149.092 167.81 148.95 168.615 148.953C169.444 148.952 170.084 149.121 170.535 149.459C170.8 149.658 171.075 150.092 171.36 150.761C171.642 151.408 171.876 152.215 172.062 153.182C172.076 153.275 172.126 153.54 172.212 153.978C172.298 154.415 172.378 154.889 172.451 155.4C172.544 155.883 172.622 156.346 172.685 156.787C172.748 157.227 172.773 157.484 172.76 157.557ZM184.178 150.736C184.231 151.108 184.261 151.648 184.268 152.357C184.298 153.063 184.303 153.844 184.284 154.699C184.261 155.531 184.231 156.399 184.195 157.304C184.179 158.183 184.141 158.993 184.082 159.735C184.046 160.475 184.005 161.096 183.958 161.6C183.935 162.1 183.916 162.376 183.899 162.425C183.863 162.502 183.742 162.566 183.536 162.619C183.351 162.646 183.127 162.654 182.865 162.644C182.626 162.631 182.396 162.593 182.174 162.53C181.975 162.464 181.842 162.365 181.776 162.232C181.74 162.143 181.681 161.82 181.602 161.263C181.545 160.703 181.474 160.038 181.387 159.269C181.32 158.474 181.247 157.632 181.167 156.744C181.084 155.832 181.011 154.99 180.948 154.218C180.904 153.419 180.854 152.74 180.798 152.18C180.764 151.616 180.739 151.276 180.723 151.16C180.663 150.743 180.56 150.355 180.414 149.997C180.288 149.613 180.147 149.289 179.991 149.028C179.835 148.766 179.666 148.577 179.484 148.461C179.321 148.319 179.185 148.279 179.076 148.342C178.781 148.432 178.537 148.549 178.345 148.695C178.15 148.818 177.991 148.947 177.868 149.083C177.726 149.246 177.621 149.426 177.555 149.625C177.538 149.675 177.512 149.821 177.476 150.063C177.462 150.301 177.477 150.572 177.521 150.873C177.534 150.966 177.582 151.302 177.665 151.882C177.745 152.439 177.83 153.114 177.92 153.906C178.033 154.695 178.144 155.555 178.254 156.486C178.383 157.391 178.493 158.239 178.583 159.032C178.693 159.797 178.776 160.46 178.832 161.02C178.889 161.58 178.91 161.897 178.897 161.97C178.871 162.116 178.783 162.33 178.634 162.611C178.482 162.87 178.304 163.12 178.102 163.362C177.9 163.604 177.703 163.798 177.511 163.944C177.315 164.067 177.173 164.064 177.083 163.934C177.004 163.875 176.886 163.548 176.73 162.955C176.571 162.339 176.381 161.596 176.162 160.728C175.963 159.833 175.742 158.87 175.5 157.84C175.254 156.786 175.027 155.776 174.817 154.812C174.608 153.848 174.424 152.974 174.265 152.192C174.105 151.41 173.989 150.846 173.916 150.502C173.823 150.018 173.722 149.476 173.612 148.876C173.499 148.253 173.393 147.676 173.293 147.146C173.213 146.589 173.145 146.114 173.089 145.719C173.052 145.298 173.062 145.036 173.118 144.934C173.151 144.834 173.299 144.789 173.561 144.799C173.846 144.806 174.149 144.857 174.471 144.953C174.812 145.022 175.135 145.13 175.44 145.276C175.742 145.398 175.951 145.534 176.067 145.683C176.133 145.816 176.214 145.97 176.311 146.145C176.403 146.298 176.501 146.568 176.604 146.956C176.965 146.667 177.365 146.397 177.802 146.145C178.236 145.87 178.667 145.654 179.095 145.498C179.542 145.316 179.978 145.218 180.402 145.204C180.823 145.168 181.211 145.23 181.566 145.393C181.798 145.525 182.046 145.774 182.312 146.138C182.6 146.499 182.864 146.935 183.103 147.445C183.365 147.952 183.585 148.501 183.765 149.091C183.964 149.654 184.101 150.203 184.178 150.736ZM194.816 145.412C194.978 145.555 195.131 145.711 195.273 145.88C195.412 146.025 195.55 146.242 195.686 146.531C195.819 146.796 195.942 147.157 196.054 147.614C196.19 148.068 196.312 148.667 196.418 149.409C196.588 150.592 196.724 151.792 196.827 153.009C196.95 154.198 197.053 155.249 197.137 156.161C197.23 156.976 197.315 157.733 197.391 158.433C197.468 159.132 197.532 159.75 197.586 160.287C197.636 160.801 197.659 161.212 197.656 161.52C197.676 161.825 197.676 161.991 197.656 162.017C197.573 162.1 197.419 162.098 197.194 162.012C196.988 161.9 196.754 161.756 196.492 161.58C196.254 161.401 196.025 161.209 195.806 161.004C195.587 160.798 195.445 160.629 195.378 160.497C195.362 160.381 195.279 160.049 195.129 159.502C194.619 159.907 194.037 160.227 193.385 160.463C192.728 160.675 192.062 160.818 191.386 160.891C190.73 160.938 190.108 160.897 189.522 160.767C188.935 160.638 188.477 160.42 188.149 160.112C188.013 159.989 187.879 159.795 187.746 159.53C187.637 159.262 187.522 158.958 187.403 158.62C187.303 158.256 187.202 157.88 187.099 157.492C186.993 157.081 186.903 156.703 186.83 156.358C186.654 155.46 186.659 154.666 186.844 153.977C187.026 153.264 187.465 152.692 188.161 152.261C188.466 152.075 188.885 151.944 189.419 151.868C189.972 151.765 190.521 151.71 191.064 151.703C191.628 151.67 192.137 151.668 192.591 151.698C193.041 151.704 193.328 151.722 193.451 151.752C193.188 150.582 192.973 149.571 192.803 148.719C192.631 147.844 192.456 147.289 192.281 147.054C192.141 146.908 191.979 146.766 191.793 146.627C191.637 146.531 191.433 146.43 191.181 146.324C190.93 146.218 190.636 146.153 190.301 146.13C190.04 146.12 189.822 146.258 189.65 146.543C189.498 146.802 189.384 147.244 189.308 147.871C189.252 148.471 189.298 149.375 189.448 150.585C188.639 150.725 188.013 150.814 187.569 150.854C187.144 150.868 186.825 150.866 186.609 150.85C186.347 150.84 186.188 150.804 186.132 150.741C186.072 150.654 186.047 150.315 186.057 149.721C186.063 149.105 186.098 148.437 186.16 147.718C186.246 146.995 186.36 146.304 186.503 145.644C186.668 144.981 186.878 144.549 187.134 144.346C187.644 143.942 188.289 143.731 189.067 143.714C189.87 143.694 190.663 143.782 191.449 143.977C192.235 144.172 192.944 144.414 193.577 144.702C194.21 144.99 194.623 145.227 194.816 145.412ZM194.114 155.883C194.097 155.767 194.087 155.615 194.084 155.426C194.077 155.214 194.059 155.003 194.029 154.795C193.999 154.586 193.959 154.39 193.909 154.208C193.883 154.022 193.839 153.886 193.78 153.8C193.69 153.671 193.465 153.585 193.103 153.542C192.765 153.496 192.386 153.491 191.965 153.528C191.541 153.541 191.145 153.586 190.777 153.662C190.405 153.715 190.157 153.798 190.031 153.911C189.862 154.054 189.746 154.236 189.683 154.458C189.643 154.677 189.644 155.008 189.684 155.453C189.713 155.661 189.757 155.88 189.813 156.109C189.87 156.337 189.926 156.566 189.982 156.795C190.059 156.997 190.132 157.176 190.201 157.332C190.294 157.484 190.379 157.579 190.455 157.615C190.634 157.708 190.927 157.772 191.335 157.809C191.763 157.818 192.184 157.782 192.598 157.699C193.009 157.592 193.372 157.398 193.687 157.117C194.001 156.835 194.144 156.424 194.114 155.883ZM206.424 143.643C206.676 143.749 206.945 143.971 207.23 144.309C207.535 144.62 207.815 145.006 208.071 145.467C208.349 145.924 208.586 146.423 208.782 146.963C208.975 147.48 209.106 147.982 209.175 148.469C209.225 148.817 209.249 149.311 209.246 149.951C209.262 150.564 209.254 151.252 209.222 152.014C209.185 152.753 209.143 153.529 209.093 154.341C209.04 155.13 208.979 155.861 208.91 156.534C208.864 157.203 208.816 157.778 208.767 158.259C208.714 158.717 208.671 158.995 208.638 159.094C208.562 159.389 208.492 159.648 208.429 159.87C208.386 160.066 208.313 160.218 208.211 160.328C207.982 160.55 207.677 160.736 207.296 160.885C206.912 161.011 206.512 161.115 206.098 161.199C205.684 161.282 205.278 161.34 204.88 161.373C204.502 161.38 204.204 161.363 203.985 161.324C203.889 161.314 203.781 161.305 203.662 161.299C203.562 161.266 203.451 161.234 203.329 161.205C203.153 161.632 202.938 162.03 202.683 162.398C202.424 162.743 202.164 162.91 201.902 162.901C201.806 162.891 201.647 162.523 201.425 161.797C201.225 161.068 200.981 160.108 200.693 158.919C200.4 157.706 200.085 156.33 199.746 154.792C199.408 153.254 199.076 151.68 198.75 150.069C198.421 148.435 198.109 146.835 197.814 145.267C197.518 143.699 197.259 142.304 197.036 141.081C196.834 139.831 196.687 138.811 196.598 138.019C196.504 137.203 196.499 136.754 196.582 136.671C196.665 136.588 196.882 136.616 197.233 136.755C197.605 136.868 198.012 137.07 198.457 137.361C198.898 137.63 199.314 137.973 199.705 138.39C200.12 138.804 200.42 139.247 200.606 139.717C200.728 140.079 200.866 140.71 201.019 141.611C201.195 142.51 201.371 143.574 201.547 144.803C202.512 144.262 203.415 143.873 204.256 143.634C205.121 143.391 205.844 143.394 206.424 143.643ZM205.661 148.973C205.607 148.602 205.498 148.25 205.332 147.919C205.163 147.564 204.979 147.271 204.78 147.039C204.577 146.784 204.374 146.6 204.168 146.488C203.962 146.375 203.793 146.352 203.661 146.418C203.412 146.501 203.179 146.606 202.96 146.732C202.738 146.835 202.551 146.932 202.398 147.025C202.203 147.148 202.04 147.254 201.911 147.344C202.084 148.716 202.249 150.113 202.405 151.535C202.585 152.953 202.762 154.277 202.939 155.507C203.025 156.11 203.113 156.642 203.203 157.103C203.289 157.54 203.34 157.817 203.357 157.933C203.506 158.48 203.714 158.853 203.979 159.051C204.055 159.088 204.17 159.143 204.322 159.215C204.495 159.262 204.667 159.308 204.839 159.354C205.032 159.374 205.211 159.384 205.376 159.384C205.539 159.361 205.671 159.294 205.774 159.185C205.794 159.159 205.804 158.897 205.803 158.399C205.823 157.876 205.828 157.248 205.818 156.515C205.807 155.783 205.789 154.992 205.762 154.144C205.755 153.269 205.746 152.465 205.736 151.732C205.723 150.977 205.702 150.34 205.676 149.823C205.672 149.303 205.667 149.019 205.661 148.973ZM215.644 160.896C215.488 160.966 215.294 160.935 215.062 160.802C214.83 160.67 214.593 160.502 214.351 160.3C214.129 160.072 213.928 159.828 213.749 159.57C213.57 159.311 213.444 159.093 213.371 158.914C212.916 156.895 212.516 155.094 212.17 153.51C211.845 151.899 211.558 150.472 211.309 149.229C211.06 147.986 210.847 146.916 210.671 146.018C210.515 145.093 210.39 144.306 210.297 143.656C210.058 142.151 209.932 141.104 209.918 140.514C209.928 140.087 210.054 139.642 210.295 139.182C210.56 138.717 210.845 138.31 211.15 137.958C211.478 137.603 211.781 137.323 212.06 137.118C212.361 136.909 212.563 136.832 212.666 136.889C212.769 136.945 212.895 137.329 213.044 138.042C213.191 138.731 213.357 139.643 213.543 140.776C213.729 141.91 213.912 143.186 214.091 144.604C214.294 146.02 214.478 147.473 214.645 148.964C214.834 150.453 215.007 151.908 215.163 153.33C215.32 154.751 215.443 156.024 215.533 157.148C215.619 158.248 215.676 159.14 215.703 159.823C215.73 160.505 215.71 160.863 215.644 160.896ZM220.219 150.19C220.57 149.998 220.966 149.787 221.407 149.558C221.867 149.303 222.308 149.074 222.729 148.872C223.146 148.646 223.521 148.451 223.852 148.285C224.184 148.119 224.426 147.989 224.578 147.897C224.518 147.645 224.442 147.36 224.349 147.041C224.276 146.697 224.195 146.377 224.105 146.082C224.012 145.764 223.914 145.494 223.811 145.272C223.708 145.05 223.619 144.92 223.543 144.884C223.347 144.841 223.026 144.828 222.578 144.845C222.151 144.835 221.711 144.91 221.261 145.069C220.833 145.225 220.452 145.457 220.117 145.765C219.783 146.074 219.632 146.51 219.665 147.073C219.672 147.451 219.727 147.917 219.83 148.47C219.933 149.024 220.063 149.597 220.219 150.19ZM227.85 149.665C227.834 149.715 227.568 149.848 227.055 150.063C226.541 150.279 225.925 150.521 225.206 150.79C224.483 151.035 223.716 151.299 222.904 151.581C222.089 151.84 221.386 152.059 220.796 152.238C221.045 153.15 221.304 153.965 221.573 154.684C221.838 155.38 222.042 155.813 222.185 155.982C222.324 156.128 222.496 156.257 222.702 156.369C222.881 156.462 223.095 156.55 223.343 156.633C223.612 156.689 223.923 156.715 224.278 156.712C224.543 156.745 224.774 156.617 224.969 156.329C225.121 156.07 225.226 155.641 225.282 155.041C225.361 154.438 225.311 153.509 225.132 152.257C225.834 152.038 226.381 151.888 226.772 151.809C227.186 151.726 227.488 151.682 227.677 151.679C227.912 151.669 228.056 151.684 228.109 151.724C228.143 151.79 228.168 151.964 228.184 152.246C228.201 152.527 228.193 152.884 228.16 153.314C228.147 153.719 228.117 154.173 228.071 154.677C228.045 155.154 227.993 155.623 227.917 156.084C227.838 156.521 227.742 156.926 227.629 157.297C227.514 157.645 227.373 157.902 227.207 158.068C226.71 158.565 226.044 158.874 225.209 158.993C224.37 159.09 223.53 159.092 222.688 158.999C221.843 158.884 221.074 158.722 220.381 158.513C219.685 158.281 219.241 158.073 219.048 157.887C218.912 157.765 218.758 157.432 218.585 156.888C218.41 156.321 218.229 155.637 218.043 154.835C217.88 154.029 217.717 153.141 217.554 152.17C217.392 151.199 217.267 150.246 217.18 149.311C217.117 148.373 217.087 147.502 217.09 146.696C217.116 145.888 217.21 145.223 217.373 144.702C217.621 143.957 218.108 143.307 218.833 142.753C219.559 142.199 220.351 141.778 221.21 141.489C222.068 141.2 222.9 141.058 223.705 141.061C224.534 141.06 225.174 141.229 225.625 141.567C225.89 141.766 226.165 142.2 226.45 142.869C226.732 143.516 226.966 144.323 227.152 145.29C227.166 145.383 227.215 145.648 227.302 146.086C227.388 146.523 227.468 146.997 227.541 147.508C227.634 147.991 227.712 148.454 227.775 148.895C227.838 149.335 227.863 149.592 227.85 149.665ZM237.882 134.413C238.032 134.96 238.214 136.07 238.431 137.744C238.534 138.463 238.635 139.336 238.735 140.364C238.858 141.388 238.988 142.624 239.124 144.072C239.257 145.498 239.4 147.158 239.554 149.054C239.727 150.923 239.902 153.053 240.078 155.443C240.065 155.681 239.997 155.952 239.875 156.253C239.775 156.552 239.649 156.83 239.497 157.089C239.345 157.347 239.176 157.573 238.99 157.765C238.801 157.934 238.622 158.007 238.453 157.984C238.404 157.967 238.319 157.79 238.2 157.452C238.103 157.111 237.987 156.63 237.851 156.01C236.873 156.624 235.932 157.078 235.028 157.374C234.123 157.669 233.354 157.673 232.721 157.385C232.469 157.279 232.202 157.068 231.92 156.754C231.658 156.412 231.399 156.011 231.144 155.551C230.888 155.09 230.664 154.601 230.472 154.084C230.276 153.544 230.143 153.03 230.074 152.543C230.024 152.195 229.981 151.728 229.944 151.141C229.907 150.554 229.875 149.92 229.849 149.237C229.819 148.531 229.8 147.823 229.793 147.114C229.783 146.381 229.781 145.707 229.787 145.09C229.794 144.474 229.802 143.952 229.812 143.524C229.821 143.097 229.843 142.833 229.876 142.734C229.882 142.449 229.93 142.205 230.02 142.003C230.132 141.797 230.229 141.641 230.308 141.535C230.513 141.316 230.83 141.129 231.257 140.973C231.708 140.814 232.175 140.688 232.659 140.595C233.166 140.498 233.644 140.442 234.091 140.425C234.535 140.385 234.867 140.385 235.086 140.425L235.155 140.415C234.697 137.545 234.379 135.329 234.203 133.768C234.027 132.207 234 131.358 234.122 131.222C234.205 131.139 234.422 131.167 234.774 131.307C235.125 131.446 235.5 131.664 235.898 131.962C236.319 132.257 236.715 132.627 237.086 133.071C237.478 133.488 237.743 133.935 237.882 134.413ZM235.384 154.659C235.699 154.543 235.978 154.42 236.22 154.291C236.481 154.135 236.698 153.997 236.871 153.878C237.066 153.755 237.224 153.614 237.343 153.455C237.233 152.855 237.114 152.186 236.984 151.447C236.851 150.684 236.715 149.899 236.576 149.09C236.436 148.281 236.295 147.461 236.152 146.629C236.006 145.774 235.865 144.954 235.728 144.168C235.692 143.913 235.614 143.699 235.494 143.527C235.398 143.351 235.284 143.214 235.151 143.114C235.075 143.078 234.927 143.04 234.709 143C234.487 142.937 234.233 142.903 233.948 142.896C233.683 142.863 233.423 142.865 233.167 142.901C232.935 142.935 232.78 143.004 232.7 143.11C232.657 143.14 232.644 143.379 232.661 143.826C232.697 144.247 232.739 144.786 232.786 145.442C232.852 146.072 232.915 146.761 232.975 147.51C233.058 148.256 233.135 148.956 233.205 149.608C233.275 150.261 233.331 150.822 233.375 151.289C233.418 151.756 233.443 152.013 233.449 152.06C233.506 152.454 233.605 152.818 233.748 153.153C233.914 153.485 234.098 153.778 234.3 154.033C234.499 154.265 234.703 154.449 234.912 154.585C235.118 154.697 235.275 154.722 235.384 154.659ZM94.9601 211.573C95.3114 211.381 95.7074 211.17 96.1481 210.941C96.6087 210.686 97.0495 210.457 97.4704 210.255C97.8879 210.029 98.2624 209.834 98.5938 209.668C98.9252 209.502 99.1671 209.372 99.3195 209.28C99.2597 209.028 99.1834 208.743 99.0905 208.425C99.0174 208.08 98.9361 207.76 98.8465 207.465C98.7535 207.147 98.6557 206.877 98.5528 206.655C98.45 206.433 98.3604 206.304 98.2842 206.267C98.0886 206.224 97.7671 206.211 97.3196 206.228C96.8921 206.218 96.4529 206.293 96.0022 206.452C95.5747 206.608 95.1936 206.84 94.8589 207.148C94.5243 207.457 94.3736 207.893 94.407 208.456C94.4138 208.834 94.4687 209.3 94.5716 209.853C94.6746 210.407 94.8041 210.98 94.9601 211.573ZM102.592 211.048C102.575 211.098 102.31 211.231 101.796 211.446C101.283 211.662 100.666 211.904 99.9471 212.173C99.2246 212.419 98.4574 212.682 97.6454 212.964C96.8302 213.223 96.1276 213.442 95.5376 213.622C95.7866 214.533 96.0454 215.348 96.3142 216.067C96.5796 216.763 96.7837 217.196 96.9262 217.365C97.0655 217.511 97.2379 217.64 97.4435 217.752C97.6225 217.845 97.8363 217.933 98.0849 218.016C98.3534 218.072 98.665 218.098 99.0197 218.095C99.2849 218.128 99.5152 218 99.7106 217.712C99.863 217.453 99.9672 217.024 100.023 216.424C100.103 215.821 100.053 214.893 99.8731 213.64C100.576 213.421 101.123 213.271 101.514 213.192C101.928 213.109 102.23 213.065 102.418 213.062C102.654 213.052 102.798 213.067 102.851 213.107C102.884 213.173 102.909 213.347 102.926 213.629C102.942 213.91 102.934 214.267 102.901 214.698C102.888 215.102 102.859 215.556 102.812 216.06C102.786 216.537 102.735 217.006 102.659 217.467C102.579 217.904 102.483 218.309 102.371 218.68C102.255 219.028 102.114 219.285 101.949 219.451C101.452 219.948 100.786 220.257 99.9503 220.377C99.1118 220.473 98.2715 220.475 97.4296 220.382C96.5843 220.267 95.8153 220.105 95.1225 219.896C94.4263 219.664 93.9821 219.456 93.7898 219.27C93.6538 219.148 93.4996 218.815 93.327 218.271C93.1511 217.704 92.9702 217.02 92.7842 216.218C92.6215 215.413 92.4588 214.524 92.296 213.553C92.1332 212.582 92.0085 211.629 91.922 210.695C91.8586 209.757 91.8284 208.885 91.8314 208.079C91.8576 207.271 91.9518 206.606 92.1141 206.086C92.3624 205.34 92.8493 204.69 93.575 204.136C94.3007 203.582 95.0927 203.161 95.9511 202.872C96.8094 202.584 97.6413 202.441 98.4468 202.444C99.2754 202.443 99.9152 202.612 100.366 202.95C100.631 203.149 100.907 203.583 101.192 204.252C101.474 204.899 101.708 205.706 101.894 206.673C101.907 206.766 101.957 207.031 102.043 207.469C102.13 207.906 102.209 208.38 102.283 208.891C102.376 209.375 102.454 209.837 102.517 210.278C102.58 210.719 102.605 210.975 102.592 211.048ZM112.624 195.796C112.773 196.343 112.956 197.453 113.172 199.127C113.275 199.846 113.377 200.719 113.476 201.747C113.599 202.771 113.729 204.007 113.866 205.456C113.999 206.881 114.142 208.541 114.295 210.437C114.468 212.307 114.643 214.436 114.82 216.826C114.807 217.064 114.739 217.335 114.616 217.636C114.517 217.935 114.391 218.213 114.239 218.472C114.086 218.73 113.917 218.956 113.732 219.148C113.543 219.317 113.364 219.39 113.195 219.367C113.145 219.35 113.061 219.173 112.941 218.835C112.845 218.494 112.729 218.013 112.593 217.393C111.615 218.007 110.674 218.461 109.769 218.757C108.864 219.052 108.095 219.056 107.462 218.768C107.21 218.662 106.943 218.451 106.661 218.137C106.399 217.795 106.141 217.394 105.885 216.934C105.63 216.473 105.406 215.984 105.214 215.467C105.018 214.927 104.885 214.413 104.815 213.926C104.765 213.578 104.722 213.111 104.685 212.524C104.649 211.937 104.617 211.303 104.59 210.62C104.56 209.914 104.542 209.206 104.535 208.497C104.524 207.764 104.523 207.09 104.529 206.473C104.535 205.857 104.543 205.335 104.553 204.907C104.563 204.48 104.584 204.216 104.617 204.117C104.624 203.832 104.672 203.588 104.761 203.386C104.874 203.18 104.97 203.024 105.05 202.918C105.255 202.7 105.571 202.512 105.999 202.356C106.45 202.197 106.917 202.071 107.401 201.978C107.908 201.881 108.385 201.825 108.833 201.808C109.277 201.768 109.608 201.768 109.827 201.808L109.897 201.798C109.438 198.928 109.121 196.712 108.944 195.151C108.768 193.59 108.741 192.741 108.864 192.605C108.947 192.522 109.164 192.55 109.515 192.69C109.867 192.829 110.241 193.047 110.639 193.345C111.06 193.64 111.456 194.01 111.828 194.454C112.219 194.871 112.484 195.318 112.624 195.796ZM110.126 216.042C110.441 215.926 110.719 215.803 110.961 215.674C111.223 215.518 111.44 215.38 111.612 215.261C111.808 215.138 111.965 214.997 112.084 214.838C111.975 214.238 111.855 213.569 111.726 212.83C111.593 212.067 111.457 211.282 111.317 210.473C111.178 209.664 111.036 208.844 110.893 208.012C110.747 207.157 110.606 206.337 110.47 205.551C110.433 205.296 110.355 205.082 110.236 204.91C110.14 204.734 110.025 204.597 109.893 204.498C109.817 204.461 109.669 204.423 109.45 204.383C109.228 204.32 108.975 204.286 108.689 204.279C108.424 204.246 108.164 204.248 107.909 204.285C107.677 204.318 107.521 204.387 107.442 204.494C107.399 204.523 107.385 204.762 107.402 205.209C107.439 205.63 107.48 206.169 107.527 206.825C107.594 207.455 107.657 208.144 107.717 208.894C107.8 209.639 107.876 210.339 107.946 210.992C108.016 211.644 108.073 212.205 108.116 212.672C108.159 213.139 108.184 213.396 108.191 213.443C108.247 213.837 108.347 214.202 108.49 214.536C108.656 214.868 108.84 215.161 109.042 215.416C109.241 215.648 109.445 215.832 109.654 215.968C109.859 216.08 110.017 216.105 110.126 216.042ZM122.966 198.825C123.023 198.887 123.139 199.202 123.315 199.769C123.491 200.336 123.687 201.042 123.902 201.887C124.141 202.729 124.379 203.642 124.614 204.626C124.873 205.607 125.114 206.543 125.336 207.435C125.582 208.323 125.791 209.122 125.964 209.831C126.136 210.54 126.264 211.019 126.347 211.268C126.477 211.675 126.624 212.128 126.79 212.625C126.953 213.099 127.102 213.563 127.238 214.017C127.371 214.448 127.472 214.824 127.542 215.145C127.635 215.463 127.652 215.662 127.592 215.742C127.556 215.818 127.373 215.868 127.045 215.891C126.714 215.891 126.344 215.873 125.936 215.837C125.549 215.774 125.171 215.698 124.803 215.609C124.455 215.493 124.224 215.372 124.111 215.246C124.002 215.143 123.884 214.983 123.758 214.764C123.655 214.542 123.504 214.149 123.305 213.586C123.1 213.97 122.875 214.381 122.63 214.819C122.404 215.23 122.176 215.618 121.944 215.983C121.709 216.324 121.489 216.604 121.283 216.823C121.078 217.042 120.917 217.16 120.801 217.176C120.615 217.203 120.31 217.057 119.886 216.739C119.458 216.398 119.024 216.01 118.583 215.576C118.142 215.142 117.739 214.727 117.374 214.329C117.009 213.931 116.806 213.665 116.762 213.529C116.696 213.396 116.618 213.017 116.528 212.39C116.462 211.76 116.385 211.061 116.299 210.292C116.232 209.497 116.167 208.713 116.104 207.941C116.037 207.145 115.994 206.512 115.974 206.041C115.954 205.571 115.927 205.054 115.894 204.49C115.88 203.9 115.873 203.357 115.873 202.859C115.87 202.339 115.865 201.89 115.858 201.512C115.874 201.131 115.901 200.902 115.937 200.826C115.974 200.75 116.096 200.697 116.305 200.667C116.534 200.61 116.767 200.589 117.006 200.602C117.264 200.588 117.505 200.613 117.727 200.676C117.946 200.716 118.098 200.789 118.184 200.895C118.244 200.981 118.31 201.279 118.384 201.79C118.477 202.273 118.575 202.875 118.678 203.594C118.777 204.29 118.887 205.056 119.007 205.891C119.123 206.703 119.221 207.47 119.301 208.193C119.401 208.889 119.475 209.494 119.525 210.008C119.595 210.495 119.637 210.785 119.65 210.878C119.677 211.063 119.833 211.408 120.118 211.912C120.426 212.412 120.731 212.889 121.033 213.343L122.534 210.926C122.451 210.512 122.351 209.982 122.235 209.335C122.142 208.686 122.032 208.003 121.906 207.287C121.78 206.571 121.652 205.844 121.522 205.105C121.393 204.365 121.285 203.694 121.198 203.091C121.112 202.488 121.04 201.989 120.984 201.595C120.927 201.2 120.906 200.967 120.919 200.894C120.969 200.744 121.081 200.539 121.257 200.277C121.432 200.015 121.633 199.761 121.858 199.516C122.083 199.271 122.292 199.075 122.484 198.929C122.7 198.78 122.86 198.745 122.966 198.825ZM132.059 197.096C131.953 197.016 131.743 196.952 131.428 196.902C131.113 196.852 130.909 196.917 130.816 197.096C130.76 197.199 130.687 197.517 130.598 198.051C130.509 198.585 130.428 199.259 130.355 200.075C130.306 200.887 130.285 201.813 130.292 202.854C130.322 203.891 130.415 204.955 130.571 206.046C130.684 206.834 130.827 207.583 131 208.293C131.169 208.979 131.338 209.582 131.508 210.102C131.7 210.619 131.889 211.03 132.075 211.335C132.284 211.637 132.471 211.787 132.637 211.787C132.776 211.767 132.915 211.582 133.054 211.23C133.217 210.876 133.361 210.476 133.486 210.032C133.632 209.561 133.748 209.13 133.834 208.739C133.94 208.321 134.019 208.05 134.072 207.924C134.215 207.595 134.422 207.305 134.693 207.053C134.962 206.778 135.2 206.626 135.409 206.596C135.525 206.579 135.618 206.649 135.688 206.804C135.78 206.957 135.855 207.147 135.912 207.376C135.988 207.578 136.043 207.795 136.076 208.027C136.109 208.259 136.136 208.445 136.156 208.584C136.192 208.839 136.214 209.322 136.221 210.031C136.228 210.74 136.19 211.468 136.107 212.214C136.048 212.956 135.942 213.622 135.79 214.212C135.661 214.799 135.467 215.099 135.209 215.112C134.95 215.126 134.551 215.065 134.01 214.929C133.47 214.793 132.913 214.624 132.34 214.423C131.789 214.217 131.274 214.007 130.793 213.792C130.332 213.55 130.044 213.354 129.928 213.205C129.812 213.056 129.616 212.682 129.341 212.082C129.062 211.459 128.752 210.698 128.41 209.8C128.091 208.899 127.783 207.901 127.484 206.808C127.185 205.714 126.956 204.61 126.797 203.497C126.637 202.383 126.502 201.278 126.393 200.18C126.306 199.08 126.271 198.091 126.287 197.212C126.303 196.334 126.378 195.613 126.51 195.05C126.665 194.483 126.904 194.164 127.226 194.095C128.117 193.872 129.033 193.824 129.975 193.949C130.936 194.048 131.806 194.255 132.585 194.57C133.384 194.858 134.049 195.201 134.579 195.598C135.107 195.973 135.403 196.309 135.47 196.607C135.54 196.929 135.581 197.384 135.595 197.974C135.631 198.561 135.635 199.164 135.605 199.784C135.596 200.377 135.556 200.928 135.487 201.435C135.437 201.915 135.371 202.197 135.288 202.28C135.109 202.519 134.897 202.774 134.652 203.046C134.407 203.318 134.147 203.403 133.871 203.3C133.772 203.267 133.666 203.104 133.553 202.813C133.437 202.498 133.311 202.113 133.175 201.659C133.062 201.202 132.944 200.71 132.821 200.183C132.698 199.656 132.582 199.175 132.473 198.741C132.383 198.281 132.293 197.903 132.204 197.608C132.134 197.286 132.086 197.116 132.059 197.096ZM146.224 195.812C146.386 195.955 146.539 196.111 146.681 196.28C146.82 196.425 146.958 196.642 147.094 196.931C147.227 197.196 147.35 197.557 147.462 198.014C147.599 198.469 147.72 199.067 147.826 199.809C147.996 200.992 148.132 202.192 148.235 203.409C148.358 204.599 148.461 205.649 148.545 206.561C148.638 207.376 148.723 208.133 148.799 208.833C148.876 209.532 148.941 210.15 148.994 210.687C149.044 211.201 149.067 211.612 149.064 211.92C149.084 212.225 149.084 212.391 149.064 212.417C148.981 212.5 148.827 212.499 148.602 212.412C148.396 212.3 148.162 212.156 147.9 211.98C147.662 211.801 147.433 211.609 147.214 211.404C146.995 211.198 146.853 211.029 146.786 210.897C146.77 210.781 146.687 210.449 146.537 209.903C146.027 210.307 145.445 210.627 144.793 210.863C144.136 211.075 143.47 211.218 142.794 211.291C142.138 211.338 141.516 211.297 140.93 211.168C140.343 211.039 139.885 210.82 139.557 210.512C139.421 210.389 139.287 210.195 139.154 209.93C139.045 209.662 138.93 209.359 138.811 209.021C138.711 208.656 138.61 208.28 138.507 207.892C138.401 207.481 138.311 207.103 138.238 206.759C138.062 205.86 138.067 205.067 138.252 204.377C138.434 203.664 138.873 203.092 139.569 202.661C139.874 202.476 140.293 202.344 140.827 202.268C141.38 202.165 141.929 202.11 142.472 202.103C143.036 202.07 143.545 202.068 143.999 202.098C144.449 202.104 144.736 202.122 144.859 202.152C144.597 200.982 144.381 199.971 144.211 199.119C144.039 198.245 143.864 197.689 143.689 197.454C143.549 197.308 143.387 197.166 143.201 197.027C143.045 196.931 142.841 196.83 142.59 196.724C142.338 196.618 142.044 196.553 141.709 196.53C141.448 196.52 141.231 196.658 141.058 196.943C140.906 197.202 140.792 197.644 140.716 198.271C140.66 198.871 140.706 199.775 140.856 200.985C140.047 201.125 139.421 201.215 138.977 201.254C138.553 201.268 138.233 201.266 138.017 201.25C137.755 201.24 137.596 201.204 137.54 201.141C137.48 201.055 137.455 200.715 137.465 200.121C137.471 199.505 137.506 198.837 137.569 198.118C137.654 197.395 137.768 196.704 137.911 196.044C138.076 195.381 138.287 194.949 138.542 194.746C139.052 194.342 139.697 194.131 140.475 194.114C141.278 194.094 142.071 194.182 142.857 194.377C143.643 194.572 144.352 194.814 144.985 195.102C145.619 195.39 146.031 195.627 146.224 195.812ZM145.522 206.283C145.505 206.167 145.495 206.015 145.492 205.826C145.485 205.614 145.467 205.403 145.437 205.195C145.407 204.986 145.367 204.79 145.317 204.608C145.291 204.422 145.247 204.286 145.188 204.2C145.098 204.071 144.873 203.985 144.511 203.942C144.173 203.896 143.794 203.891 143.373 203.928C142.949 203.941 142.553 203.986 142.185 204.062C141.814 204.115 141.565 204.198 141.439 204.311C141.27 204.454 141.154 204.636 141.091 204.858C141.052 205.077 141.052 205.408 141.092 205.853C141.122 206.061 141.165 206.28 141.221 206.509C141.278 206.738 141.334 206.966 141.39 207.195C141.467 207.397 141.54 207.576 141.609 207.732C141.702 207.884 141.787 207.979 141.863 208.015C142.042 208.108 142.335 208.172 142.743 208.209C143.171 208.218 143.592 208.182 144.006 208.099C144.417 207.993 144.78 207.798 145.095 207.517C145.409 207.235 145.552 206.824 145.522 206.283ZM156.933 194.704C156.966 194.771 156.994 194.968 157.017 195.296C157.037 195.601 157.041 195.956 157.028 196.36C157.034 196.738 157.026 197.094 157.003 197.429C156.977 197.741 156.945 197.935 156.909 198.011C156.68 198.067 156.45 198.112 156.218 198.145C155.983 198.155 155.761 198.175 155.552 198.205L154.821 198.31C155.017 199.844 155.2 201.369 155.37 202.884C155.539 204.398 155.676 205.764 155.779 206.98C155.879 208.174 155.936 209.148 155.949 209.904C155.986 210.656 155.971 211.049 155.905 211.082C155.746 211.129 155.55 211.086 155.318 210.953C155.086 210.821 154.849 210.653 154.607 210.451C154.385 210.223 154.174 209.992 153.975 209.76C153.796 209.502 153.68 209.27 153.627 209.064C153.308 207.666 153.011 206.335 152.735 205.072C152.456 203.786 152.222 202.648 152.033 201.657C151.774 200.51 151.561 199.44 151.395 198.445C151.137 198.459 150.877 198.461 150.615 198.451C150.376 198.438 150.126 198.426 149.864 198.416C149.625 198.403 149.375 198.392 149.113 198.382C149.06 198.342 148.987 198.246 148.894 198.093C148.798 197.918 148.7 197.731 148.601 197.532C148.524 197.33 148.45 197.139 148.377 196.96C148.301 196.758 148.256 196.61 148.242 196.518C148.232 196.448 148.478 196.342 148.978 196.199C149.502 196.053 150.143 195.902 150.902 195.746C150.68 194.523 150.492 193.461 150.339 192.559C150.206 191.631 150.151 191 150.174 190.665C150.181 190.214 150.306 189.77 150.552 189.332C150.817 188.868 151.101 188.46 151.406 188.109C151.734 187.754 152.039 187.486 152.321 187.303C152.622 187.094 152.824 187.018 152.927 187.074C153.003 187.111 153.096 187.346 153.206 187.78C153.312 188.191 153.428 188.755 153.555 189.47C153.681 190.186 153.814 191.032 153.953 192.006C154.09 192.957 154.234 193.966 154.387 195.034C155.076 194.888 155.666 194.791 156.157 194.745C156.644 194.675 156.903 194.661 156.933 194.704ZM162.119 196.945C162.182 197.054 162.258 197.422 162.348 198.048C162.458 198.648 162.564 199.391 162.667 200.276C162.79 201.134 162.9 202.065 162.996 203.07C163.09 204.051 163.165 204.987 163.221 205.879C163.298 206.744 163.346 207.495 163.366 208.131C163.383 208.744 163.365 209.114 163.312 209.24C163.15 209.594 162.867 209.848 162.462 210.001C162.055 210.13 161.755 210.185 161.562 210.165C161.47 210.178 161.327 209.927 161.135 209.41C160.965 208.889 160.776 208.23 160.567 207.431C160.358 206.632 160.15 205.762 159.944 204.821C159.739 203.88 159.551 202.983 159.382 202.131C159.209 201.256 159.076 200.494 158.983 199.845C158.89 199.195 158.853 198.774 158.873 198.582C158.899 198.27 159.058 197.975 159.35 197.697C159.665 197.415 159.999 197.189 160.354 197.02C160.732 196.848 161.085 196.75 161.413 196.726C161.761 196.676 161.996 196.749 162.119 196.945ZM161.485 191.282C161.605 191.454 161.676 191.705 161.699 192.033C161.746 192.358 161.759 192.699 161.74 193.057C161.72 193.415 161.675 193.765 161.606 194.106C161.536 194.447 161.457 194.719 161.367 194.922C161.182 195.28 160.864 195.538 160.413 195.698C159.982 195.83 159.659 195.888 159.444 195.872C159.278 195.872 159.101 195.791 158.912 195.628C158.719 195.443 158.545 195.219 158.389 194.957C158.23 194.672 158.102 194.359 158.006 194.018C157.91 193.677 157.875 193.35 157.901 193.039C157.928 192.727 158.11 192.429 158.448 192.143C158.783 191.835 159.15 191.593 159.551 191.417C159.949 191.218 160.335 191.104 160.71 191.074C161.081 191.02 161.339 191.09 161.485 191.282ZM171.732 191.412C171.915 191.528 172.104 191.773 172.299 192.148C172.518 192.519 172.726 192.975 172.922 193.515C173.117 194.055 173.308 194.643 173.494 195.28C173.68 195.916 173.852 196.542 174.012 197.159C174.171 197.775 174.302 198.36 174.405 198.914C174.528 199.441 174.626 199.877 174.699 200.221C174.782 200.636 174.857 201.075 174.923 201.539C175.01 201.976 175.071 202.405 175.108 202.826C175.164 203.221 175.193 203.584 175.193 203.915C175.216 204.243 175.205 204.494 175.158 204.666C175.069 205.034 174.86 205.312 174.532 205.501C174.224 205.664 173.864 205.798 173.453 205.905C173.248 205.958 172.89 206.021 172.38 206.094C171.889 206.141 171.352 206.194 170.769 206.254C170.205 206.287 169.665 206.317 169.148 206.344C168.631 206.37 168.241 206.379 167.98 206.369C167.453 206.326 167.06 206.229 166.801 206.076C166.566 205.921 166.319 205.684 166.06 205.366C165.97 205.236 165.863 204.897 165.736 204.346C165.607 203.773 165.474 203.094 165.338 202.308C165.222 201.496 165.109 200.624 164.999 199.693C164.889 198.762 164.798 197.875 164.724 197.033C164.674 196.188 164.639 195.447 164.619 194.811C164.622 194.171 164.678 193.737 164.788 193.508C164.973 193.15 165.324 192.792 165.841 192.434C166.381 192.072 166.872 191.777 167.312 191.548C167.535 191.445 167.829 191.356 168.197 191.279C168.585 191.177 168.991 191.118 169.415 191.105C169.86 191.065 170.287 191.075 170.698 191.134C171.106 191.171 171.451 191.263 171.732 191.412ZM171.329 202.48C171.362 202.38 171.369 202.095 171.349 201.625C171.348 201.127 171.312 200.541 171.239 199.865C171.189 199.185 171.109 198.463 170.999 197.697C170.913 196.928 170.823 196.219 170.73 195.569C170.637 194.92 170.535 194.378 170.426 193.943C170.313 193.486 170.217 193.228 170.137 193.168C170.008 193.092 169.829 193.082 169.6 193.138C169.391 193.168 169.176 193.235 168.954 193.338C168.729 193.417 168.53 193.517 168.357 193.636C168.182 193.732 168.064 193.82 168.005 193.9C167.739 194.198 167.637 194.639 167.697 195.222C167.72 195.385 167.763 195.852 167.827 196.624C167.91 197.37 168.014 198.184 168.141 199.065C168.264 199.924 168.39 200.723 168.52 201.462C168.672 202.197 168.818 202.638 168.958 202.784C169.097 202.93 169.278 203.034 169.5 203.097C169.742 203.133 169.979 203.135 170.211 203.102C170.466 203.065 170.693 202.997 170.892 202.898C171.11 202.772 171.256 202.632 171.329 202.48ZM185.839 193.937C185.892 194.309 185.922 194.849 185.929 195.558C185.959 196.264 185.964 197.045 185.944 197.9C185.922 198.732 185.892 199.6 185.856 200.505C185.84 201.384 185.802 202.194 185.743 202.937C185.706 203.676 185.665 204.297 185.619 204.801C185.596 205.302 185.576 205.577 185.56 205.626C185.523 205.703 185.402 205.767 185.197 205.82C185.011 205.847 184.787 205.855 184.526 205.846C184.287 205.832 184.057 205.794 183.835 205.731C183.636 205.665 183.503 205.566 183.437 205.433C183.4 205.344 183.342 205.021 183.262 204.464C183.206 203.904 183.134 203.239 183.048 202.47C182.981 201.675 182.908 200.833 182.828 199.945C182.745 199.033 182.671 198.191 182.608 197.419C182.565 196.62 182.515 195.941 182.458 195.381C182.425 194.817 182.4 194.477 182.383 194.361C182.323 193.944 182.221 193.556 182.075 193.198C181.948 192.814 181.807 192.491 181.652 192.229C181.496 191.967 181.327 191.778 181.144 191.662C180.982 191.52 180.846 191.48 180.736 191.543C180.442 191.633 180.198 191.75 180.006 191.896C179.81 192.019 179.651 192.148 179.529 192.284C179.386 192.447 179.282 192.627 179.216 192.826C179.199 192.876 179.173 193.022 179.136 193.264C179.123 193.503 179.138 193.773 179.181 194.074C179.195 194.167 179.243 194.504 179.326 195.084C179.406 195.64 179.49 196.315 179.58 197.107C179.693 197.896 179.805 198.756 179.914 199.687C180.044 200.592 180.154 201.441 180.243 202.233C180.353 202.998 180.436 203.661 180.493 204.221C180.549 204.781 180.571 205.098 180.558 205.171C180.531 205.317 180.444 205.531 180.295 205.812C180.142 206.071 179.965 206.321 179.763 206.563C179.561 206.805 179.364 206.999 179.171 207.145C178.976 207.268 178.833 207.265 178.744 207.136C178.664 207.076 178.547 206.749 178.391 206.156C178.231 205.54 178.042 204.797 177.823 203.929C177.624 203.034 177.403 202.071 177.16 201.041C176.915 199.987 176.687 198.978 176.478 198.013C176.269 197.049 176.085 196.175 175.925 195.393C175.766 194.611 175.65 194.048 175.577 193.703C175.484 193.219 175.382 192.677 175.273 192.077C175.16 191.454 175.053 190.877 174.954 190.347C174.874 189.79 174.806 189.315 174.749 188.92C174.713 188.499 174.723 188.237 174.779 188.135C174.812 188.035 174.959 187.99 175.221 188C175.506 188.007 175.81 188.058 176.131 188.154C176.473 188.224 176.796 188.331 177.101 188.477C177.403 188.599 177.611 188.735 177.727 188.884C177.794 189.017 177.875 189.171 177.971 189.347C178.064 189.499 178.162 189.769 178.265 190.157C178.626 189.868 179.025 189.598 179.463 189.346C179.897 189.071 180.328 188.855 180.755 188.699C181.203 188.517 181.638 188.419 182.063 188.405C182.484 188.369 182.871 188.431 183.226 188.594C183.458 188.726 183.707 188.975 183.972 189.339C184.261 189.7 184.524 190.136 184.763 190.647C185.025 191.154 185.246 191.702 185.425 192.292C185.624 192.855 185.762 193.404 185.839 193.937ZM189.419 183.232C189.426 183.775 189.401 184.43 189.345 185.196C189.286 185.938 189.213 186.671 189.127 187.393C189.065 188.113 188.98 188.764 188.875 189.347C188.789 189.904 188.699 190.272 188.606 190.451C188.53 190.58 188.404 190.693 188.229 190.789C188.053 190.886 187.861 190.949 187.652 190.979C187.466 191.005 187.264 190.999 187.046 190.959C186.847 190.893 186.689 190.785 186.573 190.636C186.49 190.553 186.409 190.233 186.329 189.676C186.246 189.096 186.168 188.468 186.095 187.792C186.018 187.093 185.947 186.428 185.88 185.799C185.837 185.165 185.82 184.718 185.83 184.456C185.836 184.171 185.843 183.969 185.849 183.85C185.856 183.73 185.874 183.609 185.904 183.487C185.98 183.192 186.177 182.915 186.495 182.656C186.837 182.394 187.196 182.177 187.574 182.004C187.975 181.829 188.34 181.729 188.668 181.706C188.993 181.659 189.205 181.735 189.304 181.934C189.367 182.043 189.407 182.239 189.424 182.521C189.437 182.779 189.436 183.016 189.419 183.232ZM193.908 182.589C193.892 183.135 193.856 183.792 193.8 184.557C193.764 185.297 193.703 186.028 193.617 186.75C193.554 187.469 193.47 188.121 193.364 188.704C193.278 189.261 193.177 189.631 193.061 189.813C192.985 189.942 192.859 190.055 192.683 190.151C192.508 190.247 192.315 190.31 192.107 190.34C191.921 190.367 191.73 190.359 191.535 190.316C191.336 190.25 191.178 190.142 191.062 189.993C190.979 189.91 190.887 189.592 190.784 189.038C190.701 188.458 190.622 187.83 190.549 187.154C190.473 186.455 190.413 185.788 190.369 185.155C190.326 184.522 190.309 184.075 190.319 183.813C190.326 183.528 190.332 183.326 190.339 183.206C190.345 183.087 190.364 182.966 190.393 182.843C190.469 182.548 190.667 182.272 190.985 182.013C191.326 181.751 191.686 181.534 192.063 181.361C192.464 181.185 192.829 181.086 193.157 181.062C193.482 181.016 193.694 181.092 193.794 181.291C193.833 181.404 193.862 181.601 193.878 181.883C193.915 182.138 193.925 182.373 193.908 182.589Z" fill="#464343"/>
<path d="M232.59 41.5933H232.453C228.022 41.5933 224.418 37.2453 224.418 31.9126V12.258H226.691V31.9126C226.691 35.9986 229.279 39.3198 232.453 39.3198H232.59C235.764 39.3198 238.352 35.9986 238.352 31.9126V8.01482C238.352 4.8508 236.372 2.27349 233.941 2.27349H224.313C221.914 2.27349 219.913 4.87175 219.913 7.99387L217.681 8.01482C217.681 3.56214 220.656 0 224.313 0H233.941C237.629 0 240.625 3.59357 240.625 8.01482V31.9126C240.625 37.2558 237.021 41.5933 232.59 41.5933Z" fill="#231F20"/>
</g>
<defs>
<filter id="filter0_d_570_3262" x="0.412522" y="0" width="284.665" height="298.715" filterUnits="userSpaceOnUse" color-interpolation-filters="sRGB">
<feFlood flood-opacity="0" result="BackgroundImageFix"/>
<feColorMatrix in="SourceAlpha" type="matrix" values="0 0 0 0 0 0 0 0 0 0 0 0 0 0 0 0 0 0 127 0" result="hardAlpha"/>
<feOffset dy="4.58748"/>
<feGaussianBlur stdDeviation="2.29374"/>
<feComposite in2="hardAlpha" operator="out"/>
<feColorMatrix type="matrix" values="0 0 0 0 0 0 0 0 0 0 0 0 0 0 0 0 0 0 0.25 0"/>
<feBlend mode="normal" in2="BackgroundImageFix" result="effect1_dropShadow_570_3262"/>
<feBlend mode="normal" in="SourceGraphic" in2="effect1_dropShadow_570_3262" result="shape"/>
</filter>
<linearGradient id="paint0_linear_570_3262" x1="198.141" y1="312.17" x2="65.4098" y2="-16.3648" gradientUnits="userSpaceOnUse">
<stop offset="0.07" stop-color="#FBFBFB"/>
<stop offset="0.2" stop-color="#FDFDFD"/>
<stop offset="0.22" stop-color="#EDEDED"/>
<stop offset="0.41" stop-color="white"/>
<stop offset="0.95" stop-color="white"/>
</linearGradient>
</defs>
</svg>
