<svg width="176" height="55" viewBox="0 0 176 55" fill="none" xmlns="http://www.w3.org/2000/svg">
<path d="M75.1993 6.85794C75.8224 5.67559 76.6674 4.77937 77.6665 4.02087C79.6612 2.50814 81.9375 1.64046 84.3925 1.21804C87.905 0.613665 91.3483 0.864121 94.6785 2.17848C96.6674 2.96338 98.4438 4.06225 99.7671 5.77834C100.006 6.08802 100.235 6.40698 100.42 6.8294C99.8529 6.7138 99.3328 6.6082 98.8127 6.50188C95.7058 5.86896 92.5729 5.45367 89.399 5.36305C88.7737 5.34521 88.4258 5.68701 88.4265 6.31564C88.4287 10.2972 88.4265 14.2796 88.433 18.2612C88.433 18.5002 88.3804 18.588 88.1189 18.5873C87.2386 18.5851 87.2394 18.5965 87.2408 17.7217C87.2473 13.8707 87.2538 10.0197 87.2603 6.16794C87.261 5.68201 86.9001 5.35092 86.3684 5.36305C84.507 5.40587 82.6586 5.58925 80.8166 5.84827C79.0121 6.10229 77.2156 6.39199 75.442 6.8137C75.3858 6.82726 75.3282 6.83439 75.2 6.85794H75.1993Z" fill="#4E83C3"/>
<path d="M83.8854 7.0927C84.0287 7.08057 84.1721 7.05987 84.3154 7.05773C84.9911 7.04703 85.4104 7.44091 85.4637 8.11521C85.54 9.09278 85.2591 10.0225 85.0682 10.9616C84.6065 13.2285 84.1202 15.4912 83.6584 17.7588C83.5972 18.0585 83.5021 18.1327 83.1924 18.0514C80.929 17.4549 78.827 16.5415 77.0621 14.9796C75.661 13.7401 74.6842 12.2552 74.4674 10.3586C74.3968 9.73925 74.4364 9.1256 74.5733 8.51766C74.6064 8.37138 74.6424 8.26292 74.8304 8.23152C77.8343 7.73632 80.8426 7.27679 83.8861 7.0927H83.8854Z" fill="#4E83C3"/>
<path d="M101.197 9.43029C101.238 11.2705 100.619 12.7547 99.5057 14.0462C97.9129 15.8929 95.8556 17.0132 93.5447 17.7225C93.1564 17.8416 92.7595 17.9351 92.369 18.05C92.1911 18.1028 92.114 18.065 92.0751 17.8723C91.488 14.976 90.8887 12.0818 90.3052 9.18411C90.2332 8.82591 90.2 8.45486 90.2361 8.08453C90.2995 7.43449 90.7619 7.02491 91.4225 7.0613C94.2514 7.21614 97.0572 7.56007 99.8442 8.0567C100.151 8.11165 100.456 8.18372 100.765 8.2144C100.995 8.23723 101.068 8.35069 101.088 8.55547C101.121 8.88585 101.17 9.21479 101.196 9.42886L101.197 9.43029Z" fill="#4E83C3"/>
<path d="M30.8712 48.8768C30.7523 49.2107 30.6558 49.4747 30.5643 49.7394C30.104 51.0759 29.6387 52.4102 29.1927 53.7503C29.1063 54.0093 28.9824 54.0949 28.7079 54.0899C27.7844 54.0721 26.8595 54.0778 25.9353 54.0864C25.686 54.0885 25.6205 54.0364 25.7192 53.7824C26.7831 51.0481 27.8392 48.3109 28.8888 45.5716C28.963 45.3768 29.0667 45.3318 29.2597 45.3333C30.328 45.3418 31.3963 45.3418 32.4646 45.3333C32.6656 45.3318 32.7556 45.3968 32.8277 45.5837C33.8751 48.3116 34.9275 51.0374 35.9886 53.7596C36.083 54.0022 36.0787 54.0921 35.7804 54.0878C34.8447 54.0742 33.9082 54.0757 32.9718 54.0878C32.7355 54.0914 32.6447 54.0043 32.572 53.7903C32.0583 52.2718 31.5296 50.7584 31.0052 49.2435C30.9713 49.1465 30.9346 49.0501 30.8705 48.876L30.8712 48.8768Z" fill="#4E83C3"/>
<path d="M82.9633 26.7753C82.6139 27.7849 82.2703 28.7782 81.9274 29.7715C81.7106 30.4001 81.4894 31.0273 81.2827 31.6588C81.2222 31.8436 81.1336 31.9157 80.9268 31.9128C79.9551 31.9007 78.9833 31.9028 78.0116 31.9114C77.7976 31.9135 77.7378 31.8736 77.8221 31.6581C78.9012 28.9052 79.9767 26.1509 81.045 23.3945C81.1192 23.2039 81.2208 23.1533 81.4153 23.1547C82.4828 23.1633 83.5511 23.164 84.6187 23.1547C84.8197 23.1533 84.9112 23.2211 84.9818 23.4066C86.0191 26.1245 87.0614 28.8403 88.1117 31.5532C88.2183 31.8279 88.1974 31.9207 87.869 31.9142C86.9577 31.8957 86.045 31.8964 85.1338 31.915C84.8651 31.9207 84.7621 31.8222 84.6821 31.5846C84.1822 30.0997 83.6678 28.6198 83.1549 27.1392C83.1139 27.0214 83.1103 26.8823 82.9626 26.776L82.9633 26.7753Z" fill="#4E83C3"/>
<path d="M13.4903 48.8782C12.9652 50.3959 12.4761 51.8073 11.9891 53.2187C11.7903 53.7952 11.3886 54.0838 10.7839 54.0842C10.0283 54.0842 9.27263 54.0785 8.51697 54.0878C8.3023 54.0907 8.23963 54.0414 8.32319 53.8281C9.40589 51.0645 10.485 48.2995 11.5598 45.5331C11.6239 45.3675 11.7226 45.3354 11.8847 45.3361C12.9645 45.3418 14.0443 45.3425 15.1234 45.3354C15.2934 45.334 15.3777 45.3896 15.4389 45.5459C16.5151 48.3123 17.5949 51.0766 18.6776 53.8402C18.7511 54.0279 18.7137 54.0892 18.5048 54.0878C17.5092 54.0807 16.5137 54.0778 15.5181 54.0899C15.2797 54.0928 15.2545 53.9415 15.2005 53.7845C14.6861 52.2925 14.1696 50.8005 13.6539 49.3092C13.6164 49.2007 13.5725 49.0937 13.4918 48.8803L13.4903 48.8782Z" fill="#4E83C3"/>
<path d="M95.1093 31.9078C95.378 31.2242 95.6301 30.5878 95.8786 29.9484C96.7171 27.7899 97.5571 25.6329 98.3855 23.4708C98.4748 23.2375 98.585 23.1476 98.8458 23.1518C99.8774 23.1683 100.909 23.1611 101.941 23.1561C102.124 23.1554 102.243 23.179 102.322 23.3809C103.396 26.1602 104.481 28.9359 105.562 31.713C105.583 31.7651 105.589 31.8229 105.609 31.9064C104.506 31.9064 103.428 31.9028 102.351 31.9092C102.145 31.9107 102.132 31.7673 102.087 31.6367C101.567 30.1332 101.047 28.6305 100.527 27.127C100.489 27.0171 100.448 26.908 100.405 26.7895C100.253 26.868 100.258 27.0136 100.219 27.1285C99.7002 28.6198 99.1808 30.1104 98.6765 31.606C98.5987 31.8365 98.4972 31.9178 98.2472 31.9135C97.2192 31.8978 96.1906 31.9071 95.1115 31.9071L95.1093 31.9078Z" fill="#4E83C3"/>
<path d="M74.288 23.159C75.607 23.159 76.9267 23.1675 78.2457 23.1519C78.5389 23.1483 78.6102 23.2418 78.6022 23.5158C78.5835 24.133 78.585 24.7509 78.6022 25.3681C78.6095 25.6243 78.5165 25.6928 78.2716 25.6871C77.6845 25.6728 77.0952 25.7014 76.5089 25.675C76.1725 25.66 76.0608 25.7413 76.0644 26.0988C76.0846 27.9041 76.0659 29.7094 76.081 31.5154C76.0839 31.8243 76.0104 31.9235 75.6855 31.9157C74.775 31.8928 73.8623 31.8893 72.9517 31.9171C72.6002 31.9278 72.5447 31.8022 72.5469 31.4947C72.5599 29.6894 72.5455 27.8834 72.5606 26.0781C72.5627 25.772 72.4936 25.6614 72.1665 25.6757C71.5557 25.7021 70.9434 25.6778 70.3318 25.6857C70.133 25.6885 70.0242 25.6571 70.03 25.4181C70.0451 24.7531 70.0444 24.0873 70.03 23.423C70.0249 23.1854 70.1301 23.1547 70.3311 23.1554C71.65 23.1618 72.9697 23.159 74.2887 23.1583L74.288 23.159Z" fill="#4E83C3"/>
<path d="M91.6912 23.159C93.0116 23.159 94.3313 23.1654 95.651 23.1533C95.9053 23.1511 95.9781 23.2282 95.9716 23.4751C95.9557 24.1166 95.9572 24.7588 95.9716 25.4002C95.9759 25.6193 95.9075 25.6899 95.6878 25.6864C95.0517 25.675 94.4156 25.6957 93.7802 25.6771C93.5072 25.6685 93.4395 25.7542 93.4409 26.0182C93.4525 27.8606 93.4395 29.7029 93.4539 31.5446C93.4561 31.8493 93.3624 31.9199 93.07 31.9142C92.1465 31.8964 91.2215 31.8893 90.298 31.9171C89.9436 31.9278 89.8903 31.7965 89.8925 31.4904C89.9047 29.6837 89.8903 27.877 89.9062 26.071C89.909 25.7499 89.8118 25.665 89.4999 25.6764C88.9005 25.6992 88.2997 25.6771 87.7004 25.6864C87.5001 25.6892 87.4245 25.6236 87.4267 25.4209C87.4353 24.7673 87.4411 24.113 87.4245 23.4601C87.4173 23.1904 87.5369 23.154 87.7681 23.1554C89.0763 23.164 90.3845 23.1597 91.6919 23.1597L91.6912 23.159Z" fill="#4E83C3"/>
<path d="M4.82512 45.3375C6.12105 45.3375 7.4177 45.3504 8.71363 45.329C9.04643 45.3233 9.11343 45.4303 9.10118 45.7314C9.07741 46.313 9.07309 46.8974 9.10262 47.4782C9.11991 47.8093 8.99601 47.8771 8.69418 47.8664C8.10708 47.8457 7.51783 47.8735 6.93002 47.8549C6.65124 47.8457 6.56479 47.9249 6.56695 48.2103C6.57992 50.0405 6.56479 51.8715 6.58208 53.7018C6.58496 54.0286 6.48339 54.0971 6.17652 54.0907C5.24077 54.0721 4.3043 54.0757 3.36856 54.0892C3.11715 54.0928 3.04511 54.0193 3.04583 53.7696C3.05592 51.915 3.04439 50.0612 3.05808 48.2067C3.06024 47.9163 2.96731 47.8471 2.69358 47.8549C2.08199 47.8728 1.46969 47.8514 0.85738 47.8649C0.621102 47.8699 0.515929 47.8221 0.523853 47.5567C0.543303 46.9152 0.540421 46.273 0.524573 45.6315C0.518811 45.3953 0.594448 45.3318 0.827845 45.3333C2.15979 45.3432 3.49246 45.3383 4.8244 45.3383L4.82512 45.3375Z" fill="#4E83C3"/>
<path d="M22.1988 45.3383C23.5185 45.3383 24.8389 45.3425 26.1586 45.334C26.3848 45.3325 26.4734 45.3832 26.4676 45.6265C26.4511 46.2794 26.4525 46.9338 26.4676 47.5874C26.4727 47.815 26.3884 47.8685 26.1766 47.8649C25.565 47.8542 24.952 47.8828 24.3411 47.8535C23.9961 47.8371 23.932 47.9598 23.9348 48.2731C23.9492 50.0912 23.9363 51.9093 23.9478 53.7275C23.9492 53.9972 23.8902 54.0971 23.5955 54.0914C22.6598 54.0728 21.7233 54.0721 20.7883 54.0914C20.4785 54.0978 20.4137 53.9922 20.4152 53.7061C20.4274 51.8758 20.4152 50.0455 20.4274 48.216C20.4296 47.9384 20.3561 47.8457 20.0694 47.8549C19.4578 47.8749 18.8455 47.8478 18.2339 47.8671C17.958 47.8756 17.8867 47.7814 17.8946 47.5196C17.9126 46.8902 17.9105 46.2602 17.8946 45.6301C17.8889 45.3896 17.9739 45.3318 18.2037 45.334C19.5356 45.3433 20.8675 45.3383 22.1995 45.3383H22.1988Z" fill="#4E83C3"/>
<path d="M61.7293 51.5868C61.6169 49.8036 61.637 48.0219 61.6421 46.2409C61.6428 45.9241 61.5009 45.5159 61.7105 45.3147C61.9007 45.1327 62.3055 45.2626 62.6153 45.2633C63.1736 45.2633 63.1051 45.1834 63.1059 45.7585C63.1087 48.2895 63.1023 50.8205 63.1131 53.3514C63.1145 53.6504 63.0598 53.7874 62.7241 53.7517C62.3099 53.7075 61.8186 53.893 61.4944 53.6811C61.1868 53.4799 61.0399 53.0303 60.836 52.6814C59.7692 50.8554 58.5914 49.0922 57.6599 47.1614C57.6599 47.3162 57.652 47.4718 57.6614 47.6259C57.7745 49.5732 57.6974 51.5226 57.7262 53.4706C57.7298 53.6925 57.6614 53.7631 57.4409 53.7496C57.1658 53.7325 56.8877 53.726 56.614 53.751C56.3338 53.7767 56.2776 53.6682 56.279 53.4099C56.2905 51.7466 56.2848 50.0826 56.2848 48.4194C56.2848 47.4689 56.2941 46.5178 56.279 45.5673C56.2747 45.3104 56.3575 45.2441 56.6039 45.2555C57.0829 45.2769 57.6491 45.1142 58.018 45.3168C58.3846 45.5181 58.5575 46.0711 58.8068 46.4749C59.3254 47.3155 59.8398 48.1589 60.3519 49.003C60.8576 49.8358 61.3021 50.6999 61.7293 51.5875V51.5868Z" fill="#4E83C3"/>
<path d="M100.297 47.1721C100.297 47.8492 100.295 48.5235 100.297 49.1978C100.3 50.6007 100.299 52.0035 100.314 53.4057C100.317 53.6597 100.266 53.7817 99.9804 53.7496C99.6152 53.7082 99.1246 53.903 98.915 53.6675C98.7334 53.4634 98.853 52.9897 98.853 52.635C98.8509 50.2931 98.8566 47.9513 98.8458 45.6094C98.8444 45.3354 98.9078 45.2355 99.1988 45.2541C99.6764 45.2833 100.227 45.1306 100.616 45.319C101.007 45.5088 101.152 46.0761 101.4 46.4806C102.425 48.1518 103.498 49.7965 104.349 51.5882C104.341 51.4441 104.338 51.2993 104.328 51.1551C104.189 49.2913 104.261 47.424 104.236 45.5587C104.233 45.3311 104.292 45.2341 104.535 45.2576C104.912 45.2954 105.407 45.0999 105.636 45.3404C105.818 45.5323 105.694 46.0168 105.694 46.3715C105.696 48.7133 105.691 51.0552 105.701 53.3971C105.703 53.6754 105.633 53.771 105.345 53.7517C104.927 53.7239 104.43 53.8709 104.108 53.6932C103.787 53.517 103.633 53.0353 103.42 52.6793C102.345 50.8818 101.185 49.1322 100.341 47.2078C100.333 47.1899 100.307 47.1799 100.297 47.1728V47.1721Z" fill="#4E83C3"/>
<path d="M54.8376 48.3337C54.4767 46.7268 53.5777 45.5837 51.9043 45.2277C50.2618 44.8773 48.8168 45.2833 47.7766 46.6555C46.8545 47.8721 46.6968 49.2778 47.0022 50.727C47.3062 52.1719 48.1072 53.2651 49.589 53.6932C51.1212 54.1356 52.5475 53.8823 53.721 52.7542C54.6481 51.8637 54.9183 50.7042 54.9384 49.5261C54.9327 49.0872 54.9211 48.7076 54.8376 48.3337ZM52.8184 51.4206C52.4229 52.1534 51.8308 52.6008 50.962 52.6286C50.081 52.6571 49.4154 52.2697 49.0135 51.5205C48.2845 50.164 48.2808 48.7647 49.048 47.4339C49.8945 45.9669 51.8589 45.9947 52.7399 47.4447C53.1217 48.0733 53.2477 48.7697 53.26 49.4804C53.2456 50.1661 53.1426 50.8205 52.8184 51.4206Z" fill="#4E83C3"/>
<path d="M144.108 53.5255C143.88 52.8505 143.737 52.1512 143.558 51.4619C143.373 50.7484 143.095 50.0834 142.361 49.7237C142.407 49.6902 142.433 49.6659 142.464 49.6495C143.53 49.0915 144.011 48.246 143.856 47.1978C143.708 46.1931 143.049 45.5587 141.875 45.3197C140.767 45.0942 139.657 45.1806 138.543 45.299C138.175 45.3383 138.107 45.4803 138.112 45.8128C138.131 47.0964 138.12 48.3808 138.12 49.6645C138.12 50.9482 138.125 52.1848 138.116 53.4449C138.113 53.6732 138.174 53.766 138.417 53.7496C138.703 53.7303 138.994 53.7253 139.28 53.7503C139.586 53.7774 139.698 53.6946 139.687 53.3657C139.661 52.5822 139.679 51.7973 139.679 51.0124C139.679 50.2275 139.679 50.2068 140.507 50.2453C141.243 50.2803 141.617 50.5543 141.869 51.25C141.926 51.4056 141.968 51.5668 142.01 51.7274C142.157 52.2782 142.304 52.8284 142.442 53.3814C142.508 53.6447 142.628 53.7838 142.938 53.7524C143.27 53.7189 143.609 53.7396 143.945 53.7474C144.123 53.7517 144.172 53.7153 144.108 53.5255ZM141.729 48.8182C141.133 49.1864 140.462 49.1129 139.805 49.1058C139.638 49.1044 139.682 48.9581 139.681 48.8618C139.676 48.5057 139.679 48.1496 139.679 47.7936C139.679 47.414 139.678 47.0336 139.68 46.654C139.681 46.5384 139.658 46.4121 139.844 46.4007C140.393 46.3672 140.944 46.2837 141.48 46.4814C141.992 46.669 142.281 47.0322 142.326 47.5702C142.371 48.0961 142.191 48.5321 141.729 48.8182Z" fill="#4E83C3"/>
<path d="M78.2169 48.348C78.1844 49.1686 78.2846 50.1569 78.1246 51.1373C77.7767 53.2708 76.1919 54.0457 74.3356 53.8559C72.6643 53.6846 71.725 52.6942 71.5514 51.0188C71.4102 49.6559 71.5125 48.2888 71.4858 46.9238C71.4772 46.4607 71.4966 45.9969 71.4793 45.5338C71.4707 45.3083 71.5499 45.2462 71.766 45.2569C72.101 45.2726 72.4381 45.2755 72.7731 45.2562C73.0151 45.2419 73.0706 45.3304 73.0699 45.558C73.0612 47.1378 73.0648 48.7183 73.0656 50.2981C73.0656 50.7776 73.1354 51.2457 73.3429 51.6838C73.6498 52.3303 74.1641 52.6479 74.8902 52.6329C75.6149 52.6179 76.1163 52.2868 76.3987 51.6261C76.6083 51.1337 76.6436 50.6128 76.645 50.0891C76.6501 48.592 76.653 47.095 76.6414 45.598C76.6393 45.3418 76.6919 45.2269 76.975 45.2569C77.3755 45.299 77.8999 45.0914 78.1499 45.339C78.384 45.5709 78.2082 46.0853 78.2154 46.4749C78.2255 47.0451 78.2183 47.6152 78.2183 48.3487L78.2169 48.348Z" fill="#4E83C3"/>
<path d="M97.5902 53.4634C96.7063 50.8062 95.8297 48.1468 94.9566 45.486C94.899 45.3104 94.8118 45.2505 94.6252 45.2555C94.1577 45.269 93.6888 45.2747 93.222 45.2541C92.9756 45.2426 92.874 45.3226 92.7984 45.558C92.2142 47.3769 91.6127 49.19 91.0177 51.0053C90.723 51.9051 90.4306 52.8056 90.1251 53.7453C90.6078 53.7453 91.0494 53.7332 91.4888 53.7503C91.6984 53.7589 91.7834 53.6811 91.8389 53.492C92.0218 52.8655 92.2336 52.2468 92.4065 51.6182C92.4706 51.387 92.5794 51.3249 92.8077 51.3292C93.5151 51.3421 94.2233 51.3421 94.9306 51.3292C95.146 51.3249 95.249 51.3913 95.311 51.5997C95.4968 52.2247 95.7094 52.8427 95.8995 53.467C95.9579 53.6597 96.0342 53.7646 96.2655 53.751C96.6365 53.7289 97.0096 53.7353 97.3806 53.7489C97.6183 53.7574 97.6666 53.6932 97.5902 53.4634ZM92.9345 50.1811C92.8445 50.1811 92.7271 50.2054 92.7789 50.0384C93.1391 48.8867 93.5476 47.7486 93.8544 46.5698C93.8667 46.6098 93.8804 46.649 93.8904 46.6897C94.1743 47.8542 94.5712 48.9859 94.9616 50.1818C94.2528 50.1818 93.5937 50.1825 92.9345 50.1811Z" fill="#4E83C3"/>
<path d="M131.547 49.4733C131.547 48.1775 131.552 46.8817 131.543 45.5866C131.542 45.3589 131.572 45.2512 131.846 45.2533C133.31 45.2669 134.774 45.2633 136.239 45.2555C136.462 45.2541 136.549 45.3019 136.552 45.5459C136.565 46.5356 136.575 46.5356 135.575 46.5356C134.867 46.5356 134.159 46.5442 133.45 46.5306C133.212 46.5263 133.108 46.5748 133.118 46.8389C133.138 47.3612 133.135 47.8849 133.118 48.4072C133.111 48.6448 133.195 48.7091 133.426 48.7062C134.29 48.6955 135.154 48.7119 136.018 48.6962C136.291 48.6912 136.362 48.7783 136.362 49.0416C136.361 49.9778 136.37 49.9778 135.439 49.9778C134.767 49.9778 134.094 49.987 133.422 49.9728C133.184 49.9678 133.113 50.0448 133.118 50.2767C133.132 50.9061 133.136 51.5369 133.117 52.1662C133.108 52.4338 133.215 52.4745 133.451 52.4716C134.435 52.4602 135.419 52.4745 136.403 52.4616C136.655 52.4581 136.785 52.4994 136.751 52.7856C136.714 53.0888 136.876 53.4849 136.686 53.6789C136.495 53.8752 136.095 53.7396 135.787 53.741C134.479 53.7482 133.171 53.7374 131.863 53.7496C131.609 53.7517 131.539 53.6789 131.542 53.4306C131.553 52.1113 131.547 50.7919 131.547 49.4726V49.4733Z" fill="#4E83C3"/>
<path d="M163.95 49.474C163.95 48.1782 163.958 46.8831 163.943 45.5873C163.94 45.3154 164.022 45.2512 164.287 45.2541C165.727 45.2669 167.167 45.2655 168.607 45.2555C168.849 45.2541 168.936 45.3076 168.936 45.5666C168.936 46.537 168.947 46.537 167.977 46.537C167.269 46.537 166.56 46.5506 165.853 46.5306C165.574 46.5227 165.506 46.6169 165.516 46.8759C165.535 47.3861 165.532 47.8985 165.517 48.4087C165.509 48.6456 165.596 48.7112 165.826 48.7083C166.69 48.6976 167.554 48.7112 168.418 48.6998C168.661 48.6962 168.75 48.7597 168.753 49.0159C168.764 49.9799 168.773 49.9799 167.789 49.9799C167.129 49.9799 166.468 49.9877 165.808 49.9756C165.59 49.972 165.514 50.0413 165.517 50.2589C165.528 50.9004 165.532 51.5426 165.515 52.184C165.509 52.4338 165.614 52.4745 165.832 52.4723C166.816 52.4638 167.8 52.4773 168.784 52.4623C169.046 52.4588 169.135 52.518 169.135 52.7934C169.134 53.746 169.144 53.746 168.192 53.746C166.884 53.746 165.576 53.7396 164.267 53.751C164.017 53.7531 163.941 53.6818 163.943 53.4328C163.955 52.1134 163.948 50.7941 163.948 49.4747L163.95 49.474Z" fill="#4E83C3"/>
<path d="M148.372 52.1391C148.892 49.9121 149.703 47.8171 150.347 45.6715C150.45 45.3297 150.607 45.2269 150.945 45.2526C151.326 45.2812 151.71 45.259 152.112 45.259C152.08 45.5566 151.957 45.8021 151.869 46.0554C151.011 48.5093 150.143 50.9603 149.293 53.4171C149.203 53.6811 149.083 53.7681 148.812 53.7496C148.454 53.726 148.091 53.7246 147.733 53.7496C147.464 53.7688 147.366 53.6604 147.287 53.4199C146.431 50.8026 145.568 48.1875 144.694 45.5759C144.596 45.2833 144.674 45.2341 144.947 45.2548C145.398 45.289 145.966 45.0799 146.271 45.3318C146.557 45.568 146.578 46.1267 146.703 46.547C147.237 48.3437 147.855 50.1169 148.284 51.9443C148.297 51.9992 148.331 52.0485 148.372 52.137V52.1391Z" fill="#4E83C3"/>
<path d="M127.974 45.1185C128.373 45.1256 128.914 45.2098 129.443 45.3853C129.706 45.4724 129.831 45.5773 129.702 45.8684C129.611 46.0732 129.557 46.2966 129.508 46.5156C129.46 46.7282 129.385 46.7768 129.169 46.6783C128.625 46.4286 128.041 46.3636 127.447 46.405C126.608 46.4635 126.112 47.0936 126.369 47.7615C126.473 48.0333 126.688 48.1996 126.928 48.3423C127.269 48.5449 127.642 48.6784 128.01 48.8225C128.368 48.9624 128.714 49.1243 129.035 49.3356C130.624 50.3838 130.5 52.6493 128.781 53.4763C127.441 54.1206 126.08 53.9765 124.742 53.4128C124.586 53.3471 124.564 53.2629 124.615 53.1074C124.718 52.792 124.7 52.361 124.91 52.1776C125.139 51.9771 125.472 52.3382 125.776 52.4067C126.33 52.5308 126.881 52.63 127.45 52.5408C128.023 52.4516 128.422 52.1263 128.517 51.6696C128.622 51.1615 128.416 50.742 127.896 50.4166C127.58 50.2189 127.232 50.0905 126.884 49.9606C126.433 49.7929 126.001 49.591 125.617 49.297C124.344 48.3187 124.412 46.5206 125.761 45.6437C126.384 45.2384 127.085 45.1106 127.975 45.1185H127.974Z" fill="#4E83C3"/>
<path d="M67.7241 45.1156C68.3306 45.1206 68.9062 45.2105 69.4652 45.4118C69.6604 45.4824 69.7663 45.5652 69.6755 45.7978C69.5639 46.0846 69.5725 46.4778 69.3737 46.6555C69.1518 46.8545 68.8406 46.5192 68.5489 46.4778C68.0353 46.4057 67.5246 46.3265 67.0174 46.4828C66.6133 46.6069 66.3215 46.8531 66.2632 47.2984C66.2077 47.7237 66.3986 48.029 66.7451 48.2595C67.0765 48.4793 67.4432 48.6234 67.812 48.7647C68.2485 48.9324 68.6757 49.1186 69.0604 49.3884C70.4975 50.3973 70.4348 52.5251 68.8983 53.3835C67.5181 54.1542 66.086 53.9929 64.6748 53.4035C64.5538 53.3528 64.5055 53.2815 64.5559 53.1552C64.5689 53.1224 64.5696 53.0853 64.5804 53.051C64.6734 52.7442 64.6777 52.3303 64.8859 52.1626C65.0905 51.9971 65.4218 52.3275 65.7128 52.3995C66.2769 52.5387 66.8388 52.63 67.4194 52.5358C68.0094 52.4395 68.3897 52.117 68.4898 51.6275C68.5871 51.1501 68.376 50.7448 67.8552 50.4202C67.539 50.2232 67.1925 50.0919 66.8438 49.9642C66.3929 49.7987 65.9592 49.5989 65.5753 49.307C64.2556 48.3052 64.355 46.4607 65.7755 45.598C66.3777 45.2327 67.0426 45.1142 67.7234 45.1149L67.7241 45.1156Z" fill="#4E83C3"/>
<path d="M173.282 45.1156C173.96 45.1206 174.546 45.2212 175.115 45.4282C175.313 45.4995 175.375 45.5901 175.292 45.7971C175.199 46.0275 175.128 46.2694 175.077 46.512C175.031 46.7311 174.956 46.7703 174.742 46.6804C174.087 46.4057 173.405 46.3058 172.704 46.4664C172.264 46.5677 171.939 46.8082 171.864 47.2841C171.79 47.7636 172.042 48.0719 172.427 48.3066C172.797 48.5321 173.203 48.6762 173.604 48.8332C173.973 48.9781 174.328 49.1472 174.655 49.3705C176.14 50.3852 176.069 52.5373 174.483 53.3985C173.122 54.137 171.715 54.0007 170.324 53.4235C170.172 53.3607 170.134 53.2658 170.178 53.1145C170.254 52.8526 170.328 52.5893 170.391 52.3239C170.437 52.1241 170.496 52.0592 170.723 52.1626C171.441 52.4902 172.196 52.6578 172.994 52.5408C173.593 52.4531 173.971 52.1412 174.08 51.6525C174.19 51.1515 173.984 50.7391 173.452 50.4102C173.135 50.2139 172.789 50.0834 172.439 49.9564C171.965 49.7837 171.511 49.5717 171.116 49.2521C169.963 48.3188 169.995 46.6333 171.187 45.7443C171.829 45.2655 172.572 45.1192 173.282 45.1156Z" fill="#4E83C3"/>
<path d="M160.492 45.1128C161.253 45.1235 161.856 45.1891 162.444 45.3832C162.626 45.4431 162.696 45.5138 162.624 45.7157C162.518 46.0168 162.536 46.4243 162.335 46.6127C162.124 46.8103 161.774 46.5135 161.476 46.4657C160.888 46.3722 160.304 46.3543 159.728 46.5056C158.485 46.8303 157.764 47.7814 157.653 49.2278C157.611 49.7787 157.674 50.3217 157.869 50.8404C158.316 52.0271 159.477 52.6842 160.908 52.5715C161.315 52.5394 161.719 52.4866 162.106 52.3503C162.283 52.2882 162.374 52.3182 162.396 52.5201C162.414 52.6842 162.467 52.8441 162.503 53.0068C162.616 53.5155 162.618 53.527 162.124 53.6561C160.988 53.9522 159.85 53.9936 158.721 53.6269C157.143 53.1152 156.308 51.99 156.049 50.4037C155.932 49.6916 155.965 48.9816 156.149 48.2831C156.592 46.6012 157.963 45.4139 159.709 45.187C160.018 45.147 160.327 45.1021 160.494 45.1121L160.492 45.1128Z" fill="#4E83C3"/>
<path d="M44.1193 53.8873C43.3068 53.8773 42.5165 53.7532 41.7926 53.3671C40.4246 52.6386 39.8418 51.4291 39.728 49.9571C39.6567 49.0401 39.7986 48.1511 40.2488 47.3362C41.0484 45.8891 42.3566 45.2541 43.9594 45.1292C44.6697 45.0735 45.3713 45.1549 46.0607 45.3418C46.3215 45.4125 46.4526 45.5174 46.3323 45.8085C46.2466 46.0154 46.1853 46.2366 46.1443 46.4571C46.1018 46.684 46.0168 46.7104 45.8014 46.6341C45.0392 46.3636 44.2533 46.3037 43.466 46.5035C42.2226 46.8189 41.4713 47.8107 41.3812 49.2185C41.3546 49.636 41.3791 50.0505 41.4792 50.4573C41.83 51.8808 42.9718 52.6693 44.5443 52.5765C44.9758 52.5508 45.4059 52.5009 45.8151 52.356C46.0139 52.2854 46.109 52.3253 46.1277 52.5373C46.1349 52.6193 46.1637 52.6992 46.181 52.7806C46.3496 53.5598 46.351 53.5641 45.5464 53.7332C45.0767 53.8316 44.5998 53.8866 44.1186 53.8873H44.1193Z" fill="#4E83C3"/>
<path d="M107.063 49.5782C107.033 47.0087 108.818 45.1884 111.416 45.1206C112.093 45.1028 112.757 45.162 113.408 45.3575C113.615 45.4196 113.744 45.4952 113.638 45.7578C113.523 46.0425 113.55 46.4428 113.355 46.6184C113.159 46.7939 112.816 46.5163 112.528 46.4707C111.356 46.2851 110.258 46.3893 109.424 47.3326C108.696 48.1553 108.597 49.1679 108.759 50.1925C109.018 51.8159 110.23 52.7014 111.924 52.5722C112.343 52.5401 112.76 52.4873 113.158 52.3439C113.339 52.279 113.425 52.326 113.449 52.5101C113.46 52.5922 113.476 52.6743 113.494 52.7556C113.666 53.5612 113.667 53.569 112.855 53.7346C111.989 53.9116 111.121 53.9465 110.248 53.761C108.386 53.3643 107.167 51.9621 107.064 50.0777C107.054 49.9121 107.062 49.7451 107.062 49.5789L107.063 49.5782Z" fill="#4E83C3"/>
<path d="M117.803 49.0423C118.042 48.5264 118.279 48.0126 118.519 47.5003C118.831 46.8331 119.151 46.1695 119.457 45.4995C119.536 45.3261 119.63 45.2476 119.834 45.2548C120.313 45.2712 120.792 45.2598 121.285 45.2598C121.31 45.4146 121.203 45.5081 121.142 45.6123C120.318 47.0308 119.491 48.4493 118.657 49.8629C118.543 50.0555 118.493 50.2453 118.494 50.4673C118.502 51.4534 118.491 52.4395 118.502 53.4249C118.505 53.6675 118.444 53.7667 118.184 53.7496C117.861 53.7289 117.536 53.7289 117.213 53.7496C116.962 53.766 116.917 53.6611 116.919 53.4406C116.928 52.4666 116.919 51.4926 116.926 50.5186C116.928 50.3088 116.879 50.1276 116.778 49.9449C115.995 48.5164 115.218 47.0857 114.439 45.6551C114.378 45.543 114.325 45.4275 114.241 45.2605C114.81 45.2605 115.331 45.2655 115.852 45.2583C116.054 45.2555 116.073 45.4167 116.129 45.5359C116.641 46.6341 117.147 47.7344 117.657 48.8332C117.69 48.9031 117.697 48.9923 117.803 49.0423Z" fill="#4E83C3"/>
<path d="M86.6825 50.1426C86.6825 49.0851 86.6652 48.0276 86.6919 46.9709C86.7013 46.6112 86.5846 46.5342 86.2481 46.5506C85.674 46.5777 85.097 46.547 84.5215 46.5634C84.2794 46.5706 84.2088 46.4871 84.2254 46.2594C84.2484 45.9419 84.1281 45.5281 84.2888 45.3304C84.4602 45.1199 84.8953 45.2648 85.2137 45.2633C86.9289 45.2562 88.6441 45.2655 90.3592 45.2548C90.6171 45.2533 90.7367 45.3033 90.705 45.5844C90.6712 45.8891 90.8282 46.2844 90.6459 46.4814C90.4435 46.6997 90.0351 46.5413 89.7167 46.5556C89.3695 46.5713 89.0194 46.582 88.6736 46.5527C88.3329 46.5242 88.2263 46.6241 88.2291 46.9773C88.2464 49.0915 88.2291 51.2065 88.2457 53.3207C88.2486 53.6604 88.1679 53.7945 87.8128 53.7503C87.4483 53.7053 86.9714 53.9001 86.7423 53.6704C86.5305 53.4577 86.6861 52.9925 86.6833 52.6386C86.6753 51.8073 86.6811 50.9753 86.6811 50.144L86.6825 50.1426Z" fill="#4E83C3"/>
<path d="M79.9868 49.4719C79.9868 48.1882 79.9925 46.9045 79.9817 45.6208C79.9796 45.3618 80.017 45.2219 80.3261 45.2555C80.7273 45.299 81.2546 45.0921 81.501 45.3375C81.7293 45.5644 81.5615 46.0825 81.5622 46.4721C81.5672 48.338 81.5737 50.204 81.5557 52.0699C81.5528 52.3974 81.6544 52.4623 81.9598 52.4559C82.8956 52.4366 83.8321 52.4559 84.7678 52.4438C85.0142 52.4402 85.115 52.5059 85.0927 52.7613C85.0718 52.9975 85.074 53.2373 85.0927 53.4734C85.11 53.7025 85.0127 53.7496 84.8017 53.7489C83.3019 53.7417 81.8014 53.7396 80.3016 53.7503C80.0466 53.7524 79.9789 53.6768 79.981 53.4292C79.9925 52.1098 79.9868 50.7905 79.9868 49.4711V49.4719Z" fill="#4E83C3"/>
<path d="M154.644 49.469C154.644 50.7755 154.638 52.0827 154.649 53.3892C154.651 53.6575 154.592 53.7788 154.294 53.751C154.009 53.7246 153.718 53.7275 153.432 53.751C153.152 53.7731 153.065 53.6861 153.067 53.3999C153.08 51.6303 153.074 49.86 153.074 48.0897C153.074 47.2463 153.081 46.4029 153.069 45.5595C153.067 45.3333 153.123 45.2384 153.367 45.2555C153.654 45.2755 153.944 45.2797 154.23 45.2555C154.548 45.2277 154.659 45.3176 154.654 45.6572C154.632 46.928 154.645 48.1989 154.645 49.4704L154.644 49.469Z" fill="#4E83C3"/>
</svg>
