<svg width="603" height="687" viewBox="0 0 603 687" fill="none" xmlns="http://www.w3.org/2000/svg">
<path d="M263.668 302.772C280.228 294.606 297.891 298.137 314.45 299.903C334.321 301.889 374.947 287.545 342.049 336.977C327.477 358.824 345.14 395.015 363.907 415.318C379.583 432.31 402.324 413.552 418.221 404.063C507.2 350.438 564.826 276.29 565.268 167.275C624.881 229.947 612.296 345.804 538.552 400.091C508.745 422.159 473.86 437.606 441.404 455.923C426.391 464.529 410.494 471.812 396.584 481.963C370.531 500.721 344.036 521.906 350.218 558.097C355.959 591.64 387.09 598.702 414.689 607.309C373.401 655.858 367.44 655.858 323.061 598.04C331.672 639.528 357.504 688.298 300.319 686.974C246.005 685.87 268.967 639.969 279.344 606.646C251.083 611.281 259.915 649.9 235.186 644.603C216.419 640.631 200.081 626.287 186.171 608.633C197.431 604.219 207.808 601.13 217.523 596.495C257.265 577.517 264.993 543.753 236.953 509.106C221.277 489.687 200.964 476.225 179.106 464.75C152.39 450.626 125.012 437.386 98.7382 422.6C-4.8123 364.562 -29.0992 269.228 36.2546 159.551C37.1378 247.602 71.3603 315.35 133.623 369.196C155.481 388.174 179.768 403.18 206.484 415.097C230.108 425.469 245.343 421.276 250.642 395.015C256.603 364.782 282.656 337.197 263.668 302.992V302.772Z" fill="#111E32" fill-opacity="0.2"/>
<path d="M412.922 0C593.308 109.236 586.463 291.738 397.909 395.457C484.679 264.594 472.315 136.6 412.922 0Z" fill="#111E32" fill-opacity="0.2"/>
<path d="M206.042 396.339C16.3835 292.4 9.98063 109.015 187.937 1.10339C132.519 135.276 115.739 263.27 206.042 396.339Z" fill="#111E32" fill-opacity="0.2"/>
<path d="M366.556 537.574C426.832 454.378 541.643 452.171 595.957 362.576C593.97 472.474 527.071 522.568 366.556 537.574Z" fill="#111E32" fill-opacity="0.2"/>
<path d="M8.21431 378.685C70.4771 448.64 173.586 459.454 242.031 540.443C130.09 522.568 26.3191 514.182 8.21431 378.685Z" fill="#111E32" fill-opacity="0.2"/>
<path d="M88.1403 527.423C138.922 538.898 183.963 549.049 232.537 560.083C183.522 606.205 147.091 597.599 88.1403 527.423Z" fill="#111E32" fill-opacity="0.2"/>
<path d="M516.694 527.864C480.926 564.055 454.431 599.585 402.766 585.682C391.506 582.593 377.375 577.958 376.713 566.483C375.83 551.477 392.61 553.904 402.766 551.697C437.43 543.974 472.536 537.133 516.694 527.864Z" fill="#111E32" fill-opacity="0.2"/>
</svg>
