<svg width="50" height="58" viewBox="0 0 50 58" fill="none" xmlns="http://www.w3.org/2000/svg">
<path fill-rule="evenodd" clip-rule="evenodd" d="M27.0135 2.02326C27.0135 0.905842 26.1121 0 25 0C23.888 0 22.9865 0.905842 22.9865 2.02326V6.06977H10.7818C9.0164 6.06977 8.13372 6.06977 7.32372 6.33468C6.96636 6.45155 6.62221 6.6058 6.29691 6.79489C5.55957 7.22348 4.96982 7.88342 3.79034 9.20328C1.50646 11.759 0.364507 13.0368 0.0895806 14.5302C-0.0298602 15.179 -0.0298602 15.8443 0.0895806 16.4931C0.364507 17.9864 1.50645 19.2643 3.79033 21.82C4.96982 23.1398 5.55957 23.7998 6.29691 24.2284C6.62221 24.4175 6.96636 24.5717 7.32372 24.6886C8.13372 24.9535 9.0164 24.9535 10.7818 24.9535H22.9865V30.3488H10.2341C6.46356 30.3488 4.57828 30.3488 3.22399 31.2581C2.6377 31.6518 2.13431 32.1576 1.74257 32.7467C0.83766 34.1075 0.83766 36.0019 0.83766 39.7907C0.83766 43.5795 0.83766 45.4739 1.74257 46.8347C2.13431 47.4238 2.6377 47.9296 3.22399 48.3233C4.57828 49.2326 6.46356 49.2326 10.2341 49.2326H22.9865V53.9535H19.6306C18.5186 53.9535 17.6171 54.8593 17.6171 55.9767C17.6171 57.0942 18.5186 58 19.6306 58H30.3694C31.4815 58 32.383 57.0942 32.383 55.9767C32.383 54.8593 31.4815 53.9535 30.3694 53.9535H27.0135V49.2326H39.2182C40.9836 49.2326 41.8663 49.2326 42.6763 48.9676C43.0336 48.8508 43.3778 48.6965 43.7031 48.5074C44.4404 48.0788 45.0302 47.4189 46.2097 46.099C48.4935 43.5433 49.6355 42.2655 49.9104 40.7721C50.0299 40.1233 50.0299 39.458 49.9104 38.8093C49.6355 37.3159 48.4935 36.0381 46.2097 33.4824C45.0302 32.1625 44.4404 31.5026 43.7031 31.074C43.3778 30.8849 43.0336 30.7306 42.6763 30.6138C41.8663 30.3488 40.9836 30.3488 39.2182 30.3488H27.0135V24.9535H39.7659C43.5364 24.9535 45.4217 24.9535 46.776 24.0442C47.3623 23.6506 47.8657 23.1448 48.2574 22.5556C49.1623 21.1948 49.1623 19.3004 49.1623 15.5116C49.1623 11.7228 49.1623 9.82845 48.2574 8.46762C47.8657 7.8785 47.3623 7.37268 46.776 6.97905C45.4217 6.06977 43.5364 6.06977 39.7659 6.06977H27.0135V2.02326ZM16.9459 13.4884C15.8339 13.4884 14.9324 14.3942 14.9324 15.5116C14.9324 16.629 15.8339 17.5349 16.9459 17.5349H33.0541C34.1662 17.5349 35.0677 16.629 35.0677 15.5116C35.0677 14.3942 34.1662 13.4884 33.0541 13.4884H16.9459ZM14.9324 39.7907C14.9324 38.6733 15.8339 37.7674 16.9459 37.7674H33.0541C34.1662 37.7674 35.0677 38.6733 35.0677 39.7907C35.0677 40.9081 34.1662 41.814 33.0541 41.814H16.9459C15.8339 41.814 14.9324 40.9081 14.9324 39.7907Z" fill="white"/>
</svg>
