<svg width="34" height="34" viewBox="0 0 34 34" fill="none" xmlns="http://www.w3.org/2000/svg">
<path d="M17.2907 0.285189C17.2909 0.285189 17.2911 0.285189 17.2914 0.285189C26.5194 0.285189 34.0003 7.76602 34.0003 16.9941C34.0003 26.2221 26.5194 33.703 17.2914 33.703C13.8687 33.703 10.6863 32.6739 8.09805 30.9465L1.6751 32.9984L3.75792 26.7897L3.79076 26.8368C1.76992 24.0751 0.576904 20.6695 0.576904 16.9852C0.576904 7.76204 8.05379 0.285156 17.277 0.285156C17.2787 0.285156 17.2804 0.285156 17.2819 0.285156L17.2907 0.285189ZM12.6171 8.77326C12.2924 7.99799 12.0472 7.9693 11.5569 7.9472C11.3699 7.93543 11.1836 7.9288 10.9981 7.92732C10.9653 7.92576 10.9269 7.92484 10.8883 7.92484C10.2743 7.92484 9.71351 8.1526 9.28577 8.52824L9.28852 8.52589C8.23441 9.50358 7.57687 10.8961 7.57687 12.4422C7.57687 12.4949 7.57762 12.5475 7.57915 12.5998L7.57899 12.5921C7.75364 14.516 8.47414 16.2441 9.58236 17.6529L9.56683 17.6324C11.6415 20.7759 14.4531 23.2767 17.7634 24.926L17.8848 24.9808C21.7258 26.5733 22.8654 26.4253 23.7379 26.2375C25.1591 25.9725 26.3354 25.0996 27.0056 23.9046L27.0179 23.8808C27.2328 23.396 27.3579 22.8304 27.3579 22.2357C27.3579 21.9976 27.3378 21.7643 27.2993 21.5372L27.3028 21.5617C27.1835 21.3563 26.861 21.237 26.3707 20.9918C25.8804 20.7467 23.4994 19.5672 23.04 19.4104C22.9236 19.3542 22.7869 19.3214 22.6426 19.3214C22.3046 19.3214 22.0086 19.5014 21.8452 19.7707L21.8428 19.7748C21.3981 20.431 20.9692 20.9946 20.5127 21.5343L20.5375 21.5042C20.3489 21.6839 20.093 21.7945 19.8113 21.7945C19.6465 21.7945 19.4906 21.7566 19.3517 21.6892L19.358 21.692C17.8436 21.1051 16.5431 20.2872 15.4306 19.2674L15.4397 19.2756C14.3944 18.3042 13.4958 17.1954 12.7673 15.9734L12.7297 15.9051C12.4447 15.4148 12.7009 15.1299 12.9262 14.8648C13.1714 14.56 13.4077 14.3436 13.6529 14.0587C13.867 13.8397 14.0477 13.5869 14.1863 13.3094L14.1941 13.2922C14.2431 13.1783 14.2716 13.0458 14.2716 12.9065C14.2716 12.7142 14.2173 12.5347 14.1231 12.3824L14.1256 12.3866C14.0086 12.1415 13.0213 9.7362 12.6237 8.77319L12.6171 8.77326Z" fill="white" stroke="white" stroke-width="0.0175781"/>
</svg>
