<svg width="12" height="11" viewBox="0 0 12 11" fill="none" xmlns="http://www.w3.org/2000/svg">
<path fill-rule="evenodd" clip-rule="evenodd" d="M0.310122 0.322182C0.723618 -0.107394 1.39403 -0.107394 1.80753 0.322182L6.04282 4.72218C6.45631 5.15176 6.45631 5.84824 6.04282 6.27782L1.80753 10.6778C1.39403 11.1074 0.723618 11.1074 0.310122 10.6778C-0.103374 10.2482 -0.103374 9.55176 0.310122 9.12218L3.79672 5.5L0.310122 1.87782C-0.103374 1.44824 -0.103374 0.751759 0.310122 0.322182ZM5.95718 0.322182C6.37068 -0.107394 7.04109 -0.107394 7.45458 0.322182L11.6899 4.72218C12.1034 5.15176 12.1034 5.84824 11.6899 6.27782L7.45458 10.6778C7.04109 11.1074 6.37068 11.1074 5.95718 10.6778C5.54368 10.2482 5.54368 9.55176 5.95718 9.12218L9.44378 5.5L5.95718 1.87782C5.54368 1.44824 5.54368 0.751759 5.95718 0.322182Z" fill="white"/>
</svg>
