<svg width="66" height="58" viewBox="0 0 66 58" fill="none" xmlns="http://www.w3.org/2000/svg">
<path d="M33.2766 4.90141C26.7463 4.90141 21.143 8.85624 18.7873 14.4885C18.2643 15.739 16.8165 16.3329 15.5537 15.815C14.2908 15.2972 13.691 13.8636 14.214 12.6131C17.309 5.21313 24.6751 0 33.2766 0C41.8782 0 49.2443 5.21313 52.3393 12.6131C52.8623 13.8636 52.2625 15.2972 50.9996 15.815C49.7367 16.3329 48.289 15.739 47.766 14.4885C45.4103 8.85624 39.807 4.90141 33.2766 4.90141Z" fill="#A69E87"/>
<path d="M33.279 13.0704C29.9053 13.0704 27.0512 15.3004 26.1501 18.3581C25.7672 19.6574 24.393 20.4033 23.0809 20.0241C21.7687 19.645 21.0154 18.2843 21.3983 16.9851C22.8989 11.8931 27.6465 8.16901 33.279 8.16901C38.9116 8.16901 43.6592 11.8931 45.1598 16.9851C45.5427 18.2843 44.7894 19.645 43.4772 20.0241C42.165 20.4033 40.7909 19.6574 40.408 18.3581C39.5069 15.3004 36.6527 13.0704 33.279 13.0704Z" fill="#A69E87"/>
<path d="M36.5772 18.7887C36.5772 20.5934 35.0997 22.0563 33.2772 22.0563C31.4546 22.0563 29.9772 20.5934 29.9772 18.7887C29.9772 16.9841 31.4546 15.5211 33.2772 15.5211C35.0997 15.5211 36.5772 16.9841 36.5772 18.7887Z" fill="#A69E87"/>
<path fill-rule="evenodd" clip-rule="evenodd" d="M5.44933 7.77044C4.77115 6.59529 3.25929 6.18701 2.07248 6.85853C0.885674 7.53004 0.473347 9.02707 1.15152 10.2022L13.6496 31.8592H13.2C6.97746 31.8592 3.86619 31.8592 1.9331 33.7733C0 35.6874 0 38.7681 0 44.9296C0 51.091 0 54.1718 1.93309 56.0859C3.86619 58 6.97746 58 13.2 58H52.8C59.0225 58 62.1338 58 64.0669 56.0859C66 54.1718 66 51.091 66 44.9296C66 38.7681 66 35.6874 64.0669 33.7733C62.1338 31.8592 59.0225 31.8592 52.8 31.8592H52.3504L64.8485 10.2022C65.5267 9.02707 65.1143 7.53004 63.9275 6.85853C62.7407 6.18701 61.2289 6.59529 60.5507 7.77044L47.3507 30.6437L46.6249 31.8592H19.4082L18.6493 30.6437L5.44933 7.77044ZM13.2 48.1972C15.0225 48.1972 16.5 46.7342 16.5 44.9296C16.5 43.1249 15.0225 41.662 13.2 41.662C11.3775 41.662 9.9 43.1249 9.9 44.9296C9.9 46.7342 11.3775 48.1972 13.2 48.1972ZM26.4 44.9296C26.4 46.7342 24.9225 48.1972 23.1 48.1972C21.2775 48.1972 19.8 46.7342 19.8 44.9296C19.8 43.1249 21.2775 41.662 23.1 41.662C24.9225 41.662 26.4 43.1249 26.4 44.9296ZM39.6 42.4789C38.2331 42.4789 37.125 43.5761 37.125 44.9296C37.125 46.2831 38.2331 47.3803 39.6 47.3803H52.8C54.1669 47.3803 55.275 46.2831 55.275 44.9296C55.275 43.5761 54.1669 42.4789 52.8 42.4789H39.6Z" fill="#A69E87"/>
</svg>
