<svg width="34" height="25" viewBox="0 0 34 25" fill="none" xmlns="http://www.w3.org/2000/svg">
<path d="M33.6077 9.13314C33.6126 9.00042 33.6154 8.8445 33.6154 8.68794C33.6154 6.56248 33.1017 4.55701 32.1915 2.78896L32.2254 2.86135C31.5729 2.08486 30.6689 1.5383 29.6402 1.34701L29.6128 1.34279C26.3925 1.03315 22.6504 0.856593 18.867 0.856593C18.1766 0.856593 17.4876 0.862465 16.8 0.874187L16.9033 0.872788C16.2989 0.861754 15.5861 0.855469 14.8718 0.855469C11.1285 0.855469 7.42552 1.02813 3.77041 1.36593L4.23931 1.33095C3.37155 1.49239 2.6158 1.89103 2.01973 2.45641L2.02168 2.45457C0.975495 3.77412 0.343317 5.46326 0.343317 7.30008C0.343317 7.4371 0.346827 7.57331 0.353777 7.70858L0.352997 7.68961C0.24773 9.16138 0.187744 10.8785 0.187744 12.6097C0.187744 14.3409 0.24773 16.0581 0.365751 17.7593L0.352974 17.5298C0.401582 18.6308 0.565046 19.6708 0.83224 20.6683L0.80914 20.5669C1.00463 21.3691 1.38005 22.0652 1.89141 22.6371L1.88735 22.6325C2.48713 23.2269 3.25979 23.6478 4.12322 23.813L4.1504 23.8174C6.67509 24.1467 9.59508 24.3346 12.5589 24.3346C13.0741 24.3346 13.588 24.3289 14.1004 24.3176L14.0241 24.319C19.3382 24.394 24.0005 24.319 29.514 23.8944C30.4272 23.7351 31.2221 23.3125 31.8391 22.7088L31.8383 22.7095C32.2519 22.2957 32.57 21.7865 32.7569 21.2177L32.7645 21.191C33.266 19.7042 33.5554 17.9919 33.5554 16.212C33.5554 16.1469 33.555 16.082 33.5543 16.0172L33.5544 16.027C33.6077 15.1759 33.6077 10.0436 33.6077 9.13319L33.6077 9.13314ZM13.4732 16.9314V7.53755L22.4623 12.2611C19.9425 13.6573 16.617 15.2371 13.4732 16.9314Z" fill="white" stroke="white" stroke-width="0.0123542"/>
</svg>
