<svg xmlns="http://www.w3.org/2000/svg" viewBox="0 0 68 68" id="party-singing"><path d="M66.434 32.414c-.303 2.291-2.069 3.874-4.183 4.221a11.645 11.645 0 0 1-5.484 2.641L47.706 53.28a5.04 5.04 0 0 1-2.642 2.072 4.23 4.23 0 0 1-3.007 1.239c-.443 0-.897-.076-1.327-.215a3.96 3.96 0 0 1-.67.139c-.24.05-.581.076-.91.076-1.428 0-2.894-.53-4.082-1.479l-1.706.063-8.909.177c-2.217.067-4.825.164-7.128.164-.631 0-1.276-.012-1.908-.025l-1.137-.05c-2.629-.101-5.346-.215-8.088-.544l-.354-.05-1.895-.607-.759-1.491-.707-1.44.493-1.39a3.954 3.954 0 0 1 1.895-2.276c-.05-.037-.088-.088-.126-.126a5.365 5.365 0 0 1-1.188-2.06 7.114 7.114 0 0 1-.303-1.415c-.237-1.887-.1-6.387.012-8.303.05-.505.14-1.466.822-2.376l1.137-1.541h.885c.48-.24.985-.468 1.529-.67-.026-.089-.026-.19-.038-.29-.05-.355-.089-.696-.101-1.024-.23-2.144-.048-7.182 1.377-9.352l.101-.14c1.68-2.293 4.782-2.521 6.736-.745.53.48.973 1.112 1.276 1.87.026.077.05.153.076.215a1.48 1.48 0 0 1 .215-.176 6.216 6.216 0 0 1 3.678-1.176c.53 0 1.061.076 1.592.203.151-.266.341-.518.556-.746a4.57 4.57 0 0 1 3.4-1.479c.669 0 1.3.14 1.882.418 1.493-.598 3.348-.414 4.79.568.391.253.733.569.998.923.29-.051.581-.064.885-.064.366 0 .745.038 1.112.102.48.075.998.265 1.516.556l.152.075.139.089a4.7 4.7 0 0 1 1.44 1.554 4.59 4.59 0 0 1 .594 2.3c0 .834-.214 1.63-.606 2.313 0 .025.012.038.025.063.278.632.417 1.365.417 2.161 0 .392-.038.784-.126 1.163h.076c1.377 0 2.666.631 3.525 1.744.076.1.14.202.203.303l.379-.733a11.2 11.2 0 0 1-.392-1.352 10.595 10.595 0 0 1-.215-1.378 10.587 10.587 0 0 1 .152-3.323c-.67-1.74-.206-3.01-.202-3.11a4.333 4.333 0 0 1-.468-.682 3.942 3.942 0 0 1 .126-3.917c2.635-4.347 7.39-6.486 12.296-5.611 2.086.43 3.413 2.275 3.21 4.297-.012.126-.038.252-.063.379.72.24 1.416.556 2.073.935a11.225 11.225 0 0 1 4.536 4.828c.426 1.208 1.46 3.037 1.138 5.939 0 .303-.013.581-.05.834 0 .025-.013.038-.013.05.113.24.19.493.265.746.177.62.227 1.264.14 1.933z" opacity=".2"></path><path fill="#fff" d="M65.48 31.545a4.797 4.797 0 0 1-2.009 3.336 5.253 5.253 0 0 1-2.173.885 11.645 11.645 0 0 1-5.485 2.64l-9.06 14.003a5.04 5.04 0 0 1-2.642 2.073 4.23 4.23 0 0 1-3.008 1.238c-.442 0-.897-.076-1.327-.215a3.96 3.96 0 0 1-.67.14c-.24.05-.58.075-.91.075-1.427 0-2.893-.53-4.081-1.478l-1.706.063-8.91.177c-2.217.067-4.825.164-7.127.164-.632 0-1.276-.013-1.908-.025l-1.137-.051c-2.629-.1-5.346-.215-8.088-.543l-.354-.05-1.896-.607-.758-1.492-.708-1.44.493-1.39a3.954 3.954 0 0 1 1.896-2.275c-.05-.038-.089-.088-.127-.127a5.365 5.365 0 0 1-1.187-2.06c-.702-2.038-.419-7.545-.291-9.717.05-.506.139-1.466.821-2.376l1.138-1.542h.884c.48-.24.986-.467 1.53-.67-.026-.088-.026-.19-.039-.29-.375-2.628-.249-8.054 1.277-10.376l.101-.139c1.68-2.294 4.782-2.522 6.736-.745.53.48.973 1.112 1.276 1.87.025.076.05.152.076.215a1.48 1.48 0 0 1 .215-.177 6.216 6.216 0 0 1 3.677-1.175c.53 0 1.062.076 1.592.202.152-.265.342-.518.556-.746a4.57 4.57 0 0 1 3.4-1.478c.67 0 1.301.139 1.883.417 1.492-.598 3.347-.414 4.79.569.391.252.732.568.998.922.29-.05.581-.063.884-.063.367 0 .746.038 1.112.101.48.076.999.265 1.517.556l.151.076.14.088a4.7 4.7 0 0 1 1.44 1.554 4.59 4.59 0 0 1 .594 2.3c0 .835-.215 1.63-.607 2.313 0 .026.013.038.026.064.278.631.417 1.364.417 2.16 0 .392-.038.784-.127 1.163h.076c1.378 0 2.667.632 3.526 1.744.076.101.14.202.202.303l.38-.733a11.2 11.2 0 0 1-.392-1.352 10.595 10.595 0 0 1-.215-1.377 10.587 10.587 0 0 1 .151-3.324c-.448-1.165-.39-2.03-.202-3.109a4.333 4.333 0 0 1-.467-.682 3.942 3.942 0 0 1 .126-3.918c2.634-4.347 7.39-6.486 12.296-5.61 2.085.429 3.412 2.274 3.21 4.296-.013.126-.038.253-.063.38.72.24 1.415.555 2.072.934 2.798 1.604 4.62 4.4 4.992 5.89.024.1.96 2.39.682 4.877 0 .304-.012.582-.05.834 0 .026-.013.038-.013.051.114.24.19.493.266.745.177.62.227 1.264.139 1.934z"></path><linearGradient id="a" x1="-766.423" x2="-768.563" y1="1015.877" y2="1013.99" gradientTransform="rotate(29.971 1437.79 2041.54)" gradientUnits="userSpaceOnUse"><stop offset="0" stop-color="#8194fc"></stop><stop offset="1" stop-color="#6329cd"></stop></linearGradient><path fill="url(#a)" d="m41.973 50.89-.46.8a.468.468 0 0 1-.638.17l-2.082-1.2a.468.468 0 0 1-.17-.638l.46-.798c.065.05.13.102.2.142l2.466 1.422c.071.041.148.072.224.103z"></path><linearGradient id="b" x1="5.638" x2="40.267" y1="50.734" y2="50.734" gradientUnits="userSpaceOnUse"><stop offset="0" stop-color="#8194fc"></stop><stop offset="1" stop-color="#6329cd"></stop></linearGradient><path fill="url(#b)" d="M40.267 50.573c-.221.745-.995 1.204-1.744 1.33-.775.145-1.598-.238-2.15-.7-.308-.208-.595-.456-.891-.583a2.091 2.091 0 0 0-.977-.176l-2.217.063-8.864.19c-2.955.068-5.91.209-8.865.126-2.955-.115-5.91-.206-8.865-.568a.064.064 0 0 1 0-.126c2.955-.363 5.91-.454 8.865-.57 2.955-.082 5.91.059 8.865.127l8.864.19 2.217.063c.394 0 .813.096 1.17.283.372.193.633.458.926.677.552.503 1.167.822 1.893.752.722-.047 1.308-.506 1.773-1.078z"></path><path fill="#6329cd" d="m41.973 50.89-.46.8a.468.468 0 0 1-.638.17l-2.082-1.2a.476.476 0 0 1-.228-.469c.039.05.084.089.134.118l2.082 1.2c.223.129.51.052.638-.17l.32-.556.01.005c.071.041.148.072.224.103z"></path><linearGradient id="c" x1="-763.631" x2="-776.395" y1="998.383" y2="1014.725" gradientTransform="rotate(29.971 1437.79 2041.54)" gradientUnits="userSpaceOnUse"><stop offset="0" stop-color="#8194fc"></stop><stop offset="1" stop-color="#6329cd"></stop></linearGradient><path fill="url(#c)" d="m53.773 34.61-.115.176-10.095 15.567c-.382.615-1.177.803-1.814.435l-2.466-1.422c-.637-.367-.872-1.15-.531-1.787l8.506-16.712.105.168a7.76 7.76 0 0 0 2.671 2.538 7.692 7.692 0 0 0 3.53 1.025l.209.012z"></path><path fill="#6329cd" d="m53.773 34.61-.115.176-10.095 15.567a1.324 1.324 0 0 1-1.44.583l8.166-12.584c.805-1.24.222-2.902-1.177-3.382a4.799 4.799 0 0 1-.813-.35 7.602 7.602 0 0 1-2.071-1.734l1.03-2.02.105.169a7.76 7.76 0 0 0 2.671 2.538 7.692 7.692 0 0 0 3.53 1.025l.209.012z"></path><linearGradient id="d" x1="-768.493" x2="-767.382" y1="999.519" y2="1002.598" gradientTransform="rotate(29.971 1437.79 2041.54)" gradientUnits="userSpaceOnUse"><stop offset="0" stop-color="#ffc0e6"></stop><stop offset="1" stop-color="#ff9dd6"></stop></linearGradient><path fill="url(#d)" d="m48.678 38.303-2.174 3.77a1.19 1.19 0 0 1-2.062-1.189l2.174-3.77a1.19 1.19 0 0 1 2.062 1.189z"></path><path fill="#ff9dd6" d="M48.8 37.44a1.13 1.13 0 0 0-.456-.492 1.195 1.195 0 0 0-1.626.436l-2.174 3.77c-.157.273-.192.59-.115.877-.194-.341-.2-.775.017-1.15l2.174-3.77a1.195 1.195 0 0 1 1.625-.436c.293.17.49.458.556.765z"></path><linearGradient id="e" x1="-768.146" x2="-766.84" y1="1000.32" y2="1000.32" gradientTransform="rotate(29.971 1437.79 2041.54)" gradientUnits="userSpaceOnUse"><stop offset="0" stop-color="#ff4553"></stop><stop offset="1" stop-color="#e5283f"></stop></linearGradient><path fill="url(#e)" d="M48.114 38.207a.662.662 0 0 1-.898.25c-.313-.181-.415-.59-.234-.903a.653.653 0 1 1 1.132.653z"></path><linearGradient id="f" x1="49.726" x2="48.912" y1="18.32" y2="15.809" gradientUnits="userSpaceOnUse"><stop offset="0" stop-color="#f9ef65"></stop><stop offset="1" stop-color="#fdd239"></stop></linearGradient><path fill="url(#f)" d="M53.558 15.336c.186.034.16.307-.029.31-1.567.035-3.079.306-4.451.964-1.387.632-2.574 1.615-3.645 2.767-.128.138-.349-.024-.251-.185.834-1.382 2.073-2.559 3.578-3.262 1.501-.702 3.211-.887 4.798-.594z"></path><linearGradient id="g" x1="50.553" x2="49.989" y1="19.527" y2="17.787" gradientUnits="userSpaceOnUse"><stop offset="0" stop-color="#f9ef65"></stop><stop offset="1" stop-color="#fdd239"></stop></linearGradient><path fill="url(#g)" d="M53.105 17.474c.174.028.169.281-.006.308-1.027.157-1.998.36-2.906.751-.918.371-1.738.917-2.525 1.59-.135.116-.327-.052-.233-.203.564-.918 1.455-1.656 2.47-2.079a5.99 5.99 0 0 1 3.2-.367z"></path><linearGradient id="h" x1="-758.05" x2="-774.81" y1="996.936" y2="980.922" gradientTransform="rotate(29.971 1437.79 2041.54)" gradientUnits="userSpaceOnUse"><stop offset="0" stop-color="#f9ef65"></stop><stop offset="1" stop-color="#fdd239"></stop></linearGradient><path fill="url(#h)" d="M60.392 30.98c-2.11 3.658-6.811 4.92-10.48 2.805s-4.931-6.817-2.821-10.476a7.683 7.683 0 0 1 10.485-2.815 7.683 7.683 0 0 1 2.816 10.485z"></path><linearGradient id="i" x1="-774.471" x2="-758.389" y1="990.913" y2="997.652" gradientTransform="rotate(29.971 1437.79 2041.54)" gradientUnits="userSpaceOnUse"><stop offset="0" stop-color="#fdd239"></stop><stop offset="1" stop-color="#efbc1d"></stop></linearGradient><path fill="url(#i)" d="M47.734 27.854c-.177.306-.578.414-.89.234s-.414-.578-.237-.884a.65.65 0 1 1 1.127.65z"></path><linearGradient id="j" x1="-774.317" x2="-758.235" y1="990.546" y2="997.284" gradientTransform="rotate(29.971 1437.79 2041.54)" gradientUnits="userSpaceOnUse"><stop offset="0" stop-color="#fdd239"></stop><stop offset="1" stop-color="#efbc1d"></stop></linearGradient><path fill="url(#j)" d="M49.338 29.303a.654.654 0 0 1-.89.233.648.648 0 0 1-.237-.883.65.65 0 1 1 1.127.65z"></path><linearGradient id="k" x1="-774.073" x2="-757.991" y1="989.962" y2="996.7" gradientTransform="rotate(29.971 1437.79 2041.54)" gradientUnits="userSpaceOnUse"><stop offset="0" stop-color="#fdd239"></stop><stop offset="1" stop-color="#efbc1d"></stop></linearGradient><path fill="url(#k)" d="M51.07 30.531a.654.654 0 0 1-.89.234.648.648 0 0 1-.238-.884.65.65 0 1 1 1.127.65z"></path><linearGradient id="l" x1="-773.757" x2="-757.675" y1="989.209" y2="995.947" gradientTransform="rotate(29.971 1437.79 2041.54)" gradientUnits="userSpaceOnUse"><stop offset="0" stop-color="#fdd239"></stop><stop offset="1" stop-color="#efbc1d"></stop></linearGradient><path fill="url(#l)" d="M52.9 31.587a.654.654 0 0 1-.89.234.648.648 0 0 1-.237-.884.65.65 0 1 1 1.127.65z"></path><linearGradient id="m" x1="-773.37" x2="-757.288" y1="988.286" y2="995.024" gradientTransform="rotate(29.971 1437.79 2041.54)" gradientUnits="userSpaceOnUse"><stop offset="0" stop-color="#fdd239"></stop><stop offset="1" stop-color="#efbc1d"></stop></linearGradient><path fill="url(#m)" d="M54.83 32.47a.654.654 0 0 1-.89.234.648.648 0 0 1-.236-.884.65.65 0 1 1 1.127.65z"></path><linearGradient id="n" x1="-772.938" x2="-756.856" y1="987.254" y2="993.992" gradientTransform="rotate(29.971 1437.79 2041.54)" gradientUnits="userSpaceOnUse"><stop offset="0" stop-color="#fdd239"></stop><stop offset="1" stop-color="#efbc1d"></stop></linearGradient><path fill="url(#n)" d="M56.825 33.242a.654.654 0 0 1-.89.234.648.648 0 0 1-.237-.884.65.65 0 1 1 1.127.65z"></path><linearGradient id="o" x1="-773.677" x2="-757.595" y1="989.018" y2="995.756" gradientTransform="rotate(29.971 1437.79 2041.54)" gradientUnits="userSpaceOnUse"><stop offset="0" stop-color="#fdd239"></stop><stop offset="1" stop-color="#efbc1d"></stop></linearGradient><path fill="url(#o)" d="M49.543 26.82a.654.654 0 0 1-.885.25.648.648 0 0 1-.253-.88.65.65 0 1 1 1.138.63z"></path><linearGradient id="p" x1="-773.508" x2="-757.427" y1="988.615" y2="995.354" gradientTransform="rotate(29.971 1437.79 2041.54)" gradientUnits="userSpaceOnUse"><stop offset="0" stop-color="#fdd239"></stop><stop offset="1" stop-color="#efbc1d"></stop></linearGradient><path fill="url(#p)" d="M51.173 28.24a.654.654 0 0 1-.885.25.648.648 0 0 1-.253-.88.65.65 0 1 1 1.138.63z"></path><linearGradient id="q" x1="-773.25" x2="-757.168" y1="987.999" y2="994.737" gradientTransform="rotate(29.971 1437.79 2041.54)" gradientUnits="userSpaceOnUse"><stop offset="0" stop-color="#fdd239"></stop><stop offset="1" stop-color="#efbc1d"></stop></linearGradient><path fill="url(#q)" d="M52.926 29.439a.654.654 0 0 1-.886.249.648.648 0 0 1-.252-.88.65.65 0 1 1 1.138.63z"></path><linearGradient id="r" x1="-772.921" x2="-756.839" y1="987.214" y2="993.952" gradientTransform="rotate(29.971 1437.79 2041.54)" gradientUnits="userSpaceOnUse"><stop offset="0" stop-color="#fdd239"></stop><stop offset="1" stop-color="#efbc1d"></stop></linearGradient><path fill="url(#r)" d="M54.775 30.462a.654.654 0 0 1-.885.25.648.648 0 0 1-.253-.88.65.65 0 1 1 1.138.63z"></path><linearGradient id="s" x1="-772.522" x2="-756.44" y1="986.261" y2="992.999" gradientTransform="rotate(29.971 1437.79 2041.54)" gradientUnits="userSpaceOnUse"><stop offset="0" stop-color="#fdd239"></stop><stop offset="1" stop-color="#efbc1d"></stop></linearGradient><path fill="url(#s)" d="M56.72 31.31a.654.654 0 0 1-.885.25.648.648 0 0 1-.252-.88.65.65 0 1 1 1.138.63z"></path><linearGradient id="t" x1="-767.841" x2="-766.657" y1="986.984" y2="989.525" gradientTransform="rotate(29.971 1437.79 2041.54)" gradientUnits="userSpaceOnUse"><stop offset="0" stop-color="#f9ef65"></stop><stop offset="1" stop-color="#fdd239"></stop></linearGradient><path fill="url(#t)" d="M60.392 30.98c-2.11 3.658-6.811 4.92-10.48 2.805a7.628 7.628 0 0 1-3.786-5.86 7.564 7.564 0 0 0 3.276 3.801c3.669 2.116 8.37.854 10.48-2.805a7.53 7.53 0 0 0 .97-4.626 7.614 7.614 0 0 1-.46 6.684z"></path><linearGradient id="u" x1="-764.438" x2="-769.82" y1="990.738" y2="985.459" gradientTransform="rotate(29.971 1437.79 2041.54)" gradientUnits="userSpaceOnUse"><stop offset="0" stop-color="#8194fc"></stop><stop offset="1" stop-color="#6329cd"></stop></linearGradient><path fill="url(#u)" d="M61.592 31.441c-.08.138-.189.259-.337.357a1.25 1.25 0 0 1-1.01.205c-2.699-.533-5.284-1.512-7.648-2.875s-4.516-3.116-6.318-5.179a1.301 1.301 0 0 1-.34-.983c.034-.308.178-.58.413-.76.508-.402 1.25-.302 1.694.203a22.759 22.759 0 0 0 12.646 7.293c.66.13 1.108.718 1.024 1.364a.909.909 0 0 1-.124.375z"></path><linearGradient id="v" x1="45.939" x2="61.729" y1="27.361" y2="27.361" gradientUnits="userSpaceOnUse"><stop offset="0" stop-color="#8194fc"></stop><stop offset="1" stop-color="#6329cd"></stop></linearGradient><path fill="url(#v)" d="M61.59 31.447a.987.987 0 0 1-.334.346c-.284.213-.65.285-1.01.211a25.013 25.013 0 0 1-7.65-2.875 24.96 24.96 0 0 1-6.319-5.18 1.308 1.308 0 0 1-.333-.986c.01-.089.026-.187.063-.274.034.222.142.432.303.62a24.96 24.96 0 0 0 6.32 5.179 25.013 25.013 0 0 0 7.648 2.875c.362.074.737.007 1.011-.212a.998.998 0 0 0 .34-.356.396.396 0 0 0 .061-.153.92.92 0 0 1 .028.42.93.93 0 0 1-.128.385z"></path><linearGradient id="w" x1="-775.924" x2="-764.978" y1="982.35" y2="994.603" gradientTransform="rotate(29.971 1437.79 2041.54)" gradientUnits="userSpaceOnUse"><stop offset="0" stop-color="#fdd239"></stop><stop offset="1" stop-color="#efbc1d"></stop></linearGradient><path fill="url(#w)" d="M50.684 22.75a.654.654 0 0 1-.89.234.648.648 0 0 1-.237-.884.65.65 0 1 1 1.127.65z"></path><linearGradient id="x" x1="-774.974" x2="-764.028" y1="981.501" y2="993.754" gradientTransform="rotate(29.971 1437.79 2041.54)" gradientUnits="userSpaceOnUse"><stop offset="0" stop-color="#fdd239"></stop><stop offset="1" stop-color="#efbc1d"></stop></linearGradient><path fill="url(#x)" d="M52.288 24.199a.654.654 0 0 1-.89.233.648.648 0 0 1-.237-.883.65.65 0 1 1 1.127.65z"></path><linearGradient id="y" x1="-773.897" x2="-762.952" y1="980.539" y2="992.792" gradientTransform="rotate(29.971 1437.79 2041.54)" gradientUnits="userSpaceOnUse"><stop offset="0" stop-color="#fdd239"></stop><stop offset="1" stop-color="#efbc1d"></stop></linearGradient><path fill="url(#y)" d="M54.02 25.427a.654.654 0 0 1-.89.234.648.648 0 0 1-.238-.884.65.65 0 1 1 1.127.65z"></path><linearGradient id="z" x1="-772.722" x2="-761.776" y1="979.489" y2="991.742" gradientTransform="rotate(29.971 1437.79 2041.54)" gradientUnits="userSpaceOnUse"><stop offset="0" stop-color="#fdd239"></stop><stop offset="1" stop-color="#efbc1d"></stop></linearGradient><path fill="url(#z)" d="M55.85 26.483a.654.654 0 0 1-.89.234.648.648 0 0 1-.237-.884.65.65 0 1 1 1.127.65z"></path><linearGradient id="A" x1="-771.447" x2="-760.502" y1="978.351" y2="990.604" gradientTransform="rotate(29.971 1437.79 2041.54)" gradientUnits="userSpaceOnUse"><stop offset="0" stop-color="#fdd239"></stop><stop offset="1" stop-color="#efbc1d"></stop></linearGradient><path fill="url(#A)" d="M57.78 27.366a.654.654 0 0 1-.89.234.648.648 0 0 1-.236-.884.65.65 0 1 1 1.127.65z"></path><linearGradient id="B" x1="-770.109" x2="-759.163" y1="977.155" y2="989.408" gradientTransform="rotate(29.971 1437.79 2041.54)" gradientUnits="userSpaceOnUse"><stop offset="0" stop-color="#fdd239"></stop><stop offset="1" stop-color="#efbc1d"></stop></linearGradient><path fill="url(#B)" d="M59.775 28.138a.654.654 0 0 1-.89.234.648.648 0 0 1-.237-.884.65.65 0 1 1 1.127.65z"></path><linearGradient id="C" x1="-774.451" x2="-763.505" y1="981.034" y2="993.287" gradientTransform="rotate(29.971 1437.79 2041.54)" gradientUnits="userSpaceOnUse"><stop offset="0" stop-color="#fdd239"></stop><stop offset="1" stop-color="#efbc1d"></stop></linearGradient><path fill="url(#C)" d="M52.493 21.717a.654.654 0 0 1-.885.25.648.648 0 0 1-.253-.88.65.65 0 1 1 1.138.63z"></path><linearGradient id="D" x1="-773.478" x2="-762.532" y1="980.164" y2="992.417" gradientTransform="rotate(29.971 1437.79 2041.54)" gradientUnits="userSpaceOnUse"><stop offset="0" stop-color="#fdd239"></stop><stop offset="1" stop-color="#efbc1d"></stop></linearGradient><path fill="url(#D)" d="M54.123 23.137a.654.654 0 0 1-.885.25.648.648 0 0 1-.253-.88.65.65 0 1 1 1.138.63z"></path><linearGradient id="E" x1="-772.381" x2="-761.435" y1="979.185" y2="991.438" gradientTransform="rotate(29.971 1437.79 2041.54)" gradientUnits="userSpaceOnUse"><stop offset="0" stop-color="#fdd239"></stop><stop offset="1" stop-color="#efbc1d"></stop></linearGradient><path fill="url(#E)" d="M55.876 24.335a.654.654 0 0 1-.886.249.648.648 0 0 1-.252-.88.65.65 0 1 1 1.138.63z"></path><linearGradient id="F" x1="-771.187" x2="-760.242" y1="978.118" y2="990.371" gradientTransform="rotate(29.971 1437.79 2041.54)" gradientUnits="userSpaceOnUse"><stop offset="0" stop-color="#fdd239"></stop><stop offset="1" stop-color="#efbc1d"></stop></linearGradient><path fill="url(#F)" d="M57.725 25.358a.654.654 0 0 1-.885.25.648.648 0 0 1-.253-.88.65.65 0 1 1 1.138.63z"></path><linearGradient id="G" x1="-769.896" x2="-758.951" y1="976.965" y2="989.218" gradientTransform="rotate(29.971 1437.79 2041.54)" gradientUnits="userSpaceOnUse"><stop offset="0" stop-color="#fdd239"></stop><stop offset="1" stop-color="#efbc1d"></stop></linearGradient><path fill="url(#G)" d="M59.67 26.207a.654.654 0 0 1-.885.249.648.648 0 0 1-.252-.88.65.65 0 1 1 1.138.63z"></path><linearGradient id="H" x1="-773.126" x2="-762.181" y1="979.851" y2="992.104" gradientTransform="rotate(29.971 1437.79 2041.54)" gradientUnits="userSpaceOnUse"><stop offset="0" stop-color="#fdd239"></stop><stop offset="1" stop-color="#efbc1d"></stop></linearGradient><path fill="url(#H)" d="M54.145 20.978a.654.654 0 0 1-.89.233.648.648 0 0 1-.236-.883.65.65 0 1 1 1.126.65z"></path><linearGradient id="I" x1="-772.05" x2="-761.104" y1="978.889" y2="991.142" gradientTransform="rotate(29.971 1437.79 2041.54)" gradientUnits="userSpaceOnUse"><stop offset="0" stop-color="#fdd239"></stop><stop offset="1" stop-color="#efbc1d"></stop></linearGradient><path fill="url(#I)" d="M55.877 22.206a.654.654 0 0 1-.89.234.648.648 0 0 1-.237-.884.65.65 0 1 1 1.127.65z"></path><linearGradient id="J" x1="-770.875" x2="-759.929" y1="977.839" y2="990.092" gradientTransform="rotate(29.971 1437.79 2041.54)" gradientUnits="userSpaceOnUse"><stop offset="0" stop-color="#fdd239"></stop><stop offset="1" stop-color="#efbc1d"></stop></linearGradient><path fill="url(#J)" d="M57.708 23.262a.654.654 0 0 1-.89.234.648.648 0 0 1-.237-.884.65.65 0 1 1 1.127.65z"></path><linearGradient id="K" x1="-769.6" x2="-758.654" y1="976.701" y2="988.953" gradientTransform="rotate(29.971 1437.79 2041.54)" gradientUnits="userSpaceOnUse"><stop offset="0" stop-color="#fdd239"></stop><stop offset="1" stop-color="#efbc1d"></stop></linearGradient><path fill="url(#K)" d="M59.638 24.145a.654.654 0 0 1-.89.234.648.648 0 0 1-.237-.884.65.65 0 1 1 1.127.65z"></path><linearGradient id="L" x1="10.239" x2="16.706" y1="26.546" y2="26.546" gradientUnits="userSpaceOnUse"><stop offset="0" stop-color="#ff4553"></stop><stop offset="1" stop-color="#e5283f"></stop></linearGradient><path fill="url(#L)" d="M16.706 29.555c0 .227-.092.44-.278.639-.186.2-.426.38-.72.543a5.98 5.98 0 0 1-.985.428c-.362.123-.72.227-1.074.313-.353.086-.686.151-.998.197-.313.045-.56.067-.74.067a3.44 3.44 0 0 1-.55-.047.963.963 0 0 1-.483-.21c-.073-.055-.136-.177-.19-.367a7.784 7.784 0 0 1-.157-.68 12.41 12.41 0 0 1-.129-.849c-.036-.303-.066-.6-.088-.89-.023-.29-.04-.557-.054-.801-.014-.245-.02-.435-.02-.571 0-.226.006-.5.02-.822.013-.321.034-.665.061-1.032.027-.367.063-.74.108-1.121.046-.38.098-.74.157-1.08.059-.34.13-.646.217-.917.086-.272.179-.485.279-.64.172-.244.389-.366.652-.366a.64.64 0 0 1 .462.184c.126.122.229.28.306.475.076.195.135.412.176.652a8.068 8.068 0 0 1 .116 1.366v.475c0 .707-.016 1.406-.048 2.1a45.376 45.376 0 0 0-.047 2.098v.53c.407-.127.85-.247 1.33-.36.48-.113.939-.17 1.373-.17.154 0 .31.01.469.027.158.019.299.057.42.116a.749.749 0 0 1 .3.258.8.8 0 0 1 .115.455z"></path><linearGradient id="M" x1="16.842" x2="22.739" y1="27.361" y2="27.361" gradientUnits="userSpaceOnUse"><stop offset="0" stop-color="#ff4553"></stop><stop offset="1" stop-color="#e5283f"></stop></linearGradient><path fill="url(#M)" d="M22.739 29.012c0 .308-.098.61-.292.903-.195.295-.44.557-.734.788-.295.231-.61.417-.944.557-.336.14-.643.21-.924.21-.48 0-.908-.12-1.284-.36s-.691-.545-.944-.916c-.254-.372-.446-.782-.578-1.23s-.197-.885-.197-1.311c0-.453.064-.937.19-1.454.127-.516.32-.991.578-1.426.258-.435.584-.797.978-1.087.394-.29.863-.435 1.406-.435.308 0 .602.053.884.156.28.105.524.252.733.442.208.19.376.417.503.68.126.262.19.556.19.882 0 .426-.09.825-.272 1.196a3.166 3.166 0 0 1-.72.964 3.68 3.68 0 0 1-1.032.66c-.39.167-.789.26-1.196.278.036.263.143.453.32.57.176.118.387.177.631.177.181 0 .358-.045.53-.136.172-.09.34-.192.503-.305.163-.113.323-.215.482-.306a.963.963 0 0 1 .482-.136c.181 0 .345.06.49.177a.568.568 0 0 1 .217.462zm-2.201-3.329a.821.821 0 0 0-.095-.367.314.314 0 0 0-.3-.19c-.199 0-.366.052-.502.157s-.25.235-.34.393a2.475 2.475 0 0 0-.3 1.012c.128-.026.28-.063.457-.108.176-.046.344-.106.502-.183.159-.078.295-.175.408-.293a.587.587 0 0 0 .17-.42z"></path><linearGradient id="N" x1="22.385" x2="28.227" y1="26.573" y2="26.573" gradientUnits="userSpaceOnUse"><stop offset="0" stop-color="#ff4553"></stop><stop offset="1" stop-color="#e5283f"></stop></linearGradient><path fill="url(#N)" d="M26.448 31.92c-.644 0-1.144-.085-1.502-.252a1.746 1.746 0 0 1-.801-.713c-.177-.308-.284-.68-.32-1.114-.036-.435-.054-.92-.054-1.454 0-.426.014-.854.04-1.284.028-.43.069-.89.123-1.38-.127 0-.226.003-.299.008a2.888 2.888 0 0 1-.177.006c-.29 0-.54-.063-.754-.19-.212-.127-.319-.321-.319-.584a.61.61 0 0 1 .184-.435 1.6 1.6 0 0 1 .468-.326c.19-.09.396-.163.619-.217.222-.054.432-.09.632-.109 0-.253.017-.534.054-.842.036-.308.102-.596.197-.863.095-.267.224-.49.387-.673a.804.804 0 0 1 .625-.271c.145 0 .274.043.387.129.113.086.206.195.278.326.073.131.127.278.164.441.036.164.054.322.054.476 0 .181-.014.367-.041.557-.027.19-.077.426-.15.707.155-.019.259-.03.313-.034.055-.005.104-.007.15-.007.154 0 .314.013.482.04.167.028.321.073.462.137.14.063.256.147.346.25.09.105.136.23.136.374a.59.59 0 0 1-.197.435 1.745 1.745 0 0 1-.496.326c-.199.091-.412.161-.638.211-.227.05-.44.084-.639.102-.054.371-.093.713-.115 1.025-.023.313-.048.628-.075.945-.018.154-.034.31-.048.468a5.746 5.746 0 0 0-.006.897c.008.159.04.31.095.455.054.145.14.27.258.374.117.104.28.156.49.156.126 0 .257-.011.393-.034.136-.022.272-.034.408-.034.235 0 .405.082.51.245.103.163.155.371.155.625 0 .19-.056.355-.17.496-.113.14-.255.253-.427.34a2.426 2.426 0 0 1-.578.196 2.93 2.93 0 0 1-.604.068z"></path><linearGradient id="O" x1="28.227" x2="30.455" y1="22.837" y2="22.837" gradientUnits="userSpaceOnUse"><stop offset="0" stop-color="#ff4553"></stop><stop offset="1" stop-color="#e5283f"></stop></linearGradient><path fill="url(#O)" d="M30.455 22.34c0 .146-.038.334-.115.565-.077.23-.172.455-.285.672s-.243.403-.387.557c-.145.154-.286.231-.422.231-.18 0-.271-.095-.271-.285 0-.109.022-.213.068-.313.045-.1.095-.196.149-.292.054-.095.104-.188.15-.278a.628.628 0 0 0 .067-.285.839.839 0 0 1-.21.108.676.676 0 0 1-.754-.203.815.815 0 0 1-.218-.557c0-.29.095-.521.286-.694.19-.171.43-.258.72-.258.326 0 .611.084.856.252.244.168.366.428.366.78z"></path><linearGradient id="P" x1="30.605" x2="35.265" y1="27.307" y2="27.307" gradientUnits="userSpaceOnUse"><stop offset="0" stop-color="#ff4553"></stop><stop offset="1" stop-color="#e5283f"></stop></linearGradient><path fill="url(#P)" d="M35.265 23.958c0 .263-.089.457-.265.584a4.786 4.786 0 0 1-.591.36 3.046 3.046 0 0 0-.591.4c-.177.155-.265.386-.265.694 0 .163.039.303.116.421.076.117.171.224.285.32.113.094.238.192.373.291.136.1.26.213.374.34.113.127.208.28.285.462.077.18.116.403.116.665 0 .38-.098.754-.292 1.121a3.743 3.743 0 0 1-.748.978 3.72 3.72 0 0 1-1.025.686 2.72 2.72 0 0 1-1.59.225 1.317 1.317 0 0 1-.414-.13.861.861 0 0 1-.306-.264.74.74 0 0 1-.122-.442c0-.253.05-.45.15-.59.1-.141.226-.252.38-.334.154-.081.319-.144.496-.19.176-.045.341-.102.495-.17.155-.068.281-.156.38-.265.1-.108.15-.262.15-.462 0-.19-.074-.387-.224-.59-.15-.204-.315-.422-.496-.653a6.003 6.003 0 0 1-.496-.74 1.73 1.73 0 0 1-.224-.87c0-.389.08-.75.238-1.08.158-.33.371-.618.639-.862.267-.245.572-.437.917-.578a2.85 2.85 0 0 1 1.087-.21c.144 0 .287.013.427.04.14.027.265.075.374.143a.804.804 0 0 1 .265.272.82.82 0 0 1 .102.428z"></path><linearGradient id="Q" x1="5.96" x2="12.25" y1="38.944" y2="38.944" gradientUnits="userSpaceOnUse"><stop offset="0" stop-color="#ff4553"></stop><stop offset="1" stop-color="#e5283f"></stop></linearGradient><path fill="url(#Q)" d="M11.93 38.033a4.65 4.65 0 0 1-2.057 2.195c-.453.24-.92.373-1.4.4-.033.594-.001.734-.068 1.4-.027.271-.066.543-.115.815a3.34 3.34 0 0 1-.218.734 1.533 1.533 0 0 1-.367.53.788.788 0 0 1-.55.203c-.253 0-.455-.084-.604-.251a1.675 1.675 0 0 1-.34-.605 3.572 3.572 0 0 1-.156-.74 20.004 20.004 0 0 1-.095-2.208c0-.811-.003-1.585.027-3.05.014-.67.045-1.563.102-2.235.022-.271.052-.43.088-.475a2.611 2.611 0 0 1 .23-.156 9.35 9.35 0 0 0 .15-.089 8.308 8.308 0 0 1 1.467-.666 4.522 4.522 0 0 1 1.482-.258c.416 0 .794.084 1.134.252.34.167.63.39.87.665.24.277.423.598.55.965.279.809.264 1.705-.13 2.574zM9.9 36.906c0-.181-.043-.34-.13-.476s-.228-.203-.427-.203c-.172 0-.344.034-.517.102-.172.068-.33.138-.475.21.027.317.052.625.075.924.022.299.024.607.006.924.145-.073.304-.157.476-.252s.33-.201.475-.32c.145-.117.268-.25.367-.4.1-.149.15-.319.15-.509z"></path><linearGradient id="R" x1="12.236" x2="18.35" y1="40.132" y2="40.132" gradientUnits="userSpaceOnUse"><stop offset="0" stop-color="#ff4553"></stop><stop offset="1" stop-color="#e5283f"></stop></linearGradient><path fill="url(#R)" d="M18.35 41.96c0 .163-.006.376-.02.639-.014.262-.052.518-.116.767s-.163.464-.299.645a.671.671 0 0 1-.57.272c-.335 0-.593-.109-.775-.326-.18-.217-.267-.489-.258-.815-.29.254-.618.453-.985.598-.366.144-.74.217-1.12.217-.263 0-.512-.064-.748-.19a2.406 2.406 0 0 1-1.06-1.162 1.839 1.839 0 0 1-.163-.74c0-.435.134-.815.401-1.142.267-.325.596-.604.985-.835.39-.231.804-.414 1.243-.55.44-.136.831-.226 1.175-.272 0-.045.003-.086.007-.122a.97.97 0 0 0 .007-.122c0-.281-.077-.508-.231-.68-.154-.172-.371-.258-.652-.258-.227 0-.421.039-.584.116a3.77 3.77 0 0 0-.462.258c-.145.095-.29.181-.435.258a1.025 1.025 0 0 1-.49.115c-.198 0-.368-.063-.508-.19a.629.629 0 0 1-.211-.489c0-.299.088-.57.265-.815.177-.245.398-.45.666-.618.267-.168.557-.3.87-.395.312-.094.6-.142.862-.142.245 0 .49.03.734.088a2.71 2.71 0 0 1 1.284.72c.176.177.319.383.427.618.163.336.295.691.395 1.067.099.376.176.76.23 1.155.055.394.09.788.11 1.182.017.394.026.777.026 1.148zm-2.174-.435-.04-.924a.202.202 0 0 1-.055-.007.244.244 0 0 0-.054-.006c-.118 0-.265.03-.441.088-.177.06-.347.14-.51.245-.163.104-.301.22-.414.346a.587.587 0 0 0-.17.394c0 .127.045.213.136.258.09.046.194.068.312.068.2 0 .412-.052.638-.156a7.09 7.09 0 0 0 .598-.306z"></path><linearGradient id="S" x1="19.111" x2="24.833" y1="40.221" y2="40.221" gradientUnits="userSpaceOnUse"><stop offset="0" stop-color="#ff4553"></stop><stop offset="1" stop-color="#e5283f"></stop></linearGradient><path fill="url(#S)" d="M23.88 38.794a.81.81 0 0 1-.326-.034 6.01 6.01 0 0 1-.272-.102 5.836 5.836 0 0 0-.245-.101.597.597 0 0 0-.272-.034.962.962 0 0 0-.482.15c-.14.09-.267.203-.38.339-.114.135-.21.287-.292.455a2.922 2.922 0 0 0-.19.496 2.994 2.994 0 0 0-.062.495c-.013.223-.02.46-.02.714a21.5 21.5 0 0 0-.014.747 4.4 4.4 0 0 1-.027.557c-.009.145-.032.315-.068.51a2.445 2.445 0 0 1-.17.55 1.32 1.32 0 0 1-.305.435.69.69 0 0 1-.49.176.622.622 0 0 1-.4-.136 1.085 1.085 0 0 1-.285-.36 2.431 2.431 0 0 1-.19-.523 5.42 5.42 0 0 1-.116-.611 10.805 10.805 0 0 1-.061-.652 16.443 16.443 0 0 1-.028-.618 10.451 10.451 0 0 1 0-.537c.005-.163.008-.294.008-.394a23.43 23.43 0 0 0-.048-.958 13.72 13.72 0 0 1-.034-.958c0-.199.009-.42.027-.665.018-.245.068-.474.15-.686a1.38 1.38 0 0 1 .36-.537c.158-.145.378-.218.659-.218.153 0 .285.05.393.15.109.1.197.222.265.367s.12.299.156.462c.037.163.06.312.068.448.218-.353.462-.64.734-.863.272-.221.625-.341 1.06-.36.217-.009.432.012.645.061.213.05.408.132.584.245.177.113.322.26.435.442.113.18.174.394.184.638.017.29-.068.512-.258.666-.19.154-.422.235-.694.244z"></path><linearGradient id="T" x1="24.138" x2="29.98" y1="39.018" y2="39.018" gradientUnits="userSpaceOnUse"><stop offset="0" stop-color="#ff4553"></stop><stop offset="1" stop-color="#e5283f"></stop></linearGradient><path fill="url(#T)" d="M28.2 44.365c-.643 0-1.144-.084-1.501-.252a1.746 1.746 0 0 1-.802-.713c-.177-.308-.283-.68-.32-1.114-.035-.435-.054-.92-.054-1.454 0-.426.014-.853.041-1.284.027-.43.068-.89.123-1.379-.127 0-.227.003-.3.007a2.89 2.89 0 0 1-.176.007c-.29 0-.541-.063-.754-.19-.213-.127-.32-.322-.32-.585a.61.61 0 0 1 .184-.434 1.6 1.6 0 0 1 .469-.326c.19-.09.396-.163.618-.218.222-.054.432-.09.632-.108 0-.254.018-.535.054-.843.036-.307.102-.595.197-.862.095-.267.224-.491.387-.673a.804.804 0 0 1 .625-.272c.145 0 .274.044.388.13.112.086.205.194.278.326.072.13.127.278.163.44.036.164.054.322.054.477 0 .18-.013.366-.04.557-.028.19-.078.425-.15.706.154-.018.258-.03.313-.034.054-.005.104-.007.149-.007.154 0 .315.014.482.041.168.027.322.073.462.136.14.063.256.147.347.251s.135.229.135.374a.59.59 0 0 1-.196.434 1.745 1.745 0 0 1-.496.327c-.2.09-.412.16-.639.21-.226.05-.44.084-.638.102-.055.372-.093.713-.116 1.026-.023.312-.047.627-.075.944-.018.154-.033.31-.047.469a5.746 5.746 0 0 0-.007.897c.009.158.041.31.095.455.055.145.14.27.258.373.118.105.28.156.49.156.126 0 .257-.01.393-.033s.272-.035.408-.035c.235 0 .405.082.51.245.103.163.156.372.156.625 0 .19-.057.356-.17.496-.113.14-.256.253-.428.34a2.426 2.426 0 0 1-.577.197 2.93 2.93 0 0 1-.605.068z"></path><linearGradient id="U" x1="30.048" x2="36.569" y1="42.034" y2="42.034" gradientUnits="userSpaceOnUse"><stop offset="0" stop-color="#ff4553"></stop><stop offset="1" stop-color="#e5283f"></stop></linearGradient><path fill="url(#U)" d="M33.2 47.83c-.218 0-.464-.035-.74-.103a3.514 3.514 0 0 1-.782-.292 2.231 2.231 0 0 1-.618-.462.893.893 0 0 1-.252-.625.6.6 0 0 1 .068-.272.778.778 0 0 1 .184-.237.988.988 0 0 1 .251-.163.685.685 0 0 1 .286-.062c.108 0 .215.016.319.048s.21.07.32.116c.117.045.232.086.346.122.113.036.233.054.36.054a.846.846 0 0 0 .59-.23 1.93 1.93 0 0 0 .429-.605c.117-.25.212-.526.285-.829a9.34 9.34 0 0 0 .17-.904c.04-.298.07-.58.088-.842.018-.262.031-.475.04-.639-.316.48-.63.85-.943 1.108-.313.258-.696.387-1.149.387-.344 0-.645-.072-.903-.217a2.15 2.15 0 0 1-.659-.571 3.226 3.226 0 0 1-.448-.808 5.09 5.09 0 0 1-.265-.945 7.889 7.889 0 0 1-.115-.958 6.762 6.762 0 0 1 0-.862c.008-.199.033-.46.074-.781a6.01 6.01 0 0 1 .197-.945c.09-.307.218-.568.38-.78s.376-.311.64-.293c.171.01.312.084.42.224.11.14.197.315.265.523.068.209.118.437.15.686.031.25.052.496.06.74s.012.47.007.674c-.004.203-.006.36-.006.468 0 .154.004.308.013.462.01.154.041.292.095.414.055.123.138.22.252.292.113.073.274.11.482.11.235 0 .423-.06.564-.177.14-.118.244-.265.312-.442s.111-.367.13-.57c.018-.204.026-.397.026-.578v-.462c0-.182.003-.371.008-.57.004-.2.022-.397.054-.591a2.26 2.26 0 0 1 .15-.53c.067-.159.158-.288.27-.388.114-.1.261-.149.442-.149.227 0 .422.088.585.265.163.177.3.408.414.693s.204.6.272.944c.068.344.12.686.156 1.026a16.291 16.291 0 0 1 .095 1.61c0 .38-.013.813-.04 1.297-.028.485-.08.983-.157 1.495a10.154 10.154 0 0 1-.346 1.508 5.472 5.472 0 0 1-.605 1.324c-.249.39-.555.702-.917.938-.362.235-.797.353-1.304.353z"></path><linearGradient id="V" x1="37.466" x2="40.001" y1="38.855" y2="38.855" gradientUnits="userSpaceOnUse"><stop offset="0" stop-color="#ff4553"></stop><stop offset="1" stop-color="#e5283f"></stop></linearGradient><path fill="url(#V)" d="M39.993 38.183c0 .145-.01.342-.027.591-.018.25-.046.516-.082.802a8.831 8.831 0 0 1-.156.87 6.298 6.298 0 0 1-.238.8c-.09.24-.199.435-.326.585-.127.15-.272.224-.435.224-.2 0-.369-.097-.509-.292a2.6 2.6 0 0 1-.353-.748 6.552 6.552 0 0 1-.224-1.011 15.877 15.877 0 0 1-.17-2.086 49.145 49.145 0 0 1-.007-.7V36.6c0-.249.011-.514.034-.795.022-.28.059-.559.108-.835a3.35 3.35 0 0 1 .225-.754c.1-.227.23-.41.394-.55a.904.904 0 0 1 .611-.211c.217 0 .396.093.537.279.14.185.253.425.34.72.085.294.149.622.19.985.04.362.068.718.081 1.066.014.349.018.673.014.971-.005.3-.007.535-.007.707zm-.258 5.163a.726.726 0 0 1-.109.4.951.951 0 0 1-.285.286 1.317 1.317 0 0 1-.38.17 1.592 1.592 0 0 1-.408.054c-.2 0-.39-.052-.57-.156s-.273-.27-.273-.496c0-.136.039-.26.116-.374s.174-.21.292-.292a1.465 1.465 0 0 1 .788-.258c.208 0 .398.052.57.156.173.104.259.274.259.51z"></path><path fill="#fff" d="M42.728 42.245c.062.038.038.2.01.283a6.097 6.097 0 0 1-.363.83l-1.082 1.772c-.03.05-.114.167-.221.3a5.402 5.402 0 0 1-.349.405c-.06.062-.194.158-.257.12-.063-.038-.039-.201-.011-.284a6.11 6.11 0 0 1 .368-.835l.938-1.542.138-.226c.06-.098.338-.462.571-.704.06-.062.195-.158.258-.12zM54.022 27.96c-.034.064-.242.024-.35-.013a7.75 7.75 0 0 1-1.099-.502l-.304-.191c-.292-.193-.888-.555-1.98-1.397a5.101 5.101 0 0 1-.369-.336c-.16-.155-.361-.35-.483-.568-.072-.111-.103-.35-.026-.369.068-.015.195.118.275.177.29.24.844.567.95.663 1.07.824 1.651 1.176 1.936 1.362l.294.184c.127.08.614.43.958.702.088.07.233.223.198.288zM59.22 22.394c-.05.053-.223-.015-.307-.064l-.875-.52-.25-.163c-.25-.147-.736-.483-1.824-.863l-.387-.154-.557-.225c-.09-.037-.249-.133-.237-.206.012-.072.197-.102.3-.102.393 0 .936.117 1.065.163 1.16.406 1.674.764 1.94.917l.263.172c.115.075.53.432.769.744.062.081.15.247.1.3z"></path></svg>