<svg xmlns="http://www.w3.org/2000/svg" enable-background="new 0 0 75 75" viewBox="0 0 75 75" id="party-glasses"><path fill="#ff79ff" d="M57.5800362,10.0076551l-2.3361015,3.8852854c0,0-0.0042915,0.0035696-0.0086098,0.0071611
									l-0.1736412,0.2913113c-0.0757256,0.1282845-0.0857697,0.2916813-0.0116539,0.4422007
									c0.0454903,0.1012602,2.2933578,5.1049156,2.1509285,4.7878704l0.0426178,0.0950909
									c0.1707954,0.3720188-0.1353188,0.7409019-0.5241852,0.6155663l-4.9599419-1.6026859
									c-0.1529274-0.0522919-0.3089218-0.0205021-0.4253845,0.0763721
									c-0.1004066,0.0859776-3.9071617,3.3457279-3.6651268,3.1384716
									c-0.2849846,0.2452183-0.7540627,0.0233955-0.7982063-0.3805618
									c-0.0107956-0.1021175-0.5578003-5.2776394-0.5468712-5.1755352
									c-0.049202-0.3898211-0.4226837-0.4678545-0.7809334-0.7458086c0,0,0,0-0.0040169-0.0048285l-0.5354652-0.354269
									c-0.0286865-0.0169268-0.0530853-0.0374746-0.0777588-0.0495739
									c-0.1002388-0.06567-3.1244354-2.0516891-3.3156471-2.1788645
									c-0.3229332-0.2149391-0.3395386-0.7281342,0.0307312-0.8579092c0.1049385-0.0362129,3.3213768-1.1461897,3.118412-1.076148
									l1.5040627-0.5166597c0.148262-0.0498629,0.2486382-0.1660271,0.2750435-0.318531l0.2556076-1.4121723l0.0681496-0.3830614
									l0.5861855-3.1641245c0.0681496-0.3830614,0.548378-0.4724803,0.8128738-0.1457253
									c0.0842133,0.1034102,3.4952354,4.2919216,3.4110489,4.188488c0.0999947,0.1289949,0.2563629,0.2029285,0.4113998,0.1963387
									L57.109581,9.240262C57.4864693,9.2300625,57.7761459,9.6811295,57.5800362,10.0076551z"></path><path fill="#fddcff" d="M44.9666061,10.854351c-2.2790947,1.3183975-3.1383476,1.1765051-3.5482216,1.7437534
									l-0.0126534,0.0023546c-0.0987244-0.2144623-0.0283127-0.5112085,0.2350388-0.6035109
									c0.1049385-0.0362129,3.3213768-1.1461897,3.118412-1.076148
									C44.8310165,10.9018888,44.8988113,10.8781195,44.9666061,10.854351z" opacity=".49"></path><path fill="#fa45ff" d="M46.5374527 15.3834982c.1432533.0620584.231102.2115984.20755.3595209-.0594673.3735275-.2040749 1.5813484-.2142258 2.3783302-.0210915-.1970654.0764046.7138844-.2062645-1.9273071-.0179482-.1607723-.1113701-.3110132-.2501106-.4022293l-.5314751-.3494196c0 0 0 0-.0040169-.0048285-.1499405-.1364059-.3676758-.2490435-.5354652-.354269-.0286865-.0169268-.0530853-.0374746-.0777588-.0495739-1.026226-.6723089-2.0481644-1.3481874-3.0704041-2.015646-.2434883-.1621027-.4922066-.2821836-.4888496-.6052628C42.9861641 13.5913649 44.7296638 14.6003704 46.5374527 15.3834982zM57.1348686 19.6315002c.064682-.0538006.0757294-.1282845.0660896-.2100163l.0426178.0950909c.1707954.3720188-.1353188.7409019-.5241852.6155663l-4.9599419-1.6026859c-.1529274-.0522919-.3089218-.0205021-.4253845.0763721l-1.9901505 1.7043781c1.4712067-2.030695 1.6325951-2.372345 2.0955048-2.5427246.4918976-.1806583 1.0738487.0451927 1.5971947.2708378 1.2114143.5264378 2.4188118 1.0480499 3.626236 1.5696373C56.8235092 19.6783218 57.0181046 19.7367935 57.1348686 19.6315002zM55.2353249 13.9001017l-.1736412.2913113c-.0757256.1282845-.0857697.2916813-.0116539.4422007l2.0150452 4.4928951c-.1411018-.2394619-.999115-1.0513-1.889946-2.7283115C54.677742 15.4449883 54.48452 14.681222 55.2353249 13.9001017zM57.5605164 9.5016346c-.4497643-.0849829-.6200638-.0151596-3.8752518.3593073-1.6839066.211957-2.1216621-.1897116-2.8827896-1.763751l.8696785 1.0718231c.0999947.1289949.2563629.2029285.4113998.1963387L57.109581 9.240262C57.3022461 9.2350483 57.4697571 9.348671 57.5605164 9.5016346zM46.7938957 8.6734371c.1340637.5156317.3025436 1.023119.5034714 1.5200281.0837517.2071209-.0157623.4217377-.2194939.4591866-1.0936203.2010279-2.1879387.4019852-3.2889099.6019354l2.4742813-.8504467c.148262-.0498629.2486382-.1660271.2750435-.318531L46.7938957 8.6734371z"></path><path fill="#fddcff" d="M48.2611046 4.980526l.7576103.9283676c-.1711998-.1268911-.3510361-.2465487-.5308723-.3662577-.1144524-.0761776-.249836-.1512299-.3601723-.1084089-.1781349.0665898-.277359.5000024-.3589058.6739211-.2599831.5339217-.4721489 1.1326127-.9067192 2.1822276l.5861855-3.1641245C47.5163803 4.7431898 47.9966087 4.6537709 48.2611046 4.980526zM47.350647 11.6882534c.4157295.4943638.7309456 1.0762472.9502907 1.6990995.1504402.4271946.4982834 1.1985655-.0108376 1.5677261-.2141991.1553144-.4994545.1689911-.723175.0680122-.2412834-.1089067-.3817482-.3461771-.5570526-.5330191-.414814-.442111-.9289742-1.3234653-.9954109-2.1624022C45.9404297 11.3928394 46.6372032 10.8398733 47.350647 11.6882534zM49.7174454 16.6924114c.0988274.2525024.3218536.7104721.0333252.9115906-.3347206.2333126-.6083107-.1435909-.7607841-.3046913-.2668228-.2819214-.5784416-.8064117-.6370926-1.2843819-.0283241-.2308378.0299339-.519186.2458382-.5872355C49.0334969 15.290659 49.5518074 16.2692051 49.7174454 16.6924114z" opacity=".49"></path><path fill="#ff79ff" d="M20.0605145,17.1266346c0.0950737,0.1494236,0.1174355,0.3429947,0.0195198,0.5060215
									l-2.3361015,3.8852844c0,0-0.0042915,0.0035706-0.0086079,0.0071602l-0.1736412,0.2913113
									c-0.0757275,0.1282845-0.0857697,0.2916813-0.0116539,0.4422016
									c0.0454903,0.1012592,2.2933598,5.1049156,2.1509285,4.7878704l0.0426178,0.0950909
									c0.1707973,0.3720188-0.1353207,0.7409019-0.5241833,0.6155663L14.25945,26.1544552
									c-0.1529303-0.0522919-0.3089228-0.0205021-0.4253855,0.0763721
									c-0.1004047,0.0859776-3.9071627,3.3457279-3.6651287,3.1384716
									c-0.2849827,0.2452183-0.7540607,0.0233955-0.7982054-0.3805618
									c-0.0107937-0.1021175-0.5578003-5.2776394-0.5468712-5.1755352
									c-0.0766449-0.6072388-4.7434287-3.0622215-4.9181261-3.5877419
									c-0.0987258-0.2144642-0.0283151-0.5112095,0.235039-0.6035118c0.1049533-0.0361614,4.7274542-1.628891,4.6224737-1.5928078
									c0.148263-0.0498638,0.2486362-0.1660271,0.2750435-0.318531c0.0182238-0.1010551,0.3440266-1.9076414,0.3237553-1.7952337
									l0.5861874-3.1641245c0.0681505-0.3830614,0.5483789-0.4724808,0.812871-0.1457253
									c0.0815678,0.1000319,2.7088356,3.3220377,2.5413713,3.1166649l0.8696804,1.0718231
									c0.0999937,0.128994,0.256362,0.2029285,0.4114008,0.1963387l5.0260277-0.1250896
									C19.8022442,16.8600483,19.9697571,16.973671,20.0605145,17.1266346z"></path><path fill="#fddcff" d="M7.4666052,18.479351c-2.2790937,1.3183975-3.1383481,1.176506-3.5482218,1.7437534
									l-0.0126505,0.0023556c-0.0987258-0.2144642-0.0283151-0.5112095,0.235039-0.6035118
									C8.6707935,18.0666409,7.1249576,18.5991344,7.4666052,18.479351z" opacity=".49"></path><path fill="#fa45ff" d="M9.0374517 23.0084991c.1432562.0620575.231102.2115974.207552.35952-.0594673.3735275-.2040758 1.5813484-.2142258 2.3783302-.0210905-.1970654.0764027.7138844-.2062674-1.9273071-.0179472-.1607723-.1113672-.3110142-.2501087-.4022293-.9777412-.6428185-2.5896993-1.7098255-4.2191195-2.773737-.2434888-.1621017-.4922056-.2821846-.4888518-.6052628C5.4861622 21.2163639 7.2296629 22.2253704 9.0374517 23.0084991zM19.6348705 27.2565002c.0646801-.0538006.0757256-.1282845.0660877-.2100163l.0426178.0950909c.1707973.3720188-.1353207.7409019-.5241833.6155663L14.25945 26.1544552c-.1529303-.0522919-.3089228-.0205021-.4253855.0763721l-1.9901524 1.7043781c.4314156-.5954781.8631582-1.1993961 1.2945995-1.7948971.6040087-.8450127 1.0022039-1.0788441 2.3981009-.4769897 1.2114153.5264378 2.4188128 1.0480499 3.6262388 1.5696373C19.3235111 27.3033218 19.5181046 27.3617935 19.6348705 27.2565002zM17.7353249 21.5251007l-.1736412.2913113c-.0757275.1282845-.0857697.2916813-.0116539.4422016l2.0150452 4.4928951c-.1411037-.2394619-.999115-1.0513-1.889946-2.7283115C17.1777439 23.0699883 16.9845181 22.306221 17.7353249 21.5251007zM20.0605145 17.1266346c-.4497643-.0849838-.62006-.0151596-3.8752499.3593063-1.6839056.2119579-2.1216631-.1897106-2.8827906-1.7637501l.8696804 1.0718231c.0999937.128994.256362.2029285.4114008.1963387l5.0260277-.1250896C19.8022442 16.8600483 19.9697571 16.973671 20.0605145 17.1266346zM9.2938938 16.2984371c.1340675.5156307.3025436 1.023119.5034723 1.5200291.0837517.2071209-.0157633.4217377-.219492.4591866-1.0936193.2010269-2.1879377.4019852-3.2889128.6019344l2.4742842-.8504467c.148263-.0498638.2486362-.1660271.2750435-.318531L9.2938938 16.2984371z"></path><path fill="#fddcff" d="M10.7611027 12.605526l.7576122.9283676c-.1711998-.1268911-.351037-.2465487-.5308723-.3662577-.4955053-.3298025-.4856215.067625-.71908.5655127-.2599812.5339212-.472146 1.1326122-.9067183 2.1822271l.5861874-3.1641245C10.0163822 12.3681898 10.4966106 12.2787704 10.7611027 12.605526zM9.8506451 19.3132534c.4157324.4943638.7309475 1.0762463.9502926 1.6991005.1504412.4271946.4982834 1.1985645-.0108366 1.5677242-.6552362.4751091-1.3285551-.4166775-1.7475958-1.1085625-.2756014-.4550495-.4840813-.9637089-.5280447-1.5188446-.0313139-.3954239.089942-.8967323.4647655-1.0309486C9.3144417 18.8016891 9.6326036 19.0539722 9.8506451 19.3132534zM12.2174463 24.3174114c.0988264.2525024.3218527.7104721.0333233.9115906-.3752279.261549-.8049002-.3047447-1.0505075-.6915131C10.2684517 23.0701275 11.3806057 22.1792774 12.2174463 24.3174114z" opacity=".49"></path><path fill="#fc8f00" d="M48.6726532,40.2795105c-4.0022392,3.0120659-8.096283,6.039856-10.4899902,10.5400391
					c-1.3600464,2.5499878-2.0800171,5.4400024-1.6500244,8.2799683c0.2700195,1.75,3.2200317,6.4299927,1.7600098,7.7300415
					c-0.5499878,0.4899902-1.3099976,0.6399536-2.0300293,0.7799683c-1.0199585,0.1799927-2.0999756,0.3699951-3.0700073-0.0100098
					c-1.0499878-0.4099731-1.7599487-1.4400024-2.0799561-2.5199585
					c-1.7300415-5.8400269,0.1199951-11.8500366,3.6099701-16.6300049
					c3.2042465-4.4166298,8.0661469-7.9670868,12.3700104-11.1199951L48.6726532,40.2795105z"></path><path fill="#fda929" d="M47.7351532,40.3420105C43.8032265,43.3011589,39.6278,46.4026794,37.245163,50.8820496
					c-1.3600464,2.5499878-2.0800171,5.4400024-1.6500244,8.2799683c0.2700195,1.75,3.2200317,6.4299927,1.7600098,7.7300415
					c-0.5499878,0.4899902-1.3099976,0.6399536-2.0300293,0.7799683c-1.0199585,0.1799927-2.0999756,0.3699951-3.0700073-0.0100098
					c-1.0499878-0.4099731-1.7599487-1.4400024-2.0799561-2.5199585
					c-1.7300415-5.8400269,0.1199951-11.8500366,3.6099854-16.6300049c0.3699951-0.5100098,0.7600098-1,1.1599731-1.4800415
					c3.2367477-3.8107529,7.2135353-6.7122231,11.210022-9.6399536L47.7351532,40.3420105z"></path><path fill="#fc8f00" d="M44.8351288 42.5620422c-.4400024.3400269-.8699951.6900024-1.289978 1.0499878-.5195999-.4040565-1.7458344-1.807045-2.0499878-2.7199707.6900024-.5500488 1.3800049-1.0800171 2.0899658-1.6000366C44.5848083 40.7273979 44.6944618 41.1550064 44.8351288 42.5620422zM42.8851166 44.1720276c-2.243248 1.927372-4.2514725 4.0996666-5.6399536 6.710022-.0200195-.0300293-.0500488-.0499878-.0700073-.0800171-1.2647591-1.3731651-2.786087-1.9314003-3.3900146-2.289978.3699951-.5100098.7600098-1 1.1599731-1.4800415 1.2400513-1.4599609 2.6000366-2.7999878 4.0400391-4.0599976C40.3051605 43.322052 41.6051483 43.7220154 42.8851166 44.1720276z"></path><path fill="#fc8f00" d="M18.9028206,45.5387039c4.86483-0.8563766,9.7851067-1.7161522,14.7149239-1.4049301
					c4.9298172,0.3112183,9.9465637,1.912262,13.4757729,5.3683662c1.7024193,1.6671562,3.6681671,3.6880989,3.2749786,6.2748947
					c-0.2625732,1.7274513-1.5260391,3.2657394-3.169548,3.8589668c-1.0260963,0.3703651-1.815239,0.1281662-2.27034-1.4113998
					c-0.5119476-1.7318535-1.889431-3.7635155-3.0058517-5.2163811c-2.3966942-3.1189728-6.3463364-4.7347412-10.2576561-5.1515694
					c-3.9113216-0.416832-7.849371,0.2259979-11.7302933,0.8668175"></path><path fill="#fda929" d="M19.4653206,44.9762039c4.86483-0.8563766,9.7851067-1.7161522,14.7149239-1.4049301
					c4.9298172,0.3112183,9.9465637,1.912262,13.4757729,5.3683662c1.7024193,1.6671562,3.6681671,3.6880989,3.2749786,6.2748947
					c-0.2625732,1.7274513-1.5260391,3.2657394-3.169548,3.8589668c-1.0260963,0.3703651-1.815239,0.1281662-2.27034-1.4113998
					c-0.5119476-1.7318535-1.889431-3.7635155-3.0058517-5.2163811c-2.3966942-3.1189728-6.3463364-4.7347412-10.2576561-5.1515694
					c-3.9113216-0.416832-7.849371,0.2259979-11.7302933,0.8668175"></path><path fill="#fc8f00" d="M68.0491028,24.0825386c-0.0856171-0.2829475-0.2740707-0.532259-0.5283813-0.6829681
					c-3.7265854-2.2084141-9.0115318-3.5617619-13.2710457-3.3273258
					c-3.9848785,0.2193222-9.5182877,2.2456665-13.1013069,4.6590595c-0.6879196,0.4633579-1.5423851,0.5908985-2.3365822,0.3517685
					c-3.6410713-1.0963192-6.6600609-0.6099434-9.7949028,1.5854816c-0.6146927,0.4304886-1.3895569,0.5894699-2.1232071,0.4315948
					c-7.9646378-1.7139168-17.1595802,0.9912453-23.109478,6.5558376c-0.3125906,0.292347-0.4388187,0.7401543-0.3327365,1.1547966
					c0.7703588,3.0110817,1.8760178,5.9269066,3.1434424,8.7666473c1.3617306,3.0510445,3.3554158,5.9013557,6.1277776,7.7660713
					c4.9825563,3.3513184,12.2425356,2.7872162,16.6476173-1.2935257c4.4446869-4.1174316,4.7984924-10.0605202,3.230072-15.5416451
					c-0.1550751-0.5419388-0.2308998-1.1461716,0.0175133-1.6522522c0.8823929-1.79743,4.2161674-1.8574314,5.8364296-1.5192127
					c0.6482506,0.1353188,1.1408997,0.6579399,1.2788467,1.3056393c0.9317169,4.3746986,2.6986809,8.2190361,5.9004517,11.4198685
					c3.4448357,3.4438286,8.8656845,5.2400894,13.5265274,3.8246803c4.8454437-1.4714661,8.0048904-6.1235542,8.9844131-11.0918579
					C69.0936279,31.981329,69.4370117,28.6694489,68.0491028,24.0825386z"></path><path fill="#fda929" d="M67.2991028,23.5825386c-0.0856171-0.2829475-0.2740707-0.532259-0.5283813-0.6829681
					c-3.7265854-2.2084141-9.0115318-3.5617619-13.2710457-3.3273258
					c-3.9848785,0.2193222-9.5182877,2.2456665-13.1013069,4.6590595c-0.6879196,0.4633579-1.5423851,0.5908985-2.3365822,0.3517685
					c-3.6410713-1.0963192-6.660059-0.6099434-9.7949028,1.5854816c-0.6146927,0.4304886-1.3895569,0.5894699-2.1232071,0.4315948
					c-7.9646378-1.7139168-17.1595802,0.9912453-23.109478,6.5558376c-0.3125906,0.292347-0.4388187,0.7401543-0.3327365,1.1547966
					c0.7703586,3.0110817,1.8760178,5.9269066,3.1434424,8.7666473c1.3617306,3.0510445,3.3554158,5.9013557,6.1277776,7.7660713
					c4.9825563,3.3513184,12.2425356,2.7872162,16.6476173-1.2935257
					c4.4446869-4.1174316,4.7984924-10.0605202,3.2300739-15.5416451c-0.155077-0.5419388-0.2309036-1.1461716,0.0175114-1.6522522
					c0.8823929-1.79743,4.2161674-1.8574314,5.8364296-1.5192127c0.6482506,0.1353188,1.1408997,0.6579399,1.2788467,1.3056393
					c0.9317169,4.3746986,2.6986809,8.2190361,5.9004517,11.4198685c3.4448357,3.4438286,8.8656845,5.2400894,13.5265274,3.8246803
					c4.8454399-1.4714661,8.0048904-6.1235542,8.9844131-11.0918579
					C68.3436279,31.481329,68.6870117,28.1694489,67.2991028,23.5825386z"></path><path fill="#fc8f00" d="M64.0051117,34.9320374c-1.6399536,5.7000122-7.2599487,9.1199951-13.039978,7.1400146
					c-2.7853775-0.9469337-4.6746178-2.9695663-6.2399902-5.4400024c-0.8800049-1.3800049-1.5300293-2.7900391-1.9000244-4.3900146
					c-0.1199951-0.5200214-0.8899536-4.0299702-0.3999634-4.3200092c6.2600098-3.7399902,14.1599731-4.5700073,21.0599976-2.2600098
					c0.3900146,0.1300049,0.6799927,0.4299927,0.8200073,0.8000488c0.039978,0.1299438,0.0599976,0.2599487,0.0700073,0.3999634
					C64.4851532,29.5620403,64.7551117,32.36203,64.0051117,34.9320374z"></path><path fill="#fbdc2a" d="M64.0051117,34.9320374c-1.9243889,6.7266884-8.9858818,9.5052414-14.4399414,6.5300293
					c-2.1174698-1.6578331-4.432869-5.0354385-5.1600342-8.1800537c-0.1199951-0.5199585-0.8800049-4.0299702-0.3900146-4.3199482
					c6.4180946-3.77528,13.8797379-4.4097881,20.2900391-2.5c0.039978,0.1299438,0.0599976,0.2599487,0.0700073,0.3999634
					C64.4851532,29.5620403,64.7551117,32.36203,64.0051117,34.9320374z"></path><path fill="#fc8f00" d="M28.3951263,40.1220398c-0.8200073,5.8699951-5.7000122,10-11.4299927,8.7999878
					c-0.6699829-0.1400146-1.2899771-0.3399658-1.8699942-0.6099854c-0.0100098-0.0100098-0.0200195-0.0200195-0.0299683-0.0200195
					c-2.9762402-1.3440208-5.929409-4.8858452-7.0800171-8.0499878c-0.1799927-0.4899902-1.3599854-3.8699951-0.9299927-4.2199707
					c5.4299927-4.5300312,12.8099966-6.4000263,19.6399536-5.0100117c0.4601383,0.094738,0.9027615,0.485981,1,1.0700092
					C28.1451263,34.7420349,28.7551117,37.4820251,28.3951263,40.1220398z"></path><path fill="#fbdc2a" d="M28.3951263,40.1220398c-1.0001202,7.24086-7.7456303,10.7641716-13.2999868,8.1900024
					c-0.0100098-0.0100098-0.0200195-0.0200195-0.0299683-0.0200195c-2.2609291-1.4607964-4.813859-4.3925591-5.8900146-7.2999878
					c-0.1900024-0.4899902-1.4100342-3.8699951-0.9700317-4.2199707c1.3360643-1.0725975,2.7450647-1.9938316,4.5200195-2.8699951
					c0-0.0100098,0-0.0100098,0-0.0100098c4.7889051-2.3390541,10.0856829-3.027689,14.7899771-2.3000507
					c0.0900269,0.1500244,0.1500244,0.3100586,0.1799927,0.4900532
					C28.1451263,34.7420349,28.7551117,37.4820251,28.3951263,40.1220398z"></path><path fill="#fda929" d="M56.7151337 42.322052c-2.5160141.6605949-5.1948395.206543-7.1499634-.8599854-2.1174698-1.6578331-4.432869-5.0354385-5.1600342-8.1800537-.1199951-.5199585-.8800049-4.0299702-.3900146-4.3199482 1.7154427-1.0090656 3.3829308-1.7574997 5.4899902-2.4200439-2.4199829 3.0800171-1.2199707 7.2500019.8400269 10.330019C51.9651337 39.1820374 54.2351532 40.9420471 56.7151337 42.322052zM17.535141 49.0220642c-.7764816-.1227226-1.5971146-.3193855-2.4400015-.710022-.0100098-.0100098-.0200195-.0200195-.0299683-.0200195-2.2609291-1.4607964-4.813859-4.3925591-5.8900146-7.2999878-.1900024-.4899902-1.4100342-3.8699951-.9700317-4.2199707 1.3360643-1.0725975 2.7450647-1.9938316 4.5200195-2.8699951 0-.0100098 0-.0100098 0-.0100098.4299927-.210022.8599854-.4100342 1.2999878-.5900269-.8300171.8300171-1.5200195 1.4700317-1.7999878 2.8699951C11.2331438 41.2510643 13.3288755 46.2177963 17.535141 49.0220642z" opacity=".53"></path><path fill="#ffed94" d="M24.421217 38.8969269c-.753376 4.7103615-6.957407-2.0622292-5.3067036-5.3127708.5203838-1.0247269 1.8883839-1.3465004 2.9216232-1.0124779C24.2887001 33.2998772 24.7974739 36.5444374 24.421217 38.8969269zM25.24119 44.2830276c-.2896481 1.8109741-2.6849937-.7939339-2.0473118-2.0496483.2007618-.39534.7285328-.5194778 1.1271553-.3906136C25.1900654 42.123703 25.3863487 43.3754463 25.24119 44.2830276zM60.1087189 32.7094269c-.753376 4.7103615-6.9574089-2.0622272-5.3067055-5.3127689.5203819-1.0247288 1.8883858-1.3465023 2.9216232-1.0124817C59.9762001 27.1123772 60.4849739 30.3569393 60.1087189 32.7094269zM60.9286919 38.0955276c-.2914238 1.8220634-2.6819878-.7998619-2.0473137-2.0496483.2007637-.39534.7285347-.5194778 1.1271553-.3906136C60.8775673 35.936203 61.0738487 37.1879463 60.9286919 38.0955276zM30.8039722 27.0979156c.822588.690012.9232197 2.3488026.6514759 3.4126205-.4546661 1.7799263-2.64114 1.1222019-2.8200932-.4197578C28.5088978 29.0011368 29.132925 25.6963196 30.8039722 27.0979156zM30.3708305 33.0769348c.2031078.170372.3121872.4286804.3733959.6866226.0944176.3978958.0908184.8186722-.0103931 1.2148933-.2533417.9917755-1.4716473.6252899-1.5713596-.2338905C29.0920105 34.1374092 29.4397202 32.2959633 30.3708305 33.0769348z"></path><path fill="#ff5746" d="M53.2700043 52.3304138c-.2758789-.0078125-.4936523-.2373047-.4863281-.5136719s.2524414-.4775391.5136719-.4863281c6.2666016.1816406 10.8530273-1.2255859 13.6469727-4.1445313 1.9321289-2.0185547 3.1967773-4.96875 3.8666992-9.0195313.78125-4.7285156.6889648-9.5068378-.2739258-14.2016621-.0556641-.2705078.1186523-.534668.3891602-.590332.2729492-.0537109.5351563.1191406.590332.3891602.987793 4.8149414 1.0825195 9.7153339.2807617 14.5659199-.7036133 4.2558594-2.0546875 7.3789063-4.1303711 9.5478516C64.0916443 51.6112251 58.4524422 52.4619827 53.2700043 52.3304138zM30.0375824 69.7151794c-.6035156-.4091797-.9619141-1.0449219-1.2597656-1.6699219-2.1025391-4.4111328-2.4462891-9.6074219-.9423828-14.2568359.0849609-.2617188.3666992-.40625.6293945-.3212891s.4067383.3671875.3217773.6298828c-1.4257813 4.4072266-1.0996094 9.3349609.8935547 13.5185547.2744141.5751953.5356445 1.0117188.9189453 1.2714844.5317383.3613281 1.2875977.3544922 2.0136719.3164063 2.0883789-.1123047 4.1904297-.3701172 6.2470703-.7685547.2709961-.0507813.5336914.125.5859375.3964844.0527344.2705078-.1245117.5332031-.3955078.5859375-2.1020508.40625-4.25.6699219-6.3842773.7841797C31.7431698 70.2520065 30.8000393 70.2316437 30.0375824 69.7151794z"></path></svg>