<svg xmlns="http://www.w3.org/2000/svg" viewBox="0 0 60 60" id="party-popper"><path fill="#fdc70e" d="M48.327,43.965,3.656,58.892a2.013,2.013,0,0,1-2.548-2.548L16.035,11.673Z"></path><path fill="#d39518" d="M48.327,43.967s-6.579-1.49-18.684-13.607C17.859,18.587,16.119,12.02,16.036,11.677v-.012s6.591,1.491,18.7,13.6S48.327,43.967,48.327,43.967Z"></path><path fill="#2167d8" d="M19.46,53.61l-6.62,2.21c-1.39-1.24-2.87-2.63-4.45-4.21s-2.97-3.06-4.21-4.45l2.21-6.62c1.68,2.03,3.73,4.3,6.25,6.82S17.43,51.93,19.46,53.61Z"></path><path fill="#d3374e" d="M37.48,47.59l-7.11,2.37a82.594,82.594,0,0,1-10.93-9.4,82.594,82.594,0,0,1-9.4-10.93l2.37-7.11A74.4,74.4,0,0,0,23.69,36.31,74.4,74.4,0,0,0,37.48,47.59Z"></path><path fill="#2167d8" d="M25.533,20.406a1,1,0,0,1-.707-1.707,12.2,12.2,0,0,0,2.36-14.675A1,1,0,1,1,28.9,3a14.247,14.247,0,0,1-2.66,17.118A.993.993,0,0,1,25.533,20.406Z"></path><path fill="#23af6f" d="M23.86,10.366a1,1,0,0,1-.707-.293L21.479,8.4a1,1,0,1,1,1.415-1.414l1.673,1.673a1,1,0,0,1-.707,1.707Z"></path><path fill="#d3374e" d="M35.573,8.693a1,1,0,0,1-1-1V6.02a1,1,0,0,1,2,0V7.693A1,1,0,0,1,35.573,8.693Z"></path><path fill="#23af6f" d="M37.247,15.387H35.573a1,1,0,0,1,0-2h1.674a1,1,0,0,1,0,2Z"></path><path fill="#2167d8" d="M40.593,35.467a1,1,0,0,1-.707-1.707A14.248,14.248,0,0,1,57.005,31.1a1,1,0,0,1-1.027,1.715h0A12.067,12.067,0,0,0,41.3,35.174,1,1,0,0,1,40.593,35.467Z"></path><path fill="#23af6f" d="M52.307,38.813a1,1,0,0,1-.707-.292l-1.674-1.674a1,1,0,0,1,1.414-1.414l1.674,1.673a1,1,0,0,1-.707,1.707Z"></path><path fill="#d3374e" d="M53.979 25.427H52.307a1 1 0 010-2h1.672a1 1 0 010 2zM45.613 25.427a1 1 0 01-1-1V22.753a1 1 0 012 0v1.674A1 1 0 0145.613 25.427z"></path><path fill="#fdc70e" d="M37.247,22.08a1,1,0,0,1-.707-1.707,4.061,4.061,0,0,1,3.216-1.128h.022a2.1,2.1,0,0,0,1.779-.542,2.119,2.119,0,0,0,.542-1.8,3.94,3.94,0,0,1,4.346-4.348A2,2,0,0,0,48.8,10.2a4.067,4.067,0,0,1,1.131-3.218A1,1,0,1,1,51.34,8.4a2.128,2.128,0,0,0-.545,1.8,3.942,3.942,0,0,1-4.349,4.349A1.993,1.993,0,0,0,44.1,16.9a4.054,4.054,0,0,1-1.128,3.216,4.105,4.105,0,0,1-3.216,1.128h-.023a2.094,2.094,0,0,0-1.778.542A1,1,0,0,1,37.247,22.08Z"></path><path fill="#d3374e" d="M40.594 10.366a1 1 0 01-.925-1.381 9.272 9.272 0 00.042-7.515A1 1 0 0141.475.526a11.275 11.275 0 01.044 9.221A1 1 0 0140.594 10.366zM50.633 20.406a1 1 0 01-.381-1.925 11.266 11.266 0 019.222.044 1 1 0 01-.944 1.764 9.267 9.267 0 00-7.516.042A1.006 1.006 0 0150.633 20.406z"></path></svg>