<?xml version="1.0" encoding="UTF-8"?>
<svg id="Ebene_1" xmlns="http://www.w3.org/2000/svg" viewBox="0 0 22 22">
  <defs>
    <style>
      .cls-1 {
        fill: #ea4335;
      }

      .cls-2 {
        fill: #4285f4;
      }

      .cls-3 {
        fill: none;
      }

      .cls-4 {
        fill: #34a853;
      }

      .cls-5 {
        fill: #fbbc05;
      }
    </style>
  </defs>
  <path class="cls-2" d="M21.6,11.2c0-.8,0-1.5-.2-2.2h-10.4v4.3h5.9c-.3,1.4-1,2.5-2.2,3.3v2.8h3.6c2.1-1.9,3.3-4.7,3.3-8.1Z"/>
  <path class="cls-4" d="M11,22c3,0,5.5-1,7.3-2.7l-3.6-2.8c-1,.7-2.2,1.1-3.7,1.1-2.9,0-5.3-1.9-6.2-4.5H1.2v2.8c1.8,3.6,5.5,6.1,9.8,6.1Z"/>
  <path class="cls-5" d="M4.8,13.1c-.2-.7-.3-1.4-.3-2.1s.1-1.4.3-2.1v-2.8H1.2c-.8,1.5-1.2,3.2-1.2,4.9s.4,3.4,1.2,4.9l2.8-2.2.8-.6Z"/>
  <path class="cls-1" d="M11,4.4c1.6,0,3.1.6,4.2,1.6l3.1-3.2c-1.9-1.8-4.4-2.9-7.4-2.9C6.7,0,3,2.5,1.2,6.1l3.7,2.8c.9-2.6,3.3-4.5,6.2-4.5Z"/>
  <path class="cls-3" d="M0,0h22v22H0V0Z"/>
</svg>