<svg width="171" height="30" viewBox="0 0 171 30" fill="none" xmlns="http://www.w3.org/2000/svg">
<g clip-path="url(#clip0_534_215)">
<path d="M3.62981 9.44631H12.2737V7.17603H3.62981V2.63196H13.271V0.359924H3.62981H0.804688V15.6812H3.62981V9.44631Z" fill="white"/>
<path d="M24.9833 0.359924H23.9316H22.1582V8.97575V15.6812H24.9833V0.359924Z" fill="white"/>
<path d="M47.6958 0.359924C45.3547 5.47522 43.4543 9.63067 41.9947 12.8263C39.2333 6.73356 37.3476 2.57811 36.3374 0.359924H33.1523C36.4217 7.17603 38.8798 12.2831 40.5268 15.6812H43.3519C47.0462 8.01531 49.5119 2.90821 50.7492 0.359924H47.6958Z" fill="white"/>
<path d="M58.7441 0.359924V15.6812H61.5693H71.2105V13.4092H61.5693V9.00384H70.2132V6.73181H61.5693V2.63196H71.2105V0.359924H61.5693H58.7441Z" fill="white"/>
<path d="M103.973 12.9387C104.186 12.4106 104.29 11.8451 104.279 11.2759C104.279 10.3898 104.076 9.67868 103.67 9.14257C103.252 8.59771 102.71 8.16064 102.089 7.86785C101.042 7.36872 99.9175 7.05051 98.7638 6.92672C97.6903 6.79433 96.6319 6.55914 95.6033 6.22439C95.1953 6.10565 94.8184 5.89888 94.4989 5.61864C94.3627 5.49162 94.2552 5.3369 94.1837 5.16487C94.1122 4.99285 94.0784 4.80751 94.0846 4.62133C94.0846 3.93773 94.3983 3.37469 95.0257 2.93223C95.6718 2.48742 96.4912 2.2656 97.4838 2.26677C98.4636 2.26677 99.2765 2.5161 99.9227 3.01475C100.569 3.5333 100.892 4.1613 100.892 4.89875H103.872C103.872 3.7399 103.536 2.80932 102.865 2.10699C102.209 1.4103 101.404 0.870217 100.511 0.526747C100.013 0.359816 99.5037 0.230113 98.9868 0.13871C98.4932 0.0489402 97.9926 0.00252661 97.4909 0C96.5419 0.00967923 95.5995 0.158761 94.6938 0.442468C93.7706 0.705538 92.9306 1.202 92.255 1.884C91.9014 2.22137 91.619 2.62615 91.4245 3.07445C91.1983 3.56019 91.0848 4.09081 91.0926 4.6266C91.0926 5.5127 91.3045 6.22381 91.7282 6.75992C92.1398 7.31754 92.6826 7.76503 93.3085 8.06274C94.357 8.56262 95.4794 8.88991 96.6323 9.03196C97.6989 9.15722 98.7487 9.39861 99.7629 9.75184C100.182 9.8834 100.568 10.1004 100.899 10.3892C101.037 10.5202 101.146 10.6794 101.218 10.8559C101.29 11.0325 101.323 11.2224 101.315 11.4129C101.333 11.7895 101.237 12.1628 101.039 12.4838C100.841 12.8049 100.551 13.0589 100.207 13.2126C99.3557 13.6017 98.4267 13.7915 97.4909 13.7674C96.4198 13.7674 95.515 13.5274 94.7764 13.0475C94.4201 12.8394 94.1266 12.539 93.9267 12.1781C93.7268 11.8172 93.6279 11.4091 93.6403 10.9967H90.6765C90.666 11.5834 90.7692 12.1665 90.9803 12.7139C91.1859 13.205 91.4772 13.6557 91.8406 14.0448C92.5483 14.7727 93.4375 15.2982 94.4164 15.5671C95.4122 15.8758 96.4483 16.035 97.4909 16.0394C98.5299 16.0376 99.5642 15.8988 100.567 15.6268C101.526 15.3735 102.403 14.8777 103.115 14.1871C103.485 13.8352 103.777 13.41 103.973 12.9387Z" fill="white"/>
<path d="M111.172 0.359924V2.63196H117.266V10.2786V15.6812H120.12V2.63196H126.214V1.71718V0.359924H123.831H111.172Z" fill="white"/>
<path d="M158.979 15.6812V9.72373H162.703C164.847 12.6501 166.302 14.6359 167.068 15.6812H170.476C168.341 12.8544 166.781 10.7924 165.796 9.49547C166.66 9.3327 167.475 8.97211 168.176 8.44198C169.229 7.59216 169.756 6.45673 169.756 5.03568C169.756 3.61463 169.229 2.47862 168.176 1.62763C167.105 0.776639 165.553 0.354071 163.521 0.359923H156.146V15.6812H158.973H158.979ZM158.979 5.54136V2.63371H163.521C164.557 2.63371 165.36 2.81866 165.932 3.18856C166.503 3.55845 166.789 4.17708 166.79 5.04446C166.79 5.89428 166.504 6.51291 165.932 6.90037C165.359 7.26909 164.556 7.45345 163.521 7.45345H158.979V5.54136Z" fill="white"/>
<path d="M137.18 13.9079L137.396 13.8253L137.284 13.785C136.637 13.549 136.05 13.1715 135.568 12.68C135.085 12.1885 134.718 11.5954 134.494 10.944L134.483 10.9142L134.475 10.944C134.25 11.5952 133.883 12.1881 133.4 12.6796C132.918 13.1711 132.332 13.5487 131.685 13.785L131.572 13.8253L131.788 13.9079C132.406 14.1436 132.966 14.509 133.431 14.9793C133.896 15.4496 134.255 16.0141 134.483 16.6347C134.713 16.0141 135.072 15.4498 135.537 14.9795C136.002 14.5092 136.562 14.1438 137.18 13.9079Z" fill="#D39337"/>
<path d="M148.152 15.6812L140.782 0.359924H138.012L144.965 15.6812H148.152Z" fill="white"/>
<path d="M48.6008 26.5972V27.4506H50.7815C50.6938 27.8833 50.4742 28.2783 50.153 28.5813C49.7732 28.9195 49.2754 29.0942 48.7676 29.0677C48.4848 29.0751 48.2037 29.0216 47.9435 28.9107C47.6832 28.7998 47.4499 28.6342 47.2594 28.425C47.0537 28.2039 46.8939 27.9442 46.7893 27.6609C46.6847 27.3776 46.6374 27.0763 46.6501 26.7746C46.6225 26.1671 46.8286 25.5721 47.226 25.1118C47.4149 24.9006 47.6479 24.7336 47.9086 24.6225C48.1692 24.5115 48.4511 24.4591 48.7343 24.4692C49.1711 24.4502 49.6024 24.5734 49.9633 24.8203C50.2358 25.0228 50.4344 25.309 50.5287 25.635H51.6366C51.5213 25.0479 51.189 24.5257 50.706 24.1724C50.1352 23.7357 49.4297 23.5121 48.7114 23.5403C47.7364 23.5403 46.9533 23.8505 46.3621 24.4709C45.7834 25.0974 45.4629 25.9194 45.4649 26.7722C45.4668 27.6251 45.7911 28.4457 46.3727 29.0694C46.979 29.691 47.7662 30.0018 48.7343 30.0018C49.6204 30.0018 50.2923 29.7091 50.7499 29.1239C50.7675 29.101 50.7851 29.08 50.8009 29.0571C50.8307 29.4259 50.8553 29.684 50.8728 29.8332H51.7227V26.5972H48.6008Z" fill="white"/>
<path d="M69.2955 26.9414C69.4937 26.7737 69.653 26.5649 69.7622 26.3295C69.8714 26.094 69.928 25.8375 69.928 25.578C69.928 25.3184 69.8714 25.062 69.7622 24.8265C69.653 24.591 69.4937 24.3822 69.2955 24.2146C68.8671 23.8739 68.2467 23.7042 67.4344 23.7054H64.4863V29.8332H65.6153V27.4506H67.106C67.964 28.6211 68.5458 29.4153 68.8513 29.8332H70.2156L68.3439 27.3593C68.6889 27.2947 69.0145 27.1517 69.2955 26.9414ZM66.5354 26.541H65.6153V24.6096H67.4344C67.77 24.5917 68.104 24.6684 68.3983 24.8309C68.5057 24.9225 68.592 25.0364 68.6512 25.1646C68.7103 25.2928 68.741 25.4324 68.741 25.5736C68.741 25.7148 68.7103 25.8543 68.6512 25.9826C68.592 26.1108 68.5057 26.2247 68.3983 26.3163C68.1043 26.4796 67.7701 26.5563 67.4344 26.5375L66.5354 26.541Z" fill="white"/>
<path d="M85.5906 23.5386C84.6097 23.5386 83.8231 23.8488 83.2308 24.4692C82.6529 25.0954 82.332 25.9163 82.332 26.7684C82.332 27.6205 82.6529 28.4414 83.2308 29.0677C83.816 29.6892 84.6026 30 85.5906 30C86.5785 30 87.3692 29.6892 87.9627 29.0677C88.5398 28.441 88.8602 27.6203 88.8602 26.7684C88.8602 25.9165 88.5398 25.0958 87.9627 24.4692C87.3646 23.8499 86.5738 23.5397 85.5906 23.5386ZM87.0865 28.425C86.899 28.6346 86.668 28.8007 86.4096 28.9117C86.1512 29.0227 85.8717 29.0759 85.5906 29.0677C85.3109 29.0765 85.0328 29.0235 84.776 28.9124C84.5192 28.8014 84.2902 28.6349 84.1052 28.425C83.7259 27.9562 83.5189 27.3715 83.5189 26.7684C83.5189 26.1654 83.7259 25.5806 84.1052 25.1118C84.2904 24.9022 84.5195 24.736 84.7762 24.6249C85.033 24.5138 85.311 24.4607 85.5906 24.4692C85.8714 24.4605 86.1508 24.5132 86.4091 24.6235C86.6675 24.7339 86.8987 24.8994 87.0865 25.1083C87.4595 25.5799 87.6625 26.1636 87.6625 26.7649C87.6625 27.3662 87.4595 27.9499 87.0865 28.4215V28.425Z" fill="white"/>
<path d="M106.174 25.1293V26.6358C106.174 27.4353 106.004 28.0206 105.663 28.3916C105.499 28.5741 105.297 28.719 105.072 28.8162C104.846 28.9135 104.602 28.9609 104.357 28.9553C104.111 28.9626 103.866 28.916 103.64 28.8186C103.414 28.7212 103.212 28.5755 103.049 28.3916C102.708 28.0136 102.538 27.4283 102.54 26.6358V23.6334H101.414V26.6358C101.414 27.6998 101.687 28.5087 102.234 29.0624C102.81 29.6037 103.571 29.9051 104.361 29.9051C105.152 29.9051 105.912 29.6037 106.488 29.0624C107.036 28.5099 107.31 27.701 107.308 26.6358V23.6334H106.179L106.174 25.1293Z" fill="white"/>
<path d="M123.311 23.7036H120.201V29.8314H121.332V27.5664H123.316C124.113 27.5664 124.726 27.3967 125.154 27.0572C125.37 26.8898 125.543 26.6735 125.658 26.4263C125.774 26.179 125.829 25.9078 125.82 25.635V25.6245C125.831 25.3552 125.777 25.0872 125.664 24.8429C125.55 24.5985 125.38 24.3849 125.167 24.2198C124.727 23.8757 124.108 23.7036 123.311 23.7036ZM124.275 26.4287C123.981 26.5938 123.647 26.6712 123.311 26.6516H121.327V24.6131H123.311C123.647 24.593 123.981 24.6698 124.275 24.8344C124.503 24.9906 124.617 25.2558 124.617 25.6333C124.617 26.0108 124.503 26.2759 124.275 26.4304V26.4287Z" fill="white"/>
<path d="M36.7593 26.5516H0.845703V26.9853H36.7593V26.5516Z" fill="white"/>
<path d="M170.435 26.5516H134.523V26.9853H170.435V26.5516Z" fill="white"/>
</g>
<defs>
<clipPath id="clip0_534_215">
<rect width="169.67" height="30" fill="white" transform="translate(0.804688)"/>
</clipPath>
</defs>
</svg>
