<?xml version="1.0" encoding="UTF-8"?>
<svg id="Ebene_3" xmlns="http://www.w3.org/2000/svg" viewBox="0 0 20.7 22.6">
  <defs>
    <style>
      .cls-1 {
        fill: none;
        stroke: #fff;
        stroke-miterlimit: 10;
        stroke-width: 2px;
      }
    </style>
  </defs>
  <path class="cls-1" d="M13.4,12.3h.7c1,0,1.9.3,2.8.8.8.5,1.5,1.2,2,2s.8,1.8.8,2.8v1.7c0,.5-.2,1-.6,1.4s-.8.6-1.4.6H3c-.5,0-1-.2-1.4-.6s-.6-.8-.6-1.4v-1.7c0-1,.3-1.9.8-2.8.5-.8,1.2-1.5,2-2s1.8-.8,2.8-.8h.7M10.3,10.4c-.8,0-1.6-.2-2.4-.6-.7-.4-1.3-.9-1.7-1.7-.4-.7-.6-1.5-.6-2.4s.2-1.6.6-2.4c.4-.7.9-1.3,1.7-1.7.7-.4,1.5-.6,2.4-.6s1.6.2,2.4.6,1.3.9,1.7,1.7c.4.7.6,1.5.6,2.4s-.2,1.6-.6,2.4c-.4.7-.9,1.3-1.7,1.7s-1.5.6-2.4.6Z"/>
</svg>